0, 0, Header, 1, 2, 480
1, 0, Start_track
1, 0, Time_signature, 4, 2, 24, 8
1, 0, Tempo, 500000
1, 0, Control_c, 0, 121, 0
1, 0, Program_c, 0, 0
1, 0, Control_c, 0, 7, 100
1, 0, Control_c, 0, 10, 64
1, 0, Control_c, 0, 91, 0
1, 0, Control_c, 0, 93, 0
1, 0, MIDI_port, 0
1, 0, Note_on_c, 0, 72, 64
1, 911, Note_on_c, 0, 72, 0
1, 960, Note_on_c, 0, 84, 64
1, 1871, Note_on_c, 0, 84, 0
1, 1920, Note_on_c, 0, 79, 64
1, 3743, Note_on_c, 0, 79, 0
1, 3840, Note_on_c, 0, 77, 64
1, 4751, Note_on_c, 0, 77, 0
1, 4800, Note_on_c, 0, 84, 64
1, 5711, Note_on_c, 0, 84, 0
1, 5760, Note_on_c, 0, 72, 64
1, 7583, Note_on_c, 0, 72, 0
1, 7680, Note_on_c, 0, 72, 64
1, 8591, Note_on_c, 0, 72, 0
1, 8640, Note_on_c, 0, 77, 64
1, 9551, Note_on_c, 0, 77, 0
1, 9600, Note_on_c, 0, 84, 64
1, 10511, Note_on_c, 0, 84, 0
1, 10560, Note_on_c, 0, 86, 64
1, 11471, Note_on_c, 0, 86, 0
1, 11520, Note_on_c, 0, 84, 64
1, 12431, Note_on_c, 0, 84, 0
1, 12480, Note_on_c, 0, 79, 64
1, 13391, Note_on_c, 0, 79, 0
1, 13440, Note_on_c, 0, 77, 64
1, 14351, Note_on_c, 0, 77, 0
1, 15120, Note_on_c, 0, 58, 64
1, 15233, Note_on_c, 0, 58, 0
1, 15240, Note_on_c, 0, 59, 64
1, 15353, Note_on_c, 0, 59, 0
1, 15360, Note_on_c, 0, 60, 80
1, 16271, Note_on_c, 0, 60, 0
1, 16320, Note_on_c, 0, 72, 80
1, 16775, Note_on_c, 0, 72, 0
1, 16800, Note_on_c, 0, 69, 80
1, 17255, Note_on_c, 0, 69, 0
1, 17280, Note_on_c, 0, 67, 80
1, 17735, Note_on_c, 0, 67, 0
1, 17760, Note_on_c, 0, 65, 80
1, 18215, Note_on_c, 0, 65, 0
1, 18240, Note_on_c, 0, 64, 80
1, 18695, Note_on_c, 0, 64, 0
1, 18720, Note_on_c, 0, 65, 80
1, 19175, Note_on_c, 0, 65, 0
1, 19200, Note_on_c, 0, 67, 80
1, 20111, Note_on_c, 0, 67, 0
1, 20160, Note_on_c, 0, 76, 80
1, 20615, Note_on_c, 0, 76, 0
1, 20880, Note_on_c, 0, 75, 80
1, 20993, Note_on_c, 0, 75, 0
1, 21000, Note_on_c, 0, 74, 80
1, 21113, Note_on_c, 0, 74, 0
1, 21120, Note_on_c, 0, 72, 80
1, 22943, Note_on_c, 0, 72, 0
1, 23040, Note_on_c, 0, 62, 80
1, 23951, Note_on_c, 0, 62, 0
1, 24000, Note_on_c, 0, 72, 80
1, 24455, Note_on_c, 0, 72, 0
1, 24480, Note_on_c, 0, 69, 80
1, 24935, Note_on_c, 0, 69, 0
1, 24960, Note_on_c, 0, 67, 80
1, 25415, Note_on_c, 0, 67, 0
1, 25440, Note_on_c, 0, 65, 80
1, 25895, Note_on_c, 0, 65, 0
1, 25920, Note_on_c, 0, 67, 80
1, 26375, Note_on_c, 0, 67, 0
1, 26400, Note_on_c, 0, 69, 80
1, 26855, Note_on_c, 0, 69, 0
1, 26880, Note_on_c, 0, 64, 80
1, 27791, Note_on_c, 0, 64, 0
1, 27840, Note_on_c, 0, 67, 80
1, 28751, Note_on_c, 0, 67, 0
1, 28800, Note_on_c, 0, 67, 80
1, 29255, Note_on_c, 0, 67, 0
1, 29280, Note_on_c, 0, 65, 80
1, 29735, Note_on_c, 0, 65, 0
1, 29760, Note_on_c, 0, 64, 80
1, 30215, Note_on_c, 0, 64, 0
1, 30240, Note_on_c, 0, 65, 80
1, 30695, Note_on_c, 0, 65, 0
1, 30720, Note_on_c, 0, 84, 80
1, 31175, Note_on_c, 0, 84, 0
1, 31200, Note_on_c, 0, 77, 80
1, 31655, Note_on_c, 0, 77, 0
1, 31680, Note_on_c, 0, 79, 80
1, 32135, Note_on_c, 0, 79, 0
1, 32160, Note_on_c, 0, 77, 80
1, 32615, Note_on_c, 0, 77, 0
1, 32640, Note_on_c, 0, 71, 80
1, 33095, Note_on_c, 0, 71, 0
1, 33120, Note_on_c, 0, 77, 80
1, 33575, Note_on_c, 0, 77, 0
1, 33600, Note_on_c, 0, 79, 80
1, 34055, Note_on_c, 0, 79, 0
1, 34080, Note_on_c, 0, 77, 80
1, 34535, Note_on_c, 0, 77, 0
1, 34560, Note_on_c, 0, 70, 80
1, 35015, Note_on_c, 0, 70, 0
1, 35040, Note_on_c, 0, 77, 80
1, 35495, Note_on_c, 0, 77, 0
1, 35520, Note_on_c, 0, 79, 80
1, 35975, Note_on_c, 0, 79, 0
1, 36000, Note_on_c, 0, 82, 80
1, 36455, Note_on_c, 0, 82, 0
1, 36480, Note_on_c, 0, 81, 80
1, 36935, Note_on_c, 0, 81, 0
1, 36960, Note_on_c, 0, 79, 80
1, 37415, Note_on_c, 0, 79, 0
1, 37440, Note_on_c, 0, 77, 80
1, 37895, Note_on_c, 0, 77, 0
1, 37920, Note_on_c, 0, 72, 80
1, 38375, Note_on_c, 0, 72, 0
1, 38400, Time_signature, 6, 2, 24, 8
1, 38400, Key_signature, -6, "major"
1, 38400, Tempo, 428572
1, 43200, Note_on_c, 0, 77, 64
1, 43427, Note_on_c, 0, 77, 0
1, 43440, Note_on_c, 0, 78, 64
1, 43667, Note_on_c, 0, 78, 0
1, 43680, Note_on_c, 0, 77, 64
1, 43744, Note_on_c, 0, 77, 0
1, 43748, Note_on_c, 0, 78, 64
1, 43812, Note_on_c, 0, 78, 0
1, 43818, Note_on_c, 0, 77, 64
1, 43913, Note_on_c, 0, 77, 0
1, 43920, Note_on_c, 0, 73, 64
1, 44147, Note_on_c, 0, 73, 0
1, 44160, Note_on_c, 0, 75, 64
1, 44843, Note_on_c, 0, 75, 0
1, 44880, Note_on_c, 0, 80, 64
1, 45335, Note_on_c, 0, 80, 0
1, 45360, Note_on_c, 0, 83, 64
1, 45587, Note_on_c, 0, 83, 0
1, 45600, Note_on_c, 0, 80, 64
1, 45920, Note_on_c, 0, 80, 0
1, 46080, Note_on_c, 0, 82, 64
1, 46307, Note_on_c, 0, 82, 0
1, 46320, Note_on_c, 0, 83, 64
1, 46547, Note_on_c, 0, 83, 0
1, 46560, Note_on_c, 0, 85, 64
1, 46787, Note_on_c, 0, 85, 0
1, 46800, Note_on_c, 0, 82, 64
1, 47027, Note_on_c, 0, 82, 0
1, 47040, Note_on_c, 0, 83, 64
1, 47723, Note_on_c, 0, 83, 0
1, 47760, Note_on_c, 0, 82, 64
1, 48215, Note_on_c, 0, 82, 0
1, 48240, Note_on_c, 0, 80, 64
1, 48353, Note_on_c, 0, 80, 0
1, 48360, Note_on_c, 0, 78, 64
1, 48473, Note_on_c, 0, 78, 0
1, 48480, Note_on_c, 0, 77, 64
1, 48800, Note_on_c, 0, 77, 0
1, 48960, Note_on_c, 0, 83, 64
1, 49187, Note_on_c, 0, 83, 0
1, 49200, Note_on_c, 0, 85, 64
1, 49427, Note_on_c, 0, 85, 0
1, 49440, Note_on_c, 0, 87, 64
1, 49667, Note_on_c, 0, 87, 0
1, 49680, Note_on_c, 0, 89, 64
1, 49907, Note_on_c, 0, 89, 0
1, 49920, Note_on_c, 0, 83, 64
1, 50603, Note_on_c, 0, 83, 0
1, 50640, Note_on_c, 0, 82, 64
1, 51095, Note_on_c, 0, 82, 0
1, 51120, Note_on_c, 0, 75, 64
1, 51347, Note_on_c, 0, 75, 0
1, 51360, Note_on_c, 0, 80, 64
1, 51815, Note_on_c, 0, 80, 0
1, 51840, Note_on_c, 0, 78, 64
1, 52295, Note_on_c, 0, 78, 0
1, 52320, Note_on_c, 0, 77, 64
1, 52775, Note_on_c, 0, 77, 0
1, 52800, Note_on_c, 0, 78, 64
1, 53027, Note_on_c, 0, 78, 0
1, 53040, Note_on_c, 0, 77, 64
1, 53267, Note_on_c, 0, 77, 0
1, 53280, Note_on_c, 0, 75, 64
1, 53507, Note_on_c, 0, 75, 0
1, 53520, Note_on_c, 0, 73, 64
1, 53975, Note_on_c, 0, 73, 0
1, 54000, Note_on_c, 0, 80, 64
1, 54227, Note_on_c, 0, 80, 0
1, 54240, Note_on_c, 0, 75, 64
1, 54560, Note_on_c, 0, 75, 0
1, 54960, Note_on_c, 0, 70, 64
1, 55187, Note_on_c, 0, 70, 0
1, 55200, Note_on_c, 0, 71, 64
1, 55427, Note_on_c, 0, 71, 0
1, 55440, Note_on_c, 0, 70, 64
1, 55667, Note_on_c, 0, 70, 0
1, 55680, Note_on_c, 0, 73, 64
1, 57047, Note_on_c, 0, 73, 0
1, 57120, Note_on_c, 0, 65, 64
1, 57347, Note_on_c, 0, 65, 0
1, 57600, Note_on_c, 0, 89, 64
1, 57827, Note_on_c, 0, 89, 0
1, 57840, Note_on_c, 0, 90, 64
1, 58067, Note_on_c, 0, 90, 0
1, 58080, Note_on_c, 0, 89, 64
1, 58307, Note_on_c, 0, 89, 0
1, 58320, Note_on_c, 0, 90, 64
1, 58547, Note_on_c, 0, 90, 0
1, 58560, Note_on_c, 0, 89, 64
1, 59243, Note_on_c, 0, 89, 0
1, 59280, Note_on_c, 0, 92, 64
1, 59963, Note_on_c, 0, 92, 0
1, 60000, Note_on_c, 0, 87, 64
1, 60455, Note_on_c, 0, 87, 0
1, 60720, Note_on_c, 0, 82, 64
1, 60947, Note_on_c, 0, 82, 0
1, 60960, Note_on_c, 0, 83, 64
1, 61187, Note_on_c, 0, 83, 0
1, 61200, Note_on_c, 0, 82, 64
1, 61427, Note_on_c, 0, 82, 0
1, 61440, Note_on_c, 0, 75, 64
1, 61440, Note_on_c, 0, 85, 64
1, 62351, Note_on_c, 0, 75, 0
1, 62351, Note_on_c, 0, 85, 0
1, 63600, Note_on_c, 0, 82, 64
1, 63600, Note_on_c, 0, 94, 64
1, 63827, Note_on_c, 0, 82, 0
1, 63827, Note_on_c, 0, 94, 0
1, 63840, Note_on_c, 0, 83, 64
1, 63840, Note_on_c, 0, 95, 64
1, 64067, Note_on_c, 0, 83, 0
1, 64067, Note_on_c, 0, 95, 0
1, 64080, Note_on_c, 0, 82, 64
1, 64080, Note_on_c, 0, 94, 64
1, 64307, Note_on_c, 0, 82, 0
1, 64307, Note_on_c, 0, 94, 0
1, 64320, Note_on_c, 0, 85, 64
1, 64320, Note_on_c, 0, 97, 64
1, 66143, Note_on_c, 0, 85, 0
1, 66143, Note_on_c, 0, 97, 0
1, 67200, Note_on_c, 0, 75, 84
1, 67200, Note_on_c, 0, 71, 76
1, 67439, Note_on_c, 0, 71, 0
1, 67680, Note_on_c, 0, 71, 76
1, 67883, Note_on_c, 0, 75, 0
1, 67920, Note_on_c, 0, 80, 84
1, 68135, Note_on_c, 0, 71, 0
1, 68375, Note_on_c, 0, 80, 0
1, 68400, Note_on_c, 0, 83, 84
1, 68400, Note_on_c, 0, 71, 76
1, 68627, Note_on_c, 0, 83, 0
1, 68627, Note_on_c, 0, 71, 0
1, 68640, Note_on_c, 0, 77, 80
1, 68640, Note_on_c, 0, 80, 84
1, 68879, Note_on_c, 0, 77, 0
1, 68879, Note_on_c, 0, 80, 0
1, 69120, Note_on_c, 0, 82, 84
1, 69347, Note_on_c, 0, 82, 0
1, 69360, Note_on_c, 0, 83, 84
1, 69587, Note_on_c, 0, 83, 0
1, 69600, Note_on_c, 0, 85, 84
1, 69827, Note_on_c, 0, 85, 0
1, 69840, Note_on_c, 0, 82, 84
1, 70067, Note_on_c, 0, 82, 0
1, 70080, Note_on_c, 0, 83, 84
1, 70080, Note_on_c, 0, 71, 76
1, 70319, Note_on_c, 0, 71, 0
1, 70560, Note_on_c, 0, 71, 76
1, 70763, Note_on_c, 0, 83, 0
1, 70800, Note_on_c, 0, 82, 84
1, 71015, Note_on_c, 0, 71, 0
1, 71255, Note_on_c, 0, 82, 0
1, 71280, Note_on_c, 0, 80, 84
1, 71280, Note_on_c, 0, 71, 76
1, 71393, Note_on_c, 0, 80, 0
1, 71400, Note_on_c, 0, 78, 84
1, 71507, Note_on_c, 0, 71, 0
1, 71513, Note_on_c, 0, 78, 0
1, 71520, Note_on_c, 0, 65, 84
1, 71520, Note_on_c, 0, 77, 84
1, 71759, Note_on_c, 0, 65, 0
1, 71759, Note_on_c, 0, 77, 0
1, 72000, Note_on_c, 0, 83, 84
1, 72227, Note_on_c, 0, 83, 0
1, 72240, Note_on_c, 0, 85, 84
1, 72467, Note_on_c, 0, 85, 0
1, 72480, Note_on_c, 0, 87, 84
1, 72707, Note_on_c, 0, 87, 0
1, 72720, Note_on_c, 0, 89, 84
1, 72947, Note_on_c, 0, 89, 0
1, 72960, Note_on_c, 0, 83, 84
1, 72960, Note_on_c, 0, 71, 76
1, 73199, Note_on_c, 0, 71, 0
1, 73440, Note_on_c, 0, 71, 76
1, 73643, Note_on_c, 0, 83, 0
1, 73680, Note_on_c, 0, 82, 84
1, 73895, Note_on_c, 0, 71, 0
1, 74135, Note_on_c, 0, 82, 0
1, 74160, Note_on_c, 0, 75, 84
1, 74160, Note_on_c, 0, 71, 76
1, 74387, Note_on_c, 0, 75, 0
1, 74387, Note_on_c, 0, 71, 0
1, 74400, Note_on_c, 0, 80, 84
1, 74400, Note_on_c, 0, 73, 80
1, 74639, Note_on_c, 0, 73, 0
1, 74879, Note_on_c, 0, 80, 0
1, 74880, Note_on_c, 0, 78, 84
1, 75359, Note_on_c, 0, 78, 0
1, 75360, Note_on_c, 0, 77, 84
1, 75815, Note_on_c, 0, 77, 0
1, 75840, Note_on_c, 0, 78, 84
1, 75840, Note_on_c, 0, 71, 76
1, 76067, Note_on_c, 0, 78, 0
1, 76079, Note_on_c, 0, 71, 0
1, 76080, Note_on_c, 0, 77, 84
1, 76307, Note_on_c, 0, 77, 0
1, 76320, Note_on_c, 0, 75, 84
1, 76320, Note_on_c, 0, 71, 76
1, 76547, Note_on_c, 0, 75, 0
1, 76560, Note_on_c, 0, 73, 84
1, 76775, Note_on_c, 0, 71, 0
1, 77015, Note_on_c, 0, 73, 0
1, 77040, Note_on_c, 0, 80, 84
1, 77040, Note_on_c, 0, 71, 76
1, 77267, Note_on_c, 0, 80, 0
1, 77267, Note_on_c, 0, 71, 0
1, 77280, Note_on_c, 0, 75, 84
1, 77280, Note_on_c, 0, 65, 80
1, 77519, Note_on_c, 0, 65, 0
1, 77963, Note_on_c, 0, 75, 0
1, 78000, Note_on_c, 0, 70, 84
1, 78227, Note_on_c, 0, 70, 0
1, 78240, Note_on_c, 0, 71, 84
1, 78467, Note_on_c, 0, 71, 0
1, 78480, Note_on_c, 0, 70, 84
1, 78707, Note_on_c, 0, 70, 0
1, 78720, Note_on_c, 0, 73, 84
1, 80543, Note_on_c, 0, 73, 0
1, 80640, Note_on_c, 0, 77, 84
1, 80867, Note_on_c, 0, 77, 0
1, 80880, Note_on_c, 0, 78, 84
1, 81107, Note_on_c, 0, 78, 0
1, 81120, Note_on_c, 0, 77, 84
1, 81347, Note_on_c, 0, 77, 0
1, 81360, Note_on_c, 0, 78, 84
1, 81587, Note_on_c, 0, 78, 0
1, 81600, Note_on_c, 0, 77, 84
1, 82283, Note_on_c, 0, 77, 0
1, 82320, Note_on_c, 0, 80, 84
1, 83003, Note_on_c, 0, 80, 0
1, 83040, Note_on_c, 0, 75, 84
1, 83723, Note_on_c, 0, 75, 0
1, 83760, Note_on_c, 0, 82, 84
1, 83987, Note_on_c, 0, 82, 0
1, 84000, Note_on_c, 0, 83, 84
1, 84227, Note_on_c, 0, 83, 0
1, 84240, Note_on_c, 0, 82, 84
1, 84467, Note_on_c, 0, 82, 0
1, 84480, Note_on_c, 0, 85, 84
1, 85847, Note_on_c, 0, 85, 0
1, 86640, Note_on_c, 0, 82, 80
1, 86640, Note_on_c, 0, 94, 80
1, 86867, Note_on_c, 0, 82, 0
1, 86867, Note_on_c, 0, 94, 0
1, 86880, Note_on_c, 0, 83, 80
1, 86880, Note_on_c, 0, 95, 80
1, 87107, Note_on_c, 0, 83, 0
1, 87107, Note_on_c, 0, 95, 0
1, 87120, Note_on_c, 0, 82, 80
1, 87120, Note_on_c, 0, 94, 80
1, 87347, Note_on_c, 0, 82, 0
1, 87347, Note_on_c, 0, 94, 0
1, 87360, Note_on_c, 0, 85, 80
1, 87360, Note_on_c, 0, 97, 80
1, 90095, Note_on_c, 0, 85, 0
1, 90095, Note_on_c, 0, 97, 0
1, 90240, Time_signature, 4, 2, 24, 8
1, 90240, Key_signature, 3, "major"
1, 90240, Tempo, 521738
1, 90528, Note_on_c, 0, 52, 64
1, 90709, Note_on_c, 0, 52, 0
1, 90720, Note_on_c, 0, 57, 64
1, 90995, Note_on_c, 0, 57, 0
1, 91008, Note_on_c, 0, 59, 64
1, 91465, Note_on_c, 0, 59, 0
1, 91488, Note_on_c, 0, 52, 64
1, 91669, Note_on_c, 0, 52, 0
1, 91680, Note_on_c, 0, 57, 64
1, 91955, Note_on_c, 0, 57, 0
1, 91968, Note_on_c, 0, 59, 64
1, 92149, Note_on_c, 0, 59, 0
1, 92448, Note_on_c, 0, 52, 64
1, 92629, Note_on_c, 0, 52, 0
1, 92640, Note_on_c, 0, 57, 64
1, 92915, Note_on_c, 0, 57, 0
1, 92928, Note_on_c, 0, 59, 64
1, 93385, Note_on_c, 0, 59, 0
1, 93408, Note_on_c, 0, 52, 64
1, 93589, Note_on_c, 0, 52, 0
1, 93600, Note_on_c, 0, 57, 64
1, 93875, Note_on_c, 0, 57, 0
1, 93888, Note_on_c, 0, 59, 64
1, 94069, Note_on_c, 0, 59, 0
1, 94368, Note_on_c, 0, 52, 64
1, 94549, Note_on_c, 0, 52, 0
1, 94560, Note_on_c, 0, 57, 64
1, 94835, Note_on_c, 0, 57, 0
1, 94848, Note_on_c, 0, 59, 64
1, 95305, Note_on_c, 0, 59, 0
1, 95328, Note_on_c, 0, 52, 64
1, 95509, Note_on_c, 0, 52, 0
1, 95520, Note_on_c, 0, 57, 64
1, 95795, Note_on_c, 0, 57, 0
1, 95808, Note_on_c, 0, 59, 64
1, 95989, Note_on_c, 0, 59, 0
1, 96288, Note_on_c, 0, 52, 64
1, 96469, Note_on_c, 0, 52, 0
1, 96480, Note_on_c, 0, 57, 64
1, 96755, Note_on_c, 0, 57, 0
1, 96768, Note_on_c, 0, 64, 64
1, 96960, Tempo, 1173911
1, 97861, Note_on_c, 0, 64, 0
1, 97919, Tempo, 521738
1, 98208, Note_on_c, 0, 52, 64
1, 98389, Note_on_c, 0, 52, 0
1, 98400, Note_on_c, 0, 57, 64
1, 98675, Note_on_c, 0, 57, 0
1, 98688, Note_on_c, 0, 59, 64
1, 99145, Note_on_c, 0, 59, 0
1, 99168, Note_on_c, 0, 52, 64
1, 99349, Note_on_c, 0, 52, 0
1, 99360, Note_on_c, 0, 57, 64
1, 99635, Note_on_c, 0, 57, 0
1, 99648, Note_on_c, 0, 64, 64
1, 99829, Note_on_c, 0, 64, 0
1, 100128, Note_on_c, 0, 52, 64
1, 100309, Note_on_c, 0, 52, 0
1, 100320, Note_on_c, 0, 57, 64
1, 100595, Note_on_c, 0, 57, 0
1, 100608, Note_on_c, 0, 64, 64
1, 101065, Note_on_c, 0, 64, 0
1, 101088, Note_on_c, 0, 62, 64
1, 101269, Note_on_c, 0, 62, 0
1, 101280, Note_on_c, 0, 61, 64
1, 101555, Note_on_c, 0, 61, 0
1, 101568, Note_on_c, 0, 57, 64
1, 101749, Note_on_c, 0, 57, 0
1, 102048, Note_on_c, 0, 52, 64
1, 102229, Note_on_c, 0, 52, 0
1, 102240, Note_on_c, 0, 57, 64
1, 102515, Note_on_c, 0, 57, 0
1, 102528, Note_on_c, 0, 59, 64
1, 102985, Note_on_c, 0, 59, 0
1, 103008, Note_on_c, 0, 52, 64
1, 103189, Note_on_c, 0, 52, 0
1, 103200, Note_on_c, 0, 57, 64
1, 103475, Note_on_c, 0, 57, 0
1, 103488, Note_on_c, 0, 59, 64
1, 103669, Note_on_c, 0, 59, 0
1, 103968, Note_on_c, 0, 57, 64
1, 104149, Note_on_c, 0, 57, 0
1, 104160, Note_on_c, 0, 59, 64
1, 104400, Note_on_c, 0, 57, 64
1, 104412, Note_on_c, 0, 62, 64
1, 104425, Note_on_c, 0, 64, 64
1, 104435, Note_on_c, 0, 59, 0
1, 104640, Tempo, 782607
1, 105550, Note_on_c, 0, 62, 0
1, 105550, Note_on_c, 0, 64, 0
1, 105551, Note_on_c, 0, 57, 0
1, 105599, Tempo, 521738
1, 105600, Note_on_c, 0, 64, 64
1, 106326, Note_on_c, 0, 64, 0
1, 106368, Note_on_c, 0, 76, 64
1, 107461, Note_on_c, 0, 76, 0
1, 107520, Note_on_c, 0, 71, 64
1, 109343, Note_on_c, 0, 71, 0
1, 109440, Note_on_c, 0, 69, 64
1, 110166, Note_on_c, 0, 69, 0
1, 110208, Note_on_c, 0, 76, 64
1, 111301, Note_on_c, 0, 76, 0
1, 111360, Note_on_c, 0, 64, 64
1, 113183, Note_on_c, 0, 64, 0
1, 113280, Note_on_c, 0, 64, 64
1, 114191, Note_on_c, 0, 64, 0
1, 114240, Note_on_c, 0, 69, 64
1, 115151, Note_on_c, 0, 69, 0
1, 115200, Note_on_c, 0, 64, 64
1, 115258, Note_on_c, 0, 64, 0
1, 115259, Note_on_c, 0, 76, 64
1, 115924, Note_on_c, 0, 76, 0
1, 115968, Note_on_c, 0, 78, 64
1, 117061, Note_on_c, 0, 78, 0
1, 117120, Note_on_c, 0, 76, 64
1, 118031, Note_on_c, 0, 76, 0
1, 118080, Note_on_c, 0, 71, 64
1, 118806, Note_on_c, 0, 71, 0
1, 118848, Note_on_c, 0, 69, 64
1, 120853, Note_on_c, 0, 69, 0
1, 120960, Note_on_c, 0, 64, 64
1, 121686, Note_on_c, 0, 64, 0
1, 121728, Note_on_c, 0, 76, 64
1, 122821, Note_on_c, 0, 76, 0
1, 122880, Note_on_c, 0, 71, 64
1, 124703, Note_on_c, 0, 71, 0
1, 124800, Note_on_c, 0, 69, 64
1, 125526, Note_on_c, 0, 69, 0
1, 125568, Note_on_c, 0, 76, 64
1, 126476, Note_on_c, 0, 76, 0
1, 126528, Note_on_c, 0, 64, 64
1, 128533, Note_on_c, 0, 64, 0
1, 128640, Note_on_c, 0, 64, 64
1, 129551, Note_on_c, 0, 64, 0
1, 129600, Note_on_c, 0, 69, 64
1, 130511, Note_on_c, 0, 69, 0
1, 130560, Note_on_c, 0, 68, 64
1, 130560, Note_on_c, 0, 76, 64
1, 131471, Note_on_c, 0, 68, 0
1, 131471, Note_on_c, 0, 76, 0
1, 131520, Note_on_c, 0, 78, 64
1, 132431, Note_on_c, 0, 78, 0
1, 132480, Note_on_c, 0, 64, 64
1, 132538, Note_on_c, 0, 64, 0
1, 132539, Note_on_c, 0, 69, 64
1, 132597, Note_on_c, 0, 69, 0
1, 132599, Note_on_c, 0, 76, 64
1, 133396, Note_on_c, 0, 76, 0
1, 133440, Note_on_c, 0, 71, 64
1, 134166, Note_on_c, 0, 71, 0
1, 134208, Note_on_c, 0, 69, 64
1, 136213, Note_on_c, 0, 69, 0
1, 136320, Time_signature, 6, 2, 24, 8
1, 136320, Key_signature, -5, "major"
1, 136320, Tempo, 250000
1, 136320, Note_on_c, 0, 58, 80
1, 136320, Note_on_c, 0, 70, 80
1, 136439, Note_on_c, 0, 58, 0
1, 136439, Note_on_c, 0, 70, 0
1, 136560, Note_on_c, 0, 61, 80
1, 136679, Note_on_c, 0, 61, 0
1, 136800, Note_on_c, 0, 60, 80
1, 136919, Note_on_c, 0, 60, 0
1, 137040, Note_on_c, 0, 61, 80
1, 137159, Note_on_c, 0, 61, 0
1, 137280, Note_on_c, 0, 58, 80
1, 137519, Note_on_c, 0, 58, 0
1, 137760, Note_on_c, 0, 58, 80
1, 137879, Note_on_c, 0, 58, 0
1, 138000, Note_on_c, 0, 60, 80
1, 138119, Note_on_c, 0, 60, 0
1, 138240, Note_on_c, 0, 61, 80
1, 138359, Note_on_c, 0, 61, 0
1, 138480, Note_on_c, 0, 68, 80
1, 138599, Note_on_c, 0, 68, 0
1, 138720, Note_on_c, 0, 65, 80
1, 138959, Note_on_c, 0, 65, 0
1, 139200, Note_on_c, 0, 58, 80
1, 139319, Note_on_c, 0, 58, 0
1, 139440, Note_on_c, 0, 61, 80
1, 139559, Note_on_c, 0, 61, 0
1, 139680, Note_on_c, 0, 60, 80
1, 139799, Note_on_c, 0, 60, 0
1, 139920, Note_on_c, 0, 61, 80
1, 140039, Note_on_c, 0, 61, 0
1, 140160, Note_on_c, 0, 58, 80
1, 140399, Note_on_c, 0, 58, 0
1, 140640, Note_on_c, 0, 58, 80
1, 140759, Note_on_c, 0, 58, 0
1, 140880, Note_on_c, 0, 60, 80
1, 140999, Note_on_c, 0, 60, 0
1, 141120, Note_on_c, 0, 61, 80
1, 141239, Note_on_c, 0, 61, 0
1, 141360, Note_on_c, 0, 68, 80
1, 141479, Note_on_c, 0, 68, 0
1, 141600, Note_on_c, 0, 65, 80
1, 141839, Note_on_c, 0, 65, 0
1, 142080, Note_on_c, 0, 61, 80
1, 142080, Note_on_c, 0, 73, 80
1, 142307, Note_on_c, 0, 61, 0
1, 142307, Note_on_c, 0, 73, 0
1, 142320, Note_on_c, 0, 61, 80
1, 142547, Note_on_c, 0, 61, 0
1, 142560, Note_on_c, 0, 60, 80
1, 142787, Note_on_c, 0, 60, 0
1, 142800, Note_on_c, 0, 61, 80
1, 143027, Note_on_c, 0, 61, 0
1, 143040, Note_on_c, 0, 58, 80
1, 143495, Note_on_c, 0, 58, 0
1, 143520, Note_on_c, 0, 58, 80
1, 143747, Note_on_c, 0, 58, 0
1, 143760, Note_on_c, 0, 60, 80
1, 143987, Note_on_c, 0, 60, 0
1, 144000, Note_on_c, 0, 61, 80
1, 144227, Note_on_c, 0, 61, 0
1, 144240, Note_on_c, 0, 68, 80
1, 144467, Note_on_c, 0, 68, 0
1, 144480, Note_on_c, 0, 65, 80
1, 144935, Note_on_c, 0, 65, 0
1, 144960, Note_on_c, 0, 60, 80
1, 144960, Note_on_c, 0, 63, 80
1, 144960, Note_on_c, 0, 72, 80
1, 145415, Note_on_c, 0, 60, 0
1, 145415, Note_on_c, 0, 63, 0
1, 145415, Note_on_c, 0, 72, 0
1, 145440, Note_on_c, 0, 72, 80
1, 145895, Note_on_c, 0, 72, 0
1, 145920, Note_on_c, 0, 70, 80
1, 146375, Note_on_c, 0, 70, 0
1, 146400, Note_on_c, 0, 68, 80
1, 146627, Note_on_c, 0, 68, 0
1, 146640, Note_on_c, 0, 66, 80
1, 146867, Note_on_c, 0, 66, 0
1, 146880, Note_on_c, 0, 65, 80
1, 147335, Note_on_c, 0, 65, 0
1, 147360, Note_on_c, 0, 68, 80
1, 147815, Note_on_c, 0, 68, 0
1, 147840, Note_on_c, 0, 65, 80
1, 147840, Note_on_c, 0, 70, 80
1, 148067, Note_on_c, 0, 65, 0
1, 148067, Note_on_c, 0, 70, 0
1, 148080, Note_on_c, 0, 61, 80
1, 148307, Note_on_c, 0, 61, 0
1, 148320, Note_on_c, 0, 60, 80
1, 148320, Note_on_c, 0, 66, 80
1, 148547, Note_on_c, 0, 60, 0
1, 148547, Note_on_c, 0, 66, 0
1, 148560, Note_on_c, 0, 61, 80
1, 148560, Note_on_c, 0, 66, 80
1, 148787, Note_on_c, 0, 61, 0
1, 148787, Note_on_c, 0, 66, 0
1, 148800, Note_on_c, 0, 58, 80
1, 149255, Note_on_c, 0, 58, 0
1, 149280, Note_on_c, 0, 58, 80
1, 149507, Note_on_c, 0, 58, 0
1, 149520, Note_on_c, 0, 60, 80
1, 149747, Note_on_c, 0, 60, 0
1, 149760, Note_on_c, 0, 61, 80
1, 149987, Note_on_c, 0, 61, 0
1, 150000, Note_on_c, 0, 68, 80
1, 150227, Note_on_c, 0, 68, 0
1, 150240, Note_on_c, 0, 65, 80
1, 150695, Note_on_c, 0, 65, 0
1, 150720, Note_on_c, 0, 58, 80
1, 150947, Note_on_c, 0, 58, 0
1, 150960, Note_on_c, 0, 61, 80
1, 151187, Note_on_c, 0, 61, 0
1, 151200, Note_on_c, 0, 60, 80
1, 151200, Note_on_c, 0, 66, 80
1, 151427, Note_on_c, 0, 60, 0
1, 151427, Note_on_c, 0, 66, 0
1, 151440, Note_on_c, 0, 61, 80
1, 151440, Note_on_c, 0, 65, 80
1, 151667, Note_on_c, 0, 61, 0
1, 151667, Note_on_c, 0, 65, 0
1, 151680, Note_on_c, 0, 58, 80
1, 151680, Note_on_c, 0, 70, 80
1, 151907, Note_on_c, 0, 58, 0
1, 151907, Note_on_c, 0, 70, 0
1, 151920, Note_on_c, 0, 65, 80
1, 152147, Note_on_c, 0, 65, 0
1, 152160, Note_on_c, 0, 58, 80
1, 152387, Note_on_c, 0, 58, 0
1, 152400, Note_on_c, 0, 60, 80
1, 152627, Note_on_c, 0, 60, 0
1, 152640, Note_on_c, 0, 61, 80
1, 152867, Note_on_c, 0, 61, 0
1, 152880, Note_on_c, 0, 68, 80
1, 153107, Note_on_c, 0, 68, 0
1, 153120, Note_on_c, 0, 65, 80
1, 153575, Note_on_c, 0, 65, 0
1, 153600, Note_on_c, 0, 58, 80
1, 153600, Note_on_c, 0, 63, 80
1, 153827, Note_on_c, 0, 58, 0
1, 153827, Note_on_c, 0, 63, 0
1, 153840, Note_on_c, 0, 60, 81
1, 153840, Note_on_c, 0, 65, 81
1, 154067, Note_on_c, 0, 60, 0
1, 154067, Note_on_c, 0, 65, 0
1, 154080, Note_on_c, 0, 61, 82
1, 154080, Note_on_c, 0, 68, 82
1, 154307, Note_on_c, 0, 61, 0
1, 154307, Note_on_c, 0, 68, 0
1, 154320, Note_on_c, 0, 63, 84
1, 154320, Note_on_c, 0, 70, 84
1, 154547, Note_on_c, 0, 63, 0
1, 154547, Note_on_c, 0, 70, 0
1, 154560, Note_on_c, 0, 65, 85
1, 154560, Note_on_c, 0, 72, 85
1, 154787, Note_on_c, 0, 65, 0
1, 154787, Note_on_c, 0, 72, 0
1, 154800, Note_on_c, 0, 70, 86
1, 154800, Note_on_c, 0, 73, 86
1, 155027, Note_on_c, 0, 70, 0
1, 155027, Note_on_c, 0, 73, 0
1, 155040, Note_on_c, 0, 73, 88
1, 155040, Note_on_c, 0, 75, 88
1, 155267, Note_on_c, 0, 73, 0
1, 155267, Note_on_c, 0, 75, 0
1, 155280, Note_on_c, 0, 72, 89
1, 155280, Note_on_c, 0, 73, 89
1, 155507, Note_on_c, 0, 72, 0
1, 155507, Note_on_c, 0, 73, 0
1, 155520, Note_on_c, 0, 68, 90
1, 155520, Note_on_c, 0, 72, 90
1, 155747, Note_on_c, 0, 68, 0
1, 155747, Note_on_c, 0, 72, 0
1, 155760, Note_on_c, 0, 65, 92
1, 155760, Note_on_c, 0, 70, 92
1, 155987, Note_on_c, 0, 65, 0
1, 155987, Note_on_c, 0, 70, 0
1, 156000, Note_on_c, 0, 61, 93
1, 156000, Note_on_c, 0, 68, 93
1, 156227, Note_on_c, 0, 61, 0
1, 156227, Note_on_c, 0, 68, 0
1, 156240, Note_on_c, 0, 60, 94
1, 156240, Note_on_c, 0, 65, 94
1, 156467, Note_on_c, 0, 60, 0
1, 156467, Note_on_c, 0, 65, 0
1, 156480, Note_on_c, 0, 75, 96
1, 156935, Note_on_c, 0, 75, 0
1, 156960, Note_on_c, 0, 75, 96
1, 156960, Note_on_c, 0, 84, 96
1, 157415, Note_on_c, 0, 75, 0
1, 157415, Note_on_c, 0, 84, 0
1, 157440, Note_on_c, 0, 73, 96
1, 157440, Note_on_c, 0, 82, 96
1, 157895, Note_on_c, 0, 73, 0
1, 157895, Note_on_c, 0, 82, 0
1, 157920, Note_on_c, 0, 72, 96
1, 157920, Note_on_c, 0, 80, 96
1, 158147, Note_on_c, 0, 72, 0
1, 158147, Note_on_c, 0, 80, 0
1, 158160, Note_on_c, 0, 70, 96
1, 158160, Note_on_c, 0, 78, 96
1, 158387, Note_on_c, 0, 70, 0
1, 158387, Note_on_c, 0, 78, 0
1, 158400, Note_on_c, 0, 68, 96
1, 158400, Note_on_c, 0, 77, 96
1, 158855, Note_on_c, 0, 68, 0
1, 158855, Note_on_c, 0, 77, 0
1, 158880, Note_on_c, 0, 73, 96
1, 158880, Note_on_c, 0, 80, 96
1, 159335, Note_on_c, 0, 73, 0
1, 159335, Note_on_c, 0, 80, 0
1, 159360, Note_on_c, 0, 73, 96
1, 159360, Note_on_c, 0, 82, 96
1, 161183, Note_on_c, 0, 73, 0
1, 161183, Note_on_c, 0, 82, 0
1, 161280, Note_on_c, 0, 70, 96
1, 161280, Note_on_c, 0, 77, 96
1, 161735, Note_on_c, 0, 70, 0
1, 161735, Note_on_c, 0, 77, 0
1, 161760, Note_on_c, 0, 73, 96
1, 161760, Note_on_c, 0, 80, 96
1, 162215, Note_on_c, 0, 73, 0
1, 162215, Note_on_c, 0, 80, 0
1, 162240, Note_on_c, 0, 75, 96
1, 162240, Note_on_c, 0, 82, 96
1, 163151, Note_on_c, 0, 75, 0
1, 163151, Note_on_c, 0, 82, 0
1, 163200, Note_on_c, 0, 78, 96
1, 163200, Note_on_c, 0, 85, 96
1, 163655, Note_on_c, 0, 78, 0
1, 163655, Note_on_c, 0, 85, 0
1, 163680, Note_on_c, 0, 78, 96
1, 163680, Note_on_c, 0, 87, 96
1, 163907, Note_on_c, 0, 78, 0
1, 163907, Note_on_c, 0, 87, 0
1, 163920, Note_on_c, 0, 77, 96
1, 163920, Note_on_c, 0, 85, 96
1, 164147, Note_on_c, 0, 77, 0
1, 164147, Note_on_c, 0, 85, 0
1, 164160, Note_on_c, 0, 75, 96
1, 164160, Note_on_c, 0, 84, 96
1, 164615, Note_on_c, 0, 75, 0
1, 164615, Note_on_c, 0, 84, 0
1, 164640, Note_on_c, 0, 77, 96
1, 164640, Note_on_c, 0, 85, 96
1, 165095, Note_on_c, 0, 77, 0
1, 165095, Note_on_c, 0, 85, 0
1, 165120, Note_on_c, 0, 73, 96
1, 165120, Note_on_c, 0, 82, 96
1, 169223, Note_on_c, 0, 73, 0
1, 169223, Note_on_c, 0, 82, 0
1, 169440, Note_on_c, 0, 65, 96
1, 169440, Note_on_c, 0, 77, 96
1, 169895, Note_on_c, 0, 65, 0
1, 169895, Note_on_c, 0, 77, 0
1, 169920, Note_on_c, 0, 70, 96
1, 169920, Note_on_c, 0, 82, 96
1, 170375, Note_on_c, 0, 70, 0
1, 170375, Note_on_c, 0, 82, 0
1, 170400, Note_on_c, 0, 73, 96
1, 170400, Note_on_c, 0, 85, 96
1, 170855, Note_on_c, 0, 73, 0
1, 170855, Note_on_c, 0, 85, 0
1, 170880, Note_on_c, 0, 77, 96
1, 170880, Note_on_c, 0, 82, 96
1, 170880, Note_on_c, 0, 85, 96
1, 170880, Note_on_c, 0, 89, 96
1, 172703, Note_on_c, 0, 77, 0
1, 172703, Note_on_c, 0, 82, 0
1, 172703, Note_on_c, 0, 85, 0
1, 172703, Note_on_c, 0, 89, 0
1, 172800, Note_on_c, 0, 73, 96
1, 172800, Note_on_c, 0, 85, 96
1, 173255, Note_on_c, 0, 73, 0
1, 173255, Note_on_c, 0, 85, 0
1, 173280, Note_on_c, 0, 75, 96
1, 173280, Note_on_c, 0, 87, 96
1, 173735, Note_on_c, 0, 75, 0
1, 173735, Note_on_c, 0, 87, 0
1, 173760, Note_on_c, 0, 77, 96
1, 173760, Note_on_c, 0, 80, 96
1, 173760, Note_on_c, 0, 84, 96
1, 173760, Note_on_c, 0, 89, 96
1, 174671, Note_on_c, 0, 77, 0
1, 174671, Note_on_c, 0, 80, 0
1, 174671, Note_on_c, 0, 84, 0
1, 174671, Note_on_c, 0, 89, 0
1, 174720, Note_on_c, 0, 75, 96
1, 174720, Note_on_c, 0, 87, 96
1, 175175, Note_on_c, 0, 75, 0
1, 175175, Note_on_c, 0, 87, 0
1, 175200, Note_on_c, 0, 73, 96
1, 175200, Note_on_c, 0, 85, 96
1, 175427, Note_on_c, 0, 73, 0
1, 175427, Note_on_c, 0, 85, 0
1, 175440, Note_on_c, 0, 75, 96
1, 175440, Note_on_c, 0, 87, 96
1, 175667, Note_on_c, 0, 75, 0
1, 175667, Note_on_c, 0, 87, 0
1, 175680, Note_on_c, 0, 72, 96
1, 175680, Note_on_c, 0, 84, 96
1, 176135, Note_on_c, 0, 72, 0
1, 176135, Note_on_c, 0, 84, 0
1, 176160, Note_on_c, 0, 68, 96
1, 176160, Note_on_c, 0, 80, 96
1, 176615, Note_on_c, 0, 68, 0
1, 176615, Note_on_c, 0, 80, 0
1, 176640, Note_on_c, 0, 70, 96
1, 176640, Note_on_c, 0, 73, 96
1, 176640, Note_on_c, 0, 78, 96
1, 176640, Note_on_c, 0, 82, 96
1, 178463, Note_on_c, 0, 70, 0
1, 178463, Note_on_c, 0, 73, 0
1, 178463, Note_on_c, 0, 78, 0
1, 178463, Note_on_c, 0, 82, 0
1, 178560, Note_on_c, 0, 73, 96
1, 179015, Note_on_c, 0, 73, 0
1, 179040, Note_on_c, 0, 75, 96
1, 179495, Note_on_c, 0, 75, 0
1, 179520, Note_on_c, 0, 77, 96
1, 180431, Note_on_c, 0, 77, 0
1, 180480, Note_on_c, 0, 75, 96
1, 180935, Note_on_c, 0, 75, 0
1, 180960, Note_on_c, 0, 73, 96
1, 181187, Note_on_c, 0, 73, 0
1, 181200, Note_on_c, 0, 75, 96
1, 181427, Note_on_c, 0, 75, 0
1, 181440, Note_on_c, 0, 72, 96
1, 181895, Note_on_c, 0, 72, 0
1, 181920, Note_on_c, 0, 80, 96
1, 182375, Note_on_c, 0, 80, 0
1, 182400, Note_on_c, 0, 77, 96
1, 184223, Note_on_c, 0, 77, 0
1, 184320, Note_on_c, 0, 73, 96
1, 184320, Note_on_c, 0, 85, 96
1, 184775, Note_on_c, 0, 73, 0
1, 184775, Note_on_c, 0, 85, 0
1, 184800, Note_on_c, 0, 75, 96
1, 184800, Note_on_c, 0, 87, 96
1, 185255, Note_on_c, 0, 75, 0
1, 185255, Note_on_c, 0, 87, 0
1, 185280, Note_on_c, 0, 77, 96
1, 185280, Note_on_c, 0, 80, 96
1, 185280, Note_on_c, 0, 84, 96
1, 185280, Note_on_c, 0, 89, 96
1, 186191, Note_on_c, 0, 77, 0
1, 186191, Note_on_c, 0, 80, 0
1, 186191, Note_on_c, 0, 84, 0
1, 186191, Note_on_c, 0, 89, 0
1, 186240, Note_on_c, 0, 75, 96
1, 186240, Note_on_c, 0, 87, 96
1, 186695, Note_on_c, 0, 75, 0
1, 186695, Note_on_c, 0, 87, 0
1, 186720, Note_on_c, 0, 73, 96
1, 186720, Note_on_c, 0, 85, 96
1, 186947, Note_on_c, 0, 73, 0
1, 186947, Note_on_c, 0, 85, 0
1, 186960, Note_on_c, 0, 75, 96
1, 186960, Note_on_c, 0, 87, 96
1, 187187, Note_on_c, 0, 75, 0
1, 187187, Note_on_c, 0, 87, 0
1, 187200, Note_on_c, 0, 72, 96
1, 187200, Note_on_c, 0, 84, 96
1, 187655, Note_on_c, 0, 72, 0
1, 187655, Note_on_c, 0, 84, 0
1, 187680, Note_on_c, 0, 68, 96
1, 187680, Note_on_c, 0, 80, 96
1, 188135, Note_on_c, 0, 68, 0
1, 188135, Note_on_c, 0, 80, 0
1, 188160, Note_on_c, 0, 70, 96
1, 188160, Note_on_c, 0, 73, 96
1, 188160, Note_on_c, 0, 77, 96
1, 188160, Note_on_c, 0, 82, 96
1, 190895, Note_on_c, 0, 70, 0
1, 190895, Note_on_c, 0, 73, 0
1, 190895, Note_on_c, 0, 77, 0
1, 190895, Note_on_c, 0, 82, 0
1, 191040, Note_on_c, 0, 66, 96
1, 192407, Note_on_c, 0, 66, 0
1, 192480, Note_on_c, 0, 73, 96
1, 193847, Note_on_c, 0, 73, 0
1, 193920, Note_on_c, 0, 71, 96
1, 193920, Note_on_c, 0, 75, 96
1, 194147, Note_on_c, 0, 71, 0
1, 194147, Note_on_c, 0, 75, 0
1, 194160, Note_on_c, 0, 71, 96
1, 194160, Note_on_c, 0, 75, 96
1, 194387, Note_on_c, 0, 71, 0
1, 194387, Note_on_c, 0, 75, 0
1, 194640, Note_on_c, 0, 71, 96
1, 194640, Note_on_c, 0, 75, 96
1, 194867, Note_on_c, 0, 71, 0
1, 194867, Note_on_c, 0, 75, 0
1, 195120, Note_on_c, 0, 71, 96
1, 195120, Note_on_c, 0, 75, 96
1, 195347, Note_on_c, 0, 71, 0
1, 195347, Note_on_c, 0, 75, 0
1, 195360, Note_on_c, 0, 70, 96
1, 195360, Note_on_c, 0, 75, 96
1, 195815, Note_on_c, 0, 70, 0
1, 195815, Note_on_c, 0, 75, 0
1, 195840, Note_on_c, 0, 70, 96
1, 195840, Note_on_c, 0, 75, 96
1, 196295, Note_on_c, 0, 70, 0
1, 196295, Note_on_c, 0, 75, 0
1, 196320, Note_on_c, 0, 70, 96
1, 196320, Note_on_c, 0, 75, 96
1, 196775, Note_on_c, 0, 70, 0
1, 196775, Note_on_c, 0, 75, 0
1, 196800, Note_on_c, 0, 68, 96
1, 196800, Note_on_c, 0, 75, 96
1, 197027, Note_on_c, 0, 68, 0
1, 197027, Note_on_c, 0, 75, 0
1, 197040, Note_on_c, 0, 68, 96
1, 197040, Note_on_c, 0, 75, 96
1, 197267, Note_on_c, 0, 68, 0
1, 197267, Note_on_c, 0, 75, 0
1, 197520, Note_on_c, 0, 68, 96
1, 197520, Note_on_c, 0, 75, 96
1, 197747, Note_on_c, 0, 68, 0
1, 197747, Note_on_c, 0, 75, 0
1, 198000, Note_on_c, 0, 68, 96
1, 198000, Note_on_c, 0, 75, 96
1, 198227, Note_on_c, 0, 68, 0
1, 198227, Note_on_c, 0, 75, 0
1, 198240, Note_on_c, 0, 66, 96
1, 198240, Note_on_c, 0, 75, 96
1, 198695, Note_on_c, 0, 66, 0
1, 198695, Note_on_c, 0, 75, 0
1, 198720, Note_on_c, 0, 78, 96
1, 199175, Note_on_c, 0, 78, 0
1, 199200, Note_on_c, 0, 80, 96
1, 199200, Note_on_c, 0, 83, 96
1, 199655, Note_on_c, 0, 80, 0
1, 199655, Note_on_c, 0, 83, 0
1, 199680, Time_signature, 4, 2, 24, 8
1, 199680, Key_signature, 5, "major"
1, 199680, Tempo, 461538
1, 200160, Note_on_c, 0, 56, 80
1, 200160, Note_on_c, 0, 59, 80
1, 200160, Note_on_c, 0, 66, 80
1, 200279, Note_on_c, 0, 56, 0
1, 200279, Note_on_c, 0, 59, 0
1, 200279, Note_on_c, 0, 66, 0
1, 200400, Note_on_c, 0, 54, 80
1, 200519, Note_on_c, 0, 54, 0
1, 200640, Note_on_c, 0, 56, 80
1, 200640, Note_on_c, 0, 59, 80
1, 200640, Note_on_c, 0, 65, 80
1, 200759, Note_on_c, 0, 56, 0
1, 200759, Note_on_c, 0, 59, 0
1, 200759, Note_on_c, 0, 65, 0
1, 201840, Note_on_c, 0, 56, 80
1, 201840, Note_on_c, 0, 59, 80
1, 201840, Note_on_c, 0, 63, 80
1, 201840, Note_on_c, 0, 68, 80
1, 201959, Note_on_c, 0, 56, 0
1, 201959, Note_on_c, 0, 59, 0
1, 201959, Note_on_c, 0, 63, 0
1, 201959, Note_on_c, 0, 68, 0
1, 202080, Note_on_c, 0, 54, 80
1, 202199, Note_on_c, 0, 54, 0
1, 202320, Note_on_c, 0, 51, 80
1, 202439, Note_on_c, 0, 51, 0
1, 202800, Note_on_c, 0, 49, 80
1, 202800, Note_on_c, 0, 56, 80
1, 202919, Note_on_c, 0, 49, 0
1, 202919, Note_on_c, 0, 56, 0
1, 203040, Note_on_c, 0, 47, 80
1, 203159, Note_on_c, 0, 47, 0
1, 203280, Note_on_c, 0, 49, 80
1, 203280, Note_on_c, 0, 56, 80
1, 203399, Note_on_c, 0, 49, 0
1, 203399, Note_on_c, 0, 56, 0
1, 204000, Note_on_c, 0, 56, 80
1, 204000, Note_on_c, 0, 61, 80
1, 204000, Note_on_c, 0, 66, 80
1, 204119, Note_on_c, 0, 56, 0
1, 204119, Note_on_c, 0, 61, 0
1, 204119, Note_on_c, 0, 66, 0
1, 204240, Note_on_c, 0, 59, 80
1, 204359, Note_on_c, 0, 59, 0
1, 204480, Note_on_c, 0, 56, 80
1, 204480, Note_on_c, 0, 61, 80
1, 204480, Note_on_c, 0, 65, 80
1, 204599, Note_on_c, 0, 56, 0
1, 204599, Note_on_c, 0, 61, 0
1, 204599, Note_on_c, 0, 65, 0
1, 205680, Note_on_c, 0, 56, 80
1, 205680, Note_on_c, 0, 61, 80
1, 205680, Note_on_c, 0, 68, 80
1, 205799, Note_on_c, 0, 56, 0
1, 205799, Note_on_c, 0, 61, 0
1, 205799, Note_on_c, 0, 68, 0
1, 205920, Note_on_c, 0, 66, 80
1, 206039, Note_on_c, 0, 66, 0
1, 206160, Note_on_c, 0, 63, 80
1, 206226, Note_on_c, 0, 63, 0
1, 206227, Note_on_c, 0, 62, 80
1, 206638, Note_on_c, 0, 62, 0
1, 206640, Note_on_c, 0, 61, 80
1, 206879, Note_on_c, 0, 61, 0
1, 206880, Note_on_c, 0, 59, 80
1, 207335, Note_on_c, 0, 59, 0
1, 207840, Note_on_c, 0, 56, 80
1, 207840, Note_on_c, 0, 59, 80
1, 207840, Note_on_c, 0, 66, 80
1, 207959, Note_on_c, 0, 56, 0
1, 207959, Note_on_c, 0, 59, 0
1, 207959, Note_on_c, 0, 66, 0
1, 208080, Note_on_c, 0, 54, 80
1, 208199, Note_on_c, 0, 54, 0
1, 208320, Note_on_c, 0, 56, 80
1, 208320, Note_on_c, 0, 59, 80
1, 208320, Note_on_c, 0, 65, 80
1, 208439, Note_on_c, 0, 56, 0
1, 208439, Note_on_c, 0, 59, 0
1, 208439, Note_on_c, 0, 65, 0
1, 209520, Note_on_c, 0, 56, 80
1, 209520, Note_on_c, 0, 59, 80
1, 209520, Note_on_c, 0, 63, 80
1, 209520, Note_on_c, 0, 68, 80
1, 209639, Note_on_c, 0, 56, 0
1, 209639, Note_on_c, 0, 59, 0
1, 209639, Note_on_c, 0, 63, 0
1, 209639, Note_on_c, 0, 68, 0
1, 209760, Note_on_c, 0, 54, 80
1, 209879, Note_on_c, 0, 54, 0
1, 210000, Note_on_c, 0, 51, 80
1, 210119, Note_on_c, 0, 51, 0
1, 210480, Note_on_c, 0, 49, 80
1, 210480, Note_on_c, 0, 56, 80
1, 210599, Note_on_c, 0, 49, 0
1, 210599, Note_on_c, 0, 56, 0
1, 210720, Note_on_c, 0, 47, 80
1, 210839, Note_on_c, 0, 47, 0
1, 210960, Note_on_c, 0, 48, 80
1, 210960, Note_on_c, 0, 56, 80
1, 211079, Note_on_c, 0, 48, 0
1, 211079, Note_on_c, 0, 56, 0
1, 211680, Note_on_c, 0, 56, 80
1, 211680, Note_on_c, 0, 61, 80
1, 211680, Note_on_c, 0, 66, 80
1, 211799, Note_on_c, 0, 56, 0
1, 211799, Note_on_c, 0, 61, 0
1, 211799, Note_on_c, 0, 66, 0
1, 211920, Note_on_c, 0, 59, 80
1, 212039, Note_on_c, 0, 59, 0
1, 212160, Note_on_c, 0, 56, 80
1, 212160, Note_on_c, 0, 61, 80
1, 212160, Note_on_c, 0, 65, 80
1, 212279, Note_on_c, 0, 56, 0
1, 212279, Note_on_c, 0, 61, 0
1, 212279, Note_on_c, 0, 65, 0
1, 213360, Note_on_c, 0, 67, 80
1, 213360, Note_on_c, 0, 56, 80
1, 213360, Note_on_c, 0, 61, 80
1, 213426, Note_on_c, 0, 67, 0
1, 213426, Note_on_c, 0, 68, 80
1, 213479, Note_on_c, 0, 56, 0
1, 213479, Note_on_c, 0, 61, 0
1, 213511, Note_on_c, 0, 68, 0
1, 213600, Note_on_c, 0, 66, 80
1, 213719, Note_on_c, 0, 66, 0
1, 213840, Note_on_c, 0, 63, 80
1, 213959, Note_on_c, 0, 63, 0
1, 214080, Note_on_c, 0, 61, 80
1, 214199, Note_on_c, 0, 61, 0
1, 214320, Note_on_c, 0, 59, 80
1, 214439, Note_on_c, 0, 59, 0
1, 214560, Note_on_c, 0, 49, 80
1, 214679, Note_on_c, 0, 49, 0
1, 214800, Note_on_c, 0, 51, 80
1, 214919, Note_on_c, 0, 51, 0
1, 215520, Note_on_c, 0, 56, 80
1, 215520, Note_on_c, 0, 59, 80
1, 215520, Note_on_c, 0, 64, 80
1, 215639, Note_on_c, 0, 56, 0
1, 215639, Note_on_c, 0, 59, 0
1, 215639, Note_on_c, 0, 64, 0
1, 215760, Note_on_c, 0, 54, 80
1, 215879, Note_on_c, 0, 54, 0
1, 216000, Note_on_c, 0, 56, 80
1, 216000, Note_on_c, 0, 59, 80
1, 216000, Note_on_c, 0, 64, 80
1, 216119, Note_on_c, 0, 56, 0
1, 216119, Note_on_c, 0, 59, 0
1, 216119, Note_on_c, 0, 64, 0
1, 217200, Note_on_c, 0, 58, 80
1, 217200, Note_on_c, 0, 63, 80
1, 217200, Note_on_c, 0, 67, 80
1, 217319, Note_on_c, 0, 58, 0
1, 217319, Note_on_c, 0, 63, 0
1, 217319, Note_on_c, 0, 67, 0
1, 217440, Note_on_c, 0, 55, 80
1, 217559, Note_on_c, 0, 55, 0
1, 217680, Note_on_c, 0, 51, 80
1, 218135, Note_on_c, 0, 51, 0
1, 218160, Note_on_c, 0, 46, 80
1, 218279, Note_on_c, 0, 46, 0
1, 218400, Note_on_c, 0, 51, 80
1, 218513, Note_on_c, 0, 51, 0
1, 218520, Note_on_c, 0, 46, 80
1, 218633, Note_on_c, 0, 46, 0
1, 218640, Note_on_c, 0, 49, 80
1, 218759, Note_on_c, 0, 49, 0
1, 219360, Note_on_c, 0, 52, 80
1, 219360, Note_on_c, 0, 56, 80
1, 219360, Note_on_c, 0, 61, 80
1, 219479, Note_on_c, 0, 52, 0
1, 219479, Note_on_c, 0, 56, 0
1, 219479, Note_on_c, 0, 61, 0
1, 219600, Note_on_c, 0, 59, 80
1, 219719, Note_on_c, 0, 59, 0
1, 219840, Note_on_c, 0, 52, 80
1, 219840, Note_on_c, 0, 56, 80
1, 219840, Note_on_c, 0, 61, 80
1, 219959, Note_on_c, 0, 52, 0
1, 219959, Note_on_c, 0, 56, 0
1, 219959, Note_on_c, 0, 61, 0
1, 220320, Note_on_c, 0, 51, 80
1, 220547, Note_on_c, 0, 51, 0
1, 220560, Note_on_c, 0, 50, 80
1, 220679, Note_on_c, 0, 50, 0
1, 220800, Note_on_c, 0, 51, 80
1, 220919, Note_on_c, 0, 51, 0
1, 221040, Note_on_c, 0, 69, 80
1, 221106, Note_on_c, 0, 69, 0
1, 221107, Note_on_c, 0, 70, 80
1, 221192, Note_on_c, 0, 70, 0
1, 221280, Note_on_c, 0, 67, 80
1, 221519, Note_on_c, 0, 67, 0
1, 221520, Note_on_c, 0, 63, 80
1, 221639, Note_on_c, 0, 63, 0
1, 221760, Note_on_c, 0, 55, 80
1, 221879, Note_on_c, 0, 55, 0
1, 222000, Note_on_c, 0, 58, 80
1, 222000, Note_on_c, 0, 67, 80
1, 222119, Note_on_c, 0, 58, 0
1, 222119, Note_on_c, 0, 67, 0
1, 222240, Note_on_c, 0, 55, 80
1, 222240, Note_on_c, 0, 67, 80
1, 222359, Note_on_c, 0, 55, 0
1, 222359, Note_on_c, 0, 67, 0
1, 222480, Note_on_c, 0, 58, 80
1, 222480, Note_on_c, 0, 67, 80
1, 222707, Note_on_c, 0, 58, 0
1, 222707, Note_on_c, 0, 67, 0
1, 222720, Key_signature, 2, "major"
1, 222720, Tempo, 923080
1, 222720, Note_on_c, 0, 86, 64
1, 223403, Note_on_c, 0, 86, 0
1, 223440, Note_on_c, 0, 74, 64
1, 223553, Note_on_c, 0, 74, 0
1, 223560, Note_on_c, 0, 79, 64
1, 223673, Note_on_c, 0, 79, 0
1, 223680, Note_on_c, 0, 81, 64
1, 223799, Note_on_c, 0, 81, 0
1, 223920, Note_on_c, 0, 83, 64
1, 224039, Note_on_c, 0, 83, 0
1, 224160, Note_on_c, 0, 81, 64
1, 224215, Note_on_c, 0, 81, 0
1, 224220, Note_on_c, 0, 83, 64
1, 224275, Note_on_c, 0, 83, 0
1, 224280, Note_on_c, 0, 81, 64
1, 224393, Note_on_c, 0, 81, 0
1, 224400, Note_on_c, 0, 79, 64
1, 224519, Note_on_c, 0, 79, 0
1, 224640, Note_on_c, 0, 86, 64
1, 225323, Note_on_c, 0, 86, 0
1, 225360, Note_on_c, 0, 74, 64
1, 225473, Note_on_c, 0, 74, 0
1, 225480, Note_on_c, 0, 79, 64
1, 225593, Note_on_c, 0, 79, 0
1, 225600, Note_on_c, 0, 81, 64
1, 225719, Note_on_c, 0, 81, 0
1, 225840, Note_on_c, 0, 83, 64
1, 225959, Note_on_c, 0, 83, 0
1, 226080, Note_on_c, 0, 81, 64
1, 226135, Note_on_c, 0, 81, 0
1, 226140, Note_on_c, 0, 83, 64
1, 226195, Note_on_c, 0, 83, 0
1, 226200, Note_on_c, 0, 81, 64
1, 226313, Note_on_c, 0, 81, 0
1, 226320, Note_on_c, 0, 79, 64
1, 226439, Note_on_c, 0, 79, 0
1, 226560, Note_on_c, 0, 85, 64
1, 227243, Note_on_c, 0, 85, 0
1, 227280, Note_on_c, 0, 73, 64
1, 227393, Note_on_c, 0, 73, 0
1, 227400, Note_on_c, 0, 76, 64
1, 227513, Note_on_c, 0, 76, 0
1, 227520, Note_on_c, 0, 78, 64
1, 227639, Note_on_c, 0, 78, 0
1, 227760, Note_on_c, 0, 79, 64
1, 227879, Note_on_c, 0, 79, 0
1, 228000, Note_on_c, 0, 81, 64
1, 228055, Note_on_c, 0, 81, 0
1, 228059, Note_on_c, 0, 83, 64
1, 228114, Note_on_c, 0, 83, 0
1, 228119, Note_on_c, 0, 81, 64
1, 228345, Note_on_c, 0, 81, 0
1, 228360, Note_on_c, 0, 86, 64
1, 228473, Note_on_c, 0, 86, 0
1, 228480, Note_on_c, 0, 74, 67
1, 228480, Note_on_c, 0, 83, 64
1, 229391, Note_on_c, 0, 74, 0
1, 229391, Note_on_c, 0, 83, 0
1, 229920, Note_on_c, 0, 72, 58
1, 230147, Note_on_c, 0, 72, 0
1, 230160, Note_on_c, 0, 74, 58
1, 230387, Note_on_c, 0, 74, 0
1, 230400, Note_on_c, 0, 79, 58
1, 230400, Note_on_c, 0, 86, 64
1, 230400, Note_on_c, 0, 91, 58
1, 231083, Note_on_c, 0, 79, 0
1, 231083, Note_on_c, 0, 86, 0
1, 231083, Note_on_c, 0, 91, 0
1, 231120, Note_on_c, 0, 66, 58
1, 231120, Note_on_c, 0, 74, 64
1, 231233, Note_on_c, 0, 66, 0
1, 231233, Note_on_c, 0, 74, 0
1, 231240, Note_on_c, 0, 71, 58
1, 231240, Note_on_c, 0, 79, 64
1, 231353, Note_on_c, 0, 71, 0
1, 231353, Note_on_c, 0, 79, 0
1, 231360, Note_on_c, 0, 74, 58
1, 231360, Note_on_c, 0, 81, 64
1, 231479, Note_on_c, 0, 74, 0
1, 231479, Note_on_c, 0, 81, 0
1, 231600, Note_on_c, 0, 74, 58
1, 231600, Note_on_c, 0, 83, 64
1, 231827, Note_on_c, 0, 74, 0
1, 231827, Note_on_c, 0, 83, 0
1, 231840, Note_on_c, 0, 81, 64
1, 231895, Note_on_c, 0, 81, 0
1, 231900, Note_on_c, 0, 83, 64
1, 231955, Note_on_c, 0, 83, 0
1, 231960, Note_on_c, 0, 81, 64
1, 232073, Note_on_c, 0, 81, 0
1, 232080, Note_on_c, 0, 71, 58
1, 232080, Note_on_c, 0, 79, 64
1, 232199, Note_on_c, 0, 71, 0
1, 232199, Note_on_c, 0, 79, 0
1, 232320, Note_on_c, 0, 79, 58
1, 232320, Note_on_c, 0, 86, 64
1, 232320, Note_on_c, 0, 91, 58
1, 233003, Note_on_c, 0, 79, 0
1, 233003, Note_on_c, 0, 86, 0
1, 233003, Note_on_c, 0, 91, 0
1, 233040, Note_on_c, 0, 66, 58
1, 233040, Note_on_c, 0, 74, 64
1, 233153, Note_on_c, 0, 66, 0
1, 233153, Note_on_c, 0, 74, 0
1, 233160, Note_on_c, 0, 71, 58
1, 233160, Note_on_c, 0, 79, 64
1, 233273, Note_on_c, 0, 71, 0
1, 233273, Note_on_c, 0, 79, 0
1, 233280, Note_on_c, 0, 74, 58
1, 233280, Note_on_c, 0, 81, 64
1, 233399, Note_on_c, 0, 74, 0
1, 233399, Note_on_c, 0, 81, 0
1, 233520, Note_on_c, 0, 74, 58
1, 233520, Note_on_c, 0, 83, 64
1, 233747, Note_on_c, 0, 74, 0
1, 233747, Note_on_c, 0, 83, 0
1, 233760, Note_on_c, 0, 81, 64
1, 233815, Note_on_c, 0, 81, 0
1, 233820, Note_on_c, 0, 83, 64
1, 233875, Note_on_c, 0, 83, 0
1, 233880, Note_on_c, 0, 81, 64
1, 233993, Note_on_c, 0, 81, 0
1, 234000, Note_on_c, 0, 71, 58
1, 234000, Note_on_c, 0, 79, 64
1, 234119, Note_on_c, 0, 71, 0
1, 234119, Note_on_c, 0, 79, 0
1, 234240, Note_on_c, 0, 73, 58
1, 234240, Note_on_c, 0, 85, 64
1, 234923, Note_on_c, 0, 73, 0
1, 234923, Note_on_c, 0, 85, 0
1, 234960, Note_on_c, 0, 73, 58
1, 234960, Note_on_c, 0, 76, 64
1, 235073, Note_on_c, 0, 73, 0
1, 235073, Note_on_c, 0, 76, 0
1, 235080, Note_on_c, 0, 74, 58
1, 235080, Note_on_c, 0, 78, 64
1, 235193, Note_on_c, 0, 74, 0
1, 235193, Note_on_c, 0, 78, 0
1, 235200, Note_on_c, 0, 76, 58
1, 235200, Note_on_c, 0, 81, 64
1, 235319, Note_on_c, 0, 76, 0
1, 235319, Note_on_c, 0, 81, 0
1, 235440, Note_on_c, 0, 78, 58
1, 235440, Note_on_c, 0, 83, 64
1, 235667, Note_on_c, 0, 78, 0
1, 235667, Note_on_c, 0, 83, 0
1, 235680, Note_on_c, 0, 88, 64
1, 235793, Note_on_c, 0, 88, 0
1, 235800, Note_on_c, 0, 86, 64
1, 236027, Note_on_c, 0, 86, 0
1, 236040, Note_on_c, 0, 85, 64
1, 236153, Note_on_c, 0, 85, 0
1, 236160, Note_on_c, 0, 74, 64
1, 236160, Note_on_c, 0, 81, 64
1, 237071, Note_on_c, 0, 74, 0
1, 237071, Note_on_c, 0, 81, 0
1, 238080, Key_signature, -4, "major"
1, 238080, Tempo, 599999
1, 238080, Note_on_c, 0, 87, 80
1, 238535, Note_on_c, 0, 87, 0
1, 238560, Note_on_c, 0, 80, 80
1, 239015, Note_on_c, 0, 80, 0
1, 239040, Note_on_c, 0, 82, 80
1, 239159, Note_on_c, 0, 82, 0
1, 239760, Note_on_c, 0, 80, 80
1, 239873, Note_on_c, 0, 80, 0
1, 239880, Note_on_c, 0, 82, 80
1, 239993, Note_on_c, 0, 82, 0
1, 240000, Note_on_c, 0, 84, 80
1, 240119, Note_on_c, 0, 84, 0
1, 240240, Note_on_c, 0, 80, 80
1, 240359, Note_on_c, 0, 80, 0
1, 240480, Note_on_c, 0, 75, 80
1, 240599, Note_on_c, 0, 75, 0
1, 240720, Note_on_c, 0, 72, 80
1, 241175, Note_on_c, 0, 72, 0
1, 241200, Note_on_c, 0, 73, 80
1, 241319, Note_on_c, 0, 73, 0
1, 241440, Note_on_c, 0, 75, 80
1, 241895, Note_on_c, 0, 75, 0
1, 241920, Note_on_c, 0, 87, 80
1, 242375, Note_on_c, 0, 87, 0
1, 242400, Note_on_c, 0, 80, 80
1, 242855, Note_on_c, 0, 80, 0
1, 242880, Note_on_c, 0, 82, 80
1, 242999, Note_on_c, 0, 82, 0
1, 243600, Note_on_c, 0, 80, 80
1, 243713, Note_on_c, 0, 80, 0
1, 243720, Note_on_c, 0, 82, 80
1, 243833, Note_on_c, 0, 82, 0
1, 243840, Note_on_c, 0, 84, 80
1, 243959, Note_on_c, 0, 84, 0
1, 244080, Note_on_c, 0, 85, 80
1, 244199, Note_on_c, 0, 85, 0
1, 244320, Note_on_c, 0, 84, 80
1, 244439, Note_on_c, 0, 84, 0
1, 244560, Note_on_c, 0, 82, 80
1, 245243, Note_on_c, 0, 82, 0
1, 245760, Note_on_c, 0, 87, 80
1, 246443, Note_on_c, 0, 87, 0
1, 246480, Note_on_c, 0, 75, 80
1, 246593, Note_on_c, 0, 75, 0
1, 246600, Note_on_c, 0, 80, 80
1, 246713, Note_on_c, 0, 80, 0
1, 246720, Note_on_c, 0, 82, 80
1, 246839, Note_on_c, 0, 82, 0
1, 246960, Note_on_c, 0, 84, 80
1, 247079, Note_on_c, 0, 84, 0
1, 247200, Note_on_c, 0, 82, 80
1, 247255, Note_on_c, 0, 82, 0
1, 247260, Note_on_c, 0, 96, 80
1, 247315, Note_on_c, 0, 96, 0
1, 247320, Note_on_c, 0, 82, 80
1, 247433, Note_on_c, 0, 82, 0
1, 247440, Note_on_c, 0, 80, 80
1, 247559, Note_on_c, 0, 80, 0
1, 247680, Note_on_c, 0, 87, 80
1, 248363, Note_on_c, 0, 87, 0
1, 248400, Note_on_c, 0, 75, 80
1, 248513, Note_on_c, 0, 75, 0
1, 248520, Note_on_c, 0, 80, 80
1, 248633, Note_on_c, 0, 80, 0
1, 248640, Note_on_c, 0, 82, 80
1, 248759, Note_on_c, 0, 82, 0
1, 248880, Note_on_c, 0, 84, 80
1, 248999, Note_on_c, 0, 84, 0
1, 249120, Note_on_c, 0, 82, 80
1, 249175, Note_on_c, 0, 82, 0
1, 249180, Note_on_c, 0, 96, 80
1, 249235, Note_on_c, 0, 96, 0
1, 249240, Note_on_c, 0, 82, 80
1, 249353, Note_on_c, 0, 82, 0
1, 249360, Note_on_c, 0, 80, 80
1, 249479, Note_on_c, 0, 80, 0
1, 249600, Note_on_c, 0, 80, 80
1, 249600, Note_on_c, 0, 84, 80
1, 250283, Note_on_c, 0, 80, 0
1, 250283, Note_on_c, 0, 84, 0
1, 250320, Note_on_c, 0, 80, 80
1, 250320, Note_on_c, 0, 84, 80
1, 250439, Note_on_c, 0, 80, 0
1, 250439, Note_on_c, 0, 84, 0
1, 250560, Note_on_c, 0, 82, 80
1, 250560, Note_on_c, 0, 85, 80
1, 250679, Note_on_c, 0, 82, 0
1, 250679, Note_on_c, 0, 85, 0
1, 250800, Note_on_c, 0, 80, 80
1, 250800, Note_on_c, 0, 84, 80
1, 250919, Note_on_c, 0, 80, 0
1, 250919, Note_on_c, 0, 84, 0
1, 251040, Note_on_c, 0, 82, 80
1, 251040, Note_on_c, 0, 85, 80
1, 251159, Note_on_c, 0, 82, 0
1, 251159, Note_on_c, 0, 85, 0
1, 251280, Note_on_c, 0, 84, 80
1, 251280, Note_on_c, 0, 89, 80
1, 251399, Note_on_c, 0, 84, 0
1, 251399, Note_on_c, 0, 89, 0
1, 251520, Note_on_c, 0, 84, 80
1, 251520, Note_on_c, 0, 87, 80
1, 251975, Note_on_c, 0, 84, 0
1, 251975, Note_on_c, 0, 87, 0
1, 252240, Note_on_c, 0, 73, 80
1, 252240, Note_on_c, 0, 85, 80
1, 252359, Note_on_c, 0, 73, 0
1, 252359, Note_on_c, 0, 85, 0
1, 252720, Note_on_c, 0, 75, 80
1, 252720, Note_on_c, 0, 87, 80
1, 252839, Note_on_c, 0, 75, 0
1, 252839, Note_on_c, 0, 87, 0
1, 252960, Note_on_c, 0, 72, 80
1, 252960, Note_on_c, 0, 84, 80
1, 253079, Note_on_c, 0, 72, 0
1, 253079, Note_on_c, 0, 84, 0
1, 253200, Note_on_c, 0, 70, 80
1, 253200, Note_on_c, 0, 82, 80
1, 253319, Note_on_c, 0, 70, 0
1, 253319, Note_on_c, 0, 82, 0
1, 253440, Note_on_c, 0, 87, 80
1, 254123, Note_on_c, 0, 87, 0
1, 254160, Note_on_c, 0, 75, 80
1, 254273, Note_on_c, 0, 75, 0
1, 254280, Note_on_c, 0, 80, 80
1, 254393, Note_on_c, 0, 80, 0
1, 254400, Note_on_c, 0, 82, 80
1, 254519, Note_on_c, 0, 82, 0
1, 254640, Note_on_c, 0, 84, 80
1, 254759, Note_on_c, 0, 84, 0
1, 254880, Note_on_c, 0, 82, 80
1, 254935, Note_on_c, 0, 82, 0
1, 254940, Note_on_c, 0, 96, 80
1, 254995, Note_on_c, 0, 96, 0
1, 255000, Note_on_c, 0, 82, 80
1, 255113, Note_on_c, 0, 82, 0
1, 255120, Note_on_c, 0, 80, 80
1, 255239, Note_on_c, 0, 80, 0
1, 255360, Note_on_c, 0, 87, 80
1, 256043, Note_on_c, 0, 87, 0
1, 256080, Note_on_c, 0, 75, 80
1, 256193, Note_on_c, 0, 75, 0
1, 256200, Note_on_c, 0, 80, 80
1, 256313, Note_on_c, 0, 80, 0
1, 256320, Note_on_c, 0, 82, 80
1, 256439, Note_on_c, 0, 82, 0
1, 256560, Note_on_c, 0, 84, 80
1, 256679, Note_on_c, 0, 84, 0
1, 256800, Note_on_c, 0, 82, 83
1, 256855, Note_on_c, 0, 82, 0
1, 256860, Note_on_c, 0, 96, 83
1, 256915, Note_on_c, 0, 96, 0
1, 256920, Note_on_c, 0, 82, 83
1, 257033, Note_on_c, 0, 82, 0
1, 257040, Note_on_c, 0, 80, 86
1, 257159, Note_on_c, 0, 80, 0
1, 257280, Note_on_c, 0, 80, 90
1, 257280, Note_on_c, 0, 84, 90
1, 257963, Note_on_c, 0, 80, 0
1, 257963, Note_on_c, 0, 84, 0
1, 258000, Note_on_c, 0, 80, 90
1, 258000, Note_on_c, 0, 84, 90
1, 258119, Note_on_c, 0, 80, 0
1, 258119, Note_on_c, 0, 84, 0
1, 258240, Note_on_c, 0, 82, 90
1, 258240, Note_on_c, 0, 85, 90
1, 258359, Note_on_c, 0, 82, 0
1, 258359, Note_on_c, 0, 85, 0
1, 258480, Note_on_c, 0, 80, 90
1, 258480, Note_on_c, 0, 84, 90
1, 258599, Note_on_c, 0, 80, 0
1, 258599, Note_on_c, 0, 84, 0
1, 258720, Note_on_c, 0, 79, 90
1, 258720, Note_on_c, 0, 82, 90
1, 259061, Note_on_c, 0, 79, 0
1, 259061, Note_on_c, 0, 82, 0
1, 259080, Note_on_c, 0, 75, 90
1, 259080, Note_on_c, 0, 80, 90
1, 259193, Note_on_c, 0, 75, 0
1, 259193, Note_on_c, 0, 80, 0
1, 259200, Note_on_c, 0, 75, 90
1, 259200, Note_on_c, 0, 80, 90
1, 260111, Note_on_c, 0, 75, 0
1, 260111, Note_on_c, 0, 80, 0
1, 261120, Key_signature, -5, "major"
1, 261120, Tempo, 400000
1, 265200, Note_on_c, 0, 60, 90
1, 265319, Note_on_c, 0, 60, 0
1, 265440, Note_on_c, 0, 67, 90
1, 265559, Note_on_c, 0, 67, 0
1, 265680, Note_on_c, 0, 72, 90
1, 265799, Note_on_c, 0, 72, 0
1, 265920, Note_on_c, 0, 75, 90
1, 266375, Note_on_c, 0, 75, 0
1, 266400, Note_on_c, 0, 72, 90
1, 266855, Note_on_c, 0, 72, 0
1, 266880, Note_on_c, 0, 71, 90
1, 267119, Note_on_c, 0, 71, 0
1, 267120, Note_on_c, 0, 72, 90
1, 267239, Note_on_c, 0, 72, 0
1, 267360, Note_on_c, 0, 74, 90
1, 267815, Note_on_c, 0, 74, 0
1, 267840, Note_on_c, 0, 72, 90
1, 267959, Note_on_c, 0, 72, 0
1, 268080, Note_on_c, 0, 67, 90
1, 268199, Note_on_c, 0, 67, 0
1, 268320, Note_on_c, 0, 63, 90
1, 268439, Note_on_c, 0, 63, 0
1, 268560, Note_on_c, 0, 60, 90
1, 268679, Note_on_c, 0, 60, 0
1, 268800, Note_on_c, 0, 62, 90
1, 269039, Note_on_c, 0, 62, 0
1, 269040, Note_on_c, 0, 63, 90
1, 269159, Note_on_c, 0, 63, 0
1, 269280, Note_on_c, 0, 66, 90
1, 269735, Note_on_c, 0, 66, 0
1, 269760, Note_on_c, 0, 67, 90
1, 269879, Note_on_c, 0, 67, 0
1, 270000, Note_on_c, 0, 63, 90
1, 270119, Note_on_c, 0, 63, 0
1, 270240, Note_on_c, 0, 60, 90
1, 270359, Note_on_c, 0, 60, 0
1, 270480, Note_on_c, 0, 57, 90
1, 270599, Note_on_c, 0, 57, 0
1, 270720, Note_on_c, 0, 59, 90
1, 270959, Note_on_c, 0, 59, 0
1, 270960, Note_on_c, 0, 60, 90
1, 271079, Note_on_c, 0, 60, 0
1, 271200, Note_on_c, 0, 62, 90
1, 271655, Note_on_c, 0, 62, 0
1, 271680, Note_on_c, 0, 60, 90
1, 271919, Note_on_c, 0, 60, 0
1, 272880, Note_on_c, 0, 60, 90
1, 272999, Note_on_c, 0, 60, 0
1, 273120, Note_on_c, 0, 67, 90
1, 273239, Note_on_c, 0, 67, 0
1, 273360, Note_on_c, 0, 72, 90
1, 273479, Note_on_c, 0, 72, 0
1, 273600, Note_on_c, 0, 72, 90
1, 273600, Note_on_c, 0, 75, 90
1, 274055, Note_on_c, 0, 72, 0
1, 274055, Note_on_c, 0, 75, 0
1, 274080, Note_on_c, 0, 81, 90
1, 274156, Note_on_c, 0, 81, 0
1, 274157, Note_on_c, 0, 79, 90
1, 274157, Note_on_c, 0, 82, 90
1, 274538, Note_on_c, 0, 79, 0
1, 274538, Note_on_c, 0, 82, 0
1, 274560, Note_on_c, 0, 77, 90
1, 274560, Note_on_c, 0, 81, 90
1, 274679, Note_on_c, 0, 77, 0
1, 274679, Note_on_c, 0, 81, 0
1, 274800, Note_on_c, 0, 75, 90
1, 274800, Note_on_c, 0, 79, 90
1, 274919, Note_on_c, 0, 75, 0
1, 274919, Note_on_c, 0, 79, 0
1, 275040, Note_on_c, 0, 77, 90
1, 275040, Note_on_c, 0, 81, 90
1, 275495, Note_on_c, 0, 77, 0
1, 275495, Note_on_c, 0, 81, 0
1, 275520, Note_on_c, 0, 79, 90
1, 275520, Note_on_c, 0, 82, 90
1, 275639, Note_on_c, 0, 79, 0
1, 275639, Note_on_c, 0, 82, 0
1, 275760, Note_on_c, 0, 75, 90
1, 275760, Note_on_c, 0, 79, 90
1, 275879, Note_on_c, 0, 75, 0
1, 275879, Note_on_c, 0, 79, 0
1, 276000, Note_on_c, 0, 72, 90
1, 276000, Note_on_c, 0, 75, 90
1, 276119, Note_on_c, 0, 72, 0
1, 276119, Note_on_c, 0, 75, 0
1, 276240, Note_on_c, 0, 67, 90
1, 276240, Note_on_c, 0, 72, 90
1, 276359, Note_on_c, 0, 67, 0
1, 276359, Note_on_c, 0, 72, 0
1, 276480, Note_on_c, 0, 67, 90
1, 276480, Note_on_c, 0, 71, 90
1, 276599, Note_on_c, 0, 67, 0
1, 276599, Note_on_c, 0, 71, 0
1, 276720, Note_on_c, 0, 69, 90
1, 276720, Note_on_c, 0, 72, 90
1, 276839, Note_on_c, 0, 69, 0
1, 276839, Note_on_c, 0, 72, 0
1, 276960, Note_on_c, 0, 71, 90
1, 276960, Note_on_c, 0, 74, 90
1, 277415, Note_on_c, 0, 71, 0
1, 277415, Note_on_c, 0, 74, 0
1, 277440, Note_on_c, 0, 72, 90
1, 277440, Note_on_c, 0, 75, 90
1, 277559, Note_on_c, 0, 72, 0
1, 277559, Note_on_c, 0, 75, 0
1, 277680, Note_on_c, 0, 67, 90
1, 277680, Note_on_c, 0, 72, 90
1, 277799, Note_on_c, 0, 67, 0
1, 277799, Note_on_c, 0, 72, 0
1, 277920, Note_on_c, 0, 63, 90
1, 277920, Note_on_c, 0, 67, 90
1, 278039, Note_on_c, 0, 63, 0
1, 278039, Note_on_c, 0, 67, 0
1, 278160, Note_on_c, 0, 60, 90
1, 278160, Note_on_c, 0, 63, 90
1, 278279, Note_on_c, 0, 60, 0
1, 278279, Note_on_c, 0, 63, 0
1, 278400, Note_on_c, 0, 67, 90
1, 278400, Note_on_c, 0, 71, 90
1, 278639, Note_on_c, 0, 67, 0
1, 278639, Note_on_c, 0, 71, 0
1, 278640, Note_on_c, 0, 69, 90
1, 278759, Note_on_c, 0, 69, 0
1, 278880, Note_on_c, 0, 71, 90
1, 278950, Note_on_c, 0, 71, 0
1, 278954, Note_on_c, 0, 72, 90
1, 279024, Note_on_c, 0, 72, 0
1, 279029, Note_on_c, 0, 71, 90
1, 279340, Note_on_c, 0, 71, 0
1, 279360, Note_on_c, 0, 60, 90
1, 279360, Note_on_c, 0, 72, 90
1, 280271, Note_on_c, 0, 60, 0
1, 280271, Note_on_c, 0, 72, 0
1, 280560, Note_on_c, 0, 65, 96
1, 280560, Note_on_c, 0, 77, 96
1, 280679, Note_on_c, 0, 65, 0
1, 280679, Note_on_c, 0, 77, 0
1, 280800, Note_on_c, 0, 68, 96
1, 280800, Note_on_c, 0, 72, 96
1, 280800, Note_on_c, 0, 80, 96
1, 280919, Note_on_c, 0, 68, 0
1, 280919, Note_on_c, 0, 72, 0
1, 280919, Note_on_c, 0, 80, 0
1, 281040, Note_on_c, 0, 72, 96
1, 281040, Note_on_c, 0, 77, 96
1, 281040, Note_on_c, 0, 84, 96
1, 281159, Note_on_c, 0, 72, 0
1, 281159, Note_on_c, 0, 77, 0
1, 281159, Note_on_c, 0, 84, 0
1, 281280, Note_on_c, 0, 77, 96
1, 281280, Note_on_c, 0, 80, 96
1, 281280, Note_on_c, 0, 89, 96
1, 281735, Note_on_c, 0, 77, 0
1, 281735, Note_on_c, 0, 80, 0
1, 281735, Note_on_c, 0, 89, 0
1, 281760, Note_on_c, 0, 72, 96
1, 281760, Note_on_c, 0, 84, 96
1, 282215, Note_on_c, 0, 72, 0
1, 282215, Note_on_c, 0, 84, 0
1, 282240, Note_on_c, 0, 71, 96
1, 282240, Note_on_c, 0, 74, 96
1, 282240, Note_on_c, 0, 83, 96
1, 282479, Note_on_c, 0, 71, 0
1, 282479, Note_on_c, 0, 74, 0
1, 282479, Note_on_c, 0, 83, 0
1, 282480, Note_on_c, 0, 72, 96
1, 282480, Note_on_c, 0, 75, 96
1, 282480, Note_on_c, 0, 84, 96
1, 282599, Note_on_c, 0, 72, 0
1, 282599, Note_on_c, 0, 75, 0
1, 282599, Note_on_c, 0, 84, 0
1, 282720, Note_on_c, 0, 86, 96
1, 282790, Note_on_c, 0, 86, 0
1, 282794, Note_on_c, 0, 87, 96
1, 282864, Note_on_c, 0, 87, 0
1, 282869, Note_on_c, 0, 86, 96
1, 283180, Note_on_c, 0, 86, 0
1, 283200, Note_on_c, 0, 71, 96
1, 283200, Note_on_c, 0, 74, 96
1, 283200, Note_on_c, 0, 83, 96
1, 283319, Note_on_c, 0, 71, 0
1, 283319, Note_on_c, 0, 74, 0
1, 283319, Note_on_c, 0, 83, 0
1, 283440, Note_on_c, 0, 67, 96
1, 283440, Note_on_c, 0, 71, 96
1, 283440, Note_on_c, 0, 79, 96
1, 283559, Note_on_c, 0, 67, 0
1, 283559, Note_on_c, 0, 71, 0
1, 283559, Note_on_c, 0, 79, 0
1, 283680, Note_on_c, 0, 71, 96
1, 283680, Note_on_c, 0, 74, 96
1, 283680, Note_on_c, 0, 83, 96
1, 283799, Note_on_c, 0, 71, 0
1, 283799, Note_on_c, 0, 74, 0
1, 283799, Note_on_c, 0, 83, 0
1, 283920, Note_on_c, 0, 74, 96
1, 283920, Note_on_c, 0, 86, 96
1, 284039, Note_on_c, 0, 74, 0
1, 284039, Note_on_c, 0, 86, 0
1, 284160, Note_on_c, 0, 75, 96
1, 284160, Note_on_c, 0, 84, 96
1, 284160, Note_on_c, 0, 87, 96
1, 284501, Note_on_c, 0, 75, 0
1, 284501, Note_on_c, 0, 84, 0
1, 284501, Note_on_c, 0, 87, 0
1, 284520, Note_on_c, 0, 77, 96
1, 284576, Note_on_c, 0, 77, 0
1, 284580, Note_on_c, 0, 75, 96
1, 284636, Note_on_c, 0, 75, 0
1, 284640, Note_on_c, 0, 74, 96
1, 284640, Note_on_c, 0, 86, 96
1, 284759, Note_on_c, 0, 74, 0
1, 284759, Note_on_c, 0, 86, 0
1, 284880, Note_on_c, 0, 72, 96
1, 284880, Note_on_c, 0, 84, 96
1, 284999, Note_on_c, 0, 72, 0
1, 284999, Note_on_c, 0, 84, 0
1, 285120, Note_on_c, 0, 84, 96
1, 285120, Note_on_c, 0, 87, 96
1, 285120, Note_on_c, 0, 96, 96
1, 285575, Note_on_c, 0, 84, 0
1, 285575, Note_on_c, 0, 87, 0
1, 285575, Note_on_c, 0, 96, 0
1, 285600, Note_on_c, 0, 82, 96
1, 285600, Note_on_c, 0, 94, 96
1, 285719, Note_on_c, 0, 82, 0
1, 285719, Note_on_c, 0, 94, 0
1, 285840, Note_on_c, 0, 80, 96
1, 285840, Note_on_c, 0, 92, 96
1, 285959, Note_on_c, 0, 80, 0
1, 285959, Note_on_c, 0, 92, 0
1, 286080, Note_on_c, 0, 79, 96
1, 286080, Note_on_c, 0, 91, 96
1, 286421, Note_on_c, 0, 79, 0
1, 286421, Note_on_c, 0, 91, 0
1, 286440, Note_on_c, 0, 80, 96
1, 286496, Note_on_c, 0, 80, 0
1, 286500, Note_on_c, 0, 79, 96
1, 286556, Note_on_c, 0, 79, 0
1, 286560, Note_on_c, 0, 77, 96
1, 286560, Note_on_c, 0, 89, 96
1, 286679, Note_on_c, 0, 77, 0
1, 286679, Note_on_c, 0, 89, 0
1, 286800, Note_on_c, 0, 80, 96
1, 286800, Note_on_c, 0, 92, 96
1, 286919, Note_on_c, 0, 80, 0
1, 286919, Note_on_c, 0, 92, 0
1, 287040, Note_on_c, 0, 79, 96
1, 287040, Note_on_c, 0, 83, 96
1, 287040, Note_on_c, 0, 86, 96
1, 287040, Note_on_c, 0, 91, 96
1, 287951, Note_on_c, 0, 79, 0
1, 287951, Note_on_c, 0, 83, 0
1, 287951, Note_on_c, 0, 86, 0
1, 287951, Note_on_c, 0, 91, 0
1, 288240, Note_on_c, 0, 65, 96
1, 288240, Note_on_c, 0, 77, 96
1, 288359, Note_on_c, 0, 65, 0
1, 288359, Note_on_c, 0, 77, 0
1, 288480, Note_on_c, 0, 68, 96
1, 288480, Note_on_c, 0, 72, 96
1, 288480, Note_on_c, 0, 80, 96
1, 288599, Note_on_c, 0, 68, 0
1, 288599, Note_on_c, 0, 72, 0
1, 288599, Note_on_c, 0, 80, 0
1, 288720, Note_on_c, 0, 72, 96
1, 288720, Note_on_c, 0, 77, 96
1, 288720, Note_on_c, 0, 84, 96
1, 288839, Note_on_c, 0, 72, 0
1, 288839, Note_on_c, 0, 77, 0
1, 288839, Note_on_c, 0, 84, 0
1, 288960, Note_on_c, 0, 77, 96
1, 288960, Note_on_c, 0, 80, 96
1, 288960, Note_on_c, 0, 89, 96
1, 289415, Note_on_c, 0, 77, 0
1, 289415, Note_on_c, 0, 80, 0
1, 289415, Note_on_c, 0, 89, 0
1, 289440, Note_on_c, 0, 72, 96
1, 289440, Note_on_c, 0, 84, 96
1, 289895, Note_on_c, 0, 72, 0
1, 289895, Note_on_c, 0, 84, 0
1, 289920, Note_on_c, 0, 71, 96
1, 289920, Note_on_c, 0, 74, 96
1, 289920, Note_on_c, 0, 83, 96
1, 290159, Note_on_c, 0, 71, 0
1, 290159, Note_on_c, 0, 74, 0
1, 290159, Note_on_c, 0, 83, 0
1, 290160, Note_on_c, 0, 72, 96
1, 290160, Note_on_c, 0, 75, 96
1, 290160, Note_on_c, 0, 84, 96
1, 290279, Note_on_c, 0, 72, 0
1, 290279, Note_on_c, 0, 75, 0
1, 290279, Note_on_c, 0, 84, 0
1, 290400, Note_on_c, 0, 86, 96
1, 290470, Note_on_c, 0, 86, 0
1, 290474, Note_on_c, 0, 87, 96
1, 290544, Note_on_c, 0, 87, 0
1, 290549, Note_on_c, 0, 86, 96
1, 290860, Note_on_c, 0, 86, 0
1, 290880, Note_on_c, 0, 71, 96
1, 290880, Note_on_c, 0, 74, 96
1, 290880, Note_on_c, 0, 83, 96
1, 290999, Note_on_c, 0, 71, 0
1, 290999, Note_on_c, 0, 74, 0
1, 290999, Note_on_c, 0, 83, 0
1, 291120, Note_on_c, 0, 67, 96
1, 291120, Note_on_c, 0, 71, 96
1, 291120, Note_on_c, 0, 79, 96
1, 291239, Note_on_c, 0, 67, 0
1, 291239, Note_on_c, 0, 71, 0
1, 291239, Note_on_c, 0, 79, 0
1, 291360, Note_on_c, 0, 71, 96
1, 291360, Note_on_c, 0, 74, 96
1, 291360, Note_on_c, 0, 83, 96
1, 291479, Note_on_c, 0, 71, 0
1, 291479, Note_on_c, 0, 74, 0
1, 291479, Note_on_c, 0, 83, 0
1, 291600, Note_on_c, 0, 74, 96
1, 291600, Note_on_c, 0, 86, 96
1, 291719, Note_on_c, 0, 74, 0
1, 291719, Note_on_c, 0, 86, 0
1, 291840, Note_on_c, 0, 75, 96
1, 291840, Note_on_c, 0, 84, 96
1, 291840, Note_on_c, 0, 87, 96
1, 292181, Note_on_c, 0, 75, 0
1, 292181, Note_on_c, 0, 84, 0
1, 292181, Note_on_c, 0, 87, 0
1, 292200, Note_on_c, 0, 77, 96
1, 292256, Note_on_c, 0, 77, 0
1, 292260, Note_on_c, 0, 75, 96
1, 292316, Note_on_c, 0, 75, 0
1, 292320, Note_on_c, 0, 74, 96
1, 292320, Note_on_c, 0, 86, 96
1, 292439, Note_on_c, 0, 74, 0
1, 292439, Note_on_c, 0, 86, 0
1, 292560, Note_on_c, 0, 72, 96
1, 292560, Note_on_c, 0, 84, 96
1, 292679, Note_on_c, 0, 72, 0
1, 292679, Note_on_c, 0, 84, 0
1, 292800, Note_on_c, 0, 84, 96
1, 292800, Note_on_c, 0, 87, 96
1, 292800, Note_on_c, 0, 96, 96
1, 293255, Note_on_c, 0, 84, 0
1, 293255, Note_on_c, 0, 87, 0
1, 293255, Note_on_c, 0, 96, 0
1, 293280, Note_on_c, 0, 85, 96
1, 293357, Note_on_c, 0, 85, 0
1, 293358, Note_on_c, 0, 74, 96
1, 293358, Note_on_c, 0, 86, 96
1, 293437, Note_on_c, 0, 74, 0
1, 293437, Note_on_c, 0, 86, 0
1, 293520, Note_on_c, 0, 75, 96
1, 293520, Note_on_c, 0, 87, 96
1, 293639, Note_on_c, 0, 75, 0
1, 293639, Note_on_c, 0, 87, 0
1, 293760, Note_on_c, 0, 74, 96
1, 293760, Note_on_c, 0, 86, 96
1, 293879, Note_on_c, 0, 74, 0
1, 293879, Note_on_c, 0, 86, 0
1, 294000, Note_on_c, 0, 72, 96
1, 294000, Note_on_c, 0, 84, 96
1, 294119, Note_on_c, 0, 72, 0
1, 294119, Note_on_c, 0, 84, 0
1, 294240, Note_on_c, 0, 71, 96
1, 294240, Note_on_c, 0, 83, 96
1, 294359, Note_on_c, 0, 71, 0
1, 294359, Note_on_c, 0, 83, 0
1, 294480, Note_on_c, 0, 68, 96
1, 294480, Note_on_c, 0, 80, 96
1, 294599, Note_on_c, 0, 68, 0
1, 294599, Note_on_c, 0, 80, 0
1, 294720, Note_on_c, 0, 79, 96
1, 294790, Note_on_c, 0, 79, 0
1, 294794, Note_on_c, 0, 80, 96
1, 294864, Note_on_c, 0, 80, 0
1, 294869, Note_on_c, 0, 79, 96
1, 295636, Note_on_c, 0, 79, 0
1, 295680, Key_signature, 1, "major"
1, 295680, Tempo, 750002
1, 295680, Note_on_c, 0, 76, 49
1, 295907, Note_on_c, 0, 76, 0
1, 295920, Note_on_c, 0, 83, 49
1, 296147, Note_on_c, 0, 83, 0
1, 296160, Note_on_c, 0, 90, 49
1, 296387, Note_on_c, 0, 90, 0
1, 296400, Note_on_c, 0, 86, 49
1, 296627, Note_on_c, 0, 86, 0
1, 296640, Note_on_c, 0, 88, 49
1, 296867, Note_on_c, 0, 88, 0
1, 296880, Note_on_c, 0, 83, 49
1, 297107, Note_on_c, 0, 83, 0
1, 297120, Note_on_c, 0, 79, 49
1, 297347, Note_on_c, 0, 79, 0
1, 297360, Note_on_c, 0, 83, 49
1, 297587, Note_on_c, 0, 83, 0
1, 297600, Note_on_c, 0, 76, 49
1, 297827, Note_on_c, 0, 76, 0
1, 297840, Note_on_c, 0, 83, 49
1, 298067, Note_on_c, 0, 83, 0
1, 298080, Note_on_c, 0, 90, 49
1, 298307, Note_on_c, 0, 90, 0
1, 298320, Note_on_c, 0, 91, 49
1, 298547, Note_on_c, 0, 91, 0
1, 298560, Note_on_c, 0, 93, 49
1, 298787, Note_on_c, 0, 93, 0
1, 298800, Note_on_c, 0, 91, 49
1, 299027, Note_on_c, 0, 91, 0
1, 299040, Note_on_c, 0, 90, 49
1, 299267, Note_on_c, 0, 90, 0
1, 299280, Note_on_c, 0, 86, 49
1, 299507, Note_on_c, 0, 86, 0
1, 299520, Note_on_c, 0, 76, 49
1, 299747, Note_on_c, 0, 76, 0
1, 299760, Note_on_c, 0, 83, 49
1, 299987, Note_on_c, 0, 83, 0
1, 300000, Note_on_c, 0, 90, 49
1, 300227, Note_on_c, 0, 90, 0
1, 300240, Note_on_c, 0, 86, 49
1, 300467, Note_on_c, 0, 86, 0
1, 300480, Note_on_c, 0, 88, 49
1, 300707, Note_on_c, 0, 88, 0
1, 300720, Note_on_c, 0, 83, 49
1, 300947, Note_on_c, 0, 83, 0
1, 300960, Note_on_c, 0, 79, 49
1, 301187, Note_on_c, 0, 79, 0
1, 301200, Note_on_c, 0, 83, 49
1, 301427, Note_on_c, 0, 83, 0
1, 301440, Note_on_c, 0, 76, 49
1, 301667, Note_on_c, 0, 76, 0
1, 301680, Note_on_c, 0, 83, 49
1, 301907, Note_on_c, 0, 83, 0
1, 301920, Note_on_c, 0, 90, 49
1, 302147, Note_on_c, 0, 90, 0
1, 302160, Note_on_c, 0, 91, 49
1, 302387, Note_on_c, 0, 91, 0
1, 302400, Note_on_c, 0, 93, 49
1, 302627, Note_on_c, 0, 93, 0
1, 302640, Note_on_c, 0, 91, 49
1, 302867, Note_on_c, 0, 91, 0
1, 302880, Note_on_c, 0, 90, 49
1, 303107, Note_on_c, 0, 90, 0
1, 303120, Note_on_c, 0, 86, 49
1, 303347, Note_on_c, 0, 86, 0
1, 303360, Time_signature, 3, 2, 24, 8
1, 303360, Note_on_c, 0, 59, 67
1, 303360, Note_on_c, 0, 64, 48
1, 303587, Note_on_c, 0, 64, 0
1, 303600, Note_on_c, 0, 71, 48
1, 303815, Note_on_c, 0, 59, 0
1, 303827, Note_on_c, 0, 71, 0
1, 303840, Note_on_c, 0, 64, 67
1, 303840, Note_on_c, 0, 76, 48
1, 304067, Note_on_c, 0, 76, 0
1, 304080, Note_on_c, 0, 74, 48
1, 304295, Note_on_c, 0, 64, 0
1, 304307, Note_on_c, 0, 74, 0
1, 304320, Note_on_c, 0, 67, 67
1, 304320, Note_on_c, 0, 76, 48
1, 304547, Note_on_c, 0, 76, 0
1, 304560, Note_on_c, 0, 71, 48
1, 304775, Note_on_c, 0, 67, 0
1, 304787, Note_on_c, 0, 71, 0
1, 304800, Note_on_c, 0, 64, 67
1, 304800, Note_on_c, 0, 69, 48
1, 305027, Note_on_c, 0, 69, 0
1, 305040, Note_on_c, 0, 71, 48
1, 305255, Note_on_c, 0, 64, 0
1, 305267, Note_on_c, 0, 71, 0
1, 305280, Note_on_c, 0, 57, 67
1, 305280, Note_on_c, 0, 66, 67
1, 305507, Note_on_c, 0, 57, 0
1, 305507, Note_on_c, 0, 66, 0
1, 305520, Note_on_c, 0, 59, 67
1, 305520, Note_on_c, 0, 67, 67
1, 305520, Note_on_c, 0, 71, 48
1, 305747, Note_on_c, 0, 59, 0
1, 305747, Note_on_c, 0, 67, 0
1, 305747, Note_on_c, 0, 71, 0
1, 305760, Note_on_c, 0, 60, 67
1, 305760, Note_on_c, 0, 69, 67
1, 305760, Note_on_c, 0, 72, 48
1, 305987, Note_on_c, 0, 60, 0
1, 305987, Note_on_c, 0, 69, 0
1, 305987, Note_on_c, 0, 72, 0
1, 306000, Note_on_c, 0, 57, 67
1, 306000, Note_on_c, 0, 66, 67
1, 306000, Note_on_c, 0, 69, 48
1, 306227, Note_on_c, 0, 57, 0
1, 306227, Note_on_c, 0, 66, 0
1, 306227, Note_on_c, 0, 69, 0
1, 306240, Note_on_c, 0, 67, 67
1, 306240, Note_on_c, 0, 64, 48
1, 306467, Note_on_c, 0, 64, 0
1, 306480, Note_on_c, 0, 71, 48
1, 306707, Note_on_c, 0, 71, 0
1, 306720, Note_on_c, 0, 76, 48
1, 306923, Note_on_c, 0, 67, 0
1, 306947, Note_on_c, 0, 76, 0
1, 306960, Note_on_c, 0, 66, 67
1, 306960, Note_on_c, 0, 74, 48
1, 307187, Note_on_c, 0, 74, 0
1, 307200, Note_on_c, 0, 76, 48
1, 307415, Note_on_c, 0, 66, 0
1, 307427, Note_on_c, 0, 76, 0
1, 307440, Note_on_c, 0, 64, 67
1, 307440, Note_on_c, 0, 71, 48
1, 307553, Note_on_c, 0, 64, 0
1, 307560, Note_on_c, 0, 62, 67
1, 307667, Note_on_c, 0, 71, 0
1, 307673, Note_on_c, 0, 62, 0
1, 307680, Note_on_c, 0, 60, 67
1, 307680, Note_on_c, 0, 69, 48
1, 307907, Note_on_c, 0, 69, 0
1, 307920, Note_on_c, 0, 71, 48
1, 308135, Note_on_c, 0, 60, 0
1, 308147, Note_on_c, 0, 71, 0
1, 308160, Note_on_c, 0, 57, 67
1, 308160, Note_on_c, 0, 66, 67
1, 308387, Note_on_c, 0, 57, 0
1, 308387, Note_on_c, 0, 66, 0
1, 308400, Note_on_c, 0, 59, 67
1, 308400, Note_on_c, 0, 67, 67
1, 308627, Note_on_c, 0, 59, 0
1, 308627, Note_on_c, 0, 67, 0
1, 308640, Note_on_c, 0, 60, 67
1, 308640, Note_on_c, 0, 69, 67
1, 308867, Note_on_c, 0, 60, 0
1, 308867, Note_on_c, 0, 69, 0
1, 308880, Note_on_c, 0, 63, 67
1, 308880, Note_on_c, 0, 71, 67
1, 309107, Note_on_c, 0, 63, 0
1, 309107, Note_on_c, 0, 71, 0
1, 309120, Note_on_c, 0, 64, 64
1, 309120, Note_on_c, 0, 67, 67
1, 309360, Note_on_c, 0, 71, 48
1, 309575, Note_on_c, 0, 64, 0
1, 309575, Note_on_c, 0, 67, 0
1, 309587, Note_on_c, 0, 71, 0
1, 309600, Note_on_c, 0, 66, 67
1, 309600, Note_on_c, 0, 74, 48
1, 309827, Note_on_c, 0, 74, 0
1, 309840, Note_on_c, 0, 78, 48
1, 310055, Note_on_c, 0, 66, 0
1, 310067, Note_on_c, 0, 78, 0
1, 310080, Note_on_c, 0, 59, 67
1, 310320, Note_on_c, 0, 71, 48
1, 310535, Note_on_c, 0, 59, 0
1, 310547, Note_on_c, 0, 71, 0
1, 310560, Note_on_c, 0, 59, 67
1, 310560, Note_on_c, 0, 64, 67
1, 310560, Note_on_c, 0, 69, 48
1, 310787, Note_on_c, 0, 69, 0
1, 310800, Note_on_c, 0, 71, 48
1, 311015, Note_on_c, 0, 59, 0
1, 311015, Note_on_c, 0, 64, 0
1, 311027, Note_on_c, 0, 71, 0
1, 311040, Note_on_c, 0, 57, 67
1, 311040, Note_on_c, 0, 62, 67
1, 311280, Note_on_c, 0, 71, 48
1, 311495, Note_on_c, 0, 57, 0
1, 311495, Note_on_c, 0, 62, 0
1, 311507, Note_on_c, 0, 71, 0
1, 311520, Note_on_c, 0, 55, 67
1, 311520, Note_on_c, 0, 60, 67
1, 311520, Note_on_c, 0, 67, 48
1, 311747, Note_on_c, 0, 67, 0
1, 311760, Note_on_c, 0, 71, 48
1, 311975, Note_on_c, 0, 55, 0
1, 311975, Note_on_c, 0, 60, 0
1, 311987, Note_on_c, 0, 71, 0
1, 312000, Note_on_c, 0, 54, 67
1, 312000, Note_on_c, 0, 62, 67
1, 312227, Note_on_c, 0, 54, 0
1, 312227, Note_on_c, 0, 62, 0
1, 312240, Note_on_c, 0, 52, 67
1, 312240, Note_on_c, 0, 60, 67
1, 312467, Note_on_c, 0, 52, 0
1, 312467, Note_on_c, 0, 60, 0
1, 312480, Note_on_c, 0, 50, 67
1, 312480, Note_on_c, 0, 59, 67
1, 312707, Note_on_c, 0, 50, 0
1, 312707, Note_on_c, 0, 59, 0
1, 312720, Note_on_c, 0, 57, 67
1, 313175, Note_on_c, 0, 57, 0
1, 313200, Note_on_c, 0, 54, 67
1, 313200, Note_on_c, 0, 64, 67
1, 313427, Note_on_c, 0, 54, 0
1, 313427, Note_on_c, 0, 64, 0
1, 313440, Note_on_c, 0, 55, 67
1, 313440, Note_on_c, 0, 59, 67
1, 314807, Note_on_c, 0, 55, 0
1, 314807, Note_on_c, 0, 59, 0
1, 314880, Time_signature, 4, 2, 24, 8
1, 314880, Key_signature, -1, "major"
1, 314880, Tempo, 375000
1, 314880, Note_on_c, 0, 62, 64
1, 315107, Note_on_c, 0, 62, 0
1, 315120, Note_on_c, 0, 62, 64
1, 315239, Note_on_c, 0, 62, 0
1, 315600, Note_on_c, 0, 62, 64
1, 315827, Note_on_c, 0, 62, 0
1, 315840, Note_on_c, 0, 62, 64
1, 316067, Note_on_c, 0, 62, 0
1, 316080, Note_on_c, 0, 62, 64
1, 316199, Note_on_c, 0, 62, 0
1, 316560, Note_on_c, 0, 62, 64
1, 316787, Note_on_c, 0, 62, 0
1, 316800, Note_on_c, 0, 60, 64
1, 317027, Note_on_c, 0, 60, 0
1, 317040, Note_on_c, 0, 60, 64
1, 317159, Note_on_c, 0, 60, 0
1, 317280, Note_on_c, 0, 60, 64
1, 317399, Note_on_c, 0, 60, 0
1, 317520, Note_on_c, 0, 60, 64
1, 317747, Note_on_c, 0, 60, 0
1, 317760, Note_on_c, 0, 60, 64
1, 317879, Note_on_c, 0, 60, 0
1, 318000, Note_on_c, 0, 60, 64
1, 318227, Note_on_c, 0, 60, 0
1, 318240, Note_on_c, 0, 64, 64
1, 318467, Note_on_c, 0, 64, 0
1, 318480, Note_on_c, 0, 64, 64
1, 318707, Note_on_c, 0, 64, 0
1, 318720, Note_on_c, 0, 62, 64
1, 318947, Note_on_c, 0, 62, 0
1, 318960, Note_on_c, 0, 62, 64
1, 319079, Note_on_c, 0, 62, 0
1, 319440, Note_on_c, 0, 62, 64
1, 319667, Note_on_c, 0, 62, 0
1, 319680, Note_on_c, 0, 62, 64
1, 319907, Note_on_c, 0, 62, 0
1, 319920, Note_on_c, 0, 62, 64
1, 320039, Note_on_c, 0, 62, 0
1, 320400, Note_on_c, 0, 62, 64
1, 320627, Note_on_c, 0, 62, 0
1, 320640, Note_on_c, 0, 60, 64
1, 320867, Note_on_c, 0, 60, 0
1, 320880, Note_on_c, 0, 60, 64
1, 320999, Note_on_c, 0, 60, 0
1, 321360, Note_on_c, 0, 60, 64
1, 321479, Note_on_c, 0, 60, 0
1, 321840, Note_on_c, 0, 60, 64
1, 322067, Note_on_c, 0, 60, 0
1, 322080, Note_on_c, 0, 58, 64
1, 322307, Note_on_c, 0, 58, 0
1, 322320, Note_on_c, 0, 60, 64
1, 322547, Note_on_c, 0, 60, 0
1, 323040, Note_on_c, 0, 58, 80
1, 323040, Note_on_c, 0, 65, 80
1, 323040, Note_on_c, 0, 70, 80
1, 323279, Note_on_c, 0, 58, 0
1, 323279, Note_on_c, 0, 65, 0
1, 323279, Note_on_c, 0, 70, 0
1, 323520, Note_on_c, 0, 60, 80
1, 323520, Note_on_c, 0, 67, 80
1, 323520, Note_on_c, 0, 72, 80
1, 324203, Note_on_c, 0, 60, 0
1, 324203, Note_on_c, 0, 67, 0
1, 324203, Note_on_c, 0, 72, 0
1, 324240, Note_on_c, 0, 62, 80
1, 324240, Note_on_c, 0, 74, 80
1, 324353, Note_on_c, 0, 62, 0
1, 324353, Note_on_c, 0, 74, 0
1, 324360, Note_on_c, 0, 64, 80
1, 324360, Note_on_c, 0, 76, 80
1, 324473, Note_on_c, 0, 64, 0
1, 324473, Note_on_c, 0, 76, 0
1, 324480, Note_on_c, 0, 65, 80
1, 324480, Note_on_c, 0, 72, 80
1, 324480, Note_on_c, 0, 77, 80
1, 326303, Note_on_c, 0, 65, 0
1, 326303, Note_on_c, 0, 72, 0
1, 326303, Note_on_c, 0, 77, 0
1, 326880, Note_on_c, 0, 58, 80
1, 326880, Note_on_c, 0, 65, 80
1, 326880, Note_on_c, 0, 70, 80
1, 327119, Note_on_c, 0, 58, 0
1, 327119, Note_on_c, 0, 65, 0
1, 327119, Note_on_c, 0, 70, 0
1, 327360, Note_on_c, 0, 60, 80
1, 327360, Note_on_c, 0, 67, 80
1, 327360, Note_on_c, 0, 72, 80
1, 328043, Note_on_c, 0, 60, 0
1, 328043, Note_on_c, 0, 67, 0
1, 328043, Note_on_c, 0, 72, 0
1, 328080, Note_on_c, 0, 64, 80
1, 328080, Note_on_c, 0, 76, 80
1, 328193, Note_on_c, 0, 64, 0
1, 328193, Note_on_c, 0, 76, 0
1, 328200, Note_on_c, 0, 65, 80
1, 328200, Note_on_c, 0, 77, 80
1, 328313, Note_on_c, 0, 65, 0
1, 328313, Note_on_c, 0, 77, 0
1, 328320, Note_on_c, 0, 67, 80
1, 328320, Note_on_c, 0, 74, 80
1, 328320, Note_on_c, 0, 79, 80
1, 330143, Note_on_c, 0, 67, 0
1, 330143, Note_on_c, 0, 74, 0
1, 330143, Note_on_c, 0, 79, 0
1, 330720, Note_on_c, 0, 69, 80
1, 330720, Note_on_c, 0, 74, 80
1, 330720, Note_on_c, 0, 81, 80
1, 330959, Note_on_c, 0, 69, 0
1, 330959, Note_on_c, 0, 74, 0
1, 330959, Note_on_c, 0, 81, 0
1, 331200, Note_on_c, 0, 67, 80
1, 331200, Note_on_c, 0, 72, 80
1, 331200, Note_on_c, 0, 79, 80
1, 331883, Note_on_c, 0, 67, 0
1, 331883, Note_on_c, 0, 72, 0
1, 331883, Note_on_c, 0, 79, 0
1, 331920, Note_on_c, 0, 65, 80
1, 331920, Note_on_c, 0, 77, 80
1, 332033, Note_on_c, 0, 65, 0
1, 332033, Note_on_c, 0, 77, 0
1, 332040, Note_on_c, 0, 62, 80
1, 332040, Note_on_c, 0, 74, 80
1, 332153, Note_on_c, 0, 62, 0
1, 332153, Note_on_c, 0, 74, 0
1, 332160, Note_on_c, 0, 64, 80
1, 332160, Note_on_c, 0, 72, 80
1, 332160, Note_on_c, 0, 76, 80
1, 333983, Note_on_c, 0, 64, 0
1, 333983, Note_on_c, 0, 72, 0
1, 333983, Note_on_c, 0, 76, 0
1, 334560, Note_on_c, 0, 69, 80
1, 334560, Note_on_c, 0, 74, 80
1, 334560, Note_on_c, 0, 81, 80
1, 334799, Note_on_c, 0, 69, 0
1, 334799, Note_on_c, 0, 74, 0
1, 334799, Note_on_c, 0, 81, 0
1, 335040, Note_on_c, 0, 67, 80
1, 335040, Note_on_c, 0, 72, 80
1, 335040, Note_on_c, 0, 79, 80
1, 335723, Note_on_c, 0, 67, 0
1, 335723, Note_on_c, 0, 72, 0
1, 335723, Note_on_c, 0, 79, 0
1, 335760, Note_on_c, 0, 65, 80
1, 335760, Note_on_c, 0, 77, 80
1, 335873, Note_on_c, 0, 65, 0
1, 335873, Note_on_c, 0, 77, 0
1, 335880, Note_on_c, 0, 67, 80
1, 335880, Note_on_c, 0, 79, 80
1, 335993, Note_on_c, 0, 67, 0
1, 335993, Note_on_c, 0, 79, 0
1, 336000, Note_on_c, 0, 72, 80
1, 336000, Note_on_c, 0, 79, 80
1, 336000, Note_on_c, 0, 84, 80
1, 337823, Note_on_c, 0, 72, 0
1, 337823, Note_on_c, 0, 79, 0
1, 337823, Note_on_c, 0, 84, 0
1, 337920, Time_signature, 6, 3, 24, 8
1, 337920, Key_signature, -4, "major"
1, 337920, Tempo, 461538
1, 337920, Note_on_c, 0, 70, 96
1, 337920, Note_on_c, 0, 77, 96
1, 337920, Note_on_c, 0, 82, 96
1, 338159, Note_on_c, 0, 70, 0
1, 338159, Note_on_c, 0, 77, 0
1, 338159, Note_on_c, 0, 82, 0
1, 338280, Note_on_c, 0, 65, 80
1, 338280, Note_on_c, 0, 77, 80
1, 338399, Note_on_c, 0, 65, 0
1, 338399, Note_on_c, 0, 77, 0
1, 338520, Note_on_c, 0, 68, 80
1, 338520, Note_on_c, 0, 80, 80
1, 338633, Note_on_c, 0, 68, 0
1, 338633, Note_on_c, 0, 80, 0
1, 338640, Note_on_c, 0, 67, 80
1, 338640, Note_on_c, 0, 79, 80
1, 338753, Note_on_c, 0, 67, 0
1, 338753, Note_on_c, 0, 79, 0
1, 338880, Note_on_c, 0, 63, 80
1, 338880, Note_on_c, 0, 75, 80
1, 338999, Note_on_c, 0, 63, 0
1, 338999, Note_on_c, 0, 75, 0
1, 339120, Note_on_c, 0, 65, 80
1, 339120, Note_on_c, 0, 77, 80
1, 339347, Note_on_c, 0, 65, 0
1, 339347, Note_on_c, 0, 77, 0
1, 339360, Note_on_c, 0, 70, 96
1, 339360, Note_on_c, 0, 75, 96
1, 339360, Note_on_c, 0, 82, 96
1, 339599, Note_on_c, 0, 70, 0
1, 339599, Note_on_c, 0, 75, 0
1, 339599, Note_on_c, 0, 82, 0
1, 339720, Note_on_c, 0, 65, 80
1, 339720, Note_on_c, 0, 77, 80
1, 339893, Note_on_c, 0, 65, 0
1, 339893, Note_on_c, 0, 77, 0
1, 339960, Note_on_c, 0, 68, 80
1, 339960, Note_on_c, 0, 80, 80
1, 340073, Note_on_c, 0, 68, 0
1, 340073, Note_on_c, 0, 80, 0
1, 340080, Note_on_c, 0, 67, 80
1, 340080, Note_on_c, 0, 79, 80
1, 340193, Note_on_c, 0, 67, 0
1, 340193, Note_on_c, 0, 79, 0
1, 340320, Note_on_c, 0, 63, 80
1, 340320, Note_on_c, 0, 75, 80
1, 340439, Note_on_c, 0, 63, 0
1, 340439, Note_on_c, 0, 75, 0
1, 340560, Note_on_c, 0, 65, 80
1, 340560, Note_on_c, 0, 77, 80
1, 340787, Note_on_c, 0, 65, 0
1, 340787, Note_on_c, 0, 77, 0
1, 340800, Note_on_c, 0, 70, 96
1, 340800, Note_on_c, 0, 77, 96
1, 340800, Note_on_c, 0, 82, 96
1, 341039, Note_on_c, 0, 70, 0
1, 341039, Note_on_c, 0, 77, 0
1, 341039, Note_on_c, 0, 82, 0
1, 341160, Note_on_c, 0, 65, 80
1, 341160, Note_on_c, 0, 77, 80
1, 341279, Note_on_c, 0, 65, 0
1, 341279, Note_on_c, 0, 77, 0
1, 341400, Note_on_c, 0, 68, 80
1, 341400, Note_on_c, 0, 80, 80
1, 341513, Note_on_c, 0, 68, 0
1, 341513, Note_on_c, 0, 80, 0
1, 341520, Note_on_c, 0, 67, 80
1, 341520, Note_on_c, 0, 79, 80
1, 341633, Note_on_c, 0, 67, 0
1, 341633, Note_on_c, 0, 79, 0
1, 341760, Note_on_c, 0, 65, 80
1, 341760, Note_on_c, 0, 77, 80
1, 341879, Note_on_c, 0, 65, 0
1, 341879, Note_on_c, 0, 77, 0
1, 342000, Note_on_c, 0, 63, 80
1, 342000, Note_on_c, 0, 75, 80
1, 342227, Note_on_c, 0, 63, 0
1, 342227, Note_on_c, 0, 75, 0
1, 342240, Note_on_c, 0, 65, 80
1, 342240, Note_on_c, 0, 73, 80
1, 342240, Note_on_c, 0, 77, 80
1, 342479, Note_on_c, 0, 65, 0
1, 342479, Note_on_c, 0, 73, 0
1, 342479, Note_on_c, 0, 77, 0
1, 342480, Note_on_c, 0, 63, 80
1, 342480, Note_on_c, 0, 72, 80
1, 342480, Note_on_c, 0, 75, 80
1, 342719, Note_on_c, 0, 63, 0
1, 342719, Note_on_c, 0, 72, 0
1, 342719, Note_on_c, 0, 75, 0
1, 342720, Note_on_c, 0, 61, 80
1, 342720, Note_on_c, 0, 70, 80
1, 342720, Note_on_c, 0, 73, 80
1, 342959, Note_on_c, 0, 61, 0
1, 342959, Note_on_c, 0, 70, 0
1, 342959, Note_on_c, 0, 73, 0
1, 342960, Note_on_c, 0, 60, 80
1, 342960, Note_on_c, 0, 68, 80
1, 342960, Note_on_c, 0, 72, 80
1, 343199, Note_on_c, 0, 60, 0
1, 343199, Note_on_c, 0, 68, 0
1, 343199, Note_on_c, 0, 72, 0
1, 343200, Note_on_c, 0, 65, 80
1, 343200, Note_on_c, 0, 73, 80
1, 343200, Note_on_c, 0, 77, 80
1, 343439, Note_on_c, 0, 65, 0
1, 343439, Note_on_c, 0, 73, 0
1, 343439, Note_on_c, 0, 77, 0
1, 343440, Note_on_c, 0, 68, 80
1, 343440, Note_on_c, 0, 75, 80
1, 343440, Note_on_c, 0, 80, 80
1, 343667, Note_on_c, 0, 68, 0
1, 343667, Note_on_c, 0, 75, 0
1, 343667, Note_on_c, 0, 80, 0
1, 343680, Note_on_c, 0, 70, 96
1, 343680, Note_on_c, 0, 77, 96
1, 343680, Note_on_c, 0, 82, 96
1, 343919, Note_on_c, 0, 70, 0
1, 343919, Note_on_c, 0, 77, 0
1, 343919, Note_on_c, 0, 82, 0
1, 344040, Note_on_c, 0, 65, 80
1, 344040, Note_on_c, 0, 77, 80
1, 344159, Note_on_c, 0, 65, 0
1, 344159, Note_on_c, 0, 77, 0
1, 344280, Note_on_c, 0, 68, 80
1, 344280, Note_on_c, 0, 80, 80
1, 344393, Note_on_c, 0, 68, 0
1, 344393, Note_on_c, 0, 80, 0
1, 344400, Note_on_c, 0, 67, 80
1, 344400, Note_on_c, 0, 79, 80
1, 344513, Note_on_c, 0, 67, 0
1, 344513, Note_on_c, 0, 79, 0
1, 344640, Note_on_c, 0, 63, 80
1, 344640, Note_on_c, 0, 75, 80
1, 344759, Note_on_c, 0, 63, 0
1, 344759, Note_on_c, 0, 75, 0
1, 344880, Note_on_c, 0, 65, 80
1, 344880, Note_on_c, 0, 77, 80
1, 345107, Note_on_c, 0, 65, 0
1, 345107, Note_on_c, 0, 77, 0
1, 345120, Note_on_c, 0, 70, 96
1, 345120, Note_on_c, 0, 75, 96
1, 345120, Note_on_c, 0, 82, 96
1, 345359, Note_on_c, 0, 70, 0
1, 345359, Note_on_c, 0, 75, 0
1, 345359, Note_on_c, 0, 82, 0
1, 345480, Note_on_c, 0, 65, 80
1, 345480, Note_on_c, 0, 77, 80
1, 345539, Note_on_c, 0, 65, 0
1, 345539, Note_on_c, 0, 77, 0
1, 345600, Note_on_c, 0, 65, 80
1, 345600, Note_on_c, 0, 77, 80
1, 345713, Note_on_c, 0, 65, 0
1, 345713, Note_on_c, 0, 77, 0
1, 345720, Note_on_c, 0, 68, 80
1, 345720, Note_on_c, 0, 80, 80
1, 345833, Note_on_c, 0, 68, 0
1, 345833, Note_on_c, 0, 80, 0
1, 345840, Note_on_c, 0, 67, 80
1, 345840, Note_on_c, 0, 79, 80
1, 345953, Note_on_c, 0, 67, 0
1, 345953, Note_on_c, 0, 79, 0
1, 346080, Note_on_c, 0, 63, 80
1, 346080, Note_on_c, 0, 75, 80
1, 346199, Note_on_c, 0, 63, 0
1, 346199, Note_on_c, 0, 75, 0
1, 346320, Note_on_c, 0, 65, 80
1, 346320, Note_on_c, 0, 77, 80
1, 346547, Note_on_c, 0, 65, 0
1, 346547, Note_on_c, 0, 77, 0
1, 346560, Note_on_c, 0, 70, 96
1, 346560, Note_on_c, 0, 77, 96
1, 346560, Note_on_c, 0, 82, 96
1, 346799, Note_on_c, 0, 70, 0
1, 346799, Note_on_c, 0, 77, 0
1, 346799, Note_on_c, 0, 82, 0
1, 346920, Note_on_c, 0, 65, 80
1, 346920, Note_on_c, 0, 77, 80
1, 347039, Note_on_c, 0, 65, 0
1, 347039, Note_on_c, 0, 77, 0
1, 347160, Note_on_c, 0, 68, 80
1, 347160, Note_on_c, 0, 80, 80
1, 347273, Note_on_c, 0, 68, 0
1, 347273, Note_on_c, 0, 80, 0
1, 347280, Note_on_c, 0, 67, 80
1, 347280, Note_on_c, 0, 79, 80
1, 347393, Note_on_c, 0, 67, 0
1, 347393, Note_on_c, 0, 79, 0
1, 347520, Note_on_c, 0, 65, 80
1, 347520, Note_on_c, 0, 77, 80
1, 347639, Note_on_c, 0, 65, 0
1, 347639, Note_on_c, 0, 77, 0
1, 347760, Note_on_c, 0, 63, 80
1, 347760, Note_on_c, 0, 75, 80
1, 347987, Note_on_c, 0, 63, 0
1, 347987, Note_on_c, 0, 75, 0
1, 348000, Note_on_c, 0, 65, 80
1, 348000, Note_on_c, 0, 73, 80
1, 348000, Note_on_c, 0, 77, 80
1, 348239, Note_on_c, 0, 65, 0
1, 348239, Note_on_c, 0, 73, 0
1, 348239, Note_on_c, 0, 77, 0
1, 348240, Note_on_c, 0, 63, 80
1, 348240, Note_on_c, 0, 72, 80
1, 348240, Note_on_c, 0, 75, 80
1, 348479, Note_on_c, 0, 63, 0
1, 348479, Note_on_c, 0, 72, 0
1, 348479, Note_on_c, 0, 75, 0
1, 348480, Note_on_c, 0, 61, 80
1, 348480, Note_on_c, 0, 70, 80
1, 348480, Note_on_c, 0, 73, 80
1, 348719, Note_on_c, 0, 61, 0
1, 348719, Note_on_c, 0, 70, 0
1, 348719, Note_on_c, 0, 73, 0
1, 348720, Note_on_c, 0, 60, 80
1, 348720, Note_on_c, 0, 68, 80
1, 348720, Note_on_c, 0, 72, 80
1, 348959, Note_on_c, 0, 60, 0
1, 348959, Note_on_c, 0, 68, 0
1, 348959, Note_on_c, 0, 72, 0
1, 348960, Note_on_c, 0, 65, 80
1, 348960, Note_on_c, 0, 73, 80
1, 348960, Note_on_c, 0, 77, 80
1, 349199, Note_on_c, 0, 65, 0
1, 349199, Note_on_c, 0, 73, 0
1, 349199, Note_on_c, 0, 77, 0
1, 349200, Note_on_c, 0, 68, 80
1, 349200, Note_on_c, 0, 75, 80
1, 349200, Note_on_c, 0, 80, 80
1, 349427, Note_on_c, 0, 68, 0
1, 349427, Note_on_c, 0, 75, 0
1, 349427, Note_on_c, 0, 80, 0
1, 349440, Note_on_c, 0, 70, 80
1, 349440, Note_on_c, 0, 73, 80
1, 349440, Note_on_c, 0, 82, 80
1, 349679, Note_on_c, 0, 70, 0
1, 349679, Note_on_c, 0, 73, 0
1, 349679, Note_on_c, 0, 82, 0
1, 349680, Note_on_c, 0, 66, 80
1, 349680, Note_on_c, 0, 73, 80
1, 349680, Note_on_c, 0, 78, 80
1, 349919, Note_on_c, 0, 66, 0
1, 349919, Note_on_c, 0, 73, 0
1, 349919, Note_on_c, 0, 78, 0
1, 349920, Note_on_c, 0, 63, 80
1, 349920, Note_on_c, 0, 70, 80
1, 349920, Note_on_c, 0, 75, 80
1, 350159, Note_on_c, 0, 63, 0
1, 350159, Note_on_c, 0, 70, 0
1, 350159, Note_on_c, 0, 75, 0
1, 350160, Note_on_c, 0, 65, 80
1, 350160, Note_on_c, 0, 69, 80
1, 350160, Note_on_c, 0, 77, 80
1, 350399, Note_on_c, 0, 65, 0
1, 350399, Note_on_c, 0, 69, 0
1, 350399, Note_on_c, 0, 77, 0
1, 350400, Note_on_c, 0, 69, 80
1, 350400, Note_on_c, 0, 75, 80
1, 350400, Note_on_c, 0, 81, 80
1, 350639, Note_on_c, 0, 69, 0
1, 350639, Note_on_c, 0, 75, 0
1, 350639, Note_on_c, 0, 81, 0
1, 350640, Note_on_c, 0, 72, 80
1, 350640, Note_on_c, 0, 77, 80
1, 350640, Note_on_c, 0, 84, 80
1, 350867, Note_on_c, 0, 72, 0
1, 350867, Note_on_c, 0, 77, 0
1, 350867, Note_on_c, 0, 84, 0
1, 350880, Note_on_c, 0, 70, 80
1, 350880, Note_on_c, 0, 78, 80
1, 350880, Note_on_c, 0, 82, 80
1, 351107, Note_on_c, 0, 70, 0
1, 351107, Note_on_c, 0, 78, 0
1, 351107, Note_on_c, 0, 82, 0
1, 351120, Note_on_c, 0, 66, 80
1, 351120, Note_on_c, 0, 73, 80
1, 351120, Note_on_c, 0, 78, 80
1, 351347, Note_on_c, 0, 66, 0
1, 351347, Note_on_c, 0, 73, 0
1, 351347, Note_on_c, 0, 78, 0
1, 351360, Note_on_c, 0, 63, 80
1, 351360, Note_on_c, 0, 72, 80
1, 351360, Note_on_c, 0, 75, 80
1, 351587, Note_on_c, 0, 63, 0
1, 351587, Note_on_c, 0, 72, 0
1, 351587, Note_on_c, 0, 75, 0
1, 351600, Note_on_c, 0, 57, 80
1, 351600, Note_on_c, 0, 65, 80
1, 351600, Note_on_c, 0, 69, 80
1, 351827, Note_on_c, 0, 57, 0
1, 351827, Note_on_c, 0, 65, 0
1, 351827, Note_on_c, 0, 69, 0
1, 351840, Note_on_c, 0, 60, 80
1, 351840, Note_on_c, 0, 69, 80
1, 351840, Note_on_c, 0, 72, 80
1, 352067, Note_on_c, 0, 60, 0
1, 352067, Note_on_c, 0, 69, 0
1, 352067, Note_on_c, 0, 72, 0
1, 352080, Note_on_c, 0, 65, 80
1, 352080, Note_on_c, 0, 72, 80
1, 352080, Note_on_c, 0, 77, 80
1, 352307, Note_on_c, 0, 65, 0
1, 352307, Note_on_c, 0, 72, 0
1, 352307, Note_on_c, 0, 77, 0
1, 352320, Note_on_c, 0, 70, 80
1, 352320, Note_on_c, 0, 73, 80
1, 352320, Note_on_c, 0, 82, 80
1, 352439, Note_on_c, 0, 70, 0
1, 352439, Note_on_c, 0, 73, 0
1, 352439, Note_on_c, 0, 82, 0
1, 352560, Note_on_c, 0, 66, 80
1, 352560, Note_on_c, 0, 73, 80
1, 352560, Note_on_c, 0, 78, 80
1, 352679, Note_on_c, 0, 66, 0
1, 352679, Note_on_c, 0, 73, 0
1, 352679, Note_on_c, 0, 78, 0
1, 352800, Note_on_c, 0, 63, 80
1, 352800, Note_on_c, 0, 70, 80
1, 352800, Note_on_c, 0, 75, 80
1, 352919, Note_on_c, 0, 63, 0
1, 352919, Note_on_c, 0, 70, 0
1, 352919, Note_on_c, 0, 75, 0
1, 353040, Note_on_c, 0, 65, 80
1, 353040, Note_on_c, 0, 69, 80
1, 353040, Note_on_c, 0, 77, 80
1, 353159, Note_on_c, 0, 65, 0
1, 353159, Note_on_c, 0, 69, 0
1, 353159, Note_on_c, 0, 77, 0
1, 353400, Note_on_c, 0, 57, 80
1, 353400, Note_on_c, 0, 60, 80
1, 353513, Note_on_c, 0, 57, 0
1, 353513, Note_on_c, 0, 60, 0
1, 353520, Note_on_c, 0, 60, 80
1, 353520, Note_on_c, 0, 63, 80
1, 353633, Note_on_c, 0, 60, 0
1, 353633, Note_on_c, 0, 63, 0
1, 353640, Note_on_c, 0, 63, 80
1, 353640, Note_on_c, 0, 66, 80
1, 353753, Note_on_c, 0, 63, 0
1, 353753, Note_on_c, 0, 66, 0
1, 353760, Note_on_c, 0, 58, 80
1, 353760, Note_on_c, 0, 65, 80
1, 354101, Note_on_c, 0, 58, 0
1, 354101, Note_on_c, 0, 65, 0
1, 354120, Note_on_c, 0, 65, 80
1, 354120, Note_on_c, 0, 70, 80
1, 354347, Note_on_c, 0, 65, 0
1, 354347, Note_on_c, 0, 70, 0
1, 354360, Note_on_c, 0, 66, 80
1, 354360, Note_on_c, 0, 73, 80
1, 354473, Note_on_c, 0, 66, 0
1, 354473, Note_on_c, 0, 73, 0
1, 354480, Note_on_c, 0, 66, 80
1, 354480, Note_on_c, 0, 70, 80
1, 354599, Note_on_c, 0, 66, 0
1, 354599, Note_on_c, 0, 70, 0
1, 354720, Note_on_c, 0, 72, 80
1, 354720, Note_on_c, 0, 69, 80
1, 354833, Note_on_c, 0, 72, 0
1, 354840, Note_on_c, 0, 73, 80
1, 354947, Note_on_c, 0, 69, 0
1, 354953, Note_on_c, 0, 73, 0
1, 354960, Note_on_c, 0, 75, 80
1, 354960, Note_on_c, 0, 69, 80
1, 355073, Note_on_c, 0, 75, 0
1, 355080, Note_on_c, 0, 72, 80
1, 355187, Note_on_c, 0, 69, 0
1, 355193, Note_on_c, 0, 72, 0
1, 355200, Note_on_c, 0, 70, 80
1, 355200, Note_on_c, 0, 73, 80
1, 355541, Note_on_c, 0, 70, 0
1, 355541, Note_on_c, 0, 73, 0
1, 355560, Note_on_c, 0, 65, 80
1, 355560, Note_on_c, 0, 72, 80
1, 355787, Note_on_c, 0, 65, 0
1, 355787, Note_on_c, 0, 72, 0
1, 355800, Note_on_c, 0, 70, 80
1, 355856, Note_on_c, 0, 70, 0
1, 355860, Note_on_c, 0, 68, 80
1, 355916, Note_on_c, 0, 68, 0
1, 355920, Note_on_c, 0, 63, 80
1, 355920, Note_on_c, 0, 66, 80
1, 356039, Note_on_c, 0, 63, 0
1, 356039, Note_on_c, 0, 66, 0
1, 356160, Note_on_c, 0, 69, 80
1, 356160, Note_on_c, 0, 72, 80
1, 356273, Note_on_c, 0, 69, 0
1, 356273, Note_on_c, 0, 72, 0
1, 356280, Note_on_c, 0, 70, 80
1, 356280, Note_on_c, 0, 73, 80
1, 356393, Note_on_c, 0, 70, 0
1, 356393, Note_on_c, 0, 73, 0
1, 356400, Note_on_c, 0, 72, 80
1, 356400, Note_on_c, 0, 75, 80
1, 356513, Note_on_c, 0, 72, 0
1, 356513, Note_on_c, 0, 75, 0
1, 356520, Note_on_c, 0, 73, 80
1, 356520, Note_on_c, 0, 77, 80
1, 356633, Note_on_c, 0, 73, 0
1, 356633, Note_on_c, 0, 77, 0
1, 356640, Note_on_c, 0, 70, 80
1, 356640, Note_on_c, 0, 73, 80
1, 356981, Note_on_c, 0, 70, 0
1, 356981, Note_on_c, 0, 73, 0
1, 357000, Note_on_c, 0, 65, 80
1, 357000, Note_on_c, 0, 72, 80
1, 357227, Note_on_c, 0, 65, 0
1, 357227, Note_on_c, 0, 72, 0
1, 357240, Note_on_c, 0, 65, 80
1, 357353, Note_on_c, 0, 65, 0
1, 357360, Note_on_c, 0, 63, 80
1, 357360, Note_on_c, 0, 70, 80
1, 357587, Note_on_c, 0, 63, 0
1, 357587, Note_on_c, 0, 70, 0
1, 357600, Note_on_c, 0, 61, 80
1, 357600, Note_on_c, 0, 68, 80
1, 357827, Note_on_c, 0, 61, 0
1, 357827, Note_on_c, 0, 68, 0
1, 357840, Note_on_c, 0, 63, 80
1, 357840, Note_on_c, 0, 66, 80
1, 358067, Note_on_c, 0, 63, 0
1, 358067, Note_on_c, 0, 66, 0
1, 358080, Note_on_c, 0, 68, 80
1, 358080, Note_on_c, 0, 60, 80
1, 358193, Note_on_c, 0, 68, 0
1, 358200, Note_on_c, 0, 66, 80
1, 358313, Note_on_c, 0, 66, 0
1, 358320, Note_on_c, 0, 65, 80
1, 358421, Note_on_c, 0, 60, 0
1, 358433, Note_on_c, 0, 65, 0
1, 358440, Note_on_c, 0, 63, 80
1, 358440, Note_on_c, 0, 58, 80
1, 358667, Note_on_c, 0, 63, 0
1, 358667, Note_on_c, 0, 58, 0
1, 358680, Note_on_c, 0, 60, 80
1, 358680, Note_on_c, 0, 70, 80
1, 358793, Note_on_c, 0, 60, 0
1, 358793, Note_on_c, 0, 70, 0
1, 358800, Note_on_c, 0, 61, 80
1, 358800, Note_on_c, 0, 65, 80
1, 359255, Note_on_c, 0, 61, 0
1, 359255, Note_on_c, 0, 65, 0
1, 359280, Note_on_c, 0, 60, 80
1, 359280, Note_on_c, 0, 63, 80
1, 359393, Note_on_c, 0, 60, 0
1, 359393, Note_on_c, 0, 63, 0
1, 359400, Note_on_c, 0, 57, 80
1, 359400, Note_on_c, 0, 66, 80
1, 359513, Note_on_c, 0, 57, 0
1, 359513, Note_on_c, 0, 66, 0
1, 359520, Note_on_c, 0, 61, 80
1, 359520, Note_on_c, 0, 65, 80
1, 359520, Note_on_c, 0, 73, 80
1, 359639, Note_on_c, 0, 61, 0
1, 359639, Note_on_c, 0, 65, 0
1, 359639, Note_on_c, 0, 73, 0
1, 359760, Note_on_c, 0, 61, 80
1, 359760, Note_on_c, 0, 73, 80
1, 359873, Note_on_c, 0, 61, 0
1, 359873, Note_on_c, 0, 73, 0
1, 359880, Note_on_c, 0, 61, 80
1, 359880, Note_on_c, 0, 73, 80
1, 359999, Note_on_c, 0, 61, 0
1, 359999, Note_on_c, 0, 73, 0
1, 360120, Note_on_c, 0, 61, 80
1, 360120, Note_on_c, 0, 73, 80
1, 360233, Note_on_c, 0, 61, 0
1, 360233, Note_on_c, 0, 73, 0
1, 360240, Note_on_c, 0, 60, 80
1, 360240, Note_on_c, 0, 65, 80
1, 360240, Note_on_c, 0, 72, 80
1, 360359, Note_on_c, 0, 60, 0
1, 360359, Note_on_c, 0, 65, 0
1, 360359, Note_on_c, 0, 72, 0
1, 360480, Note_on_c, 0, 72, 80
1, 360480, Note_on_c, 0, 84, 80
1, 360599, Note_on_c, 0, 72, 0
1, 360599, Note_on_c, 0, 84, 0
1, 360600, Note_on_c, 0, 73, 80
1, 360600, Note_on_c, 0, 85, 80
1, 360713, Note_on_c, 0, 73, 0
1, 360713, Note_on_c, 0, 85, 0
1, 360720, Note_on_c, 0, 72, 80
1, 360720, Note_on_c, 0, 84, 80
1, 360839, Note_on_c, 0, 72, 0
1, 360839, Note_on_c, 0, 84, 0
1, 360840, Note_on_c, 0, 73, 80
1, 360840, Note_on_c, 0, 85, 80
1, 360953, Note_on_c, 0, 73, 0
1, 360953, Note_on_c, 0, 85, 0
1, 360960, Note_on_c, 0, 72, 80
1, 360960, Note_on_c, 0, 84, 80
1, 361301, Note_on_c, 0, 72, 0
1, 361301, Note_on_c, 0, 84, 0
1, 361320, Note_on_c, 0, 75, 80
1, 361320, Note_on_c, 0, 87, 80
1, 361661, Note_on_c, 0, 75, 0
1, 361661, Note_on_c, 0, 87, 0
1, 361680, Note_on_c, 0, 70, 80
1, 361680, Note_on_c, 0, 82, 80
1, 362021, Note_on_c, 0, 70, 0
1, 362021, Note_on_c, 0, 82, 0
1, 362040, Note_on_c, 0, 53, 80
1, 362153, Note_on_c, 0, 53, 0
1, 362160, Note_on_c, 0, 61, 80
1, 362273, Note_on_c, 0, 61, 0
1, 362280, Note_on_c, 0, 60, 80
1, 362393, Note_on_c, 0, 60, 0
1, 362400, Note_on_c, 0, 61, 80
1, 362400, Note_on_c, 0, 65, 80
1, 362400, Note_on_c, 0, 73, 80
1, 362519, Note_on_c, 0, 61, 0
1, 362519, Note_on_c, 0, 65, 0
1, 362519, Note_on_c, 0, 73, 0
1, 362640, Note_on_c, 0, 61, 80
1, 362640, Note_on_c, 0, 73, 80
1, 362753, Note_on_c, 0, 61, 0
1, 362753, Note_on_c, 0, 73, 0
1, 362760, Note_on_c, 0, 61, 80
1, 362760, Note_on_c, 0, 73, 80
1, 362879, Note_on_c, 0, 61, 0
1, 362879, Note_on_c, 0, 73, 0
1, 363000, Note_on_c, 0, 61, 80
1, 363000, Note_on_c, 0, 73, 80
1, 363113, Note_on_c, 0, 61, 0
1, 363113, Note_on_c, 0, 73, 0
1, 363120, Note_on_c, 0, 60, 80
1, 363120, Note_on_c, 0, 65, 80
1, 363120, Note_on_c, 0, 72, 80
1, 363239, Note_on_c, 0, 60, 0
1, 363239, Note_on_c, 0, 65, 0
1, 363239, Note_on_c, 0, 72, 0
1, 363360, Note_on_c, 0, 72, 80
1, 363360, Note_on_c, 0, 84, 80
1, 363479, Note_on_c, 0, 72, 0
1, 363479, Note_on_c, 0, 84, 0
1, 363480, Note_on_c, 0, 73, 80
1, 363480, Note_on_c, 0, 85, 80
1, 363593, Note_on_c, 0, 73, 0
1, 363593, Note_on_c, 0, 85, 0
1, 363600, Note_on_c, 0, 72, 80
1, 363600, Note_on_c, 0, 84, 80
1, 363719, Note_on_c, 0, 72, 0
1, 363719, Note_on_c, 0, 84, 0
1, 363720, Note_on_c, 0, 75, 80
1, 363720, Note_on_c, 0, 87, 80
1, 363833, Note_on_c, 0, 75, 0
1, 363833, Note_on_c, 0, 87, 0
1, 363840, Note_on_c, 0, 70, 80
1, 363840, Note_on_c, 0, 82, 80
1, 364181, Note_on_c, 0, 70, 0
1, 364181, Note_on_c, 0, 82, 0
1, 364200, Note_on_c, 0, 77, 80
1, 364200, Note_on_c, 0, 89, 80
1, 364541, Note_on_c, 0, 77, 0
1, 364541, Note_on_c, 0, 89, 0
1, 364560, Note_on_c, 0, 75, 80
1, 364560, Note_on_c, 0, 87, 80
1, 365243, Note_on_c, 0, 75, 0
1, 365243, Note_on_c, 0, 87, 0
1, 365280, Time_signature, 4, 2, 24, 8
1, 365280, Note_on_c, 0, 87, 80
1, 365393, Note_on_c, 0, 87, 0
1, 365400, Note_on_c, 0, 87, 80
1, 365627, Note_on_c, 0, 87, 0
1, 365640, Note_on_c, 0, 89, 80
1, 365753, Note_on_c, 0, 89, 0
1, 365760, Tempo, 400000
1, 365760, Note_on_c, 0, 89, 80
1, 365987, Note_on_c, 0, 89, 0
1, 366000, Note_on_c, 0, 82, 80
1, 366113, Note_on_c, 0, 82, 0
1, 366120, Note_on_c, 0, 82, 80
1, 366347, Note_on_c, 0, 82, 0
1, 366360, Note_on_c, 0, 84, 80
1, 366473, Note_on_c, 0, 84, 0
1, 366480, Note_on_c, 0, 84, 80
1, 366707, Note_on_c, 0, 84, 0
1, 366720, Note_on_c, 0, 80, 80
1, 366947, Note_on_c, 0, 80, 0
1, 366960, Note_on_c, 0, 77, 80
1, 367187, Note_on_c, 0, 77, 0
1, 367200, Note_on_c, 0, 85, 80
1, 367313, Note_on_c, 0, 85, 0
1, 367320, Note_on_c, 0, 85, 80
1, 367547, Note_on_c, 0, 85, 0
1, 367560, Note_on_c, 0, 80, 80
1, 367673, Note_on_c, 0, 80, 0
1, 367680, Note_on_c, 0, 80, 80
1, 367907, Note_on_c, 0, 80, 0
1, 367920, Note_on_c, 0, 87, 80
1, 368033, Note_on_c, 0, 87, 0
1, 368040, Note_on_c, 0, 87, 80
1, 368267, Note_on_c, 0, 87, 0
1, 368280, Note_on_c, 0, 80, 80
1, 368393, Note_on_c, 0, 80, 0
1, 368400, Note_on_c, 0, 80, 80
1, 368627, Note_on_c, 0, 80, 0
1, 368640, Note_on_c, 0, 79, 80
1, 368867, Note_on_c, 0, 79, 0
1, 368880, Note_on_c, 0, 75, 80
1, 369107, Note_on_c, 0, 75, 0
1, 369120, Note_on_c, 0, 87, 80
1, 369233, Note_on_c, 0, 87, 0
1, 369240, Note_on_c, 0, 87, 80
1, 369467, Note_on_c, 0, 87, 0
1, 369480, Note_on_c, 0, 89, 80
1, 369593, Note_on_c, 0, 89, 0
1, 369600, Note_on_c, 0, 89, 80
1, 369827, Note_on_c, 0, 89, 0
1, 369840, Note_on_c, 0, 82, 80
1, 369953, Note_on_c, 0, 82, 0
1, 369960, Note_on_c, 0, 82, 80
1, 370187, Note_on_c, 0, 82, 0
1, 370200, Note_on_c, 0, 84, 80
1, 370313, Note_on_c, 0, 84, 0
1, 370320, Note_on_c, 0, 84, 80
1, 370547, Note_on_c, 0, 84, 0
1, 370560, Note_on_c, 0, 80, 80
1, 370787, Note_on_c, 0, 80, 0
1, 370800, Note_on_c, 0, 77, 80
1, 371027, Note_on_c, 0, 77, 0
1, 371040, Note_on_c, 0, 85, 80
1, 371153, Note_on_c, 0, 85, 0
1, 371160, Note_on_c, 0, 85, 80
1, 371387, Note_on_c, 0, 85, 0
1, 371400, Note_on_c, 0, 80, 80
1, 371513, Note_on_c, 0, 80, 0
1, 371520, Note_on_c, 0, 80, 80
1, 371747, Note_on_c, 0, 80, 0
1, 371760, Note_on_c, 0, 87, 80
1, 371873, Note_on_c, 0, 87, 0
1, 371880, Note_on_c, 0, 87, 80
1, 372107, Note_on_c, 0, 87, 0
1, 372120, Note_on_c, 0, 92, 80
1, 372233, Note_on_c, 0, 92, 0
1, 372240, Note_on_c, 0, 92, 80
1, 372467, Note_on_c, 0, 92, 0
1, 372480, Note_on_c, 0, 91, 80
1, 372593, Note_on_c, 0, 91, 0
1, 372600, Note_on_c, 0, 91, 80
1, 372941, Note_on_c, 0, 91, 0
1, 372960, Note_on_c, 0, 75, 80
1, 372960, Note_on_c, 0, 70, 80
1, 373073, Note_on_c, 0, 75, 0
1, 373080, Note_on_c, 0, 75, 80
1, 373307, Note_on_c, 0, 75, 0
1, 373320, Note_on_c, 0, 77, 80
1, 373433, Note_on_c, 0, 77, 0
1, 373440, Note_on_c, 0, 77, 80
1, 373667, Note_on_c, 0, 77, 0
1, 373680, Note_on_c, 0, 70, 80
1, 373793, Note_on_c, 0, 70, 0
1, 373800, Note_on_c, 0, 70, 80
1, 374027, Note_on_c, 0, 70, 0
1, 374040, Note_on_c, 0, 72, 80
1, 374153, Note_on_c, 0, 72, 0
1, 374160, Note_on_c, 0, 72, 80
1, 374387, Note_on_c, 0, 72, 0
1, 374400, Note_on_c, 0, 68, 80
1, 374627, Note_on_c, 0, 68, 0
1, 374640, Note_on_c, 0, 65, 80
1, 374783, Note_on_c, 0, 70, 0
1, 374867, Note_on_c, 0, 65, 0
1, 374880, Note_on_c, 0, 73, 80
1, 374993, Note_on_c, 0, 73, 0
1, 375000, Note_on_c, 0, 73, 80
1, 375227, Note_on_c, 0, 73, 0
1, 375240, Note_on_c, 0, 68, 80
1, 375353, Note_on_c, 0, 68, 0
1, 375360, Note_on_c, 0, 68, 80
1, 375587, Note_on_c, 0, 68, 0
1, 375600, Note_on_c, 0, 75, 80
1, 375713, Note_on_c, 0, 75, 0
1, 375720, Note_on_c, 0, 75, 80
1, 375947, Note_on_c, 0, 75, 0
1, 375960, Note_on_c, 0, 80, 80
1, 376073, Note_on_c, 0, 80, 0
1, 376080, Note_on_c, 0, 80, 80
1, 376307, Note_on_c, 0, 80, 0
1, 376320, Note_on_c, 0, 79, 80
1, 376433, Note_on_c, 0, 79, 0
1, 376440, Note_on_c, 0, 79, 80
1, 376781, Note_on_c, 0, 79, 0
1, 376800, Note_on_c, 0, 75, 80
1, 376800, Note_on_c, 0, 72, 80
1, 376913, Note_on_c, 0, 75, 0
1, 376920, Note_on_c, 0, 75, 80
1, 377141, Note_on_c, 0, 72, 0
1, 377160, Note_on_c, 0, 77, 80
1, 377261, Note_on_c, 0, 75, 0
1, 377280, Note_on_c, 0, 77, 80
1, 377501, Note_on_c, 0, 77, 0
1, 377507, Note_on_c, 0, 77, 0
1, 377520, Note_on_c, 0, 70, 80
1, 377520, Note_on_c, 0, 80, 80
1, 377633, Note_on_c, 0, 70, 0
1, 377640, Note_on_c, 0, 70, 80
1, 377747, Note_on_c, 0, 80, 0
1, 377760, Note_on_c, 0, 77, 80
1, 377867, Note_on_c, 0, 70, 0
1, 377880, Note_on_c, 0, 72, 80
1, 377993, Note_on_c, 0, 72, 0
1, 378000, Note_on_c, 0, 72, 80
1, 378227, Note_on_c, 0, 72, 0
1, 378240, Note_on_c, 0, 68, 80
1, 378467, Note_on_c, 0, 68, 0
1, 378480, Note_on_c, 0, 65, 80
1, 378671, Note_on_c, 0, 77, 0
1, 378707, Note_on_c, 0, 65, 0
1, 378720, Note_on_c, 0, 73, 80
1, 378833, Note_on_c, 0, 73, 0
1, 378840, Note_on_c, 0, 73, 80
1, 379067, Note_on_c, 0, 73, 0
1, 379080, Note_on_c, 0, 68, 80
1, 379193, Note_on_c, 0, 68, 0
1, 379200, Note_on_c, 0, 68, 80
1, 379427, Note_on_c, 0, 68, 0
1, 379440, Note_on_c, 0, 75, 80
1, 379553, Note_on_c, 0, 75, 0
1, 379560, Note_on_c, 0, 75, 80
1, 379787, Note_on_c, 0, 75, 0
1, 379800, Note_on_c, 0, 68, 80
1, 379913, Note_on_c, 0, 68, 0
1, 379920, Note_on_c, 0, 68, 80
1, 380147, Note_on_c, 0, 68, 0
1, 380160, Note_on_c, 0, 67, 80
1, 380387, Note_on_c, 0, 67, 0
1, 380400, Note_on_c, 0, 63, 80
1, 380400, Note_on_c, 0, 68, 80
1, 380627, Note_on_c, 0, 63, 0
1, 380627, Note_on_c, 0, 68, 0
1, 380640, Note_on_c, 0, 75, 80
1, 380640, Note_on_c, 0, 70, 80
1, 380753, Note_on_c, 0, 75, 0
1, 380760, Note_on_c, 0, 75, 80
1, 380987, Note_on_c, 0, 75, 0
1, 381000, Note_on_c, 0, 77, 80
1, 381113, Note_on_c, 0, 77, 0
1, 381120, Note_on_c, 0, 77, 80
1, 381347, Note_on_c, 0, 77, 0
1, 381360, Note_on_c, 0, 70, 80
1, 381473, Note_on_c, 0, 70, 0
1, 381480, Note_on_c, 0, 70, 80
1, 381707, Note_on_c, 0, 70, 0
1, 381720, Note_on_c, 0, 72, 80
1, 381833, Note_on_c, 0, 72, 0
1, 381840, Note_on_c, 0, 72, 80
1, 382067, Note_on_c, 0, 72, 0
1, 382080, Note_on_c, 0, 68, 80
1, 382307, Note_on_c, 0, 68, 0
1, 382320, Note_on_c, 0, 65, 80
1, 382463, Note_on_c, 0, 70, 0
1, 382547, Note_on_c, 0, 65, 0
1, 382560, Note_on_c, 0, 73, 80
1, 382673, Note_on_c, 0, 73, 0
1, 382680, Note_on_c, 0, 73, 80
1, 382907, Note_on_c, 0, 73, 0
1, 382920, Note_on_c, 0, 68, 80
1, 383033, Note_on_c, 0, 68, 0
1, 383040, Note_on_c, 0, 68, 80
1, 383267, Note_on_c, 0, 68, 0
1, 383280, Note_on_c, 0, 75, 80
1, 383393, Note_on_c, 0, 75, 0
1, 383400, Note_on_c, 0, 75, 80
1, 383520, Note_on_c, 0, 67, 80
1, 383627, Note_on_c, 0, 75, 0
1, 383640, Note_on_c, 0, 80, 80
1, 383747, Note_on_c, 0, 67, 0
1, 383760, Note_on_c, 0, 68, 80
1, 383981, Note_on_c, 0, 80, 0
1, 383987, Note_on_c, 0, 68, 0
1, 384000, Note_on_c, 0, 79, 80
1, 384000, Note_on_c, 0, 70, 80
1, 384113, Note_on_c, 0, 79, 0
1, 384120, Note_on_c, 0, 79, 80
1, 384227, Note_on_c, 0, 70, 0
1, 384240, Note_on_c, 0, 72, 80
1, 384461, Note_on_c, 0, 79, 0
1, 384467, Note_on_c, 0, 72, 0
1, 384480, Note_on_c, 0, 75, 80
1, 384480, Note_on_c, 0, 75, 80
1, 384593, Note_on_c, 0, 75, 0
1, 384600, Note_on_c, 0, 75, 80
1, 384827, Note_on_c, 0, 75, 0
1, 384840, Note_on_c, 0, 77, 80
1, 384953, Note_on_c, 0, 77, 0
1, 384960, Note_on_c, 0, 77, 80
1, 385187, Note_on_c, 0, 77, 0
1, 385200, Note_on_c, 0, 70, 80
1, 385313, Note_on_c, 0, 70, 0
1, 385320, Note_on_c, 0, 70, 80
1, 385547, Note_on_c, 0, 70, 0
1, 385560, Note_on_c, 0, 72, 80
1, 385673, Note_on_c, 0, 72, 0
1, 385680, Note_on_c, 0, 72, 80
1, 385907, Note_on_c, 0, 72, 0
1, 385920, Note_on_c, 0, 68, 80
1, 386147, Note_on_c, 0, 68, 0
1, 386160, Note_on_c, 0, 65, 80
1, 386303, Note_on_c, 0, 75, 0
1, 386387, Note_on_c, 0, 65, 0
1, 386400, Note_on_c, 0, 73, 80
1, 386513, Note_on_c, 0, 73, 0
1, 386520, Note_on_c, 0, 73, 80
1, 386747, Note_on_c, 0, 73, 0
1, 386760, Note_on_c, 0, 68, 80
1, 386873, Note_on_c, 0, 68, 0
1, 386880, Note_on_c, 0, 68, 80
1, 387107, Note_on_c, 0, 68, 0
1, 387120, Note_on_c, 0, 75, 80
1, 387233, Note_on_c, 0, 75, 0
1, 387240, Note_on_c, 0, 75, 80
1, 387467, Note_on_c, 0, 75, 0
1, 387480, Note_on_c, 0, 68, 80
1, 387593, Note_on_c, 0, 68, 0
1, 387600, Note_on_c, 0, 68, 80
1, 387827, Note_on_c, 0, 68, 0
1, 387840, Note_on_c, 0, 67, 80
1, 387840, Note_on_c, 0, 77, 80
1, 388067, Note_on_c, 0, 67, 0
1, 388080, Note_on_c, 0, 63, 80
1, 388295, Note_on_c, 0, 77, 0
1, 388307, Note_on_c, 0, 63, 0
1, 388320, Note_on_c, 0, 75, 80
1, 388320, Note_on_c, 0, 69, 80
1, 388320, Note_on_c, 0, 72, 80
1, 388433, Note_on_c, 0, 75, 0
1, 388440, Note_on_c, 0, 75, 80
1, 388667, Note_on_c, 0, 75, 0
1, 388680, Note_on_c, 0, 77, 80
1, 388793, Note_on_c, 0, 77, 0
1, 388800, Note_on_c, 0, 77, 80
1, 389027, Note_on_c, 0, 77, 0
1, 389040, Note_on_c, 0, 70, 80
1, 389153, Note_on_c, 0, 70, 0
1, 389160, Note_on_c, 0, 70, 80
1, 389387, Note_on_c, 0, 70, 0
1, 389400, Note_on_c, 0, 72, 80
1, 389513, Note_on_c, 0, 72, 0
1, 389520, Note_on_c, 0, 72, 80
1, 389747, Note_on_c, 0, 72, 0
1, 389760, Note_on_c, 0, 68, 80
1, 389987, Note_on_c, 0, 68, 0
1, 390000, Note_on_c, 0, 65, 80
1, 390143, Note_on_c, 0, 69, 0
1, 390143, Note_on_c, 0, 72, 0
1, 390227, Note_on_c, 0, 65, 0
1, 390240, Note_on_c, 0, 73, 80
1, 390581, Note_on_c, 0, 73, 0
1, 390600, Note_on_c, 0, 68, 80
1, 390941, Note_on_c, 0, 68, 0
1, 390960, Note_on_c, 0, 75, 80
1, 391301, Note_on_c, 0, 75, 0
1, 391320, Note_on_c, 0, 80, 80
1, 391661, Note_on_c, 0, 80, 0
1, 391680, Note_on_c, 0, 79, 80
1, 392135, Note_on_c, 0, 79, 0
1, 392160, Time_signature, 3, 2, 24, 8
1, 392160, Note_on_c, 0, 65, 64
1, 392387, Note_on_c, 0, 65, 0
1, 392400, Note_on_c, 0, 72, 64
1, 392627, Note_on_c, 0, 72, 0
1, 392640, Note_on_c, 0, 70, 64
1, 392867, Note_on_c, 0, 70, 0
1, 392880, Note_on_c, 0, 72, 64
1, 393107, Note_on_c, 0, 72, 0
1, 393120, Note_on_c, 0, 68, 64
1, 393347, Note_on_c, 0, 68, 0
1, 393360, Note_on_c, 0, 72, 64
1, 393587, Note_on_c, 0, 72, 0
1, 393600, Note_on_c, 0, 67, 64
1, 394055, Note_on_c, 0, 67, 0
1, 394080, Note_on_c, 0, 67, 64
1, 394307, Note_on_c, 0, 67, 0
1, 394320, Note_on_c, 0, 68, 64
1, 394547, Note_on_c, 0, 68, 0
1, 394560, Note_on_c, 0, 67, 64
1, 394787, Note_on_c, 0, 67, 0
1, 394800, Note_on_c, 0, 68, 64
1, 395027, Note_on_c, 0, 68, 0
1, 395040, Note_on_c, 0, 67, 64
1, 395723, Note_on_c, 0, 67, 0
1, 395760, Note_on_c, 0, 70, 64
1, 396443, Note_on_c, 0, 70, 0
1, 396480, Note_on_c, 0, 65, 64
1, 397163, Note_on_c, 0, 65, 0
1, 397200, Note_on_c, 0, 63, 64
1, 397883, Note_on_c, 0, 63, 0
1, 397920, Note_on_c, 0, 65, 64
1, 398147, Note_on_c, 0, 65, 0
1, 398160, Note_on_c, 0, 72, 64
1, 398387, Note_on_c, 0, 72, 0
1, 398400, Note_on_c, 0, 70, 64
1, 398627, Note_on_c, 0, 70, 0
1, 398640, Note_on_c, 0, 72, 64
1, 398867, Note_on_c, 0, 72, 0
1, 398880, Note_on_c, 0, 68, 64
1, 399107, Note_on_c, 0, 68, 0
1, 399120, Note_on_c, 0, 72, 64
1, 399347, Note_on_c, 0, 72, 0
1, 399360, Note_on_c, 0, 67, 64
1, 399815, Note_on_c, 0, 67, 0
1, 399840, Note_on_c, 0, 67, 64
1, 400067, Note_on_c, 0, 67, 0
1, 400080, Note_on_c, 0, 68, 64
1, 400307, Note_on_c, 0, 68, 0
1, 400320, Note_on_c, 0, 67, 64
1, 400547, Note_on_c, 0, 67, 0
1, 400560, Note_on_c, 0, 68, 64
1, 400787, Note_on_c, 0, 68, 0
1, 400800, Note_on_c, 0, 67, 64
1, 401255, Note_on_c, 0, 67, 0
1, 401280, Note_on_c, 0, 70, 64
1, 401735, Note_on_c, 0, 70, 0
1, 401760, Note_on_c, 0, 75, 64
1, 402101, Note_on_c, 0, 75, 0
1, 402120, Note_on_c, 0, 74, 64
1, 402176, Note_on_c, 0, 74, 0
1, 402180, Note_on_c, 0, 73, 64
1, 402236, Note_on_c, 0, 73, 0
1, 402240, Note_on_c, 0, 72, 64
1, 403607, Note_on_c, 0, 72, 0
1, 403680, Note_on_c, 0, 65, 80
1, 403680, Note_on_c, 0, 77, 80
1, 403907, Note_on_c, 0, 65, 0
1, 403907, Note_on_c, 0, 77, 0
1, 403920, Note_on_c, 0, 72, 80
1, 403920, Note_on_c, 0, 84, 80
1, 404147, Note_on_c, 0, 72, 0
1, 404147, Note_on_c, 0, 84, 0
1, 404160, Note_on_c, 0, 70, 80
1, 404160, Note_on_c, 0, 82, 80
1, 404387, Note_on_c, 0, 70, 0
1, 404387, Note_on_c, 0, 82, 0
1, 404400, Note_on_c, 0, 72, 80
1, 404400, Note_on_c, 0, 84, 80
1, 404627, Note_on_c, 0, 72, 0
1, 404627, Note_on_c, 0, 84, 0
1, 404640, Note_on_c, 0, 68, 80
1, 404640, Note_on_c, 0, 80, 80
1, 404867, Note_on_c, 0, 68, 0
1, 404867, Note_on_c, 0, 80, 0
1, 404880, Note_on_c, 0, 72, 80
1, 404880, Note_on_c, 0, 84, 80
1, 405107, Note_on_c, 0, 72, 0
1, 405107, Note_on_c, 0, 84, 0
1, 405120, Note_on_c, 0, 67, 80
1, 405120, Note_on_c, 0, 79, 80
1, 405575, Note_on_c, 0, 67, 0
1, 405575, Note_on_c, 0, 79, 0
1, 405600, Note_on_c, 0, 67, 80
1, 405600, Note_on_c, 0, 79, 80
1, 405827, Note_on_c, 0, 67, 0
1, 405827, Note_on_c, 0, 79, 0
1, 405840, Note_on_c, 0, 68, 80
1, 405840, Note_on_c, 0, 80, 80
1, 406067, Note_on_c, 0, 68, 0
1, 406067, Note_on_c, 0, 80, 0
1, 406080, Note_on_c, 0, 67, 80
1, 406080, Note_on_c, 0, 79, 80
1, 406307, Note_on_c, 0, 67, 0
1, 406307, Note_on_c, 0, 79, 0
1, 406320, Note_on_c, 0, 68, 80
1, 406320, Note_on_c, 0, 80, 80
1, 406547, Note_on_c, 0, 68, 0
1, 406547, Note_on_c, 0, 80, 0
1, 406560, Note_on_c, 0, 67, 80
1, 406560, Note_on_c, 0, 79, 80
1, 407243, Note_on_c, 0, 67, 0
1, 407243, Note_on_c, 0, 79, 0
1, 407280, Note_on_c, 0, 70, 80
1, 407280, Note_on_c, 0, 82, 80
1, 407963, Note_on_c, 0, 70, 0
1, 407963, Note_on_c, 0, 82, 0
1, 408000, Note_on_c, 0, 65, 80
1, 408000, Note_on_c, 0, 77, 80
1, 408683, Note_on_c, 0, 65, 0
1, 408683, Note_on_c, 0, 77, 0
1, 408720, Note_on_c, 0, 63, 80
1, 408720, Note_on_c, 0, 75, 80
1, 409403, Note_on_c, 0, 63, 0
1, 409403, Note_on_c, 0, 75, 0
1, 409440, Note_on_c, 0, 65, 80
1, 409440, Note_on_c, 0, 77, 80
1, 410123, Note_on_c, 0, 65, 0
1, 410123, Note_on_c, 0, 77, 0
1, 410160, Note_on_c, 0, 60, 80
1, 410160, Note_on_c, 0, 72, 80
1, 410387, Note_on_c, 0, 60, 0
1, 410387, Note_on_c, 0, 72, 0
1, 410400, Note_on_c, 0, 63, 80
1, 410400, Note_on_c, 0, 75, 80
1, 410627, Note_on_c, 0, 63, 0
1, 410627, Note_on_c, 0, 75, 0
1, 410640, Note_on_c, 0, 65, 80
1, 410640, Note_on_c, 0, 77, 80
1, 410867, Note_on_c, 0, 65, 0
1, 410867, Note_on_c, 0, 77, 0
1, 410880, Note_on_c, 0, 68, 80
1, 410880, Note_on_c, 0, 80, 80
1, 411335, Note_on_c, 0, 68, 0
1, 411335, Note_on_c, 0, 80, 0
1, 411360, Note_on_c, 0, 67, 80
1, 411360, Note_on_c, 0, 79, 80
1, 411815, Note_on_c, 0, 67, 0
1, 411815, Note_on_c, 0, 79, 0
1, 411840, Note_on_c, 0, 63, 80
1, 411840, Note_on_c, 0, 75, 80
1, 412295, Note_on_c, 0, 63, 0
1, 412295, Note_on_c, 0, 75, 0
1, 412320, Note_on_c, 0, 65, 80
1, 412320, Note_on_c, 0, 77, 80
1, 413687, Note_on_c, 0, 65, 0
1, 413687, Note_on_c, 0, 77, 0
1, 413760, Note_on_c, 0, 65, 80
1, 413760, Note_on_c, 0, 69, 80
1, 413760, Note_on_c, 0, 77, 80
1, 415127, Note_on_c, 0, 65, 0
1, 415127, Note_on_c, 0, 69, 0
1, 415127, Note_on_c, 0, 77, 0
1, 415200, Note_on_c, 0, 65, 80
1, 416567, Note_on_c, 0, 65, 0
1, 416640, Time_signature, 4, 2, 24, 8
1, 416640, Key_signature, -5, "major"
1, 416640, Tempo, 500000
1, 416640, Note_on_c, 0, 65, 80
1, 416753, Note_on_c, 0, 65, 0
1, 416760, Note_on_c, 0, 60, 80
1, 416873, Note_on_c, 0, 60, 0
1, 416880, Note_on_c, 0, 72, 80
1, 416993, Note_on_c, 0, 72, 0
1, 417000, Note_on_c, 0, 67, 80
1, 417113, Note_on_c, 0, 67, 0
1, 417120, Note_on_c, 0, 79, 80
1, 417233, Note_on_c, 0, 79, 0
1, 417240, Note_on_c, 0, 72, 80
1, 417353, Note_on_c, 0, 72, 0
1, 417360, Note_on_c, 0, 75, 80
1, 417473, Note_on_c, 0, 75, 0
1, 417480, Note_on_c, 0, 67, 80
1, 417593, Note_on_c, 0, 67, 0
1, 417600, Note_on_c, 0, 77, 80
1, 417713, Note_on_c, 0, 77, 0
1, 417720, Note_on_c, 0, 70, 80
1, 417833, Note_on_c, 0, 70, 0
1, 417840, Note_on_c, 0, 72, 80
1, 417953, Note_on_c, 0, 72, 0
1, 417960, Note_on_c, 0, 65, 80
1, 418073, Note_on_c, 0, 65, 0
1, 418080, Note_on_c, 0, 68, 80
1, 418193, Note_on_c, 0, 68, 0
1, 418200, Note_on_c, 0, 63, 80
1, 418313, Note_on_c, 0, 63, 0
1, 418320, Note_on_c, 0, 72, 80
1, 418433, Note_on_c, 0, 72, 0
1, 418440, Note_on_c, 0, 68, 80
1, 418553, Note_on_c, 0, 68, 0
1, 418560, Note_on_c, 0, 65, 80
1, 418673, Note_on_c, 0, 65, 0
1, 418680, Note_on_c, 0, 60, 80
1, 418793, Note_on_c, 0, 60, 0
1, 418800, Note_on_c, 0, 68, 80
1, 418913, Note_on_c, 0, 68, 0
1, 418920, Note_on_c, 0, 65, 80
1, 419033, Note_on_c, 0, 65, 0
1, 419040, Note_on_c, 0, 79, 80
1, 419153, Note_on_c, 0, 79, 0
1, 419160, Note_on_c, 0, 72, 80
1, 419273, Note_on_c, 0, 72, 0
1, 419280, Note_on_c, 0, 80, 80
1, 419393, Note_on_c, 0, 80, 0
1, 419400, Note_on_c, 0, 73, 80
1, 419513, Note_on_c, 0, 73, 0
1, 419520, Note_on_c, 0, 82, 80
1, 419633, Note_on_c, 0, 82, 0
1, 419640, Note_on_c, 0, 75, 80
1, 419753, Note_on_c, 0, 75, 0
1, 419760, Note_on_c, 0, 80, 80
1, 419873, Note_on_c, 0, 80, 0
1, 419880, Note_on_c, 0, 73, 80
1, 419993, Note_on_c, 0, 73, 0
1, 420000, Note_on_c, 0, 79, 80
1, 420113, Note_on_c, 0, 79, 0
1, 420120, Note_on_c, 0, 72, 80
1, 420233, Note_on_c, 0, 72, 0
1, 420240, Note_on_c, 0, 75, 80
1, 420353, Note_on_c, 0, 75, 0
1, 420360, Note_on_c, 0, 68, 80
1, 420473, Note_on_c, 0, 68, 0
1, 420480, Note_on_c, 0, 65, 80
1, 420593, Note_on_c, 0, 65, 0
1, 420600, Note_on_c, 0, 60, 81
1, 420713, Note_on_c, 0, 60, 0
1, 420720, Note_on_c, 0, 72, 82
1, 420833, Note_on_c, 0, 72, 0
1, 420840, Note_on_c, 0, 67, 83
1, 420953, Note_on_c, 0, 67, 0
1, 420960, Note_on_c, 0, 79, 84
1, 421073, Note_on_c, 0, 79, 0
1, 421080, Note_on_c, 0, 72, 85
1, 421193, Note_on_c, 0, 72, 0
1, 421200, Note_on_c, 0, 75, 86
1, 421313, Note_on_c, 0, 75, 0
1, 421320, Note_on_c, 0, 67, 87
1, 421433, Note_on_c, 0, 67, 0
1, 421440, Note_on_c, 0, 77, 88
1, 421553, Note_on_c, 0, 77, 0
1, 421560, Note_on_c, 0, 70, 89
1, 421673, Note_on_c, 0, 70, 0
1, 421680, Note_on_c, 0, 72, 90
1, 421793, Note_on_c, 0, 72, 0
1, 421800, Note_on_c, 0, 65, 91
1, 421913, Note_on_c, 0, 65, 0
1, 421920, Note_on_c, 0, 68, 92
1, 422033, Note_on_c, 0, 68, 0
1, 422040, Note_on_c, 0, 63, 93
1, 422153, Note_on_c, 0, 63, 0
1, 422160, Note_on_c, 0, 72, 94
1, 422273, Note_on_c, 0, 72, 0
1, 422280, Note_on_c, 0, 68, 95
1, 422393, Note_on_c, 0, 68, 0
1, 422400, Note_on_c, 0, 65, 96
1, 422513, Note_on_c, 0, 65, 0
1, 422520, Note_on_c, 0, 60, 97
1, 422633, Note_on_c, 0, 60, 0
1, 422640, Note_on_c, 0, 68, 98
1, 422753, Note_on_c, 0, 68, 0
1, 422760, Note_on_c, 0, 65, 99
1, 422873, Note_on_c, 0, 65, 0
1, 422880, Note_on_c, 0, 79, 100
1, 422993, Note_on_c, 0, 79, 0
1, 423000, Note_on_c, 0, 72, 101
1, 423113, Note_on_c, 0, 72, 0
1, 423120, Note_on_c, 0, 80, 102
1, 423233, Note_on_c, 0, 80, 0
1, 423240, Note_on_c, 0, 73, 103
1, 423353, Note_on_c, 0, 73, 0
1, 423360, Note_on_c, 0, 82, 104
1, 423473, Note_on_c, 0, 82, 0
1, 423480, Note_on_c, 0, 75, 105
1, 423593, Note_on_c, 0, 75, 0
1, 423600, Note_on_c, 0, 80, 106
1, 423713, Note_on_c, 0, 80, 0
1, 423720, Note_on_c, 0, 73, 107
1, 423833, Note_on_c, 0, 73, 0
1, 423840, Note_on_c, 0, 79, 108
1, 423953, Note_on_c, 0, 79, 0
1, 423960, Note_on_c, 0, 72, 109
1, 424073, Note_on_c, 0, 72, 0
1, 424080, Note_on_c, 0, 75, 110
1, 424193, Note_on_c, 0, 75, 0
1, 424200, Note_on_c, 0, 68, 111
1, 424313, Note_on_c, 0, 68, 0
1, 424320, Note_on_c, 0, 66, 80
1, 424433, Note_on_c, 0, 66, 0
1, 424440, Note_on_c, 0, 63, 80
1, 424553, Note_on_c, 0, 63, 0
1, 424560, Note_on_c, 0, 70, 80
1, 424673, Note_on_c, 0, 70, 0
1, 424680, Note_on_c, 0, 66, 80
1, 424793, Note_on_c, 0, 66, 0
1, 424800, Note_on_c, 0, 80, 80
1, 424913, Note_on_c, 0, 80, 0
1, 424920, Note_on_c, 0, 73, 80
1, 425033, Note_on_c, 0, 73, 0
1, 425040, Note_on_c, 0, 78, 80
1, 425153, Note_on_c, 0, 78, 0
1, 425160, Note_on_c, 0, 70, 80
1, 425273, Note_on_c, 0, 70, 0
1, 425280, Note_on_c, 0, 77, 80
1, 425393, Note_on_c, 0, 77, 0
1, 425400, Note_on_c, 0, 66, 80
1, 425513, Note_on_c, 0, 66, 0
1, 425520, Note_on_c, 0, 73, 80
1, 425633, Note_on_c, 0, 73, 0
1, 425640, Note_on_c, 0, 68, 80
1, 425753, Note_on_c, 0, 68, 0
1, 425760, Note_on_c, 0, 70, 80
1, 425873, Note_on_c, 0, 70, 0
1, 425880, Note_on_c, 0, 63, 80
1, 425993, Note_on_c, 0, 63, 0
1, 426000, Note_on_c, 0, 73, 80
1, 426113, Note_on_c, 0, 73, 0
1, 426120, Note_on_c, 0, 68, 80
1, 426233, Note_on_c, 0, 68, 0
1, 426240, Note_on_c, 0, 66, 80
1, 426353, Note_on_c, 0, 66, 0
1, 426360, Note_on_c, 0, 63, 80
1, 426473, Note_on_c, 0, 63, 0
1, 426480, Note_on_c, 0, 73, 80
1, 426593, Note_on_c, 0, 73, 0
1, 426600, Note_on_c, 0, 66, 80
1, 426713, Note_on_c, 0, 66, 0
1, 426720, Note_on_c, 0, 75, 80
1, 426833, Note_on_c, 0, 75, 0
1, 426840, Note_on_c, 0, 68, 80
1, 426953, Note_on_c, 0, 68, 0
1, 426960, Note_on_c, 0, 73, 80
1, 427073, Note_on_c, 0, 73, 0
1, 427080, Note_on_c, 0, 66, 80
1, 427193, Note_on_c, 0, 66, 0
1, 427200, Note_on_c, 0, 72, 80
1, 427313, Note_on_c, 0, 72, 0
1, 427320, Note_on_c, 0, 63, 80
1, 427433, Note_on_c, 0, 63, 0
1, 427440, Note_on_c, 0, 68, 80
1, 427553, Note_on_c, 0, 68, 0
1, 427560, Note_on_c, 0, 61, 80
1, 427673, Note_on_c, 0, 61, 0
1, 427680, Note_on_c, 0, 65, 80
1, 427793, Note_on_c, 0, 65, 0
1, 427800, Note_on_c, 0, 63, 80
1, 427913, Note_on_c, 0, 63, 0
1, 427920, Note_on_c, 0, 68, 80
1, 428033, Note_on_c, 0, 68, 0
1, 428040, Note_on_c, 0, 61, 80
1, 428153, Note_on_c, 0, 61, 0
1, 428160, Note_on_c, 0, 66, 80
1, 428273, Note_on_c, 0, 66, 0
1, 428280, Note_on_c, 0, 63, 80
1, 428393, Note_on_c, 0, 63, 0
1, 428400, Note_on_c, 0, 70, 80
1, 428513, Note_on_c, 0, 70, 0
1, 428520, Note_on_c, 0, 66, 80
1, 428633, Note_on_c, 0, 66, 0
1, 428640, Note_on_c, 0, 80, 80
1, 428753, Note_on_c, 0, 80, 0
1, 428760, Note_on_c, 0, 73, 80
1, 428873, Note_on_c, 0, 73, 0
1, 428880, Note_on_c, 0, 78, 80
1, 428993, Note_on_c, 0, 78, 0
1, 429000, Note_on_c, 0, 70, 80
1, 429113, Note_on_c, 0, 70, 0
1, 429120, Note_on_c, 0, 77, 80
1, 429233, Note_on_c, 0, 77, 0
1, 429240, Note_on_c, 0, 66, 80
1, 429353, Note_on_c, 0, 66, 0
1, 429360, Note_on_c, 0, 73, 80
1, 429473, Note_on_c, 0, 73, 0
1, 429480, Note_on_c, 0, 68, 80
1, 429593, Note_on_c, 0, 68, 0
1, 429600, Note_on_c, 0, 70, 80
1, 429713, Note_on_c, 0, 70, 0
1, 429720, Note_on_c, 0, 63, 80
1, 429833, Note_on_c, 0, 63, 0
1, 429840, Note_on_c, 0, 73, 80
1, 429953, Note_on_c, 0, 73, 0
1, 429960, Note_on_c, 0, 68, 80
1, 430073, Note_on_c, 0, 68, 0
1, 430080, Note_on_c, 0, 66, 80
1, 430193, Note_on_c, 0, 66, 0
1, 430200, Note_on_c, 0, 63, 80
1, 430313, Note_on_c, 0, 63, 0
1, 430320, Note_on_c, 0, 73, 80
1, 430433, Note_on_c, 0, 73, 0
1, 430440, Note_on_c, 0, 66, 80
1, 430553, Note_on_c, 0, 66, 0
1, 430560, Note_on_c, 0, 75, 80
1, 430673, Note_on_c, 0, 75, 0
1, 430680, Note_on_c, 0, 68, 80
1, 430793, Note_on_c, 0, 68, 0
1, 430800, Note_on_c, 0, 73, 80
1, 430913, Note_on_c, 0, 73, 0
1, 430920, Note_on_c, 0, 66, 80
1, 431033, Note_on_c, 0, 66, 0
1, 431040, Note_on_c, 0, 72, 80
1, 431153, Note_on_c, 0, 72, 0
1, 431160, Note_on_c, 0, 63, 80
1, 431273, Note_on_c, 0, 63, 0
1, 431280, Note_on_c, 0, 68, 80
1, 431393, Note_on_c, 0, 68, 0
1, 431400, Note_on_c, 0, 61, 80
1, 431513, Note_on_c, 0, 61, 0
1, 431520, Note_on_c, 0, 65, 80
1, 431633, Note_on_c, 0, 65, 0
1, 431640, Note_on_c, 0, 60, 80
1, 431753, Note_on_c, 0, 60, 0
1, 431760, Note_on_c, 0, 68, 80
1, 431873, Note_on_c, 0, 68, 0
1, 431880, Note_on_c, 0, 61, 80
1, 431993, Note_on_c, 0, 61, 0
1, 432000, Note_on_c, 0, 65, 80
1, 432113, Note_on_c, 0, 65, 0
1, 432120, Note_on_c, 0, 60, 80
1, 432233, Note_on_c, 0, 60, 0
1, 432240, Note_on_c, 0, 72, 80
1, 432353, Note_on_c, 0, 72, 0
1, 432360, Note_on_c, 0, 67, 80
1, 432473, Note_on_c, 0, 67, 0
1, 432480, Note_on_c, 0, 79, 80
1, 432593, Note_on_c, 0, 79, 0
1, 432600, Note_on_c, 0, 72, 80
1, 432713, Note_on_c, 0, 72, 0
1, 432720, Note_on_c, 0, 75, 80
1, 432833, Note_on_c, 0, 75, 0
1, 432840, Note_on_c, 0, 67, 80
1, 432953, Note_on_c, 0, 67, 0
1, 432960, Note_on_c, 0, 77, 80
1, 433073, Note_on_c, 0, 77, 0
1, 433080, Note_on_c, 0, 70, 80
1, 433193, Note_on_c, 0, 70, 0
1, 433200, Note_on_c, 0, 72, 80
1, 433313, Note_on_c, 0, 72, 0
1, 433320, Note_on_c, 0, 65, 80
1, 433433, Note_on_c, 0, 65, 0
1, 433440, Note_on_c, 0, 68, 80
1, 433553, Note_on_c, 0, 68, 0
1, 433560, Note_on_c, 0, 63, 80
1, 433673, Note_on_c, 0, 63, 0
1, 433680, Note_on_c, 0, 72, 80
1, 433793, Note_on_c, 0, 72, 0
1, 433800, Note_on_c, 0, 68, 80
1, 433913, Note_on_c, 0, 68, 0
1, 433920, Note_on_c, 0, 65, 80
1, 434033, Note_on_c, 0, 65, 0
1, 434040, Note_on_c, 0, 60, 80
1, 434153, Note_on_c, 0, 60, 0
1, 434160, Note_on_c, 0, 68, 80
1, 434273, Note_on_c, 0, 68, 0
1, 434280, Note_on_c, 0, 65, 80
1, 434393, Note_on_c, 0, 65, 0
1, 434400, Note_on_c, 0, 79, 80
1, 434513, Note_on_c, 0, 79, 0
1, 434520, Note_on_c, 0, 72, 80
1, 434633, Note_on_c, 0, 72, 0
1, 434640, Note_on_c, 0, 80, 80
1, 434753, Note_on_c, 0, 80, 0
1, 434760, Note_on_c, 0, 73, 80
1, 434873, Note_on_c, 0, 73, 0
1, 434880, Note_on_c, 0, 82, 80
1, 434993, Note_on_c, 0, 82, 0
1, 435000, Note_on_c, 0, 75, 80
1, 435113, Note_on_c, 0, 75, 0
1, 435120, Note_on_c, 0, 80, 80
1, 435233, Note_on_c, 0, 80, 0
1, 435240, Note_on_c, 0, 73, 80
1, 435353, Note_on_c, 0, 73, 0
1, 435360, Note_on_c, 0, 79, 80
1, 435473, Note_on_c, 0, 79, 0
1, 435480, Note_on_c, 0, 72, 80
1, 435593, Note_on_c, 0, 72, 0
1, 435600, Note_on_c, 0, 75, 80
1, 435713, Note_on_c, 0, 75, 0
1, 435720, Note_on_c, 0, 68, 80
1, 435833, Note_on_c, 0, 68, 0
1, 435840, Note_on_c, 0, 65, 80
1, 435953, Note_on_c, 0, 65, 0
1, 435960, Note_on_c, 0, 60, 80
1, 436073, Note_on_c, 0, 60, 0
1, 436080, Note_on_c, 0, 72, 80
1, 436193, Note_on_c, 0, 72, 0
1, 436200, Note_on_c, 0, 67, 80
1, 436313, Note_on_c, 0, 67, 0
1, 436320, Note_on_c, 0, 79, 80
1, 436433, Note_on_c, 0, 79, 0
1, 436440, Note_on_c, 0, 72, 80
1, 436553, Note_on_c, 0, 72, 0
1, 436560, Note_on_c, 0, 75, 80
1, 436673, Note_on_c, 0, 75, 0
1, 436680, Note_on_c, 0, 67, 80
1, 436793, Note_on_c, 0, 67, 0
1, 436800, Note_on_c, 0, 77, 80
1, 436913, Note_on_c, 0, 77, 0
1, 436920, Note_on_c, 0, 70, 80
1, 437033, Note_on_c, 0, 70, 0
1, 437040, Note_on_c, 0, 72, 80
1, 437153, Note_on_c, 0, 72, 0
1, 437160, Note_on_c, 0, 65, 80
1, 437273, Note_on_c, 0, 65, 0
1, 437280, Note_on_c, 0, 68, 80
1, 437393, Note_on_c, 0, 68, 0
1, 437400, Note_on_c, 0, 63, 80
1, 437513, Note_on_c, 0, 63, 0
1, 437520, Note_on_c, 0, 72, 80
1, 437633, Note_on_c, 0, 72, 0
1, 437640, Note_on_c, 0, 68, 80
1, 437753, Note_on_c, 0, 68, 0
1, 437760, Note_on_c, 0, 65, 80
1, 437873, Note_on_c, 0, 65, 0
1, 437880, Note_on_c, 0, 60, 80
1, 437993, Note_on_c, 0, 60, 0
1, 438000, Note_on_c, 0, 68, 80
1, 438113, Note_on_c, 0, 68, 0
1, 438120, Note_on_c, 0, 65, 80
1, 438233, Note_on_c, 0, 65, 0
1, 438240, Note_on_c, 0, 79, 80
1, 438353, Note_on_c, 0, 79, 0
1, 438360, Note_on_c, 0, 72, 80
1, 438473, Note_on_c, 0, 72, 0
1, 438480, Note_on_c, 0, 80, 80
1, 438593, Note_on_c, 0, 80, 0
1, 438600, Note_on_c, 0, 73, 80
1, 438713, Note_on_c, 0, 73, 0
1, 438720, Note_on_c, 0, 82, 80
1, 438833, Note_on_c, 0, 82, 0
1, 438840, Note_on_c, 0, 75, 80
1, 438953, Note_on_c, 0, 75, 0
1, 438960, Note_on_c, 0, 80, 80
1, 439073, Note_on_c, 0, 80, 0
1, 439080, Note_on_c, 0, 73, 80
1, 439193, Note_on_c, 0, 73, 0
1, 439200, Note_on_c, 0, 79, 80
1, 439313, Note_on_c, 0, 79, 0
1, 439320, Note_on_c, 0, 72, 80
1, 439433, Note_on_c, 0, 72, 0
1, 439440, Note_on_c, 0, 75, 80
1, 439553, Note_on_c, 0, 75, 0
1, 439560, Note_on_c, 0, 68, 80
1, 439673, Note_on_c, 0, 68, 0
1, 439680, Note_on_c, 0, 70, 110
1, 439800, Note_on_c, 0, 63, 80
1, 439913, Note_on_c, 0, 63, 0
1, 439920, Note_on_c, 0, 70, 80
1, 440033, Note_on_c, 0, 70, 0
1, 440040, Note_on_c, 0, 66, 80
1, 440153, Note_on_c, 0, 66, 0
1, 440160, Note_on_c, 0, 80, 80
1, 440273, Note_on_c, 0, 80, 0
1, 440280, Note_on_c, 0, 73, 80
1, 440393, Note_on_c, 0, 73, 0
1, 440400, Note_on_c, 0, 78, 80
1, 440513, Note_on_c, 0, 78, 0
1, 440520, Note_on_c, 0, 70, 80
1, 440633, Note_on_c, 0, 70, 0
1, 440640, Note_on_c, 0, 77, 80
1, 440753, Note_on_c, 0, 77, 0
1, 440760, Note_on_c, 0, 66, 80
1, 440873, Note_on_c, 0, 66, 0
1, 440880, Note_on_c, 0, 73, 80
1, 440993, Note_on_c, 0, 73, 0
1, 441000, Note_on_c, 0, 68, 80
1, 441113, Note_on_c, 0, 68, 0
1, 441120, Note_on_c, 0, 70, 80
1, 441233, Note_on_c, 0, 70, 0
1, 441240, Note_on_c, 0, 63, 80
1, 441353, Note_on_c, 0, 63, 0
1, 441360, Note_on_c, 0, 73, 80
1, 441473, Note_on_c, 0, 73, 0
1, 441480, Note_on_c, 0, 68, 80
1, 441593, Note_on_c, 0, 68, 0
1, 441599, Note_on_c, 0, 70, 0
1, 441600, Note_on_c, 0, 66, 80
1, 441713, Note_on_c, 0, 66, 0
1, 441720, Note_on_c, 0, 63, 80
1, 441833, Note_on_c, 0, 63, 0
1, 441840, Note_on_c, 0, 73, 80
1, 441953, Note_on_c, 0, 73, 0
1, 441960, Note_on_c, 0, 66, 80
1, 442073, Note_on_c, 0, 66, 0
1, 442080, Note_on_c, 0, 72, 110
1, 442200, Note_on_c, 0, 68, 80
1, 442313, Note_on_c, 0, 68, 0
1, 442320, Note_on_c, 0, 73, 80
1, 442433, Note_on_c, 0, 73, 0
1, 442440, Note_on_c, 0, 66, 80
1, 442553, Note_on_c, 0, 66, 0
1, 442559, Note_on_c, 0, 72, 0
1, 442560, Note_on_c, 0, 73, 110
1, 442680, Note_on_c, 0, 63, 80
1, 442793, Note_on_c, 0, 63, 0
1, 442800, Note_on_c, 0, 68, 80
1, 442913, Note_on_c, 0, 68, 0
1, 442920, Note_on_c, 0, 61, 80
1, 443033, Note_on_c, 0, 61, 0
1, 443039, Note_on_c, 0, 73, 0
1, 443040, Note_on_c, 0, 75, 110
1, 443160, Note_on_c, 0, 63, 80
1, 443273, Note_on_c, 0, 63, 0
1, 443280, Note_on_c, 0, 68, 80
1, 443393, Note_on_c, 0, 68, 0
1, 443400, Note_on_c, 0, 61, 80
1, 443513, Note_on_c, 0, 61, 0
1, 443519, Note_on_c, 0, 75, 0
1, 443520, Note_on_c, 0, 77, 110
1, 443640, Note_on_c, 0, 63, 80
1, 443753, Note_on_c, 0, 63, 0
1, 443760, Note_on_c, 0, 70, 80
1, 443873, Note_on_c, 0, 70, 0
1, 443880, Note_on_c, 0, 66, 80
1, 443993, Note_on_c, 0, 66, 0
1, 444000, Note_on_c, 0, 80, 80
1, 444113, Note_on_c, 0, 80, 0
1, 444120, Note_on_c, 0, 73, 80
1, 444233, Note_on_c, 0, 73, 0
1, 444240, Note_on_c, 0, 78, 80
1, 444353, Note_on_c, 0, 78, 0
1, 444360, Note_on_c, 0, 70, 80
1, 444473, Note_on_c, 0, 70, 0
1, 444480, Note_on_c, 0, 77, 80
1, 444593, Note_on_c, 0, 77, 0
1, 444600, Note_on_c, 0, 66, 80
1, 444713, Note_on_c, 0, 66, 0
1, 444720, Note_on_c, 0, 73, 80
1, 444833, Note_on_c, 0, 73, 0
1, 444840, Note_on_c, 0, 68, 80
1, 444953, Note_on_c, 0, 68, 0
1, 444960, Note_on_c, 0, 70, 80
1, 445073, Note_on_c, 0, 70, 0
1, 445080, Note_on_c, 0, 63, 80
1, 445193, Note_on_c, 0, 63, 0
1, 445200, Note_on_c, 0, 73, 80
1, 445313, Note_on_c, 0, 73, 0
1, 445320, Note_on_c, 0, 68, 80
1, 445433, Note_on_c, 0, 68, 0
1, 445439, Note_on_c, 0, 77, 0
1, 445440, Note_on_c, 0, 75, 110
1, 445560, Note_on_c, 0, 63, 80
1, 445673, Note_on_c, 0, 63, 0
1, 445680, Note_on_c, 0, 73, 80
1, 445793, Note_on_c, 0, 73, 0
1, 445800, Note_on_c, 0, 66, 80
1, 445913, Note_on_c, 0, 66, 0
1, 445920, Note_on_c, 0, 75, 80
1, 446033, Note_on_c, 0, 75, 0
1, 446040, Note_on_c, 0, 68, 80
1, 446153, Note_on_c, 0, 68, 0
1, 446160, Note_on_c, 0, 73, 80
1, 446273, Note_on_c, 0, 73, 0
1, 446280, Note_on_c, 0, 66, 80
1, 446393, Note_on_c, 0, 66, 0
1, 446399, Note_on_c, 0, 75, 0
1, 446400, Note_on_c, 0, 73, 110
1, 446520, Note_on_c, 0, 63, 80
1, 446633, Note_on_c, 0, 63, 0
1, 446640, Note_on_c, 0, 68, 80
1, 446753, Note_on_c, 0, 68, 0
1, 446760, Note_on_c, 0, 61, 80
1, 446873, Note_on_c, 0, 61, 0
1, 446880, Note_on_c, 0, 65, 80
1, 446993, Note_on_c, 0, 65, 0
1, 447000, Note_on_c, 0, 60, 80
1, 447113, Note_on_c, 0, 60, 0
1, 447120, Note_on_c, 0, 68, 80
1, 447233, Note_on_c, 0, 68, 0
1, 447240, Note_on_c, 0, 61, 80
1, 447353, Note_on_c, 0, 61, 0
1, 447359, Note_on_c, 0, 73, 0
1, 447360, Note_on_c, 0, 72, 110
1, 447480, Note_on_c, 0, 60, 80
1, 447593, Note_on_c, 0, 60, 0
1, 447600, Note_on_c, 0, 72, 80
1, 447713, Note_on_c, 0, 72, 0
1, 447720, Note_on_c, 0, 67, 80
1, 447833, Note_on_c, 0, 67, 0
1, 447840, Note_on_c, 0, 79, 80
1, 447953, Note_on_c, 0, 79, 0
1, 447960, Note_on_c, 0, 72, 80
1, 448073, Note_on_c, 0, 72, 0
1, 448080, Note_on_c, 0, 75, 80
1, 448193, Note_on_c, 0, 75, 0
1, 448200, Note_on_c, 0, 67, 80
1, 448313, Note_on_c, 0, 67, 0
1, 448320, Note_on_c, 0, 77, 80
1, 448433, Note_on_c, 0, 77, 0
1, 448440, Note_on_c, 0, 70, 80
1, 448553, Note_on_c, 0, 70, 0
1, 448560, Note_on_c, 0, 72, 80
1, 448673, Note_on_c, 0, 72, 0
1, 448680, Note_on_c, 0, 65, 80
1, 448793, Note_on_c, 0, 65, 0
1, 448800, Note_on_c, 0, 68, 80
1, 448913, Note_on_c, 0, 68, 0
1, 448920, Note_on_c, 0, 63, 80
1, 449033, Note_on_c, 0, 63, 0
1, 449040, Note_on_c, 0, 72, 80
1, 449153, Note_on_c, 0, 72, 0
1, 449160, Note_on_c, 0, 68, 80
1, 449273, Note_on_c, 0, 68, 0
1, 449279, Note_on_c, 0, 72, 0
1, 449280, Note_on_c, 0, 65, 80
1, 449393, Note_on_c, 0, 65, 0
1, 449400, Note_on_c, 0, 60, 80
1, 449513, Note_on_c, 0, 60, 0
1, 449520, Note_on_c, 0, 68, 80
1, 449633, Note_on_c, 0, 68, 0
1, 449640, Note_on_c, 0, 65, 80
1, 449753, Note_on_c, 0, 65, 0
1, 449760, Note_on_c, 0, 79, 80
1, 449873, Note_on_c, 0, 79, 0
1, 449880, Note_on_c, 0, 72, 80
1, 449993, Note_on_c, 0, 72, 0
1, 450000, Note_on_c, 0, 80, 80
1, 450113, Note_on_c, 0, 80, 0
1, 450120, Note_on_c, 0, 73, 80
1, 450233, Note_on_c, 0, 73, 0
1, 450240, Note_on_c, 0, 82, 80
1, 450353, Note_on_c, 0, 82, 0
1, 450360, Note_on_c, 0, 75, 80
1, 450473, Note_on_c, 0, 75, 0
1, 450480, Note_on_c, 0, 80, 80
1, 450593, Note_on_c, 0, 80, 0
1, 450600, Note_on_c, 0, 73, 80
1, 450713, Note_on_c, 0, 73, 0
1, 450720, Note_on_c, 0, 70, 110
1, 450840, Note_on_c, 0, 72, 80
1, 450953, Note_on_c, 0, 72, 0
1, 450960, Note_on_c, 0, 75, 80
1, 451073, Note_on_c, 0, 75, 0
1, 451080, Note_on_c, 0, 68, 80
1, 451193, Note_on_c, 0, 68, 0
1, 451199, Note_on_c, 0, 70, 0
1, 451200, Note_on_c, 0, 72, 110
1, 451320, Note_on_c, 0, 60, 80
1, 451433, Note_on_c, 0, 60, 0
1, 451440, Note_on_c, 0, 72, 80
1, 451553, Note_on_c, 0, 72, 0
1, 451560, Note_on_c, 0, 67, 80
1, 451673, Note_on_c, 0, 67, 0
1, 451680, Note_on_c, 0, 79, 80
1, 451793, Note_on_c, 0, 79, 0
1, 451800, Note_on_c, 0, 72, 80
1, 451913, Note_on_c, 0, 72, 0
1, 451920, Note_on_c, 0, 75, 80
1, 452033, Note_on_c, 0, 75, 0
1, 452040, Note_on_c, 0, 67, 80
1, 452153, Note_on_c, 0, 67, 0
1, 452160, Note_on_c, 0, 77, 80
1, 452273, Note_on_c, 0, 77, 0
1, 452280, Note_on_c, 0, 70, 80
1, 452393, Note_on_c, 0, 70, 0
1, 452400, Note_on_c, 0, 72, 80
1, 452513, Note_on_c, 0, 72, 0
1, 452520, Note_on_c, 0, 65, 80
1, 452633, Note_on_c, 0, 65, 0
1, 452640, Note_on_c, 0, 68, 80
1, 452753, Note_on_c, 0, 68, 0
1, 452760, Note_on_c, 0, 63, 80
1, 452873, Note_on_c, 0, 63, 0
1, 452880, Note_on_c, 0, 72, 80
1, 452993, Note_on_c, 0, 72, 0
1, 453000, Note_on_c, 0, 68, 80
1, 453113, Note_on_c, 0, 68, 0
1, 453119, Note_on_c, 0, 72, 0
1, 453120, Note_on_c, 0, 65, 80
1, 453233, Note_on_c, 0, 65, 0
1, 453240, Note_on_c, 0, 60, 80
1, 453353, Note_on_c, 0, 60, 0
1, 453360, Note_on_c, 0, 68, 80
1, 453473, Note_on_c, 0, 68, 0
1, 453480, Note_on_c, 0, 65, 80
1, 453593, Note_on_c, 0, 65, 0
1, 453600, Note_on_c, 0, 79, 80
1, 453713, Note_on_c, 0, 79, 0
1, 453720, Note_on_c, 0, 72, 80
1, 453833, Note_on_c, 0, 72, 0
1, 453840, Note_on_c, 0, 80, 80
1, 453953, Note_on_c, 0, 80, 0
1, 453960, Note_on_c, 0, 73, 80
1, 454073, Note_on_c, 0, 73, 0
1, 454080, Note_on_c, 0, 82, 80
1, 454193, Note_on_c, 0, 82, 0
1, 454200, Note_on_c, 0, 75, 80
1, 454313, Note_on_c, 0, 75, 0
1, 454320, Note_on_c, 0, 80, 80
1, 454433, Note_on_c, 0, 80, 0
1, 454440, Note_on_c, 0, 73, 80
1, 454553, Note_on_c, 0, 73, 0
1, 454560, Note_on_c, 0, 79, 80
1, 454673, Note_on_c, 0, 79, 0
1, 454680, Note_on_c, 0, 72, 80
1, 454793, Note_on_c, 0, 72, 0
1, 454800, Note_on_c, 0, 75, 80
1, 454913, Note_on_c, 0, 75, 0
1, 454920, Note_on_c, 0, 68, 80
1, 455033, Note_on_c, 0, 68, 0
1, 455040, Note_on_c, 0, 66, 80
1, 455153, Note_on_c, 0, 66, 0
1, 455160, Note_on_c, 0, 63, 80
1, 455273, Note_on_c, 0, 63, 0
1, 455280, Note_on_c, 0, 70, 80
1, 455393, Note_on_c, 0, 70, 0
1, 455400, Note_on_c, 0, 66, 80
1, 455513, Note_on_c, 0, 66, 0
1, 455520, Note_on_c, 0, 80, 80
1, 455633, Note_on_c, 0, 80, 0
1, 455640, Note_on_c, 0, 73, 80
1, 455753, Note_on_c, 0, 73, 0
1, 455760, Note_on_c, 0, 78, 80
1, 455873, Note_on_c, 0, 78, 0
1, 455880, Note_on_c, 0, 70, 80
1, 455993, Note_on_c, 0, 70, 0
1, 456000, Note_on_c, 0, 77, 80
1, 456113, Note_on_c, 0, 77, 0
1, 456120, Note_on_c, 0, 66, 80
1, 456233, Note_on_c, 0, 66, 0
1, 456240, Note_on_c, 0, 73, 80
1, 456353, Note_on_c, 0, 73, 0
1, 456360, Note_on_c, 0, 68, 80
1, 456473, Note_on_c, 0, 68, 0
1, 456480, Note_on_c, 0, 70, 80
1, 456593, Note_on_c, 0, 70, 0
1, 456600, Note_on_c, 0, 63, 80
1, 456713, Note_on_c, 0, 63, 0
1, 456720, Note_on_c, 0, 73, 80
1, 456833, Note_on_c, 0, 73, 0
1, 456840, Note_on_c, 0, 68, 80
1, 456953, Note_on_c, 0, 68, 0
1, 456960, Note_on_c, 0, 66, 80
1, 457073, Note_on_c, 0, 66, 0
1, 457080, Note_on_c, 0, 63, 80
1, 457193, Note_on_c, 0, 63, 0
1, 457200, Note_on_c, 0, 73, 80
1, 457313, Note_on_c, 0, 73, 0
1, 457320, Note_on_c, 0, 66, 80
1, 457433, Note_on_c, 0, 66, 0
1, 457440, Note_on_c, 0, 75, 80
1, 457553, Note_on_c, 0, 75, 0
1, 457560, Note_on_c, 0, 68, 80
1, 457673, Note_on_c, 0, 68, 0
1, 457680, Note_on_c, 0, 73, 80
1, 457793, Note_on_c, 0, 73, 0
1, 457800, Note_on_c, 0, 66, 80
1, 457913, Note_on_c, 0, 66, 0
1, 457920, Note_on_c, 0, 72, 80
1, 458033, Note_on_c, 0, 72, 0
1, 458040, Note_on_c, 0, 63, 80
1, 458153, Note_on_c, 0, 63, 0
1, 458160, Note_on_c, 0, 68, 80
1, 458273, Note_on_c, 0, 68, 0
1, 458280, Note_on_c, 0, 61, 80
1, 458393, Note_on_c, 0, 61, 0
1, 458400, Note_on_c, 0, 65, 80
1, 458513, Note_on_c, 0, 65, 0
1, 458520, Note_on_c, 0, 63, 80
1, 458633, Note_on_c, 0, 63, 0
1, 458640, Note_on_c, 0, 68, 80
1, 458753, Note_on_c, 0, 68, 0
1, 458760, Note_on_c, 0, 61, 80
1, 458873, Note_on_c, 0, 61, 0
1, 458880, Note_on_c, 0, 66, 80
1, 458993, Note_on_c, 0, 66, 0
1, 459000, Note_on_c, 0, 63, 80
1, 459113, Note_on_c, 0, 63, 0
1, 459120, Note_on_c, 0, 70, 80
1, 459233, Note_on_c, 0, 70, 0
1, 459240, Note_on_c, 0, 66, 80
1, 459353, Note_on_c, 0, 66, 0
1, 459360, Note_on_c, 0, 80, 80
1, 459473, Note_on_c, 0, 80, 0
1, 459480, Note_on_c, 0, 73, 80
1, 459593, Note_on_c, 0, 73, 0
1, 459600, Note_on_c, 0, 78, 80
1, 459713, Note_on_c, 0, 78, 0
1, 459720, Note_on_c, 0, 70, 80
1, 459833, Note_on_c, 0, 70, 0
1, 459840, Note_on_c, 0, 77, 80
1, 459953, Note_on_c, 0, 77, 0
1, 459960, Note_on_c, 0, 66, 80
1, 460073, Note_on_c, 0, 66, 0
1, 460080, Note_on_c, 0, 73, 80
1, 460193, Note_on_c, 0, 73, 0
1, 460200, Note_on_c, 0, 68, 80
1, 460313, Note_on_c, 0, 68, 0
1, 460320, Note_on_c, 0, 70, 80
1, 460433, Note_on_c, 0, 70, 0
1, 460440, Note_on_c, 0, 63, 80
1, 460553, Note_on_c, 0, 63, 0
1, 460560, Note_on_c, 0, 73, 80
1, 460673, Note_on_c, 0, 73, 0
1, 460680, Note_on_c, 0, 68, 80
1, 460793, Note_on_c, 0, 68, 0
1, 460800, Note_on_c, 0, 66, 80
1, 460913, Note_on_c, 0, 66, 0
1, 460920, Note_on_c, 0, 63, 80
1, 461033, Note_on_c, 0, 63, 0
1, 461040, Note_on_c, 0, 73, 80
1, 461153, Note_on_c, 0, 73, 0
1, 461160, Note_on_c, 0, 66, 80
1, 461273, Note_on_c, 0, 66, 0
1, 461280, Note_on_c, 0, 75, 80
1, 461393, Note_on_c, 0, 75, 0
1, 461400, Note_on_c, 0, 68, 80
1, 461513, Note_on_c, 0, 68, 0
1, 461520, Note_on_c, 0, 73, 80
1, 461633, Note_on_c, 0, 73, 0
1, 461640, Note_on_c, 0, 66, 80
1, 461753, Note_on_c, 0, 66, 0
1, 461760, Note_on_c, 0, 73, 110
1, 461880, Note_on_c, 0, 63, 80
1, 461993, Note_on_c, 0, 63, 0
1, 462000, Note_on_c, 0, 68, 80
1, 462113, Note_on_c, 0, 68, 0
1, 462120, Note_on_c, 0, 61, 80
1, 462233, Note_on_c, 0, 61, 0
1, 462239, Note_on_c, 0, 73, 0
1, 462240, Note_on_c, 0, 77, 110
1, 462360, Note_on_c, 0, 60, 80
1, 462473, Note_on_c, 0, 60, 0
1, 462480, Note_on_c, 0, 68, 80
1, 462593, Note_on_c, 0, 68, 0
1, 462600, Note_on_c, 0, 61, 80
1, 462713, Note_on_c, 0, 61, 0
1, 462719, Note_on_c, 0, 77, 0
1, 462720, Note_on_c, 0, 75, 110
1, 462840, Note_on_c, 0, 60, 80
1, 462953, Note_on_c, 0, 60, 0
1, 462960, Note_on_c, 0, 72, 80
1, 463073, Note_on_c, 0, 72, 0
1, 463080, Note_on_c, 0, 67, 80
1, 463193, Note_on_c, 0, 67, 0
1, 463200, Note_on_c, 0, 79, 80
1, 463313, Note_on_c, 0, 79, 0
1, 463320, Note_on_c, 0, 72, 80
1, 463433, Note_on_c, 0, 72, 0
1, 463440, Note_on_c, 0, 75, 80
1, 463553, Note_on_c, 0, 75, 0
1, 463560, Note_on_c, 0, 67, 80
1, 463673, Note_on_c, 0, 67, 0
1, 463680, Note_on_c, 0, 77, 80
1, 463793, Note_on_c, 0, 77, 0
1, 463800, Note_on_c, 0, 70, 80
1, 463913, Note_on_c, 0, 70, 0
1, 463920, Note_on_c, 0, 72, 80
1, 464033, Note_on_c, 0, 72, 0
1, 464040, Note_on_c, 0, 65, 80
1, 464153, Note_on_c, 0, 65, 0
1, 464160, Note_on_c, 0, 68, 80
1, 464273, Note_on_c, 0, 68, 0
1, 464280, Note_on_c, 0, 63, 80
1, 464393, Note_on_c, 0, 63, 0
1, 464400, Note_on_c, 0, 72, 80
1, 464513, Note_on_c, 0, 72, 0
1, 464520, Note_on_c, 0, 68, 80
1, 464633, Note_on_c, 0, 68, 0
1, 464639, Note_on_c, 0, 75, 0
1, 464640, Note_on_c, 0, 65, 80
1, 464753, Note_on_c, 0, 65, 0
1, 464760, Note_on_c, 0, 60, 80
1, 464873, Note_on_c, 0, 60, 0
1, 464880, Note_on_c, 0, 68, 80
1, 464993, Note_on_c, 0, 68, 0
1, 465000, Note_on_c, 0, 65, 80
1, 465113, Note_on_c, 0, 65, 0
1, 465120, Note_on_c, 0, 79, 80
1, 465233, Note_on_c, 0, 79, 0
1, 465240, Note_on_c, 0, 72, 80
1, 465353, Note_on_c, 0, 72, 0
1, 465360, Note_on_c, 0, 80, 80
1, 465473, Note_on_c, 0, 80, 0
1, 465480, Note_on_c, 0, 73, 80
1, 465593, Note_on_c, 0, 73, 0
1, 465600, Note_on_c, 0, 82, 80
1, 465713, Note_on_c, 0, 82, 0
1, 465720, Note_on_c, 0, 75, 80
1, 465833, Note_on_c, 0, 75, 0
1, 465840, Note_on_c, 0, 80, 80
1, 465953, Note_on_c, 0, 80, 0
1, 465960, Note_on_c, 0, 73, 80
1, 466073, Note_on_c, 0, 73, 0
1, 466080, Note_on_c, 0, 79, 80
1, 466193, Note_on_c, 0, 79, 0
1, 466200, Note_on_c, 0, 72, 80
1, 466313, Note_on_c, 0, 72, 0
1, 466320, Note_on_c, 0, 75, 80
1, 466433, Note_on_c, 0, 75, 0
1, 466440, Note_on_c, 0, 68, 80
1, 466553, Note_on_c, 0, 68, 0
1, 466560, Note_on_c, 0, 65, 80
1, 466673, Note_on_c, 0, 65, 0
1, 466680, Note_on_c, 0, 60, 80
1, 466793, Note_on_c, 0, 60, 0
1, 466800, Note_on_c, 0, 72, 80
1, 466913, Note_on_c, 0, 72, 0
1, 466920, Note_on_c, 0, 67, 80
1, 467033, Note_on_c, 0, 67, 0
1, 467040, Note_on_c, 0, 79, 80
1, 467153, Note_on_c, 0, 79, 0
1, 467160, Note_on_c, 0, 72, 80
1, 467273, Note_on_c, 0, 72, 0
1, 467280, Note_on_c, 0, 75, 80
1, 467393, Note_on_c, 0, 75, 0
1, 467400, Note_on_c, 0, 67, 80
1, 467513, Note_on_c, 0, 67, 0
1, 467520, Note_on_c, 0, 77, 80
1, 467633, Note_on_c, 0, 77, 0
1, 467640, Note_on_c, 0, 70, 80
1, 467753, Note_on_c, 0, 70, 0
1, 467760, Note_on_c, 0, 72, 80
1, 467873, Note_on_c, 0, 72, 0
1, 467880, Note_on_c, 0, 65, 80
1, 467993, Note_on_c, 0, 65, 0
1, 468000, Note_on_c, 0, 79, 80
1, 468113, Note_on_c, 0, 79, 0
1, 468120, Note_on_c, 0, 72, 80
1, 468233, Note_on_c, 0, 72, 0
1, 468240, Note_on_c, 0, 75, 80
1, 468353, Note_on_c, 0, 75, 0
1, 468360, Note_on_c, 0, 67, 80
1, 468473, Note_on_c, 0, 67, 0
1, 468480, Note_on_c, 0, 65, 80
1, 468593, Note_on_c, 0, 65, 0
1, 468600, Note_on_c, 0, 60, 80
1, 468713, Note_on_c, 0, 60, 0
1, 468720, Note_on_c, 0, 68, 80
1, 468833, Note_on_c, 0, 68, 0
1, 468840, Note_on_c, 0, 65, 80
1, 468953, Note_on_c, 0, 65, 0
1, 468960, Note_on_c, 0, 79, 80
1, 469073, Note_on_c, 0, 79, 0
1, 469080, Note_on_c, 0, 72, 80
1, 469193, Note_on_c, 0, 72, 0
1, 469200, Note_on_c, 0, 75, 80
1, 469313, Note_on_c, 0, 75, 0
1, 469320, Note_on_c, 0, 67, 80
1, 469433, Note_on_c, 0, 67, 0
1, 469440, Note_on_c, 0, 79, 80
1, 469553, Note_on_c, 0, 79, 0
1, 469560, Note_on_c, 0, 72, 80
1, 469673, Note_on_c, 0, 72, 0
1, 469680, Note_on_c, 0, 75, 80
1, 469793, Note_on_c, 0, 75, 0
1, 469800, Note_on_c, 0, 67, 80
1, 469913, Note_on_c, 0, 67, 0
1, 469920, Note_on_c, 0, 75, 80
1, 469979, Note_on_c, 0, 75, 0
1, 470040, Note_on_c, 0, 75, 80
1, 470099, Note_on_c, 0, 75, 0
1, 470160, Note_on_c, 0, 75, 80
1, 470219, Note_on_c, 0, 75, 0
1, 470280, Note_on_c, 0, 75, 80
1, 470339, Note_on_c, 0, 75, 0
1, 470400, Note_on_c, 0, 61, 105
1, 470627, Note_on_c, 0, 61, 0
1, 470640, Note_on_c, 0, 58, 105
1, 470759, Note_on_c, 0, 58, 0
1, 470880, Note_on_c, 0, 60, 105
1, 470999, Note_on_c, 0, 60, 0
1, 471120, Note_on_c, 0, 61, 105
1, 472031, Note_on_c, 0, 61, 0
1, 472080, Note_on_c, 0, 58, 105
1, 472307, Note_on_c, 0, 58, 0
1, 472320, Note_on_c, 0, 60, 105
1, 472439, Note_on_c, 0, 60, 0
1, 472560, Note_on_c, 0, 61, 105
1, 473471, Note_on_c, 0, 61, 0
1, 473520, Note_on_c, 0, 58, 105
1, 473639, Note_on_c, 0, 58, 0
1, 473760, Note_on_c, 0, 60, 105
1, 474215, Note_on_c, 0, 60, 0
1, 474240, Note_on_c, 0, 61, 105
1, 474467, Note_on_c, 0, 61, 0
1, 474480, Note_on_c, 0, 58, 105
1, 474599, Note_on_c, 0, 58, 0
1, 474720, Note_on_c, 0, 60, 105
1, 474839, Note_on_c, 0, 60, 0
1, 474960, Note_on_c, 0, 61, 105
1, 475871, Note_on_c, 0, 61, 0
1, 475920, Note_on_c, 0, 58, 105
1, 476147, Note_on_c, 0, 58, 0
1, 476160, Note_on_c, 0, 63, 105
1, 476387, Note_on_c, 0, 63, 0
1, 476400, Note_on_c, 0, 65, 105
1, 477083, Note_on_c, 0, 65, 0
1, 477120, Note_on_c, 0, 58, 105
1, 477120, Note_on_c, 0, 61, 105
1, 477440, Note_on_c, 0, 58, 0
1, 477440, Note_on_c, 0, 61, 0
1, 477600, Note_on_c, 0, 61, 105
1, 477600, Note_on_c, 0, 65, 105
1, 477920, Note_on_c, 0, 61, 0
1, 477920, Note_on_c, 0, 65, 0
1, 478080, Note_on_c, 0, 63, 127
1, 478200, Note_on_c, 0, 60, 96
1, 478313, Note_on_c, 0, 60, 0
1, 478320, Note_on_c, 0, 72, 96
1, 478433, Note_on_c, 0, 72, 0
1, 478440, Note_on_c, 0, 67, 96
1, 478553, Note_on_c, 0, 67, 0
1, 478560, Note_on_c, 0, 79, 96
1, 478673, Note_on_c, 0, 79, 0
1, 478680, Note_on_c, 0, 72, 96
1, 478793, Note_on_c, 0, 72, 0
1, 478800, Note_on_c, 0, 75, 96
1, 478913, Note_on_c, 0, 75, 0
1, 478920, Note_on_c, 0, 67, 96
1, 479033, Note_on_c, 0, 67, 0
1, 479040, Note_on_c, 0, 77, 96
1, 479153, Note_on_c, 0, 77, 0
1, 479160, Note_on_c, 0, 70, 96
1, 479273, Note_on_c, 0, 70, 0
1, 479280, Note_on_c, 0, 72, 96
1, 479393, Note_on_c, 0, 72, 0
1, 479400, Note_on_c, 0, 65, 96
1, 479513, Note_on_c, 0, 65, 0
1, 479520, Note_on_c, 0, 68, 96
1, 479633, Note_on_c, 0, 68, 0
1, 479640, Note_on_c, 0, 63, 96
1, 479753, Note_on_c, 0, 63, 0
1, 479760, Note_on_c, 0, 72, 96
1, 479873, Note_on_c, 0, 72, 0
1, 479880, Note_on_c, 0, 68, 96
1, 479993, Note_on_c, 0, 68, 0
1, 479999, Note_on_c, 0, 63, 0
1, 480000, Note_on_c, 0, 65, 96
1, 480113, Note_on_c, 0, 65, 0
1, 480120, Note_on_c, 0, 60, 96
1, 480233, Note_on_c, 0, 60, 0
1, 480240, Note_on_c, 0, 68, 96
1, 480353, Note_on_c, 0, 68, 0
1, 480360, Note_on_c, 0, 65, 96
1, 480473, Note_on_c, 0, 65, 0
1, 480480, Note_on_c, 0, 79, 96
1, 480593, Note_on_c, 0, 79, 0
1, 480600, Note_on_c, 0, 72, 96
1, 480713, Note_on_c, 0, 72, 0
1, 480720, Note_on_c, 0, 80, 96
1, 480833, Note_on_c, 0, 80, 0
1, 480840, Note_on_c, 0, 73, 96
1, 480953, Note_on_c, 0, 73, 0
1, 480960, Note_on_c, 0, 82, 96
1, 481073, Note_on_c, 0, 82, 0
1, 481080, Note_on_c, 0, 75, 96
1, 481193, Note_on_c, 0, 75, 0
1, 481200, Note_on_c, 0, 80, 96
1, 481313, Note_on_c, 0, 80, 0
1, 481320, Note_on_c, 0, 73, 96
1, 481433, Note_on_c, 0, 73, 0
1, 481440, Note_on_c, 0, 61, 127
1, 481560, Note_on_c, 0, 72, 96
1, 481673, Note_on_c, 0, 72, 0
1, 481680, Note_on_c, 0, 75, 96
1, 481793, Note_on_c, 0, 75, 0
1, 481800, Note_on_c, 0, 68, 96
1, 481913, Note_on_c, 0, 68, 0
1, 481919, Note_on_c, 0, 61, 0
1, 481920, Note_on_c, 0, 63, 127
1, 482040, Note_on_c, 0, 60, 96
1, 482153, Note_on_c, 0, 60, 0
1, 482160, Note_on_c, 0, 72, 96
1, 482273, Note_on_c, 0, 72, 0
1, 482280, Note_on_c, 0, 67, 96
1, 482393, Note_on_c, 0, 67, 0
1, 482400, Note_on_c, 0, 79, 96
1, 482513, Note_on_c, 0, 79, 0
1, 482520, Note_on_c, 0, 72, 96
1, 482633, Note_on_c, 0, 72, 0
1, 482640, Note_on_c, 0, 75, 96
1, 482753, Note_on_c, 0, 75, 0
1, 482760, Note_on_c, 0, 67, 96
1, 482873, Note_on_c, 0, 67, 0
1, 482880, Note_on_c, 0, 77, 96
1, 482993, Note_on_c, 0, 77, 0
1, 483000, Note_on_c, 0, 70, 96
1, 483113, Note_on_c, 0, 70, 0
1, 483120, Note_on_c, 0, 72, 96
1, 483233, Note_on_c, 0, 72, 0
1, 483240, Note_on_c, 0, 65, 96
1, 483353, Note_on_c, 0, 65, 0
1, 483360, Note_on_c, 0, 68, 96
1, 483473, Note_on_c, 0, 68, 0
1, 483480, Note_on_c, 0, 63, 96
1, 483593, Note_on_c, 0, 63, 0
1, 483600, Note_on_c, 0, 72, 96
1, 483713, Note_on_c, 0, 72, 0
1, 483720, Note_on_c, 0, 68, 96
1, 483833, Note_on_c, 0, 68, 0
1, 483839, Note_on_c, 0, 63, 0
1, 483840, Note_on_c, 0, 65, 96
1, 483953, Note_on_c, 0, 65, 0
1, 483960, Note_on_c, 0, 60, 96
1, 484073, Note_on_c, 0, 60, 0
1, 484080, Note_on_c, 0, 68, 96
1, 484193, Note_on_c, 0, 68, 0
1, 484200, Note_on_c, 0, 65, 96
1, 484313, Note_on_c, 0, 65, 0
1, 484320, Note_on_c, 0, 79, 96
1, 484433, Note_on_c, 0, 79, 0
1, 484440, Note_on_c, 0, 72, 96
1, 484553, Note_on_c, 0, 72, 0
1, 484560, Note_on_c, 0, 80, 96
1, 484673, Note_on_c, 0, 80, 0
1, 484680, Note_on_c, 0, 73, 96
1, 484793, Note_on_c, 0, 73, 0
1, 484800, Note_on_c, 0, 82, 96
1, 484913, Note_on_c, 0, 82, 0
1, 484920, Note_on_c, 0, 75, 96
1, 485033, Note_on_c, 0, 75, 0
1, 485040, Note_on_c, 0, 80, 96
1, 485153, Note_on_c, 0, 80, 0
1, 485160, Note_on_c, 0, 73, 96
1, 485273, Note_on_c, 0, 73, 0
1, 485280, Note_on_c, 0, 79, 96
1, 485393, Note_on_c, 0, 79, 0
1, 485400, Note_on_c, 0, 72, 96
1, 485513, Note_on_c, 0, 72, 0
1, 485520, Note_on_c, 0, 75, 96
1, 485633, Note_on_c, 0, 75, 0
1, 485640, Note_on_c, 0, 68, 96
1, 485753, Note_on_c, 0, 68, 0
1, 485760, Note_on_c, 0, 65, 110
1, 485987, Note_on_c, 0, 65, 0
1, 486000, Note_on_c, 0, 63, 110
1, 486119, Note_on_c, 0, 63, 0
1, 486240, Note_on_c, 0, 68, 110
1, 486359, Note_on_c, 0, 68, 0
1, 486480, Note_on_c, 0, 61, 110
1, 487163, Note_on_c, 0, 61, 0
1, 487200, Note_on_c, 0, 65, 110
1, 487427, Note_on_c, 0, 65, 0
1, 487440, Note_on_c, 0, 63, 110
1, 487559, Note_on_c, 0, 63, 0
1, 487680, Note_on_c, 0, 68, 110
1, 487799, Note_on_c, 0, 68, 0
1, 487920, Note_on_c, 0, 61, 110
1, 488831, Note_on_c, 0, 61, 0
1, 488880, Note_on_c, 0, 58, 110
1, 488999, Note_on_c, 0, 58, 0
1, 489120, Note_on_c, 0, 60, 110
1, 489575, Note_on_c, 0, 60, 0
1, 489600, Note_on_c, 0, 61, 110
1, 489827, Note_on_c, 0, 61, 0
1, 489840, Note_on_c, 0, 58, 110
1, 489959, Note_on_c, 0, 58, 0
1, 490080, Note_on_c, 0, 60, 110
1, 490199, Note_on_c, 0, 60, 0
1, 490320, Note_on_c, 0, 61, 110
1, 491003, Note_on_c, 0, 61, 0
1, 491040, Note_on_c, 0, 58, 110
1, 491267, Note_on_c, 0, 58, 0
1, 491280, Note_on_c, 0, 60, 110
1, 491399, Note_on_c, 0, 60, 0
1, 491520, Note_on_c, 0, 61, 110
1, 491639, Note_on_c, 0, 61, 0
1, 491760, Note_on_c, 0, 65, 110
1, 492443, Note_on_c, 0, 65, 0
1, 492480, Note_on_c, 0, 58, 110
1, 492480, Note_on_c, 0, 61, 110
1, 492800, Note_on_c, 0, 58, 0
1, 492800, Note_on_c, 0, 61, 0
1, 492960, Note_on_c, 0, 61, 96
1, 492960, Note_on_c, 0, 65, 110
1, 493280, Note_on_c, 0, 61, 0
1, 493280, Note_on_c, 0, 65, 0
1, 493440, Note_on_c, 0, 63, 127
1, 493560, Note_on_c, 0, 60, 96
1, 493673, Note_on_c, 0, 60, 0
1, 493680, Note_on_c, 0, 72, 96
1, 493793, Note_on_c, 0, 72, 0
1, 493800, Note_on_c, 0, 67, 96
1, 493913, Note_on_c, 0, 67, 0
1, 493920, Note_on_c, 0, 79, 96
1, 494033, Note_on_c, 0, 79, 0
1, 494040, Note_on_c, 0, 72, 96
1, 494153, Note_on_c, 0, 72, 0
1, 494160, Note_on_c, 0, 75, 96
1, 494273, Note_on_c, 0, 75, 0
1, 494280, Note_on_c, 0, 67, 96
1, 494393, Note_on_c, 0, 67, 0
1, 494400, Note_on_c, 0, 77, 96
1, 494513, Note_on_c, 0, 77, 0
1, 494520, Note_on_c, 0, 70, 96
1, 494633, Note_on_c, 0, 70, 0
1, 494640, Note_on_c, 0, 72, 96
1, 494753, Note_on_c, 0, 72, 0
1, 494760, Note_on_c, 0, 65, 96
1, 494873, Note_on_c, 0, 65, 0
1, 494880, Note_on_c, 0, 68, 96
1, 494993, Note_on_c, 0, 68, 0
1, 495000, Note_on_c, 0, 63, 96
1, 495113, Note_on_c, 0, 63, 0
1, 495120, Note_on_c, 0, 72, 96
1, 495233, Note_on_c, 0, 72, 0
1, 495240, Note_on_c, 0, 68, 96
1, 495353, Note_on_c, 0, 68, 0
1, 495359, Note_on_c, 0, 63, 0
1, 495360, Note_on_c, 0, 65, 96
1, 495473, Note_on_c, 0, 65, 0
1, 495480, Note_on_c, 0, 60, 96
1, 495593, Note_on_c, 0, 60, 0
1, 495600, Note_on_c, 0, 68, 96
1, 495713, Note_on_c, 0, 68, 0
1, 495720, Note_on_c, 0, 65, 96
1, 495833, Note_on_c, 0, 65, 0
1, 495840, Note_on_c, 0, 79, 96
1, 495953, Note_on_c, 0, 79, 0
1, 495960, Note_on_c, 0, 72, 96
1, 496073, Note_on_c, 0, 72, 0
1, 496080, Note_on_c, 0, 80, 96
1, 496193, Note_on_c, 0, 80, 0
1, 496200, Note_on_c, 0, 73, 96
1, 496313, Note_on_c, 0, 73, 0
1, 496320, Note_on_c, 0, 82, 96
1, 496433, Note_on_c, 0, 82, 0
1, 496440, Note_on_c, 0, 75, 96
1, 496553, Note_on_c, 0, 75, 0
1, 496560, Note_on_c, 0, 80, 96
1, 496673, Note_on_c, 0, 80, 0
1, 496680, Note_on_c, 0, 73, 96
1, 496793, Note_on_c, 0, 73, 0
1, 496800, Note_on_c, 0, 61, 127
1, 496920, Note_on_c, 0, 72, 96
1, 497033, Note_on_c, 0, 72, 0
1, 497040, Note_on_c, 0, 75, 96
1, 497153, Note_on_c, 0, 75, 0
1, 497160, Note_on_c, 0, 68, 96
1, 497273, Note_on_c, 0, 68, 0
1, 497279, Note_on_c, 0, 61, 0
1, 497280, Note_on_c, 0, 63, 127
1, 497400, Note_on_c, 0, 60, 96
1, 497513, Note_on_c, 0, 60, 0
1, 497520, Note_on_c, 0, 72, 96
1, 497633, Note_on_c, 0, 72, 0
1, 497640, Note_on_c, 0, 67, 96
1, 497753, Note_on_c, 0, 67, 0
1, 497759, Note_on_c, 0, 63, 0
1, 497760, Note_on_c, 0, 79, 96
1, 497873, Note_on_c, 0, 79, 0
1, 497880, Note_on_c, 0, 72, 96
1, 497993, Note_on_c, 0, 72, 0
1, 498000, Note_on_c, 0, 75, 96
1, 498113, Note_on_c, 0, 75, 0
1, 498120, Note_on_c, 0, 67, 96
1, 498233, Note_on_c, 0, 67, 0
1, 498240, Note_on_c, 0, 63, 127
1, 498360, Note_on_c, 0, 70, 96
1, 498473, Note_on_c, 0, 70, 0
1, 498480, Note_on_c, 0, 72, 96
1, 498593, Note_on_c, 0, 72, 0
1, 498600, Note_on_c, 0, 65, 96
1, 498713, Note_on_c, 0, 65, 0
1, 498719, Note_on_c, 0, 63, 0
1, 498720, Note_on_c, 0, 79, 96
1, 498833, Note_on_c, 0, 79, 0
1, 498840, Note_on_c, 0, 72, 96
1, 498953, Note_on_c, 0, 72, 0
1, 498960, Note_on_c, 0, 75, 96
1, 499073, Note_on_c, 0, 75, 0
1, 499080, Note_on_c, 0, 67, 96
1, 499193, Note_on_c, 0, 67, 0
1, 499200, Note_on_c, 0, 65, 96
1, 499313, Note_on_c, 0, 65, 0
1, 499320, Note_on_c, 0, 60, 96
1, 499433, Note_on_c, 0, 60, 0
1, 499440, Note_on_c, 0, 68, 96
1, 499553, Note_on_c, 0, 68, 0
1, 499560, Note_on_c, 0, 65, 96
1, 499673, Note_on_c, 0, 65, 0
1, 499680, Note_on_c, 0, 79, 96
1, 499793, Note_on_c, 0, 79, 0
1, 499800, Note_on_c, 0, 72, 96
1, 499913, Note_on_c, 0, 72, 0
1, 499920, Note_on_c, 0, 75, 96
1, 500033, Note_on_c, 0, 75, 0
1, 500040, Note_on_c, 0, 67, 96
1, 500153, Note_on_c, 0, 67, 0
1, 500160, Note_on_c, 0, 79, 96
1, 500273, Note_on_c, 0, 79, 0
1, 500280, Note_on_c, 0, 72, 96
1, 500393, Note_on_c, 0, 72, 0
1, 500400, Note_on_c, 0, 75, 96
1, 500513, Note_on_c, 0, 75, 0
1, 500520, Note_on_c, 0, 67, 96
1, 500633, Note_on_c, 0, 67, 0
1, 500640, Note_on_c, 0, 75, 96
1, 501095, Note_on_c, 0, 75, 0
1, 501120, Key_signature, -4, "major"
1, 501120, Tempo, 500000
1, 501120, Note_on_c, 0, 73, 80
1, 501575, Note_on_c, 0, 73, 0
1, 501600, Note_on_c, 0, 85, 80
1, 501941, Note_on_c, 0, 85, 0
1, 501960, Note_on_c, 0, 80, 80
1, 502871, Note_on_c, 0, 80, 0
1, 503040, Note_on_c, 0, 78, 80
1, 503495, Note_on_c, 0, 78, 0
1, 503520, Note_on_c, 0, 85, 80
1, 503861, Note_on_c, 0, 85, 0
1, 503880, Note_on_c, 0, 73, 80
1, 504791, Note_on_c, 0, 73, 0
1, 504960, Note_on_c, 0, 73, 80
1, 505415, Note_on_c, 0, 73, 0
1, 505440, Note_on_c, 0, 77, 80
1, 505781, Note_on_c, 0, 77, 0
1, 505800, Note_on_c, 0, 85, 80
1, 506483, Note_on_c, 0, 85, 0
1, 506640, Note_on_c, 0, 87, 80
1, 506867, Note_on_c, 0, 87, 0
1, 506880, Note_on_c, 0, 85, 80
1, 507335, Note_on_c, 0, 85, 0
1, 507360, Note_on_c, 0, 80, 80
1, 507701, Note_on_c, 0, 80, 0
1, 507720, Note_on_c, 0, 78, 80
1, 507947, Note_on_c, 0, 78, 0
1, 507960, Note_on_c, 0, 78, 80
1, 508073, Note_on_c, 0, 78, 0
1, 508080, Note_on_c, 0, 80, 80
1, 508193, Note_on_c, 0, 80, 0
1, 508200, Note_on_c, 0, 82, 80
1, 508313, Note_on_c, 0, 82, 0
1, 508320, Note_on_c, 0, 80, 80
1, 508433, Note_on_c, 0, 80, 0
1, 508440, Note_on_c, 0, 79, 80
1, 508553, Note_on_c, 0, 79, 0
1, 508560, Note_on_c, 0, 75, 80
1, 508673, Note_on_c, 0, 75, 0
1, 508680, Note_on_c, 0, 70, 80
1, 508793, Note_on_c, 0, 70, 0
1, 508800, Note_on_c, 0, 70, 80
1, 508800, Note_on_c, 0, 73, 80
1, 509255, Note_on_c, 0, 70, 0
1, 509255, Note_on_c, 0, 73, 0
1, 509280, Note_on_c, 0, 85, 80
1, 509621, Note_on_c, 0, 85, 0
1, 509640, Note_on_c, 0, 75, 80
1, 509640, Note_on_c, 0, 80, 80
1, 510551, Note_on_c, 0, 75, 0
1, 510551, Note_on_c, 0, 80, 0
1, 510720, Note_on_c, 0, 75, 80
1, 510720, Note_on_c, 0, 78, 80
1, 511175, Note_on_c, 0, 75, 0
1, 511175, Note_on_c, 0, 78, 0
1, 511200, Note_on_c, 0, 85, 80
1, 511541, Note_on_c, 0, 85, 0
1, 511560, Note_on_c, 0, 68, 80
1, 511560, Note_on_c, 0, 73, 80
1, 511787, Note_on_c, 0, 68, 0
1, 511787, Note_on_c, 0, 73, 0
1, 511800, Note_on_c, 0, 73, 80
1, 511913, Note_on_c, 0, 73, 0
1, 511920, Note_on_c, 0, 80, 80
1, 512033, Note_on_c, 0, 80, 0
1, 512040, Note_on_c, 0, 82, 80
1, 512153, Note_on_c, 0, 82, 0
1, 512160, Note_on_c, 0, 80, 80
1, 512273, Note_on_c, 0, 80, 0
1, 512280, Note_on_c, 0, 78, 80
1, 512393, Note_on_c, 0, 78, 0
1, 512400, Note_on_c, 0, 77, 80
1, 512513, Note_on_c, 0, 77, 0
1, 512520, Note_on_c, 0, 75, 80
1, 512633, Note_on_c, 0, 75, 0
1, 512640, Note_on_c, 0, 68, 80
1, 512640, Note_on_c, 0, 73, 80
1, 513095, Note_on_c, 0, 68, 0
1, 513095, Note_on_c, 0, 73, 0
1, 513120, Note_on_c, 0, 73, 80
1, 513120, Note_on_c, 0, 77, 80
1, 513461, Note_on_c, 0, 73, 0
1, 513461, Note_on_c, 0, 77, 0
1, 513480, Note_on_c, 0, 80, 80
1, 513480, Note_on_c, 0, 85, 80
1, 514391, Note_on_c, 0, 80, 0
1, 514391, Note_on_c, 0, 85, 0
1, 514440, Note_on_c, 0, 87, 80
1, 514553, Note_on_c, 0, 87, 0
1, 514560, Note_on_c, 0, 82, 80
1, 514560, Note_on_c, 0, 85, 80
1, 515015, Note_on_c, 0, 82, 0
1, 515015, Note_on_c, 0, 85, 0
1, 515040, Note_on_c, 0, 77, 80
1, 515040, Note_on_c, 0, 80, 80
1, 515381, Note_on_c, 0, 77, 0
1, 515381, Note_on_c, 0, 80, 0
1, 515400, Note_on_c, 0, 78, 80
1, 516425, Note_on_c, 0, 78, 0
1, 516480, Tempo, 272727
1, 516480, Note_on_c, 0, 68, 80
1, 516480, Note_on_c, 0, 77, 80
1, 516959, Note_on_c, 0, 68, 0
1, 516959, Note_on_c, 0, 77, 0
1, 516960, Note_on_c, 0, 68, 80
1, 516960, Note_on_c, 0, 72, 80
1, 517199, Note_on_c, 0, 68, 0
1, 517199, Note_on_c, 0, 72, 0
1, 517440, Note_on_c, 0, 65, 80
1, 517440, Note_on_c, 0, 68, 80
1, 517679, Note_on_c, 0, 65, 0
1, 517679, Note_on_c, 0, 68, 0
1, 517920, Note_on_c, 0, 61, 80
1, 517920, Note_on_c, 0, 65, 80
1, 518159, Note_on_c, 0, 61, 0
1, 518159, Note_on_c, 0, 65, 0
1, 518640, Note_on_c, 0, 68, 80
1, 518640, Note_on_c, 0, 71, 80
1, 518867, Note_on_c, 0, 68, 0
1, 518867, Note_on_c, 0, 71, 0
1, 518880, Note_on_c, 0, 65, 80
1, 518880, Note_on_c, 0, 70, 80
1, 519107, Note_on_c, 0, 65, 0
1, 519107, Note_on_c, 0, 70, 0
1, 519360, Note_on_c, 0, 65, 80
1, 519360, Note_on_c, 0, 70, 80
1, 519599, Note_on_c, 0, 65, 0
1, 519599, Note_on_c, 0, 70, 0
1, 519600, Note_on_c, 0, 65, 80
1, 519600, Note_on_c, 0, 68, 80
1, 519827, Note_on_c, 0, 65, 0
1, 519827, Note_on_c, 0, 68, 0
1, 519840, Note_on_c, 0, 60, 80
1, 519840, Note_on_c, 0, 63, 80
1, 520079, Note_on_c, 0, 60, 0
1, 520079, Note_on_c, 0, 63, 0
1, 520080, Note_on_c, 0, 61, 80
1, 520080, Note_on_c, 0, 64, 80
1, 520307, Note_on_c, 0, 61, 0
1, 520307, Note_on_c, 0, 64, 0
1, 520560, Note_on_c, 0, 68, 80
1, 520560, Note_on_c, 0, 72, 80
1, 520787, Note_on_c, 0, 68, 0
1, 520787, Note_on_c, 0, 72, 0
1, 520800, Note_on_c, 0, 65, 80
1, 520800, Note_on_c, 0, 70, 80
1, 521027, Note_on_c, 0, 65, 0
1, 521027, Note_on_c, 0, 70, 0
1, 521040, Note_on_c, 0, 63, 80
1, 521040, Note_on_c, 0, 68, 80
1, 521267, Note_on_c, 0, 63, 0
1, 521267, Note_on_c, 0, 68, 0
1, 521280, Note_on_c, 0, 65, 80
1, 521280, Note_on_c, 0, 70, 80
1, 521507, Note_on_c, 0, 65, 0
1, 521507, Note_on_c, 0, 70, 0
1, 521520, Note_on_c, 0, 68, 80
1, 521520, Note_on_c, 0, 72, 80
1, 521747, Note_on_c, 0, 68, 0
1, 521747, Note_on_c, 0, 72, 0
1, 521760, Note_on_c, 0, 58, 80
1, 521760, Note_on_c, 0, 63, 80
1, 521987, Note_on_c, 0, 58, 0
1, 521987, Note_on_c, 0, 63, 0
1, 522000, Note_on_c, 0, 60, 80
1, 522000, Note_on_c, 0, 65, 80
1, 522227, Note_on_c, 0, 60, 0
1, 522227, Note_on_c, 0, 65, 0
1, 522240, Note_on_c, 0, 60, 80
1, 522240, Note_on_c, 0, 68, 80
1, 522467, Note_on_c, 0, 60, 0
1, 522467, Note_on_c, 0, 68, 0
1, 522480, Note_on_c, 0, 60, 80
1, 522480, Note_on_c, 0, 65, 80
1, 522707, Note_on_c, 0, 60, 0
1, 522707, Note_on_c, 0, 65, 0
1, 522720, Note_on_c, 0, 58, 80
1, 522720, Note_on_c, 0, 63, 80
1, 522947, Note_on_c, 0, 58, 0
1, 522947, Note_on_c, 0, 63, 0
1, 522960, Note_on_c, 0, 68, 80
1, 522960, Note_on_c, 0, 77, 80
1, 523415, Note_on_c, 0, 68, 0
1, 523415, Note_on_c, 0, 77, 0
1, 523440, Note_on_c, 0, 75, 80
1, 523559, Note_on_c, 0, 75, 0
1, 523680, Note_on_c, 0, 72, 80
1, 523831, Note_on_c, 0, 72, 0
1, 523840, Note_on_c, 0, 70, 80
1, 523991, Note_on_c, 0, 70, 0
1, 524000, Note_on_c, 0, 68, 80
1, 524151, Note_on_c, 0, 68, 0
1, 524160, Note_on_c, 0, 65, 80
1, 524615, Note_on_c, 0, 65, 0
1, 525120, Note_on_c, 0, 67, 80
1, 525575, Note_on_c, 0, 67, 0
1, 526080, Note_on_c, 0, 68, 80
1, 526535, Note_on_c, 0, 68, 0
1, 527040, Note_on_c, 0, 70, 80
1, 527495, Note_on_c, 0, 70, 0
1, 528000, Note_on_c, 0, 68, 80
1, 528000, Note_on_c, 0, 72, 80
1, 528455, Note_on_c, 0, 68, 0
1, 528455, Note_on_c, 0, 72, 0
1, 528480, Note_on_c, 0, 61, 80
1, 528480, Note_on_c, 0, 70, 80
1, 528935, Note_on_c, 0, 61, 0
1, 528935, Note_on_c, 0, 70, 0
1, 528960, Note_on_c, 0, 72, 80
1, 528960, Note_on_c, 0, 77, 80
1, 529415, Note_on_c, 0, 72, 0
1, 529415, Note_on_c, 0, 77, 0
1, 529440, Note_on_c, 0, 65, 80
1, 529440, Note_on_c, 0, 72, 80
1, 529895, Note_on_c, 0, 65, 0
1, 529895, Note_on_c, 0, 72, 0
1, 529920, Note_on_c, 0, 70, 80
1, 529920, Note_on_c, 0, 76, 80
1, 530375, Note_on_c, 0, 70, 0
1, 530375, Note_on_c, 0, 76, 0
1, 530400, Note_on_c, 0, 68, 80
1, 530400, Note_on_c, 0, 73, 80
1, 530855, Note_on_c, 0, 68, 0
1, 530855, Note_on_c, 0, 73, 0
1, 530880, Note_on_c, 0, 67, 80
1, 530880, Note_on_c, 0, 72, 80
1, 531107, Note_on_c, 0, 67, 0
1, 531107, Note_on_c, 0, 72, 0
1, 531120, Note_on_c, 0, 72, 80
1, 531347, Note_on_c, 0, 72, 0
1, 531360, Note_on_c, 0, 74, 80
1, 531587, Note_on_c, 0, 74, 0
1, 531600, Note_on_c, 0, 76, 80
1, 531827, Note_on_c, 0, 76, 0
1, 531840, Note_on_c, 0, 77, 72
1, 531959, Note_on_c, 0, 77, 0
1, 532080, Note_on_c, 0, 84, 72
1, 532199, Note_on_c, 0, 84, 0
1, 532320, Note_on_c, 0, 82, 72
1, 532439, Note_on_c, 0, 82, 0
1, 532560, Note_on_c, 0, 84, 72
1, 532679, Note_on_c, 0, 84, 0
1, 532800, Note_on_c, 0, 77, 72
1, 532919, Note_on_c, 0, 77, 0
1, 533040, Note_on_c, 0, 84, 72
1, 533159, Note_on_c, 0, 84, 0
1, 533280, Note_on_c, 0, 82, 72
1, 533399, Note_on_c, 0, 82, 0
1, 533520, Note_on_c, 0, 84, 72
1, 533639, Note_on_c, 0, 84, 0
1, 533760, Note_on_c, 0, 73, 72
1, 533879, Note_on_c, 0, 73, 0
1, 534000, Note_on_c, 0, 83, 72
1, 534119, Note_on_c, 0, 83, 0
1, 534240, Note_on_c, 0, 82, 72
1, 534359, Note_on_c, 0, 82, 0
1, 534480, Note_on_c, 0, 83, 72
1, 534599, Note_on_c, 0, 83, 0
1, 534720, Note_on_c, 0, 75, 72
1, 534839, Note_on_c, 0, 75, 0
1, 534960, Note_on_c, 0, 84, 72
1, 535079, Note_on_c, 0, 84, 0
1, 535200, Note_on_c, 0, 79, 72
1, 535319, Note_on_c, 0, 79, 0
1, 535440, Note_on_c, 0, 82, 72
1, 535559, Note_on_c, 0, 82, 0
1, 535680, Note_on_c, 0, 77, 72
1, 535799, Note_on_c, 0, 77, 0
1, 535920, Note_on_c, 0, 84, 72
1, 536039, Note_on_c, 0, 84, 0
1, 536160, Note_on_c, 0, 82, 72
1, 536279, Note_on_c, 0, 82, 0
1, 536400, Note_on_c, 0, 84, 72
1, 536519, Note_on_c, 0, 84, 0
1, 536640, Note_on_c, 0, 79, 72
1, 536759, Note_on_c, 0, 79, 0
1, 536880, Note_on_c, 0, 84, 72
1, 536999, Note_on_c, 0, 84, 0
1, 537120, Note_on_c, 0, 82, 72
1, 537239, Note_on_c, 0, 82, 0
1, 537360, Note_on_c, 0, 84, 72
1, 537479, Note_on_c, 0, 84, 0
1, 537600, Note_on_c, 0, 80, 72
1, 537719, Note_on_c, 0, 80, 0
1, 537840, Note_on_c, 0, 84, 72
1, 537959, Note_on_c, 0, 84, 0
1, 538080, Note_on_c, 0, 82, 72
1, 538199, Note_on_c, 0, 82, 0
1, 538320, Note_on_c, 0, 84, 72
1, 538439, Note_on_c, 0, 84, 0
1, 538560, Note_on_c, 0, 82, 72
1, 538679, Note_on_c, 0, 82, 0
1, 538800, Note_on_c, 0, 85, 72
1, 538919, Note_on_c, 0, 85, 0
1, 539040, Note_on_c, 0, 84, 72
1, 539159, Note_on_c, 0, 84, 0
1, 539280, Note_on_c, 0, 85, 72
1, 539399, Note_on_c, 0, 85, 0
1, 539520, Note_on_c, 0, 73, 80
1, 539747, Note_on_c, 0, 73, 0
1, 539760, Note_on_c, 0, 80, 72
1, 539879, Note_on_c, 0, 80, 0
1, 540000, Note_on_c, 0, 79, 72
1, 540119, Note_on_c, 0, 79, 0
1, 540240, Note_on_c, 0, 80, 72
1, 540359, Note_on_c, 0, 80, 0
1, 540480, Note_on_c, 0, 75, 80
1, 540707, Note_on_c, 0, 75, 0
1, 540720, Note_on_c, 0, 82, 72
1, 540839, Note_on_c, 0, 82, 0
1, 540960, Note_on_c, 0, 80, 72
1, 541079, Note_on_c, 0, 80, 0
1, 541200, Note_on_c, 0, 82, 72
1, 541319, Note_on_c, 0, 82, 0
1, 541440, Note_on_c, 0, 77, 80
1, 541667, Note_on_c, 0, 77, 0
1, 541680, Note_on_c, 0, 84, 72
1, 541799, Note_on_c, 0, 84, 0
1, 541920, Note_on_c, 0, 82, 72
1, 542039, Note_on_c, 0, 82, 0
1, 542160, Note_on_c, 0, 84, 72
1, 542279, Note_on_c, 0, 84, 0
1, 542400, Note_on_c, 0, 79, 80
1, 542627, Note_on_c, 0, 79, 0
1, 542640, Note_on_c, 0, 85, 72
1, 542759, Note_on_c, 0, 85, 0
1, 542880, Note_on_c, 0, 84, 72
1, 542999, Note_on_c, 0, 84, 0
1, 543120, Note_on_c, 0, 85, 72
1, 543239, Note_on_c, 0, 85, 0
1, 543360, Note_on_c, 0, 72, 80
1, 543360, Note_on_c, 0, 80, 80
1, 543360, Note_on_c, 0, 84, 80
1, 543815, Note_on_c, 0, 72, 0
1, 543815, Note_on_c, 0, 80, 0
1, 543815, Note_on_c, 0, 84, 0
1, 543840, Note_on_c, 0, 73, 80
1, 543840, Note_on_c, 0, 82, 80
1, 543840, Note_on_c, 0, 85, 80
1, 544295, Note_on_c, 0, 73, 0
1, 544295, Note_on_c, 0, 82, 0
1, 544295, Note_on_c, 0, 85, 0
1, 544320, Note_on_c, 0, 77, 80
1, 544320, Note_on_c, 0, 84, 80
1, 544320, Note_on_c, 0, 89, 80
1, 544775, Note_on_c, 0, 77, 0
1, 544775, Note_on_c, 0, 84, 0
1, 544775, Note_on_c, 0, 89, 0
1, 544800, Note_on_c, 0, 72, 80
1, 544800, Note_on_c, 0, 77, 80
1, 544800, Note_on_c, 0, 84, 80
1, 545255, Note_on_c, 0, 72, 0
1, 545255, Note_on_c, 0, 77, 0
1, 545255, Note_on_c, 0, 84, 0
1, 545280, Note_on_c, 0, 76, 80
1, 545280, Note_on_c, 0, 82, 80
1, 545280, Note_on_c, 0, 88, 80
1, 545735, Note_on_c, 0, 76, 0
1, 545735, Note_on_c, 0, 82, 0
1, 545735, Note_on_c, 0, 88, 0
1, 545760, Note_on_c, 0, 73, 80
1, 545760, Note_on_c, 0, 80, 80
1, 545760, Note_on_c, 0, 85, 80
1, 546215, Note_on_c, 0, 73, 0
1, 546215, Note_on_c, 0, 80, 0
1, 546215, Note_on_c, 0, 85, 0
1, 546240, Note_on_c, 0, 72, 80
1, 546240, Note_on_c, 0, 79, 80
1, 546240, Note_on_c, 0, 84, 80
1, 546467, Note_on_c, 0, 72, 0
1, 546467, Note_on_c, 0, 79, 0
1, 546467, Note_on_c, 0, 84, 0
1, 546480, Note_on_c, 0, 73, 96
1, 546480, Note_on_c, 0, 85, 96
1, 546707, Note_on_c, 0, 73, 0
1, 546707, Note_on_c, 0, 85, 0
1, 546720, Note_on_c, 0, 72, 96
1, 546720, Note_on_c, 0, 84, 96
1, 546947, Note_on_c, 0, 72, 0
1, 546947, Note_on_c, 0, 84, 0
1, 546960, Note_on_c, 0, 73, 96
1, 546960, Note_on_c, 0, 85, 96
1, 547187, Note_on_c, 0, 73, 0
1, 547187, Note_on_c, 0, 85, 0
1, 547200, Note_on_c, 0, 72, 96
1, 547200, Note_on_c, 0, 84, 96
1, 547655, Note_on_c, 0, 72, 0
1, 547655, Note_on_c, 0, 84, 0
1, 547680, Note_on_c, 0, 68, 96
1, 547680, Note_on_c, 0, 80, 96
1, 548135, Note_on_c, 0, 68, 0
1, 548135, Note_on_c, 0, 80, 0
1, 548160, Note_on_c, 0, 65, 96
1, 548160, Note_on_c, 0, 77, 96
1, 548387, Note_on_c, 0, 65, 0
1, 548387, Note_on_c, 0, 77, 0
1, 548400, Note_on_c, 0, 68, 96
1, 548400, Note_on_c, 0, 80, 96
1, 548627, Note_on_c, 0, 68, 0
1, 548627, Note_on_c, 0, 80, 0
1, 548640, Note_on_c, 0, 60, 96
1, 548640, Note_on_c, 0, 65, 96
1, 548640, Note_on_c, 0, 72, 96
1, 548867, Note_on_c, 0, 60, 0
1, 548867, Note_on_c, 0, 65, 0
1, 548867, Note_on_c, 0, 72, 0
1, 548880, Note_on_c, 0, 65, 96
1, 548880, Note_on_c, 0, 77, 96
1, 549107, Note_on_c, 0, 65, 0
1, 549107, Note_on_c, 0, 77, 0
1, 549120, Note_on_c, 0, 68, 96
1, 549120, Note_on_c, 0, 80, 96
1, 549575, Note_on_c, 0, 68, 0
1, 549575, Note_on_c, 0, 80, 0
1, 549600, Note_on_c, 0, 65, 96
1, 549600, Note_on_c, 0, 68, 96
1, 549600, Note_on_c, 0, 77, 96
1, 549827, Note_on_c, 0, 65, 0
1, 549827, Note_on_c, 0, 68, 0
1, 549827, Note_on_c, 0, 77, 0
1, 549840, Note_on_c, 0, 67, 96
1, 549840, Note_on_c, 0, 79, 96
1, 550979, Note_on_c, 0, 67, 0
1, 550979, Note_on_c, 0, 79, 0
1, 551040, Note_on_c, 0, 68, 96
1, 551040, Note_on_c, 0, 80, 96
1, 551495, Note_on_c, 0, 68, 0
1, 551495, Note_on_c, 0, 80, 0
1, 551520, Note_on_c, 0, 65, 96
1, 551520, Note_on_c, 0, 68, 96
1, 551520, Note_on_c, 0, 77, 96
1, 551747, Note_on_c, 0, 65, 0
1, 551747, Note_on_c, 0, 68, 0
1, 551747, Note_on_c, 0, 77, 0
1, 551760, Note_on_c, 0, 67, 96
1, 551760, Note_on_c, 0, 79, 96
1, 552899, Note_on_c, 0, 67, 0
1, 552899, Note_on_c, 0, 79, 0
1, 552960, Note_on_c, 0, 68, 96
1, 552960, Note_on_c, 0, 80, 96
1, 553415, Note_on_c, 0, 68, 0
1, 553415, Note_on_c, 0, 80, 0
1, 553440, Note_on_c, 0, 65, 96
1, 553440, Note_on_c, 0, 68, 96
1, 553440, Note_on_c, 0, 77, 96
1, 553667, Note_on_c, 0, 65, 0
1, 553667, Note_on_c, 0, 68, 0
1, 553667, Note_on_c, 0, 77, 0
1, 553680, Note_on_c, 0, 67, 96
1, 553680, Note_on_c, 0, 79, 96
1, 554135, Note_on_c, 0, 67, 0
1, 554135, Note_on_c, 0, 79, 0
1, 554160, Note_on_c, 0, 73, 96
1, 554160, Note_on_c, 0, 85, 96
1, 554387, Note_on_c, 0, 73, 0
1, 554387, Note_on_c, 0, 85, 0
1, 554400, Note_on_c, 0, 72, 96
1, 554400, Note_on_c, 0, 84, 96
1, 554627, Note_on_c, 0, 72, 0
1, 554627, Note_on_c, 0, 84, 0
1, 554640, Note_on_c, 0, 73, 96
1, 554640, Note_on_c, 0, 85, 96
1, 554867, Note_on_c, 0, 73, 0
1, 554867, Note_on_c, 0, 85, 0
1, 554880, Note_on_c, 0, 72, 96
1, 554880, Note_on_c, 0, 84, 96
1, 555335, Note_on_c, 0, 72, 0
1, 555335, Note_on_c, 0, 84, 0
1, 555360, Note_on_c, 0, 68, 96
1, 555360, Note_on_c, 0, 80, 96
1, 555815, Note_on_c, 0, 68, 0
1, 555815, Note_on_c, 0, 80, 0
1, 555840, Note_on_c, 0, 65, 96
1, 555840, Note_on_c, 0, 77, 96
1, 556067, Note_on_c, 0, 65, 0
1, 556067, Note_on_c, 0, 77, 0
1, 556080, Note_on_c, 0, 68, 96
1, 556080, Note_on_c, 0, 80, 96
1, 556307, Note_on_c, 0, 68, 0
1, 556307, Note_on_c, 0, 80, 0
1, 556320, Note_on_c, 0, 60, 96
1, 556320, Note_on_c, 0, 65, 96
1, 556320, Note_on_c, 0, 72, 96
1, 556547, Note_on_c, 0, 60, 0
1, 556547, Note_on_c, 0, 65, 0
1, 556547, Note_on_c, 0, 72, 0
1, 556560, Note_on_c, 0, 65, 96
1, 556560, Note_on_c, 0, 77, 96
1, 556787, Note_on_c, 0, 65, 0
1, 556787, Note_on_c, 0, 77, 0
1, 556800, Note_on_c, 0, 68, 96
1, 556800, Note_on_c, 0, 80, 96
1, 557255, Note_on_c, 0, 68, 0
1, 557255, Note_on_c, 0, 80, 0
1, 557280, Note_on_c, 0, 70, 96
1, 557280, Note_on_c, 0, 82, 96
1, 557507, Note_on_c, 0, 70, 0
1, 557507, Note_on_c, 0, 82, 0
1, 557520, Note_on_c, 0, 67, 96
1, 557520, Note_on_c, 0, 79, 96
1, 558659, Note_on_c, 0, 67, 0
1, 558659, Note_on_c, 0, 79, 0
1, 558720, Note_on_c, 0, 68, 96
1, 558720, Note_on_c, 0, 80, 96
1, 559175, Note_on_c, 0, 68, 0
1, 559175, Note_on_c, 0, 80, 0
1, 559200, Note_on_c, 0, 70, 96
1, 559200, Note_on_c, 0, 82, 96
1, 559427, Note_on_c, 0, 70, 0
1, 559427, Note_on_c, 0, 82, 0
1, 559440, Note_on_c, 0, 67, 96
1, 559440, Note_on_c, 0, 79, 96
1, 560579, Note_on_c, 0, 67, 0
1, 560579, Note_on_c, 0, 79, 0
1, 560640, Note_on_c, 0, 68, 96
1, 560640, Note_on_c, 0, 80, 96
1, 561095, Note_on_c, 0, 68, 0
1, 561095, Note_on_c, 0, 80, 0
1, 561120, Note_on_c, 0, 70, 96
1, 561120, Note_on_c, 0, 82, 96
1, 561347, Note_on_c, 0, 70, 0
1, 561347, Note_on_c, 0, 82, 0
1, 561360, Note_on_c, 0, 72, 96
1, 561360, Note_on_c, 0, 84, 96
1, 561815, Note_on_c, 0, 72, 0
1, 561815, Note_on_c, 0, 84, 0
1, 561840, Note_on_c, 0, 73, 96
1, 561840, Note_on_c, 0, 85, 96
1, 562067, Note_on_c, 0, 73, 0
1, 562067, Note_on_c, 0, 85, 0
1, 562080, Note_on_c, 0, 72, 96
1, 562080, Note_on_c, 0, 84, 96
1, 562307, Note_on_c, 0, 72, 0
1, 562307, Note_on_c, 0, 84, 0
1, 562320, Note_on_c, 0, 73, 96
1, 562320, Note_on_c, 0, 85, 96
1, 562547, Note_on_c, 0, 73, 0
1, 562547, Note_on_c, 0, 85, 0
1, 562560, Note_on_c, 0, 72, 96
1, 562560, Note_on_c, 0, 80, 96
1, 562560, Note_on_c, 0, 84, 96
1, 563015, Note_on_c, 0, 72, 0
1, 563015, Note_on_c, 0, 80, 0
1, 563015, Note_on_c, 0, 84, 0
1, 563040, Note_on_c, 0, 68, 96
1, 563040, Note_on_c, 0, 77, 96
1, 563040, Note_on_c, 0, 80, 96
1, 563495, Note_on_c, 0, 68, 0
1, 563495, Note_on_c, 0, 77, 0
1, 563495, Note_on_c, 0, 80, 0
1, 563520, Note_on_c, 0, 65, 96
1, 563520, Note_on_c, 0, 72, 96
1, 563520, Note_on_c, 0, 77, 96
1, 563747, Note_on_c, 0, 65, 0
1, 563747, Note_on_c, 0, 72, 0
1, 563747, Note_on_c, 0, 77, 0
1, 563760, Note_on_c, 0, 68, 96
1, 563760, Note_on_c, 0, 77, 96
1, 563760, Note_on_c, 0, 80, 96
1, 563987, Note_on_c, 0, 68, 0
1, 563987, Note_on_c, 0, 77, 0
1, 563987, Note_on_c, 0, 80, 0
1, 564000, Note_on_c, 0, 60, 96
1, 564000, Note_on_c, 0, 65, 96
1, 564000, Note_on_c, 0, 72, 96
1, 564227, Note_on_c, 0, 60, 0
1, 564227, Note_on_c, 0, 65, 0
1, 564227, Note_on_c, 0, 72, 0
1, 564240, Note_on_c, 0, 65, 96
1, 564240, Note_on_c, 0, 68, 96
1, 564240, Note_on_c, 0, 77, 96
1, 564467, Note_on_c, 0, 65, 0
1, 564467, Note_on_c, 0, 68, 0
1, 564467, Note_on_c, 0, 77, 0
1, 564480, Note_on_c, 0, 68, 96
1, 564480, Note_on_c, 0, 73, 96
1, 564480, Note_on_c, 0, 80, 96
1, 564935, Note_on_c, 0, 68, 0
1, 564935, Note_on_c, 0, 73, 0
1, 564935, Note_on_c, 0, 80, 0
1, 564960, Note_on_c, 0, 65, 96
1, 564960, Note_on_c, 0, 68, 96
1, 564960, Note_on_c, 0, 77, 96
1, 565187, Note_on_c, 0, 65, 0
1, 565187, Note_on_c, 0, 68, 0
1, 565187, Note_on_c, 0, 77, 0
1, 565200, Note_on_c, 0, 67, 96
1, 565200, Note_on_c, 0, 72, 96
1, 565200, Note_on_c, 0, 79, 96
1, 566339, Note_on_c, 0, 67, 0
1, 566339, Note_on_c, 0, 72, 0
1, 566339, Note_on_c, 0, 79, 0
1, 566400, Note_on_c, 0, 68, 96
1, 566400, Note_on_c, 0, 73, 96
1, 566400, Note_on_c, 0, 80, 96
1, 566855, Note_on_c, 0, 68, 0
1, 566855, Note_on_c, 0, 73, 0
1, 566855, Note_on_c, 0, 80, 0
1, 566880, Note_on_c, 0, 65, 96
1, 566880, Note_on_c, 0, 68, 96
1, 566880, Note_on_c, 0, 77, 96
1, 567107, Note_on_c, 0, 65, 0
1, 567107, Note_on_c, 0, 68, 0
1, 567107, Note_on_c, 0, 77, 0
1, 567120, Note_on_c, 0, 67, 96
1, 567120, Note_on_c, 0, 72, 96
1, 567120, Note_on_c, 0, 79, 96
1, 568259, Note_on_c, 0, 67, 0
1, 568259, Note_on_c, 0, 72, 0
1, 568259, Note_on_c, 0, 79, 0
1, 568320, Note_on_c, 0, 68, 96
1, 568320, Note_on_c, 0, 77, 96
1, 568320, Note_on_c, 0, 80, 96
1, 568775, Note_on_c, 0, 68, 0
1, 568775, Note_on_c, 0, 77, 0
1, 568775, Note_on_c, 0, 80, 0
1, 568800, Note_on_c, 0, 65, 96
1, 568800, Note_on_c, 0, 68, 96
1, 568800, Note_on_c, 0, 77, 96
1, 569027, Note_on_c, 0, 65, 0
1, 569027, Note_on_c, 0, 68, 0
1, 569027, Note_on_c, 0, 77, 0
1, 569040, Note_on_c, 0, 67, 96
1, 569040, Note_on_c, 0, 76, 96
1, 569040, Note_on_c, 0, 79, 96
1, 569495, Note_on_c, 0, 67, 0
1, 569495, Note_on_c, 0, 76, 0
1, 569495, Note_on_c, 0, 79, 0
1, 569520, Note_on_c, 0, 73, 96
1, 569520, Note_on_c, 0, 85, 96
1, 569747, Note_on_c, 0, 73, 0
1, 569747, Note_on_c, 0, 85, 0
1, 569760, Note_on_c, 0, 72, 96
1, 569760, Note_on_c, 0, 84, 96
1, 569987, Note_on_c, 0, 72, 0
1, 569987, Note_on_c, 0, 84, 0
1, 570000, Note_on_c, 0, 73, 96
1, 570000, Note_on_c, 0, 85, 96
1, 570227, Note_on_c, 0, 73, 0
1, 570227, Note_on_c, 0, 85, 0
1, 570240, Note_on_c, 0, 72, 96
1, 570240, Note_on_c, 0, 84, 96
1, 570695, Note_on_c, 0, 72, 0
1, 570695, Note_on_c, 0, 84, 0
1, 570720, Note_on_c, 0, 77, 96
1, 570720, Note_on_c, 0, 89, 96
1, 571175, Note_on_c, 0, 77, 0
1, 571175, Note_on_c, 0, 89, 0
1, 571200, Note_on_c, 0, 70, 96
1, 571200, Note_on_c, 0, 82, 96
1, 571427, Note_on_c, 0, 70, 0
1, 571427, Note_on_c, 0, 82, 0
1, 571440, Note_on_c, 0, 77, 96
1, 571440, Note_on_c, 0, 89, 96
1, 571667, Note_on_c, 0, 77, 0
1, 571667, Note_on_c, 0, 89, 0
1, 571680, Note_on_c, 0, 68, 96
1, 571680, Note_on_c, 0, 80, 96
1, 571907, Note_on_c, 0, 68, 0
1, 571907, Note_on_c, 0, 80, 0
1, 571920, Note_on_c, 0, 77, 96
1, 571920, Note_on_c, 0, 89, 96
1, 572147, Note_on_c, 0, 77, 0
1, 572147, Note_on_c, 0, 89, 0
1, 572160, Note_on_c, 0, 70, 96
1, 572160, Note_on_c, 0, 82, 96
1, 572387, Note_on_c, 0, 70, 0
1, 572387, Note_on_c, 0, 82, 0
1, 572400, Note_on_c, 0, 68, 96
1, 572400, Note_on_c, 0, 80, 96
1, 572627, Note_on_c, 0, 68, 0
1, 572627, Note_on_c, 0, 80, 0
1, 572880, Note_on_c, 0, 70, 96
1, 572880, Note_on_c, 0, 82, 96
1, 573563, Note_on_c, 0, 70, 0
1, 573563, Note_on_c, 0, 82, 0
1, 573600, Note_on_c, 0, 68, 96
1, 573600, Note_on_c, 0, 80, 96
1, 573827, Note_on_c, 0, 68, 0
1, 573827, Note_on_c, 0, 80, 0
1, 573840, Note_on_c, 0, 70, 96
1, 573840, Note_on_c, 0, 82, 96
1, 574067, Note_on_c, 0, 70, 0
1, 574067, Note_on_c, 0, 82, 0
1, 574080, Note_on_c, 0, 71, 96
1, 574080, Note_on_c, 0, 83, 96
1, 574307, Note_on_c, 0, 71, 0
1, 574307, Note_on_c, 0, 83, 0
1, 574320, Note_on_c, 0, 70, 96
1, 574320, Note_on_c, 0, 82, 96
1, 574547, Note_on_c, 0, 70, 0
1, 574547, Note_on_c, 0, 82, 0
1, 574560, Note_on_c, 0, 68, 96
1, 574560, Note_on_c, 0, 80, 96
1, 574787, Note_on_c, 0, 68, 0
1, 574787, Note_on_c, 0, 80, 0
1, 574800, Note_on_c, 0, 71, 96
1, 574800, Note_on_c, 0, 83, 96
1, 575027, Note_on_c, 0, 71, 0
1, 575027, Note_on_c, 0, 83, 0
1, 575040, Note_on_c, 0, 64, 96
1, 575040, Note_on_c, 0, 76, 96
1, 575267, Note_on_c, 0, 64, 0
1, 575267, Note_on_c, 0, 76, 0
1, 575280, Note_on_c, 0, 68, 96
1, 575280, Note_on_c, 0, 80, 96
1, 575507, Note_on_c, 0, 68, 0
1, 575507, Note_on_c, 0, 80, 0
1, 575520, Note_on_c, 0, 60, 96
1, 575520, Note_on_c, 0, 67, 96
1, 575520, Note_on_c, 0, 72, 96
1, 575747, Note_on_c, 0, 60, 0
1, 575747, Note_on_c, 0, 67, 0
1, 575747, Note_on_c, 0, 72, 0
1, 575760, Note_on_c, 0, 64, 96
1, 575760, Note_on_c, 0, 76, 96
1, 575987, Note_on_c, 0, 64, 0
1, 575987, Note_on_c, 0, 76, 0
1, 576000, Note_on_c, 0, 61, 96
1, 576000, Note_on_c, 0, 73, 96
1, 576227, Note_on_c, 0, 61, 0
1, 576227, Note_on_c, 0, 73, 0
1, 576240, Note_on_c, 0, 68, 96
1, 576240, Note_on_c, 0, 72, 96
1, 576467, Note_on_c, 0, 68, 0
1, 576467, Note_on_c, 0, 72, 0
1, 576480, Note_on_c, 0, 64, 96
1, 576480, Note_on_c, 0, 67, 96
1, 576480, Note_on_c, 0, 76, 96
1, 577847, Note_on_c, 0, 64, 0
1, 577847, Note_on_c, 0, 67, 0
1, 577847, Note_on_c, 0, 76, 0
1, 577920, Key_signature, 4, "major"
1, 577920, Tempo, 428572
1, 577920, Note_on_c, 0, 73, 80
1, 577920, Note_on_c, 0, 80, 80
1, 577920, Note_on_c, 0, 83, 80
1, 578375, Note_on_c, 0, 73, 0
1, 578375, Note_on_c, 0, 80, 0
1, 578375, Note_on_c, 0, 83, 0
1, 578400, Note_on_c, 0, 75, 80
1, 578400, Note_on_c, 0, 78, 80
1, 578400, Note_on_c, 0, 83, 80
1, 578855, Note_on_c, 0, 75, 0
1, 578855, Note_on_c, 0, 78, 0
1, 578855, Note_on_c, 0, 83, 0
1, 578880, Note_on_c, 0, 76, 80
1, 578880, Note_on_c, 0, 80, 80
1, 578880, Note_on_c, 0, 83, 80
1, 579221, Note_on_c, 0, 76, 0
1, 579221, Note_on_c, 0, 80, 0
1, 579221, Note_on_c, 0, 83, 0
1, 579240, Note_on_c, 0, 75, 80
1, 579240, Note_on_c, 0, 78, 80
1, 579240, Note_on_c, 0, 83, 80
1, 579581, Note_on_c, 0, 75, 0
1, 579581, Note_on_c, 0, 78, 0
1, 579581, Note_on_c, 0, 83, 0
1, 579600, Note_on_c, 0, 73, 80
1, 579600, Note_on_c, 0, 80, 80
1, 579600, Note_on_c, 0, 83, 80
1, 580055, Note_on_c, 0, 73, 0
1, 580055, Note_on_c, 0, 80, 0
1, 580055, Note_on_c, 0, 83, 0
1, 580080, Note_on_c, 0, 73, 80
1, 580080, Note_on_c, 0, 80, 80
1, 580080, Note_on_c, 0, 83, 80
1, 580307, Note_on_c, 0, 73, 0
1, 580307, Note_on_c, 0, 80, 0
1, 580307, Note_on_c, 0, 83, 0
1, 580320, Note_on_c, 0, 75, 80
1, 580320, Note_on_c, 0, 78, 80
1, 580320, Note_on_c, 0, 83, 80
1, 580775, Note_on_c, 0, 75, 0
1, 580775, Note_on_c, 0, 78, 0
1, 580775, Note_on_c, 0, 83, 0
1, 580800, Note_on_c, 0, 76, 80
1, 580800, Note_on_c, 0, 80, 80
1, 580800, Note_on_c, 0, 83, 80
1, 581141, Note_on_c, 0, 76, 0
1, 581141, Note_on_c, 0, 80, 0
1, 581141, Note_on_c, 0, 83, 0
1, 581160, Note_on_c, 0, 75, 80
1, 581160, Note_on_c, 0, 78, 80
1, 581160, Note_on_c, 0, 83, 80
1, 581729, Note_on_c, 0, 75, 0
1, 581729, Note_on_c, 0, 78, 0
1, 581729, Note_on_c, 0, 83, 0
1, 581760, Note_on_c, 0, 73, 80
1, 581760, Note_on_c, 0, 80, 80
1, 581760, Note_on_c, 0, 83, 80
1, 582215, Note_on_c, 0, 73, 0
1, 582215, Note_on_c, 0, 80, 0
1, 582215, Note_on_c, 0, 83, 0
1, 582240, Note_on_c, 0, 75, 80
1, 582240, Note_on_c, 0, 78, 80
1, 582240, Note_on_c, 0, 83, 80
1, 582695, Note_on_c, 0, 75, 0
1, 582695, Note_on_c, 0, 78, 0
1, 582695, Note_on_c, 0, 83, 0
1, 582720, Note_on_c, 0, 76, 80
1, 582720, Note_on_c, 0, 80, 80
1, 582720, Note_on_c, 0, 83, 80
1, 583061, Note_on_c, 0, 76, 0
1, 583061, Note_on_c, 0, 80, 0
1, 583061, Note_on_c, 0, 83, 0
1, 583080, Note_on_c, 0, 75, 80
1, 583080, Note_on_c, 0, 78, 80
1, 583080, Note_on_c, 0, 83, 80
1, 583421, Note_on_c, 0, 75, 0
1, 583421, Note_on_c, 0, 78, 0
1, 583421, Note_on_c, 0, 83, 0
1, 583440, Note_on_c, 0, 73, 80
1, 583440, Note_on_c, 0, 80, 80
1, 583440, Note_on_c, 0, 83, 80
1, 583895, Note_on_c, 0, 73, 0
1, 583895, Note_on_c, 0, 80, 0
1, 583895, Note_on_c, 0, 83, 0
1, 583920, Note_on_c, 0, 73, 80
1, 583920, Note_on_c, 0, 80, 80
1, 583920, Note_on_c, 0, 83, 80
1, 584147, Note_on_c, 0, 73, 0
1, 584147, Note_on_c, 0, 80, 0
1, 584147, Note_on_c, 0, 83, 0
1, 584160, Note_on_c, 0, 75, 80
1, 584160, Note_on_c, 0, 78, 80
1, 584160, Note_on_c, 0, 83, 80
1, 584615, Note_on_c, 0, 75, 0
1, 584615, Note_on_c, 0, 78, 0
1, 584615, Note_on_c, 0, 83, 0
1, 584640, Note_on_c, 0, 76, 80
1, 584640, Note_on_c, 0, 80, 80
1, 584640, Note_on_c, 0, 83, 80
1, 584981, Note_on_c, 0, 76, 0
1, 584981, Note_on_c, 0, 80, 0
1, 584981, Note_on_c, 0, 83, 0
1, 585000, Note_on_c, 0, 75, 80
1, 585000, Note_on_c, 0, 78, 80
1, 585000, Note_on_c, 0, 83, 80
1, 585569, Note_on_c, 0, 75, 0
1, 585569, Note_on_c, 0, 78, 0
1, 585569, Note_on_c, 0, 83, 0
1, 585600, Note_on_c, 0, 71, 80
1, 585600, Note_on_c, 0, 78, 80
1, 585600, Note_on_c, 0, 81, 80
1, 586055, Note_on_c, 0, 71, 0
1, 586055, Note_on_c, 0, 78, 0
1, 586055, Note_on_c, 0, 81, 0
1, 586080, Note_on_c, 0, 73, 80
1, 586080, Note_on_c, 0, 76, 80
1, 586080, Note_on_c, 0, 81, 80
1, 586535, Note_on_c, 0, 73, 0
1, 586535, Note_on_c, 0, 76, 0
1, 586535, Note_on_c, 0, 81, 0
1, 586560, Note_on_c, 0, 74, 80
1, 586560, Note_on_c, 0, 78, 80
1, 586560, Note_on_c, 0, 81, 80
1, 586901, Note_on_c, 0, 74, 0
1, 586901, Note_on_c, 0, 78, 0
1, 586901, Note_on_c, 0, 81, 0
1, 586920, Note_on_c, 0, 73, 80
1, 586920, Note_on_c, 0, 76, 80
1, 586920, Note_on_c, 0, 81, 80
1, 587261, Note_on_c, 0, 73, 0
1, 587261, Note_on_c, 0, 76, 0
1, 587261, Note_on_c, 0, 81, 0
1, 587280, Note_on_c, 0, 71, 80
1, 587280, Note_on_c, 0, 78, 80
1, 587280, Note_on_c, 0, 81, 80
1, 587735, Note_on_c, 0, 71, 0
1, 587735, Note_on_c, 0, 78, 0
1, 587735, Note_on_c, 0, 81, 0
1, 587760, Note_on_c, 0, 71, 80
1, 587760, Note_on_c, 0, 78, 80
1, 587760, Note_on_c, 0, 81, 80
1, 587987, Note_on_c, 0, 71, 0
1, 587987, Note_on_c, 0, 78, 0
1, 587987, Note_on_c, 0, 81, 0
1, 588000, Note_on_c, 0, 73, 80
1, 588000, Note_on_c, 0, 76, 80
1, 588000, Note_on_c, 0, 81, 80
1, 588455, Note_on_c, 0, 73, 0
1, 588455, Note_on_c, 0, 76, 0
1, 588455, Note_on_c, 0, 81, 0
1, 588480, Note_on_c, 0, 74, 80
1, 588480, Note_on_c, 0, 78, 80
1, 588480, Note_on_c, 0, 81, 80
1, 588821, Note_on_c, 0, 74, 0
1, 588821, Note_on_c, 0, 78, 0
1, 588821, Note_on_c, 0, 81, 0
1, 588840, Note_on_c, 0, 73, 80
1, 588840, Note_on_c, 0, 76, 80
1, 588840, Note_on_c, 0, 81, 80
1, 589409, Note_on_c, 0, 73, 0
1, 589409, Note_on_c, 0, 76, 0
1, 589409, Note_on_c, 0, 81, 0
1, 589440, Note_on_c, 0, 71, 80
1, 589440, Note_on_c, 0, 78, 80
1, 589440, Note_on_c, 0, 81, 80
1, 589895, Note_on_c, 0, 71, 0
1, 589895, Note_on_c, 0, 78, 0
1, 589895, Note_on_c, 0, 81, 0
1, 589920, Note_on_c, 0, 73, 80
1, 589920, Note_on_c, 0, 76, 80
1, 589920, Note_on_c, 0, 81, 80
1, 590375, Note_on_c, 0, 73, 0
1, 590375, Note_on_c, 0, 76, 0
1, 590375, Note_on_c, 0, 81, 0
1, 590400, Note_on_c, 0, 74, 80
1, 590400, Note_on_c, 0, 78, 80
1, 590400, Note_on_c, 0, 81, 80
1, 590741, Note_on_c, 0, 74, 0
1, 590741, Note_on_c, 0, 78, 0
1, 590741, Note_on_c, 0, 81, 0
1, 590760, Note_on_c, 0, 73, 80
1, 590760, Note_on_c, 0, 76, 80
1, 590760, Note_on_c, 0, 81, 80
1, 591101, Note_on_c, 0, 73, 0
1, 591101, Note_on_c, 0, 76, 0
1, 591101, Note_on_c, 0, 81, 0
1, 591120, Note_on_c, 0, 71, 80
1, 591120, Note_on_c, 0, 78, 80
1, 591120, Note_on_c, 0, 81, 80
1, 591575, Note_on_c, 0, 71, 0
1, 591575, Note_on_c, 0, 78, 0
1, 591575, Note_on_c, 0, 81, 0
1, 591600, Note_on_c, 0, 71, 80
1, 591600, Note_on_c, 0, 78, 80
1, 591600, Note_on_c, 0, 81, 80
1, 591827, Note_on_c, 0, 71, 0
1, 591827, Note_on_c, 0, 78, 0
1, 591827, Note_on_c, 0, 81, 0
1, 591840, Note_on_c, 0, 73, 80
1, 591840, Note_on_c, 0, 76, 80
1, 591840, Note_on_c, 0, 81, 80
1, 592295, Note_on_c, 0, 73, 0
1, 592295, Note_on_c, 0, 76, 0
1, 592295, Note_on_c, 0, 81, 0
1, 592320, Note_on_c, 0, 74, 80
1, 592320, Note_on_c, 0, 78, 80
1, 592320, Note_on_c, 0, 81, 80
1, 592661, Note_on_c, 0, 74, 0
1, 592661, Note_on_c, 0, 78, 0
1, 592661, Note_on_c, 0, 81, 0
1, 592680, Note_on_c, 0, 73, 80
1, 592680, Note_on_c, 0, 76, 80
1, 592680, Note_on_c, 0, 81, 80
1, 593249, Note_on_c, 0, 73, 0
1, 593249, Note_on_c, 0, 76, 0
1, 593249, Note_on_c, 0, 81, 0
1, 593280, Note_on_c, 0, 71, 80
1, 593507, Note_on_c, 0, 71, 0
1, 593520, Note_on_c, 0, 83, 80
1, 593747, Note_on_c, 0, 83, 0
1, 593760, Note_on_c, 0, 81, 80
1, 593987, Note_on_c, 0, 81, 0
1, 594000, Note_on_c, 0, 83, 80
1, 594113, Note_on_c, 0, 83, 0
1, 594120, Note_on_c, 0, 81, 80
1, 594233, Note_on_c, 0, 81, 0
1, 594240, Note_on_c, 0, 74, 80
1, 594353, Note_on_c, 0, 74, 0
1, 594360, Note_on_c, 0, 78, 80
1, 594473, Note_on_c, 0, 78, 0
1, 594480, Note_on_c, 0, 76, 80
1, 594593, Note_on_c, 0, 76, 0
1, 594600, Note_on_c, 0, 71, 80
1, 594713, Note_on_c, 0, 71, 0
1, 594720, Note_on_c, 0, 74, 80
1, 594947, Note_on_c, 0, 74, 0
1, 594960, Note_on_c, 0, 76, 80
1, 595187, Note_on_c, 0, 76, 0
1, 595200, Note_on_c, 0, 71, 80
1, 595427, Note_on_c, 0, 71, 0
1, 595440, Note_on_c, 0, 83, 80
1, 595667, Note_on_c, 0, 83, 0
1, 595680, Note_on_c, 0, 81, 80
1, 595907, Note_on_c, 0, 81, 0
1, 595920, Note_on_c, 0, 83, 80
1, 596033, Note_on_c, 0, 83, 0
1, 596040, Note_on_c, 0, 81, 80
1, 596153, Note_on_c, 0, 81, 0
1, 596160, Note_on_c, 0, 74, 80
1, 596273, Note_on_c, 0, 74, 0
1, 596280, Note_on_c, 0, 78, 80
1, 596393, Note_on_c, 0, 78, 0
1, 596400, Note_on_c, 0, 76, 80
1, 596513, Note_on_c, 0, 76, 0
1, 596520, Note_on_c, 0, 71, 80
1, 596633, Note_on_c, 0, 71, 0
1, 596640, Note_on_c, 0, 74, 80
1, 596867, Note_on_c, 0, 74, 0
1, 596880, Note_on_c, 0, 76, 80
1, 597107, Note_on_c, 0, 76, 0
1, 597120, Note_on_c, 0, 71, 80
1, 597347, Note_on_c, 0, 71, 0
1, 597360, Note_on_c, 0, 83, 80
1, 597587, Note_on_c, 0, 83, 0
1, 597600, Note_on_c, 0, 81, 80
1, 597827, Note_on_c, 0, 81, 0
1, 597840, Note_on_c, 0, 83, 80
1, 597953, Note_on_c, 0, 83, 0
1, 597960, Note_on_c, 0, 81, 80
1, 598073, Note_on_c, 0, 81, 0
1, 598080, Note_on_c, 0, 74, 80
1, 598193, Note_on_c, 0, 74, 0
1, 598200, Note_on_c, 0, 78, 80
1, 598313, Note_on_c, 0, 78, 0
1, 598320, Note_on_c, 0, 76, 80
1, 598433, Note_on_c, 0, 76, 0
1, 598440, Note_on_c, 0, 71, 80
1, 598553, Note_on_c, 0, 71, 0
1, 598560, Note_on_c, 0, 74, 80
1, 598787, Note_on_c, 0, 74, 0
1, 598800, Note_on_c, 0, 76, 80
1, 599027, Note_on_c, 0, 76, 0
1, 599040, Note_on_c, 0, 71, 80
1, 599267, Note_on_c, 0, 71, 0
1, 599280, Note_on_c, 0, 83, 80
1, 599507, Note_on_c, 0, 83, 0
1, 599520, Note_on_c, 0, 81, 80
1, 599747, Note_on_c, 0, 81, 0
1, 599760, Note_on_c, 0, 83, 80
1, 599873, Note_on_c, 0, 83, 0
1, 599880, Note_on_c, 0, 81, 80
1, 599993, Note_on_c, 0, 81, 0
1, 600000, Note_on_c, 0, 74, 80
1, 600113, Note_on_c, 0, 74, 0
1, 600120, Note_on_c, 0, 78, 80
1, 600233, Note_on_c, 0, 78, 0
1, 600240, Note_on_c, 0, 76, 80
1, 600353, Note_on_c, 0, 76, 0
1, 600360, Note_on_c, 0, 71, 80
1, 600473, Note_on_c, 0, 71, 0
1, 600480, Note_on_c, 0, 74, 80
1, 600707, Note_on_c, 0, 74, 0
1, 600720, Note_on_c, 0, 76, 80
1, 600947, Note_on_c, 0, 76, 0
1, 600960, Note_on_c, 0, 71, 80
1, 601187, Note_on_c, 0, 71, 0
1, 601200, Note_on_c, 0, 83, 80
1, 601427, Note_on_c, 0, 83, 0
1, 601440, Note_on_c, 0, 81, 80
1, 601667, Note_on_c, 0, 81, 0
1, 601680, Note_on_c, 0, 83, 80
1, 601793, Note_on_c, 0, 83, 0
1, 601800, Note_on_c, 0, 81, 80
1, 601913, Note_on_c, 0, 81, 0
1, 601920, Note_on_c, 0, 74, 80
1, 602033, Note_on_c, 0, 74, 0
1, 602040, Note_on_c, 0, 78, 80
1, 602153, Note_on_c, 0, 78, 0
1, 602160, Note_on_c, 0, 76, 80
1, 602273, Note_on_c, 0, 76, 0
1, 602280, Note_on_c, 0, 71, 80
1, 602393, Note_on_c, 0, 71, 0
1, 602400, Note_on_c, 0, 74, 80
1, 602627, Note_on_c, 0, 74, 0
1, 602640, Note_on_c, 0, 76, 80
1, 602867, Note_on_c, 0, 76, 0
1, 602880, Note_on_c, 0, 71, 80
1, 603107, Note_on_c, 0, 71, 0
1, 603120, Note_on_c, 0, 83, 80
1, 603347, Note_on_c, 0, 83, 0
1, 603360, Note_on_c, 0, 81, 80
1, 603587, Note_on_c, 0, 81, 0
1, 603600, Note_on_c, 0, 83, 80
1, 603713, Note_on_c, 0, 83, 0
1, 603720, Note_on_c, 0, 81, 80
1, 603833, Note_on_c, 0, 81, 0
1, 603840, Note_on_c, 0, 74, 80
1, 603953, Note_on_c, 0, 74, 0
1, 603960, Note_on_c, 0, 78, 80
1, 604073, Note_on_c, 0, 78, 0
1, 604080, Note_on_c, 0, 76, 80
1, 604193, Note_on_c, 0, 76, 0
1, 604200, Note_on_c, 0, 71, 80
1, 604313, Note_on_c, 0, 71, 0
1, 604320, Note_on_c, 0, 74, 80
1, 604547, Note_on_c, 0, 74, 0
1, 604560, Note_on_c, 0, 76, 80
1, 604787, Note_on_c, 0, 76, 0
1, 605040, Note_on_c, 0, 82, 80
1, 605267, Note_on_c, 0, 82, 0
1, 605280, Note_on_c, 0, 80, 80
1, 605507, Note_on_c, 0, 80, 0
1, 605520, Note_on_c, 0, 82, 80
1, 605633, Note_on_c, 0, 82, 0
1, 605640, Note_on_c, 0, 78, 80
1, 605753, Note_on_c, 0, 78, 0
1, 605880, Note_on_c, 0, 78, 80
1, 605993, Note_on_c, 0, 78, 0
1, 606000, Note_on_c, 0, 76, 80
1, 606227, Note_on_c, 0, 76, 0
1, 606240, Note_on_c, 0, 74, 80
1, 606467, Note_on_c, 0, 74, 0
1, 606480, Note_on_c, 0, 76, 80
1, 606707, Note_on_c, 0, 76, 0
1, 606960, Note_on_c, 0, 82, 80
1, 607187, Note_on_c, 0, 82, 0
1, 607200, Note_on_c, 0, 80, 80
1, 607427, Note_on_c, 0, 80, 0
1, 607440, Note_on_c, 0, 82, 80
1, 607553, Note_on_c, 0, 82, 0
1, 607560, Note_on_c, 0, 78, 80
1, 607673, Note_on_c, 0, 78, 0
1, 607800, Note_on_c, 0, 78, 80
1, 607913, Note_on_c, 0, 78, 0
1, 607920, Note_on_c, 0, 76, 80
1, 608147, Note_on_c, 0, 76, 0
1, 608160, Note_on_c, 0, 74, 80
1, 608387, Note_on_c, 0, 74, 0
1, 608400, Note_on_c, 0, 64, 80
1, 608400, Note_on_c, 0, 76, 80
1, 608627, Note_on_c, 0, 64, 0
1, 608627, Note_on_c, 0, 76, 0
1, 608640, Key_signature, -5, "major"
1, 608640, Tempo, 428572
1, 608640, Note_on_c, 0, 77, 80
1, 608640, Note_on_c, 0, 66, 80
1, 608640, Note_on_c, 0, 70, 80
1, 608879, Note_on_c, 0, 66, 0
1, 608879, Note_on_c, 0, 70, 0
1, 609120, Note_on_c, 0, 68, 80
1, 609120, Note_on_c, 0, 72, 80
1, 609359, Note_on_c, 0, 68, 0
1, 609359, Note_on_c, 0, 72, 0
1, 609600, Note_on_c, 0, 70, 80
1, 609600, Note_on_c, 0, 73, 80
1, 609941, Note_on_c, 0, 70, 0
1, 609941, Note_on_c, 0, 73, 0
1, 609960, Note_on_c, 0, 68, 80
1, 609960, Note_on_c, 0, 72, 80
1, 610301, Note_on_c, 0, 68, 0
1, 610301, Note_on_c, 0, 72, 0
1, 610320, Note_on_c, 0, 66, 80
1, 610320, Note_on_c, 0, 70, 80
1, 610547, Note_on_c, 0, 66, 0
1, 610547, Note_on_c, 0, 70, 0
1, 610800, Note_on_c, 0, 66, 80
1, 610800, Note_on_c, 0, 70, 80
1, 611027, Note_on_c, 0, 66, 0
1, 611027, Note_on_c, 0, 70, 0
1, 611040, Note_on_c, 0, 68, 80
1, 611040, Note_on_c, 0, 72, 80
1, 611279, Note_on_c, 0, 68, 0
1, 611279, Note_on_c, 0, 72, 0
1, 611375, Note_on_c, 0, 77, 0
1, 611520, Note_on_c, 0, 78, 80
1, 611520, Note_on_c, 0, 70, 80
1, 611520, Note_on_c, 0, 73, 80
1, 611861, Note_on_c, 0, 70, 0
1, 611861, Note_on_c, 0, 73, 0
1, 611880, Note_on_c, 0, 68, 80
1, 611880, Note_on_c, 0, 72, 80
1, 611975, Note_on_c, 0, 78, 0
1, 612000, Note_on_c, 0, 80, 80
1, 612449, Note_on_c, 0, 68, 0
1, 612449, Note_on_c, 0, 72, 0
1, 612455, Note_on_c, 0, 80, 0
1, 612480, Note_on_c, 0, 77, 80
1, 612480, Note_on_c, 0, 66, 80
1, 612480, Note_on_c, 0, 70, 80
1, 612719, Note_on_c, 0, 66, 0
1, 612719, Note_on_c, 0, 70, 0
1, 612960, Note_on_c, 0, 68, 80
1, 612960, Note_on_c, 0, 72, 80
1, 613199, Note_on_c, 0, 68, 0
1, 613199, Note_on_c, 0, 72, 0
1, 613440, Note_on_c, 0, 70, 80
1, 613440, Note_on_c, 0, 73, 80
1, 613781, Note_on_c, 0, 70, 0
1, 613781, Note_on_c, 0, 73, 0
1, 613800, Note_on_c, 0, 68, 80
1, 613800, Note_on_c, 0, 72, 80
1, 614141, Note_on_c, 0, 68, 0
1, 614141, Note_on_c, 0, 72, 0
1, 614160, Note_on_c, 0, 66, 80
1, 614160, Note_on_c, 0, 70, 80
1, 614387, Note_on_c, 0, 66, 0
1, 614387, Note_on_c, 0, 70, 0
1, 614640, Note_on_c, 0, 66, 80
1, 614640, Note_on_c, 0, 70, 80
1, 614867, Note_on_c, 0, 66, 0
1, 614867, Note_on_c, 0, 70, 0
1, 614880, Note_on_c, 0, 68, 80
1, 614880, Note_on_c, 0, 72, 80
1, 615119, Note_on_c, 0, 68, 0
1, 615119, Note_on_c, 0, 72, 0
1, 615215, Note_on_c, 0, 77, 0
1, 615360, Note_on_c, 0, 73, 80
1, 615360, Note_on_c, 0, 70, 80
1, 615701, Note_on_c, 0, 70, 0
1, 615720, Note_on_c, 0, 68, 80
1, 615720, Note_on_c, 0, 72, 80
1, 615815, Note_on_c, 0, 73, 0
1, 615840, Note_on_c, 0, 77, 80
1, 616289, Note_on_c, 0, 68, 0
1, 616289, Note_on_c, 0, 72, 0
1, 616295, Note_on_c, 0, 77, 0
1, 616320, Note_on_c, 0, 66, 80
1, 616320, Note_on_c, 0, 70, 80
1, 616559, Note_on_c, 0, 66, 0
1, 616559, Note_on_c, 0, 70, 0
1, 616560, Note_on_c, 0, 75, 80
1, 616787, Note_on_c, 0, 75, 0
1, 616800, Note_on_c, 0, 82, 80
1, 616800, Note_on_c, 0, 72, 80
1, 617027, Note_on_c, 0, 82, 0
1, 617039, Note_on_c, 0, 72, 0
1, 617040, Note_on_c, 0, 78, 80
1, 617267, Note_on_c, 0, 78, 0
1, 617280, Note_on_c, 0, 80, 80
1, 617280, Note_on_c, 0, 70, 80
1, 617280, Note_on_c, 0, 73, 80
1, 617393, Note_on_c, 0, 80, 0
1, 617400, Note_on_c, 0, 78, 80
1, 617513, Note_on_c, 0, 78, 0
1, 617520, Note_on_c, 0, 75, 80
1, 617621, Note_on_c, 0, 70, 0
1, 617621, Note_on_c, 0, 73, 0
1, 617633, Note_on_c, 0, 75, 0
1, 617640, Note_on_c, 0, 73, 80
1, 617640, Note_on_c, 0, 68, 80
1, 617640, Note_on_c, 0, 72, 80
1, 617867, Note_on_c, 0, 73, 0
1, 617880, Note_on_c, 0, 75, 80
1, 617981, Note_on_c, 0, 68, 0
1, 617981, Note_on_c, 0, 72, 0
1, 617993, Note_on_c, 0, 75, 0
1, 618000, Note_on_c, 0, 70, 80
1, 618000, Note_on_c, 0, 66, 80
1, 618227, Note_on_c, 0, 70, 0
1, 618227, Note_on_c, 0, 66, 0
1, 618480, Note_on_c, 0, 70, 80
1, 618480, Note_on_c, 0, 66, 80
1, 618707, Note_on_c, 0, 70, 0
1, 618707, Note_on_c, 0, 66, 0
1, 618720, Note_on_c, 0, 75, 80
1, 618720, Note_on_c, 0, 68, 80
1, 618720, Note_on_c, 0, 72, 80
1, 618947, Note_on_c, 0, 75, 0
1, 618959, Note_on_c, 0, 68, 0
1, 618959, Note_on_c, 0, 72, 0
1, 618960, Note_on_c, 0, 78, 80
1, 619187, Note_on_c, 0, 78, 0
1, 619200, Note_on_c, 0, 80, 80
1, 619200, Note_on_c, 0, 70, 80
1, 619200, Note_on_c, 0, 73, 80
1, 619313, Note_on_c, 0, 80, 0
1, 619320, Note_on_c, 0, 78, 80
1, 619433, Note_on_c, 0, 78, 0
1, 619440, Note_on_c, 0, 75, 80
1, 619541, Note_on_c, 0, 70, 0
1, 619541, Note_on_c, 0, 73, 0
1, 619553, Note_on_c, 0, 75, 0
1, 619560, Note_on_c, 0, 73, 80
1, 619560, Note_on_c, 0, 68, 80
1, 619560, Note_on_c, 0, 72, 80
1, 619901, Note_on_c, 0, 73, 0
1, 619920, Note_on_c, 0, 75, 80
1, 620129, Note_on_c, 0, 68, 0
1, 620129, Note_on_c, 0, 72, 0
1, 620147, Note_on_c, 0, 75, 0
1, 620160, Note_on_c, 0, 66, 80
1, 620160, Note_on_c, 0, 70, 80
1, 620399, Note_on_c, 0, 66, 0
1, 620399, Note_on_c, 0, 70, 0
1, 620400, Note_on_c, 0, 75, 80
1, 620627, Note_on_c, 0, 75, 0
1, 620640, Note_on_c, 0, 82, 80
1, 620640, Note_on_c, 0, 72, 80
1, 620867, Note_on_c, 0, 82, 0
1, 620879, Note_on_c, 0, 72, 0
1, 620880, Note_on_c, 0, 78, 80
1, 621107, Note_on_c, 0, 78, 0
1, 621120, Note_on_c, 0, 80, 80
1, 621120, Note_on_c, 0, 70, 80
1, 621120, Note_on_c, 0, 73, 80
1, 621233, Note_on_c, 0, 80, 0
1, 621240, Note_on_c, 0, 78, 80
1, 621353, Note_on_c, 0, 78, 0
1, 621360, Note_on_c, 0, 75, 80
1, 621461, Note_on_c, 0, 70, 0
1, 621461, Note_on_c, 0, 73, 0
1, 621473, Note_on_c, 0, 75, 0
1, 621480, Note_on_c, 0, 73, 80
1, 621480, Note_on_c, 0, 68, 80
1, 621480, Note_on_c, 0, 72, 80
1, 621707, Note_on_c, 0, 73, 0
1, 621720, Note_on_c, 0, 75, 80
1, 621821, Note_on_c, 0, 68, 0
1, 621821, Note_on_c, 0, 72, 0
1, 621833, Note_on_c, 0, 75, 0
1, 621840, Note_on_c, 0, 70, 80
1, 621840, Note_on_c, 0, 66, 80
1, 622067, Note_on_c, 0, 70, 0
1, 622067, Note_on_c, 0, 66, 0
1, 622320, Note_on_c, 0, 70, 80
1, 622320, Note_on_c, 0, 66, 80
1, 622547, Note_on_c, 0, 70, 0
1, 622547, Note_on_c, 0, 66, 0
1, 622560, Note_on_c, 0, 75, 80
1, 622560, Note_on_c, 0, 68, 80
1, 622560, Note_on_c, 0, 72, 80
1, 622787, Note_on_c, 0, 75, 0
1, 622799, Note_on_c, 0, 68, 0
1, 622799, Note_on_c, 0, 72, 0
1, 622800, Note_on_c, 0, 78, 80
1, 623027, Note_on_c, 0, 78, 0
1, 623040, Note_on_c, 0, 80, 80
1, 623040, Note_on_c, 0, 70, 80
1, 623040, Note_on_c, 0, 73, 80
1, 623153, Note_on_c, 0, 80, 0
1, 623160, Note_on_c, 0, 78, 80
1, 623273, Note_on_c, 0, 78, 0
1, 623280, Note_on_c, 0, 75, 80
1, 623381, Note_on_c, 0, 70, 0
1, 623381, Note_on_c, 0, 73, 0
1, 623393, Note_on_c, 0, 75, 0
1, 623400, Note_on_c, 0, 73, 80
1, 623400, Note_on_c, 0, 68, 80
1, 623400, Note_on_c, 0, 72, 80
1, 623741, Note_on_c, 0, 73, 0
1, 623760, Note_on_c, 0, 75, 80
1, 623969, Note_on_c, 0, 68, 0
1, 623969, Note_on_c, 0, 72, 0
1, 623987, Note_on_c, 0, 75, 0
1, 624000, Note_on_c, 0, 63, 80
1, 624000, Note_on_c, 0, 75, 80
1, 624239, Note_on_c, 0, 63, 0
1, 624239, Note_on_c, 0, 75, 0
1, 624240, Note_on_c, 0, 66, 80
1, 624240, Note_on_c, 0, 78, 80
1, 624359, Note_on_c, 0, 66, 0
1, 624359, Note_on_c, 0, 78, 0
1, 624480, Note_on_c, 0, 63, 80
1, 624480, Note_on_c, 0, 75, 80
1, 624593, Note_on_c, 0, 63, 0
1, 624593, Note_on_c, 0, 75, 0
1, 624600, Note_on_c, 0, 58, 80
1, 624600, Note_on_c, 0, 70, 80
1, 624839, Note_on_c, 0, 58, 0
1, 624839, Note_on_c, 0, 70, 0
1, 624840, Note_on_c, 0, 61, 80
1, 624840, Note_on_c, 0, 73, 80
1, 625067, Note_on_c, 0, 61, 0
1, 625067, Note_on_c, 0, 73, 0
1, 625080, Note_on_c, 0, 61, 80
1, 625080, Note_on_c, 0, 73, 80
1, 625193, Note_on_c, 0, 61, 0
1, 625193, Note_on_c, 0, 73, 0
1, 625200, Note_on_c, 0, 63, 80
1, 625200, Note_on_c, 0, 75, 80
1, 625313, Note_on_c, 0, 63, 0
1, 625313, Note_on_c, 0, 75, 0
1, 625320, Note_on_c, 0, 63, 80
1, 625320, Note_on_c, 0, 75, 80
1, 625433, Note_on_c, 0, 63, 0
1, 625433, Note_on_c, 0, 75, 0
1, 625440, Note_on_c, 0, 68, 80
1, 625440, Note_on_c, 0, 80, 80
1, 625559, Note_on_c, 0, 68, 0
1, 625559, Note_on_c, 0, 80, 0
1, 625680, Note_on_c, 0, 66, 80
1, 625680, Note_on_c, 0, 78, 80
1, 625799, Note_on_c, 0, 66, 0
1, 625799, Note_on_c, 0, 78, 0
1, 625920, Note_on_c, 0, 63, 80
1, 625920, Note_on_c, 0, 75, 80
1, 626039, Note_on_c, 0, 63, 0
1, 626039, Note_on_c, 0, 75, 0
1, 626160, Note_on_c, 0, 66, 80
1, 626160, Note_on_c, 0, 78, 80
1, 626279, Note_on_c, 0, 66, 0
1, 626279, Note_on_c, 0, 78, 0
1, 626400, Note_on_c, 0, 68, 80
1, 626400, Note_on_c, 0, 80, 80
1, 626513, Note_on_c, 0, 68, 0
1, 626513, Note_on_c, 0, 80, 0
1, 626520, Note_on_c, 0, 70, 80
1, 626520, Note_on_c, 0, 82, 80
1, 626639, Note_on_c, 0, 70, 0
1, 626639, Note_on_c, 0, 82, 0
1, 626760, Note_on_c, 0, 66, 80
1, 626760, Note_on_c, 0, 78, 80
1, 626987, Note_on_c, 0, 66, 0
1, 626987, Note_on_c, 0, 78, 0
1, 627000, Note_on_c, 0, 66, 80
1, 627000, Note_on_c, 0, 78, 80
1, 627113, Note_on_c, 0, 66, 0
1, 627113, Note_on_c, 0, 78, 0
1, 627120, Note_on_c, 0, 63, 80
1, 627120, Note_on_c, 0, 75, 80
1, 627239, Note_on_c, 0, 63, 0
1, 627239, Note_on_c, 0, 75, 0
1, 627360, Note_on_c, 0, 61, 80
1, 627360, Note_on_c, 0, 73, 80
1, 627479, Note_on_c, 0, 61, 0
1, 627479, Note_on_c, 0, 73, 0
1, 627600, Note_on_c, 0, 62, 80
1, 627600, Note_on_c, 0, 74, 80
1, 627719, Note_on_c, 0, 62, 0
1, 627719, Note_on_c, 0, 74, 0
1, 627840, Note_on_c, 0, 63, 80
1, 627840, Note_on_c, 0, 75, 80
1, 627953, Note_on_c, 0, 63, 0
1, 627953, Note_on_c, 0, 75, 0
1, 627960, Note_on_c, 0, 63, 80
1, 627960, Note_on_c, 0, 75, 80
1, 628073, Note_on_c, 0, 63, 0
1, 628073, Note_on_c, 0, 75, 0
1, 628080, Note_on_c, 0, 66, 80
1, 628080, Note_on_c, 0, 78, 80
1, 628193, Note_on_c, 0, 66, 0
1, 628193, Note_on_c, 0, 78, 0
1, 628200, Note_on_c, 0, 68, 80
1, 628200, Note_on_c, 0, 80, 80
1, 628313, Note_on_c, 0, 68, 0
1, 628313, Note_on_c, 0, 80, 0
1, 628320, Note_on_c, 0, 63, 80
1, 628559, Note_on_c, 0, 63, 0
1, 628800, Note_on_c, 0, 63, 80
1, 628800, Note_on_c, 0, 75, 80
1, 628913, Note_on_c, 0, 63, 0
1, 628913, Note_on_c, 0, 75, 0
1, 628920, Note_on_c, 0, 63, 80
1, 628920, Note_on_c, 0, 75, 80
1, 629033, Note_on_c, 0, 63, 0
1, 629033, Note_on_c, 0, 75, 0
1, 629040, Note_on_c, 0, 66, 80
1, 629040, Note_on_c, 0, 78, 80
1, 629153, Note_on_c, 0, 66, 0
1, 629153, Note_on_c, 0, 78, 0
1, 629160, Note_on_c, 0, 68, 80
1, 629160, Note_on_c, 0, 80, 80
1, 629273, Note_on_c, 0, 68, 0
1, 629273, Note_on_c, 0, 80, 0
1, 629280, Note_on_c, 0, 63, 80
1, 629519, Note_on_c, 0, 63, 0
1, 629760, Note_on_c, 0, 63, 80
1, 629760, Note_on_c, 0, 75, 80
1, 629873, Note_on_c, 0, 63, 0
1, 629873, Note_on_c, 0, 75, 0
1, 629880, Note_on_c, 0, 63, 80
1, 629880, Note_on_c, 0, 75, 80
1, 629993, Note_on_c, 0, 63, 0
1, 629993, Note_on_c, 0, 75, 0
1, 630000, Note_on_c, 0, 66, 80
1, 630000, Note_on_c, 0, 78, 80
1, 630113, Note_on_c, 0, 66, 0
1, 630113, Note_on_c, 0, 78, 0
1, 630120, Note_on_c, 0, 68, 80
1, 630120, Note_on_c, 0, 80, 80
1, 630233, Note_on_c, 0, 68, 0
1, 630233, Note_on_c, 0, 80, 0
1, 630240, Note_on_c, 0, 63, 80
1, 630240, Note_on_c, 0, 75, 80
1, 630353, Note_on_c, 0, 63, 0
1, 630353, Note_on_c, 0, 75, 0
1, 630360, Note_on_c, 0, 63, 80
1, 630360, Note_on_c, 0, 75, 80
1, 630473, Note_on_c, 0, 63, 0
1, 630473, Note_on_c, 0, 75, 0
1, 630480, Note_on_c, 0, 68, 80
1, 630480, Note_on_c, 0, 80, 80
1, 630593, Note_on_c, 0, 68, 0
1, 630593, Note_on_c, 0, 80, 0
1, 630600, Note_on_c, 0, 70, 80
1, 630600, Note_on_c, 0, 82, 80
1, 630713, Note_on_c, 0, 70, 0
1, 630713, Note_on_c, 0, 82, 0
1, 630720, Note_on_c, 0, 63, 80
1, 630720, Note_on_c, 0, 75, 80
1, 630959, Note_on_c, 0, 63, 0
1, 630959, Note_on_c, 0, 75, 0
1, 631200, Note_on_c, 0, 63, 80
1, 631313, Note_on_c, 0, 63, 0
1, 631320, Note_on_c, 0, 65, 80
1, 631433, Note_on_c, 0, 65, 0
1, 631440, Note_on_c, 0, 66, 80
1, 631553, Note_on_c, 0, 66, 0
1, 631560, Note_on_c, 0, 70, 80
1, 631673, Note_on_c, 0, 70, 0
1, 631680, Key_signature, -6, "major"
1, 631680, Note_on_c, 0, 63, 80
1, 631680, Note_on_c, 0, 66, 80
1, 631680, Note_on_c, 0, 71, 80
1, 632363, Note_on_c, 0, 63, 0
1, 632363, Note_on_c, 0, 66, 0
1, 632363, Note_on_c, 0, 71, 0
1, 632400, Note_on_c, 0, 63, 80
1, 632513, Note_on_c, 0, 63, 0
1, 632520, Note_on_c, 0, 59, 80
1, 632633, Note_on_c, 0, 59, 0
1, 632640, Note_on_c, 0, 63, 80
1, 633323, Note_on_c, 0, 63, 0
1, 633360, Note_on_c, 0, 59, 80
1, 633587, Note_on_c, 0, 59, 0
1, 633600, Note_on_c, 0, 53, 80
1, 633600, Note_on_c, 0, 58, 80
1, 633600, Note_on_c, 0, 62, 80
1, 634055, Note_on_c, 0, 53, 0
1, 634055, Note_on_c, 0, 58, 0
1, 634055, Note_on_c, 0, 62, 0
1, 634080, Note_on_c, 0, 58, 80
1, 634535, Note_on_c, 0, 58, 0
1, 634560, Note_on_c, 0, 58, 80
1, 634560, Note_on_c, 0, 70, 80
1, 635015, Note_on_c, 0, 58, 0
1, 635015, Note_on_c, 0, 70, 0
1, 635040, Note_on_c, 0, 57, 80
1, 635040, Note_on_c, 0, 69, 80
1, 635495, Note_on_c, 0, 57, 0
1, 635495, Note_on_c, 0, 69, 0
1, 635520, Note_on_c, 0, 56, 80
1, 635520, Note_on_c, 0, 68, 80
1, 636203, Note_on_c, 0, 56, 0
1, 636203, Note_on_c, 0, 68, 0
1, 636240, Note_on_c, 0, 65, 80
1, 636467, Note_on_c, 0, 65, 0
1, 636480, Note_on_c, 0, 58, 80
1, 636480, Note_on_c, 0, 62, 80
1, 637163, Note_on_c, 0, 58, 0
1, 637163, Note_on_c, 0, 62, 0
1, 637200, Note_on_c, 0, 70, 80
1, 637427, Note_on_c, 0, 70, 0
1, 637440, Note_on_c, 0, 63, 80
1, 637440, Note_on_c, 0, 75, 80
1, 637895, Note_on_c, 0, 63, 0
1, 637895, Note_on_c, 0, 75, 0
1, 637920, Note_on_c, 0, 65, 80
1, 637920, Note_on_c, 0, 77, 80
1, 638375, Note_on_c, 0, 65, 0
1, 638375, Note_on_c, 0, 77, 0
1, 638400, Note_on_c, 0, 66, 80
1, 638400, Note_on_c, 0, 78, 80
1, 638855, Note_on_c, 0, 66, 0
1, 638855, Note_on_c, 0, 78, 0
1, 638880, Note_on_c, 0, 66, 80
1, 638993, Note_on_c, 0, 66, 0
1, 639000, Note_on_c, 0, 65, 80
1, 639113, Note_on_c, 0, 65, 0
1, 639120, Note_on_c, 0, 66, 80
1, 639233, Note_on_c, 0, 66, 0
1, 639240, Note_on_c, 0, 70, 80
1, 639353, Note_on_c, 0, 70, 0
1, 639360, Note_on_c, 0, 63, 80
1, 639360, Note_on_c, 0, 66, 80
1, 639360, Note_on_c, 0, 71, 80
1, 640043, Note_on_c, 0, 63, 0
1, 640043, Note_on_c, 0, 66, 0
1, 640043, Note_on_c, 0, 71, 0
1, 640080, Note_on_c, 0, 63, 80
1, 640193, Note_on_c, 0, 63, 0
1, 640200, Note_on_c, 0, 59, 80
1, 640313, Note_on_c, 0, 59, 0
1, 640320, Note_on_c, 0, 63, 80
1, 641003, Note_on_c, 0, 63, 0
1, 641040, Note_on_c, 0, 59, 80
1, 641267, Note_on_c, 0, 59, 0
1, 641280, Note_on_c, 0, 53, 80
1, 641280, Note_on_c, 0, 58, 80
1, 641280, Note_on_c, 0, 62, 80
1, 641735, Note_on_c, 0, 53, 0
1, 641735, Note_on_c, 0, 58, 0
1, 641735, Note_on_c, 0, 62, 0
1, 641760, Note_on_c, 0, 58, 80
1, 642215, Note_on_c, 0, 58, 0
1, 642240, Note_on_c, 0, 58, 80
1, 642240, Note_on_c, 0, 70, 80
1, 642695, Note_on_c, 0, 58, 0
1, 642695, Note_on_c, 0, 70, 0
1, 642720, Note_on_c, 0, 57, 80
1, 642720, Note_on_c, 0, 69, 80
1, 643175, Note_on_c, 0, 57, 0
1, 643175, Note_on_c, 0, 69, 0
1, 643200, Note_on_c, 0, 56, 80
1, 643200, Note_on_c, 0, 68, 80
1, 643883, Note_on_c, 0, 56, 0
1, 643883, Note_on_c, 0, 68, 0
1, 643920, Note_on_c, 0, 65, 80
1, 644147, Note_on_c, 0, 65, 0
1, 644160, Note_on_c, 0, 58, 80
1, 644160, Note_on_c, 0, 62, 80
1, 645071, Note_on_c, 0, 58, 0
1, 645071, Note_on_c, 0, 62, 0
1, 645120, Note_on_c, 0, 73, 80
1, 645461, Note_on_c, 0, 73, 0
1, 645480, Note_on_c, 0, 73, 80
1, 645821, Note_on_c, 0, 73, 0
1, 645840, Note_on_c, 0, 73, 80
1, 646067, Note_on_c, 0, 73, 0
1, 646080, Note_on_c, 0, 73, 80
1, 646421, Note_on_c, 0, 73, 0
1, 646440, Note_on_c, 0, 73, 80
1, 646553, Note_on_c, 0, 73, 0
1, 646560, Note_on_c, 0, 74, 80
1, 646787, Note_on_c, 0, 74, 0
1, 646800, Note_on_c, 0, 73, 80
1, 646913, Note_on_c, 0, 73, 0
1, 646920, Note_on_c, 0, 74, 80
1, 647033, Note_on_c, 0, 74, 0
1, 647040, Key_signature, -3, "major"
1, 647040, Note_on_c, 0, 77, 80
1, 647495, Note_on_c, 0, 77, 0
1, 647520, Note_on_c, 0, 75, 80
1, 647747, Note_on_c, 0, 75, 0
1, 647760, Note_on_c, 0, 74, 80
1, 647873, Note_on_c, 0, 74, 0
1, 647880, Note_on_c, 0, 75, 80
1, 648449, Note_on_c, 0, 75, 0
1, 648480, Note_on_c, 0, 74, 80
1, 648707, Note_on_c, 0, 74, 0
1, 648720, Note_on_c, 0, 72, 80
1, 648947, Note_on_c, 0, 72, 0
1, 648960, Note_on_c, 0, 72, 80
1, 649187, Note_on_c, 0, 72, 0
1, 649200, Note_on_c, 0, 74, 80
1, 649427, Note_on_c, 0, 74, 0
1, 649440, Note_on_c, 0, 72, 80
1, 649667, Note_on_c, 0, 72, 0
1, 649680, Note_on_c, 0, 70, 80
1, 649793, Note_on_c, 0, 70, 0
1, 649800, Note_on_c, 0, 65, 80
1, 650369, Note_on_c, 0, 65, 0
1, 650400, Note_on_c, 0, 62, 80
1, 650627, Note_on_c, 0, 62, 0
1, 650640, Note_on_c, 0, 63, 80
1, 650867, Note_on_c, 0, 63, 0
1, 650880, Note_on_c, 0, 65, 80
1, 651221, Note_on_c, 0, 65, 0
1, 651240, Note_on_c, 0, 65, 80
1, 651581, Note_on_c, 0, 65, 0
1, 651600, Note_on_c, 0, 67, 80
1, 651827, Note_on_c, 0, 67, 0
1, 651840, Note_on_c, 0, 65, 80
1, 652295, Note_on_c, 0, 65, 0
1, 652320, Note_on_c, 0, 72, 80
1, 652547, Note_on_c, 0, 72, 0
1, 652560, Note_on_c, 0, 69, 80
1, 652787, Note_on_c, 0, 69, 0
1, 652800, Note_on_c, 0, 71, 80
1, 653141, Note_on_c, 0, 71, 0
1, 653160, Note_on_c, 0, 71, 80
1, 653501, Note_on_c, 0, 71, 0
1, 653520, Note_on_c, 0, 72, 80
1, 653747, Note_on_c, 0, 72, 0
1, 653760, Note_on_c, 0, 74, 80
1, 654215, Note_on_c, 0, 74, 0
1, 654240, Note_on_c, 0, 72, 80
1, 654467, Note_on_c, 0, 72, 0
1, 654480, Note_on_c, 0, 74, 80
1, 654707, Note_on_c, 0, 74, 0
1, 654960, Note_on_c, 0, 77, 80
1, 655187, Note_on_c, 0, 77, 0
1, 655200, Note_on_c, 0, 75, 80
1, 655427, Note_on_c, 0, 75, 0
1, 655440, Note_on_c, 0, 74, 80
1, 655553, Note_on_c, 0, 74, 0
1, 655560, Note_on_c, 0, 75, 80
1, 656129, Note_on_c, 0, 75, 0
1, 656160, Note_on_c, 0, 74, 80
1, 656387, Note_on_c, 0, 74, 0
1, 656400, Note_on_c, 0, 72, 80
1, 656627, Note_on_c, 0, 72, 0
1, 656640, Note_on_c, 0, 72, 80
1, 656867, Note_on_c, 0, 72, 0
1, 656880, Note_on_c, 0, 74, 80
1, 657107, Note_on_c, 0, 74, 0
1, 657120, Note_on_c, 0, 72, 80
1, 657347, Note_on_c, 0, 72, 0
1, 657360, Note_on_c, 0, 70, 80
1, 657473, Note_on_c, 0, 70, 0
1, 657480, Note_on_c, 0, 65, 80
1, 658049, Note_on_c, 0, 65, 0
1, 658080, Note_on_c, 0, 62, 80
1, 658307, Note_on_c, 0, 62, 0
1, 658320, Note_on_c, 0, 63, 80
1, 658547, Note_on_c, 0, 63, 0
1, 658560, Note_on_c, 0, 65, 80
1, 658901, Note_on_c, 0, 65, 0
1, 658920, Note_on_c, 0, 65, 80
1, 659261, Note_on_c, 0, 65, 0
1, 659280, Note_on_c, 0, 67, 80
1, 659507, Note_on_c, 0, 67, 0
1, 659520, Note_on_c, 0, 65, 80
1, 659975, Note_on_c, 0, 65, 0
1, 660000, Note_on_c, 0, 72, 80
1, 660227, Note_on_c, 0, 72, 0
1, 660240, Note_on_c, 0, 69, 80
1, 660467, Note_on_c, 0, 69, 0
1, 660480, Note_on_c, 0, 70, 80
1, 660821, Note_on_c, 0, 70, 0
1, 660840, Note_on_c, 0, 70, 80
1, 661181, Note_on_c, 0, 70, 0
1, 661200, Note_on_c, 0, 72, 80
1, 661427, Note_on_c, 0, 72, 0
1, 661440, Note_on_c, 0, 74, 80
1, 662351, Note_on_c, 0, 74, 0
1, 662400, Key_signature, -1, "major"
1, 662400, Tempo, 500000
1, 662400, Note_on_c, 0, 62, 80
1, 662513, Note_on_c, 0, 62, 0
1, 662520, Note_on_c, 0, 62, 80
1, 662633, Note_on_c, 0, 62, 0
1, 662640, Note_on_c, 0, 74, 80
1, 662759, Note_on_c, 0, 74, 0
1, 662880, Note_on_c, 0, 69, 80
1, 662999, Note_on_c, 0, 69, 0
1, 663240, Note_on_c, 0, 68, 80
1, 663359, Note_on_c, 0, 68, 0
1, 663480, Note_on_c, 0, 67, 80
1, 663599, Note_on_c, 0, 67, 0
1, 663720, Note_on_c, 0, 65, 80
1, 663947, Note_on_c, 0, 65, 0
1, 663960, Note_on_c, 0, 62, 80
1, 664073, Note_on_c, 0, 62, 0
1, 664080, Note_on_c, 0, 65, 80
1, 664193, Note_on_c, 0, 65, 0
1, 664200, Note_on_c, 0, 67, 80
1, 664313, Note_on_c, 0, 67, 0
1, 664320, Note_on_c, 0, 60, 80
1, 664433, Note_on_c, 0, 60, 0
1, 664440, Note_on_c, 0, 60, 80
1, 664553, Note_on_c, 0, 60, 0
1, 664560, Note_on_c, 0, 74, 80
1, 664679, Note_on_c, 0, 74, 0
1, 664800, Note_on_c, 0, 69, 80
1, 664919, Note_on_c, 0, 69, 0
1, 665160, Note_on_c, 0, 68, 80
1, 665279, Note_on_c, 0, 68, 0
1, 665400, Note_on_c, 0, 67, 80
1, 665519, Note_on_c, 0, 67, 0
1, 665640, Note_on_c, 0, 65, 80
1, 665867, Note_on_c, 0, 65, 0
1, 665880, Note_on_c, 0, 62, 80
1, 665993, Note_on_c, 0, 62, 0
1, 666000, Note_on_c, 0, 65, 80
1, 666113, Note_on_c, 0, 65, 0
1, 666120, Note_on_c, 0, 67, 80
1, 666233, Note_on_c, 0, 67, 0
1, 666240, Note_on_c, 0, 59, 80
1, 666353, Note_on_c, 0, 59, 0
1, 666360, Note_on_c, 0, 59, 80
1, 666473, Note_on_c, 0, 59, 0
1, 666480, Note_on_c, 0, 74, 80
1, 666599, Note_on_c, 0, 74, 0
1, 666720, Note_on_c, 0, 69, 80
1, 666839, Note_on_c, 0, 69, 0
1, 667080, Note_on_c, 0, 68, 80
1, 667199, Note_on_c, 0, 68, 0
1, 667320, Note_on_c, 0, 67, 80
1, 667439, Note_on_c, 0, 67, 0
1, 667560, Note_on_c, 0, 65, 80
1, 667787, Note_on_c, 0, 65, 0
1, 667800, Note_on_c, 0, 62, 80
1, 667913, Note_on_c, 0, 62, 0
1, 667920, Note_on_c, 0, 65, 80
1, 668033, Note_on_c, 0, 65, 0
1, 668040, Note_on_c, 0, 67, 80
1, 668153, Note_on_c, 0, 67, 0
1, 668160, Note_on_c, 0, 58, 80
1, 668273, Note_on_c, 0, 58, 0
1, 668280, Note_on_c, 0, 58, 80
1, 668393, Note_on_c, 0, 58, 0
1, 668400, Note_on_c, 0, 74, 80
1, 668519, Note_on_c, 0, 74, 0
1, 668640, Note_on_c, 0, 69, 80
1, 668759, Note_on_c, 0, 69, 0
1, 669000, Note_on_c, 0, 68, 80
1, 669119, Note_on_c, 0, 68, 0
1, 669240, Note_on_c, 0, 67, 80
1, 669359, Note_on_c, 0, 67, 0
1, 669480, Note_on_c, 0, 65, 80
1, 669707, Note_on_c, 0, 65, 0
1, 669720, Note_on_c, 0, 62, 80
1, 669833, Note_on_c, 0, 62, 0
1, 669840, Note_on_c, 0, 65, 80
1, 669953, Note_on_c, 0, 65, 0
1, 669960, Note_on_c, 0, 67, 82
1, 670073, Note_on_c, 0, 67, 0
1, 670080, Note_on_c, 0, 62, 96
1, 670080, Note_on_c, 0, 74, 96
1, 670193, Note_on_c, 0, 62, 0
1, 670193, Note_on_c, 0, 74, 0
1, 670200, Note_on_c, 0, 62, 96
1, 670200, Note_on_c, 0, 74, 96
1, 670313, Note_on_c, 0, 62, 0
1, 670313, Note_on_c, 0, 74, 0
1, 670320, Note_on_c, 0, 74, 96
1, 670320, Note_on_c, 0, 86, 96
1, 670439, Note_on_c, 0, 74, 0
1, 670439, Note_on_c, 0, 86, 0
1, 670560, Note_on_c, 0, 69, 96
1, 670560, Note_on_c, 0, 81, 96
1, 670679, Note_on_c, 0, 69, 0
1, 670679, Note_on_c, 0, 81, 0
1, 670920, Note_on_c, 0, 68, 96
1, 670920, Note_on_c, 0, 80, 96
1, 671039, Note_on_c, 0, 68, 0
1, 671039, Note_on_c, 0, 80, 0
1, 671160, Note_on_c, 0, 67, 96
1, 671160, Note_on_c, 0, 79, 96
1, 671279, Note_on_c, 0, 67, 0
1, 671279, Note_on_c, 0, 79, 0
1, 671400, Note_on_c, 0, 65, 96
1, 671400, Note_on_c, 0, 77, 96
1, 671627, Note_on_c, 0, 65, 0
1, 671627, Note_on_c, 0, 77, 0
1, 671640, Note_on_c, 0, 62, 96
1, 671640, Note_on_c, 0, 74, 96
1, 671753, Note_on_c, 0, 62, 0
1, 671753, Note_on_c, 0, 74, 0
1, 671760, Note_on_c, 0, 65, 96
1, 671760, Note_on_c, 0, 77, 96
1, 671873, Note_on_c, 0, 65, 0
1, 671873, Note_on_c, 0, 77, 0
1, 671880, Note_on_c, 0, 67, 96
1, 671880, Note_on_c, 0, 79, 96
1, 671993, Note_on_c, 0, 67, 0
1, 671993, Note_on_c, 0, 79, 0
1, 672000, Note_on_c, 0, 60, 96
1, 672000, Note_on_c, 0, 72, 96
1, 672113, Note_on_c, 0, 60, 0
1, 672113, Note_on_c, 0, 72, 0
1, 672120, Note_on_c, 0, 60, 96
1, 672120, Note_on_c, 0, 72, 96
1, 672233, Note_on_c, 0, 60, 0
1, 672233, Note_on_c, 0, 72, 0
1, 672240, Note_on_c, 0, 74, 96
1, 672240, Note_on_c, 0, 86, 96
1, 672359, Note_on_c, 0, 74, 0
1, 672359, Note_on_c, 0, 86, 0
1, 672480, Note_on_c, 0, 69, 96
1, 672480, Note_on_c, 0, 81, 96
1, 672599, Note_on_c, 0, 69, 0
1, 672599, Note_on_c, 0, 81, 0
1, 672840, Note_on_c, 0, 68, 96
1, 672840, Note_on_c, 0, 80, 96
1, 672959, Note_on_c, 0, 68, 0
1, 672959, Note_on_c, 0, 80, 0
1, 673080, Note_on_c, 0, 67, 96
1, 673080, Note_on_c, 0, 79, 96
1, 673199, Note_on_c, 0, 67, 0
1, 673199, Note_on_c, 0, 79, 0
1, 673320, Note_on_c, 0, 65, 96
1, 673320, Note_on_c, 0, 77, 96
1, 673547, Note_on_c, 0, 65, 0
1, 673547, Note_on_c, 0, 77, 0
1, 673560, Note_on_c, 0, 62, 96
1, 673560, Note_on_c, 0, 74, 96
1, 673673, Note_on_c, 0, 62, 0
1, 673673, Note_on_c, 0, 74, 0
1, 673680, Note_on_c, 0, 65, 96
1, 673680, Note_on_c, 0, 77, 96
1, 673793, Note_on_c, 0, 65, 0
1, 673793, Note_on_c, 0, 77, 0
1, 673800, Note_on_c, 0, 67, 96
1, 673800, Note_on_c, 0, 79, 96
1, 673913, Note_on_c, 0, 67, 0
1, 673913, Note_on_c, 0, 79, 0
1, 673920, Note_on_c, 0, 59, 96
1, 673920, Note_on_c, 0, 71, 96
1, 674033, Note_on_c, 0, 59, 0
1, 674033, Note_on_c, 0, 71, 0
1, 674040, Note_on_c, 0, 59, 96
1, 674040, Note_on_c, 0, 71, 96
1, 674153, Note_on_c, 0, 59, 0
1, 674153, Note_on_c, 0, 71, 0
1, 674160, Note_on_c, 0, 74, 96
1, 674160, Note_on_c, 0, 86, 96
1, 674279, Note_on_c, 0, 74, 0
1, 674279, Note_on_c, 0, 86, 0
1, 674400, Note_on_c, 0, 69, 96
1, 674400, Note_on_c, 0, 81, 96
1, 674519, Note_on_c, 0, 69, 0
1, 674519, Note_on_c, 0, 81, 0
1, 674760, Note_on_c, 0, 68, 96
1, 674760, Note_on_c, 0, 80, 96
1, 674879, Note_on_c, 0, 68, 0
1, 674879, Note_on_c, 0, 80, 0
1, 675000, Note_on_c, 0, 67, 96
1, 675000, Note_on_c, 0, 79, 96
1, 675119, Note_on_c, 0, 67, 0
1, 675119, Note_on_c, 0, 79, 0
1, 675240, Note_on_c, 0, 65, 96
1, 675240, Note_on_c, 0, 77, 96
1, 675467, Note_on_c, 0, 65, 0
1, 675467, Note_on_c, 0, 77, 0
1, 675480, Note_on_c, 0, 62, 96
1, 675480, Note_on_c, 0, 74, 96
1, 675593, Note_on_c, 0, 62, 0
1, 675593, Note_on_c, 0, 74, 0
1, 675600, Note_on_c, 0, 65, 96
1, 675600, Note_on_c, 0, 77, 96
1, 675713, Note_on_c, 0, 65, 0
1, 675713, Note_on_c, 0, 77, 0
1, 675720, Note_on_c, 0, 67, 96
1, 675720, Note_on_c, 0, 79, 96
1, 675833, Note_on_c, 0, 67, 0
1, 675833, Note_on_c, 0, 79, 0
1, 675840, Note_on_c, 0, 58, 96
1, 675840, Note_on_c, 0, 70, 96
1, 675953, Note_on_c, 0, 58, 0
1, 675953, Note_on_c, 0, 70, 0
1, 675960, Note_on_c, 0, 58, 96
1, 675960, Note_on_c, 0, 70, 96
1, 676073, Note_on_c, 0, 58, 0
1, 676073, Note_on_c, 0, 70, 0
1, 676080, Note_on_c, 0, 74, 96
1, 676080, Note_on_c, 0, 86, 96
1, 676199, Note_on_c, 0, 74, 0
1, 676199, Note_on_c, 0, 86, 0
1, 676320, Note_on_c, 0, 69, 96
1, 676320, Note_on_c, 0, 81, 96
1, 676439, Note_on_c, 0, 69, 0
1, 676439, Note_on_c, 0, 81, 0
1, 676680, Note_on_c, 0, 68, 96
1, 676680, Note_on_c, 0, 80, 96
1, 676799, Note_on_c, 0, 68, 0
1, 676799, Note_on_c, 0, 80, 0
1, 676920, Note_on_c, 0, 67, 96
1, 676920, Note_on_c, 0, 79, 96
1, 677039, Note_on_c, 0, 67, 0
1, 677039, Note_on_c, 0, 79, 0
1, 677160, Note_on_c, 0, 65, 96
1, 677160, Note_on_c, 0, 77, 96
1, 677387, Note_on_c, 0, 65, 0
1, 677387, Note_on_c, 0, 77, 0
1, 677400, Note_on_c, 0, 62, 96
1, 677400, Note_on_c, 0, 69, 105
1, 677400, Note_on_c, 0, 74, 96
1, 677513, Note_on_c, 0, 62, 0
1, 677513, Note_on_c, 0, 69, 0
1, 677513, Note_on_c, 0, 74, 0
1, 677520, Note_on_c, 0, 65, 96
1, 677520, Note_on_c, 0, 74, 105
1, 677520, Note_on_c, 0, 77, 96
1, 677633, Note_on_c, 0, 65, 0
1, 677633, Note_on_c, 0, 74, 0
1, 677633, Note_on_c, 0, 77, 0
1, 677640, Note_on_c, 0, 67, 96
1, 677640, Note_on_c, 0, 76, 105
1, 677640, Note_on_c, 0, 79, 96
1, 677753, Note_on_c, 0, 67, 0
1, 677753, Note_on_c, 0, 76, 0
1, 677753, Note_on_c, 0, 79, 0
1, 677760, Note_on_c, 0, 77, 102
1, 677987, Note_on_c, 0, 77, 0
1, 678000, Note_on_c, 0, 77, 102
1, 678113, Note_on_c, 0, 77, 0
1, 678120, Note_on_c, 0, 77, 102
1, 678239, Note_on_c, 0, 77, 0
1, 678360, Note_on_c, 0, 77, 102
1, 678479, Note_on_c, 0, 77, 0
1, 678600, Note_on_c, 0, 77, 102
1, 678827, Note_on_c, 0, 77, 0
1, 678840, Note_on_c, 0, 74, 102
1, 679067, Note_on_c, 0, 74, 0
1, 679080, Note_on_c, 0, 74, 102
1, 679421, Note_on_c, 0, 74, 0
1, 679680, Note_on_c, 0, 77, 102
1, 679907, Note_on_c, 0, 77, 0
1, 679920, Note_on_c, 0, 77, 102
1, 680033, Note_on_c, 0, 77, 0
1, 680040, Note_on_c, 0, 77, 102
1, 680159, Note_on_c, 0, 77, 0
1, 680280, Note_on_c, 0, 79, 102
1, 680399, Note_on_c, 0, 79, 0
1, 680520, Note_on_c, 0, 80, 102
1, 680747, Note_on_c, 0, 80, 0
1, 680760, Note_on_c, 0, 77, 102
1, 680816, Note_on_c, 0, 77, 0
1, 680820, Note_on_c, 0, 79, 102
1, 680876, Note_on_c, 0, 79, 0
1, 680880, Note_on_c, 0, 77, 102
1, 680939, Note_on_c, 0, 77, 0
1, 681000, Note_on_c, 0, 74, 102
1, 681059, Note_on_c, 0, 74, 0
1, 681120, Note_on_c, 0, 77, 102
1, 681233, Note_on_c, 0, 77, 0
1, 681240, Note_on_c, 0, 79, 102
1, 681581, Note_on_c, 0, 79, 0
1, 681600, Note_on_c, 0, 77, 102
1, 681827, Note_on_c, 0, 77, 0
1, 681840, Note_on_c, 0, 77, 102
1, 681953, Note_on_c, 0, 77, 0
1, 681960, Note_on_c, 0, 77, 102
1, 682079, Note_on_c, 0, 77, 0
1, 682200, Note_on_c, 0, 79, 102
1, 682319, Note_on_c, 0, 79, 0
1, 682440, Note_on_c, 0, 80, 102
1, 682559, Note_on_c, 0, 80, 0
1, 682680, Note_on_c, 0, 81, 102
1, 682907, Note_on_c, 0, 81, 0
1, 682920, Note_on_c, 0, 84, 102
1, 683039, Note_on_c, 0, 84, 0
1, 683160, Note_on_c, 0, 81, 102
1, 683501, Note_on_c, 0, 81, 0
1, 683520, Note_on_c, 0, 86, 102
1, 683747, Note_on_c, 0, 86, 0
1, 683760, Note_on_c, 0, 86, 102
1, 683987, Note_on_c, 0, 86, 0
1, 684000, Note_on_c, 0, 86, 102
1, 684113, Note_on_c, 0, 86, 0
1, 684120, Note_on_c, 0, 81, 102
1, 684233, Note_on_c, 0, 81, 0
1, 684240, Note_on_c, 0, 86, 102
1, 684353, Note_on_c, 0, 86, 0
1, 684360, Note_on_c, 0, 84, 102
1, 684929, Note_on_c, 0, 84, 0
1, 684960, Note_on_c, 0, 79, 102
1, 684960, Note_on_c, 0, 84, 102
1, 684960, Note_on_c, 0, 91, 102
1, 685415, Note_on_c, 0, 79, 0
1, 685415, Note_on_c, 0, 84, 0
1, 685415, Note_on_c, 0, 91, 0
1, 685440, Note_on_c, 0, 77, 102
1, 685440, Note_on_c, 0, 81, 102
1, 685667, Note_on_c, 0, 77, 0
1, 685667, Note_on_c, 0, 81, 0
1, 685680, Note_on_c, 0, 77, 102
1, 685680, Note_on_c, 0, 81, 102
1, 685793, Note_on_c, 0, 77, 0
1, 685793, Note_on_c, 0, 81, 0
1, 685800, Note_on_c, 0, 77, 102
1, 685800, Note_on_c, 0, 81, 102
1, 685919, Note_on_c, 0, 77, 0
1, 685919, Note_on_c, 0, 81, 0
1, 686040, Note_on_c, 0, 77, 102
1, 686040, Note_on_c, 0, 81, 102
1, 686267, Note_on_c, 0, 77, 0
1, 686267, Note_on_c, 0, 81, 0
1, 686280, Note_on_c, 0, 77, 102
1, 686280, Note_on_c, 0, 81, 102
1, 686507, Note_on_c, 0, 77, 0
1, 686507, Note_on_c, 0, 81, 0
1, 686520, Note_on_c, 0, 74, 102
1, 686520, Note_on_c, 0, 79, 102
1, 686747, Note_on_c, 0, 74, 0
1, 686747, Note_on_c, 0, 79, 0
1, 686760, Note_on_c, 0, 74, 102
1, 686760, Note_on_c, 0, 79, 102
1, 687101, Note_on_c, 0, 74, 0
1, 687101, Note_on_c, 0, 79, 0
1, 687360, Note_on_c, 0, 77, 102
1, 687360, Note_on_c, 0, 81, 102
1, 687587, Note_on_c, 0, 77, 0
1, 687587, Note_on_c, 0, 81, 0
1, 687600, Note_on_c, 0, 77, 102
1, 687600, Note_on_c, 0, 81, 102
1, 687713, Note_on_c, 0, 77, 0
1, 687713, Note_on_c, 0, 81, 0
1, 687720, Note_on_c, 0, 77, 102
1, 687720, Note_on_c, 0, 81, 102
1, 687839, Note_on_c, 0, 77, 0
1, 687839, Note_on_c, 0, 81, 0
1, 687960, Note_on_c, 0, 77, 102
1, 687960, Note_on_c, 0, 81, 102
1, 688187, Note_on_c, 0, 77, 0
1, 688187, Note_on_c, 0, 81, 0
1, 688200, Note_on_c, 0, 74, 102
1, 688200, Note_on_c, 0, 79, 102
1, 688319, Note_on_c, 0, 74, 0
1, 688319, Note_on_c, 0, 79, 0
1, 688440, Note_on_c, 0, 77, 102
1, 688440, Note_on_c, 0, 81, 102
1, 688559, Note_on_c, 0, 77, 0
1, 688559, Note_on_c, 0, 81, 0
1, 688680, Note_on_c, 0, 76, 102
1, 688680, Note_on_c, 0, 86, 102
1, 688907, Note_on_c, 0, 76, 0
1, 688907, Note_on_c, 0, 86, 0
1, 688920, Note_on_c, 0, 74, 102
1, 688920, Note_on_c, 0, 81, 102
1, 689033, Note_on_c, 0, 74, 0
1, 689033, Note_on_c, 0, 81, 0
1, 689040, Note_on_c, 0, 72, 102
1, 689040, Note_on_c, 0, 79, 102
1, 689267, Note_on_c, 0, 72, 0
1, 689267, Note_on_c, 0, 79, 0
1, 689280, Note_on_c, 0, 86, 102
1, 689400, Note_on_c, 0, 77, 96
1, 689507, Note_on_c, 0, 86, 0
1, 689513, Note_on_c, 0, 77, 0
1, 689520, Note_on_c, 0, 81, 102
1, 689520, Note_on_c, 0, 74, 96
1, 689633, Note_on_c, 0, 74, 0
1, 689640, Note_on_c, 0, 76, 96
1, 689747, Note_on_c, 0, 81, 0
1, 689753, Note_on_c, 0, 76, 0
1, 689760, Note_on_c, 0, 79, 102
1, 689760, Note_on_c, 0, 77, 96
1, 689873, Note_on_c, 0, 77, 0
1, 689880, Note_on_c, 0, 74, 96
1, 689987, Note_on_c, 0, 79, 0
1, 689993, Note_on_c, 0, 74, 0
1, 690000, Note_on_c, 0, 77, 102
1, 690000, Note_on_c, 0, 71, 96
1, 690113, Note_on_c, 0, 71, 0
1, 690120, Note_on_c, 0, 68, 96
1, 690227, Note_on_c, 0, 77, 0
1, 690233, Note_on_c, 0, 68, 0
1, 690240, Note_on_c, 0, 84, 102
1, 690360, Note_on_c, 0, 74, 96
1, 690467, Note_on_c, 0, 84, 0
1, 690473, Note_on_c, 0, 74, 0
1, 690480, Note_on_c, 0, 79, 102
1, 690480, Note_on_c, 0, 71, 96
1, 690593, Note_on_c, 0, 71, 0
1, 690600, Note_on_c, 0, 74, 96
1, 690707, Note_on_c, 0, 79, 0
1, 690713, Note_on_c, 0, 74, 0
1, 690720, Note_on_c, 0, 77, 102
1, 690720, Note_on_c, 0, 71, 96
1, 690833, Note_on_c, 0, 71, 0
1, 690840, Note_on_c, 0, 67, 96
1, 690947, Note_on_c, 0, 77, 0
1, 690953, Note_on_c, 0, 67, 0
1, 690960, Note_on_c, 0, 76, 102
1, 690960, Note_on_c, 0, 71, 96
1, 691073, Note_on_c, 0, 71, 0
1, 691080, Note_on_c, 0, 67, 96
1, 691187, Note_on_c, 0, 76, 0
1, 691193, Note_on_c, 0, 67, 0
1, 691200, Note_on_c, 0, 65, 102
1, 691200, Note_on_c, 0, 70, 102
1, 691427, Note_on_c, 0, 65, 0
1, 691427, Note_on_c, 0, 70, 0
1, 691440, Note_on_c, 0, 69, 102
1, 691440, Note_on_c, 0, 72, 102
1, 691553, Note_on_c, 0, 69, 0
1, 691553, Note_on_c, 0, 72, 0
1, 691560, Note_on_c, 0, 70, 102
1, 691560, Note_on_c, 0, 74, 102
1, 691673, Note_on_c, 0, 70, 0
1, 691673, Note_on_c, 0, 74, 0
1, 691680, Note_on_c, 0, 72, 102
1, 691680, Note_on_c, 0, 76, 102
1, 691793, Note_on_c, 0, 72, 0
1, 691793, Note_on_c, 0, 76, 0
1, 691800, Note_on_c, 0, 74, 102
1, 691800, Note_on_c, 0, 77, 102
1, 691919, Note_on_c, 0, 74, 0
1, 691919, Note_on_c, 0, 77, 0
1, 692040, Note_on_c, 0, 76, 102
1, 692040, Note_on_c, 0, 84, 102
1, 693065, Note_on_c, 0, 76, 0
1, 693065, Note_on_c, 0, 84, 0
1, 694080, Note_on_c, 0, 65, 102
1, 694080, Note_on_c, 0, 74, 102
1, 694080, Note_on_c, 0, 77, 102
1, 694193, Note_on_c, 0, 65, 0
1, 694193, Note_on_c, 0, 74, 0
1, 694193, Note_on_c, 0, 77, 0
1, 694200, Note_on_c, 0, 62, 102
1, 694200, Note_on_c, 0, 70, 102
1, 694200, Note_on_c, 0, 74, 102
1, 694313, Note_on_c, 0, 62, 0
1, 694313, Note_on_c, 0, 70, 0
1, 694313, Note_on_c, 0, 74, 0
1, 694320, Note_on_c, 0, 65, 102
1, 694320, Note_on_c, 0, 74, 102
1, 694320, Note_on_c, 0, 77, 102
1, 694433, Note_on_c, 0, 65, 0
1, 694433, Note_on_c, 0, 74, 0
1, 694433, Note_on_c, 0, 77, 0
1, 694440, Note_on_c, 0, 67, 102
1, 694440, Note_on_c, 0, 76, 102
1, 694440, Note_on_c, 0, 79, 102
1, 694553, Note_on_c, 0, 67, 0
1, 694553, Note_on_c, 0, 76, 0
1, 694553, Note_on_c, 0, 79, 0
1, 694560, Note_on_c, 0, 68, 102
1, 694560, Note_on_c, 0, 77, 102
1, 694560, Note_on_c, 0, 80, 102
1, 694673, Note_on_c, 0, 68, 0
1, 694673, Note_on_c, 0, 77, 0
1, 694673, Note_on_c, 0, 80, 0
1, 694680, Note_on_c, 0, 67, 102
1, 694680, Note_on_c, 0, 76, 102
1, 694680, Note_on_c, 0, 79, 102
1, 694793, Note_on_c, 0, 67, 0
1, 694793, Note_on_c, 0, 76, 0
1, 694793, Note_on_c, 0, 79, 0
1, 694800, Note_on_c, 0, 65, 102
1, 694800, Note_on_c, 0, 74, 102
1, 694800, Note_on_c, 0, 77, 102
1, 694913, Note_on_c, 0, 65, 0
1, 694913, Note_on_c, 0, 74, 0
1, 694913, Note_on_c, 0, 77, 0
1, 694920, Note_on_c, 0, 62, 102
1, 694920, Note_on_c, 0, 70, 102
1, 694920, Note_on_c, 0, 74, 102
1, 695033, Note_on_c, 0, 62, 0
1, 695033, Note_on_c, 0, 70, 0
1, 695033, Note_on_c, 0, 74, 0
1, 695040, Note_on_c, 0, 77, 102
1, 695040, Note_on_c, 0, 80, 102
1, 695096, Note_on_c, 0, 77, 0
1, 695096, Note_on_c, 0, 80, 0
1, 695100, Note_on_c, 0, 76, 102
1, 695100, Note_on_c, 0, 79, 102
1, 695156, Note_on_c, 0, 76, 0
1, 695156, Note_on_c, 0, 79, 0
1, 695160, Note_on_c, 0, 74, 102
1, 695160, Note_on_c, 0, 77, 102
1, 695216, Note_on_c, 0, 74, 0
1, 695216, Note_on_c, 0, 77, 0
1, 695220, Note_on_c, 0, 70, 102
1, 695220, Note_on_c, 0, 74, 102
1, 695276, Note_on_c, 0, 70, 0
1, 695276, Note_on_c, 0, 74, 0
1, 695280, Note_on_c, 0, 65, 102
1, 695280, Note_on_c, 0, 74, 102
1, 695280, Note_on_c, 0, 77, 102
1, 695507, Note_on_c, 0, 65, 0
1, 695507, Note_on_c, 0, 74, 0
1, 695507, Note_on_c, 0, 77, 0
1, 695520, Note_on_c, 0, 67, 102
1, 695520, Note_on_c, 0, 76, 102
1, 695520, Note_on_c, 0, 79, 102
1, 696431, Note_on_c, 0, 67, 0
1, 696431, Note_on_c, 0, 76, 0
1, 696431, Note_on_c, 0, 79, 0
1, 696600, Note_on_c, 0, 68, 102
1, 696600, Note_on_c, 0, 80, 102
1, 696827, Note_on_c, 0, 68, 0
1, 696827, Note_on_c, 0, 80, 0
1, 696840, Note_on_c, 0, 69, 102
1, 696840, Note_on_c, 0, 81, 102
1, 696953, Note_on_c, 0, 69, 0
1, 696953, Note_on_c, 0, 81, 0
1, 696960, Note_on_c, 0, 72, 102
1, 696960, Note_on_c, 0, 84, 102
1, 697079, Note_on_c, 0, 72, 0
1, 697079, Note_on_c, 0, 84, 0
1, 697200, Note_on_c, 0, 69, 102
1, 697200, Note_on_c, 0, 81, 102
1, 697259, Note_on_c, 0, 69, 0
1, 697259, Note_on_c, 0, 81, 0
1, 697320, Note_on_c, 0, 68, 102
1, 697320, Note_on_c, 0, 80, 102
1, 697379, Note_on_c, 0, 68, 0
1, 697379, Note_on_c, 0, 80, 0
1, 697440, Note_on_c, 0, 67, 102
1, 697440, Note_on_c, 0, 79, 102
1, 697499, Note_on_c, 0, 67, 0
1, 697499, Note_on_c, 0, 79, 0
1, 697560, Note_on_c, 0, 65, 102
1, 697560, Note_on_c, 0, 77, 102
1, 697619, Note_on_c, 0, 65, 0
1, 697619, Note_on_c, 0, 77, 0
1, 697680, Note_on_c, 0, 62, 102
1, 697680, Note_on_c, 0, 74, 102
1, 697739, Note_on_c, 0, 62, 0
1, 697739, Note_on_c, 0, 74, 0
1, 697800, Note_on_c, 0, 64, 102
1, 697800, Note_on_c, 0, 76, 102
1, 697859, Note_on_c, 0, 64, 0
1, 697859, Note_on_c, 0, 76, 0
1, 697920, Note_on_c, 0, 65, 102
1, 697920, Note_on_c, 0, 77, 102
1, 698147, Note_on_c, 0, 65, 0
1, 698147, Note_on_c, 0, 77, 0
1, 698160, Note_on_c, 0, 67, 102
1, 698160, Note_on_c, 0, 79, 102
1, 698387, Note_on_c, 0, 67, 0
1, 698387, Note_on_c, 0, 79, 0
1, 698400, Note_on_c, 0, 69, 102
1, 698400, Note_on_c, 0, 81, 102
1, 698627, Note_on_c, 0, 69, 0
1, 698627, Note_on_c, 0, 81, 0
1, 698640, Note_on_c, 0, 72, 102
1, 698640, Note_on_c, 0, 84, 102
1, 698867, Note_on_c, 0, 72, 0
1, 698867, Note_on_c, 0, 84, 0
1, 698880, Note_on_c, 0, 73, 102
1, 698880, Note_on_c, 0, 85, 102
1, 699107, Note_on_c, 0, 73, 0
1, 699107, Note_on_c, 0, 85, 0
1, 699120, Note_on_c, 0, 68, 102
1, 699120, Note_on_c, 0, 80, 102
1, 699239, Note_on_c, 0, 68, 0
1, 699239, Note_on_c, 0, 80, 0
1, 699360, Note_on_c, 0, 68, 102
1, 699360, Note_on_c, 0, 80, 102
1, 699473, Note_on_c, 0, 68, 0
1, 699473, Note_on_c, 0, 80, 0
1, 699480, Note_on_c, 0, 67, 102
1, 699480, Note_on_c, 0, 79, 102
1, 699593, Note_on_c, 0, 67, 0
1, 699593, Note_on_c, 0, 79, 0
1, 699600, Note_on_c, 0, 65, 102
1, 699600, Note_on_c, 0, 77, 102
1, 699713, Note_on_c, 0, 65, 0
1, 699713, Note_on_c, 0, 77, 0
1, 699720, Note_on_c, 0, 67, 102
1, 699720, Note_on_c, 0, 79, 102
1, 700745, Note_on_c, 0, 67, 0
1, 700745, Note_on_c, 0, 79, 0
1, 700800, Note_on_c, 0, 62, 102
1, 700800, Note_on_c, 0, 65, 102
1, 701039, Note_on_c, 0, 62, 0
1, 701039, Note_on_c, 0, 65, 0
1, 701040, Note_on_c, 0, 64, 102
1, 701040, Note_on_c, 0, 67, 102
1, 701279, Note_on_c, 0, 64, 0
1, 701279, Note_on_c, 0, 67, 0
1, 701280, Note_on_c, 0, 65, 102
1, 701280, Note_on_c, 0, 69, 102
1, 701519, Note_on_c, 0, 65, 0
1, 701519, Note_on_c, 0, 69, 0
1, 701520, Note_on_c, 0, 74, 102
1, 701520, Note_on_c, 0, 77, 102
1, 701747, Note_on_c, 0, 74, 0
1, 701747, Note_on_c, 0, 77, 0
1, 701760, Note_on_c, 0, 72, 102
1, 701760, Note_on_c, 0, 76, 102
1, 702215, Note_on_c, 0, 72, 0
1, 702215, Note_on_c, 0, 76, 0
1, 702240, Note_on_c, 0, 69, 102
1, 702240, Note_on_c, 0, 74, 102
1, 702695, Note_on_c, 0, 69, 0
1, 702695, Note_on_c, 0, 74, 0
1, 702720, Note_on_c, 0, 67, 102
1, 702720, Note_on_c, 0, 76, 102
1, 703175, Note_on_c, 0, 67, 0
1, 703175, Note_on_c, 0, 76, 0
1, 703200, Note_on_c, 0, 69, 102
1, 703200, Note_on_c, 0, 77, 102
1, 703655, Note_on_c, 0, 69, 0
1, 703655, Note_on_c, 0, 77, 0
1, 703680, Note_on_c, 0, 72, 102
1, 703680, Note_on_c, 0, 79, 102
1, 704135, Note_on_c, 0, 72, 0
1, 704135, Note_on_c, 0, 79, 0
1, 704160, Note_on_c, 0, 69, 102
1, 704160, Note_on_c, 0, 76, 102
1, 704615, Note_on_c, 0, 69, 0
1, 704615, Note_on_c, 0, 76, 0
1, 704640, Note_on_c, 0, 74, 102
1, 704640, Note_on_c, 0, 81, 102
1, 705551, Note_on_c, 0, 74, 0
1, 705551, Note_on_c, 0, 81, 0
1, 705600, Note_on_c, 0, 81, 102
1, 705659, Note_on_c, 0, 81, 0
1, 705720, Note_on_c, 0, 80, 102
1, 705779, Note_on_c, 0, 80, 0
1, 705840, Note_on_c, 0, 79, 102
1, 705899, Note_on_c, 0, 79, 0
1, 705960, Note_on_c, 0, 78, 102
1, 706019, Note_on_c, 0, 78, 0
1, 706080, Note_on_c, 0, 77, 102
1, 706139, Note_on_c, 0, 77, 0
1, 706200, Note_on_c, 0, 76, 102
1, 706259, Note_on_c, 0, 76, 0
1, 706320, Note_on_c, 0, 75, 102
1, 706379, Note_on_c, 0, 75, 0
1, 706440, Note_on_c, 0, 74, 102
1, 706499, Note_on_c, 0, 74, 0
1, 706560, Note_on_c, 0, 68, 102
1, 706560, Note_on_c, 0, 73, 102
1, 707471, Note_on_c, 0, 68, 0
1, 707471, Note_on_c, 0, 73, 0
1, 707520, Note_on_c, 0, 70, 102
1, 707520, Note_on_c, 0, 75, 102
1, 708431, Note_on_c, 0, 70, 0
1, 708431, Note_on_c, 0, 75, 0
1, 708480, Key_signature, 4, "major"
1, 708480, Tempo, 545456
1, 708480, Note_on_c, 0, 56, 76
1, 708480, Note_on_c, 0, 64, 76
1, 708599, Note_on_c, 0, 56, 0
1, 708599, Note_on_c, 0, 64, 0
1, 708720, Note_on_c, 0, 56, 64
1, 708839, Note_on_c, 0, 56, 0
1, 708960, Note_on_c, 0, 59, 76
1, 708960, Note_on_c, 0, 68, 76
1, 709079, Note_on_c, 0, 59, 0
1, 709079, Note_on_c, 0, 68, 0
1, 709200, Note_on_c, 0, 59, 64
1, 709319, Note_on_c, 0, 59, 0
1, 709440, Note_on_c, 0, 61, 76
1, 709440, Note_on_c, 0, 66, 76
1, 710159, Note_on_c, 0, 61, 0
1, 710159, Note_on_c, 0, 66, 0
1, 710160, Note_on_c, 0, 68, 64
1, 710387, Note_on_c, 0, 68, 0
1, 710400, Note_on_c, 0, 61, 64
1, 710741, Note_on_c, 0, 61, 0
1, 710760, Note_on_c, 0, 63, 64
1, 711101, Note_on_c, 0, 63, 0
1, 711120, Note_on_c, 0, 64, 64
1, 711347, Note_on_c, 0, 64, 0
1, 711360, Note_on_c, 0, 68, 64
1, 712271, Note_on_c, 0, 68, 0
1, 712320, Note_on_c, 0, 64, 64
1, 712559, Note_on_c, 0, 64, 0
1, 712800, Note_on_c, 0, 68, 64
1, 713039, Note_on_c, 0, 68, 0
1, 713280, Note_on_c, 0, 66, 64
1, 713963, Note_on_c, 0, 66, 0
1, 714000, Note_on_c, 0, 68, 64
1, 714227, Note_on_c, 0, 68, 0
1, 714240, Note_on_c, 0, 61, 64
1, 714581, Note_on_c, 0, 61, 0
1, 714600, Note_on_c, 0, 63, 64
1, 714941, Note_on_c, 0, 63, 0
1, 714960, Note_on_c, 0, 71, 64
1, 715187, Note_on_c, 0, 71, 0
1, 715200, Note_on_c, 0, 68, 64
1, 716111, Note_on_c, 0, 68, 0
1, 716160, Note_on_c, 0, 68, 76
1, 716160, Note_on_c, 0, 76, 76
1, 716279, Note_on_c, 0, 68, 0
1, 716279, Note_on_c, 0, 76, 0
1, 716400, Note_on_c, 0, 68, 68
1, 716519, Note_on_c, 0, 68, 0
1, 716640, Note_on_c, 0, 69, 86
1, 716640, Note_on_c, 0, 78, 86
1, 716759, Note_on_c, 0, 69, 0
1, 716759, Note_on_c, 0, 78, 0
1, 716880, Note_on_c, 0, 69, 76
1, 716999, Note_on_c, 0, 69, 0
1, 717120, Note_on_c, 0, 71, 96
1, 717120, Note_on_c, 0, 76, 96
1, 717120, Note_on_c, 0, 83, 96
1, 717839, Note_on_c, 0, 71, 0
1, 717839, Note_on_c, 0, 76, 0
1, 717839, Note_on_c, 0, 83, 0
1, 717840, Note_on_c, 0, 73, 80
1, 717840, Note_on_c, 0, 78, 80
1, 717840, Note_on_c, 0, 85, 80
1, 718067, Note_on_c, 0, 73, 0
1, 718067, Note_on_c, 0, 78, 0
1, 718067, Note_on_c, 0, 85, 0
1, 718080, Note_on_c, 0, 64, 80
1, 718080, Note_on_c, 0, 68, 80
1, 718080, Note_on_c, 0, 76, 80
1, 718421, Note_on_c, 0, 64, 0
1, 718421, Note_on_c, 0, 68, 0
1, 718421, Note_on_c, 0, 76, 0
1, 718440, Note_on_c, 0, 66, 80
1, 718440, Note_on_c, 0, 71, 80
1, 718440, Note_on_c, 0, 78, 80
1, 718781, Note_on_c, 0, 66, 0
1, 718781, Note_on_c, 0, 71, 0
1, 718781, Note_on_c, 0, 78, 0
1, 718800, Note_on_c, 0, 68, 80
1, 718800, Note_on_c, 0, 73, 80
1, 718800, Note_on_c, 0, 80, 80
1, 719027, Note_on_c, 0, 68, 0
1, 719027, Note_on_c, 0, 73, 0
1, 719027, Note_on_c, 0, 80, 0
1, 719040, Note_on_c, 0, 71, 80
1, 719040, Note_on_c, 0, 75, 80
1, 719040, Note_on_c, 0, 83, 80
1, 719723, Note_on_c, 0, 71, 0
1, 719723, Note_on_c, 0, 75, 0
1, 719723, Note_on_c, 0, 83, 0
1, 719760, Note_on_c, 0, 73, 80
1, 719760, Note_on_c, 0, 76, 80
1, 719760, Note_on_c, 0, 85, 80
1, 719987, Note_on_c, 0, 73, 0
1, 719987, Note_on_c, 0, 76, 0
1, 719987, Note_on_c, 0, 85, 0
1, 720000, Note_on_c, 0, 63, 80
1, 720000, Note_on_c, 0, 66, 80
1, 720000, Note_on_c, 0, 75, 80
1, 720341, Note_on_c, 0, 63, 0
1, 720341, Note_on_c, 0, 66, 0
1, 720341, Note_on_c, 0, 75, 0
1, 720360, Note_on_c, 0, 75, 80
1, 720360, Note_on_c, 0, 78, 80
1, 720360, Note_on_c, 0, 87, 80
1, 720701, Note_on_c, 0, 75, 0
1, 720701, Note_on_c, 0, 78, 0
1, 720701, Note_on_c, 0, 87, 0
1, 720720, Note_on_c, 0, 71, 80
1, 720720, Note_on_c, 0, 75, 80
1, 720720, Note_on_c, 0, 83, 80
1, 720947, Note_on_c, 0, 71, 0
1, 720947, Note_on_c, 0, 75, 0
1, 720947, Note_on_c, 0, 83, 0
1, 720960, Note_on_c, 0, 68, 80
1, 720960, Note_on_c, 0, 73, 80
1, 720960, Note_on_c, 0, 76, 80
1, 720960, Note_on_c, 0, 80, 80
1, 722555, Note_on_c, 0, 68, 0
1, 722555, Note_on_c, 0, 73, 0
1, 722555, Note_on_c, 0, 76, 0
1, 722555, Note_on_c, 0, 80, 0
1, 722640, Note_on_c, 0, 69, 80
1, 722640, Note_on_c, 0, 81, 80
1, 722753, Note_on_c, 0, 69, 0
1, 722753, Note_on_c, 0, 81, 0
1, 722760, Note_on_c, 0, 68, 80
1, 722760, Note_on_c, 0, 80, 80
1, 722873, Note_on_c, 0, 68, 0
1, 722873, Note_on_c, 0, 80, 0
1, 722880, Note_on_c, 0, 66, 80
1, 722880, Note_on_c, 0, 71, 80
1, 722880, Note_on_c, 0, 75, 80
1, 722880, Note_on_c, 0, 78, 80
1, 723791, Note_on_c, 0, 66, 0
1, 723791, Note_on_c, 0, 71, 0
1, 723791, Note_on_c, 0, 75, 0
1, 723791, Note_on_c, 0, 78, 0
1, 723840, Note_on_c, 0, 56, 96
1, 723840, Note_on_c, 0, 64, 96
1, 723959, Note_on_c, 0, 56, 0
1, 723959, Note_on_c, 0, 64, 0
1, 724080, Note_on_c, 0, 64, 80
1, 724199, Note_on_c, 0, 64, 0
1, 724320, Note_on_c, 0, 54, 96
1, 724320, Note_on_c, 0, 63, 96
1, 724439, Note_on_c, 0, 54, 0
1, 724439, Note_on_c, 0, 63, 0
1, 724560, Note_on_c, 0, 63, 80
1, 724679, Note_on_c, 0, 63, 0
1, 724800, Note_on_c, 0, 61, 96
1, 724913, Note_on_c, 0, 61, 0
1, 724920, Note_on_c, 0, 64, 96
1, 725033, Note_on_c, 0, 64, 0
1, 725040, Note_on_c, 0, 63, 96
1, 725153, Note_on_c, 0, 63, 0
1, 725160, Note_on_c, 0, 64, 96
1, 725273, Note_on_c, 0, 64, 0
1, 725280, Note_on_c, 0, 61, 96
1, 725459, Note_on_c, 0, 61, 0
1, 725640, Note_on_c, 0, 61, 96
1, 725867, Note_on_c, 0, 61, 0
1, 725880, Note_on_c, 0, 63, 96
1, 725993, Note_on_c, 0, 63, 0
1, 726000, Note_on_c, 0, 64, 96
1, 726113, Note_on_c, 0, 64, 0
1, 726120, Note_on_c, 0, 71, 96
1, 726233, Note_on_c, 0, 71, 0
1, 726240, Note_on_c, 0, 68, 96
1, 726479, Note_on_c, 0, 68, 0
1, 726720, Note_on_c, 0, 61, 96
1, 726833, Note_on_c, 0, 61, 0
1, 726840, Note_on_c, 0, 64, 96
1, 726953, Note_on_c, 0, 64, 0
1, 726960, Note_on_c, 0, 63, 96
1, 727073, Note_on_c, 0, 63, 0
1, 727080, Note_on_c, 0, 64, 96
1, 727193, Note_on_c, 0, 64, 0
1, 727200, Note_on_c, 0, 61, 96
1, 727379, Note_on_c, 0, 61, 0
1, 727560, Note_on_c, 0, 61, 96
1, 727787, Note_on_c, 0, 61, 0
1, 727800, Note_on_c, 0, 63, 96
1, 727913, Note_on_c, 0, 63, 0
1, 727920, Note_on_c, 0, 64, 96
1, 728033, Note_on_c, 0, 64, 0
1, 728040, Note_on_c, 0, 71, 96
1, 728153, Note_on_c, 0, 71, 0
1, 728160, Note_on_c, 0, 68, 96
1, 728399, Note_on_c, 0, 68, 0
1, 728640, Note_on_c, 0, 61, 96
1, 728753, Note_on_c, 0, 61, 0
1, 728760, Note_on_c, 0, 64, 96
1, 728873, Note_on_c, 0, 64, 0
1, 728880, Note_on_c, 0, 63, 96
1, 728993, Note_on_c, 0, 63, 0
1, 729000, Note_on_c, 0, 64, 96
1, 729113, Note_on_c, 0, 64, 0
1, 729120, Note_on_c, 0, 61, 96
1, 729299, Note_on_c, 0, 61, 0
1, 729480, Note_on_c, 0, 61, 96
1, 729707, Note_on_c, 0, 61, 0
1, 729720, Note_on_c, 0, 63, 96
1, 729833, Note_on_c, 0, 63, 0
1, 729840, Note_on_c, 0, 64, 96
1, 729953, Note_on_c, 0, 64, 0
1, 729960, Note_on_c, 0, 71, 96
1, 730073, Note_on_c, 0, 71, 0
1, 730080, Note_on_c, 0, 68, 96
1, 730319, Note_on_c, 0, 68, 0
1, 730560, Note_on_c, 0, 59, 96
1, 730901, Note_on_c, 0, 59, 0
1, 730920, Note_on_c, 0, 66, 96
1, 731261, Note_on_c, 0, 66, 0
1, 731280, Note_on_c, 0, 64, 96
1, 731507, Note_on_c, 0, 64, 0
1, 731520, Note_on_c, 0, 62, 96
1, 731576, Note_on_c, 0, 62, 0
1, 731577, Note_on_c, 0, 63, 96
1, 731635, Note_on_c, 0, 63, 0
1, 731640, Note_on_c, 0, 61, 96
1, 731867, Note_on_c, 0, 61, 0
1, 731880, Note_on_c, 0, 59, 96
1, 732120, Note_on_c, 0, 61, 96
1, 732178, Note_on_c, 0, 61, 0
1, 732180, Note_on_c, 0, 62, 96
1, 732221, Note_on_c, 0, 59, 0
1, 732238, Note_on_c, 0, 62, 0
1, 732240, Note_on_c, 0, 63, 96
1, 732467, Note_on_c, 0, 63, 0
1, 732480, Note_on_c, 0, 68, 80
1, 732480, Note_on_c, 0, 73, 80
1, 733847, Note_on_c, 0, 68, 0
1, 733847, Note_on_c, 0, 73, 0
1, 733920, Note_on_c, 0, 64, 80
1, 733920, Note_on_c, 0, 68, 80
1, 734039, Note_on_c, 0, 64, 0
1, 734039, Note_on_c, 0, 68, 0
1, 734160, Note_on_c, 0, 66, 80
1, 734160, Note_on_c, 0, 71, 80
1, 734279, Note_on_c, 0, 66, 0
1, 734279, Note_on_c, 0, 71, 0
1, 734400, Note_on_c, 0, 68, 80
1, 734400, Note_on_c, 0, 73, 80
1, 735083, Note_on_c, 0, 68, 0
1, 735083, Note_on_c, 0, 73, 0
1, 735120, Note_on_c, 0, 71, 80
1, 735120, Note_on_c, 0, 76, 80
1, 735347, Note_on_c, 0, 71, 0
1, 735347, Note_on_c, 0, 76, 0
1, 735360, Note_on_c, 0, 73, 80
1, 735360, Note_on_c, 0, 78, 80
1, 735473, Note_on_c, 0, 73, 0
1, 735473, Note_on_c, 0, 78, 0
1, 735480, Note_on_c, 0, 71, 80
1, 735480, Note_on_c, 0, 76, 80
1, 735707, Note_on_c, 0, 71, 0
1, 735707, Note_on_c, 0, 76, 0
1, 735720, Note_on_c, 0, 73, 80
1, 735749, Note_on_c, 0, 73, 0
1, 735750, Note_on_c, 0, 74, 80
1, 735779, Note_on_c, 0, 74, 0
1, 735780, Note_on_c, 0, 68, 80
1, 735780, Note_on_c, 0, 75, 80
1, 736064, Note_on_c, 0, 68, 0
1, 736064, Note_on_c, 0, 75, 0
1, 736080, Note_on_c, 0, 71, 80
1, 736080, Note_on_c, 0, 76, 80
1, 736307, Note_on_c, 0, 71, 0
1, 736307, Note_on_c, 0, 76, 0
1, 736320, Note_on_c, 0, 68, 80
1, 736320, Note_on_c, 0, 73, 80
1, 737231, Note_on_c, 0, 68, 0
1, 737231, Note_on_c, 0, 73, 0
1, 737280, Note_on_c, 0, 68, 80
1, 737399, Note_on_c, 0, 68, 0
1, 737520, Note_on_c, 0, 68, 80
1, 737633, Note_on_c, 0, 68, 0
1, 737640, Note_on_c, 0, 71, 80
1, 737753, Note_on_c, 0, 71, 0
1, 737880, Note_on_c, 0, 71, 80
1, 737993, Note_on_c, 0, 71, 0
1, 738000, Note_on_c, 0, 75, 80
1, 738056, Note_on_c, 0, 75, 0
1, 738057, Note_on_c, 0, 76, 80
1, 738147, Note_on_c, 0, 76, 0
1, 738240, Note_on_c, 0, 75, 80
1, 739151, Note_on_c, 0, 75, 0
1, 739200, Note_on_c, 0, 64, 80
1, 739200, Note_on_c, 0, 73, 80
1, 739541, Note_on_c, 0, 64, 0
1, 739541, Note_on_c, 0, 73, 0
1, 739560, Note_on_c, 0, 68, 86
1, 739560, Note_on_c, 0, 76, 86
1, 739901, Note_on_c, 0, 68, 0
1, 739901, Note_on_c, 0, 76, 0
1, 739920, Note_on_c, 0, 71, 92
1, 739920, Note_on_c, 0, 78, 92
1, 740147, Note_on_c, 0, 71, 0
1, 740147, Note_on_c, 0, 78, 0
1, 740160, Note_on_c, 0, 73, 96
1, 740160, Note_on_c, 0, 76, 96
1, 740160, Note_on_c, 0, 80, 96
1, 740273, Note_on_c, 0, 73, 0
1, 740273, Note_on_c, 0, 76, 0
1, 740280, Note_on_c, 0, 76, 96
1, 740280, Note_on_c, 0, 80, 96
1, 740393, Note_on_c, 0, 76, 0
1, 740393, Note_on_c, 0, 80, 0
1, 740400, Note_on_c, 0, 75, 96
1, 740400, Note_on_c, 0, 78, 96
1, 740513, Note_on_c, 0, 75, 0
1, 740513, Note_on_c, 0, 78, 0
1, 740520, Note_on_c, 0, 76, 96
1, 740520, Note_on_c, 0, 80, 96
1, 740633, Note_on_c, 0, 76, 0
1, 740633, Note_on_c, 0, 80, 0
1, 740640, Note_on_c, 0, 73, 96
1, 740640, Note_on_c, 0, 76, 96
1, 740981, Note_on_c, 0, 73, 0
1, 740981, Note_on_c, 0, 76, 0
1, 741000, Note_on_c, 0, 73, 96
1, 741000, Note_on_c, 0, 76, 96
1, 741071, Note_on_c, 0, 80, 0
1, 741227, Note_on_c, 0, 73, 0
1, 741227, Note_on_c, 0, 76, 0
1, 741240, Note_on_c, 0, 75, 96
1, 741240, Note_on_c, 0, 78, 96
1, 741353, Note_on_c, 0, 75, 0
1, 741353, Note_on_c, 0, 78, 0
1, 741360, Note_on_c, 0, 76, 96
1, 741360, Note_on_c, 0, 80, 96
1, 741473, Note_on_c, 0, 76, 0
1, 741473, Note_on_c, 0, 80, 0
1, 741480, Note_on_c, 0, 83, 96
1, 741593, Note_on_c, 0, 83, 0
1, 741600, Note_on_c, 0, 76, 96
1, 741600, Note_on_c, 0, 80, 96
1, 741719, Note_on_c, 0, 76, 0
1, 741719, Note_on_c, 0, 80, 0
1, 741840, Note_on_c, 0, 78, 96
1, 742067, Note_on_c, 0, 78, 0
1, 742080, Note_on_c, 0, 73, 96
1, 742080, Note_on_c, 0, 76, 96
1, 742080, Note_on_c, 0, 80, 96
1, 742193, Note_on_c, 0, 73, 0
1, 742193, Note_on_c, 0, 76, 0
1, 742200, Note_on_c, 0, 76, 96
1, 742200, Note_on_c, 0, 80, 96
1, 742313, Note_on_c, 0, 76, 0
1, 742313, Note_on_c, 0, 80, 0
1, 742320, Note_on_c, 0, 75, 96
1, 742320, Note_on_c, 0, 78, 96
1, 742433, Note_on_c, 0, 75, 0
1, 742433, Note_on_c, 0, 78, 0
1, 742440, Note_on_c, 0, 76, 96
1, 742440, Note_on_c, 0, 80, 96
1, 742535, Note_on_c, 0, 80, 0
1, 742553, Note_on_c, 0, 76, 0
1, 742553, Note_on_c, 0, 80, 0
1, 742560, Note_on_c, 0, 73, 96
1, 742560, Note_on_c, 0, 76, 96
1, 742560, Note_on_c, 0, 80, 96
1, 742787, Note_on_c, 0, 73, 0
1, 742787, Note_on_c, 0, 76, 0
1, 742787, Note_on_c, 0, 80, 0
1, 742800, Note_on_c, 0, 71, 96
1, 742800, Note_on_c, 0, 78, 96
1, 743027, Note_on_c, 0, 71, 0
1, 743027, Note_on_c, 0, 78, 0
1, 743040, Note_on_c, 0, 68, 96
1, 743040, Note_on_c, 0, 76, 96
1, 743267, Note_on_c, 0, 68, 0
1, 743267, Note_on_c, 0, 76, 0
1, 743280, Note_on_c, 0, 71, 96
1, 743280, Note_on_c, 0, 78, 96
1, 743393, Note_on_c, 0, 71, 0
1, 743393, Note_on_c, 0, 78, 0
1, 743400, Note_on_c, 0, 66, 96
1, 743400, Note_on_c, 0, 75, 96
1, 743741, Note_on_c, 0, 66, 0
1, 743741, Note_on_c, 0, 75, 0
1, 743760, Note_on_c, 0, 63, 96
1, 743760, Note_on_c, 0, 71, 96
1, 743987, Note_on_c, 0, 63, 0
1, 743987, Note_on_c, 0, 71, 0
1, 744000, Note_on_c, 0, 76, 96
1, 744000, Note_on_c, 0, 73, 96
1, 744113, Note_on_c, 0, 76, 0
1, 744120, Note_on_c, 0, 76, 96
1, 744120, Note_on_c, 0, 80, 96
1, 744233, Note_on_c, 0, 76, 0
1, 744233, Note_on_c, 0, 80, 0
1, 744240, Note_on_c, 0, 75, 96
1, 744240, Note_on_c, 0, 78, 96
1, 744353, Note_on_c, 0, 75, 0
1, 744353, Note_on_c, 0, 78, 0
1, 744360, Note_on_c, 0, 76, 96
1, 744360, Note_on_c, 0, 80, 96
1, 744473, Note_on_c, 0, 76, 0
1, 744473, Note_on_c, 0, 80, 0
1, 744480, Note_on_c, 0, 73, 96
1, 744480, Note_on_c, 0, 76, 96
1, 744821, Note_on_c, 0, 73, 0
1, 744821, Note_on_c, 0, 76, 0
1, 744840, Note_on_c, 0, 73, 96
1, 744840, Note_on_c, 0, 76, 96
1, 744911, Note_on_c, 0, 73, 0
1, 745067, Note_on_c, 0, 73, 0
1, 745067, Note_on_c, 0, 76, 0
1, 745080, Note_on_c, 0, 75, 96
1, 745080, Note_on_c, 0, 78, 96
1, 745193, Note_on_c, 0, 75, 0
1, 745193, Note_on_c, 0, 78, 0
1, 745200, Note_on_c, 0, 76, 96
1, 745200, Note_on_c, 0, 80, 96
1, 745313, Note_on_c, 0, 76, 0
1, 745313, Note_on_c, 0, 80, 0
1, 745320, Note_on_c, 0, 80, 96
1, 745320, Note_on_c, 0, 83, 96
1, 745433, Note_on_c, 0, 80, 0
1, 745433, Note_on_c, 0, 83, 0
1, 745440, Note_on_c, 0, 76, 96
1, 745440, Note_on_c, 0, 80, 96
1, 745679, Note_on_c, 0, 76, 0
1, 745679, Note_on_c, 0, 80, 0
1, 745920, Note_on_c, 0, 71, 96
1, 745920, Note_on_c, 0, 75, 96
1, 746831, Note_on_c, 0, 71, 0
1, 746831, Note_on_c, 0, 75, 0
1, 746880, Time_signature, 3, 2, 24, 8
1, 746880, Key_signature, 2, "major"
1, 746880, Tempo, 545456
1, 746880, Note_on_c, 0, 78, 64
1, 747107, Note_on_c, 0, 78, 0
1, 747120, Note_on_c, 0, 73, 64
1, 747347, Note_on_c, 0, 73, 0
1, 747360, Note_on_c, 0, 78, 64
1, 747587, Note_on_c, 0, 78, 0
1, 747600, Note_on_c, 0, 73, 64
1, 747827, Note_on_c, 0, 73, 0
1, 747840, Note_on_c, 0, 78, 64
1, 748067, Note_on_c, 0, 78, 0
1, 748080, Note_on_c, 0, 73, 64
1, 748307, Note_on_c, 0, 73, 0
1, 748320, Note_on_c, 0, 78, 64
1, 748547, Note_on_c, 0, 78, 0
1, 748560, Note_on_c, 0, 73, 64
1, 748787, Note_on_c, 0, 73, 0
1, 748800, Note_on_c, 0, 78, 64
1, 749027, Note_on_c, 0, 78, 0
1, 749040, Note_on_c, 0, 73, 64
1, 749267, Note_on_c, 0, 73, 0
1, 749280, Note_on_c, 0, 78, 64
1, 749507, Note_on_c, 0, 78, 0
1, 749520, Note_on_c, 0, 73, 64
1, 749747, Note_on_c, 0, 73, 0
1, 749760, Note_on_c, 0, 71, 64
1, 749987, Note_on_c, 0, 71, 0
1, 750000, Note_on_c, 0, 69, 64
1, 750227, Note_on_c, 0, 69, 0
1, 750240, Note_on_c, 0, 73, 64
1, 750695, Note_on_c, 0, 73, 0
1, 750720, Note_on_c, 0, 69, 64
1, 750947, Note_on_c, 0, 69, 0
1, 750960, Note_on_c, 0, 71, 64
1, 751187, Note_on_c, 0, 71, 0
1, 751200, Note_on_c, 0, 76, 64
1, 751427, Note_on_c, 0, 76, 0
1, 751440, Note_on_c, 0, 75, 64
1, 751667, Note_on_c, 0, 75, 0
1, 751680, Note_on_c, 0, 76, 64
1, 751907, Note_on_c, 0, 76, 0
1, 751920, Note_on_c, 0, 78, 64
1, 752147, Note_on_c, 0, 78, 0
1, 752160, Note_on_c, 0, 75, 64
1, 752387, Note_on_c, 0, 75, 0
1, 752400, Note_on_c, 0, 71, 64
1, 752627, Note_on_c, 0, 71, 0
1, 752640, Note_on_c, 0, 78, 64
1, 752867, Note_on_c, 0, 78, 0
1, 752880, Note_on_c, 0, 71, 64
1, 753107, Note_on_c, 0, 71, 0
1, 753120, Note_on_c, 0, 78, 64
1, 753347, Note_on_c, 0, 78, 0
1, 753360, Note_on_c, 0, 71, 64
1, 753587, Note_on_c, 0, 71, 0
1, 753600, Note_on_c, 0, 78, 64
1, 753827, Note_on_c, 0, 78, 0
1, 753840, Note_on_c, 0, 71, 64
1, 754067, Note_on_c, 0, 71, 0
1, 754080, Note_on_c, 0, 78, 64
1, 754307, Note_on_c, 0, 78, 0
1, 754320, Note_on_c, 0, 70, 64
1, 754547, Note_on_c, 0, 70, 0
1, 754560, Note_on_c, 0, 78, 64
1, 754787, Note_on_c, 0, 78, 0
1, 754800, Note_on_c, 0, 70, 64
1, 755027, Note_on_c, 0, 70, 0
1, 755040, Note_on_c, 0, 79, 64
1, 755495, Note_on_c, 0, 79, 0
1, 755520, Note_on_c, 0, 78, 64
1, 755747, Note_on_c, 0, 78, 0
1, 755760, Note_on_c, 0, 73, 64
1, 755987, Note_on_c, 0, 73, 0
1, 756000, Note_on_c, 0, 78, 64
1, 756227, Note_on_c, 0, 78, 0
1, 756240, Note_on_c, 0, 73, 64
1, 756467, Note_on_c, 0, 73, 0
1, 756480, Note_on_c, 0, 76, 64
1, 756707, Note_on_c, 0, 76, 0
1, 756720, Note_on_c, 0, 78, 64
1, 756947, Note_on_c, 0, 78, 0
1, 756960, Note_on_c, 0, 73, 64
1, 757415, Note_on_c, 0, 73, 0
1, 757440, Note_on_c, 0, 78, 64
1, 757895, Note_on_c, 0, 78, 0
1, 757920, Note_on_c, 0, 73, 64
1, 758375, Note_on_c, 0, 73, 0
1, 758400, Note_on_c, 0, 74, 64
1, 759083, Note_on_c, 0, 74, 0
1, 759120, Note_on_c, 0, 69, 64
1, 759347, Note_on_c, 0, 69, 0
1, 759360, Note_on_c, 0, 71, 64
1, 759587, Note_on_c, 0, 71, 0
1, 759600, Note_on_c, 0, 73, 64
1, 759827, Note_on_c, 0, 73, 0
1, 759840, Note_on_c, 0, 74, 64
1, 760295, Note_on_c, 0, 74, 0
1, 760320, Note_on_c, 0, 73, 64
1, 760775, Note_on_c, 0, 73, 0
1, 760800, Note_on_c, 0, 74, 64
1, 761255, Note_on_c, 0, 74, 0
1, 761280, Note_on_c, 0, 69, 64
1, 761963, Note_on_c, 0, 69, 0
1, 762000, Note_on_c, 0, 71, 64
1, 762227, Note_on_c, 0, 71, 0
1, 762240, Note_on_c, 0, 69, 64
1, 762467, Note_on_c, 0, 69, 0
1, 762480, Note_on_c, 0, 67, 64
1, 762707, Note_on_c, 0, 67, 0
1, 762720, Note_on_c, 0, 66, 64
1, 763175, Note_on_c, 0, 66, 0
1, 763200, Note_on_c, 0, 78, 64
1, 763655, Note_on_c, 0, 78, 0
1, 763680, Note_on_c, 0, 76, 64
1, 764135, Note_on_c, 0, 76, 0
1, 764160, Note_on_c, 0, 74, 64
1, 764843, Note_on_c, 0, 74, 0
1, 764880, Note_on_c, 0, 69, 64
1, 765107, Note_on_c, 0, 69, 0
1, 765120, Note_on_c, 0, 71, 64
1, 765347, Note_on_c, 0, 71, 0
1, 765360, Note_on_c, 0, 73, 64
1, 765587, Note_on_c, 0, 73, 0
1, 765600, Note_on_c, 0, 74, 64
1, 766055, Note_on_c, 0, 74, 0
1, 766080, Note_on_c, 0, 73, 64
1, 766535, Note_on_c, 0, 73, 0
1, 766560, Note_on_c, 0, 74, 64
1, 767015, Note_on_c, 0, 74, 0
1, 767040, Note_on_c, 0, 78, 64
1, 767267, Note_on_c, 0, 78, 0
1, 767280, Note_on_c, 0, 74, 64
1, 767507, Note_on_c, 0, 74, 0
1, 767520, Note_on_c, 0, 78, 64
1, 767747, Note_on_c, 0, 78, 0
1, 767760, Note_on_c, 0, 74, 64
1, 767987, Note_on_c, 0, 74, 0
1, 768000, Note_on_c, 0, 76, 64
1, 768227, Note_on_c, 0, 76, 0
1, 768240, Note_on_c, 0, 78, 64
1, 768467, Note_on_c, 0, 78, 0
1, 768480, Note_on_c, 0, 76, 64
1, 768935, Note_on_c, 0, 76, 0
1, 768960, Note_on_c, 0, 74, 64
1, 769415, Note_on_c, 0, 74, 0
1, 769440, Note_on_c, 0, 73, 64
1, 769895, Note_on_c, 0, 73, 0
1, 769920, Note_on_c, 0, 69, 80
1, 770603, Note_on_c, 0, 69, 0
1, 770640, Note_on_c, 0, 81, 80
1, 771323, Note_on_c, 0, 81, 0
1, 771360, Note_on_c, 0, 76, 80
1, 771600, Note_on_c, 0, 74, 80
1, 771827, Note_on_c, 0, 74, 0
1, 771840, Note_on_c, 0, 76, 80
1, 772067, Note_on_c, 0, 76, 0
1, 772080, Note_on_c, 0, 78, 80
1, 772307, Note_on_c, 0, 78, 0
1, 772320, Note_on_c, 0, 76, 80
1, 772379, Note_on_c, 0, 76, 0
1, 772380, Note_on_c, 0, 78, 80
1, 772439, Note_on_c, 0, 78, 0
1, 772440, Note_on_c, 0, 74, 80
1, 772553, Note_on_c, 0, 74, 0
1, 772560, Note_on_c, 0, 76, 80
1, 772727, Note_on_c, 0, 76, 0
1, 772787, Note_on_c, 0, 76, 0
1, 772800, Note_on_c, 0, 74, 80
1, 773483, Note_on_c, 0, 74, 0
1, 773520, Note_on_c, 0, 81, 80
1, 774203, Note_on_c, 0, 81, 0
1, 774240, Note_on_c, 0, 69, 80
1, 774480, Note_on_c, 0, 74, 80
1, 774707, Note_on_c, 0, 74, 0
1, 774720, Note_on_c, 0, 76, 80
1, 774947, Note_on_c, 0, 76, 0
1, 774960, Note_on_c, 0, 78, 80
1, 775187, Note_on_c, 0, 78, 0
1, 775200, Note_on_c, 0, 76, 80
1, 775259, Note_on_c, 0, 76, 0
1, 775260, Note_on_c, 0, 78, 80
1, 775319, Note_on_c, 0, 78, 0
1, 775320, Note_on_c, 0, 74, 80
1, 775433, Note_on_c, 0, 74, 0
1, 775440, Note_on_c, 0, 81, 80
1, 775607, Note_on_c, 0, 69, 0
1, 775667, Note_on_c, 0, 81, 0
1, 775680, Note_on_c, 0, 69, 80
1, 775680, Note_on_c, 0, 78, 80
1, 776363, Note_on_c, 0, 69, 0
1, 776363, Note_on_c, 0, 78, 0
1, 776400, Note_on_c, 0, 74, 80
1, 776400, Note_on_c, 0, 79, 80
1, 776855, Note_on_c, 0, 79, 0
1, 776880, Note_on_c, 0, 78, 80
1, 777083, Note_on_c, 0, 74, 0
1, 777107, Note_on_c, 0, 78, 0
1, 777120, Note_on_c, 0, 81, 80
1, 777120, Note_on_c, 0, 76, 80
1, 777803, Note_on_c, 0, 76, 0
1, 777840, Note_on_c, 0, 74, 80
1, 778259, Note_on_c, 0, 81, 0
1, 778295, Note_on_c, 0, 74, 0
1, 778320, Note_on_c, 0, 83, 80
1, 778320, Note_on_c, 0, 76, 80
1, 778547, Note_on_c, 0, 83, 0
1, 778547, Note_on_c, 0, 76, 0
1, 778560, Note_on_c, 0, 81, 80
1, 778560, Note_on_c, 0, 78, 80
1, 779243, Note_on_c, 0, 81, 0
1, 779243, Note_on_c, 0, 78, 0
1, 779280, Note_on_c, 0, 76, 80
1, 779280, Note_on_c, 0, 79, 80
1, 779735, Note_on_c, 0, 79, 0
1, 779760, Note_on_c, 0, 83, 80
1, 779963, Note_on_c, 0, 76, 0
1, 779987, Note_on_c, 0, 83, 0
1, 780000, Note_on_c, 0, 74, 80
1, 780000, Note_on_c, 0, 81, 80
1, 781367, Note_on_c, 0, 74, 0
1, 781367, Note_on_c, 0, 81, 0
1, 781440, Note_on_c, 0, 69, 80
1, 782123, Note_on_c, 0, 69, 0
1, 782160, Note_on_c, 0, 81, 80
1, 782615, Note_on_c, 0, 81, 0
1, 782640, Note_on_c, 0, 78, 80
1, 782867, Note_on_c, 0, 78, 0
1, 782880, Note_on_c, 0, 76, 80
1, 783335, Note_on_c, 0, 76, 0
1, 783360, Note_on_c, 0, 74, 80
1, 783587, Note_on_c, 0, 74, 0
1, 783600, Note_on_c, 0, 73, 80
1, 784055, Note_on_c, 0, 73, 0
1, 784080, Note_on_c, 0, 74, 80
1, 784307, Note_on_c, 0, 74, 0
1, 784320, Note_on_c, 0, 76, 80
1, 785003, Note_on_c, 0, 76, 0
1, 785040, Note_on_c, 0, 83, 80
1, 785099, Note_on_c, 0, 83, 0
1, 785100, Note_on_c, 0, 84, 80
1, 785159, Note_on_c, 0, 84, 0
1, 785160, Note_on_c, 0, 85, 80
1, 785273, Note_on_c, 0, 85, 0
1, 785280, Note_on_c, 0, 84, 80
1, 785507, Note_on_c, 0, 84, 0
1, 785520, Note_on_c, 0, 83, 80
1, 785747, Note_on_c, 0, 83, 0
1, 785760, Note_on_c, 0, 81, 80
1, 787127, Note_on_c, 0, 81, 0
1, 787200, Note_on_c, 0, 71, 80
1, 787883, Note_on_c, 0, 71, 0
1, 787920, Note_on_c, 0, 81, 80
1, 788375, Note_on_c, 0, 81, 0
1, 788400, Note_on_c, 0, 78, 80
1, 788627, Note_on_c, 0, 78, 0
1, 788640, Note_on_c, 0, 76, 80
1, 789095, Note_on_c, 0, 76, 0
1, 789120, Note_on_c, 0, 78, 80
1, 789179, Note_on_c, 0, 78, 0
1, 789180, Note_on_c, 0, 76, 80
1, 789239, Note_on_c, 0, 76, 0
1, 789240, Note_on_c, 0, 74, 80
1, 789353, Note_on_c, 0, 74, 0
1, 789360, Note_on_c, 0, 76, 80
1, 789815, Note_on_c, 0, 76, 0
1, 789840, Note_on_c, 0, 78, 80
1, 790067, Note_on_c, 0, 78, 0
1, 790080, Note_on_c, 0, 73, 80
1, 790763, Note_on_c, 0, 73, 0
1, 790800, Note_on_c, 0, 76, 80
1, 791483, Note_on_c, 0, 76, 0
1, 791520, Note_on_c, 0, 76, 80
1, 791975, Note_on_c, 0, 76, 0
1, 792000, Note_on_c, 0, 74, 80
1, 792227, Note_on_c, 0, 74, 0
1, 792240, Note_on_c, 0, 73, 80
1, 792467, Note_on_c, 0, 73, 0
1, 792480, Note_on_c, 0, 74, 80
1, 792935, Note_on_c, 0, 74, 0
1, 792960, Time_signature, 4, 2, 24, 8
1, 792960, Key_signature, -2, "major"
1, 792960, Tempo, 352942
1, 792960, Note_on_c, 0, 65, 80
1, 792960, Note_on_c, 0, 70, 80
1, 792960, Note_on_c, 0, 77, 80
1, 793871, Note_on_c, 0, 65, 0
1, 793871, Note_on_c, 0, 70, 0
1, 793871, Note_on_c, 0, 77, 0
1, 793920, Note_on_c, 0, 77, 80
1, 793920, Note_on_c, 0, 82, 80
1, 793920, Note_on_c, 0, 89, 80
1, 794831, Note_on_c, 0, 77, 0
1, 794831, Note_on_c, 0, 82, 0
1, 794831, Note_on_c, 0, 89, 0
1, 794880, Note_on_c, 0, 72, 80
1, 794880, Note_on_c, 0, 75, 80
1, 794880, Note_on_c, 0, 84, 80
1, 795791, Note_on_c, 0, 72, 0
1, 795791, Note_on_c, 0, 75, 0
1, 795791, Note_on_c, 0, 84, 0
1, 795840, Note_on_c, 0, 70, 80
1, 795840, Note_on_c, 0, 74, 80
1, 796295, Note_on_c, 0, 70, 0
1, 796295, Note_on_c, 0, 74, 0
1, 796320, Note_on_c, 0, 70, 80
1, 796320, Note_on_c, 0, 74, 80
1, 796547, Note_on_c, 0, 70, 0
1, 796547, Note_on_c, 0, 74, 0
1, 796560, Note_on_c, 0, 70, 80
1, 796560, Note_on_c, 0, 77, 80
1, 796787, Note_on_c, 0, 70, 0
1, 796787, Note_on_c, 0, 77, 0
1, 796800, Note_on_c, 0, 70, 80
1, 796800, Note_on_c, 0, 74, 80
1, 796800, Note_on_c, 0, 82, 80
1, 797711, Note_on_c, 0, 70, 0
1, 797711, Note_on_c, 0, 74, 0
1, 797711, Note_on_c, 0, 82, 0
1, 797760, Note_on_c, 0, 77, 80
1, 797760, Note_on_c, 0, 82, 80
1, 797760, Note_on_c, 0, 89, 80
1, 798671, Note_on_c, 0, 77, 0
1, 798671, Note_on_c, 0, 82, 0
1, 798671, Note_on_c, 0, 89, 0
1, 798720, Note_on_c, 0, 65, 80
1, 798720, Note_on_c, 0, 70, 80
1, 798720, Note_on_c, 0, 77, 80
1, 799631, Note_on_c, 0, 65, 0
1, 799631, Note_on_c, 0, 70, 0
1, 799631, Note_on_c, 0, 77, 0
1, 799680, Note_on_c, 0, 70, 80
1, 799680, Note_on_c, 0, 74, 80
1, 800135, Note_on_c, 0, 70, 0
1, 800135, Note_on_c, 0, 74, 0
1, 800160, Note_on_c, 0, 70, 80
1, 800160, Note_on_c, 0, 74, 80
1, 800387, Note_on_c, 0, 70, 0
1, 800387, Note_on_c, 0, 74, 0
1, 800400, Note_on_c, 0, 74, 80
1, 800400, Note_on_c, 0, 77, 80
1, 800627, Note_on_c, 0, 74, 0
1, 800627, Note_on_c, 0, 77, 0
1, 800640, Note_on_c, 0, 57, 80
1, 800640, Note_on_c, 0, 62, 80
1, 801551, Note_on_c, 0, 57, 0
1, 801551, Note_on_c, 0, 62, 0
1, 801600, Note_on_c, 0, 57, 80
1, 801600, Note_on_c, 0, 65, 80
1, 801600, Note_on_c, 0, 69, 80
1, 802511, Note_on_c, 0, 57, 0
1, 802511, Note_on_c, 0, 65, 0
1, 802511, Note_on_c, 0, 69, 0
1, 802560, Note_on_c, 0, 69, 80
1, 802560, Note_on_c, 0, 74, 80
1, 802560, Note_on_c, 0, 81, 80
1, 803471, Note_on_c, 0, 69, 0
1, 803471, Note_on_c, 0, 74, 0
1, 803471, Note_on_c, 0, 81, 0
1, 803520, Note_on_c, 0, 69, 80
1, 803520, Note_on_c, 0, 74, 80
1, 803975, Note_on_c, 0, 69, 0
1, 803975, Note_on_c, 0, 74, 0
1, 804000, Note_on_c, 0, 70, 80
1, 804000, Note_on_c, 0, 74, 80
1, 804000, Note_on_c, 0, 82, 80
1, 804455, Note_on_c, 0, 70, 0
1, 804455, Note_on_c, 0, 74, 0
1, 804455, Note_on_c, 0, 82, 0
1, 804480, Note_on_c, 0, 69, 80
1, 804480, Note_on_c, 0, 74, 80
1, 804480, Note_on_c, 0, 77, 80
1, 804480, Note_on_c, 0, 81, 80
1, 805391, Note_on_c, 0, 69, 0
1, 805391, Note_on_c, 0, 74, 0
1, 805391, Note_on_c, 0, 77, 0
1, 805391, Note_on_c, 0, 81, 0
1, 805440, Note_on_c, 0, 60, 80
1, 805440, Note_on_c, 0, 65, 80
1, 805440, Note_on_c, 0, 69, 80
1, 805440, Note_on_c, 0, 72, 80
1, 806351, Note_on_c, 0, 60, 0
1, 806351, Note_on_c, 0, 65, 0
1, 806351, Note_on_c, 0, 69, 0
1, 806351, Note_on_c, 0, 72, 0
1, 806400, Note_on_c, 0, 70, 80
1, 806640, Note_on_c, 0, 82, 80
1, 806867, Note_on_c, 0, 82, 0
1, 806880, Note_on_c, 0, 81, 80
1, 807107, Note_on_c, 0, 81, 0
1, 807120, Note_on_c, 0, 77, 80
1, 807347, Note_on_c, 0, 77, 0
1, 807360, Note_on_c, 0, 74, 80
1, 807587, Note_on_c, 0, 74, 0
1, 807600, Note_on_c, 0, 72, 80
1, 807827, Note_on_c, 0, 72, 0
1, 807840, Note_on_c, 0, 70, 80
1, 808067, Note_on_c, 0, 70, 0
1, 808080, Note_on_c, 0, 65, 80
1, 808223, Note_on_c, 0, 70, 0
1, 808307, Note_on_c, 0, 65, 0
1, 808320, Note_on_c, 0, 65, 64
1, 808775, Note_on_c, 0, 65, 0
1, 808800, Note_on_c, 0, 58, 64
1, 809255, Note_on_c, 0, 58, 0
1, 809280, Note_on_c, 0, 60, 64
1, 809735, Note_on_c, 0, 60, 0
1, 809760, Note_on_c, 0, 58, 64
1, 810215, Note_on_c, 0, 58, 0
1, 810240, Note_on_c, 0, 53, 64
1, 810695, Note_on_c, 0, 53, 0
1, 810720, Note_on_c, 0, 58, 64
1, 811175, Note_on_c, 0, 58, 0
1, 811200, Note_on_c, 0, 60, 64
1, 811655, Note_on_c, 0, 60, 0
1, 811680, Note_on_c, 0, 58, 64
1, 812135, Note_on_c, 0, 58, 0
1, 812160, Note_on_c, 0, 53, 64
1, 812615, Note_on_c, 0, 53, 0
1, 812640, Note_on_c, 0, 53, 64
1, 812867, Note_on_c, 0, 53, 0
1, 812880, Note_on_c, 0, 58, 64
1, 813107, Note_on_c, 0, 58, 0
1, 813120, Note_on_c, 0, 60, 64
1, 813575, Note_on_c, 0, 60, 0
1, 813600, Note_on_c, 0, 63, 64
1, 814055, Note_on_c, 0, 63, 0
1, 814080, Note_on_c, 0, 62, 64
1, 814535, Note_on_c, 0, 62, 0
1, 814560, Note_on_c, 0, 63, 64
1, 815015, Note_on_c, 0, 63, 0
1, 815040, Note_on_c, 0, 62, 64
1, 815267, Note_on_c, 0, 62, 0
1, 815280, Note_on_c, 0, 60, 64
1, 815507, Note_on_c, 0, 60, 0
1, 815520, Note_on_c, 0, 58, 64
1, 815975, Note_on_c, 0, 58, 0
1, 816000, Note_on_c, 0, 65, 64
1, 816000, Note_on_c, 0, 77, 64
1, 816455, Note_on_c, 0, 65, 0
1, 816455, Note_on_c, 0, 77, 0
1, 816480, Note_on_c, 0, 58, 64
1, 816480, Note_on_c, 0, 70, 64
1, 816935, Note_on_c, 0, 58, 0
1, 816935, Note_on_c, 0, 70, 0
1, 816960, Note_on_c, 0, 60, 64
1, 816960, Note_on_c, 0, 72, 64
1, 817415, Note_on_c, 0, 60, 0
1, 817415, Note_on_c, 0, 72, 0
1, 817440, Note_on_c, 0, 58, 64
1, 817440, Note_on_c, 0, 70, 64
1, 817895, Note_on_c, 0, 58, 0
1, 817895, Note_on_c, 0, 70, 0
1, 817920, Note_on_c, 0, 53, 64
1, 817920, Note_on_c, 0, 65, 64
1, 818147, Note_on_c, 0, 53, 0
1, 818147, Note_on_c, 0, 65, 0
1, 818160, Note_on_c, 0, 58, 64
1, 818160, Note_on_c, 0, 70, 64
1, 818387, Note_on_c, 0, 58, 0
1, 818387, Note_on_c, 0, 70, 0
1, 818640, Note_on_c, 0, 60, 64
1, 818640, Note_on_c, 0, 72, 64
1, 819095, Note_on_c, 0, 60, 0
1, 819095, Note_on_c, 0, 72, 0
1, 819120, Note_on_c, 0, 62, 64
1, 819120, Note_on_c, 0, 74, 64
1, 819233, Note_on_c, 0, 62, 0
1, 819233, Note_on_c, 0, 74, 0
1, 819240, Note_on_c, 0, 60, 64
1, 819240, Note_on_c, 0, 72, 64
1, 819353, Note_on_c, 0, 60, 0
1, 819353, Note_on_c, 0, 72, 0
1, 819360, Note_on_c, 0, 58, 64
1, 819360, Note_on_c, 0, 70, 64
1, 819815, Note_on_c, 0, 58, 0
1, 819815, Note_on_c, 0, 70, 0
1, 819840, Note_on_c, 0, 53, 64
1, 819840, Note_on_c, 0, 65, 64
1, 820295, Note_on_c, 0, 53, 0
1, 820295, Note_on_c, 0, 65, 0
1, 820320, Note_on_c, 0, 58, 64
1, 820320, Note_on_c, 0, 70, 64
1, 820775, Note_on_c, 0, 58, 0
1, 820775, Note_on_c, 0, 70, 0
1, 820800, Note_on_c, 0, 60, 64
1, 820800, Note_on_c, 0, 72, 64
1, 821027, Note_on_c, 0, 60, 0
1, 821027, Note_on_c, 0, 72, 0
1, 821040, Note_on_c, 0, 63, 64
1, 821040, Note_on_c, 0, 75, 64
1, 821267, Note_on_c, 0, 63, 0
1, 821267, Note_on_c, 0, 75, 0
1, 821520, Note_on_c, 0, 62, 64
1, 821520, Note_on_c, 0, 74, 64
1, 821975, Note_on_c, 0, 62, 0
1, 821975, Note_on_c, 0, 74, 0
1, 822000, Note_on_c, 0, 63, 64
1, 822000, Note_on_c, 0, 75, 64
1, 822113, Note_on_c, 0, 63, 0
1, 822113, Note_on_c, 0, 75, 0
1, 822120, Note_on_c, 0, 62, 64
1, 822120, Note_on_c, 0, 74, 64
1, 822233, Note_on_c, 0, 62, 0
1, 822233, Note_on_c, 0, 74, 0
1, 822240, Note_on_c, 0, 60, 64
1, 822240, Note_on_c, 0, 72, 64
1, 822695, Note_on_c, 0, 60, 0
1, 822695, Note_on_c, 0, 72, 0
1, 822720, Note_on_c, 0, 58, 64
1, 822720, Note_on_c, 0, 70, 64
1, 823175, Note_on_c, 0, 58, 0
1, 823175, Note_on_c, 0, 70, 0
1, 823200, Note_on_c, 0, 53, 64
1, 823200, Note_on_c, 0, 65, 64
1, 823655, Note_on_c, 0, 53, 0
1, 823655, Note_on_c, 0, 65, 0
1, 823680, Key_signature, 5, "major"
1, 823680, Tempo, 333333
1, 823680, Note_on_c, 0, 54, 112
1, 823680, Note_on_c, 0, 66, 112
1, 824591, Note_on_c, 0, 54, 0
1, 824591, Note_on_c, 0, 66, 0
1, 824640, Note_on_c, 0, 66, 112
1, 824640, Note_on_c, 0, 78, 112
1, 825551, Note_on_c, 0, 66, 0
1, 825551, Note_on_c, 0, 78, 0
1, 825600, Note_on_c, 0, 61, 112
1, 825600, Note_on_c, 0, 73, 112
1, 827423, Note_on_c, 0, 61, 0
1, 827423, Note_on_c, 0, 73, 0
1, 827520, Note_on_c, 0, 59, 112
1, 827520, Note_on_c, 0, 71, 112
1, 828431, Note_on_c, 0, 59, 0
1, 828431, Note_on_c, 0, 71, 0
1, 828480, Note_on_c, 0, 66, 112
1, 828480, Note_on_c, 0, 78, 112
1, 828935, Note_on_c, 0, 66, 0
1, 828935, Note_on_c, 0, 78, 0
1, 828960, Note_on_c, 0, 68, 112
1, 828960, Note_on_c, 0, 80, 112
1, 829187, Note_on_c, 0, 68, 0
1, 829187, Note_on_c, 0, 80, 0
1, 829200, Note_on_c, 0, 66, 112
1, 829200, Note_on_c, 0, 78, 112
1, 829319, Note_on_c, 0, 66, 0
1, 829319, Note_on_c, 0, 78, 0
1, 829680, Note_on_c, 0, 63, 112
1, 829680, Note_on_c, 0, 75, 112
1, 830135, Note_on_c, 0, 63, 0
1, 830135, Note_on_c, 0, 75, 0
1, 830160, Note_on_c, 0, 61, 112
1, 830160, Note_on_c, 0, 73, 112
1, 830615, Note_on_c, 0, 61, 0
1, 830615, Note_on_c, 0, 73, 0
1, 830640, Note_on_c, 0, 63, 112
1, 830640, Note_on_c, 0, 75, 112
1, 830753, Note_on_c, 0, 63, 0
1, 830753, Note_on_c, 0, 75, 0
1, 830760, Note_on_c, 0, 61, 112
1, 830760, Note_on_c, 0, 73, 112
1, 830873, Note_on_c, 0, 61, 0
1, 830873, Note_on_c, 0, 73, 0
1, 830880, Note_on_c, 0, 59, 112
1, 830880, Note_on_c, 0, 71, 112
1, 831335, Note_on_c, 0, 59, 0
1, 831335, Note_on_c, 0, 71, 0
1, 831360, Note_on_c, 0, 59, 112
1, 831360, Note_on_c, 0, 71, 112
1, 831815, Note_on_c, 0, 59, 0
1, 831815, Note_on_c, 0, 71, 0
1, 831840, Note_on_c, 0, 59, 112
1, 831840, Note_on_c, 0, 71, 112
1, 832067, Note_on_c, 0, 59, 0
1, 832067, Note_on_c, 0, 71, 0
1, 832080, Note_on_c, 0, 61, 112
1, 832080, Note_on_c, 0, 73, 112
1, 832307, Note_on_c, 0, 61, 0
1, 832307, Note_on_c, 0, 73, 0
1, 832320, Note_on_c, 0, 63, 112
1, 832320, Note_on_c, 0, 75, 112
1, 832775, Note_on_c, 0, 63, 0
1, 832775, Note_on_c, 0, 75, 0
1, 832800, Note_on_c, 0, 59, 112
1, 832800, Note_on_c, 0, 71, 112
1, 833255, Note_on_c, 0, 59, 0
1, 833255, Note_on_c, 0, 71, 0
1, 833280, Note_on_c, 0, 61, 112
1, 833280, Note_on_c, 0, 73, 112
1, 833735, Note_on_c, 0, 61, 0
1, 833735, Note_on_c, 0, 73, 0
1, 833760, Note_on_c, 0, 61, 112
1, 833760, Note_on_c, 0, 73, 112
1, 833987, Note_on_c, 0, 61, 0
1, 833987, Note_on_c, 0, 73, 0
1, 834000, Note_on_c, 0, 63, 112
1, 834000, Note_on_c, 0, 75, 112
1, 834227, Note_on_c, 0, 63, 0
1, 834227, Note_on_c, 0, 75, 0
1, 834240, Note_on_c, 0, 61, 112
1, 834240, Note_on_c, 0, 73, 112
1, 834467, Note_on_c, 0, 61, 0
1, 834467, Note_on_c, 0, 73, 0
1, 834480, Note_on_c, 0, 63, 112
1, 834480, Note_on_c, 0, 75, 112
1, 834593, Note_on_c, 0, 63, 0
1, 834593, Note_on_c, 0, 75, 0
1, 834600, Note_on_c, 0, 61, 112
1, 834600, Note_on_c, 0, 73, 112
1, 834713, Note_on_c, 0, 61, 0
1, 834713, Note_on_c, 0, 73, 0
1, 834720, Note_on_c, 0, 59, 112
1, 834720, Note_on_c, 0, 71, 112
1, 835175, Note_on_c, 0, 59, 0
1, 835175, Note_on_c, 0, 71, 0
1, 835200, Note_on_c, 0, 62, 112
1, 835200, Note_on_c, 0, 74, 112
1, 835655, Note_on_c, 0, 62, 0
1, 835655, Note_on_c, 0, 74, 0
1, 835680, Note_on_c, 0, 61, 112
1, 835680, Note_on_c, 0, 64, 112
1, 835680, Note_on_c, 0, 73, 112
1, 836135, Note_on_c, 0, 61, 0
1, 836135, Note_on_c, 0, 64, 0
1, 836135, Note_on_c, 0, 73, 0
1, 836160, Note_on_c, 0, 57, 112
1, 836160, Note_on_c, 0, 66, 112
1, 836160, Note_on_c, 0, 69, 112
1, 836615, Note_on_c, 0, 57, 0
1, 836615, Note_on_c, 0, 66, 0
1, 836615, Note_on_c, 0, 69, 0
1, 836640, Note_on_c, 0, 61, 112
1, 836640, Note_on_c, 0, 69, 112
1, 836640, Note_on_c, 0, 73, 112
1, 837095, Note_on_c, 0, 61, 0
1, 837095, Note_on_c, 0, 69, 0
1, 837095, Note_on_c, 0, 73, 0
1, 837120, Note_on_c, 0, 59, 112
1, 837120, Note_on_c, 0, 64, 112
1, 837120, Note_on_c, 0, 71, 112
1, 838031, Note_on_c, 0, 59, 0
1, 838031, Note_on_c, 0, 64, 0
1, 838031, Note_on_c, 0, 71, 0
1, 838080, Note_on_c, 0, 61, 112
1, 838080, Note_on_c, 0, 66, 112
1, 838080, Note_on_c, 0, 73, 112
1, 838991, Note_on_c, 0, 61, 0
1, 838991, Note_on_c, 0, 66, 0
1, 838991, Note_on_c, 0, 73, 0
1, 839280, Note_on_c, 0, 54, 112
1, 839280, Note_on_c, 0, 66, 112
1, 839507, Note_on_c, 0, 54, 0
1, 839507, Note_on_c, 0, 66, 0
1, 839520, Note_on_c, 0, 59, 112
1, 839520, Note_on_c, 0, 71, 112
1, 839747, Note_on_c, 0, 59, 0
1, 839747, Note_on_c, 0, 71, 0
1, 839760, Note_on_c, 0, 61, 112
1, 839760, Note_on_c, 0, 73, 112
1, 839987, Note_on_c, 0, 61, 0
1, 839987, Note_on_c, 0, 73, 0
1, 840240, Note_on_c, 0, 54, 112
1, 840240, Note_on_c, 0, 66, 112
1, 840467, Note_on_c, 0, 54, 0
1, 840467, Note_on_c, 0, 66, 0
1, 840480, Note_on_c, 0, 59, 112
1, 840480, Note_on_c, 0, 71, 112
1, 840707, Note_on_c, 0, 59, 0
1, 840707, Note_on_c, 0, 71, 0
1, 840720, Note_on_c, 0, 61, 112
1, 840720, Note_on_c, 0, 73, 112
1, 840947, Note_on_c, 0, 61, 0
1, 840947, Note_on_c, 0, 73, 0
1, 841200, Note_on_c, 0, 55, 112
1, 841200, Note_on_c, 0, 67, 112
1, 841427, Note_on_c, 0, 55, 0
1, 841427, Note_on_c, 0, 67, 0
1, 841440, Note_on_c, 0, 59, 112
1, 841440, Note_on_c, 0, 71, 112
1, 841667, Note_on_c, 0, 59, 0
1, 841667, Note_on_c, 0, 71, 0
1, 841680, Note_on_c, 0, 61, 112
1, 841680, Note_on_c, 0, 73, 112
1, 841907, Note_on_c, 0, 61, 0
1, 841907, Note_on_c, 0, 73, 0
1, 842160, Note_on_c, 0, 55, 112
1, 842160, Note_on_c, 0, 67, 112
1, 842387, Note_on_c, 0, 55, 0
1, 842387, Note_on_c, 0, 67, 0
1, 842400, Note_on_c, 0, 59, 112
1, 842400, Note_on_c, 0, 71, 112
1, 842627, Note_on_c, 0, 59, 0
1, 842627, Note_on_c, 0, 71, 0
1, 842640, Note_on_c, 0, 61, 112
1, 842640, Note_on_c, 0, 73, 112
1, 842867, Note_on_c, 0, 61, 0
1, 842867, Note_on_c, 0, 73, 0
1, 842880, Note_on_c, 0, 68, 112
1, 842880, Note_on_c, 0, 80, 112
1, 843335, Note_on_c, 0, 68, 0
1, 843335, Note_on_c, 0, 80, 0
1, 843360, Note_on_c, 0, 63, 112
1, 843360, Note_on_c, 0, 75, 112
1, 843599, Note_on_c, 0, 63, 0
1, 843599, Note_on_c, 0, 75, 0
1, 843840, Note_on_c, 0, 61, 112
1, 843840, Note_on_c, 0, 73, 112
1, 844067, Note_on_c, 0, 61, 0
1, 844067, Note_on_c, 0, 73, 0
1, 844080, Note_on_c, 0, 59, 112
1, 844080, Note_on_c, 0, 71, 112
1, 844307, Note_on_c, 0, 59, 0
1, 844307, Note_on_c, 0, 71, 0
1, 844560, Note_on_c, 0, 61, 112
1, 844560, Note_on_c, 0, 73, 112
1, 845015, Note_on_c, 0, 61, 0
1, 845015, Note_on_c, 0, 73, 0
1, 845040, Note_on_c, 0, 63, 112
1, 845040, Note_on_c, 0, 75, 112
1, 845153, Note_on_c, 0, 63, 0
1, 845153, Note_on_c, 0, 75, 0
1, 845160, Note_on_c, 0, 61, 112
1, 845160, Note_on_c, 0, 73, 112
1, 845273, Note_on_c, 0, 61, 0
1, 845273, Note_on_c, 0, 73, 0
1, 845280, Note_on_c, 0, 59, 112
1, 845280, Note_on_c, 0, 71, 112
1, 845735, Note_on_c, 0, 59, 0
1, 845735, Note_on_c, 0, 71, 0
1, 845760, Note_on_c, 0, 54, 112
1, 845760, Note_on_c, 0, 66, 112
1, 846215, Note_on_c, 0, 54, 0
1, 846215, Note_on_c, 0, 66, 0
1, 846240, Note_on_c, 0, 56, 112
1, 846240, Note_on_c, 0, 68, 112
1, 846695, Note_on_c, 0, 56, 0
1, 846695, Note_on_c, 0, 68, 0
1, 846720, Note_on_c, 0, 59, 112
1, 846720, Note_on_c, 0, 71, 112
1, 847175, Note_on_c, 0, 59, 0
1, 847175, Note_on_c, 0, 71, 0
1, 847200, Note_on_c, 0, 59, 112
1, 847200, Note_on_c, 0, 71, 112
1, 847427, Note_on_c, 0, 59, 0
1, 847427, Note_on_c, 0, 71, 0
1, 847440, Note_on_c, 0, 61, 112
1, 847440, Note_on_c, 0, 73, 112
1, 847667, Note_on_c, 0, 61, 0
1, 847667, Note_on_c, 0, 73, 0
1, 847680, Note_on_c, 0, 63, 112
1, 847680, Note_on_c, 0, 75, 112
1, 848135, Note_on_c, 0, 63, 0
1, 848135, Note_on_c, 0, 75, 0
1, 848160, Note_on_c, 0, 59, 112
1, 848160, Note_on_c, 0, 71, 112
1, 848615, Note_on_c, 0, 59, 0
1, 848615, Note_on_c, 0, 71, 0
1, 848640, Note_on_c, 0, 61, 112
1, 848640, Note_on_c, 0, 73, 112
1, 849095, Note_on_c, 0, 61, 0
1, 849095, Note_on_c, 0, 73, 0
1, 849120, Note_on_c, 0, 61, 112
1, 849120, Note_on_c, 0, 73, 112
1, 849347, Note_on_c, 0, 61, 0
1, 849347, Note_on_c, 0, 73, 0
1, 849360, Note_on_c, 0, 63, 112
1, 849360, Note_on_c, 0, 75, 112
1, 849587, Note_on_c, 0, 63, 0
1, 849587, Note_on_c, 0, 75, 0
1, 849600, Note_on_c, 0, 61, 112
1, 849600, Note_on_c, 0, 73, 112
1, 849827, Note_on_c, 0, 61, 0
1, 849827, Note_on_c, 0, 73, 0
1, 849840, Note_on_c, 0, 63, 112
1, 849840, Note_on_c, 0, 75, 112
1, 849953, Note_on_c, 0, 63, 0
1, 849953, Note_on_c, 0, 75, 0
1, 849960, Note_on_c, 0, 61, 112
1, 849960, Note_on_c, 0, 73, 112
1, 850073, Note_on_c, 0, 61, 0
1, 850073, Note_on_c, 0, 73, 0
1, 850080, Note_on_c, 0, 59, 112
1, 850080, Note_on_c, 0, 71, 112
1, 850535, Note_on_c, 0, 59, 0
1, 850535, Note_on_c, 0, 71, 0
1, 850560, Note_on_c, 0, 62, 112
1, 850560, Note_on_c, 0, 74, 112
1, 851015, Note_on_c, 0, 62, 0
1, 851015, Note_on_c, 0, 74, 0
1, 851040, Note_on_c, 0, 61, 112
1, 851040, Note_on_c, 0, 64, 112
1, 851040, Note_on_c, 0, 73, 112
1, 851495, Note_on_c, 0, 61, 0
1, 851495, Note_on_c, 0, 64, 0
1, 851495, Note_on_c, 0, 73, 0
1, 851520, Note_on_c, 0, 57, 112
1, 851520, Note_on_c, 0, 66, 112
1, 851520, Note_on_c, 0, 69, 112
1, 851975, Note_on_c, 0, 57, 0
1, 851975, Note_on_c, 0, 66, 0
1, 851975, Note_on_c, 0, 69, 0
1, 852000, Note_on_c, 0, 61, 112
1, 852000, Note_on_c, 0, 69, 112
1, 852000, Note_on_c, 0, 73, 112
1, 852455, Note_on_c, 0, 61, 0
1, 852455, Note_on_c, 0, 69, 0
1, 852455, Note_on_c, 0, 73, 0
1, 852480, Note_on_c, 0, 59, 112
1, 852480, Note_on_c, 0, 64, 112
1, 852480, Note_on_c, 0, 71, 112
1, 853391, Note_on_c, 0, 59, 0
1, 853391, Note_on_c, 0, 64, 0
1, 853391, Note_on_c, 0, 71, 0
1, 853440, Note_on_c, 0, 61, 112
1, 853440, Note_on_c, 0, 66, 112
1, 853440, Note_on_c, 0, 73, 112
1, 854351, Note_on_c, 0, 61, 0
1, 854351, Note_on_c, 0, 66, 0
1, 854351, Note_on_c, 0, 73, 0
1, 854400, Note_on_c, 0, 78, 80
1, 854400, Note_on_c, 0, 90, 80
1, 854855, Note_on_c, 0, 78, 0
1, 854855, Note_on_c, 0, 90, 0
1, 854880, Note_on_c, 0, 71, 80
1, 854880, Note_on_c, 0, 83, 80
1, 855335, Note_on_c, 0, 71, 0
1, 855335, Note_on_c, 0, 83, 0
1, 855360, Note_on_c, 0, 73, 80
1, 855360, Note_on_c, 0, 85, 80
1, 855815, Note_on_c, 0, 73, 0
1, 855815, Note_on_c, 0, 85, 0
1, 855840, Note_on_c, 0, 71, 80
1, 855840, Note_on_c, 0, 83, 80
1, 856295, Note_on_c, 0, 71, 0
1, 856295, Note_on_c, 0, 83, 0
1, 856320, Note_on_c, 0, 78, 80
1, 856547, Note_on_c, 0, 78, 0
1, 856560, Note_on_c, 0, 71, 80
1, 856560, Note_on_c, 0, 83, 80
1, 856787, Note_on_c, 0, 71, 0
1, 856787, Note_on_c, 0, 83, 0
1, 857040, Note_on_c, 0, 73, 80
1, 857040, Note_on_c, 0, 85, 80
1, 857495, Note_on_c, 0, 73, 0
1, 857495, Note_on_c, 0, 85, 0
1, 857520, Note_on_c, 0, 75, 80
1, 857520, Note_on_c, 0, 87, 80
1, 857633, Note_on_c, 0, 75, 0
1, 857633, Note_on_c, 0, 87, 0
1, 857640, Note_on_c, 0, 73, 80
1, 857640, Note_on_c, 0, 85, 80
1, 857753, Note_on_c, 0, 73, 0
1, 857753, Note_on_c, 0, 85, 0
1, 857760, Note_on_c, 0, 71, 80
1, 857760, Note_on_c, 0, 83, 80
1, 858215, Note_on_c, 0, 71, 0
1, 858215, Note_on_c, 0, 83, 0
1, 858240, Note_on_c, 0, 78, 80
1, 858695, Note_on_c, 0, 78, 0
1, 858720, Note_on_c, 0, 71, 80
1, 858720, Note_on_c, 0, 83, 80
1, 859175, Note_on_c, 0, 71, 0
1, 859175, Note_on_c, 0, 83, 0
1, 859200, Note_on_c, 0, 73, 80
1, 859200, Note_on_c, 0, 85, 80
1, 859427, Note_on_c, 0, 73, 0
1, 859427, Note_on_c, 0, 85, 0
1, 859440, Note_on_c, 0, 76, 80
1, 859440, Note_on_c, 0, 88, 80
1, 859667, Note_on_c, 0, 76, 0
1, 859667, Note_on_c, 0, 88, 0
1, 859920, Note_on_c, 0, 75, 80
1, 859920, Note_on_c, 0, 87, 80
1, 860375, Note_on_c, 0, 75, 0
1, 860375, Note_on_c, 0, 87, 0
1, 860400, Note_on_c, 0, 76, 80
1, 860400, Note_on_c, 0, 88, 80
1, 860513, Note_on_c, 0, 76, 0
1, 860513, Note_on_c, 0, 88, 0
1, 860520, Note_on_c, 0, 75, 80
1, 860520, Note_on_c, 0, 87, 80
1, 860633, Note_on_c, 0, 75, 0
1, 860633, Note_on_c, 0, 87, 0
1, 860640, Note_on_c, 0, 73, 80
1, 860640, Note_on_c, 0, 85, 80
1, 861095, Note_on_c, 0, 73, 0
1, 861095, Note_on_c, 0, 85, 0
1, 861120, Note_on_c, 0, 71, 80
1, 861120, Note_on_c, 0, 83, 80
1, 861575, Note_on_c, 0, 71, 0
1, 861575, Note_on_c, 0, 83, 0
1, 861600, Note_on_c, 0, 66, 80
1, 861600, Note_on_c, 0, 78, 80
1, 862055, Note_on_c, 0, 66, 0
1, 862055, Note_on_c, 0, 78, 0
1, 862080, Note_on_c, 0, 78, 80
1, 862080, Note_on_c, 0, 90, 80
1, 862535, Note_on_c, 0, 78, 0
1, 862535, Note_on_c, 0, 90, 0
1, 862560, Note_on_c, 0, 71, 80
1, 862560, Note_on_c, 0, 83, 80
1, 863015, Note_on_c, 0, 71, 0
1, 863015, Note_on_c, 0, 83, 0
1, 863040, Note_on_c, 0, 73, 80
1, 863040, Note_on_c, 0, 85, 80
1, 863495, Note_on_c, 0, 73, 0
1, 863495, Note_on_c, 0, 85, 0
1, 863520, Note_on_c, 0, 71, 80
1, 863520, Note_on_c, 0, 83, 80
1, 863975, Note_on_c, 0, 71, 0
1, 863975, Note_on_c, 0, 83, 0
1, 864000, Note_on_c, 0, 78, 80
1, 864227, Note_on_c, 0, 78, 0
1, 864240, Note_on_c, 0, 71, 80
1, 864240, Note_on_c, 0, 83, 80
1, 864467, Note_on_c, 0, 71, 0
1, 864467, Note_on_c, 0, 83, 0
1, 864720, Note_on_c, 0, 73, 80
1, 864720, Note_on_c, 0, 85, 80
1, 865175, Note_on_c, 0, 73, 0
1, 865175, Note_on_c, 0, 85, 0
1, 865200, Note_on_c, 0, 75, 80
1, 865200, Note_on_c, 0, 87, 80
1, 865313, Note_on_c, 0, 75, 0
1, 865313, Note_on_c, 0, 87, 0
1, 865320, Note_on_c, 0, 73, 80
1, 865320, Note_on_c, 0, 85, 80
1, 865433, Note_on_c, 0, 73, 0
1, 865433, Note_on_c, 0, 85, 0
1, 865440, Note_on_c, 0, 71, 80
1, 865440, Note_on_c, 0, 83, 80
1, 865895, Note_on_c, 0, 71, 0
1, 865895, Note_on_c, 0, 83, 0
1, 865920, Note_on_c, 0, 78, 80
1, 866375, Note_on_c, 0, 78, 0
1, 866400, Note_on_c, 0, 71, 80
1, 866400, Note_on_c, 0, 83, 80
1, 866855, Note_on_c, 0, 71, 0
1, 866855, Note_on_c, 0, 83, 0
1, 866880, Note_on_c, 0, 73, 80
1, 866880, Note_on_c, 0, 85, 80
1, 867107, Note_on_c, 0, 73, 0
1, 867107, Note_on_c, 0, 85, 0
1, 867120, Note_on_c, 0, 76, 80
1, 867120, Note_on_c, 0, 88, 80
1, 867347, Note_on_c, 0, 76, 0
1, 867347, Note_on_c, 0, 88, 0
1, 867600, Note_on_c, 0, 75, 80
1, 867600, Note_on_c, 0, 87, 80
1, 868055, Note_on_c, 0, 75, 0
1, 868055, Note_on_c, 0, 87, 0
1, 868080, Note_on_c, 0, 76, 80
1, 868080, Note_on_c, 0, 88, 80
1, 868193, Note_on_c, 0, 76, 0
1, 868193, Note_on_c, 0, 88, 0
1, 868200, Note_on_c, 0, 75, 80
1, 868200, Note_on_c, 0, 87, 80
1, 868313, Note_on_c, 0, 75, 0
1, 868313, Note_on_c, 0, 87, 0
1, 868320, Note_on_c, 0, 73, 80
1, 868320, Note_on_c, 0, 85, 80
1, 868775, Note_on_c, 0, 73, 0
1, 868775, Note_on_c, 0, 85, 0
1, 868800, Note_on_c, 0, 71, 80
1, 868800, Note_on_c, 0, 83, 80
1, 869255, Note_on_c, 0, 71, 0
1, 869255, Note_on_c, 0, 83, 0
1, 869280, Note_on_c, 0, 66, 80
1, 869280, Note_on_c, 0, 78, 80
1, 869735, Note_on_c, 0, 66, 0
1, 869735, Note_on_c, 0, 78, 0
1, 869760, Note_on_c, 0, 66, 80
1, 869760, Note_on_c, 0, 71, 80
1, 869760, Note_on_c, 0, 78, 80
1, 869987, Note_on_c, 0, 66, 0
1, 869987, Note_on_c, 0, 71, 0
1, 869987, Note_on_c, 0, 78, 0
1, 870000, Note_on_c, 0, 66, 80
1, 870000, Note_on_c, 0, 71, 80
1, 870000, Note_on_c, 0, 78, 80
1, 870455, Note_on_c, 0, 66, 0
1, 870455, Note_on_c, 0, 71, 0
1, 870455, Note_on_c, 0, 78, 0
1, 870480, Note_on_c, 0, 66, 80
1, 870480, Note_on_c, 0, 71, 80
1, 870480, Note_on_c, 0, 78, 80
1, 870707, Note_on_c, 0, 66, 0
1, 870707, Note_on_c, 0, 71, 0
1, 870707, Note_on_c, 0, 78, 0
1, 870720, Note_on_c, 0, 66, 80
1, 870720, Note_on_c, 0, 71, 80
1, 870720, Note_on_c, 0, 78, 80
1, 871175, Note_on_c, 0, 66, 0
1, 871175, Note_on_c, 0, 71, 0
1, 871175, Note_on_c, 0, 78, 0
1, 871200, Note_on_c, 0, 66, 80
1, 871200, Note_on_c, 0, 71, 80
1, 871200, Note_on_c, 0, 78, 80
1, 871427, Note_on_c, 0, 66, 0
1, 871427, Note_on_c, 0, 71, 0
1, 871427, Note_on_c, 0, 78, 0
1, 871440, Note_on_c, 0, 66, 80
1, 871440, Note_on_c, 0, 71, 80
1, 871440, Note_on_c, 0, 78, 80
1, 871667, Note_on_c, 0, 66, 0
1, 871667, Note_on_c, 0, 71, 0
1, 871667, Note_on_c, 0, 78, 0
1, 871920, Note_on_c, 0, 66, 80
1, 871920, Note_on_c, 0, 71, 80
1, 871920, Note_on_c, 0, 78, 80
1, 872147, Note_on_c, 0, 66, 0
1, 872147, Note_on_c, 0, 71, 0
1, 872147, Note_on_c, 0, 78, 0
1, 872160, Note_on_c, 0, 66, 80
1, 872160, Note_on_c, 0, 71, 80
1, 872160, Note_on_c, 0, 78, 80
1, 872615, Note_on_c, 0, 66, 0
1, 872615, Note_on_c, 0, 71, 0
1, 872615, Note_on_c, 0, 78, 0
1, 872640, Note_on_c, 0, 66, 80
1, 872640, Note_on_c, 0, 71, 80
1, 872640, Note_on_c, 0, 78, 80
1, 873095, Note_on_c, 0, 66, 0
1, 873095, Note_on_c, 0, 71, 0
1, 873095, Note_on_c, 0, 78, 0
1, 873120, Note_on_c, 0, 66, 80
1, 873120, Note_on_c, 0, 71, 80
1, 873120, Note_on_c, 0, 78, 80
1, 873575, Note_on_c, 0, 66, 0
1, 873575, Note_on_c, 0, 71, 0
1, 873575, Note_on_c, 0, 78, 0
1, 873600, Note_on_c, 0, 66, 80
1, 873600, Note_on_c, 0, 71, 80
1, 873600, Note_on_c, 0, 78, 80
1, 873827, Note_on_c, 0, 66, 0
1, 873827, Note_on_c, 0, 71, 0
1, 873827, Note_on_c, 0, 78, 0
1, 873840, Note_on_c, 0, 66, 80
1, 873840, Note_on_c, 0, 71, 80
1, 873840, Note_on_c, 0, 78, 80
1, 874295, Note_on_c, 0, 66, 0
1, 874295, Note_on_c, 0, 71, 0
1, 874295, Note_on_c, 0, 78, 0
1, 874320, Note_on_c, 0, 66, 78
1, 874320, Note_on_c, 0, 71, 78
1, 874320, Note_on_c, 0, 78, 78
1, 874547, Note_on_c, 0, 66, 0
1, 874547, Note_on_c, 0, 71, 0
1, 874547, Note_on_c, 0, 78, 0
1, 874560, Note_on_c, 0, 66, 77
1, 874560, Note_on_c, 0, 71, 77
1, 874560, Note_on_c, 0, 78, 77
1, 875015, Note_on_c, 0, 66, 0
1, 875015, Note_on_c, 0, 71, 0
1, 875015, Note_on_c, 0, 78, 0
1, 875040, Note_on_c, 0, 66, 75
1, 875040, Note_on_c, 0, 71, 75
1, 875040, Note_on_c, 0, 78, 75
1, 875267, Note_on_c, 0, 66, 0
1, 875267, Note_on_c, 0, 71, 0
1, 875267, Note_on_c, 0, 78, 0
1, 875280, Note_on_c, 0, 66, 74
1, 875280, Note_on_c, 0, 71, 74
1, 875280, Note_on_c, 0, 78, 74
1, 875507, Note_on_c, 0, 66, 0
1, 875507, Note_on_c, 0, 71, 0
1, 875507, Note_on_c, 0, 78, 0
1, 875760, Note_on_c, 0, 71, 72
1, 875760, Note_on_c, 0, 78, 72
1, 875987, Note_on_c, 0, 71, 0
1, 875987, Note_on_c, 0, 78, 0
1, 876000, Note_on_c, 0, 71, 71
1, 876000, Note_on_c, 0, 78, 71
1, 876455, Note_on_c, 0, 71, 0
1, 876455, Note_on_c, 0, 78, 0
1, 876480, Note_on_c, 0, 71, 69
1, 876480, Note_on_c, 0, 78, 69
1, 876935, Note_on_c, 0, 71, 0
1, 876935, Note_on_c, 0, 78, 0
1, 876960, Note_on_c, 0, 71, 67
1, 876960, Note_on_c, 0, 78, 67
1, 877415, Note_on_c, 0, 71, 0
1, 877415, Note_on_c, 0, 78, 0
1, 877440, Note_on_c, 0, 76, 65
1, 877440, Note_on_c, 0, 78, 65
1, 877667, Note_on_c, 0, 76, 0
1, 877667, Note_on_c, 0, 78, 0
1, 877680, Note_on_c, 0, 78, 64
1, 878135, Note_on_c, 0, 78, 0
1, 878160, Note_on_c, 0, 75, 62
1, 878160, Note_on_c, 0, 78, 62
1, 878387, Note_on_c, 0, 75, 0
1, 878387, Note_on_c, 0, 78, 0
1, 878400, Note_on_c, 0, 78, 61
1, 878855, Note_on_c, 0, 78, 0
1, 878880, Note_on_c, 0, 71, 59
1, 878880, Note_on_c, 0, 78, 59
1, 879107, Note_on_c, 0, 71, 0
1, 879107, Note_on_c, 0, 78, 0
1, 879120, Note_on_c, 0, 78, 58
1, 879347, Note_on_c, 0, 78, 0
1, 879600, Note_on_c, 0, 76, 56
1, 879600, Note_on_c, 0, 78, 56
1, 879827, Note_on_c, 0, 76, 0
1, 879827, Note_on_c, 0, 78, 0
1, 879840, Note_on_c, 0, 78, 55
1, 880295, Note_on_c, 0, 78, 0
1, 880320, Note_on_c, 0, 75, 53
1, 880320, Note_on_c, 0, 78, 53
1, 880775, Note_on_c, 0, 75, 0
1, 880775, Note_on_c, 0, 78, 0
1, 880800, Note_on_c, 0, 71, 51
1, 880800, Note_on_c, 0, 78, 51
1, 881255, Note_on_c, 0, 71, 0
1, 881255, Note_on_c, 0, 78, 0
1, 881280, Tempo, 1000000
1, 881280, Note_on_c, 0, 78, 49
1, 881735, Note_on_c, 0, 78, 0
1, 881760, Note_on_c, 0, 90, 49
1, 882215, Note_on_c, 0, 90, 0
1, 882240, Note_on_c, 0, 85, 49
1, 883151, Note_on_c, 0, 85, 0
1, 883200, Note_on_c, 0, 83, 49
1, 883655, Note_on_c, 0, 83, 0
1, 883680, Note_on_c, 0, 90, 49
1, 884135, Note_on_c, 0, 90, 0
1, 884160, Note_on_c, 0, 78, 49
1, 885071, Note_on_c, 0, 78, 0
1, 885120, Note_on_c, 0, 78, 49
1, 885575, Note_on_c, 0, 78, 0
1, 885600, Note_on_c, 0, 83, 49
1, 886055, Note_on_c, 0, 83, 0
1, 886080, Note_on_c, 0, 90, 49
1, 886535, Note_on_c, 0, 90, 0
1, 886560, Note_on_c, 0, 92, 49
1, 887015, Note_on_c, 0, 92, 0
1, 887040, Note_on_c, 0, 78, 49
1, 887040, Note_on_c, 0, 90, 49
1, 887495, Note_on_c, 0, 78, 0
1, 887495, Note_on_c, 0, 90, 0
1, 887520, Note_on_c, 0, 73, 51
1, 887520, Note_on_c, 0, 85, 51
1, 887975, Note_on_c, 0, 73, 0
1, 887975, Note_on_c, 0, 85, 0
1, 888000, Note_on_c, 0, 71, 54
1, 888000, Note_on_c, 0, 83, 54
1, 888911, Note_on_c, 0, 71, 0
1, 888911, Note_on_c, 0, 83, 0
1, 888960, Note_on_c, 0, 81, 59
1, 888960, Note_on_c, 0, 93, 59
1, 889415, Note_on_c, 0, 81, 0
1, 889415, Note_on_c, 0, 93, 0
1, 889440, Note_on_c, 0, 76, 61
1, 889440, Note_on_c, 0, 88, 61
1, 889895, Note_on_c, 0, 76, 0
1, 889895, Note_on_c, 0, 88, 0
1, 889920, Note_on_c, 0, 74, 64
1, 889920, Note_on_c, 0, 86, 64
1, 890375, Note_on_c, 0, 74, 0
1, 890375, Note_on_c, 0, 86, 0
1, 890400, Note_on_c, 0, 76, 67
1, 890400, Note_on_c, 0, 88, 67
1, 890855, Note_on_c, 0, 76, 0
1, 890855, Note_on_c, 0, 88, 0
1, 890880, Note_on_c, 0, 77, 69
1, 890880, Note_on_c, 0, 89, 69
1, 891791, Note_on_c, 0, 77, 0
1, 891791, Note_on_c, 0, 89, 0
1, 891840, Note_on_c, 0, 79, 74
1, 891840, Note_on_c, 0, 91, 74
1, 892751, Note_on_c, 0, 79, 0
1, 892751, Note_on_c, 0, 91, 0
1, 892800, Key_signature, 3, "major"
1, 892800, Tempo, 260870
1, 893280, Note_on_c, 0, 76, 65
1, 893280, Note_on_c, 0, 88, 80
1, 893735, Note_on_c, 0, 76, 0
1, 893735, Note_on_c, 0, 88, 0
1, 894000, Note_on_c, 0, 73, 64
1, 894000, Note_on_c, 0, 85, 80
1, 894359, Note_on_c, 0, 73, 0
1, 894359, Note_on_c, 0, 85, 0
1, 894720, Note_on_c, 0, 69, 80
1, 894720, Note_on_c, 0, 81, 80
1, 895175, Note_on_c, 0, 69, 0
1, 895175, Note_on_c, 0, 81, 0
1, 895200, Note_on_c, 0, 71, 80
1, 895200, Note_on_c, 0, 83, 80
1, 895427, Note_on_c, 0, 71, 0
1, 895427, Note_on_c, 0, 83, 0
1, 895440, Note_on_c, 0, 69, 64
1, 895440, Note_on_c, 0, 81, 80
1, 895667, Note_on_c, 0, 69, 0
1, 895667, Note_on_c, 0, 81, 0
1, 895920, Note_on_c, 0, 64, 64
1, 895920, Note_on_c, 0, 76, 80
1, 896147, Note_on_c, 0, 64, 0
1, 896147, Note_on_c, 0, 76, 0
1, 896160, Note_on_c, 0, 66, 65
1, 896160, Note_on_c, 0, 78, 80
1, 896387, Note_on_c, 0, 66, 0
1, 896387, Note_on_c, 0, 78, 0
1, 896400, Note_on_c, 0, 69, 64
1, 896400, Note_on_c, 0, 81, 80
1, 896627, Note_on_c, 0, 69, 0
1, 896627, Note_on_c, 0, 81, 0
1, 897120, Note_on_c, 0, 66, 65
1, 897120, Note_on_c, 0, 78, 80
1, 897575, Note_on_c, 0, 66, 0
1, 897575, Note_on_c, 0, 78, 0
1, 897840, Note_on_c, 0, 69, 64
1, 897840, Note_on_c, 0, 81, 80
1, 898199, Note_on_c, 0, 69, 0
1, 898199, Note_on_c, 0, 81, 0
1, 898560, Note_on_c, 0, 68, 69
1, 898560, Note_on_c, 0, 80, 80
1, 899015, Note_on_c, 0, 68, 0
1, 899015, Note_on_c, 0, 80, 0
1, 899040, Note_on_c, 0, 69, 65
1, 899040, Note_on_c, 0, 81, 80
1, 899267, Note_on_c, 0, 69, 0
1, 899267, Note_on_c, 0, 81, 0
1, 899280, Note_on_c, 0, 71, 64
1, 899280, Note_on_c, 0, 83, 80
1, 899507, Note_on_c, 0, 71, 0
1, 899507, Note_on_c, 0, 83, 0
1, 900960, Note_on_c, 0, 76, 65
1, 900960, Note_on_c, 0, 88, 80
1, 901415, Note_on_c, 0, 76, 0
1, 901415, Note_on_c, 0, 88, 0
1, 901680, Note_on_c, 0, 73, 64
1, 901680, Note_on_c, 0, 85, 80
1, 902039, Note_on_c, 0, 73, 0
1, 902039, Note_on_c, 0, 85, 0
1, 902400, Note_on_c, 0, 69, 69
1, 902400, Note_on_c, 0, 81, 80
1, 902855, Note_on_c, 0, 69, 0
1, 902855, Note_on_c, 0, 81, 0
1, 902880, Note_on_c, 0, 71, 80
1, 902880, Note_on_c, 0, 83, 80
1, 903107, Note_on_c, 0, 71, 0
1, 903107, Note_on_c, 0, 83, 0
1, 903120, Note_on_c, 0, 69, 64
1, 903120, Note_on_c, 0, 81, 80
1, 903347, Note_on_c, 0, 69, 0
1, 903347, Note_on_c, 0, 81, 0
1, 903600, Note_on_c, 0, 64, 64
1, 903600, Note_on_c, 0, 76, 80
1, 903827, Note_on_c, 0, 64, 0
1, 903827, Note_on_c, 0, 76, 0
1, 903840, Note_on_c, 0, 66, 65
1, 903840, Note_on_c, 0, 78, 80
1, 904067, Note_on_c, 0, 66, 0
1, 904067, Note_on_c, 0, 78, 0
1, 904080, Note_on_c, 0, 69, 64
1, 904080, Note_on_c, 0, 81, 80
1, 904307, Note_on_c, 0, 69, 0
1, 904307, Note_on_c, 0, 81, 0
1, 904320, Note_on_c, 0, 74, 69
1, 904320, Note_on_c, 0, 86, 80
1, 904547, Note_on_c, 0, 74, 0
1, 904547, Note_on_c, 0, 86, 0
1, 904560, Note_on_c, 0, 73, 64
1, 904560, Note_on_c, 0, 85, 80
1, 904787, Note_on_c, 0, 73, 0
1, 904787, Note_on_c, 0, 85, 0
1, 904800, Note_on_c, 0, 71, 65
1, 904800, Note_on_c, 0, 83, 80
1, 905039, Note_on_c, 0, 71, 0
1, 905039, Note_on_c, 0, 83, 0
1, 905280, Note_on_c, 0, 71, 67
1, 905280, Note_on_c, 0, 83, 80
1, 905507, Note_on_c, 0, 71, 0
1, 905507, Note_on_c, 0, 83, 0
1, 905520, Note_on_c, 0, 69, 64
1, 905520, Note_on_c, 0, 81, 80
1, 905747, Note_on_c, 0, 69, 0
1, 905747, Note_on_c, 0, 81, 0
1, 905760, Note_on_c, 0, 66, 65
1, 905760, Note_on_c, 0, 78, 80
1, 905999, Note_on_c, 0, 66, 0
1, 905999, Note_on_c, 0, 78, 0
1, 906240, Note_on_c, 0, 66, 69
1, 906240, Note_on_c, 0, 78, 80
1, 906695, Note_on_c, 0, 66, 0
1, 906695, Note_on_c, 0, 78, 0
1, 906720, Note_on_c, 0, 69, 65
1, 906720, Note_on_c, 0, 81, 80
1, 907175, Note_on_c, 0, 69, 0
1, 907175, Note_on_c, 0, 81, 0
1, 907200, Note_on_c, 0, 69, 67
1, 907200, Note_on_c, 0, 81, 80
1, 908111, Note_on_c, 0, 69, 0
1, 908111, Note_on_c, 0, 81, 0
1, 908112, End_track
2, 0, Start_track
2, 0, MIDI_port, 0
2, 0, Note_on_c, 0, 53, 64
2, 1823, Note_on_c, 0, 53, 0
2, 1920, Note_on_c, 0, 57, 64
2, 3743, Note_on_c, 0, 57, 0
2, 3840, Note_on_c, 0, 56, 64
2, 5663, Note_on_c, 0, 56, 0
2, 5760, Note_on_c, 0, 55, 64
2, 7583, Note_on_c, 0, 55, 0
2, 7680, Note_on_c, 0, 53, 64
2, 9503, Note_on_c, 0, 53, 0
2, 9600, Note_on_c, 0, 57, 64
2, 11423, Note_on_c, 0, 57, 0
2, 11520, Note_on_c, 0, 56, 64
2, 13343, Note_on_c, 0, 56, 0
2, 13440, Note_on_c, 0, 55, 64
2, 14351, Note_on_c, 0, 55, 0
2, 15360, Note_on_c, 0, 46, 80
2, 15815, Note_on_c, 0, 46, 0
2, 15840, Note_on_c, 0, 53, 80
2, 16295, Note_on_c, 0, 53, 0
2, 16320, Note_on_c, 0, 55, 80
2, 16775, Note_on_c, 0, 55, 0
2, 16800, Note_on_c, 0, 53, 80
2, 17255, Note_on_c, 0, 53, 0
2, 17280, Note_on_c, 0, 46, 80
2, 17735, Note_on_c, 0, 46, 0
2, 17760, Note_on_c, 0, 53, 80
2, 18215, Note_on_c, 0, 53, 0
2, 18240, Note_on_c, 0, 55, 80
2, 18695, Note_on_c, 0, 55, 0
2, 18720, Note_on_c, 0, 53, 80
2, 19175, Note_on_c, 0, 53, 0
2, 19200, Note_on_c, 0, 45, 80
2, 19655, Note_on_c, 0, 45, 0
2, 19680, Note_on_c, 0, 53, 80
2, 20135, Note_on_c, 0, 53, 0
2, 20160, Note_on_c, 0, 55, 80
2, 20615, Note_on_c, 0, 55, 0
2, 20640, Note_on_c, 0, 53, 80
2, 21095, Note_on_c, 0, 53, 0
2, 21120, Note_on_c, 0, 44, 80
2, 21575, Note_on_c, 0, 44, 0
2, 21600, Note_on_c, 0, 53, 80
2, 22055, Note_on_c, 0, 53, 0
2, 22080, Note_on_c, 0, 55, 80
2, 22535, Note_on_c, 0, 55, 0
2, 22560, Note_on_c, 0, 53, 80
2, 23015, Note_on_c, 0, 53, 0
2, 23040, Note_on_c, 0, 43, 80
2, 23495, Note_on_c, 0, 43, 0
2, 23520, Note_on_c, 0, 53, 80
2, 23975, Note_on_c, 0, 53, 0
2, 24000, Note_on_c, 0, 55, 80
2, 24455, Note_on_c, 0, 55, 0
2, 24480, Note_on_c, 0, 53, 80
2, 24935, Note_on_c, 0, 53, 0
2, 24960, Note_on_c, 0, 48, 80
2, 25415, Note_on_c, 0, 48, 0
2, 25440, Note_on_c, 0, 53, 80
2, 25895, Note_on_c, 0, 53, 0
2, 25920, Note_on_c, 0, 55, 80
2, 26375, Note_on_c, 0, 55, 0
2, 26400, Note_on_c, 0, 53, 80
2, 26855, Note_on_c, 0, 53, 0
2, 26880, Note_on_c, 0, 45, 80
2, 27335, Note_on_c, 0, 45, 0
2, 27360, Note_on_c, 0, 53, 80
2, 27815, Note_on_c, 0, 53, 0
2, 27840, Note_on_c, 0, 55, 80
2, 28295, Note_on_c, 0, 55, 0
2, 28320, Note_on_c, 0, 53, 80
2, 28775, Note_on_c, 0, 53, 0
2, 28800, Note_on_c, 0, 50, 80
2, 29255, Note_on_c, 0, 50, 0
2, 29280, Note_on_c, 0, 50, 80
2, 29735, Note_on_c, 0, 50, 0
2, 29760, Note_on_c, 0, 48, 80
2, 30215, Note_on_c, 0, 48, 0
2, 30240, Note_on_c, 0, 48, 80
2, 30695, Note_on_c, 0, 48, 0
2, 30720, Note_on_c, 0, 53, 80
2, 32543, Note_on_c, 0, 53, 0
2, 32640, Note_on_c, 0, 55, 80
2, 34463, Note_on_c, 0, 55, 0
2, 34560, Note_on_c, 0, 46, 80
2, 36383, Note_on_c, 0, 46, 0
2, 36480, Note_on_c, 0, 53, 80
2, 38303, Note_on_c, 0, 53, 0
2, 38400, Key_signature, -6, "major"
2, 38400, Note_on_c, 0, 56, 64
2, 38627, Note_on_c, 0, 56, 0
2, 38640, Note_on_c, 0, 63, 64
2, 38867, Note_on_c, 0, 63, 0
2, 38880, Note_on_c, 0, 59, 64
2, 39335, Note_on_c, 0, 59, 0
2, 39360, Note_on_c, 0, 58, 64
2, 39587, Note_on_c, 0, 58, 0
2, 39600, Note_on_c, 0, 59, 64
2, 39827, Note_on_c, 0, 59, 0
2, 39840, Note_on_c, 0, 61, 64
2, 40160, Note_on_c, 0, 61, 0
2, 41040, Note_on_c, 0, 54, 64
2, 41267, Note_on_c, 0, 54, 0
2, 41280, Note_on_c, 0, 56, 64
2, 41507, Note_on_c, 0, 56, 0
2, 41520, Note_on_c, 0, 63, 64
2, 41747, Note_on_c, 0, 63, 0
2, 41760, Note_on_c, 0, 59, 64
2, 42215, Note_on_c, 0, 59, 0
2, 42240, Note_on_c, 0, 58, 64
2, 42467, Note_on_c, 0, 58, 0
2, 42480, Note_on_c, 0, 59, 64
2, 42707, Note_on_c, 0, 59, 0
2, 42720, Note_on_c, 0, 61, 64
2, 43040, Note_on_c, 0, 61, 0
2, 44160, Note_on_c, 0, 56, 64
2, 44387, Note_on_c, 0, 56, 0
2, 44400, Note_on_c, 0, 63, 64
2, 44627, Note_on_c, 0, 63, 0
2, 44640, Note_on_c, 0, 59, 64
2, 45095, Note_on_c, 0, 59, 0
2, 45120, Note_on_c, 0, 58, 64
2, 45347, Note_on_c, 0, 58, 0
2, 45360, Note_on_c, 0, 59, 64
2, 45587, Note_on_c, 0, 59, 0
2, 45600, Note_on_c, 0, 61, 64
2, 45920, Note_on_c, 0, 61, 0
2, 46800, Note_on_c, 0, 54, 64
2, 47027, Note_on_c, 0, 54, 0
2, 47040, Note_on_c, 0, 56, 64
2, 47267, Note_on_c, 0, 56, 0
2, 47280, Note_on_c, 0, 63, 64
2, 47507, Note_on_c, 0, 63, 0
2, 47520, Note_on_c, 0, 59, 64
2, 47975, Note_on_c, 0, 59, 0
2, 48000, Note_on_c, 0, 58, 64
2, 48227, Note_on_c, 0, 58, 0
2, 48240, Note_on_c, 0, 59, 64
2, 48467, Note_on_c, 0, 59, 0
2, 48480, Note_on_c, 0, 61, 64
2, 48800, Note_on_c, 0, 61, 0
2, 49920, Note_on_c, 0, 56, 64
2, 50147, Note_on_c, 0, 56, 0
2, 50160, Note_on_c, 0, 63, 64
2, 50387, Note_on_c, 0, 63, 0
2, 50400, Note_on_c, 0, 59, 64
2, 50855, Note_on_c, 0, 59, 0
2, 50880, Note_on_c, 0, 58, 64
2, 51107, Note_on_c, 0, 58, 0
2, 51120, Note_on_c, 0, 59, 64
2, 51347, Note_on_c, 0, 59, 0
2, 51360, Note_on_c, 0, 61, 64
2, 51680, Note_on_c, 0, 61, 0
2, 52560, Note_on_c, 0, 54, 64
2, 52787, Note_on_c, 0, 54, 0
2, 52800, Note_on_c, 0, 56, 64
2, 53027, Note_on_c, 0, 56, 0
2, 53040, Note_on_c, 0, 63, 64
2, 53267, Note_on_c, 0, 63, 0
2, 53280, Note_on_c, 0, 59, 64
2, 53735, Note_on_c, 0, 59, 0
2, 53760, Note_on_c, 0, 58, 64
2, 53987, Note_on_c, 0, 58, 0
2, 54000, Note_on_c, 0, 59, 64
2, 54227, Note_on_c, 0, 59, 0
2, 54240, Note_on_c, 0, 61, 64
2, 54560, Note_on_c, 0, 61, 0
2, 54960, Note_on_c, 0, 49, 64
2, 55187, Note_on_c, 0, 49, 0
2, 55200, Note_on_c, 0, 54, 64
2, 55427, Note_on_c, 0, 54, 0
2, 55440, Note_on_c, 0, 51, 64
2, 55667, Note_on_c, 0, 51, 0
2, 55680, Note_on_c, 0, 56, 64
2, 55680, Note_on_c, 0, 59, 64
2, 55680, Note_on_c, 0, 66, 64
2, 55907, Note_on_c, 0, 56, 0
2, 55919, Note_on_c, 0, 59, 0
2, 55919, Note_on_c, 0, 66, 0
2, 55920, Note_on_c, 0, 63, 64
2, 56147, Note_on_c, 0, 63, 0
2, 56160, Note_on_c, 0, 59, 64
2, 56160, Note_on_c, 0, 66, 64
2, 56615, Note_on_c, 0, 59, 0
2, 56615, Note_on_c, 0, 66, 0
2, 56640, Note_on_c, 0, 58, 64
2, 56867, Note_on_c, 0, 58, 0
2, 56880, Note_on_c, 0, 59, 64
2, 56880, Note_on_c, 0, 66, 64
2, 57107, Note_on_c, 0, 59, 0
2, 57107, Note_on_c, 0, 66, 0
2, 57120, Note_on_c, 0, 61, 64
2, 57440, Note_on_c, 0, 61, 0
2, 57600, Note_on_c, 0, 49, 64
2, 57827, Note_on_c, 0, 49, 0
2, 57840, Note_on_c, 0, 56, 64
2, 58067, Note_on_c, 0, 56, 0
2, 58080, Note_on_c, 0, 59, 64
2, 58307, Note_on_c, 0, 59, 0
2, 58320, Note_on_c, 0, 58, 64
2, 58547, Note_on_c, 0, 58, 0
2, 58560, Note_on_c, 0, 56, 64
2, 58560, Note_on_c, 0, 59, 64
2, 58560, Note_on_c, 0, 66, 64
2, 58787, Note_on_c, 0, 56, 0
2, 58799, Note_on_c, 0, 59, 0
2, 58799, Note_on_c, 0, 66, 0
2, 58800, Note_on_c, 0, 63, 64
2, 59027, Note_on_c, 0, 63, 0
2, 59040, Note_on_c, 0, 59, 64
2, 59040, Note_on_c, 0, 66, 64
2, 59495, Note_on_c, 0, 59, 0
2, 59495, Note_on_c, 0, 66, 0
2, 59520, Note_on_c, 0, 58, 64
2, 59747, Note_on_c, 0, 58, 0
2, 59760, Note_on_c, 0, 59, 64
2, 59760, Note_on_c, 0, 66, 64
2, 59987, Note_on_c, 0, 59, 0
2, 59987, Note_on_c, 0, 66, 0
2, 60000, Note_on_c, 0, 61, 64
2, 60000, Note_on_c, 0, 65, 64
2, 60239, Note_on_c, 0, 61, 0
2, 60239, Note_on_c, 0, 65, 0
2, 60480, Note_on_c, 0, 53, 64
2, 60707, Note_on_c, 0, 53, 0
2, 60720, Note_on_c, 0, 49, 64
2, 60947, Note_on_c, 0, 49, 0
2, 60960, Note_on_c, 0, 51, 64
2, 61187, Note_on_c, 0, 51, 0
2, 61200, Note_on_c, 0, 53, 64
2, 61427, Note_on_c, 0, 53, 0
2, 61440, Note_on_c, 0, 56, 64
2, 61440, Note_on_c, 0, 59, 64
2, 61440, Note_on_c, 0, 66, 64
2, 61667, Note_on_c, 0, 56, 0
2, 61679, Note_on_c, 0, 59, 0
2, 61679, Note_on_c, 0, 66, 0
2, 61680, Note_on_c, 0, 63, 64
2, 61907, Note_on_c, 0, 63, 0
2, 61920, Note_on_c, 0, 59, 64
2, 61920, Note_on_c, 0, 66, 64
2, 62375, Note_on_c, 0, 59, 0
2, 62375, Note_on_c, 0, 66, 0
2, 62400, Note_on_c, 0, 58, 64
2, 62627, Note_on_c, 0, 58, 0
2, 62640, Note_on_c, 0, 59, 64
2, 62640, Note_on_c, 0, 66, 64
2, 62867, Note_on_c, 0, 59, 0
2, 62867, Note_on_c, 0, 66, 0
2, 62880, Note_on_c, 0, 61, 64
2, 62880, Note_on_c, 0, 65, 64
2, 63119, Note_on_c, 0, 61, 0
2, 63119, Note_on_c, 0, 65, 0
2, 64320, Note_on_c, 0, 68, 64
2, 64320, Note_on_c, 0, 71, 64
2, 64320, Note_on_c, 0, 78, 64
2, 64547, Note_on_c, 0, 68, 0
2, 64560, Note_on_c, 0, 75, 64
2, 64775, Note_on_c, 0, 71, 0
2, 64775, Note_on_c, 0, 78, 0
2, 64787, Note_on_c, 0, 75, 0
2, 64800, Note_on_c, 0, 71, 64
2, 64800, Note_on_c, 0, 78, 64
2, 65255, Note_on_c, 0, 71, 0
2, 65255, Note_on_c, 0, 78, 0
2, 65280, Note_on_c, 0, 70, 64
2, 65507, Note_on_c, 0, 70, 0
2, 65520, Note_on_c, 0, 71, 64
2, 65520, Note_on_c, 0, 78, 64
2, 65747, Note_on_c, 0, 71, 0
2, 65747, Note_on_c, 0, 78, 0
2, 65760, Note_on_c, 0, 73, 64
2, 65760, Note_on_c, 0, 77, 64
2, 65999, Note_on_c, 0, 73, 0
2, 65999, Note_on_c, 0, 77, 0
2, 67200, Note_on_c, 0, 44, 80
2, 67200, Note_on_c, 0, 54, 76
2, 67439, Note_on_c, 0, 54, 0
2, 67655, Note_on_c, 0, 44, 0
2, 67680, Note_on_c, 0, 54, 76
2, 67920, Note_on_c, 0, 47, 80
2, 68135, Note_on_c, 0, 54, 0
2, 68375, Note_on_c, 0, 47, 0
2, 68400, Note_on_c, 0, 47, 80
2, 68400, Note_on_c, 0, 54, 76
2, 68627, Note_on_c, 0, 47, 0
2, 68627, Note_on_c, 0, 54, 0
2, 68640, Note_on_c, 0, 49, 80
2, 68640, Note_on_c, 0, 53, 80
2, 68879, Note_on_c, 0, 49, 0
2, 68879, Note_on_c, 0, 53, 0
2, 69360, Note_on_c, 0, 44, 80
2, 69587, Note_on_c, 0, 44, 0
2, 69600, Note_on_c, 0, 42, 80
2, 69827, Note_on_c, 0, 42, 0
2, 69840, Note_on_c, 0, 42, 80
2, 69840, Note_on_c, 0, 54, 80
2, 70067, Note_on_c, 0, 42, 0
2, 70067, Note_on_c, 0, 54, 0
2, 70080, Note_on_c, 0, 44, 80
2, 70080, Note_on_c, 0, 54, 76
2, 70319, Note_on_c, 0, 54, 0
2, 70535, Note_on_c, 0, 44, 0
2, 70560, Note_on_c, 0, 54, 76
2, 70800, Note_on_c, 0, 47, 80
2, 71015, Note_on_c, 0, 54, 0
2, 71255, Note_on_c, 0, 47, 0
2, 71280, Note_on_c, 0, 47, 80
2, 71280, Note_on_c, 0, 54, 76
2, 71507, Note_on_c, 0, 47, 0
2, 71507, Note_on_c, 0, 54, 0
2, 71520, Note_on_c, 0, 49, 80
2, 71520, Note_on_c, 0, 61, 80
2, 71759, Note_on_c, 0, 49, 0
2, 71759, Note_on_c, 0, 61, 0
2, 72240, Note_on_c, 0, 44, 80
2, 72467, Note_on_c, 0, 44, 0
2, 72480, Note_on_c, 0, 42, 80
2, 72707, Note_on_c, 0, 42, 0
2, 72720, Note_on_c, 0, 42, 80
2, 72720, Note_on_c, 0, 54, 80
2, 72947, Note_on_c, 0, 42, 0
2, 72947, Note_on_c, 0, 54, 0
2, 72960, Note_on_c, 0, 44, 80
2, 72960, Note_on_c, 0, 54, 76
2, 73199, Note_on_c, 0, 54, 0
2, 73415, Note_on_c, 0, 44, 0
2, 73440, Note_on_c, 0, 54, 76
2, 73680, Note_on_c, 0, 47, 80
2, 73895, Note_on_c, 0, 54, 0
2, 74135, Note_on_c, 0, 47, 0
2, 74160, Note_on_c, 0, 47, 80
2, 74160, Note_on_c, 0, 54, 76
2, 74387, Note_on_c, 0, 47, 0
2, 74387, Note_on_c, 0, 54, 0
2, 74400, Note_on_c, 0, 49, 80
2, 74400, Note_on_c, 0, 53, 80
2, 74639, Note_on_c, 0, 49, 0
2, 74639, Note_on_c, 0, 53, 0
2, 75120, Note_on_c, 0, 44, 80
2, 75347, Note_on_c, 0, 44, 0
2, 75360, Note_on_c, 0, 42, 80
2, 75587, Note_on_c, 0, 42, 0
2, 75600, Note_on_c, 0, 42, 80
2, 75600, Note_on_c, 0, 54, 80
2, 75827, Note_on_c, 0, 42, 0
2, 75827, Note_on_c, 0, 54, 0
2, 75840, Note_on_c, 0, 44, 80
2, 75840, Note_on_c, 0, 54, 76
2, 76079, Note_on_c, 0, 54, 0
2, 76295, Note_on_c, 0, 44, 0
2, 76320, Note_on_c, 0, 54, 76
2, 76560, Note_on_c, 0, 47, 80
2, 76775, Note_on_c, 0, 54, 0
2, 77015, Note_on_c, 0, 47, 0
2, 77040, Note_on_c, 0, 47, 80
2, 77040, Note_on_c, 0, 54, 76
2, 77267, Note_on_c, 0, 47, 0
2, 77267, Note_on_c, 0, 54, 0
2, 77280, Note_on_c, 0, 49, 80
2, 77280, Note_on_c, 0, 61, 80
2, 77519, Note_on_c, 0, 49, 0
2, 77519, Note_on_c, 0, 61, 0
2, 78240, Note_on_c, 0, 44, 80
2, 78467, Note_on_c, 0, 44, 0
2, 78480, Note_on_c, 0, 47, 80
2, 78707, Note_on_c, 0, 47, 0
2, 78720, Note_on_c, 0, 56, 80
2, 78720, Note_on_c, 0, 59, 80
2, 78720, Note_on_c, 0, 66, 80
2, 78947, Note_on_c, 0, 56, 0
2, 78959, Note_on_c, 0, 59, 0
2, 78959, Note_on_c, 0, 66, 0
2, 78960, Note_on_c, 0, 63, 80
2, 79187, Note_on_c, 0, 63, 0
2, 79200, Note_on_c, 0, 59, 80
2, 79200, Note_on_c, 0, 66, 80
2, 79655, Note_on_c, 0, 59, 0
2, 79655, Note_on_c, 0, 66, 0
2, 79680, Note_on_c, 0, 58, 80
2, 79907, Note_on_c, 0, 58, 0
2, 79920, Note_on_c, 0, 59, 80
2, 79920, Note_on_c, 0, 66, 80
2, 80147, Note_on_c, 0, 59, 0
2, 80147, Note_on_c, 0, 66, 0
2, 80160, Note_on_c, 0, 61, 80
2, 80160, Note_on_c, 0, 65, 80
2, 80399, Note_on_c, 0, 61, 0
2, 80399, Note_on_c, 0, 65, 0
2, 80640, Note_on_c, 0, 49, 80
2, 80867, Note_on_c, 0, 49, 0
2, 80880, Note_on_c, 0, 56, 80
2, 81107, Note_on_c, 0, 56, 0
2, 81120, Note_on_c, 0, 59, 80
2, 81347, Note_on_c, 0, 59, 0
2, 81360, Note_on_c, 0, 58, 80
2, 81587, Note_on_c, 0, 58, 0
2, 81600, Note_on_c, 0, 56, 80
2, 81600, Note_on_c, 0, 59, 80
2, 81600, Note_on_c, 0, 66, 80
2, 81827, Note_on_c, 0, 56, 0
2, 81839, Note_on_c, 0, 59, 0
2, 81839, Note_on_c, 0, 66, 0
2, 81840, Note_on_c, 0, 63, 80
2, 82067, Note_on_c, 0, 63, 0
2, 82080, Note_on_c, 0, 59, 80
2, 82080, Note_on_c, 0, 66, 80
2, 82535, Note_on_c, 0, 59, 0
2, 82535, Note_on_c, 0, 66, 0
2, 82560, Note_on_c, 0, 58, 80
2, 82787, Note_on_c, 0, 58, 0
2, 82800, Note_on_c, 0, 59, 80
2, 82800, Note_on_c, 0, 66, 80
2, 83027, Note_on_c, 0, 59, 0
2, 83027, Note_on_c, 0, 66, 0
2, 83040, Note_on_c, 0, 61, 80
2, 83040, Note_on_c, 0, 65, 80
2, 83279, Note_on_c, 0, 61, 0
2, 83279, Note_on_c, 0, 65, 0
2, 83520, Note_on_c, 0, 53, 80
2, 83747, Note_on_c, 0, 53, 0
2, 83760, Note_on_c, 0, 49, 80
2, 83987, Note_on_c, 0, 49, 0
2, 84000, Note_on_c, 0, 51, 80
2, 84227, Note_on_c, 0, 51, 0
2, 84240, Note_on_c, 0, 53, 80
2, 84467, Note_on_c, 0, 53, 0
2, 84480, Note_on_c, 0, 56, 80
2, 84480, Note_on_c, 0, 59, 80
2, 84480, Note_on_c, 0, 66, 80
2, 84707, Note_on_c, 0, 56, 0
2, 84719, Note_on_c, 0, 59, 0
2, 84719, Note_on_c, 0, 66, 0
2, 84720, Note_on_c, 0, 63, 80
2, 84947, Note_on_c, 0, 63, 0
2, 84960, Note_on_c, 0, 59, 80
2, 84960, Note_on_c, 0, 66, 80
2, 85415, Note_on_c, 0, 59, 0
2, 85415, Note_on_c, 0, 66, 0
2, 85440, Note_on_c, 0, 58, 80
2, 85667, Note_on_c, 0, 58, 0
2, 85680, Note_on_c, 0, 59, 80
2, 85680, Note_on_c, 0, 66, 80
2, 85907, Note_on_c, 0, 59, 0
2, 85907, Note_on_c, 0, 66, 0
2, 85920, Note_on_c, 0, 61, 80
2, 85920, Note_on_c, 0, 65, 80
2, 86159, Note_on_c, 0, 61, 0
2, 86159, Note_on_c, 0, 65, 0
2, 90240, Key_signature, 3, "major"
2, 90240, Note_on_c, 0, 45, 64
2, 92063, Note_on_c, 0, 45, 0
2, 92160, Note_on_c, 0, 49, 64
2, 93983, Note_on_c, 0, 49, 0
2, 94080, Note_on_c, 0, 48, 64
2, 95903, Note_on_c, 0, 48, 0
2, 96000, Note_on_c, 0, 48, 64
2, 97823, Note_on_c, 0, 48, 0
2, 97920, Note_on_c, 0, 45, 64
2, 99743, Note_on_c, 0, 45, 0
2, 99840, Note_on_c, 0, 49, 64
2, 101663, Note_on_c, 0, 49, 0
2, 101760, Note_on_c, 0, 48, 64
2, 103583, Note_on_c, 0, 48, 0
2, 103680, Note_on_c, 0, 47, 64
2, 104406, Note_on_c, 0, 47, 0
2, 104448, Note_on_c, 0, 40, 64
2, 105541, Note_on_c, 0, 40, 0
2, 105600, Note_on_c, 0, 45, 64
2, 105888, Note_on_c, 0, 52, 64
2, 106069, Note_on_c, 0, 52, 0
2, 106080, Note_on_c, 0, 57, 64
2, 106355, Note_on_c, 0, 57, 0
2, 106368, Note_on_c, 0, 59, 64
2, 106825, Note_on_c, 0, 59, 0
2, 106848, Note_on_c, 0, 57, 64
2, 107029, Note_on_c, 0, 57, 0
2, 107040, Note_on_c, 0, 52, 64
2, 107423, Note_on_c, 0, 45, 0
2, 107495, Note_on_c, 0, 52, 0
2, 107520, Note_on_c, 0, 49, 64
2, 107808, Note_on_c, 0, 56, 64
2, 107989, Note_on_c, 0, 56, 0
2, 108000, Note_on_c, 0, 59, 64
2, 108275, Note_on_c, 0, 59, 0
2, 108288, Note_on_c, 0, 64, 64
2, 108745, Note_on_c, 0, 64, 0
2, 108768, Note_on_c, 0, 59, 64
2, 108949, Note_on_c, 0, 59, 0
2, 108960, Note_on_c, 0, 56, 64
2, 109343, Note_on_c, 0, 49, 0
2, 109415, Note_on_c, 0, 56, 0
2, 109440, Note_on_c, 0, 48, 64
2, 109920, Note_on_c, 0, 55, 64
2, 110195, Note_on_c, 0, 55, 0
2, 110208, Note_on_c, 0, 60, 64
2, 110665, Note_on_c, 0, 60, 0
2, 110688, Note_on_c, 0, 55, 64
2, 110869, Note_on_c, 0, 55, 0
2, 110880, Note_on_c, 0, 48, 64
2, 111263, Note_on_c, 0, 48, 0
2, 111335, Note_on_c, 0, 48, 0
2, 111360, Note_on_c, 0, 47, 64
2, 111648, Note_on_c, 0, 54, 64
2, 111829, Note_on_c, 0, 54, 0
2, 111840, Note_on_c, 0, 57, 64
2, 112115, Note_on_c, 0, 57, 0
2, 112128, Note_on_c, 0, 59, 64
2, 112309, Note_on_c, 0, 59, 0
2, 112320, Note_on_c, 0, 52, 64
2, 112595, Note_on_c, 0, 52, 0
2, 112608, Note_on_c, 0, 40, 64
2, 112789, Note_on_c, 0, 40, 0
2, 112800, Note_on_c, 0, 47, 64
2, 113075, Note_on_c, 0, 47, 0
2, 113088, Note_on_c, 0, 52, 64
2, 113183, Note_on_c, 0, 47, 0
2, 113269, Note_on_c, 0, 52, 0
2, 113280, Note_on_c, 0, 45, 64
2, 113568, Note_on_c, 0, 52, 64
2, 113749, Note_on_c, 0, 52, 0
2, 113760, Note_on_c, 0, 57, 64
2, 114215, Note_on_c, 0, 57, 0
2, 114240, Note_on_c, 0, 59, 64
2, 114695, Note_on_c, 0, 59, 0
2, 114720, Note_on_c, 0, 52, 64
2, 115103, Note_on_c, 0, 45, 0
2, 115175, Note_on_c, 0, 52, 0
2, 115200, Note_on_c, 0, 49, 64
2, 115680, Note_on_c, 0, 57, 64
2, 115955, Note_on_c, 0, 57, 0
2, 115968, Note_on_c, 0, 59, 64
2, 116425, Note_on_c, 0, 59, 0
2, 116448, Note_on_c, 0, 57, 64
2, 116629, Note_on_c, 0, 57, 0
2, 116640, Note_on_c, 0, 59, 64
2, 117023, Note_on_c, 0, 49, 0
2, 117095, Note_on_c, 0, 59, 0
2, 117120, Note_on_c, 0, 48, 64
2, 117600, Note_on_c, 0, 55, 64
2, 118031, Note_on_c, 0, 48, 0
2, 118055, Note_on_c, 0, 55, 0
2, 118080, Note_on_c, 0, 47, 64
2, 118080, Note_on_c, 0, 54, 64
2, 118535, Note_on_c, 0, 54, 0
2, 118560, Note_on_c, 0, 59, 64
2, 118806, Note_on_c, 0, 47, 0
2, 118848, Note_on_c, 0, 45, 64
2, 119015, Note_on_c, 0, 59, 0
2, 119328, Note_on_c, 0, 52, 64
2, 119509, Note_on_c, 0, 52, 0
2, 119520, Note_on_c, 0, 57, 64
2, 119795, Note_on_c, 0, 57, 0
2, 119808, Note_on_c, 0, 61, 64
2, 119989, Note_on_c, 0, 61, 0
2, 120000, Note_on_c, 0, 59, 64
2, 120275, Note_on_c, 0, 59, 0
2, 120288, Note_on_c, 0, 57, 64
2, 120469, Note_on_c, 0, 57, 0
2, 120480, Note_on_c, 0, 52, 64
2, 120853, Note_on_c, 0, 45, 0
2, 120935, Note_on_c, 0, 52, 0
2, 120960, Note_on_c, 0, 45, 64
2, 121248, Note_on_c, 0, 52, 64
2, 121429, Note_on_c, 0, 52, 0
2, 121440, Note_on_c, 0, 57, 64
2, 121715, Note_on_c, 0, 57, 0
2, 121728, Note_on_c, 0, 59, 64
2, 122185, Note_on_c, 0, 59, 0
2, 122208, Note_on_c, 0, 57, 64
2, 122389, Note_on_c, 0, 57, 0
2, 122400, Note_on_c, 0, 52, 64
2, 122783, Note_on_c, 0, 45, 0
2, 122855, Note_on_c, 0, 52, 0
2, 122880, Note_on_c, 0, 49, 64
2, 123168, Note_on_c, 0, 56, 64
2, 123349, Note_on_c, 0, 56, 0
2, 123360, Note_on_c, 0, 59, 64
2, 123635, Note_on_c, 0, 59, 0
2, 123648, Note_on_c, 0, 64, 64
2, 124105, Note_on_c, 0, 64, 0
2, 124128, Note_on_c, 0, 59, 64
2, 124309, Note_on_c, 0, 59, 0
2, 124320, Note_on_c, 0, 56, 64
2, 124595, Note_on_c, 0, 56, 0
2, 124608, Note_on_c, 0, 49, 64
2, 124703, Note_on_c, 0, 49, 0
2, 124789, Note_on_c, 0, 49, 0
2, 124800, Note_on_c, 0, 48, 64
2, 125088, Note_on_c, 0, 55, 64
2, 125269, Note_on_c, 0, 55, 0
2, 125280, Note_on_c, 0, 60, 64
2, 126011, Note_on_c, 0, 60, 0
2, 126048, Note_on_c, 0, 60, 64
2, 126229, Note_on_c, 0, 60, 0
2, 126240, Note_on_c, 0, 55, 64
2, 126515, Note_on_c, 0, 55, 0
2, 126528, Note_on_c, 0, 47, 64
2, 126623, Note_on_c, 0, 48, 0
2, 127008, Note_on_c, 0, 54, 64
2, 127189, Note_on_c, 0, 54, 0
2, 127200, Note_on_c, 0, 59, 64
2, 127475, Note_on_c, 0, 59, 0
2, 127488, Note_on_c, 0, 64, 64
2, 127945, Note_on_c, 0, 64, 0
2, 127968, Note_on_c, 0, 40, 64
2, 128149, Note_on_c, 0, 40, 0
2, 128160, Note_on_c, 0, 52, 64
2, 128533, Note_on_c, 0, 47, 0
2, 128615, Note_on_c, 0, 52, 0
2, 128640, Note_on_c, 0, 45, 64
2, 128928, Note_on_c, 0, 52, 64
2, 129109, Note_on_c, 0, 52, 0
2, 129120, Note_on_c, 0, 57, 64
2, 129851, Note_on_c, 0, 57, 0
2, 129888, Note_on_c, 0, 52, 64
2, 130069, Note_on_c, 0, 52, 0
2, 130080, Note_on_c, 0, 45, 64
2, 130463, Note_on_c, 0, 45, 0
2, 130535, Note_on_c, 0, 45, 0
2, 130560, Note_on_c, 0, 37, 64
2, 131040, Note_on_c, 0, 49, 64
2, 131495, Note_on_c, 0, 49, 0
2, 132000, Note_on_c, 0, 49, 64
2, 132058, Note_on_c, 0, 49, 0
2, 132059, Note_on_c, 0, 37, 64
2, 132383, Note_on_c, 0, 37, 0
2, 132457, Note_on_c, 0, 37, 0
2, 132480, Note_on_c, 0, 38, 64
2, 133391, Note_on_c, 0, 38, 0
2, 133440, Note_on_c, 0, 40, 64
2, 133440, Note_on_c, 0, 50, 64
2, 134166, Note_on_c, 0, 40, 0
2, 134166, Note_on_c, 0, 50, 0
2, 134208, Note_on_c, 0, 45, 64
2, 134665, Note_on_c, 0, 45, 0
2, 134688, Note_on_c, 0, 52, 64
2, 134869, Note_on_c, 0, 52, 0
2, 134880, Note_on_c, 0, 57, 64
2, 135155, Note_on_c, 0, 57, 0
2, 135168, Note_on_c, 0, 61, 64
2, 136261, Note_on_c, 0, 61, 0
2, 136320, Key_signature, -5, "major"
2, 136320, Note_on_c, 0, 42, 80
2, 137687, Note_on_c, 0, 42, 0
2, 137760, Note_on_c, 0, 42, 80
2, 139127, Note_on_c, 0, 42, 0
2, 139200, Note_on_c, 0, 42, 80
2, 140567, Note_on_c, 0, 42, 0
2, 140640, Note_on_c, 0, 42, 80
2, 142007, Note_on_c, 0, 42, 0
2, 142080, Note_on_c, 0, 46, 80
2, 143447, Note_on_c, 0, 46, 0
2, 143520, Note_on_c, 0, 46, 80
2, 144887, Note_on_c, 0, 46, 0
2, 144960, Note_on_c, 0, 48, 80
2, 145415, Note_on_c, 0, 48, 0
2, 145440, Note_on_c, 0, 56, 80
2, 145895, Note_on_c, 0, 56, 0
2, 145920, Note_on_c, 0, 60, 80
2, 146375, Note_on_c, 0, 60, 0
2, 146400, Note_on_c, 0, 56, 80
2, 146400, Note_on_c, 0, 63, 80
2, 146855, Note_on_c, 0, 56, 0
2, 146855, Note_on_c, 0, 63, 0
2, 146880, Note_on_c, 0, 60, 80
2, 147107, Note_on_c, 0, 60, 0
2, 147120, Note_on_c, 0, 56, 80
2, 147347, Note_on_c, 0, 56, 0
2, 147360, Note_on_c, 0, 65, 80
2, 147587, Note_on_c, 0, 65, 0
2, 147600, Note_on_c, 0, 60, 80
2, 147827, Note_on_c, 0, 60, 0
2, 147840, Note_on_c, 0, 42, 80
2, 148751, Note_on_c, 0, 42, 0
2, 148800, Note_on_c, 0, 54, 80
2, 149255, Note_on_c, 0, 54, 0
2, 149280, Note_on_c, 0, 42, 80
2, 149735, Note_on_c, 0, 42, 0
2, 149760, Note_on_c, 0, 58, 80
2, 149987, Note_on_c, 0, 58, 0
2, 150000, Note_on_c, 0, 56, 80
2, 150227, Note_on_c, 0, 56, 0
2, 150240, Note_on_c, 0, 58, 80
2, 150695, Note_on_c, 0, 58, 0
2, 150720, Note_on_c, 0, 42, 80
2, 152087, Note_on_c, 0, 42, 0
2, 152160, Note_on_c, 0, 42, 80
2, 153071, Note_on_c, 0, 42, 0
2, 153120, Note_on_c, 0, 46, 80
2, 153347, Note_on_c, 0, 46, 0
2, 153360, Note_on_c, 0, 48, 80
2, 153587, Note_on_c, 0, 48, 0
2, 153600, Note_on_c, 0, 46, 80
2, 154055, Note_on_c, 0, 46, 0
2, 154080, Note_on_c, 0, 46, 82
2, 154535, Note_on_c, 0, 46, 0
2, 154560, Note_on_c, 0, 46, 85
2, 155015, Note_on_c, 0, 46, 0
2, 155040, Note_on_c, 0, 46, 88
2, 155267, Note_on_c, 0, 46, 0
2, 155280, Note_on_c, 0, 46, 89
2, 155507, Note_on_c, 0, 46, 0
2, 155520, Note_on_c, 0, 46, 90
2, 155747, Note_on_c, 0, 46, 0
2, 155760, Note_on_c, 0, 58, 92
2, 155987, Note_on_c, 0, 58, 0
2, 156000, Note_on_c, 0, 46, 93
2, 156227, Note_on_c, 0, 46, 0
2, 156240, Note_on_c, 0, 58, 94
2, 156467, Note_on_c, 0, 58, 0
2, 156480, Note_on_c, 0, 44, 96
2, 156935, Note_on_c, 0, 44, 0
2, 156960, Note_on_c, 0, 39, 96
2, 157415, Note_on_c, 0, 39, 0
2, 157440, Note_on_c, 0, 41, 96
2, 157895, Note_on_c, 0, 41, 0
2, 157920, Note_on_c, 0, 44, 96
2, 158375, Note_on_c, 0, 44, 0
2, 158400, Note_on_c, 0, 48, 96
2, 158855, Note_on_c, 0, 48, 0
2, 158880, Note_on_c, 0, 51, 96
2, 159335, Note_on_c, 0, 51, 0
2, 159360, Note_on_c, 0, 42, 96
2, 159587, Note_on_c, 0, 42, 0
2, 159600, Note_on_c, 0, 54, 96
2, 159827, Note_on_c, 0, 54, 0
2, 159840, Note_on_c, 0, 48, 96
2, 160067, Note_on_c, 0, 48, 0
2, 160080, Note_on_c, 0, 49, 96
2, 160307, Note_on_c, 0, 49, 0
2, 160320, Note_on_c, 0, 46, 96
2, 160547, Note_on_c, 0, 46, 0
2, 160560, Note_on_c, 0, 41, 96
2, 160787, Note_on_c, 0, 41, 0
2, 160800, Note_on_c, 0, 42, 96
2, 161027, Note_on_c, 0, 42, 0
2, 161040, Note_on_c, 0, 54, 96
2, 161267, Note_on_c, 0, 54, 0
2, 161280, Note_on_c, 0, 48, 96
2, 161507, Note_on_c, 0, 48, 0
2, 161520, Note_on_c, 0, 49, 96
2, 161747, Note_on_c, 0, 49, 0
2, 161760, Note_on_c, 0, 46, 96
2, 161987, Note_on_c, 0, 46, 0
2, 162000, Note_on_c, 0, 51, 96
2, 162227, Note_on_c, 0, 51, 0
2, 162240, Note_on_c, 0, 44, 96
2, 162467, Note_on_c, 0, 44, 0
2, 162480, Note_on_c, 0, 56, 96
2, 162707, Note_on_c, 0, 56, 0
2, 162720, Note_on_c, 0, 39, 96
2, 162947, Note_on_c, 0, 39, 0
2, 162960, Note_on_c, 0, 41, 96
2, 163187, Note_on_c, 0, 41, 0
2, 163200, Note_on_c, 0, 44, 96
2, 163427, Note_on_c, 0, 44, 0
2, 163440, Note_on_c, 0, 41, 96
2, 163667, Note_on_c, 0, 41, 0
2, 163680, Note_on_c, 0, 39, 96
2, 164135, Note_on_c, 0, 39, 0
2, 164160, Note_on_c, 0, 41, 96
2, 164615, Note_on_c, 0, 41, 0
2, 164640, Note_on_c, 0, 44, 96
2, 165095, Note_on_c, 0, 44, 0
2, 165120, Note_on_c, 0, 46, 96
2, 165347, Note_on_c, 0, 46, 0
2, 165360, Note_on_c, 0, 58, 96
2, 165587, Note_on_c, 0, 58, 0
2, 165600, Note_on_c, 0, 51, 96
2, 165827, Note_on_c, 0, 51, 0
2, 165840, Note_on_c, 0, 53, 96
2, 166067, Note_on_c, 0, 53, 0
2, 166080, Note_on_c, 0, 49, 96
2, 166307, Note_on_c, 0, 49, 0
2, 166320, Note_on_c, 0, 41, 96
2, 166547, Note_on_c, 0, 41, 0
2, 166560, Note_on_c, 0, 46, 96
2, 166787, Note_on_c, 0, 46, 0
2, 166800, Note_on_c, 0, 58, 96
2, 167027, Note_on_c, 0, 58, 0
2, 167040, Note_on_c, 0, 51, 96
2, 167267, Note_on_c, 0, 51, 0
2, 167280, Note_on_c, 0, 53, 96
2, 167507, Note_on_c, 0, 53, 0
2, 167520, Note_on_c, 0, 49, 96
2, 167747, Note_on_c, 0, 49, 0
2, 167760, Note_on_c, 0, 41, 96
2, 167987, Note_on_c, 0, 41, 0
2, 168000, Note_on_c, 0, 46, 96
2, 168227, Note_on_c, 0, 46, 0
2, 168240, Note_on_c, 0, 58, 96
2, 168467, Note_on_c, 0, 58, 0
2, 168480, Note_on_c, 0, 51, 96
2, 168707, Note_on_c, 0, 51, 0
2, 168720, Note_on_c, 0, 53, 96
2, 168947, Note_on_c, 0, 53, 0
2, 168960, Note_on_c, 0, 49, 96
2, 169187, Note_on_c, 0, 49, 0
2, 169200, Note_on_c, 0, 41, 96
2, 169427, Note_on_c, 0, 41, 0
2, 169440, Note_on_c, 0, 44, 96
2, 169895, Note_on_c, 0, 44, 0
2, 169920, Note_on_c, 0, 39, 96
2, 170375, Note_on_c, 0, 39, 0
2, 170400, Note_on_c, 0, 41, 96
2, 170855, Note_on_c, 0, 41, 0
2, 170880, Note_on_c, 0, 39, 96
2, 171107, Note_on_c, 0, 39, 0
2, 171120, Note_on_c, 0, 51, 96
2, 171347, Note_on_c, 0, 51, 0
2, 171360, Note_on_c, 0, 44, 96
2, 171587, Note_on_c, 0, 44, 0
2, 171600, Note_on_c, 0, 46, 96
2, 171827, Note_on_c, 0, 46, 0
2, 171840, Note_on_c, 0, 41, 96
2, 172067, Note_on_c, 0, 41, 0
2, 172080, Note_on_c, 0, 37, 96
2, 172307, Note_on_c, 0, 37, 0
2, 172320, Note_on_c, 0, 39, 96
2, 172547, Note_on_c, 0, 39, 0
2, 172560, Note_on_c, 0, 51, 96
2, 172787, Note_on_c, 0, 51, 0
2, 172800, Note_on_c, 0, 44, 96
2, 173027, Note_on_c, 0, 44, 0
2, 173040, Note_on_c, 0, 46, 96
2, 173267, Note_on_c, 0, 46, 0
2, 173280, Note_on_c, 0, 48, 96
2, 173507, Note_on_c, 0, 48, 0
2, 173520, Note_on_c, 0, 39, 96
2, 173747, Note_on_c, 0, 39, 0
2, 173760, Note_on_c, 0, 41, 96
2, 173987, Note_on_c, 0, 41, 0
2, 174000, Note_on_c, 0, 53, 96
2, 174227, Note_on_c, 0, 53, 0
2, 174240, Note_on_c, 0, 44, 96
2, 174467, Note_on_c, 0, 44, 0
2, 174480, Note_on_c, 0, 56, 96
2, 174707, Note_on_c, 0, 56, 0
2, 174720, Note_on_c, 0, 53, 96
2, 174947, Note_on_c, 0, 53, 0
2, 174960, Note_on_c, 0, 48, 96
2, 175187, Note_on_c, 0, 48, 0
2, 175200, Note_on_c, 0, 41, 96
2, 175427, Note_on_c, 0, 41, 0
2, 175440, Note_on_c, 0, 53, 96
2, 175667, Note_on_c, 0, 53, 0
2, 175680, Note_on_c, 0, 43, 96
2, 175907, Note_on_c, 0, 43, 0
2, 175920, Note_on_c, 0, 55, 96
2, 176147, Note_on_c, 0, 55, 0
2, 176160, Note_on_c, 0, 44, 96
2, 176387, Note_on_c, 0, 44, 0
2, 176400, Note_on_c, 0, 56, 96
2, 176627, Note_on_c, 0, 56, 0
2, 176640, Note_on_c, 0, 42, 96
2, 176867, Note_on_c, 0, 42, 0
2, 176880, Note_on_c, 0, 54, 96
2, 177107, Note_on_c, 0, 54, 0
2, 177120, Note_on_c, 0, 49, 96
2, 177347, Note_on_c, 0, 49, 0
2, 177360, Note_on_c, 0, 51, 96
2, 177587, Note_on_c, 0, 51, 0
2, 177600, Note_on_c, 0, 53, 96
2, 177827, Note_on_c, 0, 53, 0
2, 177840, Note_on_c, 0, 42, 96
2, 178067, Note_on_c, 0, 42, 0
2, 178080, Note_on_c, 0, 42, 96
2, 178307, Note_on_c, 0, 42, 0
2, 178320, Note_on_c, 0, 54, 96
2, 178547, Note_on_c, 0, 54, 0
2, 178560, Note_on_c, 0, 49, 96
2, 178787, Note_on_c, 0, 49, 0
2, 178800, Note_on_c, 0, 51, 96
2, 179027, Note_on_c, 0, 51, 0
2, 179040, Note_on_c, 0, 53, 96
2, 179267, Note_on_c, 0, 53, 0
2, 179280, Note_on_c, 0, 42, 96
2, 179507, Note_on_c, 0, 42, 0
2, 179520, Note_on_c, 0, 41, 96
2, 179747, Note_on_c, 0, 41, 0
2, 179760, Note_on_c, 0, 53, 96
2, 179987, Note_on_c, 0, 53, 0
2, 180000, Note_on_c, 0, 44, 96
2, 180227, Note_on_c, 0, 44, 0
2, 180240, Note_on_c, 0, 56, 96
2, 180467, Note_on_c, 0, 56, 0
2, 180480, Note_on_c, 0, 53, 96
2, 180707, Note_on_c, 0, 53, 0
2, 180720, Note_on_c, 0, 48, 96
2, 180947, Note_on_c, 0, 48, 0
2, 180960, Note_on_c, 0, 41, 96
2, 181187, Note_on_c, 0, 41, 0
2, 181200, Note_on_c, 0, 53, 96
2, 181427, Note_on_c, 0, 53, 0
2, 181440, Note_on_c, 0, 43, 96
2, 181667, Note_on_c, 0, 43, 0
2, 181680, Note_on_c, 0, 55, 96
2, 181907, Note_on_c, 0, 55, 0
2, 181920, Note_on_c, 0, 44, 96
2, 182147, Note_on_c, 0, 44, 0
2, 182160, Note_on_c, 0, 56, 96
2, 182387, Note_on_c, 0, 56, 0
2, 182400, Note_on_c, 0, 42, 96
2, 182627, Note_on_c, 0, 42, 0
2, 182640, Note_on_c, 0, 54, 96
2, 182867, Note_on_c, 0, 54, 0
2, 182880, Note_on_c, 0, 49, 96
2, 183107, Note_on_c, 0, 49, 0
2, 183120, Note_on_c, 0, 51, 96
2, 183347, Note_on_c, 0, 51, 0
2, 183360, Note_on_c, 0, 53, 96
2, 183587, Note_on_c, 0, 53, 0
2, 183600, Note_on_c, 0, 42, 96
2, 183827, Note_on_c, 0, 42, 0
2, 183840, Note_on_c, 0, 42, 96
2, 184067, Note_on_c, 0, 42, 0
2, 184080, Note_on_c, 0, 54, 96
2, 184307, Note_on_c, 0, 54, 0
2, 184320, Note_on_c, 0, 49, 96
2, 184547, Note_on_c, 0, 49, 0
2, 184560, Note_on_c, 0, 51, 96
2, 184787, Note_on_c, 0, 51, 0
2, 184800, Note_on_c, 0, 53, 96
2, 185027, Note_on_c, 0, 53, 0
2, 185040, Note_on_c, 0, 42, 96
2, 185267, Note_on_c, 0, 42, 0
2, 185280, Note_on_c, 0, 44, 96
2, 185507, Note_on_c, 0, 44, 0
2, 185520, Note_on_c, 0, 39, 96
2, 185747, Note_on_c, 0, 39, 0
2, 185760, Note_on_c, 0, 48, 96
2, 185987, Note_on_c, 0, 48, 0
2, 186000, Note_on_c, 0, 44, 96
2, 186227, Note_on_c, 0, 44, 0
2, 186240, Note_on_c, 0, 51, 96
2, 186467, Note_on_c, 0, 51, 0
2, 186480, Note_on_c, 0, 48, 96
2, 186707, Note_on_c, 0, 48, 0
2, 186720, Note_on_c, 0, 56, 96
2, 186947, Note_on_c, 0, 56, 0
2, 186960, Note_on_c, 0, 44, 96
2, 187187, Note_on_c, 0, 44, 0
2, 187200, Note_on_c, 0, 51, 96
2, 187427, Note_on_c, 0, 51, 0
2, 187440, Note_on_c, 0, 56, 96
2, 187667, Note_on_c, 0, 56, 0
2, 187680, Note_on_c, 0, 48, 96
2, 187907, Note_on_c, 0, 48, 0
2, 187920, Note_on_c, 0, 56, 96
2, 188147, Note_on_c, 0, 56, 0
2, 188160, Note_on_c, 0, 46, 96
2, 188387, Note_on_c, 0, 46, 0
2, 188400, Note_on_c, 0, 39, 96
2, 188627, Note_on_c, 0, 39, 0
2, 188640, Note_on_c, 0, 48, 96
2, 188867, Note_on_c, 0, 48, 0
2, 188880, Note_on_c, 0, 39, 96
2, 189107, Note_on_c, 0, 39, 0
2, 189120, Note_on_c, 0, 49, 96
2, 189347, Note_on_c, 0, 49, 0
2, 189360, Note_on_c, 0, 39, 96
2, 189587, Note_on_c, 0, 39, 0
2, 189600, Note_on_c, 0, 47, 96
2, 189827, Note_on_c, 0, 47, 0
2, 189840, Note_on_c, 0, 49, 96
2, 190067, Note_on_c, 0, 49, 0
2, 190080, Note_on_c, 0, 51, 96
2, 190307, Note_on_c, 0, 51, 0
2, 190320, Note_on_c, 0, 39, 96
2, 190547, Note_on_c, 0, 39, 0
2, 190560, Note_on_c, 0, 47, 96
2, 190787, Note_on_c, 0, 47, 0
2, 190800, Note_on_c, 0, 49, 96
2, 191027, Note_on_c, 0, 49, 0
2, 191040, Note_on_c, 0, 47, 96
2, 191267, Note_on_c, 0, 47, 0
2, 191280, Note_on_c, 0, 42, 96
2, 191507, Note_on_c, 0, 42, 0
2, 191520, Note_on_c, 0, 49, 96
2, 191747, Note_on_c, 0, 49, 0
2, 191760, Note_on_c, 0, 42, 96
2, 191987, Note_on_c, 0, 42, 0
2, 192000, Note_on_c, 0, 51, 96
2, 192227, Note_on_c, 0, 51, 0
2, 192240, Note_on_c, 0, 42, 96
2, 192467, Note_on_c, 0, 42, 0
2, 192480, Note_on_c, 0, 54, 96
2, 192707, Note_on_c, 0, 54, 0
2, 192720, Note_on_c, 0, 47, 96
2, 192947, Note_on_c, 0, 47, 0
2, 192960, Note_on_c, 0, 56, 96
2, 193187, Note_on_c, 0, 56, 0
2, 193200, Note_on_c, 0, 49, 96
2, 193427, Note_on_c, 0, 49, 0
2, 193440, Note_on_c, 0, 61, 96
2, 193667, Note_on_c, 0, 61, 0
2, 193680, Note_on_c, 0, 56, 96
2, 193907, Note_on_c, 0, 56, 0
2, 193920, Note_on_c, 0, 47, 96
2, 194147, Note_on_c, 0, 47, 0
2, 194160, Note_on_c, 0, 42, 96
2, 194387, Note_on_c, 0, 42, 0
2, 194400, Note_on_c, 0, 49, 96
2, 194627, Note_on_c, 0, 49, 0
2, 194640, Note_on_c, 0, 42, 96
2, 194867, Note_on_c, 0, 42, 0
2, 194880, Note_on_c, 0, 51, 96
2, 195107, Note_on_c, 0, 51, 0
2, 195120, Note_on_c, 0, 42, 96
2, 195347, Note_on_c, 0, 42, 0
2, 195360, Note_on_c, 0, 47, 96
2, 195587, Note_on_c, 0, 47, 0
2, 195600, Note_on_c, 0, 42, 96
2, 195827, Note_on_c, 0, 42, 0
2, 195840, Note_on_c, 0, 49, 96
2, 196067, Note_on_c, 0, 49, 0
2, 196080, Note_on_c, 0, 42, 96
2, 196307, Note_on_c, 0, 42, 0
2, 196320, Note_on_c, 0, 51, 96
2, 196547, Note_on_c, 0, 51, 0
2, 196560, Note_on_c, 0, 42, 96
2, 196787, Note_on_c, 0, 42, 0
2, 196800, Note_on_c, 0, 54, 96
2, 197027, Note_on_c, 0, 54, 0
2, 197040, Note_on_c, 0, 47, 96
2, 197267, Note_on_c, 0, 47, 0
2, 197280, Note_on_c, 0, 56, 96
2, 197507, Note_on_c, 0, 56, 0
2, 197520, Note_on_c, 0, 49, 96
2, 197747, Note_on_c, 0, 49, 0
2, 197760, Note_on_c, 0, 61, 96
2, 197987, Note_on_c, 0, 61, 0
2, 198000, Note_on_c, 0, 56, 96
2, 198227, Note_on_c, 0, 56, 0
2, 198240, Note_on_c, 0, 59, 96
2, 198695, Note_on_c, 0, 59, 0
2, 198720, Note_on_c, 0, 66, 96
2, 199175, Note_on_c, 0, 66, 0
2, 199200, Note_on_c, 0, 66, 96
2, 199200, Note_on_c, 0, 71, 96
2, 199655, Note_on_c, 0, 66, 0
2, 199655, Note_on_c, 0, 71, 0
2, 199680, Key_signature, 5, "major"
2, 199680, Note_on_c, 0, 44, 80
2, 200363, Note_on_c, 0, 44, 0
2, 200400, Note_on_c, 0, 44, 80
2, 200627, Note_on_c, 0, 44, 0
2, 200640, Note_on_c, 0, 39, 80
2, 201095, Note_on_c, 0, 39, 0
2, 201120, Note_on_c, 0, 54, 80
2, 201347, Note_on_c, 0, 54, 0
2, 201360, Note_on_c, 0, 55, 80
2, 201587, Note_on_c, 0, 55, 0
2, 201600, Note_on_c, 0, 44, 80
2, 201600, Note_on_c, 0, 56, 80
2, 202283, Note_on_c, 0, 44, 0
2, 202283, Note_on_c, 0, 56, 0
2, 202320, Note_on_c, 0, 44, 80
2, 202547, Note_on_c, 0, 44, 0
2, 202560, Note_on_c, 0, 39, 80
2, 203015, Note_on_c, 0, 39, 0
2, 203040, Note_on_c, 0, 42, 80
2, 203495, Note_on_c, 0, 42, 0
2, 203520, Note_on_c, 0, 49, 80
2, 204203, Note_on_c, 0, 49, 0
2, 204240, Note_on_c, 0, 49, 80
2, 204467, Note_on_c, 0, 49, 0
2, 204480, Note_on_c, 0, 44, 80
2, 204935, Note_on_c, 0, 44, 0
2, 204960, Note_on_c, 0, 51, 80
2, 205187, Note_on_c, 0, 51, 0
2, 205200, Note_on_c, 0, 54, 80
2, 205427, Note_on_c, 0, 54, 0
2, 205440, Note_on_c, 0, 49, 80
2, 205440, Note_on_c, 0, 56, 80
2, 206123, Note_on_c, 0, 49, 0
2, 206123, Note_on_c, 0, 56, 0
2, 206160, Note_on_c, 0, 49, 80
2, 206387, Note_on_c, 0, 49, 0
2, 206400, Note_on_c, 0, 44, 80
2, 206855, Note_on_c, 0, 44, 0
2, 206880, Note_on_c, 0, 47, 80
2, 207107, Note_on_c, 0, 47, 0
2, 207120, Note_on_c, 0, 49, 80
2, 207347, Note_on_c, 0, 49, 0
2, 207360, Note_on_c, 0, 44, 80
2, 207360, Note_on_c, 0, 56, 80
2, 208043, Note_on_c, 0, 44, 0
2, 208043, Note_on_c, 0, 56, 0
2, 208080, Note_on_c, 0, 44, 80
2, 208307, Note_on_c, 0, 44, 0
2, 208320, Note_on_c, 0, 39, 80
2, 208775, Note_on_c, 0, 39, 0
2, 208800, Note_on_c, 0, 54, 80
2, 209027, Note_on_c, 0, 54, 0
2, 209040, Note_on_c, 0, 55, 80
2, 209267, Note_on_c, 0, 55, 0
2, 209280, Note_on_c, 0, 44, 80
2, 209280, Note_on_c, 0, 56, 80
2, 209963, Note_on_c, 0, 44, 0
2, 209963, Note_on_c, 0, 56, 0
2, 210000, Note_on_c, 0, 44, 80
2, 210227, Note_on_c, 0, 44, 0
2, 210240, Note_on_c, 0, 39, 80
2, 210695, Note_on_c, 0, 39, 0
2, 210720, Note_on_c, 0, 42, 80
2, 211175, Note_on_c, 0, 42, 0
2, 211200, Note_on_c, 0, 49, 80
2, 211200, Note_on_c, 0, 61, 80
2, 211883, Note_on_c, 0, 49, 0
2, 211883, Note_on_c, 0, 61, 0
2, 211920, Note_on_c, 0, 49, 80
2, 212147, Note_on_c, 0, 49, 0
2, 212160, Note_on_c, 0, 44, 80
2, 212615, Note_on_c, 0, 44, 0
2, 212640, Note_on_c, 0, 51, 80
2, 212867, Note_on_c, 0, 51, 0
2, 212880, Note_on_c, 0, 54, 80
2, 213107, Note_on_c, 0, 54, 0
2, 213120, Note_on_c, 0, 49, 80
2, 213120, Note_on_c, 0, 56, 80
2, 213803, Note_on_c, 0, 49, 0
2, 213803, Note_on_c, 0, 56, 0
2, 213840, Note_on_c, 0, 49, 80
2, 214067, Note_on_c, 0, 49, 0
2, 214080, Note_on_c, 0, 44, 80
2, 214307, Note_on_c, 0, 44, 0
2, 214320, Note_on_c, 0, 47, 80
2, 214547, Note_on_c, 0, 47, 0
2, 214560, Note_on_c, 0, 47, 80
2, 215015, Note_on_c, 0, 47, 0
2, 215040, Note_on_c, 0, 52, 80
2, 215040, Note_on_c, 0, 64, 80
2, 215723, Note_on_c, 0, 52, 0
2, 215723, Note_on_c, 0, 64, 0
2, 215760, Note_on_c, 0, 52, 80
2, 215987, Note_on_c, 0, 52, 0
2, 216000, Note_on_c, 0, 47, 80
2, 216455, Note_on_c, 0, 47, 0
2, 216480, Note_on_c, 0, 54, 80
2, 216707, Note_on_c, 0, 54, 0
2, 216720, Note_on_c, 0, 55, 80
2, 216947, Note_on_c, 0, 55, 0
2, 216960, Note_on_c, 0, 51, 80
2, 216960, Note_on_c, 0, 63, 80
2, 217871, Note_on_c, 0, 51, 0
2, 217871, Note_on_c, 0, 63, 0
2, 217920, Note_on_c, 0, 46, 80
2, 218375, Note_on_c, 0, 46, 0
2, 218400, Note_on_c, 0, 49, 80
2, 218855, Note_on_c, 0, 49, 0
2, 218880, Note_on_c, 0, 52, 80
2, 218880, Note_on_c, 0, 56, 80
2, 219563, Note_on_c, 0, 52, 0
2, 219563, Note_on_c, 0, 56, 0
2, 219600, Note_on_c, 0, 52, 80
2, 219827, Note_on_c, 0, 52, 0
2, 219840, Note_on_c, 0, 47, 80
2, 220751, Note_on_c, 0, 47, 0
2, 220800, Note_on_c, 0, 46, 80
2, 220800, Note_on_c, 0, 58, 80
2, 221483, Note_on_c, 0, 46, 0
2, 221483, Note_on_c, 0, 58, 0
2, 221520, Note_on_c, 0, 46, 80
2, 221747, Note_on_c, 0, 46, 0
2, 221760, Note_on_c, 0, 39, 80
2, 221987, Note_on_c, 0, 39, 0
2, 222000, Note_on_c, 0, 41, 80
2, 222227, Note_on_c, 0, 41, 0
2, 222240, Note_on_c, 0, 43, 80
2, 222695, Note_on_c, 0, 43, 0
2, 222720, Key_signature, 2, "major"
2, 222720, Note_on_c, 0, 60, 64
2, 222720, Note_on_c, 0, 71, 58
2, 222839, Note_on_c, 0, 60, 0
2, 222839, Note_on_c, 0, 71, 0
2, 223200, Note_on_c, 0, 67, 64
2, 223200, Note_on_c, 0, 71, 64
2, 223319, Note_on_c, 0, 67, 0
2, 223319, Note_on_c, 0, 71, 0
2, 223440, Note_on_c, 0, 59, 58
2, 223553, Note_on_c, 0, 59, 0
2, 223560, Note_on_c, 0, 62, 58
2, 223673, Note_on_c, 0, 62, 0
2, 223680, Note_on_c, 0, 60, 64
2, 223680, Note_on_c, 0, 66, 58
2, 223799, Note_on_c, 0, 60, 0
2, 223799, Note_on_c, 0, 66, 0
2, 223920, Note_on_c, 0, 67, 58
2, 224147, Note_on_c, 0, 67, 0
2, 224160, Note_on_c, 0, 66, 58
2, 224160, Note_on_c, 0, 69, 64
2, 224160, Note_on_c, 0, 71, 64
2, 224279, Note_on_c, 0, 66, 0
2, 224279, Note_on_c, 0, 69, 0
2, 224279, Note_on_c, 0, 71, 0
2, 224400, Note_on_c, 0, 64, 58
2, 224627, Note_on_c, 0, 64, 0
2, 224640, Note_on_c, 0, 60, 64
2, 224640, Note_on_c, 0, 71, 58
2, 224759, Note_on_c, 0, 60, 0
2, 224759, Note_on_c, 0, 71, 0
2, 225120, Note_on_c, 0, 67, 64
2, 225120, Note_on_c, 0, 71, 64
2, 225239, Note_on_c, 0, 67, 0
2, 225239, Note_on_c, 0, 71, 0
2, 225360, Note_on_c, 0, 59, 58
2, 225473, Note_on_c, 0, 59, 0
2, 225480, Note_on_c, 0, 62, 58
2, 225593, Note_on_c, 0, 62, 0
2, 225600, Note_on_c, 0, 60, 64
2, 225600, Note_on_c, 0, 66, 58
2, 225719, Note_on_c, 0, 60, 0
2, 225719, Note_on_c, 0, 66, 0
2, 225840, Note_on_c, 0, 67, 58
2, 226067, Note_on_c, 0, 67, 0
2, 226080, Note_on_c, 0, 66, 58
2, 226080, Note_on_c, 0, 69, 64
2, 226080, Note_on_c, 0, 71, 64
2, 226199, Note_on_c, 0, 66, 0
2, 226199, Note_on_c, 0, 69, 0
2, 226199, Note_on_c, 0, 71, 0
2, 226320, Note_on_c, 0, 64, 58
2, 226547, Note_on_c, 0, 64, 0
2, 226560, Note_on_c, 0, 59, 64
2, 226560, Note_on_c, 0, 66, 67
2, 226679, Note_on_c, 0, 59, 0
2, 226679, Note_on_c, 0, 66, 0
2, 227040, Note_on_c, 0, 66, 64
2, 227040, Note_on_c, 0, 69, 64
2, 227159, Note_on_c, 0, 66, 0
2, 227159, Note_on_c, 0, 69, 0
2, 227520, Note_on_c, 0, 59, 64
2, 227639, Note_on_c, 0, 59, 0
2, 228000, Note_on_c, 0, 64, 64
2, 228000, Note_on_c, 0, 69, 64
2, 228119, Note_on_c, 0, 64, 0
2, 228119, Note_on_c, 0, 69, 0
2, 228480, Note_on_c, 0, 59, 64
2, 228599, Note_on_c, 0, 59, 0
2, 228960, Note_on_c, 0, 66, 64
2, 228960, Note_on_c, 0, 69, 64
2, 229079, Note_on_c, 0, 66, 0
2, 229079, Note_on_c, 0, 69, 0
2, 229440, Note_on_c, 0, 59, 64
2, 229559, Note_on_c, 0, 59, 0
2, 229920, Note_on_c, 0, 67, 64
2, 229920, Note_on_c, 0, 69, 64
2, 230039, Note_on_c, 0, 67, 0
2, 230039, Note_on_c, 0, 69, 0
2, 230400, Note_on_c, 0, 60, 64
2, 230400, Note_on_c, 0, 71, 58
2, 230519, Note_on_c, 0, 60, 0
2, 230519, Note_on_c, 0, 71, 0
2, 230880, Note_on_c, 0, 67, 64
2, 230880, Note_on_c, 0, 71, 64
2, 230999, Note_on_c, 0, 67, 0
2, 230999, Note_on_c, 0, 71, 0
2, 231120, Note_on_c, 0, 59, 58
2, 231233, Note_on_c, 0, 59, 0
2, 231240, Note_on_c, 0, 62, 58
2, 231353, Note_on_c, 0, 62, 0
2, 231360, Note_on_c, 0, 60, 64
2, 231360, Note_on_c, 0, 66, 58
2, 231479, Note_on_c, 0, 60, 0
2, 231479, Note_on_c, 0, 66, 0
2, 231600, Note_on_c, 0, 67, 58
2, 231827, Note_on_c, 0, 67, 0
2, 231840, Note_on_c, 0, 66, 58
2, 231840, Note_on_c, 0, 69, 64
2, 231840, Note_on_c, 0, 71, 64
2, 231959, Note_on_c, 0, 66, 0
2, 231959, Note_on_c, 0, 69, 0
2, 231959, Note_on_c, 0, 71, 0
2, 232080, Note_on_c, 0, 64, 58
2, 232307, Note_on_c, 0, 64, 0
2, 232320, Note_on_c, 0, 60, 64
2, 232320, Note_on_c, 0, 71, 58
2, 232439, Note_on_c, 0, 60, 0
2, 232439, Note_on_c, 0, 71, 0
2, 232800, Note_on_c, 0, 67, 64
2, 232800, Note_on_c, 0, 71, 64
2, 232919, Note_on_c, 0, 67, 0
2, 232919, Note_on_c, 0, 71, 0
2, 233040, Note_on_c, 0, 59, 58
2, 233153, Note_on_c, 0, 59, 0
2, 233160, Note_on_c, 0, 62, 58
2, 233273, Note_on_c, 0, 62, 0
2, 233280, Note_on_c, 0, 60, 64
2, 233280, Note_on_c, 0, 66, 58
2, 233399, Note_on_c, 0, 60, 0
2, 233399, Note_on_c, 0, 66, 0
2, 233520, Note_on_c, 0, 67, 58
2, 233747, Note_on_c, 0, 67, 0
2, 233760, Note_on_c, 0, 66, 58
2, 233760, Note_on_c, 0, 69, 64
2, 233760, Note_on_c, 0, 71, 64
2, 233879, Note_on_c, 0, 66, 0
2, 233879, Note_on_c, 0, 69, 0
2, 233879, Note_on_c, 0, 71, 0
2, 234000, Note_on_c, 0, 64, 58
2, 234227, Note_on_c, 0, 64, 0
2, 234240, Note_on_c, 0, 59, 64
2, 234240, Note_on_c, 0, 66, 58
2, 234359, Note_on_c, 0, 59, 0
2, 234359, Note_on_c, 0, 66, 0
2, 234720, Note_on_c, 0, 66, 64
2, 234720, Note_on_c, 0, 69, 64
2, 234839, Note_on_c, 0, 66, 0
2, 234839, Note_on_c, 0, 69, 0
2, 234960, Note_on_c, 0, 57, 58
2, 235073, Note_on_c, 0, 57, 0
2, 235080, Note_on_c, 0, 59, 58
2, 235193, Note_on_c, 0, 59, 0
2, 235200, Note_on_c, 0, 59, 64
2, 235200, Note_on_c, 0, 61, 58
2, 235319, Note_on_c, 0, 59, 0
2, 235319, Note_on_c, 0, 61, 0
2, 235440, Note_on_c, 0, 62, 58
2, 235667, Note_on_c, 0, 62, 0
2, 235680, Note_on_c, 0, 64, 64
2, 235680, Note_on_c, 0, 66, 58
2, 235680, Note_on_c, 0, 69, 64
2, 235793, Note_on_c, 0, 64, 0
2, 235793, Note_on_c, 0, 66, 0
2, 235793, Note_on_c, 0, 69, 0
2, 235800, Note_on_c, 0, 64, 58
2, 236027, Note_on_c, 0, 64, 0
2, 236040, Note_on_c, 0, 66, 58
2, 236153, Note_on_c, 0, 66, 0
2, 236160, Note_on_c, 0, 59, 64
2, 236160, Note_on_c, 0, 62, 64
2, 236279, Note_on_c, 0, 59, 0
2, 236279, Note_on_c, 0, 62, 0
2, 236640, Note_on_c, 0, 66, 64
2, 236640, Note_on_c, 0, 69, 64
2, 236759, Note_on_c, 0, 66, 0
2, 236759, Note_on_c, 0, 69, 0
2, 237120, Note_on_c, 0, 59, 64
2, 237239, Note_on_c, 0, 59, 0
2, 237600, Note_on_c, 0, 67, 64
2, 237600, Note_on_c, 0, 69, 64
2, 238055, Note_on_c, 0, 67, 0
2, 238055, Note_on_c, 0, 69, 0
2, 238080, Key_signature, -4, "major"
2, 238080, Note_on_c, 0, 61, 72
2, 238199, Note_on_c, 0, 61, 0
2, 238320, Note_on_c, 0, 73, 72
2, 238320, Note_on_c, 0, 75, 72
2, 238439, Note_on_c, 0, 73, 0
2, 238439, Note_on_c, 0, 75, 0
2, 238560, Note_on_c, 0, 68, 72
2, 238679, Note_on_c, 0, 68, 0
2, 238800, Note_on_c, 0, 73, 72
2, 238800, Note_on_c, 0, 75, 72
2, 238919, Note_on_c, 0, 73, 0
2, 238919, Note_on_c, 0, 75, 0
2, 239040, Note_on_c, 0, 60, 72
2, 239159, Note_on_c, 0, 60, 0
2, 240000, Note_on_c, 0, 58, 72
2, 240119, Note_on_c, 0, 58, 0
2, 240240, Note_on_c, 0, 70, 72
2, 240359, Note_on_c, 0, 70, 0
2, 240720, Note_on_c, 0, 56, 64
2, 240720, Note_on_c, 0, 60, 64
2, 240720, Note_on_c, 0, 67, 64
2, 241175, Note_on_c, 0, 56, 0
2, 241175, Note_on_c, 0, 60, 0
2, 241175, Note_on_c, 0, 67, 0
2, 241440, Note_on_c, 0, 58, 64
2, 241440, Note_on_c, 0, 65, 64
2, 241440, Note_on_c, 0, 68, 64
2, 241895, Note_on_c, 0, 58, 0
2, 241895, Note_on_c, 0, 65, 0
2, 241895, Note_on_c, 0, 68, 0
2, 241920, Note_on_c, 0, 61, 72
2, 242039, Note_on_c, 0, 61, 0
2, 242160, Note_on_c, 0, 73, 72
2, 242160, Note_on_c, 0, 75, 72
2, 242279, Note_on_c, 0, 73, 0
2, 242279, Note_on_c, 0, 75, 0
2, 242400, Note_on_c, 0, 68, 72
2, 242519, Note_on_c, 0, 68, 0
2, 242640, Note_on_c, 0, 73, 72
2, 242640, Note_on_c, 0, 75, 72
2, 242759, Note_on_c, 0, 73, 0
2, 242759, Note_on_c, 0, 75, 0
2, 242880, Note_on_c, 0, 60, 72
2, 242999, Note_on_c, 0, 60, 0
2, 243840, Note_on_c, 0, 58, 80
2, 243959, Note_on_c, 0, 58, 0
2, 244080, Note_on_c, 0, 68, 64
2, 244199, Note_on_c, 0, 68, 0
2, 244320, Note_on_c, 0, 72, 80
2, 244439, Note_on_c, 0, 72, 0
2, 244560, Note_on_c, 0, 63, 80
2, 244560, Note_on_c, 0, 67, 80
2, 244560, Note_on_c, 0, 70, 80
2, 245243, Note_on_c, 0, 63, 0
2, 245243, Note_on_c, 0, 67, 0
2, 245243, Note_on_c, 0, 70, 0
2, 245760, Note_on_c, 0, 49, 64
2, 245760, Note_on_c, 0, 61, 72
2, 245879, Note_on_c, 0, 49, 0
2, 245879, Note_on_c, 0, 61, 0
2, 246000, Note_on_c, 0, 56, 64
2, 246000, Note_on_c, 0, 68, 72
2, 246119, Note_on_c, 0, 56, 0
2, 246119, Note_on_c, 0, 68, 0
2, 246240, Note_on_c, 0, 58, 64
2, 246240, Note_on_c, 0, 70, 72
2, 246359, Note_on_c, 0, 58, 0
2, 246359, Note_on_c, 0, 70, 0
2, 246480, Note_on_c, 0, 56, 64
2, 246480, Note_on_c, 0, 68, 72
2, 246599, Note_on_c, 0, 56, 0
2, 246599, Note_on_c, 0, 68, 0
2, 247200, Note_on_c, 0, 68, 80
2, 247655, Note_on_c, 0, 68, 0
2, 247680, Note_on_c, 0, 49, 64
2, 247680, Note_on_c, 0, 61, 72
2, 247799, Note_on_c, 0, 49, 0
2, 247799, Note_on_c, 0, 61, 0
2, 247920, Note_on_c, 0, 56, 64
2, 247920, Note_on_c, 0, 68, 72
2, 248039, Note_on_c, 0, 56, 0
2, 248039, Note_on_c, 0, 68, 0
2, 248160, Note_on_c, 0, 58, 64
2, 248160, Note_on_c, 0, 70, 72
2, 248279, Note_on_c, 0, 58, 0
2, 248279, Note_on_c, 0, 70, 0
2, 248400, Note_on_c, 0, 56, 64
2, 248400, Note_on_c, 0, 68, 72
2, 248519, Note_on_c, 0, 56, 0
2, 248519, Note_on_c, 0, 68, 0
2, 248880, Note_on_c, 0, 56, 72
2, 248999, Note_on_c, 0, 56, 0
2, 249120, Note_on_c, 0, 55, 72
2, 249239, Note_on_c, 0, 55, 0
2, 249360, Note_on_c, 0, 51, 72
2, 249479, Note_on_c, 0, 51, 0
2, 249600, Note_on_c, 0, 44, 64
2, 249600, Note_on_c, 0, 56, 72
2, 249719, Note_on_c, 0, 44, 0
2, 249719, Note_on_c, 0, 56, 0
2, 249840, Note_on_c, 0, 51, 64
2, 249840, Note_on_c, 0, 63, 72
2, 249959, Note_on_c, 0, 51, 0
2, 249959, Note_on_c, 0, 63, 0
2, 250080, Note_on_c, 0, 56, 64
2, 250080, Note_on_c, 0, 68, 72
2, 250199, Note_on_c, 0, 56, 0
2, 250199, Note_on_c, 0, 68, 0
2, 250320, Note_on_c, 0, 51, 64
2, 250320, Note_on_c, 0, 63, 72
2, 250439, Note_on_c, 0, 51, 0
2, 250439, Note_on_c, 0, 63, 0
2, 250560, Note_on_c, 0, 46, 64
2, 250560, Note_on_c, 0, 58, 72
2, 250679, Note_on_c, 0, 46, 0
2, 250679, Note_on_c, 0, 58, 0
2, 250800, Note_on_c, 0, 53, 64
2, 250800, Note_on_c, 0, 65, 72
2, 250919, Note_on_c, 0, 53, 0
2, 250919, Note_on_c, 0, 65, 0
2, 251040, Note_on_c, 0, 58, 64
2, 251040, Note_on_c, 0, 70, 72
2, 251159, Note_on_c, 0, 58, 0
2, 251159, Note_on_c, 0, 70, 0
2, 251280, Note_on_c, 0, 53, 64
2, 251280, Note_on_c, 0, 65, 72
2, 251399, Note_on_c, 0, 53, 0
2, 251399, Note_on_c, 0, 65, 0
2, 251520, Note_on_c, 0, 48, 64
2, 251520, Note_on_c, 0, 60, 72
2, 251639, Note_on_c, 0, 48, 0
2, 251639, Note_on_c, 0, 60, 0
2, 251760, Note_on_c, 0, 56, 64
2, 251760, Note_on_c, 0, 68, 72
2, 251879, Note_on_c, 0, 56, 0
2, 251879, Note_on_c, 0, 68, 0
2, 252000, Note_on_c, 0, 60, 64
2, 252000, Note_on_c, 0, 72, 72
2, 252119, Note_on_c, 0, 60, 0
2, 252119, Note_on_c, 0, 72, 0
2, 252240, Note_on_c, 0, 58, 72
2, 252695, Note_on_c, 0, 58, 0
2, 252960, Note_on_c, 0, 56, 72
2, 253073, Note_on_c, 0, 56, 0
2, 253080, Note_on_c, 0, 53, 72
2, 253193, Note_on_c, 0, 53, 0
2, 253200, Note_on_c, 0, 51, 72
2, 253427, Note_on_c, 0, 51, 0
2, 253440, Note_on_c, 0, 49, 64
2, 253440, Note_on_c, 0, 61, 72
2, 253559, Note_on_c, 0, 49, 0
2, 253559, Note_on_c, 0, 61, 0
2, 253680, Note_on_c, 0, 56, 64
2, 253680, Note_on_c, 0, 68, 72
2, 253799, Note_on_c, 0, 56, 0
2, 253799, Note_on_c, 0, 68, 0
2, 253920, Note_on_c, 0, 58, 64
2, 253920, Note_on_c, 0, 70, 72
2, 254039, Note_on_c, 0, 58, 0
2, 254039, Note_on_c, 0, 70, 0
2, 254160, Note_on_c, 0, 56, 64
2, 254160, Note_on_c, 0, 68, 72
2, 254279, Note_on_c, 0, 56, 0
2, 254279, Note_on_c, 0, 68, 0
2, 254880, Note_on_c, 0, 68, 80
2, 255335, Note_on_c, 0, 68, 0
2, 255360, Note_on_c, 0, 49, 64
2, 255360, Note_on_c, 0, 61, 72
2, 255479, Note_on_c, 0, 49, 0
2, 255479, Note_on_c, 0, 61, 0
2, 255600, Note_on_c, 0, 56, 64
2, 255600, Note_on_c, 0, 68, 72
2, 255719, Note_on_c, 0, 56, 0
2, 255719, Note_on_c, 0, 68, 0
2, 255840, Note_on_c, 0, 58, 64
2, 255840, Note_on_c, 0, 70, 72
2, 255959, Note_on_c, 0, 58, 0
2, 255959, Note_on_c, 0, 70, 0
2, 256080, Note_on_c, 0, 56, 64
2, 256080, Note_on_c, 0, 68, 72
2, 256199, Note_on_c, 0, 56, 0
2, 256199, Note_on_c, 0, 68, 0
2, 256560, Note_on_c, 0, 56, 72
2, 256679, Note_on_c, 0, 56, 0
2, 256800, Note_on_c, 0, 55, 75
2, 256919, Note_on_c, 0, 55, 0
2, 257040, Note_on_c, 0, 51, 78
2, 257159, Note_on_c, 0, 51, 0
2, 257280, Note_on_c, 0, 44, 72
2, 257280, Note_on_c, 0, 56, 81
2, 257399, Note_on_c, 0, 44, 0
2, 257399, Note_on_c, 0, 56, 0
2, 257520, Note_on_c, 0, 51, 72
2, 257520, Note_on_c, 0, 63, 81
2, 257639, Note_on_c, 0, 51, 0
2, 257639, Note_on_c, 0, 63, 0
2, 257760, Note_on_c, 0, 56, 72
2, 257760, Note_on_c, 0, 68, 81
2, 257879, Note_on_c, 0, 56, 0
2, 257879, Note_on_c, 0, 68, 0
2, 258000, Note_on_c, 0, 48, 72
2, 258000, Note_on_c, 0, 60, 81
2, 258119, Note_on_c, 0, 48, 0
2, 258119, Note_on_c, 0, 60, 0
2, 258240, Note_on_c, 0, 49, 72
2, 258240, Note_on_c, 0, 61, 81
2, 258359, Note_on_c, 0, 49, 0
2, 258359, Note_on_c, 0, 61, 0
2, 258720, Note_on_c, 0, 51, 72
2, 258720, Note_on_c, 0, 63, 81
2, 258839, Note_on_c, 0, 51, 0
2, 258839, Note_on_c, 0, 63, 0
2, 259200, Note_on_c, 0, 44, 72
2, 259200, Note_on_c, 0, 56, 86
2, 259319, Note_on_c, 0, 44, 0
2, 259319, Note_on_c, 0, 56, 0
2, 259440, Note_on_c, 0, 48, 72
2, 259440, Note_on_c, 0, 60, 86
2, 259559, Note_on_c, 0, 48, 0
2, 259559, Note_on_c, 0, 60, 0
2, 259680, Note_on_c, 0, 51, 72
2, 259680, Note_on_c, 0, 63, 86
2, 259799, Note_on_c, 0, 51, 0
2, 259799, Note_on_c, 0, 63, 0
2, 259920, Note_on_c, 0, 61, 72
2, 259920, Note_on_c, 0, 68, 86
2, 260147, Note_on_c, 0, 61, 0
2, 260147, Note_on_c, 0, 68, 0
2, 260400, Note_on_c, 0, 58, 72
2, 260400, Note_on_c, 0, 67, 86
2, 260519, Note_on_c, 0, 58, 0
2, 260519, Note_on_c, 0, 67, 0
2, 260640, Note_on_c, 0, 55, 72
2, 260640, Note_on_c, 0, 63, 86
2, 260759, Note_on_c, 0, 55, 0
2, 260759, Note_on_c, 0, 63, 0
2, 260880, Note_on_c, 0, 49, 72
2, 260880, Note_on_c, 0, 58, 86
2, 261107, Note_on_c, 0, 49, 0
2, 261107, Note_on_c, 0, 58, 0
2, 261120, Key_signature, -5, "major"
2, 261120, Note_on_c, 0, 36, 77
2, 261120, Note_on_c, 0, 48, 77
2, 261347, Note_on_c, 0, 36, 0
2, 261347, Note_on_c, 0, 48, 0
2, 261360, Note_on_c, 0, 51, 77
2, 261360, Note_on_c, 0, 55, 77
2, 261479, Note_on_c, 0, 51, 0
2, 261479, Note_on_c, 0, 55, 0
2, 261600, Note_on_c, 0, 36, 77
2, 261600, Note_on_c, 0, 48, 77
2, 261827, Note_on_c, 0, 36, 0
2, 261827, Note_on_c, 0, 48, 0
2, 261840, Note_on_c, 0, 54, 77
2, 261840, Note_on_c, 0, 57, 77
2, 261959, Note_on_c, 0, 54, 0
2, 261959, Note_on_c, 0, 57, 0
2, 262080, Note_on_c, 0, 36, 77
2, 262080, Note_on_c, 0, 48, 77
2, 262307, Note_on_c, 0, 36, 0
2, 262307, Note_on_c, 0, 48, 0
2, 262320, Note_on_c, 0, 51, 77
2, 262320, Note_on_c, 0, 55, 77
2, 262439, Note_on_c, 0, 51, 0
2, 262439, Note_on_c, 0, 55, 0
2, 262560, Note_on_c, 0, 36, 77
2, 262560, Note_on_c, 0, 48, 77
2, 262787, Note_on_c, 0, 36, 0
2, 262787, Note_on_c, 0, 48, 0
2, 262800, Note_on_c, 0, 50, 77
2, 262800, Note_on_c, 0, 54, 77
2, 262919, Note_on_c, 0, 50, 0
2, 262919, Note_on_c, 0, 54, 0
2, 263040, Note_on_c, 0, 36, 77
2, 263040, Note_on_c, 0, 48, 77
2, 263267, Note_on_c, 0, 36, 0
2, 263267, Note_on_c, 0, 48, 0
2, 263280, Note_on_c, 0, 51, 77
2, 263280, Note_on_c, 0, 55, 77
2, 263399, Note_on_c, 0, 51, 0
2, 263399, Note_on_c, 0, 55, 0
2, 263520, Note_on_c, 0, 36, 77
2, 263520, Note_on_c, 0, 48, 77
2, 263747, Note_on_c, 0, 36, 0
2, 263747, Note_on_c, 0, 48, 0
2, 263760, Note_on_c, 0, 54, 77
2, 263760, Note_on_c, 0, 57, 77
2, 263879, Note_on_c, 0, 54, 0
2, 263879, Note_on_c, 0, 57, 0
2, 264000, Note_on_c, 0, 36, 77
2, 264000, Note_on_c, 0, 48, 77
2, 264227, Note_on_c, 0, 36, 0
2, 264227, Note_on_c, 0, 48, 0
2, 264240, Note_on_c, 0, 51, 77
2, 264240, Note_on_c, 0, 55, 77
2, 264359, Note_on_c, 0, 51, 0
2, 264359, Note_on_c, 0, 55, 0
2, 264480, Note_on_c, 0, 36, 77
2, 264480, Note_on_c, 0, 48, 77
2, 264707, Note_on_c, 0, 36, 0
2, 264707, Note_on_c, 0, 48, 0
2, 264720, Note_on_c, 0, 50, 77
2, 264720, Note_on_c, 0, 54, 77
2, 264839, Note_on_c, 0, 50, 0
2, 264839, Note_on_c, 0, 54, 0
2, 264960, Note_on_c, 0, 36, 77
2, 264960, Note_on_c, 0, 48, 77
2, 265187, Note_on_c, 0, 36, 0
2, 265187, Note_on_c, 0, 48, 0
2, 265200, Note_on_c, 0, 51, 77
2, 265200, Note_on_c, 0, 55, 77
2, 265319, Note_on_c, 0, 51, 0
2, 265319, Note_on_c, 0, 55, 0
2, 265440, Note_on_c, 0, 36, 77
2, 265440, Note_on_c, 0, 48, 77
2, 265667, Note_on_c, 0, 36, 0
2, 265667, Note_on_c, 0, 48, 0
2, 265680, Note_on_c, 0, 54, 77
2, 265680, Note_on_c, 0, 57, 77
2, 265799, Note_on_c, 0, 54, 0
2, 265799, Note_on_c, 0, 57, 0
2, 265920, Note_on_c, 0, 36, 77
2, 265920, Note_on_c, 0, 48, 77
2, 266147, Note_on_c, 0, 36, 0
2, 266147, Note_on_c, 0, 48, 0
2, 266160, Note_on_c, 0, 51, 77
2, 266160, Note_on_c, 0, 55, 77
2, 266279, Note_on_c, 0, 51, 0
2, 266279, Note_on_c, 0, 55, 0
2, 266400, Note_on_c, 0, 36, 77
2, 266400, Note_on_c, 0, 48, 77
2, 266627, Note_on_c, 0, 36, 0
2, 266627, Note_on_c, 0, 48, 0
2, 266640, Note_on_c, 0, 50, 77
2, 266640, Note_on_c, 0, 54, 77
2, 266759, Note_on_c, 0, 50, 0
2, 266759, Note_on_c, 0, 54, 0
2, 266880, Note_on_c, 0, 36, 77
2, 266880, Note_on_c, 0, 48, 77
2, 267107, Note_on_c, 0, 36, 0
2, 267107, Note_on_c, 0, 48, 0
2, 267120, Note_on_c, 0, 51, 77
2, 267120, Note_on_c, 0, 55, 77
2, 267239, Note_on_c, 0, 51, 0
2, 267239, Note_on_c, 0, 55, 0
2, 267360, Note_on_c, 0, 36, 77
2, 267360, Note_on_c, 0, 48, 77
2, 267587, Note_on_c, 0, 36, 0
2, 267587, Note_on_c, 0, 48, 0
2, 267600, Note_on_c, 0, 54, 77
2, 267600, Note_on_c, 0, 57, 77
2, 267719, Note_on_c, 0, 54, 0
2, 267719, Note_on_c, 0, 57, 0
2, 267840, Note_on_c, 0, 36, 77
2, 267840, Note_on_c, 0, 48, 77
2, 268067, Note_on_c, 0, 36, 0
2, 268067, Note_on_c, 0, 48, 0
2, 268080, Note_on_c, 0, 51, 77
2, 268080, Note_on_c, 0, 55, 77
2, 268199, Note_on_c, 0, 51, 0
2, 268199, Note_on_c, 0, 55, 0
2, 268320, Note_on_c, 0, 36, 77
2, 268320, Note_on_c, 0, 48, 77
2, 268547, Note_on_c, 0, 36, 0
2, 268547, Note_on_c, 0, 48, 0
2, 268560, Note_on_c, 0, 50, 77
2, 268560, Note_on_c, 0, 54, 77
2, 268679, Note_on_c, 0, 50, 0
2, 268679, Note_on_c, 0, 54, 0
2, 268800, Note_on_c, 0, 36, 77
2, 268800, Note_on_c, 0, 48, 77
2, 269027, Note_on_c, 0, 36, 0
2, 269027, Note_on_c, 0, 48, 0
2, 269040, Note_on_c, 0, 51, 77
2, 269040, Note_on_c, 0, 55, 77
2, 269159, Note_on_c, 0, 51, 0
2, 269159, Note_on_c, 0, 55, 0
2, 269280, Note_on_c, 0, 36, 77
2, 269280, Note_on_c, 0, 48, 77
2, 269507, Note_on_c, 0, 36, 0
2, 269507, Note_on_c, 0, 48, 0
2, 269520, Note_on_c, 0, 54, 77
2, 269520, Note_on_c, 0, 57, 77
2, 269639, Note_on_c, 0, 54, 0
2, 269639, Note_on_c, 0, 57, 0
2, 269760, Note_on_c, 0, 36, 77
2, 269760, Note_on_c, 0, 48, 77
2, 269987, Note_on_c, 0, 36, 0
2, 269987, Note_on_c, 0, 48, 0
2, 270000, Note_on_c, 0, 51, 77
2, 270000, Note_on_c, 0, 55, 77
2, 270119, Note_on_c, 0, 51, 0
2, 270119, Note_on_c, 0, 55, 0
2, 270240, Note_on_c, 0, 36, 77
2, 270240, Note_on_c, 0, 48, 77
2, 270467, Note_on_c, 0, 36, 0
2, 270467, Note_on_c, 0, 48, 0
2, 270480, Note_on_c, 0, 50, 77
2, 270480, Note_on_c, 0, 54, 77
2, 270599, Note_on_c, 0, 50, 0
2, 270599, Note_on_c, 0, 54, 0
2, 270720, Note_on_c, 0, 36, 77
2, 270720, Note_on_c, 0, 48, 77
2, 270947, Note_on_c, 0, 36, 0
2, 270947, Note_on_c, 0, 48, 0
2, 270960, Note_on_c, 0, 51, 77
2, 270960, Note_on_c, 0, 55, 77
2, 271079, Note_on_c, 0, 51, 0
2, 271079, Note_on_c, 0, 55, 0
2, 271200, Note_on_c, 0, 36, 77
2, 271200, Note_on_c, 0, 48, 77
2, 271427, Note_on_c, 0, 36, 0
2, 271427, Note_on_c, 0, 48, 0
2, 271440, Note_on_c, 0, 54, 77
2, 271440, Note_on_c, 0, 57, 77
2, 271559, Note_on_c, 0, 54, 0
2, 271559, Note_on_c, 0, 57, 0
2, 271680, Note_on_c, 0, 36, 77
2, 271680, Note_on_c, 0, 48, 77
2, 271907, Note_on_c, 0, 36, 0
2, 271907, Note_on_c, 0, 48, 0
2, 271920, Note_on_c, 0, 51, 77
2, 271920, Note_on_c, 0, 55, 77
2, 272039, Note_on_c, 0, 51, 0
2, 272039, Note_on_c, 0, 55, 0
2, 272160, Note_on_c, 0, 36, 77
2, 272160, Note_on_c, 0, 48, 77
2, 272387, Note_on_c, 0, 36, 0
2, 272387, Note_on_c, 0, 48, 0
2, 272400, Note_on_c, 0, 50, 77
2, 272400, Note_on_c, 0, 54, 77
2, 272519, Note_on_c, 0, 50, 0
2, 272519, Note_on_c, 0, 54, 0
2, 272640, Note_on_c, 0, 36, 77
2, 272640, Note_on_c, 0, 48, 77
2, 272867, Note_on_c, 0, 36, 0
2, 272867, Note_on_c, 0, 48, 0
2, 272880, Note_on_c, 0, 51, 77
2, 272880, Note_on_c, 0, 55, 77
2, 272999, Note_on_c, 0, 51, 0
2, 272999, Note_on_c, 0, 55, 0
2, 273120, Note_on_c, 0, 36, 77
2, 273120, Note_on_c, 0, 48, 77
2, 273347, Note_on_c, 0, 36, 0
2, 273347, Note_on_c, 0, 48, 0
2, 273360, Note_on_c, 0, 54, 77
2, 273360, Note_on_c, 0, 57, 77
2, 273479, Note_on_c, 0, 54, 0
2, 273479, Note_on_c, 0, 57, 0
2, 273600, Note_on_c, 0, 36, 77
2, 273600, Note_on_c, 0, 48, 77
2, 273827, Note_on_c, 0, 36, 0
2, 273827, Note_on_c, 0, 48, 0
2, 273840, Note_on_c, 0, 51, 77
2, 273840, Note_on_c, 0, 55, 77
2, 273959, Note_on_c, 0, 51, 0
2, 273959, Note_on_c, 0, 55, 0
2, 274080, Note_on_c, 0, 36, 77
2, 274080, Note_on_c, 0, 48, 77
2, 274307, Note_on_c, 0, 36, 0
2, 274307, Note_on_c, 0, 48, 0
2, 274320, Note_on_c, 0, 50, 77
2, 274320, Note_on_c, 0, 54, 77
2, 274439, Note_on_c, 0, 50, 0
2, 274439, Note_on_c, 0, 54, 0
2, 274560, Note_on_c, 0, 36, 77
2, 274560, Note_on_c, 0, 48, 77
2, 274787, Note_on_c, 0, 36, 0
2, 274787, Note_on_c, 0, 48, 0
2, 274800, Note_on_c, 0, 51, 77
2, 274800, Note_on_c, 0, 55, 77
2, 274800, Note_on_c, 0, 60, 77
2, 274919, Note_on_c, 0, 51, 0
2, 274919, Note_on_c, 0, 55, 0
2, 274919, Note_on_c, 0, 60, 0
2, 275040, Note_on_c, 0, 36, 77
2, 275040, Note_on_c, 0, 48, 77
2, 275267, Note_on_c, 0, 36, 0
2, 275267, Note_on_c, 0, 48, 0
2, 275280, Note_on_c, 0, 54, 77
2, 275280, Note_on_c, 0, 57, 77
2, 275399, Note_on_c, 0, 54, 0
2, 275399, Note_on_c, 0, 57, 0
2, 275520, Note_on_c, 0, 36, 77
2, 275520, Note_on_c, 0, 48, 77
2, 275747, Note_on_c, 0, 36, 0
2, 275747, Note_on_c, 0, 48, 0
2, 275760, Note_on_c, 0, 51, 77
2, 275760, Note_on_c, 0, 55, 77
2, 275879, Note_on_c, 0, 51, 0
2, 275879, Note_on_c, 0, 55, 0
2, 276000, Note_on_c, 0, 36, 77
2, 276000, Note_on_c, 0, 48, 77
2, 276227, Note_on_c, 0, 36, 0
2, 276227, Note_on_c, 0, 48, 0
2, 276240, Note_on_c, 0, 50, 77
2, 276240, Note_on_c, 0, 54, 77
2, 276359, Note_on_c, 0, 50, 0
2, 276359, Note_on_c, 0, 54, 0
2, 276480, Note_on_c, 0, 36, 77
2, 276480, Note_on_c, 0, 48, 77
2, 276707, Note_on_c, 0, 36, 0
2, 276707, Note_on_c, 0, 48, 0
2, 276720, Note_on_c, 0, 51, 77
2, 276720, Note_on_c, 0, 55, 77
2, 276839, Note_on_c, 0, 51, 0
2, 276839, Note_on_c, 0, 55, 0
2, 276960, Note_on_c, 0, 36, 77
2, 276960, Note_on_c, 0, 48, 77
2, 277187, Note_on_c, 0, 36, 0
2, 277187, Note_on_c, 0, 48, 0
2, 277200, Note_on_c, 0, 54, 77
2, 277200, Note_on_c, 0, 57, 77
2, 277319, Note_on_c, 0, 54, 0
2, 277319, Note_on_c, 0, 57, 0
2, 277440, Note_on_c, 0, 36, 77
2, 277440, Note_on_c, 0, 48, 77
2, 277667, Note_on_c, 0, 36, 0
2, 277667, Note_on_c, 0, 48, 0
2, 277680, Note_on_c, 0, 51, 77
2, 277680, Note_on_c, 0, 55, 77
2, 277799, Note_on_c, 0, 51, 0
2, 277799, Note_on_c, 0, 55, 0
2, 277920, Note_on_c, 0, 36, 77
2, 277920, Note_on_c, 0, 48, 77
2, 278147, Note_on_c, 0, 36, 0
2, 278147, Note_on_c, 0, 48, 0
2, 278160, Note_on_c, 0, 50, 77
2, 278160, Note_on_c, 0, 54, 77
2, 278279, Note_on_c, 0, 50, 0
2, 278279, Note_on_c, 0, 54, 0
2, 278400, Note_on_c, 0, 36, 77
2, 278400, Note_on_c, 0, 48, 77
2, 278627, Note_on_c, 0, 36, 0
2, 278627, Note_on_c, 0, 48, 0
2, 278640, Note_on_c, 0, 51, 77
2, 278640, Note_on_c, 0, 55, 77
2, 278640, Note_on_c, 0, 60, 77
2, 278759, Note_on_c, 0, 51, 0
2, 278759, Note_on_c, 0, 55, 0
2, 278759, Note_on_c, 0, 60, 0
2, 278880, Note_on_c, 0, 36, 77
2, 278880, Note_on_c, 0, 48, 77
2, 279107, Note_on_c, 0, 36, 0
2, 279107, Note_on_c, 0, 48, 0
2, 279120, Note_on_c, 0, 54, 77
2, 279120, Note_on_c, 0, 57, 77
2, 279239, Note_on_c, 0, 54, 0
2, 279239, Note_on_c, 0, 57, 0
2, 280320, Note_on_c, 0, 41, 82
2, 280320, Note_on_c, 0, 53, 82
2, 280547, Note_on_c, 0, 41, 0
2, 280547, Note_on_c, 0, 53, 0
2, 280560, Note_on_c, 0, 53, 82
2, 280560, Note_on_c, 0, 56, 82
2, 280560, Note_on_c, 0, 65, 82
2, 280679, Note_on_c, 0, 53, 0
2, 280679, Note_on_c, 0, 56, 0
2, 280679, Note_on_c, 0, 65, 0
2, 280800, Note_on_c, 0, 36, 82
2, 280800, Note_on_c, 0, 48, 82
2, 281027, Note_on_c, 0, 36, 0
2, 281027, Note_on_c, 0, 48, 0
2, 281040, Note_on_c, 0, 53, 82
2, 281040, Note_on_c, 0, 56, 82
2, 281040, Note_on_c, 0, 65, 82
2, 281159, Note_on_c, 0, 53, 0
2, 281159, Note_on_c, 0, 56, 0
2, 281159, Note_on_c, 0, 65, 0
2, 281280, Note_on_c, 0, 41, 82
2, 281280, Note_on_c, 0, 53, 82
2, 281507, Note_on_c, 0, 41, 0
2, 281507, Note_on_c, 0, 53, 0
2, 281520, Note_on_c, 0, 56, 82
2, 281520, Note_on_c, 0, 60, 82
2, 281639, Note_on_c, 0, 56, 0
2, 281639, Note_on_c, 0, 60, 0
2, 281760, Note_on_c, 0, 36, 82
2, 281760, Note_on_c, 0, 48, 82
2, 281987, Note_on_c, 0, 36, 0
2, 281987, Note_on_c, 0, 48, 0
2, 282000, Note_on_c, 0, 53, 82
2, 282000, Note_on_c, 0, 59, 82
2, 282000, Note_on_c, 0, 62, 82
2, 282119, Note_on_c, 0, 53, 0
2, 282119, Note_on_c, 0, 59, 0
2, 282119, Note_on_c, 0, 62, 0
2, 282240, Note_on_c, 0, 43, 82
2, 282240, Note_on_c, 0, 55, 82
2, 282467, Note_on_c, 0, 43, 0
2, 282467, Note_on_c, 0, 55, 0
2, 282480, Note_on_c, 0, 55, 82
2, 282480, Note_on_c, 0, 59, 82
2, 282480, Note_on_c, 0, 62, 82
2, 282599, Note_on_c, 0, 55, 0
2, 282599, Note_on_c, 0, 59, 0
2, 282599, Note_on_c, 0, 62, 0
2, 282720, Note_on_c, 0, 38, 82
2, 282720, Note_on_c, 0, 50, 82
2, 282947, Note_on_c, 0, 38, 0
2, 282947, Note_on_c, 0, 50, 0
2, 282960, Note_on_c, 0, 55, 82
2, 282960, Note_on_c, 0, 59, 82
2, 282960, Note_on_c, 0, 62, 82
2, 283079, Note_on_c, 0, 55, 0
2, 283079, Note_on_c, 0, 59, 0
2, 283079, Note_on_c, 0, 62, 0
2, 283200, Note_on_c, 0, 43, 82
2, 283200, Note_on_c, 0, 55, 82
2, 283427, Note_on_c, 0, 43, 0
2, 283427, Note_on_c, 0, 55, 0
2, 283440, Note_on_c, 0, 55, 82
2, 283440, Note_on_c, 0, 59, 82
2, 283559, Note_on_c, 0, 55, 0
2, 283559, Note_on_c, 0, 59, 0
2, 283680, Note_on_c, 0, 38, 82
2, 283680, Note_on_c, 0, 50, 82
2, 283907, Note_on_c, 0, 38, 0
2, 283907, Note_on_c, 0, 50, 0
2, 283920, Note_on_c, 0, 55, 82
2, 283920, Note_on_c, 0, 59, 82
2, 283920, Note_on_c, 0, 63, 82
2, 284039, Note_on_c, 0, 55, 0
2, 284039, Note_on_c, 0, 59, 0
2, 284039, Note_on_c, 0, 63, 0
2, 284160, Note_on_c, 0, 44, 82
2, 284160, Note_on_c, 0, 56, 82
2, 284387, Note_on_c, 0, 44, 0
2, 284387, Note_on_c, 0, 56, 0
2, 284400, Note_on_c, 0, 60, 82
2, 284400, Note_on_c, 0, 63, 82
2, 284519, Note_on_c, 0, 60, 0
2, 284519, Note_on_c, 0, 63, 0
2, 284640, Note_on_c, 0, 39, 82
2, 284640, Note_on_c, 0, 51, 82
2, 284867, Note_on_c, 0, 39, 0
2, 284867, Note_on_c, 0, 51, 0
2, 284880, Note_on_c, 0, 60, 82
2, 284880, Note_on_c, 0, 63, 82
2, 284999, Note_on_c, 0, 60, 0
2, 284999, Note_on_c, 0, 63, 0
2, 285120, Note_on_c, 0, 44, 82
2, 285120, Note_on_c, 0, 56, 82
2, 285347, Note_on_c, 0, 44, 0
2, 285347, Note_on_c, 0, 56, 0
2, 285360, Note_on_c, 0, 60, 82
2, 285360, Note_on_c, 0, 63, 82
2, 285479, Note_on_c, 0, 60, 0
2, 285479, Note_on_c, 0, 63, 0
2, 285600, Note_on_c, 0, 41, 82
2, 285600, Note_on_c, 0, 53, 82
2, 285827, Note_on_c, 0, 41, 0
2, 285827, Note_on_c, 0, 53, 0
2, 285840, Note_on_c, 0, 53, 82
2, 285840, Note_on_c, 0, 56, 82
2, 285840, Note_on_c, 0, 60, 82
2, 285959, Note_on_c, 0, 53, 0
2, 285959, Note_on_c, 0, 56, 0
2, 285959, Note_on_c, 0, 60, 0
2, 286080, Note_on_c, 0, 39, 82
2, 286080, Note_on_c, 0, 51, 82
2, 286307, Note_on_c, 0, 39, 0
2, 286307, Note_on_c, 0, 51, 0
2, 286320, Note_on_c, 0, 55, 82
2, 286320, Note_on_c, 0, 58, 82
2, 286320, Note_on_c, 0, 63, 82
2, 286439, Note_on_c, 0, 55, 0
2, 286439, Note_on_c, 0, 58, 0
2, 286439, Note_on_c, 0, 63, 0
2, 286560, Note_on_c, 0, 34, 82
2, 286560, Note_on_c, 0, 46, 82
2, 286787, Note_on_c, 0, 34, 0
2, 286787, Note_on_c, 0, 46, 0
2, 286800, Note_on_c, 0, 55, 82
2, 286800, Note_on_c, 0, 58, 82
2, 286800, Note_on_c, 0, 63, 82
2, 286919, Note_on_c, 0, 55, 0
2, 286919, Note_on_c, 0, 58, 0
2, 286919, Note_on_c, 0, 63, 0
2, 287040, Note_on_c, 0, 37, 82
2, 287040, Note_on_c, 0, 49, 82
2, 287267, Note_on_c, 0, 37, 0
2, 287267, Note_on_c, 0, 49, 0
2, 287280, Note_on_c, 0, 56, 82
2, 287280, Note_on_c, 0, 61, 82
2, 287399, Note_on_c, 0, 56, 0
2, 287399, Note_on_c, 0, 61, 0
2, 287520, Note_on_c, 0, 43, 82
2, 287520, Note_on_c, 0, 55, 82
2, 287747, Note_on_c, 0, 43, 0
2, 287747, Note_on_c, 0, 55, 0
2, 287760, Note_on_c, 0, 55, 82
2, 287760, Note_on_c, 0, 59, 82
2, 287760, Note_on_c, 0, 62, 82
2, 287879, Note_on_c, 0, 55, 0
2, 287879, Note_on_c, 0, 59, 0
2, 287879, Note_on_c, 0, 62, 0
2, 288000, Note_on_c, 0, 41, 82
2, 288000, Note_on_c, 0, 53, 82
2, 288227, Note_on_c, 0, 41, 0
2, 288227, Note_on_c, 0, 53, 0
2, 288240, Note_on_c, 0, 53, 82
2, 288240, Note_on_c, 0, 56, 82
2, 288240, Note_on_c, 0, 65, 82
2, 288359, Note_on_c, 0, 53, 0
2, 288359, Note_on_c, 0, 56, 0
2, 288359, Note_on_c, 0, 65, 0
2, 288480, Note_on_c, 0, 41, 82
2, 288480, Note_on_c, 0, 53, 82
2, 288707, Note_on_c, 0, 41, 0
2, 288707, Note_on_c, 0, 53, 0
2, 288720, Note_on_c, 0, 53, 82
2, 288720, Note_on_c, 0, 56, 82
2, 288720, Note_on_c, 0, 65, 82
2, 288839, Note_on_c, 0, 53, 0
2, 288839, Note_on_c, 0, 56, 0
2, 288839, Note_on_c, 0, 65, 0
2, 288960, Note_on_c, 0, 41, 82
2, 288960, Note_on_c, 0, 53, 82
2, 289187, Note_on_c, 0, 41, 0
2, 289187, Note_on_c, 0, 53, 0
2, 289200, Note_on_c, 0, 56, 82
2, 289200, Note_on_c, 0, 60, 82
2, 289319, Note_on_c, 0, 56, 0
2, 289319, Note_on_c, 0, 60, 0
2, 289440, Note_on_c, 0, 41, 82
2, 289440, Note_on_c, 0, 53, 82
2, 289667, Note_on_c, 0, 41, 0
2, 289667, Note_on_c, 0, 53, 0
2, 289680, Note_on_c, 0, 53, 82
2, 289680, Note_on_c, 0, 59, 82
2, 289680, Note_on_c, 0, 62, 82
2, 289799, Note_on_c, 0, 53, 0
2, 289799, Note_on_c, 0, 59, 0
2, 289799, Note_on_c, 0, 62, 0
2, 289920, Note_on_c, 0, 43, 82
2, 289920, Note_on_c, 0, 55, 82
2, 290147, Note_on_c, 0, 43, 0
2, 290147, Note_on_c, 0, 55, 0
2, 290160, Note_on_c, 0, 59, 82
2, 290160, Note_on_c, 0, 62, 82
2, 290279, Note_on_c, 0, 59, 0
2, 290279, Note_on_c, 0, 62, 0
2, 290400, Note_on_c, 0, 43, 82
2, 290400, Note_on_c, 0, 55, 82
2, 290627, Note_on_c, 0, 43, 0
2, 290627, Note_on_c, 0, 55, 0
2, 290640, Note_on_c, 0, 59, 82
2, 290640, Note_on_c, 0, 62, 82
2, 290759, Note_on_c, 0, 59, 0
2, 290759, Note_on_c, 0, 62, 0
2, 290880, Note_on_c, 0, 43, 82
2, 290880, Note_on_c, 0, 55, 82
2, 291107, Note_on_c, 0, 43, 0
2, 291107, Note_on_c, 0, 55, 0
2, 291120, Note_on_c, 0, 59, 82
2, 291120, Note_on_c, 0, 62, 82
2, 291239, Note_on_c, 0, 59, 0
2, 291239, Note_on_c, 0, 62, 0
2, 291360, Note_on_c, 0, 43, 82
2, 291360, Note_on_c, 0, 55, 82
2, 291587, Note_on_c, 0, 43, 0
2, 291587, Note_on_c, 0, 55, 0
2, 291600, Note_on_c, 0, 55, 82
2, 291600, Note_on_c, 0, 59, 82
2, 291600, Note_on_c, 0, 63, 82
2, 291719, Note_on_c, 0, 55, 0
2, 291719, Note_on_c, 0, 59, 0
2, 291719, Note_on_c, 0, 63, 0
2, 291840, Note_on_c, 0, 44, 82
2, 291840, Note_on_c, 0, 56, 82
2, 292067, Note_on_c, 0, 44, 0
2, 292067, Note_on_c, 0, 56, 0
2, 292080, Note_on_c, 0, 60, 82
2, 292080, Note_on_c, 0, 63, 82
2, 292199, Note_on_c, 0, 60, 0
2, 292199, Note_on_c, 0, 63, 0
2, 292320, Note_on_c, 0, 44, 82
2, 292320, Note_on_c, 0, 56, 82
2, 292547, Note_on_c, 0, 44, 0
2, 292547, Note_on_c, 0, 56, 0
2, 292560, Note_on_c, 0, 60, 82
2, 292560, Note_on_c, 0, 63, 82
2, 292679, Note_on_c, 0, 60, 0
2, 292679, Note_on_c, 0, 63, 0
2, 292800, Note_on_c, 0, 44, 82
2, 292800, Note_on_c, 0, 56, 82
2, 293711, Note_on_c, 0, 44, 0
2, 293711, Note_on_c, 0, 56, 0
2, 293760, Note_on_c, 0, 41, 82
2, 293760, Note_on_c, 0, 53, 82
2, 294215, Note_on_c, 0, 41, 0
2, 294215, Note_on_c, 0, 53, 0
2, 294240, Note_on_c, 0, 38, 82
2, 294240, Note_on_c, 0, 50, 82
2, 294695, Note_on_c, 0, 38, 0
2, 294695, Note_on_c, 0, 50, 0
2, 294720, Note_on_c, 0, 54, 96
2, 294796, Note_on_c, 0, 54, 0
2, 294797, Note_on_c, 0, 43, 82
2, 294797, Note_on_c, 0, 55, 82
2, 295634, Note_on_c, 0, 43, 0
2, 295634, Note_on_c, 0, 55, 0
2, 295680, Key_signature, 1, "major"
2, 295680, Note_on_c, 0, 36, 30
2, 297503, Note_on_c, 0, 36, 0
2, 297600, Note_on_c, 0, 35, 30
2, 299423, Note_on_c, 0, 35, 0
2, 299520, Note_on_c, 0, 40, 32
2, 301343, Note_on_c, 0, 40, 0
2, 303360, Note_on_c, 0, 28, 64
2, 303360, Note_on_c, 0, 40, 64
2, 304727, Note_on_c, 0, 28, 0
2, 304727, Note_on_c, 0, 40, 0
2, 304800, Note_on_c, 0, 33, 64
2, 304800, Note_on_c, 0, 45, 64
2, 305711, Note_on_c, 0, 33, 0
2, 305711, Note_on_c, 0, 45, 0
2, 305760, Note_on_c, 0, 27, 64
2, 305760, Note_on_c, 0, 39, 64
2, 306215, Note_on_c, 0, 27, 0
2, 306215, Note_on_c, 0, 39, 0
2, 306240, Note_on_c, 0, 28, 64
2, 306240, Note_on_c, 0, 40, 64
2, 307607, Note_on_c, 0, 28, 0
2, 307607, Note_on_c, 0, 40, 0
2, 307680, Note_on_c, 0, 36, 64
2, 307680, Note_on_c, 0, 48, 64
2, 308591, Note_on_c, 0, 36, 0
2, 308591, Note_on_c, 0, 48, 0
2, 308640, Note_on_c, 0, 35, 64
2, 308640, Note_on_c, 0, 47, 64
2, 309095, Note_on_c, 0, 35, 0
2, 309095, Note_on_c, 0, 47, 0
2, 309120, Note_on_c, 0, 28, 64
2, 309120, Note_on_c, 0, 40, 64
2, 310487, Note_on_c, 0, 28, 0
2, 310487, Note_on_c, 0, 40, 0
2, 310560, Note_on_c, 0, 36, 64
2, 310560, Note_on_c, 0, 48, 64
2, 311927, Note_on_c, 0, 36, 0
2, 311927, Note_on_c, 0, 48, 0
2, 312000, Note_on_c, 0, 35, 64
2, 313367, Note_on_c, 0, 35, 0
2, 313440, Note_on_c, 0, 36, 64
2, 313440, Note_on_c, 0, 48, 64
2, 314807, Note_on_c, 0, 36, 0
2, 314807, Note_on_c, 0, 48, 0
2, 314880, Key_signature, -1, "major"
2, 314880, Note_on_c, 0, 46, 64
2, 315107, Note_on_c, 0, 46, 0
2, 315120, Note_on_c, 0, 46, 64
2, 315239, Note_on_c, 0, 46, 0
2, 315600, Note_on_c, 0, 46, 64
2, 315827, Note_on_c, 0, 46, 0
2, 315840, Note_on_c, 0, 46, 64
2, 316067, Note_on_c, 0, 46, 0
2, 316080, Note_on_c, 0, 46, 64
2, 316199, Note_on_c, 0, 46, 0
2, 316560, Note_on_c, 0, 46, 64
2, 316787, Note_on_c, 0, 46, 0
2, 316800, Note_on_c, 0, 48, 64
2, 317027, Note_on_c, 0, 48, 0
2, 317040, Note_on_c, 0, 48, 64
2, 317159, Note_on_c, 0, 48, 0
2, 317520, Note_on_c, 0, 48, 64
2, 317747, Note_on_c, 0, 48, 0
2, 317760, Note_on_c, 0, 48, 64
2, 317987, Note_on_c, 0, 48, 0
2, 318000, Note_on_c, 0, 48, 64
2, 318119, Note_on_c, 0, 48, 0
2, 318480, Note_on_c, 0, 48, 64
2, 318707, Note_on_c, 0, 48, 0
2, 318720, Note_on_c, 0, 46, 64
2, 318947, Note_on_c, 0, 46, 0
2, 318960, Note_on_c, 0, 46, 64
2, 319079, Note_on_c, 0, 46, 0
2, 319440, Note_on_c, 0, 46, 64
2, 319667, Note_on_c, 0, 46, 0
2, 319680, Note_on_c, 0, 46, 64
2, 319907, Note_on_c, 0, 46, 0
2, 319920, Note_on_c, 0, 46, 64
2, 320039, Note_on_c, 0, 46, 0
2, 320400, Note_on_c, 0, 46, 64
2, 320627, Note_on_c, 0, 46, 0
2, 320640, Note_on_c, 0, 48, 64
2, 320867, Note_on_c, 0, 48, 0
2, 320880, Note_on_c, 0, 48, 64
2, 320999, Note_on_c, 0, 48, 0
2, 321360, Note_on_c, 0, 48, 64
2, 321479, Note_on_c, 0, 48, 0
2, 321840, Note_on_c, 0, 48, 64
2, 322067, Note_on_c, 0, 48, 0
2, 322080, Note_on_c, 0, 48, 64
2, 322307, Note_on_c, 0, 48, 0
2, 322320, Note_on_c, 0, 48, 64
2, 322547, Note_on_c, 0, 48, 0
2, 322560, Note_on_c, 0, 46, 80
2, 323243, Note_on_c, 0, 46, 0
2, 323280, Note_on_c, 0, 41, 80
2, 323963, Note_on_c, 0, 41, 0
2, 324000, Note_on_c, 0, 46, 80
2, 324455, Note_on_c, 0, 46, 0
2, 324480, Note_on_c, 0, 48, 80
2, 325163, Note_on_c, 0, 48, 0
2, 325200, Note_on_c, 0, 43, 80
2, 325427, Note_on_c, 0, 43, 0
2, 325440, Note_on_c, 0, 52, 80
2, 325895, Note_on_c, 0, 52, 0
2, 325920, Note_on_c, 0, 48, 80
2, 326375, Note_on_c, 0, 48, 0
2, 326400, Note_on_c, 0, 46, 80
2, 326400, Note_on_c, 0, 50, 80
2, 327083, Note_on_c, 0, 46, 0
2, 327083, Note_on_c, 0, 50, 0
2, 327120, Note_on_c, 0, 41, 80
2, 327803, Note_on_c, 0, 41, 0
2, 327840, Note_on_c, 0, 46, 80
2, 328295, Note_on_c, 0, 46, 0
2, 328320, Note_on_c, 0, 48, 80
2, 328320, Note_on_c, 0, 52, 80
2, 329003, Note_on_c, 0, 48, 0
2, 329003, Note_on_c, 0, 52, 0
2, 329040, Note_on_c, 0, 52, 80
2, 329723, Note_on_c, 0, 52, 0
2, 329760, Note_on_c, 0, 48, 80
2, 330215, Note_on_c, 0, 48, 0
2, 330240, Note_on_c, 0, 46, 80
2, 330240, Note_on_c, 0, 50, 80
2, 330923, Note_on_c, 0, 46, 0
2, 330923, Note_on_c, 0, 50, 0
2, 330960, Note_on_c, 0, 41, 80
2, 331643, Note_on_c, 0, 41, 0
2, 331680, Note_on_c, 0, 46, 80
2, 332135, Note_on_c, 0, 46, 0
2, 332160, Note_on_c, 0, 48, 80
2, 332843, Note_on_c, 0, 48, 0
2, 332880, Note_on_c, 0, 43, 80
2, 333107, Note_on_c, 0, 43, 0
2, 333120, Note_on_c, 0, 52, 80
2, 333575, Note_on_c, 0, 52, 0
2, 333600, Note_on_c, 0, 48, 80
2, 334055, Note_on_c, 0, 48, 0
2, 334080, Note_on_c, 0, 46, 80
2, 334763, Note_on_c, 0, 46, 0
2, 334800, Note_on_c, 0, 41, 80
2, 335483, Note_on_c, 0, 41, 0
2, 335520, Note_on_c, 0, 46, 80
2, 335975, Note_on_c, 0, 46, 0
2, 336000, Note_on_c, 0, 48, 80
2, 336000, Note_on_c, 0, 55, 80
2, 337823, Note_on_c, 0, 48, 0
2, 337823, Note_on_c, 0, 55, 0
2, 337920, Key_signature, -4, "major"
2, 337920, Note_on_c, 0, 46, 96
2, 337920, Note_on_c, 0, 53, 96
2, 337920, Note_on_c, 0, 58, 96
2, 338159, Note_on_c, 0, 46, 0
2, 338159, Note_on_c, 0, 53, 0
2, 338159, Note_on_c, 0, 58, 0
2, 338160, Note_on_c, 0, 46, 80
2, 338273, Note_on_c, 0, 46, 0
2, 338280, Note_on_c, 0, 53, 80
2, 338280, Note_on_c, 0, 58, 80
2, 338393, Note_on_c, 0, 53, 0
2, 338393, Note_on_c, 0, 58, 0
2, 338520, Note_on_c, 0, 46, 80
2, 338520, Note_on_c, 0, 53, 80
2, 338633, Note_on_c, 0, 46, 0
2, 338633, Note_on_c, 0, 53, 0
2, 338640, Note_on_c, 0, 53, 80
2, 338640, Note_on_c, 0, 58, 80
2, 338753, Note_on_c, 0, 53, 0
2, 338753, Note_on_c, 0, 58, 0
2, 338880, Note_on_c, 0, 46, 80
2, 338880, Note_on_c, 0, 53, 80
2, 339107, Note_on_c, 0, 46, 0
2, 339107, Note_on_c, 0, 53, 0
2, 339120, Note_on_c, 0, 53, 80
2, 339120, Note_on_c, 0, 58, 80
2, 339347, Note_on_c, 0, 53, 0
2, 339347, Note_on_c, 0, 58, 0
2, 339360, Note_on_c, 0, 51, 96
2, 339360, Note_on_c, 0, 58, 96
2, 339360, Note_on_c, 0, 63, 96
2, 339599, Note_on_c, 0, 51, 0
2, 339599, Note_on_c, 0, 58, 0
2, 339599, Note_on_c, 0, 63, 0
2, 339600, Note_on_c, 0, 51, 80
2, 339713, Note_on_c, 0, 51, 0
2, 339720, Note_on_c, 0, 55, 80
2, 339720, Note_on_c, 0, 63, 80
2, 339833, Note_on_c, 0, 55, 0
2, 339833, Note_on_c, 0, 63, 0
2, 339960, Note_on_c, 0, 51, 80
2, 339960, Note_on_c, 0, 55, 80
2, 340073, Note_on_c, 0, 51, 0
2, 340073, Note_on_c, 0, 55, 0
2, 340080, Note_on_c, 0, 55, 80
2, 340080, Note_on_c, 0, 63, 80
2, 340193, Note_on_c, 0, 55, 0
2, 340193, Note_on_c, 0, 63, 0
2, 340320, Note_on_c, 0, 51, 80
2, 340320, Note_on_c, 0, 55, 80
2, 340547, Note_on_c, 0, 51, 0
2, 340547, Note_on_c, 0, 55, 0
2, 340560, Note_on_c, 0, 55, 80
2, 340560, Note_on_c, 0, 63, 80
2, 340787, Note_on_c, 0, 55, 0
2, 340787, Note_on_c, 0, 63, 0
2, 340800, Note_on_c, 0, 46, 96
2, 340800, Note_on_c, 0, 53, 96
2, 340800, Note_on_c, 0, 58, 96
2, 341039, Note_on_c, 0, 46, 0
2, 341039, Note_on_c, 0, 53, 0
2, 341039, Note_on_c, 0, 58, 0
2, 341040, Note_on_c, 0, 46, 80
2, 341153, Note_on_c, 0, 46, 0
2, 341160, Note_on_c, 0, 56, 80
2, 341160, Note_on_c, 0, 58, 80
2, 341273, Note_on_c, 0, 56, 0
2, 341273, Note_on_c, 0, 58, 0
2, 341400, Note_on_c, 0, 46, 80
2, 341400, Note_on_c, 0, 56, 80
2, 341513, Note_on_c, 0, 46, 0
2, 341513, Note_on_c, 0, 56, 0
2, 341520, Note_on_c, 0, 56, 80
2, 341520, Note_on_c, 0, 58, 80
2, 341633, Note_on_c, 0, 56, 0
2, 341633, Note_on_c, 0, 58, 0
2, 341760, Note_on_c, 0, 46, 80
2, 341760, Note_on_c, 0, 56, 80
2, 341987, Note_on_c, 0, 46, 0
2, 341987, Note_on_c, 0, 56, 0
2, 342000, Note_on_c, 0, 56, 80
2, 342000, Note_on_c, 0, 58, 80
2, 342227, Note_on_c, 0, 56, 0
2, 342227, Note_on_c, 0, 58, 0
2, 342240, Note_on_c, 0, 42, 80
2, 342240, Note_on_c, 0, 49, 80
2, 342240, Note_on_c, 0, 54, 80
2, 342467, Note_on_c, 0, 42, 0
2, 342467, Note_on_c, 0, 49, 0
2, 342467, Note_on_c, 0, 54, 0
2, 342480, Note_on_c, 0, 48, 80
2, 342707, Note_on_c, 0, 48, 0
2, 342720, Note_on_c, 0, 49, 80
2, 342947, Note_on_c, 0, 49, 0
2, 342960, Note_on_c, 0, 41, 80
2, 342960, Note_on_c, 0, 48, 80
2, 342960, Note_on_c, 0, 53, 80
2, 343187, Note_on_c, 0, 41, 0
2, 343187, Note_on_c, 0, 48, 0
2, 343187, Note_on_c, 0, 53, 0
2, 343200, Note_on_c, 0, 48, 80
2, 343427, Note_on_c, 0, 48, 0
2, 343440, Note_on_c, 0, 51, 80
2, 343667, Note_on_c, 0, 51, 0
2, 343680, Note_on_c, 0, 46, 96
2, 343680, Note_on_c, 0, 53, 96
2, 343680, Note_on_c, 0, 58, 96
2, 343919, Note_on_c, 0, 46, 0
2, 343919, Note_on_c, 0, 53, 0
2, 343919, Note_on_c, 0, 58, 0
2, 343920, Note_on_c, 0, 46, 80
2, 344033, Note_on_c, 0, 46, 0
2, 344040, Note_on_c, 0, 53, 80
2, 344040, Note_on_c, 0, 58, 80
2, 344153, Note_on_c, 0, 53, 0
2, 344153, Note_on_c, 0, 58, 0
2, 344280, Note_on_c, 0, 46, 80
2, 344280, Note_on_c, 0, 53, 80
2, 344393, Note_on_c, 0, 46, 0
2, 344393, Note_on_c, 0, 53, 0
2, 344400, Note_on_c, 0, 53, 80
2, 344400, Note_on_c, 0, 58, 80
2, 344513, Note_on_c, 0, 53, 0
2, 344513, Note_on_c, 0, 58, 0
2, 344640, Note_on_c, 0, 46, 80
2, 344640, Note_on_c, 0, 53, 80
2, 344867, Note_on_c, 0, 46, 0
2, 344867, Note_on_c, 0, 53, 0
2, 344880, Note_on_c, 0, 53, 80
2, 344880, Note_on_c, 0, 58, 80
2, 345107, Note_on_c, 0, 53, 0
2, 345107, Note_on_c, 0, 58, 0
2, 345120, Note_on_c, 0, 51, 96
2, 345120, Note_on_c, 0, 58, 96
2, 345120, Note_on_c, 0, 63, 96
2, 345359, Note_on_c, 0, 51, 0
2, 345359, Note_on_c, 0, 58, 0
2, 345359, Note_on_c, 0, 63, 0
2, 345360, Note_on_c, 0, 51, 80
2, 345473, Note_on_c, 0, 51, 0
2, 345480, Note_on_c, 0, 55, 80
2, 345480, Note_on_c, 0, 63, 80
2, 345593, Note_on_c, 0, 55, 0
2, 345593, Note_on_c, 0, 63, 0
2, 345720, Note_on_c, 0, 51, 80
2, 345720, Note_on_c, 0, 55, 80
2, 345833, Note_on_c, 0, 51, 0
2, 345833, Note_on_c, 0, 55, 0
2, 345840, Note_on_c, 0, 55, 80
2, 345840, Note_on_c, 0, 63, 80
2, 345953, Note_on_c, 0, 55, 0
2, 345953, Note_on_c, 0, 63, 0
2, 346080, Note_on_c, 0, 51, 80
2, 346080, Note_on_c, 0, 55, 80
2, 346307, Note_on_c, 0, 51, 0
2, 346307, Note_on_c, 0, 55, 0
2, 346320, Note_on_c, 0, 55, 80
2, 346320, Note_on_c, 0, 63, 80
2, 346547, Note_on_c, 0, 55, 0
2, 346547, Note_on_c, 0, 63, 0
2, 346560, Note_on_c, 0, 46, 96
2, 346560, Note_on_c, 0, 53, 96
2, 346560, Note_on_c, 0, 58, 96
2, 346799, Note_on_c, 0, 46, 0
2, 346799, Note_on_c, 0, 53, 0
2, 346799, Note_on_c, 0, 58, 0
2, 346800, Note_on_c, 0, 46, 80
2, 346913, Note_on_c, 0, 46, 0
2, 346920, Note_on_c, 0, 56, 80
2, 346920, Note_on_c, 0, 58, 80
2, 347033, Note_on_c, 0, 56, 0
2, 347033, Note_on_c, 0, 58, 0
2, 347160, Note_on_c, 0, 46, 80
2, 347160, Note_on_c, 0, 56, 80
2, 347273, Note_on_c, 0, 46, 0
2, 347273, Note_on_c, 0, 56, 0
2, 347280, Note_on_c, 0, 56, 80
2, 347280, Note_on_c, 0, 58, 80
2, 347393, Note_on_c, 0, 56, 0
2, 347393, Note_on_c, 0, 58, 0
2, 347520, Note_on_c, 0, 46, 80
2, 347520, Note_on_c, 0, 56, 80
2, 347747, Note_on_c, 0, 46, 0
2, 347747, Note_on_c, 0, 56, 0
2, 347760, Note_on_c, 0, 56, 80
2, 347760, Note_on_c, 0, 58, 80
2, 347987, Note_on_c, 0, 56, 0
2, 347987, Note_on_c, 0, 58, 0
2, 348000, Note_on_c, 0, 42, 80
2, 348000, Note_on_c, 0, 49, 80
2, 348000, Note_on_c, 0, 54, 80
2, 348227, Note_on_c, 0, 42, 0
2, 348227, Note_on_c, 0, 49, 0
2, 348227, Note_on_c, 0, 54, 0
2, 348240, Note_on_c, 0, 48, 80
2, 348467, Note_on_c, 0, 48, 0
2, 348480, Note_on_c, 0, 49, 80
2, 348707, Note_on_c, 0, 49, 0
2, 348720, Note_on_c, 0, 41, 80
2, 348720, Note_on_c, 0, 48, 80
2, 348720, Note_on_c, 0, 53, 80
2, 348947, Note_on_c, 0, 41, 0
2, 348947, Note_on_c, 0, 48, 0
2, 348947, Note_on_c, 0, 53, 0
2, 348960, Note_on_c, 0, 48, 80
2, 349187, Note_on_c, 0, 48, 0
2, 349200, Note_on_c, 0, 51, 80
2, 349427, Note_on_c, 0, 51, 0
2, 349440, Note_on_c, 0, 42, 96
2, 349440, Note_on_c, 0, 49, 96
2, 349440, Note_on_c, 0, 54, 96
2, 349679, Note_on_c, 0, 42, 0
2, 349679, Note_on_c, 0, 49, 0
2, 349679, Note_on_c, 0, 54, 0
2, 349680, Note_on_c, 0, 48, 80
2, 349907, Note_on_c, 0, 48, 0
2, 349920, Note_on_c, 0, 49, 80
2, 350147, Note_on_c, 0, 49, 0
2, 350160, Note_on_c, 0, 41, 96
2, 350160, Note_on_c, 0, 48, 96
2, 350160, Note_on_c, 0, 53, 96
2, 350399, Note_on_c, 0, 41, 0
2, 350399, Note_on_c, 0, 48, 0
2, 350399, Note_on_c, 0, 53, 0
2, 350400, Note_on_c, 0, 48, 80
2, 350627, Note_on_c, 0, 48, 0
2, 350640, Note_on_c, 0, 51, 80
2, 350867, Note_on_c, 0, 51, 0
2, 350880, Note_on_c, 0, 42, 96
2, 350880, Note_on_c, 0, 49, 96
2, 350880, Note_on_c, 0, 54, 96
2, 351119, Note_on_c, 0, 42, 0
2, 351119, Note_on_c, 0, 49, 0
2, 351119, Note_on_c, 0, 54, 0
2, 351120, Note_on_c, 0, 48, 80
2, 351347, Note_on_c, 0, 48, 0
2, 351360, Note_on_c, 0, 49, 80
2, 351587, Note_on_c, 0, 49, 0
2, 351600, Note_on_c, 0, 41, 96
2, 351600, Note_on_c, 0, 48, 96
2, 351600, Note_on_c, 0, 53, 96
2, 351839, Note_on_c, 0, 41, 0
2, 351839, Note_on_c, 0, 48, 0
2, 351839, Note_on_c, 0, 53, 0
2, 351840, Note_on_c, 0, 48, 80
2, 352067, Note_on_c, 0, 48, 0
2, 352080, Note_on_c, 0, 51, 80
2, 352307, Note_on_c, 0, 51, 0
2, 352320, Note_on_c, 0, 42, 96
2, 352320, Note_on_c, 0, 49, 96
2, 352320, Note_on_c, 0, 54, 96
2, 352559, Note_on_c, 0, 42, 0
2, 352559, Note_on_c, 0, 49, 0
2, 352559, Note_on_c, 0, 54, 0
2, 352560, Note_on_c, 0, 54, 80
2, 352679, Note_on_c, 0, 54, 0
2, 352800, Note_on_c, 0, 51, 80
2, 352919, Note_on_c, 0, 51, 0
2, 353040, Note_on_c, 0, 53, 80
2, 353159, Note_on_c, 0, 53, 0
2, 353760, Note_on_c, 0, 46, 80
2, 353873, Note_on_c, 0, 46, 0
2, 353880, Note_on_c, 0, 53, 80
2, 353993, Note_on_c, 0, 53, 0
2, 354000, Note_on_c, 0, 58, 80
2, 354113, Note_on_c, 0, 58, 0
2, 354120, Note_on_c, 0, 46, 80
2, 354233, Note_on_c, 0, 46, 0
2, 354240, Note_on_c, 0, 53, 80
2, 354353, Note_on_c, 0, 53, 0
2, 354360, Note_on_c, 0, 58, 80
2, 354473, Note_on_c, 0, 58, 0
2, 354480, Note_on_c, 0, 39, 80
2, 354599, Note_on_c, 0, 39, 0
2, 354720, Note_on_c, 0, 41, 80
2, 354947, Note_on_c, 0, 41, 0
2, 354960, Note_on_c, 0, 41, 80
2, 355187, Note_on_c, 0, 41, 0
2, 355200, Note_on_c, 0, 46, 80
2, 355313, Note_on_c, 0, 46, 0
2, 355320, Note_on_c, 0, 53, 80
2, 355433, Note_on_c, 0, 53, 0
2, 355440, Note_on_c, 0, 58, 80
2, 355553, Note_on_c, 0, 58, 0
2, 355560, Note_on_c, 0, 46, 80
2, 355673, Note_on_c, 0, 46, 0
2, 355680, Note_on_c, 0, 53, 80
2, 355793, Note_on_c, 0, 53, 0
2, 355800, Note_on_c, 0, 58, 80
2, 355913, Note_on_c, 0, 58, 0
2, 355920, Note_on_c, 0, 39, 80
2, 356039, Note_on_c, 0, 39, 0
2, 356160, Note_on_c, 0, 41, 80
2, 356387, Note_on_c, 0, 41, 0
2, 356400, Note_on_c, 0, 41, 80
2, 356627, Note_on_c, 0, 41, 0
2, 356640, Note_on_c, 0, 46, 80
2, 356753, Note_on_c, 0, 46, 0
2, 356760, Note_on_c, 0, 53, 80
2, 356873, Note_on_c, 0, 53, 0
2, 356880, Note_on_c, 0, 58, 80
2, 356993, Note_on_c, 0, 58, 0
2, 357000, Note_on_c, 0, 46, 80
2, 357113, Note_on_c, 0, 46, 0
2, 357120, Note_on_c, 0, 53, 80
2, 357233, Note_on_c, 0, 53, 0
2, 357240, Note_on_c, 0, 58, 80
2, 357299, Note_on_c, 0, 58, 0
2, 357360, Note_on_c, 0, 39, 80
2, 357473, Note_on_c, 0, 39, 0
2, 357480, Note_on_c, 0, 46, 80
2, 357593, Note_on_c, 0, 46, 0
2, 357600, Note_on_c, 0, 51, 80
2, 357713, Note_on_c, 0, 51, 0
2, 357720, Note_on_c, 0, 39, 80
2, 357833, Note_on_c, 0, 39, 0
2, 357840, Note_on_c, 0, 46, 80
2, 357953, Note_on_c, 0, 46, 0
2, 357960, Note_on_c, 0, 51, 80
2, 358073, Note_on_c, 0, 51, 0
2, 358080, Note_on_c, 0, 41, 80
2, 358193, Note_on_c, 0, 41, 0
2, 358200, Note_on_c, 0, 48, 80
2, 358313, Note_on_c, 0, 48, 0
2, 358320, Note_on_c, 0, 53, 80
2, 358433, Note_on_c, 0, 53, 0
2, 358440, Note_on_c, 0, 39, 80
2, 358667, Note_on_c, 0, 39, 0
2, 358680, Note_on_c, 0, 41, 80
2, 358793, Note_on_c, 0, 41, 0
2, 358800, Note_on_c, 0, 42, 80
2, 359141, Note_on_c, 0, 42, 0
2, 359160, Note_on_c, 0, 42, 80
2, 359501, Note_on_c, 0, 42, 0
2, 359520, Note_on_c, 0, 46, 96
2, 359520, Note_on_c, 0, 58, 96
2, 359999, Note_on_c, 0, 46, 0
2, 359999, Note_on_c, 0, 58, 0
2, 360240, Note_on_c, 0, 41, 80
2, 360240, Note_on_c, 0, 53, 80
2, 360467, Note_on_c, 0, 41, 0
2, 360467, Note_on_c, 0, 53, 0
2, 360480, Note_on_c, 0, 69, 80
2, 360593, Note_on_c, 0, 69, 0
2, 360600, Note_on_c, 0, 70, 80
2, 360713, Note_on_c, 0, 70, 0
2, 360720, Note_on_c, 0, 69, 80
2, 360833, Note_on_c, 0, 69, 0
2, 360840, Note_on_c, 0, 70, 80
2, 360953, Note_on_c, 0, 70, 0
2, 360960, Note_on_c, 0, 42, 80
2, 360960, Note_on_c, 0, 54, 80
2, 361187, Note_on_c, 0, 42, 0
2, 361187, Note_on_c, 0, 54, 0
2, 361200, Note_on_c, 0, 58, 80
2, 361313, Note_on_c, 0, 58, 0
2, 361320, Note_on_c, 0, 42, 80
2, 361320, Note_on_c, 0, 54, 80
2, 361547, Note_on_c, 0, 42, 0
2, 361547, Note_on_c, 0, 54, 0
2, 361560, Note_on_c, 0, 58, 80
2, 361673, Note_on_c, 0, 58, 0
2, 361680, Note_on_c, 0, 44, 80
2, 361680, Note_on_c, 0, 51, 80
2, 361680, Note_on_c, 0, 56, 80
2, 361799, Note_on_c, 0, 44, 0
2, 361799, Note_on_c, 0, 51, 0
2, 361799, Note_on_c, 0, 56, 0
2, 361920, Note_on_c, 0, 44, 80
2, 361920, Note_on_c, 0, 51, 80
2, 361920, Note_on_c, 0, 56, 80
2, 362039, Note_on_c, 0, 44, 0
2, 362039, Note_on_c, 0, 51, 0
2, 362039, Note_on_c, 0, 56, 0
2, 362160, Note_on_c, 0, 44, 80
2, 362160, Note_on_c, 0, 56, 80
2, 362279, Note_on_c, 0, 44, 0
2, 362279, Note_on_c, 0, 56, 0
2, 362400, Note_on_c, 0, 46, 96
2, 362400, Note_on_c, 0, 58, 96
2, 362879, Note_on_c, 0, 46, 0
2, 362879, Note_on_c, 0, 58, 0
2, 363120, Note_on_c, 0, 41, 80
2, 363120, Note_on_c, 0, 53, 80
2, 363347, Note_on_c, 0, 41, 0
2, 363347, Note_on_c, 0, 53, 0
2, 363360, Note_on_c, 0, 69, 80
2, 363473, Note_on_c, 0, 69, 0
2, 363480, Note_on_c, 0, 70, 80
2, 363593, Note_on_c, 0, 70, 0
2, 363600, Note_on_c, 0, 69, 80
2, 363713, Note_on_c, 0, 69, 0
2, 363720, Note_on_c, 0, 72, 80
2, 363833, Note_on_c, 0, 72, 0
2, 363840, Note_on_c, 0, 42, 80
2, 363840, Note_on_c, 0, 54, 80
2, 364067, Note_on_c, 0, 42, 0
2, 364067, Note_on_c, 0, 54, 0
2, 364080, Note_on_c, 0, 58, 80
2, 364193, Note_on_c, 0, 58, 0
2, 364200, Note_on_c, 0, 42, 80
2, 364200, Note_on_c, 0, 54, 80
2, 364427, Note_on_c, 0, 42, 0
2, 364427, Note_on_c, 0, 54, 0
2, 364440, Note_on_c, 0, 58, 80
2, 364553, Note_on_c, 0, 58, 0
2, 364560, Note_on_c, 0, 44, 80
2, 364560, Note_on_c, 0, 51, 80
2, 364560, Note_on_c, 0, 56, 80
2, 365243, Note_on_c, 0, 44, 0
2, 365243, Note_on_c, 0, 51, 0
2, 365243, Note_on_c, 0, 56, 0
2, 365280, Note_on_c, 0, 41, 80
2, 365280, Note_on_c, 0, 48, 80
2, 365280, Note_on_c, 0, 53, 80
2, 367103, Note_on_c, 0, 41, 0
2, 367103, Note_on_c, 0, 48, 0
2, 367103, Note_on_c, 0, 53, 0
2, 367200, Note_on_c, 0, 41, 80
2, 368567, Note_on_c, 0, 41, 0
2, 368640, Note_on_c, 0, 39, 80
2, 369095, Note_on_c, 0, 39, 0
2, 369120, Note_on_c, 0, 41, 80
2, 369120, Note_on_c, 0, 48, 80
2, 369120, Note_on_c, 0, 53, 80
2, 370943, Note_on_c, 0, 41, 0
2, 370943, Note_on_c, 0, 48, 0
2, 370943, Note_on_c, 0, 53, 0
2, 371040, Note_on_c, 0, 41, 80
2, 372407, Note_on_c, 0, 41, 0
2, 372480, Note_on_c, 0, 34, 80
2, 372599, Note_on_c, 0, 34, 0
2, 372600, Note_on_c, 0, 36, 80
2, 372713, Note_on_c, 0, 36, 0
2, 372720, Note_on_c, 0, 37, 80
2, 372833, Note_on_c, 0, 37, 0
2, 372840, Note_on_c, 0, 39, 80
2, 372953, Note_on_c, 0, 39, 0
2, 372960, Note_on_c, 0, 41, 80
2, 373073, Note_on_c, 0, 41, 0
2, 373080, Note_on_c, 0, 41, 80
2, 373307, Note_on_c, 0, 41, 0
2, 373320, Note_on_c, 0, 36, 80
2, 373433, Note_on_c, 0, 36, 0
2, 373440, Note_on_c, 0, 36, 80
2, 373667, Note_on_c, 0, 36, 0
2, 373680, Note_on_c, 0, 41, 80
2, 374021, Note_on_c, 0, 41, 0
2, 374040, Note_on_c, 0, 36, 80
2, 374153, Note_on_c, 0, 36, 0
2, 374160, Note_on_c, 0, 39, 80
2, 374273, Note_on_c, 0, 39, 0
2, 374280, Note_on_c, 0, 41, 80
2, 374393, Note_on_c, 0, 41, 0
2, 374400, Note_on_c, 0, 44, 80
2, 374513, Note_on_c, 0, 44, 0
2, 374520, Note_on_c, 0, 43, 80
2, 374633, Note_on_c, 0, 43, 0
2, 374640, Note_on_c, 0, 41, 80
2, 374753, Note_on_c, 0, 41, 0
2, 374760, Note_on_c, 0, 39, 80
2, 374873, Note_on_c, 0, 39, 0
2, 374880, Note_on_c, 0, 37, 80
2, 374993, Note_on_c, 0, 37, 0
2, 375000, Note_on_c, 0, 37, 80
2, 375227, Note_on_c, 0, 37, 0
2, 375240, Note_on_c, 0, 44, 80
2, 375353, Note_on_c, 0, 44, 0
2, 375360, Note_on_c, 0, 44, 80
2, 375587, Note_on_c, 0, 44, 0
2, 375600, Note_on_c, 0, 39, 80
2, 375941, Note_on_c, 0, 39, 0
2, 375960, Note_on_c, 0, 37, 80
2, 376073, Note_on_c, 0, 37, 0
2, 376080, Note_on_c, 0, 39, 80
2, 376193, Note_on_c, 0, 39, 0
2, 376200, Note_on_c, 0, 41, 80
2, 376313, Note_on_c, 0, 41, 0
2, 376320, Note_on_c, 0, 44, 80
2, 376433, Note_on_c, 0, 44, 0
2, 376440, Note_on_c, 0, 43, 80
2, 376553, Note_on_c, 0, 43, 0
2, 376560, Note_on_c, 0, 41, 80
2, 376673, Note_on_c, 0, 41, 0
2, 376680, Note_on_c, 0, 39, 80
2, 376793, Note_on_c, 0, 39, 0
2, 376800, Note_on_c, 0, 41, 80
2, 376913, Note_on_c, 0, 41, 0
2, 376920, Note_on_c, 0, 41, 80
2, 377147, Note_on_c, 0, 41, 0
2, 377160, Note_on_c, 0, 36, 80
2, 377273, Note_on_c, 0, 36, 0
2, 377280, Note_on_c, 0, 36, 80
2, 377507, Note_on_c, 0, 36, 0
2, 377520, Note_on_c, 0, 41, 80
2, 377861, Note_on_c, 0, 41, 0
2, 377880, Note_on_c, 0, 36, 80
2, 377993, Note_on_c, 0, 36, 0
2, 378000, Note_on_c, 0, 39, 80
2, 378113, Note_on_c, 0, 39, 0
2, 378120, Note_on_c, 0, 41, 80
2, 378233, Note_on_c, 0, 41, 0
2, 378240, Note_on_c, 0, 44, 80
2, 378353, Note_on_c, 0, 44, 0
2, 378360, Note_on_c, 0, 43, 80
2, 378473, Note_on_c, 0, 43, 0
2, 378480, Note_on_c, 0, 41, 80
2, 378593, Note_on_c, 0, 41, 0
2, 378600, Note_on_c, 0, 39, 80
2, 378713, Note_on_c, 0, 39, 0
2, 378720, Note_on_c, 0, 37, 80
2, 378833, Note_on_c, 0, 37, 0
2, 378840, Note_on_c, 0, 37, 80
2, 379067, Note_on_c, 0, 37, 0
2, 379080, Note_on_c, 0, 44, 80
2, 379193, Note_on_c, 0, 44, 0
2, 379200, Note_on_c, 0, 44, 80
2, 379427, Note_on_c, 0, 44, 0
2, 379440, Note_on_c, 0, 39, 80
2, 379781, Note_on_c, 0, 39, 0
2, 379800, Note_on_c, 0, 37, 80
2, 379913, Note_on_c, 0, 37, 0
2, 379920, Note_on_c, 0, 39, 80
2, 380033, Note_on_c, 0, 39, 0
2, 380040, Note_on_c, 0, 41, 80
2, 380153, Note_on_c, 0, 41, 0
2, 380160, Note_on_c, 0, 44, 80
2, 380273, Note_on_c, 0, 44, 0
2, 380280, Note_on_c, 0, 43, 80
2, 380393, Note_on_c, 0, 43, 0
2, 380400, Note_on_c, 0, 41, 80
2, 380513, Note_on_c, 0, 41, 0
2, 380520, Note_on_c, 0, 39, 80
2, 380633, Note_on_c, 0, 39, 0
2, 380640, Note_on_c, 0, 41, 80
2, 380753, Note_on_c, 0, 41, 0
2, 380760, Note_on_c, 0, 41, 80
2, 380987, Note_on_c, 0, 41, 0
2, 381000, Note_on_c, 0, 36, 80
2, 381113, Note_on_c, 0, 36, 0
2, 381120, Note_on_c, 0, 36, 80
2, 381347, Note_on_c, 0, 36, 0
2, 381360, Note_on_c, 0, 41, 80
2, 381701, Note_on_c, 0, 41, 0
2, 381720, Note_on_c, 0, 36, 80
2, 381833, Note_on_c, 0, 36, 0
2, 381840, Note_on_c, 0, 39, 80
2, 381953, Note_on_c, 0, 39, 0
2, 381960, Note_on_c, 0, 41, 80
2, 382073, Note_on_c, 0, 41, 0
2, 382080, Note_on_c, 0, 44, 80
2, 382193, Note_on_c, 0, 44, 0
2, 382200, Note_on_c, 0, 43, 80
2, 382313, Note_on_c, 0, 43, 0
2, 382320, Note_on_c, 0, 41, 80
2, 382433, Note_on_c, 0, 41, 0
2, 382440, Note_on_c, 0, 39, 80
2, 382553, Note_on_c, 0, 39, 0
2, 382560, Note_on_c, 0, 37, 80
2, 382673, Note_on_c, 0, 37, 0
2, 382680, Note_on_c, 0, 37, 80
2, 382907, Note_on_c, 0, 37, 0
2, 382920, Note_on_c, 0, 44, 80
2, 383033, Note_on_c, 0, 44, 0
2, 383040, Note_on_c, 0, 44, 80
2, 383267, Note_on_c, 0, 44, 0
2, 383280, Note_on_c, 0, 39, 80
2, 383621, Note_on_c, 0, 39, 0
2, 383640, Note_on_c, 0, 37, 80
2, 383753, Note_on_c, 0, 37, 0
2, 383760, Note_on_c, 0, 39, 80
2, 383873, Note_on_c, 0, 39, 0
2, 383880, Note_on_c, 0, 41, 80
2, 383993, Note_on_c, 0, 41, 0
2, 384000, Note_on_c, 0, 44, 80
2, 384113, Note_on_c, 0, 44, 0
2, 384120, Note_on_c, 0, 43, 80
2, 384233, Note_on_c, 0, 43, 0
2, 384240, Note_on_c, 0, 41, 80
2, 384353, Note_on_c, 0, 41, 0
2, 384360, Note_on_c, 0, 39, 80
2, 384473, Note_on_c, 0, 39, 0
2, 384480, Note_on_c, 0, 41, 80
2, 384593, Note_on_c, 0, 41, 0
2, 384600, Note_on_c, 0, 41, 80
2, 384827, Note_on_c, 0, 41, 0
2, 384840, Note_on_c, 0, 36, 80
2, 384953, Note_on_c, 0, 36, 0
2, 384960, Note_on_c, 0, 36, 80
2, 385187, Note_on_c, 0, 36, 0
2, 385200, Note_on_c, 0, 41, 80
2, 385541, Note_on_c, 0, 41, 0
2, 385560, Note_on_c, 0, 36, 80
2, 385673, Note_on_c, 0, 36, 0
2, 385680, Note_on_c, 0, 39, 80
2, 385793, Note_on_c, 0, 39, 0
2, 385800, Note_on_c, 0, 41, 80
2, 385913, Note_on_c, 0, 41, 0
2, 385920, Note_on_c, 0, 44, 80
2, 386033, Note_on_c, 0, 44, 0
2, 386040, Note_on_c, 0, 43, 80
2, 386153, Note_on_c, 0, 43, 0
2, 386160, Note_on_c, 0, 41, 80
2, 386273, Note_on_c, 0, 41, 0
2, 386280, Note_on_c, 0, 39, 80
2, 386393, Note_on_c, 0, 39, 0
2, 386400, Note_on_c, 0, 37, 80
2, 386513, Note_on_c, 0, 37, 0
2, 386520, Note_on_c, 0, 37, 80
2, 386747, Note_on_c, 0, 37, 0
2, 386760, Note_on_c, 0, 44, 80
2, 386873, Note_on_c, 0, 44, 0
2, 386880, Note_on_c, 0, 44, 80
2, 387107, Note_on_c, 0, 44, 0
2, 387120, Note_on_c, 0, 39, 80
2, 387461, Note_on_c, 0, 39, 0
2, 387480, Note_on_c, 0, 37, 80
2, 387593, Note_on_c, 0, 37, 0
2, 387600, Note_on_c, 0, 39, 80
2, 387713, Note_on_c, 0, 39, 0
2, 387720, Note_on_c, 0, 41, 80
2, 387833, Note_on_c, 0, 41, 0
2, 387840, Note_on_c, 0, 44, 80
2, 387953, Note_on_c, 0, 44, 0
2, 387960, Note_on_c, 0, 43, 80
2, 388073, Note_on_c, 0, 43, 0
2, 388080, Note_on_c, 0, 41, 80
2, 388193, Note_on_c, 0, 41, 0
2, 388200, Note_on_c, 0, 39, 80
2, 388313, Note_on_c, 0, 39, 0
2, 388320, Note_on_c, 0, 41, 80
2, 388433, Note_on_c, 0, 41, 0
2, 388440, Note_on_c, 0, 41, 80
2, 388667, Note_on_c, 0, 41, 0
2, 388680, Note_on_c, 0, 36, 80
2, 388793, Note_on_c, 0, 36, 0
2, 388800, Note_on_c, 0, 36, 80
2, 389027, Note_on_c, 0, 36, 0
2, 389040, Note_on_c, 0, 41, 80
2, 389381, Note_on_c, 0, 41, 0
2, 389400, Note_on_c, 0, 36, 80
2, 389513, Note_on_c, 0, 36, 0
2, 389520, Note_on_c, 0, 39, 80
2, 389633, Note_on_c, 0, 39, 0
2, 389640, Note_on_c, 0, 41, 80
2, 389753, Note_on_c, 0, 41, 0
2, 389760, Note_on_c, 0, 44, 80
2, 389873, Note_on_c, 0, 44, 0
2, 389880, Note_on_c, 0, 43, 80
2, 389993, Note_on_c, 0, 43, 0
2, 390000, Note_on_c, 0, 41, 80
2, 390113, Note_on_c, 0, 41, 0
2, 390120, Note_on_c, 0, 39, 80
2, 390233, Note_on_c, 0, 39, 0
2, 390240, Note_on_c, 0, 37, 80
2, 390581, Note_on_c, 0, 37, 0
2, 390600, Note_on_c, 0, 44, 80
2, 390941, Note_on_c, 0, 44, 0
2, 390960, Note_on_c, 0, 39, 80
2, 392099, Note_on_c, 0, 39, 0
2, 392160, Note_on_c, 0, 49, 64
2, 392223, Note_on_c, 0, 51, 64
2, 392286, Note_on_c, 0, 56, 64
2, 393598, Note_on_c, 0, 51, 0
2, 393598, Note_on_c, 0, 56, 0
2, 393599, Note_on_c, 0, 49, 0
2, 393600, Note_on_c, 0, 46, 64
2, 393663, Note_on_c, 0, 51, 64
2, 393726, Note_on_c, 0, 53, 64
2, 395038, Note_on_c, 0, 51, 0
2, 395038, Note_on_c, 0, 53, 0
2, 395039, Note_on_c, 0, 46, 0
2, 395040, Note_on_c, 0, 41, 64
2, 395103, Note_on_c, 0, 46, 64
2, 395166, Note_on_c, 0, 51, 64
2, 396478, Note_on_c, 0, 46, 0
2, 396478, Note_on_c, 0, 51, 0
2, 396479, Note_on_c, 0, 41, 0
2, 396480, Note_on_c, 0, 41, 64
2, 396543, Note_on_c, 0, 44, 64
2, 396607, Note_on_c, 0, 51, 64
2, 397438, Note_on_c, 0, 44, 0
2, 397438, Note_on_c, 0, 51, 0
2, 397439, Note_on_c, 0, 41, 0
2, 397440, Note_on_c, 0, 43, 64
2, 397895, Note_on_c, 0, 43, 0
2, 397920, Note_on_c, 0, 49, 64
2, 397983, Note_on_c, 0, 51, 64
2, 398046, Note_on_c, 0, 56, 64
2, 399358, Note_on_c, 0, 51, 0
2, 399358, Note_on_c, 0, 56, 0
2, 399359, Note_on_c, 0, 49, 0
2, 399360, Note_on_c, 0, 46, 64
2, 399423, Note_on_c, 0, 51, 64
2, 399486, Note_on_c, 0, 53, 64
2, 400798, Note_on_c, 0, 51, 0
2, 400798, Note_on_c, 0, 53, 0
2, 400799, Note_on_c, 0, 46, 0
2, 400800, Note_on_c, 0, 46, 64
2, 400863, Note_on_c, 0, 48, 64
2, 400926, Note_on_c, 0, 55, 64
2, 402238, Note_on_c, 0, 48, 0
2, 402238, Note_on_c, 0, 55, 0
2, 402239, Note_on_c, 0, 46, 0
2, 402240, Note_on_c, 0, 48, 64
2, 402303, Note_on_c, 0, 53, 64
2, 402367, Note_on_c, 0, 56, 64
2, 402718, Note_on_c, 0, 53, 0
2, 402718, Note_on_c, 0, 56, 0
2, 402719, Note_on_c, 0, 48, 0
2, 402720, Note_on_c, 0, 55, 64
2, 403175, Note_on_c, 0, 55, 0
2, 403200, Note_on_c, 0, 51, 64
2, 403655, Note_on_c, 0, 51, 0
2, 403680, Note_on_c, 0, 37, 80
2, 403907, Note_on_c, 0, 37, 0
2, 403920, Note_on_c, 0, 44, 80
2, 404033, Note_on_c, 0, 44, 0
2, 404040, Note_on_c, 0, 48, 80
2, 404153, Note_on_c, 0, 48, 0
2, 404160, Note_on_c, 0, 39, 80
2, 404387, Note_on_c, 0, 39, 0
2, 404400, Note_on_c, 0, 48, 80
2, 404513, Note_on_c, 0, 48, 0
2, 404520, Note_on_c, 0, 46, 80
2, 404633, Note_on_c, 0, 46, 0
2, 404640, Note_on_c, 0, 44, 80
2, 404867, Note_on_c, 0, 44, 0
2, 404880, Note_on_c, 0, 48, 80
2, 404993, Note_on_c, 0, 48, 0
2, 405000, Note_on_c, 0, 43, 80
2, 405113, Note_on_c, 0, 43, 0
2, 405120, Note_on_c, 0, 39, 80
2, 405347, Note_on_c, 0, 39, 0
2, 405360, Note_on_c, 0, 44, 80
2, 405473, Note_on_c, 0, 44, 0
2, 405480, Note_on_c, 0, 48, 80
2, 405593, Note_on_c, 0, 48, 0
2, 405600, Note_on_c, 0, 41, 80
2, 405827, Note_on_c, 0, 41, 0
2, 405840, Note_on_c, 0, 48, 80
2, 405953, Note_on_c, 0, 48, 0
2, 405960, Note_on_c, 0, 44, 80
2, 406073, Note_on_c, 0, 44, 0
2, 406080, Note_on_c, 0, 46, 80
2, 406307, Note_on_c, 0, 46, 0
2, 406320, Note_on_c, 0, 48, 80
2, 406433, Note_on_c, 0, 48, 0
2, 406440, Note_on_c, 0, 43, 80
2, 406553, Note_on_c, 0, 43, 0
2, 406560, Note_on_c, 0, 41, 80
2, 406787, Note_on_c, 0, 41, 0
2, 406800, Note_on_c, 0, 44, 80
2, 406913, Note_on_c, 0, 44, 0
2, 406920, Note_on_c, 0, 48, 80
2, 407033, Note_on_c, 0, 48, 0
2, 407040, Note_on_c, 0, 46, 80
2, 407267, Note_on_c, 0, 46, 0
2, 407280, Note_on_c, 0, 48, 80
2, 407393, Note_on_c, 0, 48, 0
2, 407400, Note_on_c, 0, 44, 80
2, 407513, Note_on_c, 0, 44, 0
2, 407520, Note_on_c, 0, 39, 80
2, 407747, Note_on_c, 0, 39, 0
2, 407760, Note_on_c, 0, 48, 80
2, 407873, Note_on_c, 0, 48, 0
2, 407880, Note_on_c, 0, 43, 80
2, 407993, Note_on_c, 0, 43, 0
2, 408000, Note_on_c, 0, 41, 80
2, 408227, Note_on_c, 0, 41, 0
2, 408240, Note_on_c, 0, 44, 80
2, 408353, Note_on_c, 0, 44, 0
2, 408360, Note_on_c, 0, 48, 80
2, 408473, Note_on_c, 0, 48, 0
2, 408480, Note_on_c, 0, 44, 80
2, 408707, Note_on_c, 0, 44, 0
2, 408720, Note_on_c, 0, 48, 80
2, 408833, Note_on_c, 0, 48, 0
2, 408840, Note_on_c, 0, 44, 80
2, 408953, Note_on_c, 0, 44, 0
2, 408960, Note_on_c, 0, 39, 80
2, 409187, Note_on_c, 0, 39, 0
2, 409200, Note_on_c, 0, 48, 80
2, 409313, Note_on_c, 0, 48, 0
2, 409320, Note_on_c, 0, 43, 80
2, 409433, Note_on_c, 0, 43, 0
2, 409440, Note_on_c, 0, 37, 80
2, 409667, Note_on_c, 0, 37, 0
2, 409680, Note_on_c, 0, 44, 80
2, 409793, Note_on_c, 0, 44, 0
2, 409800, Note_on_c, 0, 48, 80
2, 409913, Note_on_c, 0, 48, 0
2, 409920, Note_on_c, 0, 39, 80
2, 410147, Note_on_c, 0, 39, 0
2, 410160, Note_on_c, 0, 48, 80
2, 410273, Note_on_c, 0, 48, 0
2, 410280, Note_on_c, 0, 46, 80
2, 410393, Note_on_c, 0, 46, 0
2, 410400, Note_on_c, 0, 44, 80
2, 410627, Note_on_c, 0, 44, 0
2, 410640, Note_on_c, 0, 48, 80
2, 410753, Note_on_c, 0, 48, 0
2, 410760, Note_on_c, 0, 43, 80
2, 410873, Note_on_c, 0, 43, 0
2, 410880, Note_on_c, 0, 39, 80
2, 411107, Note_on_c, 0, 39, 0
2, 411120, Note_on_c, 0, 44, 80
2, 411233, Note_on_c, 0, 44, 0
2, 411240, Note_on_c, 0, 48, 80
2, 411353, Note_on_c, 0, 48, 0
2, 411360, Note_on_c, 0, 41, 80
2, 411587, Note_on_c, 0, 41, 0
2, 411600, Note_on_c, 0, 48, 80
2, 411713, Note_on_c, 0, 48, 0
2, 411720, Note_on_c, 0, 44, 80
2, 411833, Note_on_c, 0, 44, 0
2, 411840, Note_on_c, 0, 46, 80
2, 412067, Note_on_c, 0, 46, 0
2, 412080, Note_on_c, 0, 48, 80
2, 412193, Note_on_c, 0, 48, 0
2, 412200, Note_on_c, 0, 43, 80
2, 412313, Note_on_c, 0, 43, 0
2, 412320, Note_on_c, 0, 41, 80
2, 412547, Note_on_c, 0, 41, 0
2, 412560, Note_on_c, 0, 44, 80
2, 412673, Note_on_c, 0, 44, 0
2, 412680, Note_on_c, 0, 48, 80
2, 412793, Note_on_c, 0, 48, 0
2, 412800, Note_on_c, 0, 41, 80
2, 413027, Note_on_c, 0, 41, 0
2, 413040, Note_on_c, 0, 48, 80
2, 413153, Note_on_c, 0, 48, 0
2, 413160, Note_on_c, 0, 44, 80
2, 413273, Note_on_c, 0, 44, 0
2, 413280, Note_on_c, 0, 41, 80
2, 413507, Note_on_c, 0, 41, 0
2, 413520, Note_on_c, 0, 48, 80
2, 413633, Note_on_c, 0, 48, 0
2, 413640, Note_on_c, 0, 43, 80
2, 413753, Note_on_c, 0, 43, 0
2, 413760, Note_on_c, 0, 41, 80
2, 413987, Note_on_c, 0, 41, 0
2, 414000, Note_on_c, 0, 45, 80
2, 414113, Note_on_c, 0, 45, 0
2, 414120, Note_on_c, 0, 48, 80
2, 414233, Note_on_c, 0, 48, 0
2, 414240, Note_on_c, 0, 41, 80
2, 414467, Note_on_c, 0, 41, 0
2, 414480, Note_on_c, 0, 45, 80
2, 414593, Note_on_c, 0, 45, 0
2, 414600, Note_on_c, 0, 48, 80
2, 414713, Note_on_c, 0, 48, 0
2, 414720, Note_on_c, 0, 41, 80
2, 414947, Note_on_c, 0, 41, 0
2, 414960, Note_on_c, 0, 45, 80
2, 415073, Note_on_c, 0, 45, 0
2, 415080, Note_on_c, 0, 48, 80
2, 415193, Note_on_c, 0, 48, 0
2, 415200, Note_on_c, 0, 41, 80
2, 416567, Note_on_c, 0, 41, 0
2, 416640, Key_signature, -5, "major"
2, 424320, Note_on_c, 0, 27, 96
2, 424320, Note_on_c, 0, 39, 96
2, 428159, Note_on_c, 0, 27, 0
2, 428159, Note_on_c, 0, 39, 0
2, 428160, Note_on_c, 0, 30, 96
2, 428160, Note_on_c, 0, 42, 96
2, 430079, Note_on_c, 0, 30, 0
2, 430079, Note_on_c, 0, 42, 0
2, 430080, Note_on_c, 0, 32, 96
2, 430080, Note_on_c, 0, 44, 96
2, 431999, Note_on_c, 0, 32, 0
2, 431999, Note_on_c, 0, 44, 0
2, 432000, Note_on_c, 0, 29, 96
2, 432000, Note_on_c, 0, 41, 96
2, 433919, Note_on_c, 0, 29, 0
2, 433919, Note_on_c, 0, 41, 0
2, 435360, Note_on_c, 0, 27, 96
2, 435360, Note_on_c, 0, 39, 96
2, 435839, Note_on_c, 0, 27, 0
2, 435839, Note_on_c, 0, 39, 0
2, 435840, Note_on_c, 0, 29, 96
2, 435840, Note_on_c, 0, 41, 96
2, 437759, Note_on_c, 0, 29, 0
2, 437759, Note_on_c, 0, 41, 0
2, 438240, Note_on_c, 0, 27, 96
2, 438240, Note_on_c, 0, 39, 96
2, 438719, Note_on_c, 0, 27, 0
2, 438719, Note_on_c, 0, 39, 0
2, 438720, Note_on_c, 0, 29, 96
2, 438720, Note_on_c, 0, 41, 96
2, 439199, Note_on_c, 0, 29, 0
2, 439199, Note_on_c, 0, 41, 0
2, 439200, Note_on_c, 0, 32, 96
2, 439200, Note_on_c, 0, 44, 96
2, 439679, Note_on_c, 0, 32, 0
2, 439679, Note_on_c, 0, 44, 0
2, 439680, Note_on_c, 0, 27, 80
2, 439680, Note_on_c, 0, 39, 80
2, 443327, Note_on_c, 0, 27, 0
2, 443327, Note_on_c, 0, 39, 0
2, 443520, Note_on_c, 0, 30, 80
2, 443520, Note_on_c, 0, 42, 80
2, 445343, Note_on_c, 0, 30, 0
2, 445343, Note_on_c, 0, 42, 0
2, 445440, Note_on_c, 0, 32, 80
2, 445440, Note_on_c, 0, 44, 80
2, 447263, Note_on_c, 0, 32, 0
2, 447263, Note_on_c, 0, 44, 0
2, 447360, Note_on_c, 0, 29, 80
2, 447360, Note_on_c, 0, 41, 80
2, 449183, Note_on_c, 0, 29, 0
2, 449183, Note_on_c, 0, 41, 0
2, 450720, Note_on_c, 0, 27, 80
2, 450720, Note_on_c, 0, 39, 80
2, 451175, Note_on_c, 0, 27, 0
2, 451175, Note_on_c, 0, 39, 0
2, 451200, Note_on_c, 0, 29, 96
2, 451200, Note_on_c, 0, 41, 96
2, 453119, Note_on_c, 0, 29, 0
2, 453119, Note_on_c, 0, 41, 0
2, 453120, Note_on_c, 0, 29, 80
2, 453120, Note_on_c, 0, 41, 80
2, 453575, Note_on_c, 0, 29, 0
2, 453575, Note_on_c, 0, 41, 0
2, 453600, Note_on_c, 0, 27, 96
2, 453600, Note_on_c, 0, 39, 96
2, 454079, Note_on_c, 0, 27, 0
2, 454079, Note_on_c, 0, 39, 0
2, 454080, Note_on_c, 0, 29, 96
2, 454080, Note_on_c, 0, 41, 96
2, 454559, Note_on_c, 0, 29, 0
2, 454559, Note_on_c, 0, 41, 0
2, 454560, Note_on_c, 0, 32, 96
2, 454560, Note_on_c, 0, 44, 96
2, 455039, Note_on_c, 0, 32, 0
2, 455039, Note_on_c, 0, 44, 0
2, 455040, Note_on_c, 0, 27, 80
2, 455040, Note_on_c, 0, 39, 80
2, 455360, Note_on_c, 0, 27, 0
2, 455360, Note_on_c, 0, 39, 0
2, 455520, Note_on_c, 0, 27, 80
2, 455520, Note_on_c, 0, 39, 80
2, 455840, Note_on_c, 0, 27, 0
2, 455840, Note_on_c, 0, 39, 0
2, 456000, Note_on_c, 0, 27, 80
2, 456000, Note_on_c, 0, 39, 80
2, 456320, Note_on_c, 0, 27, 0
2, 456320, Note_on_c, 0, 39, 0
2, 456480, Note_on_c, 0, 27, 80
2, 456480, Note_on_c, 0, 39, 80
2, 456800, Note_on_c, 0, 27, 0
2, 456800, Note_on_c, 0, 39, 0
2, 456960, Note_on_c, 0, 27, 80
2, 456960, Note_on_c, 0, 39, 80
2, 457280, Note_on_c, 0, 27, 0
2, 457280, Note_on_c, 0, 39, 0
2, 457440, Note_on_c, 0, 27, 80
2, 457440, Note_on_c, 0, 39, 80
2, 457760, Note_on_c, 0, 27, 0
2, 457760, Note_on_c, 0, 39, 0
2, 457920, Note_on_c, 0, 27, 80
2, 457920, Note_on_c, 0, 39, 80
2, 458240, Note_on_c, 0, 27, 0
2, 458240, Note_on_c, 0, 39, 0
2, 458400, Note_on_c, 0, 27, 80
2, 458400, Note_on_c, 0, 39, 80
2, 458513, Note_on_c, 0, 27, 0
2, 458513, Note_on_c, 0, 39, 0
2, 458520, Note_on_c, 0, 27, 80
2, 458520, Note_on_c, 0, 39, 80
2, 458633, Note_on_c, 0, 27, 0
2, 458633, Note_on_c, 0, 39, 0
2, 458640, Note_on_c, 0, 27, 80
2, 458640, Note_on_c, 0, 39, 80
2, 458753, Note_on_c, 0, 27, 0
2, 458753, Note_on_c, 0, 39, 0
2, 458760, Note_on_c, 0, 27, 80
2, 458760, Note_on_c, 0, 39, 80
2, 458873, Note_on_c, 0, 27, 0
2, 458873, Note_on_c, 0, 39, 0
2, 458880, Note_on_c, 0, 30, 80
2, 458880, Note_on_c, 0, 42, 80
2, 459200, Note_on_c, 0, 30, 0
2, 459200, Note_on_c, 0, 42, 0
2, 459360, Note_on_c, 0, 30, 80
2, 459360, Note_on_c, 0, 42, 80
2, 459680, Note_on_c, 0, 30, 0
2, 459680, Note_on_c, 0, 42, 0
2, 459840, Note_on_c, 0, 30, 80
2, 459840, Note_on_c, 0, 42, 80
2, 460160, Note_on_c, 0, 30, 0
2, 460160, Note_on_c, 0, 42, 0
2, 460320, Note_on_c, 0, 30, 80
2, 460320, Note_on_c, 0, 42, 80
2, 460640, Note_on_c, 0, 30, 0
2, 460640, Note_on_c, 0, 42, 0
2, 460800, Note_on_c, 0, 32, 80
2, 460800, Note_on_c, 0, 44, 80
2, 461120, Note_on_c, 0, 32, 0
2, 461120, Note_on_c, 0, 44, 0
2, 461280, Note_on_c, 0, 32, 80
2, 461280, Note_on_c, 0, 44, 80
2, 461600, Note_on_c, 0, 32, 0
2, 461600, Note_on_c, 0, 44, 0
2, 461760, Note_on_c, 0, 32, 80
2, 461760, Note_on_c, 0, 44, 80
2, 462080, Note_on_c, 0, 32, 0
2, 462080, Note_on_c, 0, 44, 0
2, 462240, Note_on_c, 0, 32, 80
2, 462240, Note_on_c, 0, 44, 80
2, 462560, Note_on_c, 0, 32, 0
2, 462560, Note_on_c, 0, 44, 0
2, 462720, Note_on_c, 0, 29, 96
2, 462720, Note_on_c, 0, 41, 96
2, 464639, Note_on_c, 0, 29, 0
2, 464639, Note_on_c, 0, 41, 0
2, 466080, Note_on_c, 0, 27, 96
2, 466080, Note_on_c, 0, 39, 96
2, 466559, Note_on_c, 0, 27, 0
2, 466559, Note_on_c, 0, 39, 0
2, 466560, Note_on_c, 0, 29, 96
2, 466560, Note_on_c, 0, 41, 96
2, 468479, Note_on_c, 0, 29, 0
2, 468479, Note_on_c, 0, 41, 0
2, 468480, Note_on_c, 0, 29, 80
2, 468480, Note_on_c, 0, 41, 80
2, 468935, Note_on_c, 0, 29, 0
2, 468935, Note_on_c, 0, 41, 0
2, 468960, Note_on_c, 0, 27, 96
2, 468960, Note_on_c, 0, 39, 96
2, 469439, Note_on_c, 0, 27, 0
2, 469439, Note_on_c, 0, 39, 0
2, 469440, Note_on_c, 0, 29, 96
2, 469440, Note_on_c, 0, 41, 96
2, 469919, Note_on_c, 0, 29, 0
2, 469919, Note_on_c, 0, 41, 0
2, 469920, Note_on_c, 0, 32, 96
2, 469920, Note_on_c, 0, 44, 96
2, 470399, Note_on_c, 0, 32, 0
2, 470399, Note_on_c, 0, 44, 0
2, 470400, Note_on_c, 0, 27, 96
2, 470400, Note_on_c, 0, 39, 96
2, 470720, Note_on_c, 0, 27, 0
2, 470720, Note_on_c, 0, 39, 0
2, 470880, Note_on_c, 0, 27, 96
2, 470880, Note_on_c, 0, 39, 96
2, 471200, Note_on_c, 0, 27, 0
2, 471200, Note_on_c, 0, 39, 0
2, 471360, Note_on_c, 0, 27, 96
2, 471360, Note_on_c, 0, 39, 96
2, 471680, Note_on_c, 0, 27, 0
2, 471680, Note_on_c, 0, 39, 0
2, 471840, Note_on_c, 0, 27, 96
2, 471840, Note_on_c, 0, 39, 96
2, 472160, Note_on_c, 0, 27, 0
2, 472160, Note_on_c, 0, 39, 0
2, 472320, Note_on_c, 0, 27, 96
2, 472320, Note_on_c, 0, 39, 96
2, 472640, Note_on_c, 0, 27, 0
2, 472640, Note_on_c, 0, 39, 0
2, 472800, Note_on_c, 0, 27, 96
2, 472800, Note_on_c, 0, 39, 96
2, 473120, Note_on_c, 0, 27, 0
2, 473120, Note_on_c, 0, 39, 0
2, 473280, Note_on_c, 0, 27, 96
2, 473280, Note_on_c, 0, 39, 96
2, 473600, Note_on_c, 0, 27, 0
2, 473600, Note_on_c, 0, 39, 0
2, 473760, Note_on_c, 0, 27, 96
2, 473760, Note_on_c, 0, 39, 96
2, 473873, Note_on_c, 0, 27, 0
2, 473873, Note_on_c, 0, 39, 0
2, 473880, Note_on_c, 0, 27, 96
2, 473880, Note_on_c, 0, 39, 96
2, 473993, Note_on_c, 0, 27, 0
2, 473993, Note_on_c, 0, 39, 0
2, 474000, Note_on_c, 0, 27, 96
2, 474000, Note_on_c, 0, 39, 96
2, 474113, Note_on_c, 0, 27, 0
2, 474113, Note_on_c, 0, 39, 0
2, 474120, Note_on_c, 0, 27, 96
2, 474120, Note_on_c, 0, 39, 96
2, 474233, Note_on_c, 0, 27, 0
2, 474233, Note_on_c, 0, 39, 0
2, 474240, Note_on_c, 0, 30, 96
2, 474240, Note_on_c, 0, 42, 96
2, 474560, Note_on_c, 0, 30, 0
2, 474560, Note_on_c, 0, 42, 0
2, 474720, Note_on_c, 0, 30, 96
2, 474720, Note_on_c, 0, 42, 96
2, 475040, Note_on_c, 0, 30, 0
2, 475040, Note_on_c, 0, 42, 0
2, 475200, Note_on_c, 0, 30, 96
2, 475200, Note_on_c, 0, 42, 96
2, 475520, Note_on_c, 0, 30, 0
2, 475520, Note_on_c, 0, 42, 0
2, 475680, Note_on_c, 0, 30, 96
2, 475680, Note_on_c, 0, 42, 96
2, 476000, Note_on_c, 0, 30, 0
2, 476000, Note_on_c, 0, 42, 0
2, 476160, Note_on_c, 0, 32, 96
2, 476160, Note_on_c, 0, 44, 96
2, 476480, Note_on_c, 0, 32, 0
2, 476480, Note_on_c, 0, 44, 0
2, 476640, Note_on_c, 0, 32, 96
2, 476640, Note_on_c, 0, 44, 96
2, 476960, Note_on_c, 0, 32, 0
2, 476960, Note_on_c, 0, 44, 0
2, 477120, Note_on_c, 0, 32, 96
2, 477120, Note_on_c, 0, 44, 96
2, 477440, Note_on_c, 0, 32, 0
2, 477440, Note_on_c, 0, 44, 0
2, 477600, Note_on_c, 0, 32, 96
2, 477600, Note_on_c, 0, 44, 96
2, 477920, Note_on_c, 0, 32, 0
2, 477920, Note_on_c, 0, 44, 0
2, 478080, Note_on_c, 0, 29, 96
2, 478080, Note_on_c, 0, 41, 96
2, 478400, Note_on_c, 0, 29, 0
2, 478400, Note_on_c, 0, 41, 0
2, 478560, Note_on_c, 0, 29, 96
2, 478560, Note_on_c, 0, 41, 96
2, 478880, Note_on_c, 0, 29, 0
2, 478880, Note_on_c, 0, 41, 0
2, 479040, Note_on_c, 0, 29, 96
2, 479040, Note_on_c, 0, 41, 96
2, 479360, Note_on_c, 0, 29, 0
2, 479360, Note_on_c, 0, 41, 0
2, 479520, Note_on_c, 0, 29, 96
2, 479520, Note_on_c, 0, 41, 96
2, 479840, Note_on_c, 0, 29, 0
2, 479840, Note_on_c, 0, 41, 0
2, 480000, Note_on_c, 0, 29, 96
2, 480000, Note_on_c, 0, 41, 96
2, 480320, Note_on_c, 0, 29, 0
2, 480320, Note_on_c, 0, 41, 0
2, 480480, Note_on_c, 0, 29, 96
2, 480480, Note_on_c, 0, 41, 96
2, 480800, Note_on_c, 0, 29, 0
2, 480800, Note_on_c, 0, 41, 0
2, 480960, Note_on_c, 0, 29, 96
2, 480960, Note_on_c, 0, 41, 96
2, 481280, Note_on_c, 0, 29, 0
2, 481280, Note_on_c, 0, 41, 0
2, 481440, Note_on_c, 0, 29, 96
2, 481440, Note_on_c, 0, 41, 96
2, 481553, Note_on_c, 0, 29, 0
2, 481553, Note_on_c, 0, 41, 0
2, 481560, Note_on_c, 0, 29, 96
2, 481560, Note_on_c, 0, 41, 96
2, 481673, Note_on_c, 0, 29, 0
2, 481673, Note_on_c, 0, 41, 0
2, 481680, Note_on_c, 0, 29, 96
2, 481680, Note_on_c, 0, 41, 96
2, 481793, Note_on_c, 0, 29, 0
2, 481793, Note_on_c, 0, 41, 0
2, 481800, Note_on_c, 0, 29, 96
2, 481800, Note_on_c, 0, 41, 96
2, 481913, Note_on_c, 0, 29, 0
2, 481913, Note_on_c, 0, 41, 0
2, 481920, Note_on_c, 0, 29, 96
2, 481920, Note_on_c, 0, 41, 96
2, 482240, Note_on_c, 0, 29, 0
2, 482240, Note_on_c, 0, 41, 0
2, 482400, Note_on_c, 0, 29, 96
2, 482400, Note_on_c, 0, 41, 96
2, 482720, Note_on_c, 0, 29, 0
2, 482720, Note_on_c, 0, 41, 0
2, 482880, Note_on_c, 0, 29, 96
2, 482880, Note_on_c, 0, 41, 96
2, 483200, Note_on_c, 0, 29, 0
2, 483200, Note_on_c, 0, 41, 0
2, 483360, Note_on_c, 0, 29, 96
2, 483360, Note_on_c, 0, 41, 96
2, 483680, Note_on_c, 0, 29, 0
2, 483680, Note_on_c, 0, 41, 0
2, 483840, Note_on_c, 0, 29, 96
2, 483840, Note_on_c, 0, 41, 96
2, 484160, Note_on_c, 0, 29, 0
2, 484160, Note_on_c, 0, 41, 0
2, 484320, Note_on_c, 0, 29, 96
2, 484320, Note_on_c, 0, 41, 96
2, 484640, Note_on_c, 0, 29, 0
2, 484640, Note_on_c, 0, 41, 0
2, 484800, Note_on_c, 0, 29, 96
2, 484800, Note_on_c, 0, 41, 96
2, 485120, Note_on_c, 0, 29, 0
2, 485120, Note_on_c, 0, 41, 0
2, 485280, Note_on_c, 0, 29, 96
2, 485280, Note_on_c, 0, 41, 96
2, 485393, Note_on_c, 0, 29, 0
2, 485393, Note_on_c, 0, 41, 0
2, 485400, Note_on_c, 0, 29, 96
2, 485400, Note_on_c, 0, 41, 96
2, 485513, Note_on_c, 0, 29, 0
2, 485513, Note_on_c, 0, 41, 0
2, 485520, Note_on_c, 0, 29, 96
2, 485520, Note_on_c, 0, 41, 96
2, 485633, Note_on_c, 0, 29, 0
2, 485633, Note_on_c, 0, 41, 0
2, 485640, Note_on_c, 0, 29, 96
2, 485640, Note_on_c, 0, 41, 96
2, 485753, Note_on_c, 0, 29, 0
2, 485753, Note_on_c, 0, 41, 0
2, 485760, Note_on_c, 0, 27, 96
2, 485760, Note_on_c, 0, 39, 96
2, 486080, Note_on_c, 0, 27, 0
2, 486080, Note_on_c, 0, 39, 0
2, 486240, Note_on_c, 0, 27, 96
2, 486240, Note_on_c, 0, 39, 96
2, 486560, Note_on_c, 0, 27, 0
2, 486560, Note_on_c, 0, 39, 0
2, 486720, Note_on_c, 0, 27, 96
2, 486720, Note_on_c, 0, 39, 96
2, 487040, Note_on_c, 0, 27, 0
2, 487040, Note_on_c, 0, 39, 0
2, 487200, Note_on_c, 0, 27, 96
2, 487200, Note_on_c, 0, 39, 96
2, 487520, Note_on_c, 0, 27, 0
2, 487520, Note_on_c, 0, 39, 0
2, 487680, Note_on_c, 0, 27, 96
2, 487680, Note_on_c, 0, 39, 96
2, 488000, Note_on_c, 0, 27, 0
2, 488000, Note_on_c, 0, 39, 0
2, 488160, Note_on_c, 0, 27, 96
2, 488160, Note_on_c, 0, 39, 96
2, 488480, Note_on_c, 0, 27, 0
2, 488480, Note_on_c, 0, 39, 0
2, 488640, Note_on_c, 0, 27, 96
2, 488640, Note_on_c, 0, 39, 96
2, 488960, Note_on_c, 0, 27, 0
2, 488960, Note_on_c, 0, 39, 0
2, 489120, Note_on_c, 0, 27, 96
2, 489120, Note_on_c, 0, 39, 96
2, 489233, Note_on_c, 0, 27, 0
2, 489233, Note_on_c, 0, 39, 0
2, 489240, Note_on_c, 0, 27, 96
2, 489240, Note_on_c, 0, 39, 96
2, 489353, Note_on_c, 0, 27, 0
2, 489353, Note_on_c, 0, 39, 0
2, 489360, Note_on_c, 0, 27, 96
2, 489360, Note_on_c, 0, 39, 96
2, 489473, Note_on_c, 0, 27, 0
2, 489473, Note_on_c, 0, 39, 0
2, 489480, Note_on_c, 0, 27, 96
2, 489480, Note_on_c, 0, 39, 96
2, 489593, Note_on_c, 0, 27, 0
2, 489593, Note_on_c, 0, 39, 0
2, 489600, Note_on_c, 0, 30, 96
2, 489600, Note_on_c, 0, 42, 96
2, 489920, Note_on_c, 0, 30, 0
2, 489920, Note_on_c, 0, 42, 0
2, 490080, Note_on_c, 0, 30, 96
2, 490080, Note_on_c, 0, 42, 96
2, 490400, Note_on_c, 0, 30, 0
2, 490400, Note_on_c, 0, 42, 0
2, 490560, Note_on_c, 0, 30, 96
2, 490560, Note_on_c, 0, 42, 96
2, 490880, Note_on_c, 0, 30, 0
2, 490880, Note_on_c, 0, 42, 0
2, 491040, Note_on_c, 0, 30, 96
2, 491040, Note_on_c, 0, 42, 96
2, 491360, Note_on_c, 0, 30, 0
2, 491360, Note_on_c, 0, 42, 0
2, 491520, Note_on_c, 0, 32, 96
2, 491520, Note_on_c, 0, 44, 96
2, 491840, Note_on_c, 0, 32, 0
2, 491840, Note_on_c, 0, 44, 0
2, 492000, Note_on_c, 0, 32, 96
2, 492000, Note_on_c, 0, 44, 96
2, 492320, Note_on_c, 0, 32, 0
2, 492320, Note_on_c, 0, 44, 0
2, 492480, Note_on_c, 0, 32, 96
2, 492480, Note_on_c, 0, 44, 96
2, 492800, Note_on_c, 0, 32, 0
2, 492800, Note_on_c, 0, 44, 0
2, 492960, Note_on_c, 0, 32, 96
2, 492960, Note_on_c, 0, 44, 96
2, 493280, Note_on_c, 0, 32, 0
2, 493280, Note_on_c, 0, 44, 0
2, 493440, Note_on_c, 0, 29, 115
2, 493440, Note_on_c, 0, 41, 115
2, 495359, Note_on_c, 0, 29, 0
2, 495359, Note_on_c, 0, 41, 0
2, 496800, Note_on_c, 0, 27, 96
2, 496800, Note_on_c, 0, 39, 96
2, 497255, Note_on_c, 0, 27, 0
2, 497255, Note_on_c, 0, 39, 0
2, 497280, Note_on_c, 0, 29, 96
2, 497280, Note_on_c, 0, 41, 96
2, 498191, Note_on_c, 0, 29, 0
2, 498191, Note_on_c, 0, 41, 0
2, 498240, Note_on_c, 0, 29, 96
2, 498240, Note_on_c, 0, 41, 96
2, 499151, Note_on_c, 0, 29, 0
2, 499151, Note_on_c, 0, 41, 0
2, 499200, Note_on_c, 0, 29, 96
2, 499200, Note_on_c, 0, 41, 96
2, 499655, Note_on_c, 0, 29, 0
2, 499655, Note_on_c, 0, 41, 0
2, 499680, Note_on_c, 0, 27, 96
2, 499680, Note_on_c, 0, 39, 96
2, 500135, Note_on_c, 0, 27, 0
2, 500135, Note_on_c, 0, 39, 0
2, 500160, Note_on_c, 0, 29, 96
2, 500160, Note_on_c, 0, 41, 96
2, 500615, Note_on_c, 0, 29, 0
2, 500615, Note_on_c, 0, 41, 0
2, 500640, Note_on_c, 0, 32, 96
2, 500640, Note_on_c, 0, 44, 96
2, 501095, Note_on_c, 0, 32, 0
2, 501095, Note_on_c, 0, 44, 0
2, 501120, Key_signature, -4, "major"
2, 501120, Note_on_c, 0, 56, 80
2, 501347, Note_on_c, 0, 56, 0
2, 501360, Note_on_c, 0, 59, 80
2, 501360, Note_on_c, 0, 63, 80
2, 501587, Note_on_c, 0, 59, 0
2, 501587, Note_on_c, 0, 63, 0
2, 501600, Note_on_c, 0, 51, 80
2, 501713, Note_on_c, 0, 51, 0
2, 501720, Note_on_c, 0, 59, 80
2, 501720, Note_on_c, 0, 63, 80
2, 501833, Note_on_c, 0, 59, 0
2, 501833, Note_on_c, 0, 63, 0
2, 501960, Note_on_c, 0, 56, 80
2, 502187, Note_on_c, 0, 56, 0
2, 502200, Note_on_c, 0, 59, 80
2, 502200, Note_on_c, 0, 63, 80
2, 502427, Note_on_c, 0, 59, 0
2, 502427, Note_on_c, 0, 63, 0
2, 502440, Note_on_c, 0, 59, 80
2, 502440, Note_on_c, 0, 63, 80
2, 502553, Note_on_c, 0, 59, 0
2, 502553, Note_on_c, 0, 63, 0
2, 502560, Note_on_c, 0, 51, 80
2, 502787, Note_on_c, 0, 51, 0
2, 502800, Note_on_c, 0, 58, 80
2, 503027, Note_on_c, 0, 58, 0
2, 503040, Note_on_c, 0, 56, 80
2, 503267, Note_on_c, 0, 56, 0
2, 503280, Note_on_c, 0, 59, 80
2, 503280, Note_on_c, 0, 63, 80
2, 503507, Note_on_c, 0, 59, 0
2, 503507, Note_on_c, 0, 63, 0
2, 503520, Note_on_c, 0, 51, 80
2, 503633, Note_on_c, 0, 51, 0
2, 503640, Note_on_c, 0, 59, 80
2, 503640, Note_on_c, 0, 63, 80
2, 503753, Note_on_c, 0, 59, 0
2, 503753, Note_on_c, 0, 63, 0
2, 503880, Note_on_c, 0, 56, 80
2, 504107, Note_on_c, 0, 56, 0
2, 504120, Note_on_c, 0, 59, 80
2, 504120, Note_on_c, 0, 63, 80
2, 504347, Note_on_c, 0, 59, 0
2, 504347, Note_on_c, 0, 63, 0
2, 504360, Note_on_c, 0, 59, 80
2, 504360, Note_on_c, 0, 63, 80
2, 504473, Note_on_c, 0, 59, 0
2, 504473, Note_on_c, 0, 63, 0
2, 504480, Note_on_c, 0, 51, 80
2, 504707, Note_on_c, 0, 51, 0
2, 504720, Note_on_c, 0, 58, 80
2, 504947, Note_on_c, 0, 58, 0
2, 504960, Note_on_c, 0, 54, 80
2, 505187, Note_on_c, 0, 54, 0
2, 505200, Note_on_c, 0, 58, 80
2, 505200, Note_on_c, 0, 61, 80
2, 505427, Note_on_c, 0, 58, 0
2, 505427, Note_on_c, 0, 61, 0
2, 505440, Note_on_c, 0, 49, 80
2, 505553, Note_on_c, 0, 49, 0
2, 505560, Note_on_c, 0, 58, 80
2, 505560, Note_on_c, 0, 61, 80
2, 505673, Note_on_c, 0, 58, 0
2, 505673, Note_on_c, 0, 61, 0
2, 505800, Note_on_c, 0, 54, 80
2, 506027, Note_on_c, 0, 54, 0
2, 506040, Note_on_c, 0, 58, 80
2, 506040, Note_on_c, 0, 61, 80
2, 506267, Note_on_c, 0, 58, 0
2, 506267, Note_on_c, 0, 61, 0
2, 506280, Note_on_c, 0, 58, 80
2, 506280, Note_on_c, 0, 61, 80
2, 506393, Note_on_c, 0, 58, 0
2, 506393, Note_on_c, 0, 61, 0
2, 506400, Note_on_c, 0, 49, 80
2, 506627, Note_on_c, 0, 49, 0
2, 506640, Note_on_c, 0, 58, 80
2, 506867, Note_on_c, 0, 58, 0
2, 506880, Note_on_c, 0, 54, 80
2, 507107, Note_on_c, 0, 54, 0
2, 507120, Note_on_c, 0, 58, 80
2, 507120, Note_on_c, 0, 61, 80
2, 507347, Note_on_c, 0, 58, 0
2, 507347, Note_on_c, 0, 61, 0
2, 507360, Note_on_c, 0, 49, 80
2, 507473, Note_on_c, 0, 49, 0
2, 507480, Note_on_c, 0, 58, 80
2, 507480, Note_on_c, 0, 61, 80
2, 507593, Note_on_c, 0, 58, 0
2, 507593, Note_on_c, 0, 61, 0
2, 507720, Note_on_c, 0, 54, 80
2, 507947, Note_on_c, 0, 54, 0
2, 507960, Note_on_c, 0, 58, 80
2, 507960, Note_on_c, 0, 61, 80
2, 508187, Note_on_c, 0, 58, 0
2, 508187, Note_on_c, 0, 61, 0
2, 508200, Note_on_c, 0, 58, 80
2, 508200, Note_on_c, 0, 61, 80
2, 508313, Note_on_c, 0, 58, 0
2, 508313, Note_on_c, 0, 61, 0
2, 508320, Note_on_c, 0, 49, 80
2, 508547, Note_on_c, 0, 49, 0
2, 508560, Note_on_c, 0, 58, 80
2, 508787, Note_on_c, 0, 58, 0
2, 508800, Note_on_c, 0, 56, 80
2, 509027, Note_on_c, 0, 56, 0
2, 509040, Note_on_c, 0, 59, 80
2, 509040, Note_on_c, 0, 63, 80
2, 509267, Note_on_c, 0, 59, 0
2, 509267, Note_on_c, 0, 63, 0
2, 509280, Note_on_c, 0, 51, 80
2, 509393, Note_on_c, 0, 51, 0
2, 509400, Note_on_c, 0, 59, 80
2, 509400, Note_on_c, 0, 63, 80
2, 509513, Note_on_c, 0, 59, 0
2, 509513, Note_on_c, 0, 63, 0
2, 509640, Note_on_c, 0, 56, 80
2, 509867, Note_on_c, 0, 56, 0
2, 509880, Note_on_c, 0, 59, 80
2, 509880, Note_on_c, 0, 63, 80
2, 510107, Note_on_c, 0, 59, 0
2, 510107, Note_on_c, 0, 63, 0
2, 510120, Note_on_c, 0, 59, 80
2, 510120, Note_on_c, 0, 63, 80
2, 510233, Note_on_c, 0, 59, 0
2, 510233, Note_on_c, 0, 63, 0
2, 510240, Note_on_c, 0, 51, 80
2, 510467, Note_on_c, 0, 51, 0
2, 510480, Note_on_c, 0, 58, 80
2, 510707, Note_on_c, 0, 58, 0
2, 510720, Note_on_c, 0, 56, 80
2, 510947, Note_on_c, 0, 56, 0
2, 510960, Note_on_c, 0, 59, 80
2, 510960, Note_on_c, 0, 63, 80
2, 511187, Note_on_c, 0, 59, 0
2, 511187, Note_on_c, 0, 63, 0
2, 511200, Note_on_c, 0, 51, 80
2, 511313, Note_on_c, 0, 51, 0
2, 511320, Note_on_c, 0, 59, 80
2, 511320, Note_on_c, 0, 63, 80
2, 511433, Note_on_c, 0, 59, 0
2, 511433, Note_on_c, 0, 63, 0
2, 511560, Note_on_c, 0, 56, 80
2, 511787, Note_on_c, 0, 56, 0
2, 511800, Note_on_c, 0, 59, 80
2, 511800, Note_on_c, 0, 63, 80
2, 512027, Note_on_c, 0, 59, 0
2, 512027, Note_on_c, 0, 63, 0
2, 512040, Note_on_c, 0, 59, 80
2, 512040, Note_on_c, 0, 63, 80
2, 512153, Note_on_c, 0, 59, 0
2, 512153, Note_on_c, 0, 63, 0
2, 512160, Note_on_c, 0, 51, 80
2, 512387, Note_on_c, 0, 51, 0
2, 512400, Note_on_c, 0, 58, 80
2, 512627, Note_on_c, 0, 58, 0
2, 512640, Note_on_c, 0, 54, 80
2, 512867, Note_on_c, 0, 54, 0
2, 512880, Note_on_c, 0, 58, 80
2, 512880, Note_on_c, 0, 61, 80
2, 513107, Note_on_c, 0, 58, 0
2, 513107, Note_on_c, 0, 61, 0
2, 513120, Note_on_c, 0, 49, 80
2, 513233, Note_on_c, 0, 49, 0
2, 513240, Note_on_c, 0, 58, 80
2, 513240, Note_on_c, 0, 61, 80
2, 513353, Note_on_c, 0, 58, 0
2, 513353, Note_on_c, 0, 61, 0
2, 513480, Note_on_c, 0, 54, 80
2, 513707, Note_on_c, 0, 54, 0
2, 513720, Note_on_c, 0, 58, 80
2, 513720, Note_on_c, 0, 61, 80
2, 513947, Note_on_c, 0, 58, 0
2, 513947, Note_on_c, 0, 61, 0
2, 513960, Note_on_c, 0, 58, 80
2, 513960, Note_on_c, 0, 61, 80
2, 514073, Note_on_c, 0, 58, 0
2, 514073, Note_on_c, 0, 61, 0
2, 514080, Note_on_c, 0, 49, 80
2, 514307, Note_on_c, 0, 49, 0
2, 514320, Note_on_c, 0, 58, 80
2, 514547, Note_on_c, 0, 58, 0
2, 514560, Note_on_c, 0, 56, 80
2, 514560, Note_on_c, 0, 59, 80
2, 514560, Note_on_c, 0, 63, 80
2, 514560, Note_on_c, 0, 68, 80
2, 515015, Note_on_c, 0, 56, 0
2, 515015, Note_on_c, 0, 59, 0
2, 515015, Note_on_c, 0, 63, 0
2, 515015, Note_on_c, 0, 68, 0
2, 515040, Note_on_c, 0, 58, 80
2, 515040, Note_on_c, 0, 61, 80
2, 515040, Note_on_c, 0, 65, 80
2, 515040, Note_on_c, 0, 70, 80
2, 515381, Note_on_c, 0, 58, 0
2, 515381, Note_on_c, 0, 61, 0
2, 515381, Note_on_c, 0, 65, 0
2, 515381, Note_on_c, 0, 70, 0
2, 516480, Note_on_c, 0, 53, 80
2, 516599, Note_on_c, 0, 53, 0
2, 516720, Note_on_c, 0, 53, 80
2, 516839, Note_on_c, 0, 53, 0
2, 516960, Note_on_c, 0, 60, 80
2, 517079, Note_on_c, 0, 60, 0
2, 517200, Note_on_c, 0, 53, 80
2, 517319, Note_on_c, 0, 53, 0
2, 517440, Note_on_c, 0, 53, 80
2, 517559, Note_on_c, 0, 53, 0
2, 517680, Note_on_c, 0, 53, 80
2, 517799, Note_on_c, 0, 53, 0
2, 517920, Note_on_c, 0, 51, 80
2, 518039, Note_on_c, 0, 51, 0
2, 518160, Note_on_c, 0, 51, 80
2, 518279, Note_on_c, 0, 51, 0
2, 518400, Note_on_c, 0, 49, 80
2, 518519, Note_on_c, 0, 49, 0
2, 518640, Note_on_c, 0, 53, 80
2, 518759, Note_on_c, 0, 53, 0
2, 518880, Note_on_c, 0, 56, 80
2, 518999, Note_on_c, 0, 56, 0
2, 519120, Note_on_c, 0, 53, 80
2, 519239, Note_on_c, 0, 53, 0
2, 519360, Note_on_c, 0, 48, 80
2, 519479, Note_on_c, 0, 48, 0
2, 519600, Note_on_c, 0, 52, 80
2, 519719, Note_on_c, 0, 52, 0
2, 519840, Note_on_c, 0, 55, 80
2, 519959, Note_on_c, 0, 55, 0
2, 520080, Note_on_c, 0, 52, 80
2, 520199, Note_on_c, 0, 52, 0
2, 520320, Note_on_c, 0, 53, 80
2, 520439, Note_on_c, 0, 53, 0
2, 520560, Note_on_c, 0, 53, 80
2, 520679, Note_on_c, 0, 53, 0
2, 520800, Note_on_c, 0, 53, 80
2, 520919, Note_on_c, 0, 53, 0
2, 521040, Note_on_c, 0, 53, 80
2, 521159, Note_on_c, 0, 53, 0
2, 521280, Note_on_c, 0, 55, 80
2, 521399, Note_on_c, 0, 55, 0
2, 521520, Note_on_c, 0, 55, 80
2, 521639, Note_on_c, 0, 55, 0
2, 521760, Note_on_c, 0, 55, 80
2, 521879, Note_on_c, 0, 55, 0
2, 522000, Note_on_c, 0, 55, 80
2, 522119, Note_on_c, 0, 55, 0
2, 522240, Note_on_c, 0, 56, 80
2, 522359, Note_on_c, 0, 56, 0
2, 522480, Note_on_c, 0, 56, 80
2, 522599, Note_on_c, 0, 56, 0
2, 522720, Note_on_c, 0, 56, 80
2, 522839, Note_on_c, 0, 56, 0
2, 522960, Note_on_c, 0, 56, 80
2, 523079, Note_on_c, 0, 56, 0
2, 523200, Note_on_c, 0, 51, 80
2, 523319, Note_on_c, 0, 51, 0
2, 523440, Note_on_c, 0, 51, 80
2, 523559, Note_on_c, 0, 51, 0
2, 523680, Note_on_c, 0, 51, 80
2, 523799, Note_on_c, 0, 51, 0
2, 523920, Note_on_c, 0, 51, 80
2, 524039, Note_on_c, 0, 51, 0
2, 524160, Note_on_c, 0, 49, 80
2, 524279, Note_on_c, 0, 49, 0
2, 524400, Note_on_c, 0, 49, 80
2, 524519, Note_on_c, 0, 49, 0
2, 524640, Note_on_c, 0, 58, 80
2, 524759, Note_on_c, 0, 58, 0
2, 524880, Note_on_c, 0, 49, 80
2, 524999, Note_on_c, 0, 49, 0
2, 525120, Note_on_c, 0, 49, 80
2, 525239, Note_on_c, 0, 49, 0
2, 525360, Note_on_c, 0, 49, 80
2, 525479, Note_on_c, 0, 49, 0
2, 525600, Note_on_c, 0, 58, 80
2, 525719, Note_on_c, 0, 58, 0
2, 525840, Note_on_c, 0, 49, 80
2, 525959, Note_on_c, 0, 49, 0
2, 526080, Note_on_c, 0, 49, 80
2, 526199, Note_on_c, 0, 49, 0
2, 526320, Note_on_c, 0, 49, 80
2, 526439, Note_on_c, 0, 49, 0
2, 526560, Note_on_c, 0, 53, 80
2, 526679, Note_on_c, 0, 53, 0
2, 526800, Note_on_c, 0, 49, 80
2, 526919, Note_on_c, 0, 49, 0
2, 527040, Note_on_c, 0, 49, 80
2, 527159, Note_on_c, 0, 49, 0
2, 527280, Note_on_c, 0, 49, 80
2, 527399, Note_on_c, 0, 49, 0
2, 527520, Note_on_c, 0, 56, 80
2, 527639, Note_on_c, 0, 56, 0
2, 527760, Note_on_c, 0, 49, 80
2, 527879, Note_on_c, 0, 49, 0
2, 528000, Note_on_c, 0, 48, 80
2, 528455, Note_on_c, 0, 48, 0
2, 529440, Note_on_c, 0, 48, 80
2, 529895, Note_on_c, 0, 48, 0
2, 529920, Note_on_c, 0, 48, 80
2, 530831, Note_on_c, 0, 48, 0
2, 531840, Note_on_c, 0, 53, 72
2, 531840, Note_on_c, 0, 65, 88
2, 532067, Note_on_c, 0, 53, 0
2, 532067, Note_on_c, 0, 65, 0
2, 532080, Note_on_c, 0, 53, 72
2, 532307, Note_on_c, 0, 53, 0
2, 532320, Note_on_c, 0, 60, 88
2, 532547, Note_on_c, 0, 60, 0
2, 532560, Note_on_c, 0, 60, 72
2, 532787, Note_on_c, 0, 60, 0
2, 532800, Note_on_c, 0, 53, 72
2, 532800, Note_on_c, 0, 56, 88
2, 533027, Note_on_c, 0, 53, 0
2, 533027, Note_on_c, 0, 56, 0
2, 533040, Note_on_c, 0, 53, 72
2, 533267, Note_on_c, 0, 53, 0
2, 533280, Note_on_c, 0, 51, 72
2, 533280, Note_on_c, 0, 53, 88
2, 533507, Note_on_c, 0, 51, 0
2, 533507, Note_on_c, 0, 53, 0
2, 533520, Note_on_c, 0, 51, 72
2, 533747, Note_on_c, 0, 51, 0
2, 533760, Note_on_c, 0, 49, 72
2, 533879, Note_on_c, 0, 49, 0
2, 534000, Note_on_c, 0, 49, 72
2, 534000, Note_on_c, 0, 59, 88
2, 534227, Note_on_c, 0, 49, 0
2, 534227, Note_on_c, 0, 59, 0
2, 534240, Note_on_c, 0, 53, 72
2, 534240, Note_on_c, 0, 58, 88
2, 534467, Note_on_c, 0, 53, 0
2, 534467, Note_on_c, 0, 58, 0
2, 534480, Note_on_c, 0, 53, 72
2, 534599, Note_on_c, 0, 53, 0
2, 534720, Note_on_c, 0, 48, 72
2, 534720, Note_on_c, 0, 58, 88
2, 534947, Note_on_c, 0, 48, 0
2, 534947, Note_on_c, 0, 58, 0
2, 534960, Note_on_c, 0, 48, 72
2, 534960, Note_on_c, 0, 56, 88
2, 535187, Note_on_c, 0, 48, 0
2, 535187, Note_on_c, 0, 56, 0
2, 535200, Note_on_c, 0, 51, 88
2, 535427, Note_on_c, 0, 51, 0
2, 535440, Note_on_c, 0, 52, 88
2, 535667, Note_on_c, 0, 52, 0
2, 535680, Note_on_c, 0, 53, 72
2, 535799, Note_on_c, 0, 53, 0
2, 535920, Note_on_c, 0, 53, 72
2, 535920, Note_on_c, 0, 60, 88
2, 536147, Note_on_c, 0, 53, 0
2, 536147, Note_on_c, 0, 60, 0
2, 536160, Note_on_c, 0, 48, 72
2, 536160, Note_on_c, 0, 58, 88
2, 536387, Note_on_c, 0, 48, 0
2, 536387, Note_on_c, 0, 58, 0
2, 536400, Note_on_c, 0, 48, 72
2, 536400, Note_on_c, 0, 56, 88
2, 536627, Note_on_c, 0, 48, 0
2, 536627, Note_on_c, 0, 56, 0
2, 536640, Note_on_c, 0, 55, 72
2, 536640, Note_on_c, 0, 58, 88
2, 536867, Note_on_c, 0, 55, 0
2, 536867, Note_on_c, 0, 58, 0
2, 536880, Note_on_c, 0, 55, 72
2, 536880, Note_on_c, 0, 60, 88
2, 537107, Note_on_c, 0, 55, 0
2, 537107, Note_on_c, 0, 60, 0
2, 537120, Note_on_c, 0, 48, 72
2, 537120, Note_on_c, 0, 51, 88
2, 537347, Note_on_c, 0, 48, 0
2, 537347, Note_on_c, 0, 51, 0
2, 537360, Note_on_c, 0, 48, 72
2, 537360, Note_on_c, 0, 53, 88
2, 537587, Note_on_c, 0, 48, 0
2, 537587, Note_on_c, 0, 53, 0
2, 537600, Note_on_c, 0, 56, 88
2, 537827, Note_on_c, 0, 56, 0
2, 537840, Note_on_c, 0, 53, 88
2, 537840, Note_on_c, 0, 56, 72
2, 538067, Note_on_c, 0, 53, 0
2, 538067, Note_on_c, 0, 56, 0
2, 538080, Note_on_c, 0, 48, 72
2, 538080, Note_on_c, 0, 51, 88
2, 538307, Note_on_c, 0, 48, 0
2, 538307, Note_on_c, 0, 51, 0
2, 538320, Note_on_c, 0, 65, 88
2, 538547, Note_on_c, 0, 65, 0
2, 538560, Note_on_c, 0, 58, 72
2, 538787, Note_on_c, 0, 58, 0
2, 538800, Note_on_c, 0, 58, 72
2, 538800, Note_on_c, 0, 63, 88
2, 539027, Note_on_c, 0, 58, 0
2, 539027, Note_on_c, 0, 63, 0
2, 539040, Note_on_c, 0, 60, 80
2, 539191, Note_on_c, 0, 60, 0
2, 539200, Note_on_c, 0, 58, 80
2, 539351, Note_on_c, 0, 58, 0
2, 539360, Note_on_c, 0, 56, 80
2, 539511, Note_on_c, 0, 56, 0
2, 539520, Note_on_c, 0, 53, 88
2, 539747, Note_on_c, 0, 53, 0
2, 539760, Note_on_c, 0, 53, 72
2, 539987, Note_on_c, 0, 53, 0
2, 540000, Note_on_c, 0, 49, 72
2, 540227, Note_on_c, 0, 49, 0
2, 540480, Note_on_c, 0, 55, 88
2, 540707, Note_on_c, 0, 55, 0
2, 540720, Note_on_c, 0, 55, 72
2, 540947, Note_on_c, 0, 55, 0
2, 540960, Note_on_c, 0, 49, 72
2, 541187, Note_on_c, 0, 49, 0
2, 541440, Note_on_c, 0, 56, 88
2, 541667, Note_on_c, 0, 56, 0
2, 541680, Note_on_c, 0, 56, 72
2, 541907, Note_on_c, 0, 56, 0
2, 541920, Note_on_c, 0, 49, 72
2, 542147, Note_on_c, 0, 49, 0
2, 542400, Note_on_c, 0, 58, 88
2, 542627, Note_on_c, 0, 58, 0
2, 542640, Note_on_c, 0, 58, 72
2, 542867, Note_on_c, 0, 58, 0
2, 542880, Note_on_c, 0, 49, 72
2, 543107, Note_on_c, 0, 49, 0
2, 543360, Note_on_c, 0, 60, 60
2, 543815, Note_on_c, 0, 60, 0
2, 543840, Note_on_c, 0, 53, 60
2, 544295, Note_on_c, 0, 53, 0
2, 544320, Note_on_c, 0, 65, 60
2, 544775, Note_on_c, 0, 65, 0
2, 544800, Note_on_c, 0, 53, 60
2, 545255, Note_on_c, 0, 53, 0
2, 545280, Note_on_c, 0, 64, 60
2, 545735, Note_on_c, 0, 64, 0
2, 545760, Note_on_c, 0, 61, 60
2, 546215, Note_on_c, 0, 61, 0
2, 546240, Note_on_c, 0, 60, 60
2, 547151, Note_on_c, 0, 60, 0
2, 547200, Note_on_c, 0, 41, 96
2, 547200, Note_on_c, 0, 53, 96
2, 547427, Note_on_c, 0, 41, 0
2, 547427, Note_on_c, 0, 53, 0
2, 547440, Note_on_c, 0, 48, 96
2, 547667, Note_on_c, 0, 48, 0
2, 547680, Note_on_c, 0, 49, 96
2, 547907, Note_on_c, 0, 49, 0
2, 547920, Note_on_c, 0, 48, 96
2, 548147, Note_on_c, 0, 48, 0
2, 548160, Note_on_c, 0, 41, 96
2, 548160, Note_on_c, 0, 53, 96
2, 548387, Note_on_c, 0, 41, 0
2, 548387, Note_on_c, 0, 53, 0
2, 548400, Note_on_c, 0, 48, 96
2, 548627, Note_on_c, 0, 48, 0
2, 548640, Note_on_c, 0, 53, 96
2, 548867, Note_on_c, 0, 53, 0
2, 548880, Note_on_c, 0, 48, 96
2, 549107, Note_on_c, 0, 48, 0
2, 549120, Note_on_c, 0, 46, 96
2, 549120, Note_on_c, 0, 58, 96
2, 549347, Note_on_c, 0, 46, 0
2, 549347, Note_on_c, 0, 58, 0
2, 549360, Note_on_c, 0, 53, 96
2, 549587, Note_on_c, 0, 53, 0
2, 549600, Note_on_c, 0, 56, 96
2, 549827, Note_on_c, 0, 56, 0
2, 549840, Note_on_c, 0, 53, 96
2, 550067, Note_on_c, 0, 53, 0
2, 550080, Note_on_c, 0, 46, 96
2, 550080, Note_on_c, 0, 58, 96
2, 550307, Note_on_c, 0, 46, 0
2, 550307, Note_on_c, 0, 58, 0
2, 550320, Note_on_c, 0, 53, 96
2, 550547, Note_on_c, 0, 53, 0
2, 550560, Note_on_c, 0, 55, 96
2, 550787, Note_on_c, 0, 55, 0
2, 550800, Note_on_c, 0, 53, 96
2, 551027, Note_on_c, 0, 53, 0
2, 551040, Note_on_c, 0, 49, 96
2, 551040, Note_on_c, 0, 61, 96
2, 551267, Note_on_c, 0, 49, 0
2, 551267, Note_on_c, 0, 61, 0
2, 551280, Note_on_c, 0, 53, 96
2, 551507, Note_on_c, 0, 53, 0
2, 551520, Note_on_c, 0, 56, 96
2, 551747, Note_on_c, 0, 56, 0
2, 551760, Note_on_c, 0, 53, 96
2, 551987, Note_on_c, 0, 53, 0
2, 552000, Note_on_c, 0, 49, 96
2, 552000, Note_on_c, 0, 61, 96
2, 552227, Note_on_c, 0, 49, 0
2, 552227, Note_on_c, 0, 61, 0
2, 552240, Note_on_c, 0, 53, 96
2, 552467, Note_on_c, 0, 53, 0
2, 552480, Note_on_c, 0, 55, 96
2, 552707, Note_on_c, 0, 55, 0
2, 552720, Note_on_c, 0, 53, 96
2, 552947, Note_on_c, 0, 53, 0
2, 552960, Note_on_c, 0, 48, 96
2, 552960, Note_on_c, 0, 60, 96
2, 553187, Note_on_c, 0, 48, 0
2, 553187, Note_on_c, 0, 60, 0
2, 553200, Note_on_c, 0, 53, 96
2, 553427, Note_on_c, 0, 53, 0
2, 553440, Note_on_c, 0, 56, 96
2, 553667, Note_on_c, 0, 56, 0
2, 553680, Note_on_c, 0, 53, 96
2, 553907, Note_on_c, 0, 53, 0
2, 553920, Note_on_c, 0, 48, 96
2, 553920, Note_on_c, 0, 60, 96
2, 554147, Note_on_c, 0, 48, 0
2, 554147, Note_on_c, 0, 60, 0
2, 554160, Note_on_c, 0, 52, 96
2, 554387, Note_on_c, 0, 52, 0
2, 554400, Note_on_c, 0, 55, 96
2, 554627, Note_on_c, 0, 55, 0
2, 554640, Note_on_c, 0, 52, 96
2, 554867, Note_on_c, 0, 52, 0
2, 554880, Note_on_c, 0, 41, 96
2, 554880, Note_on_c, 0, 53, 96
2, 555107, Note_on_c, 0, 41, 0
2, 555107, Note_on_c, 0, 53, 0
2, 555120, Note_on_c, 0, 48, 96
2, 555347, Note_on_c, 0, 48, 0
2, 555360, Note_on_c, 0, 49, 96
2, 555587, Note_on_c, 0, 49, 0
2, 555600, Note_on_c, 0, 48, 96
2, 555827, Note_on_c, 0, 48, 0
2, 555840, Note_on_c, 0, 41, 96
2, 555840, Note_on_c, 0, 53, 96
2, 556067, Note_on_c, 0, 41, 0
2, 556067, Note_on_c, 0, 53, 0
2, 556080, Note_on_c, 0, 48, 96
2, 556307, Note_on_c, 0, 48, 0
2, 556320, Note_on_c, 0, 53, 96
2, 556547, Note_on_c, 0, 53, 0
2, 556560, Note_on_c, 0, 48, 96
2, 556787, Note_on_c, 0, 48, 0
2, 556800, Note_on_c, 0, 46, 96
2, 556800, Note_on_c, 0, 58, 96
2, 557027, Note_on_c, 0, 46, 0
2, 557027, Note_on_c, 0, 58, 0
2, 557040, Note_on_c, 0, 53, 96
2, 557267, Note_on_c, 0, 53, 0
2, 557280, Note_on_c, 0, 56, 96
2, 557507, Note_on_c, 0, 56, 0
2, 557520, Note_on_c, 0, 53, 96
2, 557747, Note_on_c, 0, 53, 0
2, 557760, Note_on_c, 0, 46, 96
2, 557760, Note_on_c, 0, 58, 96
2, 557987, Note_on_c, 0, 46, 0
2, 557987, Note_on_c, 0, 58, 0
2, 558000, Note_on_c, 0, 53, 96
2, 558227, Note_on_c, 0, 53, 0
2, 558240, Note_on_c, 0, 55, 96
2, 558467, Note_on_c, 0, 55, 0
2, 558480, Note_on_c, 0, 53, 96
2, 558707, Note_on_c, 0, 53, 0
2, 558720, Note_on_c, 0, 49, 96
2, 558720, Note_on_c, 0, 61, 96
2, 558947, Note_on_c, 0, 49, 0
2, 558947, Note_on_c, 0, 61, 0
2, 558960, Note_on_c, 0, 53, 96
2, 559187, Note_on_c, 0, 53, 0
2, 559200, Note_on_c, 0, 56, 96
2, 559427, Note_on_c, 0, 56, 0
2, 559440, Note_on_c, 0, 53, 96
2, 559667, Note_on_c, 0, 53, 0
2, 559680, Note_on_c, 0, 49, 96
2, 559680, Note_on_c, 0, 61, 96
2, 559907, Note_on_c, 0, 49, 0
2, 559907, Note_on_c, 0, 61, 0
2, 559920, Note_on_c, 0, 53, 96
2, 560147, Note_on_c, 0, 53, 0
2, 560160, Note_on_c, 0, 55, 96
2, 560387, Note_on_c, 0, 55, 0
2, 560400, Note_on_c, 0, 53, 96
2, 560627, Note_on_c, 0, 53, 0
2, 560640, Note_on_c, 0, 48, 96
2, 560640, Note_on_c, 0, 60, 96
2, 560867, Note_on_c, 0, 48, 0
2, 560867, Note_on_c, 0, 60, 0
2, 560880, Note_on_c, 0, 53, 96
2, 561107, Note_on_c, 0, 53, 0
2, 561120, Note_on_c, 0, 56, 96
2, 561347, Note_on_c, 0, 56, 0
2, 561360, Note_on_c, 0, 53, 96
2, 561587, Note_on_c, 0, 53, 0
2, 561600, Note_on_c, 0, 48, 96
2, 561600, Note_on_c, 0, 60, 96
2, 561827, Note_on_c, 0, 48, 0
2, 561827, Note_on_c, 0, 60, 0
2, 561840, Note_on_c, 0, 52, 96
2, 562067, Note_on_c, 0, 52, 0
2, 562080, Note_on_c, 0, 55, 96
2, 562307, Note_on_c, 0, 55, 0
2, 562320, Note_on_c, 0, 52, 96
2, 562547, Note_on_c, 0, 52, 0
2, 562560, Note_on_c, 0, 41, 96
2, 562560, Note_on_c, 0, 53, 96
2, 562787, Note_on_c, 0, 41, 0
2, 562787, Note_on_c, 0, 53, 0
2, 562800, Note_on_c, 0, 48, 96
2, 563027, Note_on_c, 0, 48, 0
2, 563040, Note_on_c, 0, 49, 96
2, 563267, Note_on_c, 0, 49, 0
2, 563280, Note_on_c, 0, 48, 96
2, 563507, Note_on_c, 0, 48, 0
2, 563520, Note_on_c, 0, 41, 96
2, 563520, Note_on_c, 0, 53, 96
2, 563747, Note_on_c, 0, 41, 0
2, 563747, Note_on_c, 0, 53, 0
2, 563760, Note_on_c, 0, 48, 96
2, 563987, Note_on_c, 0, 48, 0
2, 564000, Note_on_c, 0, 53, 96
2, 564227, Note_on_c, 0, 53, 0
2, 564240, Note_on_c, 0, 48, 96
2, 564467, Note_on_c, 0, 48, 0
2, 564480, Note_on_c, 0, 46, 96
2, 564480, Note_on_c, 0, 58, 96
2, 564707, Note_on_c, 0, 46, 0
2, 564707, Note_on_c, 0, 58, 0
2, 564720, Note_on_c, 0, 53, 96
2, 564947, Note_on_c, 0, 53, 0
2, 564960, Note_on_c, 0, 56, 96
2, 565187, Note_on_c, 0, 56, 0
2, 565200, Note_on_c, 0, 53, 96
2, 565427, Note_on_c, 0, 53, 0
2, 565440, Note_on_c, 0, 46, 96
2, 565440, Note_on_c, 0, 58, 96
2, 565667, Note_on_c, 0, 46, 0
2, 565667, Note_on_c, 0, 58, 0
2, 565680, Note_on_c, 0, 53, 96
2, 565907, Note_on_c, 0, 53, 0
2, 565920, Note_on_c, 0, 55, 96
2, 566147, Note_on_c, 0, 55, 0
2, 566160, Note_on_c, 0, 53, 96
2, 566387, Note_on_c, 0, 53, 0
2, 566400, Note_on_c, 0, 49, 96
2, 566400, Note_on_c, 0, 61, 96
2, 566627, Note_on_c, 0, 49, 0
2, 566627, Note_on_c, 0, 61, 0
2, 566640, Note_on_c, 0, 53, 96
2, 566867, Note_on_c, 0, 53, 0
2, 566880, Note_on_c, 0, 56, 96
2, 567107, Note_on_c, 0, 56, 0
2, 567120, Note_on_c, 0, 53, 96
2, 567347, Note_on_c, 0, 53, 0
2, 567360, Note_on_c, 0, 49, 96
2, 567360, Note_on_c, 0, 61, 96
2, 567587, Note_on_c, 0, 49, 0
2, 567587, Note_on_c, 0, 61, 0
2, 567600, Note_on_c, 0, 53, 96
2, 567827, Note_on_c, 0, 53, 0
2, 567840, Note_on_c, 0, 55, 96
2, 568067, Note_on_c, 0, 55, 0
2, 568080, Note_on_c, 0, 53, 96
2, 568307, Note_on_c, 0, 53, 0
2, 568320, Note_on_c, 0, 48, 96
2, 568320, Note_on_c, 0, 60, 96
2, 568547, Note_on_c, 0, 48, 0
2, 568547, Note_on_c, 0, 60, 0
2, 568560, Note_on_c, 0, 53, 96
2, 568787, Note_on_c, 0, 53, 0
2, 568800, Note_on_c, 0, 56, 96
2, 569027, Note_on_c, 0, 56, 0
2, 569040, Note_on_c, 0, 53, 96
2, 569267, Note_on_c, 0, 53, 0
2, 569280, Note_on_c, 0, 48, 96
2, 569280, Note_on_c, 0, 60, 96
2, 569507, Note_on_c, 0, 48, 0
2, 569507, Note_on_c, 0, 60, 0
2, 569520, Note_on_c, 0, 52, 96
2, 569747, Note_on_c, 0, 52, 0
2, 569760, Note_on_c, 0, 55, 96
2, 569987, Note_on_c, 0, 55, 0
2, 570000, Note_on_c, 0, 52, 96
2, 570227, Note_on_c, 0, 52, 0
2, 570240, Note_on_c, 0, 41, 96
2, 570240, Note_on_c, 0, 53, 96
2, 570467, Note_on_c, 0, 41, 0
2, 570467, Note_on_c, 0, 53, 0
2, 570480, Note_on_c, 0, 48, 96
2, 570707, Note_on_c, 0, 48, 0
2, 570720, Note_on_c, 0, 49, 96
2, 570947, Note_on_c, 0, 49, 0
2, 570960, Note_on_c, 0, 48, 96
2, 571187, Note_on_c, 0, 48, 0
2, 571200, Note_on_c, 0, 41, 96
2, 571200, Note_on_c, 0, 53, 96
2, 571427, Note_on_c, 0, 41, 0
2, 571427, Note_on_c, 0, 53, 0
2, 571440, Note_on_c, 0, 48, 96
2, 571667, Note_on_c, 0, 48, 0
2, 571680, Note_on_c, 0, 53, 96
2, 571907, Note_on_c, 0, 53, 0
2, 571920, Note_on_c, 0, 48, 96
2, 572147, Note_on_c, 0, 48, 0
2, 572160, Note_on_c, 0, 42, 96
2, 572160, Note_on_c, 0, 54, 96
2, 572387, Note_on_c, 0, 42, 0
2, 572387, Note_on_c, 0, 54, 0
2, 572400, Note_on_c, 0, 48, 96
2, 572627, Note_on_c, 0, 48, 0
2, 572640, Note_on_c, 0, 49, 96
2, 572867, Note_on_c, 0, 49, 0
2, 572880, Note_on_c, 0, 48, 96
2, 573107, Note_on_c, 0, 48, 0
2, 573120, Note_on_c, 0, 42, 96
2, 573120, Note_on_c, 0, 54, 96
2, 573347, Note_on_c, 0, 42, 0
2, 573347, Note_on_c, 0, 54, 0
2, 573360, Note_on_c, 0, 48, 96
2, 573587, Note_on_c, 0, 48, 0
2, 573600, Note_on_c, 0, 49, 96
2, 573827, Note_on_c, 0, 49, 0
2, 573840, Note_on_c, 0, 54, 96
2, 574067, Note_on_c, 0, 54, 0
2, 574080, Note_on_c, 0, 49, 96
2, 574080, Note_on_c, 0, 61, 96
2, 574307, Note_on_c, 0, 49, 0
2, 574307, Note_on_c, 0, 61, 0
2, 574320, Note_on_c, 0, 53, 96
2, 574547, Note_on_c, 0, 53, 0
2, 574560, Note_on_c, 0, 56, 96
2, 574787, Note_on_c, 0, 56, 0
2, 574800, Note_on_c, 0, 53, 96
2, 575027, Note_on_c, 0, 53, 0
2, 575040, Note_on_c, 0, 48, 96
2, 575040, Note_on_c, 0, 60, 96
2, 575267, Note_on_c, 0, 48, 0
2, 575267, Note_on_c, 0, 60, 0
2, 575280, Note_on_c, 0, 52, 96
2, 575507, Note_on_c, 0, 52, 0
2, 575520, Note_on_c, 0, 55, 96
2, 575747, Note_on_c, 0, 55, 0
2, 575760, Note_on_c, 0, 52, 96
2, 575987, Note_on_c, 0, 52, 0
2, 576000, Note_on_c, 0, 49, 96
2, 576455, Note_on_c, 0, 49, 0
2, 576480, Note_on_c, 0, 52, 96
2, 577847, Note_on_c, 0, 52, 0
2, 577920, Key_signature, 4, "major"
2, 577920, Note_on_c, 0, 37, 80
2, 578147, Note_on_c, 0, 37, 0
2, 578160, Note_on_c, 0, 44, 80
2, 578387, Note_on_c, 0, 44, 0
2, 578400, Note_on_c, 0, 51, 80
2, 578627, Note_on_c, 0, 51, 0
2, 578640, Note_on_c, 0, 47, 80
2, 578867, Note_on_c, 0, 47, 0
2, 578880, Note_on_c, 0, 49, 80
2, 579107, Note_on_c, 0, 49, 0
2, 579120, Note_on_c, 0, 44, 80
2, 579233, Note_on_c, 0, 44, 0
2, 579240, Note_on_c, 0, 40, 80
2, 579467, Note_on_c, 0, 40, 0
2, 579480, Note_on_c, 0, 44, 80
2, 579593, Note_on_c, 0, 44, 0
2, 579600, Note_on_c, 0, 37, 80
2, 580055, Note_on_c, 0, 37, 0
2, 580080, Note_on_c, 0, 44, 80
2, 580307, Note_on_c, 0, 44, 0
2, 580320, Note_on_c, 0, 51, 80
2, 580547, Note_on_c, 0, 51, 0
2, 580560, Note_on_c, 0, 52, 80
2, 580787, Note_on_c, 0, 52, 0
2, 580800, Note_on_c, 0, 54, 80
2, 581027, Note_on_c, 0, 54, 0
2, 581040, Note_on_c, 0, 52, 80
2, 581153, Note_on_c, 0, 52, 0
2, 581160, Note_on_c, 0, 51, 80
2, 581501, Note_on_c, 0, 51, 0
2, 581520, Note_on_c, 0, 47, 80
2, 581747, Note_on_c, 0, 47, 0
2, 581760, Note_on_c, 0, 37, 80
2, 581987, Note_on_c, 0, 37, 0
2, 582000, Note_on_c, 0, 44, 80
2, 582227, Note_on_c, 0, 44, 0
2, 582240, Note_on_c, 0, 51, 80
2, 582467, Note_on_c, 0, 51, 0
2, 582480, Note_on_c, 0, 47, 80
2, 582707, Note_on_c, 0, 47, 0
2, 582720, Note_on_c, 0, 49, 80
2, 582947, Note_on_c, 0, 49, 0
2, 582960, Note_on_c, 0, 44, 80
2, 583073, Note_on_c, 0, 44, 0
2, 583080, Note_on_c, 0, 40, 80
2, 583307, Note_on_c, 0, 40, 0
2, 583320, Note_on_c, 0, 44, 80
2, 583433, Note_on_c, 0, 44, 0
2, 583440, Note_on_c, 0, 37, 80
2, 583895, Note_on_c, 0, 37, 0
2, 583920, Note_on_c, 0, 44, 80
2, 584147, Note_on_c, 0, 44, 0
2, 584160, Note_on_c, 0, 51, 80
2, 584387, Note_on_c, 0, 51, 0
2, 584400, Note_on_c, 0, 52, 80
2, 584627, Note_on_c, 0, 52, 0
2, 584640, Note_on_c, 0, 54, 80
2, 584867, Note_on_c, 0, 54, 0
2, 584880, Note_on_c, 0, 52, 80
2, 584993, Note_on_c, 0, 52, 0
2, 585000, Note_on_c, 0, 51, 80
2, 585341, Note_on_c, 0, 51, 0
2, 585360, Note_on_c, 0, 47, 80
2, 585587, Note_on_c, 0, 47, 0
2, 585600, Note_on_c, 0, 35, 80
2, 585827, Note_on_c, 0, 35, 0
2, 585840, Note_on_c, 0, 42, 80
2, 586067, Note_on_c, 0, 42, 0
2, 586080, Note_on_c, 0, 49, 80
2, 586307, Note_on_c, 0, 49, 0
2, 586320, Note_on_c, 0, 45, 80
2, 586547, Note_on_c, 0, 45, 0
2, 586560, Note_on_c, 0, 47, 80
2, 586787, Note_on_c, 0, 47, 0
2, 586800, Note_on_c, 0, 42, 80
2, 586913, Note_on_c, 0, 42, 0
2, 586920, Note_on_c, 0, 38, 80
2, 587147, Note_on_c, 0, 38, 0
2, 587160, Note_on_c, 0, 42, 80
2, 587273, Note_on_c, 0, 42, 0
2, 587280, Note_on_c, 0, 35, 80
2, 587735, Note_on_c, 0, 35, 0
2, 587760, Note_on_c, 0, 42, 80
2, 587987, Note_on_c, 0, 42, 0
2, 588000, Note_on_c, 0, 49, 80
2, 588227, Note_on_c, 0, 49, 0
2, 588240, Note_on_c, 0, 50, 80
2, 588467, Note_on_c, 0, 50, 0
2, 588480, Note_on_c, 0, 52, 80
2, 588707, Note_on_c, 0, 52, 0
2, 588720, Note_on_c, 0, 50, 80
2, 588833, Note_on_c, 0, 50, 0
2, 588840, Note_on_c, 0, 49, 80
2, 589181, Note_on_c, 0, 49, 0
2, 589200, Note_on_c, 0, 45, 80
2, 589427, Note_on_c, 0, 45, 0
2, 589440, Note_on_c, 0, 35, 80
2, 589667, Note_on_c, 0, 35, 0
2, 589680, Note_on_c, 0, 42, 80
2, 589907, Note_on_c, 0, 42, 0
2, 589920, Note_on_c, 0, 49, 80
2, 590147, Note_on_c, 0, 49, 0
2, 590160, Note_on_c, 0, 45, 80
2, 590387, Note_on_c, 0, 45, 0
2, 590400, Note_on_c, 0, 47, 80
2, 590627, Note_on_c, 0, 47, 0
2, 590640, Note_on_c, 0, 42, 80
2, 590753, Note_on_c, 0, 42, 0
2, 590760, Note_on_c, 0, 38, 80
2, 590987, Note_on_c, 0, 38, 0
2, 591000, Note_on_c, 0, 42, 80
2, 591113, Note_on_c, 0, 42, 0
2, 591120, Note_on_c, 0, 35, 80
2, 591575, Note_on_c, 0, 35, 0
2, 591600, Note_on_c, 0, 42, 80
2, 591827, Note_on_c, 0, 42, 0
2, 591840, Note_on_c, 0, 49, 80
2, 592067, Note_on_c, 0, 49, 0
2, 592080, Note_on_c, 0, 50, 80
2, 592307, Note_on_c, 0, 50, 0
2, 592320, Note_on_c, 0, 52, 80
2, 592547, Note_on_c, 0, 52, 0
2, 592560, Note_on_c, 0, 50, 80
2, 592673, Note_on_c, 0, 50, 0
2, 592680, Note_on_c, 0, 49, 80
2, 593021, Note_on_c, 0, 49, 0
2, 593040, Note_on_c, 0, 45, 80
2, 593267, Note_on_c, 0, 45, 0
2, 593280, Note_on_c, 0, 35, 80
2, 593280, Note_on_c, 0, 47, 80
2, 593735, Note_on_c, 0, 35, 0
2, 593735, Note_on_c, 0, 47, 0
2, 593760, Note_on_c, 0, 31, 80
2, 595127, Note_on_c, 0, 31, 0
2, 595200, Note_on_c, 0, 31, 80
2, 595655, Note_on_c, 0, 31, 0
2, 595680, Note_on_c, 0, 37, 80
2, 595680, Note_on_c, 0, 49, 80
2, 596135, Note_on_c, 0, 37, 0
2, 596135, Note_on_c, 0, 49, 0
2, 596160, Note_on_c, 0, 38, 80
2, 596160, Note_on_c, 0, 50, 80
2, 596615, Note_on_c, 0, 38, 0
2, 596615, Note_on_c, 0, 50, 0
2, 596640, Note_on_c, 0, 40, 80
2, 596640, Note_on_c, 0, 52, 80
2, 597095, Note_on_c, 0, 40, 0
2, 597095, Note_on_c, 0, 52, 0
2, 597120, Note_on_c, 0, 42, 80
2, 597120, Note_on_c, 0, 54, 80
2, 597575, Note_on_c, 0, 42, 0
2, 597575, Note_on_c, 0, 54, 0
2, 597600, Note_on_c, 0, 30, 80
2, 598967, Note_on_c, 0, 30, 0
2, 599040, Note_on_c, 0, 40, 80
2, 599040, Note_on_c, 0, 52, 80
2, 599495, Note_on_c, 0, 40, 0
2, 599495, Note_on_c, 0, 52, 0
2, 599520, Note_on_c, 0, 33, 80
2, 599975, Note_on_c, 0, 33, 0
2, 600000, Note_on_c, 0, 38, 80
2, 600000, Note_on_c, 0, 50, 80
2, 600911, Note_on_c, 0, 38, 0
2, 600911, Note_on_c, 0, 50, 0
2, 600960, Note_on_c, 0, 37, 80
2, 600960, Note_on_c, 0, 49, 80
2, 601415, Note_on_c, 0, 37, 0
2, 601415, Note_on_c, 0, 49, 0
2, 601440, Note_on_c, 0, 32, 80
2, 602807, Note_on_c, 0, 32, 0
2, 602880, Note_on_c, 0, 38, 80
2, 602880, Note_on_c, 0, 50, 80
2, 603791, Note_on_c, 0, 38, 0
2, 603791, Note_on_c, 0, 50, 0
2, 603840, Note_on_c, 0, 40, 80
2, 603840, Note_on_c, 0, 52, 80
2, 604751, Note_on_c, 0, 40, 0
2, 604751, Note_on_c, 0, 52, 0
2, 604800, Note_on_c, 0, 42, 80
2, 604800, Note_on_c, 0, 54, 80
2, 605255, Note_on_c, 0, 42, 0
2, 605255, Note_on_c, 0, 54, 0
2, 605280, Note_on_c, 0, 30, 80
2, 606191, Note_on_c, 0, 30, 0
2, 606600, Note_on_c, 0, 43, 80
2, 606600, Note_on_c, 0, 55, 80
2, 606713, Note_on_c, 0, 43, 0
2, 606713, Note_on_c, 0, 55, 0
2, 606720, Note_on_c, 0, 42, 80
2, 606720, Note_on_c, 0, 54, 80
2, 607631, Note_on_c, 0, 42, 0
2, 607631, Note_on_c, 0, 54, 0
2, 607680, Note_on_c, 0, 46, 80
2, 607680, Note_on_c, 0, 58, 80
2, 608591, Note_on_c, 0, 46, 0
2, 608591, Note_on_c, 0, 58, 0
2, 608640, Key_signature, -5, "major"
2, 608640, Note_on_c, 0, 39, 80
2, 608981, Note_on_c, 0, 39, 0
2, 609000, Note_on_c, 0, 46, 80
2, 609113, Note_on_c, 0, 46, 0
2, 609120, Note_on_c, 0, 42, 80
2, 609347, Note_on_c, 0, 42, 0
2, 609360, Note_on_c, 0, 39, 80
2, 609587, Note_on_c, 0, 39, 0
2, 609600, Note_on_c, 0, 42, 80
2, 609827, Note_on_c, 0, 42, 0
2, 609840, Note_on_c, 0, 49, 80
2, 610067, Note_on_c, 0, 49, 0
2, 610080, Note_on_c, 0, 42, 80
2, 610307, Note_on_c, 0, 42, 0
2, 610320, Note_on_c, 0, 44, 80
2, 610547, Note_on_c, 0, 44, 0
2, 610800, Note_on_c, 0, 44, 80
2, 611027, Note_on_c, 0, 44, 0
2, 611040, Note_on_c, 0, 54, 80
2, 611267, Note_on_c, 0, 54, 0
2, 611280, Note_on_c, 0, 51, 80
2, 611507, Note_on_c, 0, 51, 0
2, 611520, Note_on_c, 0, 44, 80
2, 611747, Note_on_c, 0, 44, 0
2, 611760, Note_on_c, 0, 51, 80
2, 611873, Note_on_c, 0, 51, 0
2, 611880, Note_on_c, 0, 46, 80
2, 612221, Note_on_c, 0, 46, 0
2, 612240, Note_on_c, 0, 49, 80
2, 612467, Note_on_c, 0, 49, 0
2, 612480, Note_on_c, 0, 39, 80
2, 612821, Note_on_c, 0, 39, 0
2, 612840, Note_on_c, 0, 46, 80
2, 612953, Note_on_c, 0, 46, 0
2, 612960, Note_on_c, 0, 42, 80
2, 613187, Note_on_c, 0, 42, 0
2, 613200, Note_on_c, 0, 39, 80
2, 613427, Note_on_c, 0, 39, 0
2, 613440, Note_on_c, 0, 42, 80
2, 613667, Note_on_c, 0, 42, 0
2, 613680, Note_on_c, 0, 49, 80
2, 613907, Note_on_c, 0, 49, 0
2, 613920, Note_on_c, 0, 42, 80
2, 614147, Note_on_c, 0, 42, 0
2, 614160, Note_on_c, 0, 44, 80
2, 614387, Note_on_c, 0, 44, 0
2, 614640, Note_on_c, 0, 44, 80
2, 614867, Note_on_c, 0, 44, 0
2, 614880, Note_on_c, 0, 54, 80
2, 615107, Note_on_c, 0, 54, 0
2, 615120, Note_on_c, 0, 51, 80
2, 615347, Note_on_c, 0, 51, 0
2, 615360, Note_on_c, 0, 44, 80
2, 615587, Note_on_c, 0, 44, 0
2, 615600, Note_on_c, 0, 51, 80
2, 615713, Note_on_c, 0, 51, 0
2, 615720, Note_on_c, 0, 46, 80
2, 616061, Note_on_c, 0, 46, 0
2, 616080, Note_on_c, 0, 49, 80
2, 616307, Note_on_c, 0, 49, 0
2, 616320, Note_on_c, 0, 39, 80
2, 616661, Note_on_c, 0, 39, 0
2, 616680, Note_on_c, 0, 46, 80
2, 616793, Note_on_c, 0, 46, 0
2, 616800, Note_on_c, 0, 42, 80
2, 617027, Note_on_c, 0, 42, 0
2, 617040, Note_on_c, 0, 39, 80
2, 617267, Note_on_c, 0, 39, 0
2, 617280, Note_on_c, 0, 42, 80
2, 617507, Note_on_c, 0, 42, 0
2, 617520, Note_on_c, 0, 49, 80
2, 617747, Note_on_c, 0, 49, 0
2, 617760, Note_on_c, 0, 42, 80
2, 617987, Note_on_c, 0, 42, 0
2, 618000, Note_on_c, 0, 44, 80
2, 618227, Note_on_c, 0, 44, 0
2, 618480, Note_on_c, 0, 44, 80
2, 618707, Note_on_c, 0, 44, 0
2, 618720, Note_on_c, 0, 54, 80
2, 618947, Note_on_c, 0, 54, 0
2, 618960, Note_on_c, 0, 51, 80
2, 619187, Note_on_c, 0, 51, 0
2, 619200, Note_on_c, 0, 44, 80
2, 619427, Note_on_c, 0, 44, 0
2, 619440, Note_on_c, 0, 51, 80
2, 619553, Note_on_c, 0, 51, 0
2, 619560, Note_on_c, 0, 46, 80
2, 619901, Note_on_c, 0, 46, 0
2, 619920, Note_on_c, 0, 49, 80
2, 620147, Note_on_c, 0, 49, 0
2, 620160, Note_on_c, 0, 39, 80
2, 620501, Note_on_c, 0, 39, 0
2, 620520, Note_on_c, 0, 46, 80
2, 620633, Note_on_c, 0, 46, 0
2, 620640, Note_on_c, 0, 42, 80
2, 620867, Note_on_c, 0, 42, 0
2, 620880, Note_on_c, 0, 39, 80
2, 621107, Note_on_c, 0, 39, 0
2, 621120, Note_on_c, 0, 42, 80
2, 621347, Note_on_c, 0, 42, 0
2, 621360, Note_on_c, 0, 49, 80
2, 621587, Note_on_c, 0, 49, 0
2, 621600, Note_on_c, 0, 42, 80
2, 621827, Note_on_c, 0, 42, 0
2, 621840, Note_on_c, 0, 44, 80
2, 622067, Note_on_c, 0, 44, 0
2, 622320, Note_on_c, 0, 44, 80
2, 622547, Note_on_c, 0, 44, 0
2, 622560, Note_on_c, 0, 54, 80
2, 622787, Note_on_c, 0, 54, 0
2, 622800, Note_on_c, 0, 51, 80
2, 623027, Note_on_c, 0, 51, 0
2, 623040, Note_on_c, 0, 44, 80
2, 623267, Note_on_c, 0, 44, 0
2, 623280, Note_on_c, 0, 51, 80
2, 623393, Note_on_c, 0, 51, 0
2, 623400, Note_on_c, 0, 46, 80
2, 623741, Note_on_c, 0, 46, 0
2, 623760, Note_on_c, 0, 49, 80
2, 623987, Note_on_c, 0, 49, 0
2, 624000, Note_on_c, 0, 39, 80
2, 624341, Note_on_c, 0, 39, 0
2, 624360, Note_on_c, 0, 46, 80
2, 624701, Note_on_c, 0, 46, 0
2, 624720, Note_on_c, 0, 39, 80
2, 624947, Note_on_c, 0, 39, 0
2, 624960, Note_on_c, 0, 42, 80
2, 625187, Note_on_c, 0, 42, 0
2, 625200, Note_on_c, 0, 49, 80
2, 625427, Note_on_c, 0, 49, 0
2, 625440, Note_on_c, 0, 42, 80
2, 625667, Note_on_c, 0, 42, 0
2, 625680, Note_on_c, 0, 44, 80
2, 625907, Note_on_c, 0, 44, 0
2, 626160, Note_on_c, 0, 44, 80
2, 626387, Note_on_c, 0, 44, 0
2, 626400, Note_on_c, 0, 44, 80
2, 626627, Note_on_c, 0, 44, 0
2, 626640, Note_on_c, 0, 51, 80
2, 626867, Note_on_c, 0, 51, 0
2, 626880, Note_on_c, 0, 44, 80
2, 627107, Note_on_c, 0, 44, 0
2, 627120, Note_on_c, 0, 51, 80
2, 627233, Note_on_c, 0, 51, 0
2, 627240, Note_on_c, 0, 46, 80
2, 627581, Note_on_c, 0, 46, 0
2, 627600, Note_on_c, 0, 42, 80
2, 627827, Note_on_c, 0, 42, 0
2, 627840, Note_on_c, 0, 39, 80
2, 628181, Note_on_c, 0, 39, 0
2, 628200, Note_on_c, 0, 46, 80
2, 628541, Note_on_c, 0, 46, 0
2, 628560, Note_on_c, 0, 39, 80
2, 628787, Note_on_c, 0, 39, 0
2, 628800, Note_on_c, 0, 42, 80
2, 629027, Note_on_c, 0, 42, 0
2, 629040, Note_on_c, 0, 49, 80
2, 629267, Note_on_c, 0, 49, 0
2, 629280, Note_on_c, 0, 42, 80
2, 629507, Note_on_c, 0, 42, 0
2, 629520, Note_on_c, 0, 44, 80
2, 629747, Note_on_c, 0, 44, 0
2, 630000, Note_on_c, 0, 44, 80
2, 630227, Note_on_c, 0, 44, 0
2, 630240, Note_on_c, 0, 44, 80
2, 630467, Note_on_c, 0, 44, 0
2, 630480, Note_on_c, 0, 51, 80
2, 630707, Note_on_c, 0, 51, 0
2, 630720, Note_on_c, 0, 44, 80
2, 630959, Note_on_c, 0, 44, 0
2, 631680, Key_signature, -6, "major"
2, 631680, Note_on_c, 0, 47, 80
2, 631907, Note_on_c, 0, 47, 0
2, 631920, Note_on_c, 0, 35, 80
2, 632147, Note_on_c, 0, 35, 0
2, 632160, Note_on_c, 0, 47, 80
2, 632387, Note_on_c, 0, 47, 0
2, 632400, Note_on_c, 0, 35, 80
2, 632627, Note_on_c, 0, 35, 0
2, 632640, Note_on_c, 0, 47, 80
2, 632867, Note_on_c, 0, 47, 0
2, 632880, Note_on_c, 0, 35, 80
2, 633107, Note_on_c, 0, 35, 0
2, 633120, Note_on_c, 0, 47, 80
2, 633347, Note_on_c, 0, 47, 0
2, 633360, Note_on_c, 0, 35, 80
2, 633587, Note_on_c, 0, 35, 0
2, 633600, Note_on_c, 0, 46, 80
2, 633827, Note_on_c, 0, 46, 0
2, 633840, Note_on_c, 0, 34, 80
2, 634067, Note_on_c, 0, 34, 0
2, 634080, Note_on_c, 0, 46, 80
2, 634307, Note_on_c, 0, 46, 0
2, 634320, Note_on_c, 0, 34, 80
2, 634547, Note_on_c, 0, 34, 0
2, 634560, Note_on_c, 0, 46, 80
2, 634787, Note_on_c, 0, 46, 0
2, 634800, Note_on_c, 0, 34, 80
2, 635027, Note_on_c, 0, 34, 0
2, 635040, Note_on_c, 0, 46, 80
2, 635153, Note_on_c, 0, 46, 0
2, 635160, Note_on_c, 0, 42, 80
2, 635273, Note_on_c, 0, 42, 0
2, 635280, Note_on_c, 0, 39, 80
2, 635507, Note_on_c, 0, 39, 0
2, 635520, Note_on_c, 0, 44, 80
2, 635747, Note_on_c, 0, 44, 0
2, 635760, Note_on_c, 0, 33, 80
2, 635987, Note_on_c, 0, 33, 0
2, 636000, Note_on_c, 0, 44, 80
2, 636227, Note_on_c, 0, 44, 0
2, 636240, Note_on_c, 0, 33, 80
2, 636467, Note_on_c, 0, 33, 0
2, 636480, Note_on_c, 0, 46, 80
2, 636707, Note_on_c, 0, 46, 0
2, 636720, Note_on_c, 0, 34, 80
2, 636947, Note_on_c, 0, 34, 0
2, 636960, Note_on_c, 0, 34, 80
2, 637415, Note_on_c, 0, 34, 0
2, 637440, Note_on_c, 0, 51, 80
2, 637667, Note_on_c, 0, 51, 0
2, 637680, Note_on_c, 0, 39, 80
2, 637907, Note_on_c, 0, 39, 0
2, 637920, Note_on_c, 0, 53, 80
2, 638147, Note_on_c, 0, 53, 0
2, 638160, Note_on_c, 0, 41, 80
2, 638387, Note_on_c, 0, 41, 0
2, 638400, Note_on_c, 0, 54, 80
2, 638627, Note_on_c, 0, 54, 0
2, 638640, Note_on_c, 0, 42, 80
2, 638867, Note_on_c, 0, 42, 0
2, 638880, Note_on_c, 0, 56, 80
2, 639107, Note_on_c, 0, 56, 0
2, 639120, Note_on_c, 0, 44, 80
2, 639347, Note_on_c, 0, 44, 0
2, 639360, Note_on_c, 0, 47, 80
2, 639587, Note_on_c, 0, 47, 0
2, 639600, Note_on_c, 0, 35, 80
2, 639827, Note_on_c, 0, 35, 0
2, 639840, Note_on_c, 0, 47, 80
2, 640067, Note_on_c, 0, 47, 0
2, 640080, Note_on_c, 0, 35, 80
2, 640307, Note_on_c, 0, 35, 0
2, 640320, Note_on_c, 0, 47, 80
2, 640547, Note_on_c, 0, 47, 0
2, 640560, Note_on_c, 0, 35, 80
2, 640787, Note_on_c, 0, 35, 0
2, 640800, Note_on_c, 0, 47, 80
2, 641027, Note_on_c, 0, 47, 0
2, 641040, Note_on_c, 0, 35, 80
2, 641267, Note_on_c, 0, 35, 0
2, 641280, Note_on_c, 0, 46, 80
2, 641507, Note_on_c, 0, 46, 0
2, 641520, Note_on_c, 0, 34, 80
2, 641747, Note_on_c, 0, 34, 0
2, 641760, Note_on_c, 0, 46, 80
2, 641987, Note_on_c, 0, 46, 0
2, 642000, Note_on_c, 0, 34, 80
2, 642227, Note_on_c, 0, 34, 0
2, 642240, Note_on_c, 0, 46, 80
2, 642467, Note_on_c, 0, 46, 0
2, 642480, Note_on_c, 0, 34, 80
2, 642707, Note_on_c, 0, 34, 0
2, 642720, Note_on_c, 0, 46, 80
2, 642833, Note_on_c, 0, 46, 0
2, 642840, Note_on_c, 0, 42, 80
2, 642953, Note_on_c, 0, 42, 0
2, 642960, Note_on_c, 0, 39, 80
2, 643187, Note_on_c, 0, 39, 0
2, 643200, Note_on_c, 0, 44, 80
2, 643427, Note_on_c, 0, 44, 0
2, 643440, Note_on_c, 0, 33, 80
2, 643667, Note_on_c, 0, 33, 0
2, 643680, Note_on_c, 0, 44, 80
2, 643907, Note_on_c, 0, 44, 0
2, 643920, Note_on_c, 0, 33, 80
2, 644147, Note_on_c, 0, 33, 0
2, 644160, Note_on_c, 0, 46, 80
2, 644387, Note_on_c, 0, 46, 0
2, 644400, Note_on_c, 0, 34, 80
2, 644627, Note_on_c, 0, 34, 0
2, 644640, Note_on_c, 0, 34, 80
2, 645095, Note_on_c, 0, 34, 0
2, 647040, Key_signature, -3, "major"
2, 647040, Note_on_c, 0, 36, 80
2, 647267, Note_on_c, 0, 36, 0
2, 647280, Note_on_c, 0, 48, 80
2, 647507, Note_on_c, 0, 48, 0
2, 647520, Note_on_c, 0, 36, 80
2, 647747, Note_on_c, 0, 36, 0
2, 647760, Note_on_c, 0, 48, 80
2, 647987, Note_on_c, 0, 48, 0
2, 648000, Note_on_c, 0, 36, 80
2, 648227, Note_on_c, 0, 36, 0
2, 648240, Note_on_c, 0, 48, 80
2, 648467, Note_on_c, 0, 48, 0
2, 648480, Note_on_c, 0, 36, 80
2, 648707, Note_on_c, 0, 36, 0
2, 648720, Note_on_c, 0, 48, 80
2, 648947, Note_on_c, 0, 48, 0
2, 648960, Note_on_c, 0, 36, 80
2, 649187, Note_on_c, 0, 36, 0
2, 649200, Note_on_c, 0, 48, 80
2, 649427, Note_on_c, 0, 48, 0
2, 649440, Note_on_c, 0, 36, 80
2, 649667, Note_on_c, 0, 36, 0
2, 649680, Note_on_c, 0, 48, 80
2, 649907, Note_on_c, 0, 48, 0
2, 649920, Note_on_c, 0, 36, 80
2, 650375, Note_on_c, 0, 36, 0
2, 650400, Note_on_c, 0, 36, 80
2, 650627, Note_on_c, 0, 36, 0
2, 650640, Note_on_c, 0, 48, 80
2, 650867, Note_on_c, 0, 48, 0
2, 650880, Note_on_c, 0, 34, 80
2, 651107, Note_on_c, 0, 34, 0
2, 651120, Note_on_c, 0, 46, 80
2, 651347, Note_on_c, 0, 46, 0
2, 651360, Note_on_c, 0, 34, 80
2, 651587, Note_on_c, 0, 34, 0
2, 651600, Note_on_c, 0, 46, 80
2, 651827, Note_on_c, 0, 46, 0
2, 651840, Note_on_c, 0, 34, 80
2, 652067, Note_on_c, 0, 34, 0
2, 652080, Note_on_c, 0, 46, 80
2, 652307, Note_on_c, 0, 46, 0
2, 652320, Note_on_c, 0, 34, 80
2, 652547, Note_on_c, 0, 34, 0
2, 652560, Note_on_c, 0, 46, 80
2, 652787, Note_on_c, 0, 46, 0
2, 652800, Note_on_c, 0, 35, 80
2, 653027, Note_on_c, 0, 35, 0
2, 653040, Note_on_c, 0, 47, 80
2, 653267, Note_on_c, 0, 47, 0
2, 653280, Note_on_c, 0, 35, 80
2, 653507, Note_on_c, 0, 35, 0
2, 653520, Note_on_c, 0, 47, 80
2, 653747, Note_on_c, 0, 47, 0
2, 653760, Note_on_c, 0, 35, 80
2, 654215, Note_on_c, 0, 35, 0
2, 654240, Note_on_c, 0, 35, 80
2, 654467, Note_on_c, 0, 35, 0
2, 654480, Note_on_c, 0, 47, 80
2, 654707, Note_on_c, 0, 47, 0
2, 654720, Note_on_c, 0, 36, 80
2, 654947, Note_on_c, 0, 36, 0
2, 654960, Note_on_c, 0, 48, 80
2, 655187, Note_on_c, 0, 48, 0
2, 655200, Note_on_c, 0, 36, 80
2, 655427, Note_on_c, 0, 36, 0
2, 655440, Note_on_c, 0, 48, 80
2, 655667, Note_on_c, 0, 48, 0
2, 655680, Note_on_c, 0, 36, 80
2, 655907, Note_on_c, 0, 36, 0
2, 655920, Note_on_c, 0, 48, 80
2, 656147, Note_on_c, 0, 48, 0
2, 656160, Note_on_c, 0, 36, 80
2, 656387, Note_on_c, 0, 36, 0
2, 656400, Note_on_c, 0, 48, 80
2, 656627, Note_on_c, 0, 48, 0
2, 656640, Note_on_c, 0, 38, 80
2, 656867, Note_on_c, 0, 38, 0
2, 656880, Note_on_c, 0, 50, 80
2, 657107, Note_on_c, 0, 50, 0
2, 657120, Note_on_c, 0, 38, 80
2, 657347, Note_on_c, 0, 38, 0
2, 657360, Note_on_c, 0, 50, 80
2, 657587, Note_on_c, 0, 50, 0
2, 657600, Note_on_c, 0, 38, 80
2, 658055, Note_on_c, 0, 38, 0
2, 658080, Note_on_c, 0, 38, 80
2, 658307, Note_on_c, 0, 38, 0
2, 658320, Note_on_c, 0, 50, 80
2, 658547, Note_on_c, 0, 50, 0
2, 658560, Note_on_c, 0, 31, 80
2, 658787, Note_on_c, 0, 31, 0
2, 658800, Note_on_c, 0, 43, 80
2, 659027, Note_on_c, 0, 43, 0
2, 659040, Note_on_c, 0, 31, 80
2, 659267, Note_on_c, 0, 31, 0
2, 659280, Note_on_c, 0, 43, 80
2, 659507, Note_on_c, 0, 43, 0
2, 659520, Note_on_c, 0, 31, 80
2, 659747, Note_on_c, 0, 31, 0
2, 659760, Note_on_c, 0, 43, 80
2, 659987, Note_on_c, 0, 43, 0
2, 660000, Note_on_c, 0, 31, 80
2, 660227, Note_on_c, 0, 31, 0
2, 660240, Note_on_c, 0, 33, 80
2, 660467, Note_on_c, 0, 33, 0
2, 660480, Note_on_c, 0, 34, 80
2, 660707, Note_on_c, 0, 34, 0
2, 660720, Note_on_c, 0, 46, 80
2, 660947, Note_on_c, 0, 46, 0
2, 660960, Note_on_c, 0, 34, 80
2, 661187, Note_on_c, 0, 34, 0
2, 661200, Note_on_c, 0, 46, 80
2, 661427, Note_on_c, 0, 46, 0
2, 661440, Note_on_c, 0, 34, 80
2, 662351, Note_on_c, 0, 34, 0
2, 662400, Key_signature, -1, "major"
2, 662400, Note_on_c, 0, 38, 80
2, 662627, Note_on_c, 0, 38, 0
2, 662640, Note_on_c, 0, 38, 80
2, 662867, Note_on_c, 0, 38, 0
2, 662880, Note_on_c, 0, 38, 80
2, 662993, Note_on_c, 0, 38, 0
2, 663000, Note_on_c, 0, 38, 80
2, 663227, Note_on_c, 0, 38, 0
2, 663240, Note_on_c, 0, 38, 80
2, 663353, Note_on_c, 0, 38, 0
2, 663360, Note_on_c, 0, 38, 80
2, 663419, Note_on_c, 0, 38, 0
2, 663480, Note_on_c, 0, 38, 80
2, 663599, Note_on_c, 0, 38, 0
2, 663720, Note_on_c, 0, 38, 80
2, 663833, Note_on_c, 0, 38, 0
2, 663840, Note_on_c, 0, 38, 80
2, 663953, Note_on_c, 0, 38, 0
2, 663960, Note_on_c, 0, 38, 80
2, 664073, Note_on_c, 0, 38, 0
2, 664080, Note_on_c, 0, 38, 80
2, 664307, Note_on_c, 0, 38, 0
2, 664320, Note_on_c, 0, 36, 80
2, 664547, Note_on_c, 0, 36, 0
2, 664560, Note_on_c, 0, 36, 80
2, 664787, Note_on_c, 0, 36, 0
2, 664800, Note_on_c, 0, 36, 80
2, 664913, Note_on_c, 0, 36, 0
2, 664920, Note_on_c, 0, 36, 80
2, 665039, Note_on_c, 0, 36, 0
2, 665160, Note_on_c, 0, 36, 80
2, 665279, Note_on_c, 0, 36, 0
2, 665400, Note_on_c, 0, 36, 80
2, 665519, Note_on_c, 0, 36, 0
2, 665640, Note_on_c, 0, 36, 80
2, 665753, Note_on_c, 0, 36, 0
2, 665760, Note_on_c, 0, 36, 80
2, 665873, Note_on_c, 0, 36, 0
2, 665880, Note_on_c, 0, 36, 80
2, 665993, Note_on_c, 0, 36, 0
2, 666000, Note_on_c, 0, 36, 80
2, 666227, Note_on_c, 0, 36, 0
2, 666240, Note_on_c, 0, 35, 80
2, 666467, Note_on_c, 0, 35, 0
2, 666480, Note_on_c, 0, 35, 80
2, 666707, Note_on_c, 0, 35, 0
2, 666720, Note_on_c, 0, 35, 80
2, 666833, Note_on_c, 0, 35, 0
2, 666840, Note_on_c, 0, 35, 80
2, 666959, Note_on_c, 0, 35, 0
2, 667080, Note_on_c, 0, 35, 80
2, 667199, Note_on_c, 0, 35, 0
2, 667320, Note_on_c, 0, 35, 80
2, 667439, Note_on_c, 0, 35, 0
2, 667560, Note_on_c, 0, 35, 80
2, 667673, Note_on_c, 0, 35, 0
2, 667680, Note_on_c, 0, 35, 80
2, 667793, Note_on_c, 0, 35, 0
2, 667800, Note_on_c, 0, 35, 80
2, 667913, Note_on_c, 0, 35, 0
2, 667920, Note_on_c, 0, 35, 80
2, 668147, Note_on_c, 0, 35, 0
2, 668160, Note_on_c, 0, 34, 80
2, 668387, Note_on_c, 0, 34, 0
2, 668400, Note_on_c, 0, 34, 80
2, 668627, Note_on_c, 0, 34, 0
2, 668640, Note_on_c, 0, 34, 80
2, 668753, Note_on_c, 0, 34, 0
2, 668760, Note_on_c, 0, 34, 80
2, 668879, Note_on_c, 0, 34, 0
2, 669000, Note_on_c, 0, 36, 80
2, 669119, Note_on_c, 0, 36, 0
2, 669240, Note_on_c, 0, 36, 80
2, 669359, Note_on_c, 0, 36, 0
2, 669480, Note_on_c, 0, 36, 80
2, 669593, Note_on_c, 0, 36, 0
2, 669600, Note_on_c, 0, 36, 80
2, 669713, Note_on_c, 0, 36, 0
2, 669720, Note_on_c, 0, 36, 80
2, 669833, Note_on_c, 0, 36, 0
2, 669840, Note_on_c, 0, 36, 80
2, 670067, Note_on_c, 0, 36, 0
2, 670080, Note_on_c, 0, 38, 96
2, 670080, Note_on_c, 0, 50, 96
2, 670307, Note_on_c, 0, 38, 0
2, 670307, Note_on_c, 0, 50, 0
2, 670320, Note_on_c, 0, 38, 96
2, 670320, Note_on_c, 0, 50, 96
2, 670547, Note_on_c, 0, 38, 0
2, 670547, Note_on_c, 0, 50, 0
2, 670560, Note_on_c, 0, 38, 96
2, 670560, Note_on_c, 0, 50, 96
2, 670673, Note_on_c, 0, 38, 0
2, 670673, Note_on_c, 0, 50, 0
2, 670680, Note_on_c, 0, 38, 96
2, 670680, Note_on_c, 0, 50, 96
2, 670799, Note_on_c, 0, 38, 0
2, 670799, Note_on_c, 0, 50, 0
2, 670920, Note_on_c, 0, 38, 96
2, 670920, Note_on_c, 0, 50, 96
2, 671039, Note_on_c, 0, 38, 0
2, 671039, Note_on_c, 0, 50, 0
2, 671160, Note_on_c, 0, 38, 96
2, 671160, Note_on_c, 0, 50, 96
2, 671387, Note_on_c, 0, 38, 0
2, 671387, Note_on_c, 0, 50, 0
2, 671400, Note_on_c, 0, 38, 96
2, 671400, Note_on_c, 0, 50, 96
2, 671513, Note_on_c, 0, 38, 0
2, 671513, Note_on_c, 0, 50, 0
2, 671520, Note_on_c, 0, 38, 96
2, 671520, Note_on_c, 0, 50, 96
2, 671633, Note_on_c, 0, 38, 0
2, 671633, Note_on_c, 0, 50, 0
2, 671640, Note_on_c, 0, 38, 96
2, 671640, Note_on_c, 0, 50, 96
2, 671753, Note_on_c, 0, 38, 0
2, 671753, Note_on_c, 0, 50, 0
2, 671760, Note_on_c, 0, 38, 96
2, 671760, Note_on_c, 0, 45, 96
2, 671760, Note_on_c, 0, 50, 96
2, 671987, Note_on_c, 0, 38, 0
2, 671987, Note_on_c, 0, 45, 0
2, 671987, Note_on_c, 0, 50, 0
2, 672000, Note_on_c, 0, 36, 96
2, 672000, Note_on_c, 0, 48, 96
2, 672227, Note_on_c, 0, 36, 0
2, 672227, Note_on_c, 0, 48, 0
2, 672240, Note_on_c, 0, 36, 96
2, 672240, Note_on_c, 0, 48, 96
2, 672467, Note_on_c, 0, 36, 0
2, 672467, Note_on_c, 0, 48, 0
2, 672480, Note_on_c, 0, 36, 96
2, 672480, Note_on_c, 0, 48, 96
2, 672593, Note_on_c, 0, 36, 0
2, 672593, Note_on_c, 0, 48, 0
2, 672600, Note_on_c, 0, 36, 96
2, 672600, Note_on_c, 0, 48, 96
2, 672719, Note_on_c, 0, 36, 0
2, 672719, Note_on_c, 0, 48, 0
2, 672840, Note_on_c, 0, 36, 96
2, 672840, Note_on_c, 0, 48, 96
2, 672959, Note_on_c, 0, 36, 0
2, 672959, Note_on_c, 0, 48, 0
2, 673080, Note_on_c, 0, 36, 96
2, 673080, Note_on_c, 0, 48, 96
2, 673307, Note_on_c, 0, 36, 0
2, 673307, Note_on_c, 0, 48, 0
2, 673320, Note_on_c, 0, 36, 96
2, 673320, Note_on_c, 0, 48, 96
2, 673433, Note_on_c, 0, 36, 0
2, 673433, Note_on_c, 0, 48, 0
2, 673440, Note_on_c, 0, 36, 96
2, 673440, Note_on_c, 0, 48, 96
2, 673553, Note_on_c, 0, 36, 0
2, 673553, Note_on_c, 0, 48, 0
2, 673560, Note_on_c, 0, 36, 96
2, 673560, Note_on_c, 0, 48, 96
2, 673673, Note_on_c, 0, 36, 0
2, 673673, Note_on_c, 0, 48, 0
2, 673680, Note_on_c, 0, 36, 96
2, 673680, Note_on_c, 0, 43, 96
2, 673680, Note_on_c, 0, 48, 96
2, 673907, Note_on_c, 0, 36, 0
2, 673907, Note_on_c, 0, 43, 0
2, 673907, Note_on_c, 0, 48, 0
2, 673920, Note_on_c, 0, 35, 96
2, 673920, Note_on_c, 0, 47, 96
2, 674147, Note_on_c, 0, 35, 0
2, 674147, Note_on_c, 0, 47, 0
2, 674160, Note_on_c, 0, 35, 96
2, 674160, Note_on_c, 0, 47, 96
2, 674387, Note_on_c, 0, 35, 0
2, 674387, Note_on_c, 0, 47, 0
2, 674400, Note_on_c, 0, 35, 96
2, 674400, Note_on_c, 0, 47, 96
2, 674513, Note_on_c, 0, 35, 0
2, 674513, Note_on_c, 0, 47, 0
2, 674520, Note_on_c, 0, 35, 96
2, 674520, Note_on_c, 0, 47, 96
2, 674639, Note_on_c, 0, 35, 0
2, 674639, Note_on_c, 0, 47, 0
2, 674760, Note_on_c, 0, 35, 96
2, 674760, Note_on_c, 0, 47, 96
2, 674879, Note_on_c, 0, 35, 0
2, 674879, Note_on_c, 0, 47, 0
2, 675000, Note_on_c, 0, 35, 96
2, 675000, Note_on_c, 0, 47, 96
2, 675227, Note_on_c, 0, 35, 0
2, 675227, Note_on_c, 0, 47, 0
2, 675240, Note_on_c, 0, 35, 96
2, 675240, Note_on_c, 0, 47, 96
2, 675353, Note_on_c, 0, 35, 0
2, 675353, Note_on_c, 0, 47, 0
2, 675360, Note_on_c, 0, 35, 96
2, 675360, Note_on_c, 0, 47, 96
2, 675473, Note_on_c, 0, 35, 0
2, 675473, Note_on_c, 0, 47, 0
2, 675480, Note_on_c, 0, 35, 96
2, 675480, Note_on_c, 0, 47, 96
2, 675593, Note_on_c, 0, 35, 0
2, 675593, Note_on_c, 0, 47, 0
2, 675600, Note_on_c, 0, 35, 96
2, 675600, Note_on_c, 0, 42, 96
2, 675600, Note_on_c, 0, 47, 96
2, 675827, Note_on_c, 0, 35, 0
2, 675827, Note_on_c, 0, 42, 0
2, 675827, Note_on_c, 0, 47, 0
2, 675840, Note_on_c, 0, 34, 96
2, 675840, Note_on_c, 0, 46, 96
2, 676067, Note_on_c, 0, 34, 0
2, 676067, Note_on_c, 0, 46, 0
2, 676080, Note_on_c, 0, 34, 96
2, 676080, Note_on_c, 0, 46, 96
2, 676307, Note_on_c, 0, 34, 0
2, 676307, Note_on_c, 0, 46, 0
2, 676320, Note_on_c, 0, 34, 96
2, 676320, Note_on_c, 0, 46, 96
2, 676433, Note_on_c, 0, 34, 0
2, 676433, Note_on_c, 0, 46, 0
2, 676440, Note_on_c, 0, 34, 96
2, 676440, Note_on_c, 0, 46, 96
2, 676553, Note_on_c, 0, 34, 0
2, 676553, Note_on_c, 0, 46, 0
2, 676680, Note_on_c, 0, 36, 96
2, 676680, Note_on_c, 0, 48, 96
2, 676799, Note_on_c, 0, 36, 0
2, 676799, Note_on_c, 0, 48, 0
2, 676920, Note_on_c, 0, 36, 96
2, 676920, Note_on_c, 0, 48, 96
2, 677147, Note_on_c, 0, 36, 0
2, 677147, Note_on_c, 0, 48, 0
2, 677160, Note_on_c, 0, 36, 96
2, 677160, Note_on_c, 0, 48, 96
2, 677273, Note_on_c, 0, 36, 0
2, 677273, Note_on_c, 0, 48, 0
2, 677280, Note_on_c, 0, 36, 96
2, 677280, Note_on_c, 0, 48, 96
2, 677393, Note_on_c, 0, 36, 0
2, 677393, Note_on_c, 0, 48, 0
2, 677400, Note_on_c, 0, 36, 96
2, 677400, Note_on_c, 0, 48, 96
2, 677513, Note_on_c, 0, 36, 0
2, 677513, Note_on_c, 0, 48, 0
2, 677520, Note_on_c, 0, 36, 96
2, 677520, Note_on_c, 0, 43, 96
2, 677520, Note_on_c, 0, 48, 96
2, 677747, Note_on_c, 0, 36, 0
2, 677747, Note_on_c, 0, 43, 0
2, 677747, Note_on_c, 0, 48, 0
2, 677760, Note_on_c, 0, 38, 92
2, 677760, Note_on_c, 0, 45, 92
2, 677760, Note_on_c, 0, 50, 92
2, 677879, Note_on_c, 0, 38, 0
2, 677879, Note_on_c, 0, 45, 0
2, 677879, Note_on_c, 0, 50, 0
2, 678000, Note_on_c, 0, 38, 92
2, 678000, Note_on_c, 0, 50, 92
2, 678119, Note_on_c, 0, 38, 0
2, 678119, Note_on_c, 0, 50, 0
2, 678240, Note_on_c, 0, 38, 92
2, 678353, Note_on_c, 0, 38, 0
2, 678360, Note_on_c, 0, 38, 92
2, 678360, Note_on_c, 0, 50, 92
2, 678479, Note_on_c, 0, 38, 0
2, 678479, Note_on_c, 0, 50, 0
2, 678600, Note_on_c, 0, 38, 92
2, 678600, Note_on_c, 0, 45, 92
2, 678600, Note_on_c, 0, 50, 92
2, 678719, Note_on_c, 0, 38, 0
2, 678719, Note_on_c, 0, 45, 0
2, 678719, Note_on_c, 0, 50, 0
2, 678840, Note_on_c, 0, 38, 92
2, 678840, Note_on_c, 0, 45, 92
2, 678840, Note_on_c, 0, 50, 92
2, 679067, Note_on_c, 0, 38, 0
2, 679067, Note_on_c, 0, 45, 0
2, 679067, Note_on_c, 0, 50, 0
2, 679080, Note_on_c, 0, 38, 92
2, 679080, Note_on_c, 0, 50, 92
2, 679193, Note_on_c, 0, 38, 0
2, 679193, Note_on_c, 0, 50, 0
2, 679200, Note_on_c, 0, 38, 92
2, 679200, Note_on_c, 0, 50, 92
2, 679259, Note_on_c, 0, 38, 0
2, 679259, Note_on_c, 0, 50, 0
2, 679320, Note_on_c, 0, 38, 92
2, 679320, Note_on_c, 0, 50, 92
2, 679379, Note_on_c, 0, 38, 0
2, 679379, Note_on_c, 0, 50, 0
2, 679440, Note_on_c, 0, 38, 92
2, 679440, Note_on_c, 0, 45, 92
2, 679440, Note_on_c, 0, 50, 92
2, 679667, Note_on_c, 0, 38, 0
2, 679667, Note_on_c, 0, 45, 0
2, 679667, Note_on_c, 0, 50, 0
2, 679680, Note_on_c, 0, 36, 92
2, 679680, Note_on_c, 0, 43, 92
2, 679680, Note_on_c, 0, 48, 92
2, 679799, Note_on_c, 0, 36, 0
2, 679799, Note_on_c, 0, 43, 0
2, 679799, Note_on_c, 0, 48, 0
2, 679920, Note_on_c, 0, 36, 92
2, 679920, Note_on_c, 0, 48, 92
2, 680039, Note_on_c, 0, 36, 0
2, 680039, Note_on_c, 0, 48, 0
2, 680160, Note_on_c, 0, 36, 92
2, 680273, Note_on_c, 0, 36, 0
2, 680280, Note_on_c, 0, 36, 92
2, 680280, Note_on_c, 0, 48, 92
2, 680399, Note_on_c, 0, 36, 0
2, 680399, Note_on_c, 0, 48, 0
2, 680520, Note_on_c, 0, 36, 92
2, 680520, Note_on_c, 0, 43, 92
2, 680520, Note_on_c, 0, 48, 92
2, 680639, Note_on_c, 0, 36, 0
2, 680639, Note_on_c, 0, 43, 0
2, 680639, Note_on_c, 0, 48, 0
2, 680760, Note_on_c, 0, 36, 92
2, 680760, Note_on_c, 0, 43, 92
2, 680760, Note_on_c, 0, 48, 92
2, 680987, Note_on_c, 0, 36, 0
2, 680987, Note_on_c, 0, 43, 0
2, 680987, Note_on_c, 0, 48, 0
2, 681000, Note_on_c, 0, 36, 92
2, 681000, Note_on_c, 0, 48, 92
2, 681113, Note_on_c, 0, 36, 0
2, 681113, Note_on_c, 0, 48, 0
2, 681120, Note_on_c, 0, 36, 92
2, 681120, Note_on_c, 0, 48, 92
2, 681179, Note_on_c, 0, 36, 0
2, 681179, Note_on_c, 0, 48, 0
2, 681240, Note_on_c, 0, 36, 92
2, 681240, Note_on_c, 0, 48, 92
2, 681299, Note_on_c, 0, 36, 0
2, 681299, Note_on_c, 0, 48, 0
2, 681360, Note_on_c, 0, 36, 92
2, 681360, Note_on_c, 0, 43, 92
2, 681360, Note_on_c, 0, 48, 92
2, 681587, Note_on_c, 0, 36, 0
2, 681587, Note_on_c, 0, 43, 0
2, 681587, Note_on_c, 0, 48, 0
2, 681600, Note_on_c, 0, 35, 92
2, 681600, Note_on_c, 0, 42, 92
2, 681600, Note_on_c, 0, 47, 92
2, 681719, Note_on_c, 0, 35, 0
2, 681719, Note_on_c, 0, 42, 0
2, 681719, Note_on_c, 0, 47, 0
2, 681840, Note_on_c, 0, 35, 92
2, 681840, Note_on_c, 0, 47, 92
2, 681959, Note_on_c, 0, 35, 0
2, 681959, Note_on_c, 0, 47, 0
2, 682080, Note_on_c, 0, 35, 92
2, 682193, Note_on_c, 0, 35, 0
2, 682200, Note_on_c, 0, 35, 92
2, 682200, Note_on_c, 0, 47, 92
2, 682319, Note_on_c, 0, 35, 0
2, 682319, Note_on_c, 0, 47, 0
2, 682440, Note_on_c, 0, 35, 92
2, 682440, Note_on_c, 0, 42, 92
2, 682440, Note_on_c, 0, 47, 92
2, 682559, Note_on_c, 0, 35, 0
2, 682559, Note_on_c, 0, 42, 0
2, 682559, Note_on_c, 0, 47, 0
2, 682680, Note_on_c, 0, 35, 92
2, 682680, Note_on_c, 0, 42, 92
2, 682680, Note_on_c, 0, 47, 92
2, 682907, Note_on_c, 0, 35, 0
2, 682907, Note_on_c, 0, 42, 0
2, 682907, Note_on_c, 0, 47, 0
2, 682920, Note_on_c, 0, 35, 92
2, 682920, Note_on_c, 0, 47, 92
2, 683033, Note_on_c, 0, 35, 0
2, 683033, Note_on_c, 0, 47, 0
2, 683040, Note_on_c, 0, 35, 92
2, 683040, Note_on_c, 0, 47, 92
2, 683099, Note_on_c, 0, 35, 0
2, 683099, Note_on_c, 0, 47, 0
2, 683160, Note_on_c, 0, 35, 92
2, 683160, Note_on_c, 0, 47, 92
2, 683219, Note_on_c, 0, 35, 0
2, 683219, Note_on_c, 0, 47, 0
2, 683280, Note_on_c, 0, 35, 92
2, 683280, Note_on_c, 0, 42, 92
2, 683280, Note_on_c, 0, 47, 92
2, 683507, Note_on_c, 0, 35, 0
2, 683507, Note_on_c, 0, 42, 0
2, 683507, Note_on_c, 0, 47, 0
2, 683520, Note_on_c, 0, 34, 92
2, 683520, Note_on_c, 0, 41, 92
2, 683520, Note_on_c, 0, 46, 92
2, 683639, Note_on_c, 0, 34, 0
2, 683639, Note_on_c, 0, 41, 0
2, 683639, Note_on_c, 0, 46, 0
2, 683760, Note_on_c, 0, 34, 92
2, 683760, Note_on_c, 0, 46, 92
2, 683879, Note_on_c, 0, 34, 0
2, 683879, Note_on_c, 0, 46, 0
2, 684000, Note_on_c, 0, 34, 92
2, 684113, Note_on_c, 0, 34, 0
2, 684120, Note_on_c, 0, 34, 92
2, 684120, Note_on_c, 0, 46, 92
2, 684239, Note_on_c, 0, 34, 0
2, 684239, Note_on_c, 0, 46, 0
2, 684360, Note_on_c, 0, 36, 92
2, 684360, Note_on_c, 0, 43, 92
2, 684360, Note_on_c, 0, 48, 92
2, 684479, Note_on_c, 0, 36, 0
2, 684479, Note_on_c, 0, 43, 0
2, 684479, Note_on_c, 0, 48, 0
2, 684600, Note_on_c, 0, 36, 92
2, 684600, Note_on_c, 0, 43, 92
2, 684600, Note_on_c, 0, 48, 92
2, 684827, Note_on_c, 0, 36, 0
2, 684827, Note_on_c, 0, 43, 0
2, 684827, Note_on_c, 0, 48, 0
2, 684840, Note_on_c, 0, 36, 92
2, 684840, Note_on_c, 0, 48, 92
2, 684953, Note_on_c, 0, 36, 0
2, 684953, Note_on_c, 0, 48, 0
2, 684960, Note_on_c, 0, 36, 92
2, 684960, Note_on_c, 0, 48, 92
2, 685019, Note_on_c, 0, 36, 0
2, 685019, Note_on_c, 0, 48, 0
2, 685080, Note_on_c, 0, 36, 92
2, 685080, Note_on_c, 0, 48, 92
2, 685139, Note_on_c, 0, 36, 0
2, 685139, Note_on_c, 0, 48, 0
2, 685200, Note_on_c, 0, 36, 92
2, 685200, Note_on_c, 0, 43, 92
2, 685200, Note_on_c, 0, 48, 92
2, 685427, Note_on_c, 0, 36, 0
2, 685427, Note_on_c, 0, 43, 0
2, 685427, Note_on_c, 0, 48, 0
2, 685440, Note_on_c, 0, 38, 96
2, 685440, Note_on_c, 0, 45, 96
2, 685553, Note_on_c, 0, 38, 0
2, 685553, Note_on_c, 0, 45, 0
2, 685560, Note_on_c, 0, 38, 96
2, 685673, Note_on_c, 0, 38, 0
2, 685680, Note_on_c, 0, 50, 82
2, 685907, Note_on_c, 0, 50, 0
2, 685920, Note_on_c, 0, 45, 96
2, 685920, Note_on_c, 0, 50, 96
2, 686033, Note_on_c, 0, 45, 0
2, 686033, Note_on_c, 0, 50, 0
2, 686040, Note_on_c, 0, 38, 96
2, 686040, Note_on_c, 0, 50, 96
2, 686159, Note_on_c, 0, 38, 0
2, 686159, Note_on_c, 0, 50, 0
2, 686280, Note_on_c, 0, 44, 96
2, 686280, Note_on_c, 0, 50, 96
2, 686399, Note_on_c, 0, 44, 0
2, 686399, Note_on_c, 0, 50, 0
2, 686520, Note_on_c, 0, 43, 96
2, 686520, Note_on_c, 0, 50, 96
2, 686747, Note_on_c, 0, 43, 0
2, 686747, Note_on_c, 0, 50, 0
2, 686760, Note_on_c, 0, 41, 96
2, 686760, Note_on_c, 0, 50, 96
2, 686873, Note_on_c, 0, 41, 0
2, 686873, Note_on_c, 0, 50, 0
2, 686880, Note_on_c, 0, 38, 96
2, 686939, Note_on_c, 0, 38, 0
2, 687000, Note_on_c, 0, 38, 96
2, 687113, Note_on_c, 0, 38, 0
2, 687120, Note_on_c, 0, 41, 96
2, 687120, Note_on_c, 0, 50, 96
2, 687233, Note_on_c, 0, 41, 0
2, 687233, Note_on_c, 0, 50, 0
2, 687240, Note_on_c, 0, 43, 96
2, 687353, Note_on_c, 0, 43, 0
2, 687360, Note_on_c, 0, 36, 96
2, 687360, Note_on_c, 0, 43, 96
2, 687419, Note_on_c, 0, 36, 0
2, 687419, Note_on_c, 0, 43, 0
2, 687480, Note_on_c, 0, 36, 96
2, 687593, Note_on_c, 0, 36, 0
2, 687600, Note_on_c, 0, 50, 82
2, 687719, Note_on_c, 0, 50, 0
2, 687840, Note_on_c, 0, 45, 96
2, 687840, Note_on_c, 0, 48, 96
2, 687953, Note_on_c, 0, 45, 0
2, 687953, Note_on_c, 0, 48, 0
2, 687960, Note_on_c, 0, 36, 96
2, 687960, Note_on_c, 0, 48, 96
2, 688079, Note_on_c, 0, 36, 0
2, 688079, Note_on_c, 0, 48, 0
2, 688200, Note_on_c, 0, 44, 96
2, 688200, Note_on_c, 0, 48, 96
2, 688319, Note_on_c, 0, 44, 0
2, 688319, Note_on_c, 0, 48, 0
2, 688440, Note_on_c, 0, 43, 96
2, 688440, Note_on_c, 0, 48, 96
2, 688667, Note_on_c, 0, 43, 0
2, 688667, Note_on_c, 0, 48, 0
2, 688680, Note_on_c, 0, 41, 96
2, 688680, Note_on_c, 0, 48, 96
2, 688793, Note_on_c, 0, 41, 0
2, 688793, Note_on_c, 0, 48, 0
2, 688800, Note_on_c, 0, 36, 96
2, 688859, Note_on_c, 0, 36, 0
2, 688920, Note_on_c, 0, 36, 96
2, 688979, Note_on_c, 0, 36, 0
2, 689040, Note_on_c, 0, 41, 96
2, 689040, Note_on_c, 0, 48, 96
2, 689153, Note_on_c, 0, 41, 0
2, 689153, Note_on_c, 0, 48, 0
2, 689160, Note_on_c, 0, 43, 96
2, 689273, Note_on_c, 0, 43, 0
2, 689280, Note_on_c, 0, 35, 96
2, 689280, Note_on_c, 0, 42, 96
2, 689339, Note_on_c, 0, 35, 0
2, 689339, Note_on_c, 0, 42, 0
2, 689400, Note_on_c, 0, 35, 96
2, 689513, Note_on_c, 0, 35, 0
2, 689520, Note_on_c, 0, 50, 82
2, 689639, Note_on_c, 0, 50, 0
2, 689760, Note_on_c, 0, 45, 96
2, 689873, Note_on_c, 0, 45, 0
2, 689880, Note_on_c, 0, 35, 96
2, 689880, Note_on_c, 0, 47, 96
2, 689999, Note_on_c, 0, 35, 0
2, 689999, Note_on_c, 0, 47, 0
2, 690120, Note_on_c, 0, 44, 96
2, 690120, Note_on_c, 0, 47, 96
2, 690239, Note_on_c, 0, 44, 0
2, 690239, Note_on_c, 0, 47, 0
2, 690360, Note_on_c, 0, 43, 96
2, 690360, Note_on_c, 0, 47, 96
2, 690587, Note_on_c, 0, 43, 0
2, 690587, Note_on_c, 0, 47, 0
2, 690600, Note_on_c, 0, 41, 96
2, 690600, Note_on_c, 0, 47, 96
2, 690713, Note_on_c, 0, 41, 0
2, 690713, Note_on_c, 0, 47, 0
2, 690720, Note_on_c, 0, 35, 96
2, 690779, Note_on_c, 0, 35, 0
2, 690840, Note_on_c, 0, 35, 96
2, 690899, Note_on_c, 0, 35, 0
2, 690960, Note_on_c, 0, 41, 96
2, 690960, Note_on_c, 0, 47, 96
2, 691073, Note_on_c, 0, 41, 0
2, 691073, Note_on_c, 0, 47, 0
2, 691080, Note_on_c, 0, 43, 96
2, 691193, Note_on_c, 0, 43, 0
2, 691200, Note_on_c, 0, 34, 96
2, 691200, Note_on_c, 0, 41, 96
2, 691259, Note_on_c, 0, 34, 0
2, 691259, Note_on_c, 0, 41, 0
2, 691320, Note_on_c, 0, 34, 96
2, 691433, Note_on_c, 0, 34, 0
2, 691440, Note_on_c, 0, 50, 96
2, 691559, Note_on_c, 0, 50, 0
2, 691680, Note_on_c, 0, 45, 96
2, 691793, Note_on_c, 0, 45, 0
2, 691800, Note_on_c, 0, 34, 96
2, 691800, Note_on_c, 0, 46, 96
2, 691919, Note_on_c, 0, 34, 0
2, 691919, Note_on_c, 0, 46, 0
2, 692040, Note_on_c, 0, 44, 96
2, 692040, Note_on_c, 0, 48, 96
2, 692159, Note_on_c, 0, 44, 0
2, 692159, Note_on_c, 0, 48, 0
2, 692280, Note_on_c, 0, 43, 96
2, 692280, Note_on_c, 0, 48, 96
2, 692507, Note_on_c, 0, 43, 0
2, 692507, Note_on_c, 0, 48, 0
2, 692520, Note_on_c, 0, 41, 96
2, 692520, Note_on_c, 0, 48, 96
2, 692633, Note_on_c, 0, 41, 0
2, 692633, Note_on_c, 0, 48, 0
2, 692640, Note_on_c, 0, 36, 96
2, 692699, Note_on_c, 0, 36, 0
2, 692760, Note_on_c, 0, 36, 96
2, 692819, Note_on_c, 0, 36, 0
2, 692880, Note_on_c, 0, 41, 96
2, 692880, Note_on_c, 0, 48, 96
2, 692993, Note_on_c, 0, 41, 0
2, 692993, Note_on_c, 0, 48, 0
2, 693000, Note_on_c, 0, 43, 96
2, 693113, Note_on_c, 0, 43, 0
2, 693120, Note_on_c, 0, 34, 92
2, 693120, Note_on_c, 0, 41, 92
2, 693120, Note_on_c, 0, 46, 92
2, 693239, Note_on_c, 0, 34, 0
2, 693239, Note_on_c, 0, 41, 0
2, 693239, Note_on_c, 0, 46, 0
2, 693360, Note_on_c, 0, 34, 92
2, 693360, Note_on_c, 0, 46, 92
2, 693479, Note_on_c, 0, 34, 0
2, 693479, Note_on_c, 0, 46, 0
2, 693600, Note_on_c, 0, 34, 92
2, 693713, Note_on_c, 0, 34, 0
2, 693720, Note_on_c, 0, 34, 92
2, 693720, Note_on_c, 0, 46, 92
2, 693839, Note_on_c, 0, 34, 0
2, 693839, Note_on_c, 0, 46, 0
2, 693960, Note_on_c, 0, 34, 92
2, 693960, Note_on_c, 0, 41, 92
2, 693960, Note_on_c, 0, 46, 92
2, 694079, Note_on_c, 0, 34, 0
2, 694079, Note_on_c, 0, 41, 0
2, 694079, Note_on_c, 0, 46, 0
2, 694200, Note_on_c, 0, 34, 92
2, 694200, Note_on_c, 0, 41, 92
2, 694200, Note_on_c, 0, 46, 92
2, 694427, Note_on_c, 0, 34, 0
2, 694427, Note_on_c, 0, 41, 0
2, 694427, Note_on_c, 0, 46, 0
2, 694440, Note_on_c, 0, 34, 92
2, 694440, Note_on_c, 0, 46, 92
2, 694553, Note_on_c, 0, 34, 0
2, 694553, Note_on_c, 0, 46, 0
2, 694560, Note_on_c, 0, 34, 92
2, 694560, Note_on_c, 0, 46, 92
2, 694619, Note_on_c, 0, 34, 0
2, 694619, Note_on_c, 0, 46, 0
2, 694680, Note_on_c, 0, 34, 92
2, 694680, Note_on_c, 0, 46, 92
2, 694739, Note_on_c, 0, 34, 0
2, 694739, Note_on_c, 0, 46, 0
2, 694800, Note_on_c, 0, 34, 92
2, 694800, Note_on_c, 0, 41, 92
2, 694800, Note_on_c, 0, 46, 92
2, 695027, Note_on_c, 0, 34, 0
2, 695027, Note_on_c, 0, 41, 0
2, 695027, Note_on_c, 0, 46, 0
2, 695040, Note_on_c, 0, 36, 92
2, 695040, Note_on_c, 0, 43, 92
2, 695040, Note_on_c, 0, 48, 92
2, 695159, Note_on_c, 0, 36, 0
2, 695159, Note_on_c, 0, 43, 0
2, 695159, Note_on_c, 0, 48, 0
2, 695280, Note_on_c, 0, 36, 92
2, 695280, Note_on_c, 0, 48, 92
2, 695399, Note_on_c, 0, 36, 0
2, 695399, Note_on_c, 0, 48, 0
2, 695520, Note_on_c, 0, 36, 92
2, 695633, Note_on_c, 0, 36, 0
2, 695640, Note_on_c, 0, 36, 92
2, 695640, Note_on_c, 0, 48, 92
2, 695759, Note_on_c, 0, 36, 0
2, 695759, Note_on_c, 0, 48, 0
2, 695880, Note_on_c, 0, 36, 92
2, 695880, Note_on_c, 0, 43, 92
2, 695880, Note_on_c, 0, 48, 92
2, 695999, Note_on_c, 0, 36, 0
2, 695999, Note_on_c, 0, 43, 0
2, 695999, Note_on_c, 0, 48, 0
2, 696120, Note_on_c, 0, 36, 92
2, 696120, Note_on_c, 0, 43, 92
2, 696120, Note_on_c, 0, 48, 92
2, 696347, Note_on_c, 0, 36, 0
2, 696347, Note_on_c, 0, 43, 0
2, 696347, Note_on_c, 0, 48, 0
2, 696360, Note_on_c, 0, 36, 92
2, 696360, Note_on_c, 0, 48, 92
2, 696473, Note_on_c, 0, 36, 0
2, 696473, Note_on_c, 0, 48, 0
2, 696480, Note_on_c, 0, 36, 92
2, 696480, Note_on_c, 0, 48, 92
2, 696539, Note_on_c, 0, 36, 0
2, 696539, Note_on_c, 0, 48, 0
2, 696600, Note_on_c, 0, 36, 92
2, 696600, Note_on_c, 0, 48, 92
2, 696659, Note_on_c, 0, 36, 0
2, 696659, Note_on_c, 0, 48, 0
2, 696720, Note_on_c, 0, 36, 92
2, 696720, Note_on_c, 0, 43, 92
2, 696720, Note_on_c, 0, 48, 92
2, 696947, Note_on_c, 0, 36, 0
2, 696947, Note_on_c, 0, 43, 0
2, 696947, Note_on_c, 0, 48, 0
2, 696960, Note_on_c, 0, 38, 92
2, 696960, Note_on_c, 0, 45, 92
2, 696960, Note_on_c, 0, 50, 92
2, 697079, Note_on_c, 0, 38, 0
2, 697079, Note_on_c, 0, 45, 0
2, 697079, Note_on_c, 0, 50, 0
2, 697200, Note_on_c, 0, 38, 92
2, 697200, Note_on_c, 0, 50, 92
2, 697319, Note_on_c, 0, 38, 0
2, 697319, Note_on_c, 0, 50, 0
2, 697440, Note_on_c, 0, 38, 92
2, 697553, Note_on_c, 0, 38, 0
2, 697560, Note_on_c, 0, 38, 92
2, 697560, Note_on_c, 0, 50, 92
2, 697679, Note_on_c, 0, 38, 0
2, 697679, Note_on_c, 0, 50, 0
2, 697800, Note_on_c, 0, 38, 92
2, 697800, Note_on_c, 0, 45, 92
2, 697800, Note_on_c, 0, 50, 92
2, 697919, Note_on_c, 0, 38, 0
2, 697919, Note_on_c, 0, 45, 0
2, 697919, Note_on_c, 0, 50, 0
2, 698040, Note_on_c, 0, 38, 92
2, 698040, Note_on_c, 0, 45, 92
2, 698040, Note_on_c, 0, 50, 92
2, 698267, Note_on_c, 0, 38, 0
2, 698267, Note_on_c, 0, 45, 0
2, 698267, Note_on_c, 0, 50, 0
2, 698280, Note_on_c, 0, 38, 92
2, 698280, Note_on_c, 0, 50, 92
2, 698393, Note_on_c, 0, 38, 0
2, 698393, Note_on_c, 0, 50, 0
2, 698400, Note_on_c, 0, 38, 92
2, 698400, Note_on_c, 0, 50, 92
2, 698459, Note_on_c, 0, 38, 0
2, 698459, Note_on_c, 0, 50, 0
2, 698520, Note_on_c, 0, 38, 92
2, 698520, Note_on_c, 0, 50, 92
2, 698579, Note_on_c, 0, 38, 0
2, 698579, Note_on_c, 0, 50, 0
2, 698640, Note_on_c, 0, 38, 92
2, 698640, Note_on_c, 0, 45, 92
2, 698640, Note_on_c, 0, 50, 92
2, 698867, Note_on_c, 0, 38, 0
2, 698867, Note_on_c, 0, 45, 0
2, 698867, Note_on_c, 0, 50, 0
2, 698880, Note_on_c, 0, 37, 92
2, 698880, Note_on_c, 0, 44, 92
2, 698880, Note_on_c, 0, 49, 92
2, 698999, Note_on_c, 0, 37, 0
2, 698999, Note_on_c, 0, 44, 0
2, 698999, Note_on_c, 0, 49, 0
2, 699120, Note_on_c, 0, 37, 92
2, 699120, Note_on_c, 0, 49, 92
2, 699239, Note_on_c, 0, 37, 0
2, 699239, Note_on_c, 0, 49, 0
2, 699360, Note_on_c, 0, 37, 92
2, 699473, Note_on_c, 0, 37, 0
2, 699480, Note_on_c, 0, 37, 92
2, 699480, Note_on_c, 0, 49, 92
2, 699599, Note_on_c, 0, 37, 0
2, 699599, Note_on_c, 0, 49, 0
2, 699720, Note_on_c, 0, 39, 92
2, 699720, Note_on_c, 0, 46, 92
2, 699720, Note_on_c, 0, 51, 92
2, 699839, Note_on_c, 0, 39, 0
2, 699839, Note_on_c, 0, 46, 0
2, 699839, Note_on_c, 0, 51, 0
2, 699960, Note_on_c, 0, 39, 92
2, 699960, Note_on_c, 0, 46, 92
2, 699960, Note_on_c, 0, 51, 92
2, 700187, Note_on_c, 0, 39, 0
2, 700187, Note_on_c, 0, 46, 0
2, 700187, Note_on_c, 0, 51, 0
2, 700200, Note_on_c, 0, 39, 92
2, 700200, Note_on_c, 0, 51, 92
2, 700313, Note_on_c, 0, 39, 0
2, 700313, Note_on_c, 0, 51, 0
2, 700320, Note_on_c, 0, 39, 92
2, 700320, Note_on_c, 0, 51, 92
2, 700379, Note_on_c, 0, 39, 0
2, 700379, Note_on_c, 0, 51, 0
2, 700440, Note_on_c, 0, 39, 92
2, 700440, Note_on_c, 0, 51, 92
2, 700499, Note_on_c, 0, 39, 0
2, 700499, Note_on_c, 0, 51, 0
2, 700560, Note_on_c, 0, 39, 92
2, 700560, Note_on_c, 0, 46, 92
2, 700560, Note_on_c, 0, 51, 92
2, 700787, Note_on_c, 0, 39, 0
2, 700787, Note_on_c, 0, 46, 0
2, 700787, Note_on_c, 0, 51, 0
2, 700800, Note_on_c, 0, 34, 92
2, 700800, Note_on_c, 0, 41, 92
2, 700800, Note_on_c, 0, 46, 92
2, 700919, Note_on_c, 0, 34, 0
2, 700919, Note_on_c, 0, 41, 0
2, 700919, Note_on_c, 0, 46, 0
2, 701040, Note_on_c, 0, 34, 92
2, 701040, Note_on_c, 0, 46, 92
2, 701159, Note_on_c, 0, 34, 0
2, 701159, Note_on_c, 0, 46, 0
2, 701280, Note_on_c, 0, 34, 92
2, 701393, Note_on_c, 0, 34, 0
2, 701400, Note_on_c, 0, 34, 92
2, 701400, Note_on_c, 0, 46, 92
2, 701519, Note_on_c, 0, 34, 0
2, 701519, Note_on_c, 0, 46, 0
2, 701640, Note_on_c, 0, 34, 92
2, 701640, Note_on_c, 0, 41, 92
2, 701640, Note_on_c, 0, 46, 92
2, 701759, Note_on_c, 0, 34, 0
2, 701759, Note_on_c, 0, 41, 0
2, 701759, Note_on_c, 0, 46, 0
2, 701880, Note_on_c, 0, 34, 92
2, 701880, Note_on_c, 0, 41, 92
2, 701880, Note_on_c, 0, 46, 92
2, 702107, Note_on_c, 0, 34, 0
2, 702107, Note_on_c, 0, 41, 0
2, 702107, Note_on_c, 0, 46, 0
2, 702120, Note_on_c, 0, 34, 92
2, 702120, Note_on_c, 0, 46, 92
2, 702233, Note_on_c, 0, 34, 0
2, 702233, Note_on_c, 0, 46, 0
2, 702240, Note_on_c, 0, 34, 92
2, 702240, Note_on_c, 0, 46, 92
2, 702299, Note_on_c, 0, 34, 0
2, 702299, Note_on_c, 0, 46, 0
2, 702360, Note_on_c, 0, 34, 92
2, 702360, Note_on_c, 0, 46, 92
2, 702419, Note_on_c, 0, 34, 0
2, 702419, Note_on_c, 0, 46, 0
2, 702480, Note_on_c, 0, 34, 92
2, 702480, Note_on_c, 0, 41, 92
2, 702480, Note_on_c, 0, 46, 92
2, 702707, Note_on_c, 0, 34, 0
2, 702707, Note_on_c, 0, 41, 0
2, 702707, Note_on_c, 0, 46, 0
2, 702720, Note_on_c, 0, 36, 92
2, 702720, Note_on_c, 0, 43, 92
2, 702720, Note_on_c, 0, 48, 92
2, 702839, Note_on_c, 0, 36, 0
2, 702839, Note_on_c, 0, 43, 0
2, 702839, Note_on_c, 0, 48, 0
2, 702960, Note_on_c, 0, 36, 92
2, 702960, Note_on_c, 0, 48, 92
2, 703079, Note_on_c, 0, 36, 0
2, 703079, Note_on_c, 0, 48, 0
2, 703200, Note_on_c, 0, 36, 92
2, 703313, Note_on_c, 0, 36, 0
2, 703320, Note_on_c, 0, 36, 92
2, 703320, Note_on_c, 0, 48, 92
2, 703439, Note_on_c, 0, 36, 0
2, 703439, Note_on_c, 0, 48, 0
2, 703560, Note_on_c, 0, 36, 92
2, 703560, Note_on_c, 0, 43, 92
2, 703560, Note_on_c, 0, 48, 92
2, 703679, Note_on_c, 0, 36, 0
2, 703679, Note_on_c, 0, 43, 0
2, 703679, Note_on_c, 0, 48, 0
2, 703800, Note_on_c, 0, 36, 92
2, 703800, Note_on_c, 0, 43, 92
2, 703800, Note_on_c, 0, 48, 92
2, 704027, Note_on_c, 0, 36, 0
2, 704027, Note_on_c, 0, 43, 0
2, 704027, Note_on_c, 0, 48, 0
2, 704040, Note_on_c, 0, 36, 92
2, 704040, Note_on_c, 0, 48, 92
2, 704153, Note_on_c, 0, 36, 0
2, 704153, Note_on_c, 0, 48, 0
2, 704160, Note_on_c, 0, 36, 92
2, 704160, Note_on_c, 0, 48, 92
2, 704219, Note_on_c, 0, 36, 0
2, 704219, Note_on_c, 0, 48, 0
2, 704280, Note_on_c, 0, 36, 92
2, 704280, Note_on_c, 0, 48, 92
2, 704339, Note_on_c, 0, 36, 0
2, 704339, Note_on_c, 0, 48, 0
2, 704400, Note_on_c, 0, 36, 92
2, 704400, Note_on_c, 0, 43, 92
2, 704400, Note_on_c, 0, 48, 92
2, 704627, Note_on_c, 0, 36, 0
2, 704627, Note_on_c, 0, 43, 0
2, 704627, Note_on_c, 0, 48, 0
2, 704640, Note_on_c, 0, 38, 92
2, 704640, Note_on_c, 0, 45, 92
2, 704640, Note_on_c, 0, 50, 92
2, 704759, Note_on_c, 0, 38, 0
2, 704759, Note_on_c, 0, 45, 0
2, 704759, Note_on_c, 0, 50, 0
2, 704880, Note_on_c, 0, 38, 92
2, 704880, Note_on_c, 0, 50, 92
2, 704999, Note_on_c, 0, 38, 0
2, 704999, Note_on_c, 0, 50, 0
2, 705120, Note_on_c, 0, 38, 92
2, 705233, Note_on_c, 0, 38, 0
2, 705240, Note_on_c, 0, 38, 92
2, 705240, Note_on_c, 0, 50, 92
2, 705359, Note_on_c, 0, 38, 0
2, 705359, Note_on_c, 0, 50, 0
2, 705480, Note_on_c, 0, 38, 92
2, 705480, Note_on_c, 0, 45, 92
2, 705480, Note_on_c, 0, 50, 92
2, 705599, Note_on_c, 0, 38, 0
2, 705599, Note_on_c, 0, 45, 0
2, 705599, Note_on_c, 0, 50, 0
2, 705720, Note_on_c, 0, 38, 92
2, 705720, Note_on_c, 0, 45, 92
2, 705720, Note_on_c, 0, 50, 92
2, 705947, Note_on_c, 0, 38, 0
2, 705947, Note_on_c, 0, 45, 0
2, 705947, Note_on_c, 0, 50, 0
2, 705960, Note_on_c, 0, 38, 92
2, 705960, Note_on_c, 0, 50, 92
2, 706073, Note_on_c, 0, 38, 0
2, 706073, Note_on_c, 0, 50, 0
2, 706080, Note_on_c, 0, 38, 92
2, 706080, Note_on_c, 0, 50, 92
2, 706139, Note_on_c, 0, 38, 0
2, 706139, Note_on_c, 0, 50, 0
2, 706200, Note_on_c, 0, 38, 92
2, 706200, Note_on_c, 0, 50, 92
2, 706259, Note_on_c, 0, 38, 0
2, 706259, Note_on_c, 0, 50, 0
2, 706320, Note_on_c, 0, 38, 92
2, 706320, Note_on_c, 0, 45, 92
2, 706320, Note_on_c, 0, 50, 92
2, 706547, Note_on_c, 0, 38, 0
2, 706547, Note_on_c, 0, 45, 0
2, 706547, Note_on_c, 0, 50, 0
2, 706560, Note_on_c, 0, 37, 92
2, 706560, Note_on_c, 0, 44, 92
2, 706560, Note_on_c, 0, 49, 92
2, 706679, Note_on_c, 0, 37, 0
2, 706679, Note_on_c, 0, 44, 0
2, 706679, Note_on_c, 0, 49, 0
2, 706800, Note_on_c, 0, 37, 92
2, 706800, Note_on_c, 0, 49, 92
2, 706919, Note_on_c, 0, 37, 0
2, 706919, Note_on_c, 0, 49, 0
2, 707040, Note_on_c, 0, 37, 92
2, 707153, Note_on_c, 0, 37, 0
2, 707160, Note_on_c, 0, 37, 92
2, 707160, Note_on_c, 0, 49, 92
2, 707279, Note_on_c, 0, 37, 0
2, 707279, Note_on_c, 0, 49, 0
2, 707400, Note_on_c, 0, 39, 92
2, 707400, Note_on_c, 0, 46, 92
2, 707400, Note_on_c, 0, 51, 92
2, 707459, Note_on_c, 0, 39, 0
2, 707459, Note_on_c, 0, 46, 0
2, 707459, Note_on_c, 0, 51, 0
2, 708480, Key_signature, 4, "major"
2, 708480, Note_on_c, 0, 49, 76
2, 708719, Note_on_c, 0, 49, 0
2, 708960, Note_on_c, 0, 51, 76
2, 709199, Note_on_c, 0, 51, 0
2, 709440, Note_on_c, 0, 45, 64
2, 709553, Note_on_c, 0, 45, 0
2, 709560, Note_on_c, 0, 45, 64
2, 709673, Note_on_c, 0, 45, 0
2, 709680, Note_on_c, 0, 49, 64
2, 709793, Note_on_c, 0, 49, 0
2, 709800, Note_on_c, 0, 45, 64
2, 709913, Note_on_c, 0, 45, 0
2, 709920, Note_on_c, 0, 45, 64
2, 710033, Note_on_c, 0, 45, 0
2, 710040, Note_on_c, 0, 51, 64
2, 710153, Note_on_c, 0, 51, 0
2, 710160, Note_on_c, 0, 45, 64
2, 710273, Note_on_c, 0, 45, 0
2, 710280, Note_on_c, 0, 51, 64
2, 710393, Note_on_c, 0, 51, 0
2, 710400, Note_on_c, 0, 45, 64
2, 710513, Note_on_c, 0, 45, 0
2, 710520, Note_on_c, 0, 45, 64
2, 710633, Note_on_c, 0, 45, 0
2, 710640, Note_on_c, 0, 54, 64
2, 710753, Note_on_c, 0, 54, 0
2, 710760, Note_on_c, 0, 45, 64
2, 710873, Note_on_c, 0, 45, 0
2, 710880, Note_on_c, 0, 45, 64
2, 710993, Note_on_c, 0, 45, 0
2, 711000, Note_on_c, 0, 52, 64
2, 711113, Note_on_c, 0, 52, 0
2, 711120, Note_on_c, 0, 45, 64
2, 711233, Note_on_c, 0, 45, 0
2, 711240, Note_on_c, 0, 45, 64
2, 711353, Note_on_c, 0, 45, 0
2, 711360, Note_on_c, 0, 45, 64
2, 711473, Note_on_c, 0, 45, 0
2, 711480, Note_on_c, 0, 45, 64
2, 711593, Note_on_c, 0, 45, 0
2, 711600, Note_on_c, 0, 51, 64
2, 711713, Note_on_c, 0, 51, 0
2, 711720, Note_on_c, 0, 45, 64
2, 711833, Note_on_c, 0, 45, 0
2, 711840, Note_on_c, 0, 45, 64
2, 711953, Note_on_c, 0, 45, 0
2, 711960, Note_on_c, 0, 52, 64
2, 712073, Note_on_c, 0, 52, 0
2, 712080, Note_on_c, 0, 45, 64
2, 712193, Note_on_c, 0, 45, 0
2, 712200, Note_on_c, 0, 52, 64
2, 712313, Note_on_c, 0, 52, 0
2, 712320, Note_on_c, 0, 45, 64
2, 712433, Note_on_c, 0, 45, 0
2, 712440, Note_on_c, 0, 45, 64
2, 712553, Note_on_c, 0, 45, 0
2, 712560, Note_on_c, 0, 52, 64
2, 712673, Note_on_c, 0, 52, 0
2, 712680, Note_on_c, 0, 45, 64
2, 712793, Note_on_c, 0, 45, 0
2, 712800, Note_on_c, 0, 47, 64
2, 712913, Note_on_c, 0, 47, 0
2, 712920, Note_on_c, 0, 51, 64
2, 713033, Note_on_c, 0, 51, 0
2, 713040, Note_on_c, 0, 54, 64
2, 713153, Note_on_c, 0, 54, 0
2, 713160, Note_on_c, 0, 47, 64
2, 713273, Note_on_c, 0, 47, 0
2, 713280, Note_on_c, 0, 49, 64
2, 713393, Note_on_c, 0, 49, 0
2, 713400, Note_on_c, 0, 49, 64
2, 713513, Note_on_c, 0, 49, 0
2, 713520, Note_on_c, 0, 56, 64
2, 713633, Note_on_c, 0, 56, 0
2, 713640, Note_on_c, 0, 49, 64
2, 713753, Note_on_c, 0, 49, 0
2, 713760, Note_on_c, 0, 49, 64
2, 713873, Note_on_c, 0, 49, 0
2, 713880, Note_on_c, 0, 54, 64
2, 713993, Note_on_c, 0, 54, 0
2, 714000, Note_on_c, 0, 52, 64
2, 714113, Note_on_c, 0, 52, 0
2, 714120, Note_on_c, 0, 47, 64
2, 714233, Note_on_c, 0, 47, 0
2, 714240, Note_on_c, 0, 49, 64
2, 714353, Note_on_c, 0, 49, 0
2, 714360, Note_on_c, 0, 49, 64
2, 714473, Note_on_c, 0, 49, 0
2, 714480, Note_on_c, 0, 56, 64
2, 714593, Note_on_c, 0, 56, 0
2, 714600, Note_on_c, 0, 49, 64
2, 714713, Note_on_c, 0, 49, 0
2, 714720, Note_on_c, 0, 49, 64
2, 714833, Note_on_c, 0, 49, 0
2, 714840, Note_on_c, 0, 54, 64
2, 714953, Note_on_c, 0, 54, 0
2, 714960, Note_on_c, 0, 52, 64
2, 715073, Note_on_c, 0, 52, 0
2, 715080, Note_on_c, 0, 47, 64
2, 715193, Note_on_c, 0, 47, 0
2, 715200, Note_on_c, 0, 49, 64
2, 715313, Note_on_c, 0, 49, 0
2, 715320, Note_on_c, 0, 49, 64
2, 715433, Note_on_c, 0, 49, 0
2, 715440, Note_on_c, 0, 56, 64
2, 715553, Note_on_c, 0, 56, 0
2, 715560, Note_on_c, 0, 49, 64
2, 715673, Note_on_c, 0, 49, 0
2, 715680, Note_on_c, 0, 49, 64
2, 715793, Note_on_c, 0, 49, 0
2, 715800, Note_on_c, 0, 54, 64
2, 715913, Note_on_c, 0, 54, 0
2, 715920, Note_on_c, 0, 52, 64
2, 716033, Note_on_c, 0, 52, 0
2, 716040, Note_on_c, 0, 47, 64
2, 716153, Note_on_c, 0, 47, 0
2, 716160, Note_on_c, 0, 49, 64
2, 716273, Note_on_c, 0, 49, 0
2, 716280, Note_on_c, 0, 49, 66
2, 716393, Note_on_c, 0, 49, 0
2, 716640, Note_on_c, 0, 47, 72
2, 716753, Note_on_c, 0, 47, 0
2, 716760, Note_on_c, 0, 47, 74
2, 716873, Note_on_c, 0, 47, 0
2, 717120, Note_on_c, 0, 42, 80
2, 717233, Note_on_c, 0, 42, 0
2, 717240, Note_on_c, 0, 42, 80
2, 717353, Note_on_c, 0, 42, 0
2, 717360, Note_on_c, 0, 49, 80
2, 717473, Note_on_c, 0, 49, 0
2, 717480, Note_on_c, 0, 42, 80
2, 717593, Note_on_c, 0, 42, 0
2, 717600, Note_on_c, 0, 42, 80
2, 717713, Note_on_c, 0, 42, 0
2, 717720, Note_on_c, 0, 42, 80
2, 717833, Note_on_c, 0, 42, 0
2, 717840, Note_on_c, 0, 54, 80
2, 717953, Note_on_c, 0, 54, 0
2, 717960, Note_on_c, 0, 56, 80
2, 718073, Note_on_c, 0, 56, 0
2, 718080, Note_on_c, 0, 42, 80
2, 718193, Note_on_c, 0, 42, 0
2, 718200, Note_on_c, 0, 42, 80
2, 718313, Note_on_c, 0, 42, 0
2, 718320, Note_on_c, 0, 49, 80
2, 718433, Note_on_c, 0, 49, 0
2, 718440, Note_on_c, 0, 42, 80
2, 718553, Note_on_c, 0, 42, 0
2, 718560, Note_on_c, 0, 42, 80
2, 718673, Note_on_c, 0, 42, 0
2, 718680, Note_on_c, 0, 42, 80
2, 718793, Note_on_c, 0, 42, 0
2, 718800, Note_on_c, 0, 54, 80
2, 718913, Note_on_c, 0, 54, 0
2, 718920, Note_on_c, 0, 56, 80
2, 719033, Note_on_c, 0, 56, 0
2, 719040, Note_on_c, 0, 44, 80
2, 719153, Note_on_c, 0, 44, 0
2, 719160, Note_on_c, 0, 44, 80
2, 719273, Note_on_c, 0, 44, 0
2, 719280, Note_on_c, 0, 51, 80
2, 719393, Note_on_c, 0, 51, 0
2, 719400, Note_on_c, 0, 44, 80
2, 719513, Note_on_c, 0, 44, 0
2, 719520, Note_on_c, 0, 52, 80
2, 719633, Note_on_c, 0, 52, 0
2, 719640, Note_on_c, 0, 44, 80
2, 719753, Note_on_c, 0, 44, 0
2, 719760, Note_on_c, 0, 56, 80
2, 719873, Note_on_c, 0, 56, 0
2, 719880, Note_on_c, 0, 59, 80
2, 719993, Note_on_c, 0, 59, 0
2, 720000, Note_on_c, 0, 44, 80
2, 720113, Note_on_c, 0, 44, 0
2, 720120, Note_on_c, 0, 44, 80
2, 720233, Note_on_c, 0, 44, 0
2, 720240, Note_on_c, 0, 51, 80
2, 720353, Note_on_c, 0, 51, 0
2, 720360, Note_on_c, 0, 44, 80
2, 720473, Note_on_c, 0, 44, 0
2, 720480, Note_on_c, 0, 52, 80
2, 720593, Note_on_c, 0, 52, 0
2, 720600, Note_on_c, 0, 44, 80
2, 720713, Note_on_c, 0, 44, 0
2, 720720, Note_on_c, 0, 56, 80
2, 720833, Note_on_c, 0, 56, 0
2, 720840, Note_on_c, 0, 59, 80
2, 720953, Note_on_c, 0, 59, 0
2, 720960, Note_on_c, 0, 45, 80
2, 721073, Note_on_c, 0, 45, 0
2, 721080, Note_on_c, 0, 45, 80
2, 721193, Note_on_c, 0, 45, 0
2, 721200, Note_on_c, 0, 52, 80
2, 721313, Note_on_c, 0, 52, 0
2, 721320, Note_on_c, 0, 45, 80
2, 721433, Note_on_c, 0, 45, 0
2, 721440, Note_on_c, 0, 54, 80
2, 721553, Note_on_c, 0, 54, 0
2, 721560, Note_on_c, 0, 45, 80
2, 721673, Note_on_c, 0, 45, 0
2, 721680, Note_on_c, 0, 52, 80
2, 721793, Note_on_c, 0, 52, 0
2, 721800, Note_on_c, 0, 45, 80
2, 721913, Note_on_c, 0, 45, 0
2, 721920, Note_on_c, 0, 56, 80
2, 722033, Note_on_c, 0, 56, 0
2, 722040, Note_on_c, 0, 45, 80
2, 722153, Note_on_c, 0, 45, 0
2, 722160, Note_on_c, 0, 52, 80
2, 722273, Note_on_c, 0, 52, 0
2, 722280, Note_on_c, 0, 45, 80
2, 722393, Note_on_c, 0, 45, 0
2, 722400, Note_on_c, 0, 54, 80
2, 722513, Note_on_c, 0, 54, 0
2, 722520, Note_on_c, 0, 45, 80
2, 722633, Note_on_c, 0, 45, 0
2, 722640, Note_on_c, 0, 54, 80
2, 722753, Note_on_c, 0, 54, 0
2, 722760, Note_on_c, 0, 52, 80
2, 722873, Note_on_c, 0, 52, 0
2, 722880, Note_on_c, 0, 44, 80
2, 723221, Note_on_c, 0, 44, 0
2, 723240, Note_on_c, 0, 47, 80
2, 723581, Note_on_c, 0, 47, 0
2, 724800, Note_on_c, 0, 45, 96
2, 724913, Note_on_c, 0, 45, 0
2, 724920, Note_on_c, 0, 45, 96
2, 725033, Note_on_c, 0, 45, 0
2, 725040, Note_on_c, 0, 54, 96
2, 725153, Note_on_c, 0, 54, 0
2, 725160, Note_on_c, 0, 45, 96
2, 725273, Note_on_c, 0, 45, 0
2, 725280, Note_on_c, 0, 45, 96
2, 725393, Note_on_c, 0, 45, 0
2, 725400, Note_on_c, 0, 45, 96
2, 725513, Note_on_c, 0, 45, 0
2, 725520, Note_on_c, 0, 52, 96
2, 725633, Note_on_c, 0, 52, 0
2, 725640, Note_on_c, 0, 45, 96
2, 725753, Note_on_c, 0, 45, 0
2, 725760, Note_on_c, 0, 45, 96
2, 725873, Note_on_c, 0, 45, 0
2, 725880, Note_on_c, 0, 45, 96
2, 725993, Note_on_c, 0, 45, 0
2, 726000, Note_on_c, 0, 54, 96
2, 726113, Note_on_c, 0, 54, 0
2, 726120, Note_on_c, 0, 45, 96
2, 726233, Note_on_c, 0, 45, 0
2, 726240, Note_on_c, 0, 45, 96
2, 726353, Note_on_c, 0, 45, 0
2, 726360, Note_on_c, 0, 45, 96
2, 726473, Note_on_c, 0, 45, 0
2, 726480, Note_on_c, 0, 47, 96
2, 726707, Note_on_c, 0, 47, 0
2, 726720, Note_on_c, 0, 45, 96
2, 726833, Note_on_c, 0, 45, 0
2, 726840, Note_on_c, 0, 45, 96
2, 726953, Note_on_c, 0, 45, 0
2, 726960, Note_on_c, 0, 54, 96
2, 727073, Note_on_c, 0, 54, 0
2, 727080, Note_on_c, 0, 45, 96
2, 727193, Note_on_c, 0, 45, 0
2, 727200, Note_on_c, 0, 45, 96
2, 727313, Note_on_c, 0, 45, 0
2, 727320, Note_on_c, 0, 45, 96
2, 727433, Note_on_c, 0, 45, 0
2, 727440, Note_on_c, 0, 52, 96
2, 727553, Note_on_c, 0, 52, 0
2, 727560, Note_on_c, 0, 45, 96
2, 727673, Note_on_c, 0, 45, 0
2, 727680, Note_on_c, 0, 45, 96
2, 727793, Note_on_c, 0, 45, 0
2, 727800, Note_on_c, 0, 45, 96
2, 727913, Note_on_c, 0, 45, 0
2, 727920, Note_on_c, 0, 54, 96
2, 728033, Note_on_c, 0, 54, 0
2, 728040, Note_on_c, 0, 45, 96
2, 728153, Note_on_c, 0, 45, 0
2, 728160, Note_on_c, 0, 45, 96
2, 728273, Note_on_c, 0, 45, 0
2, 728280, Note_on_c, 0, 45, 96
2, 728393, Note_on_c, 0, 45, 0
2, 728400, Note_on_c, 0, 47, 96
2, 728627, Note_on_c, 0, 47, 0
2, 728640, Note_on_c, 0, 49, 96
2, 728753, Note_on_c, 0, 49, 0
2, 728760, Note_on_c, 0, 49, 96
2, 728873, Note_on_c, 0, 49, 0
2, 728880, Note_on_c, 0, 54, 96
2, 728993, Note_on_c, 0, 54, 0
2, 729000, Note_on_c, 0, 49, 96
2, 729113, Note_on_c, 0, 49, 0
2, 729120, Note_on_c, 0, 49, 96
2, 729233, Note_on_c, 0, 49, 0
2, 729240, Note_on_c, 0, 49, 96
2, 729353, Note_on_c, 0, 49, 0
2, 729360, Note_on_c, 0, 52, 96
2, 729473, Note_on_c, 0, 52, 0
2, 729480, Note_on_c, 0, 49, 96
2, 729593, Note_on_c, 0, 49, 0
2, 729600, Note_on_c, 0, 49, 96
2, 729713, Note_on_c, 0, 49, 0
2, 729720, Note_on_c, 0, 49, 96
2, 729833, Note_on_c, 0, 49, 0
2, 729840, Note_on_c, 0, 54, 96
2, 729953, Note_on_c, 0, 54, 0
2, 729960, Note_on_c, 0, 49, 96
2, 730073, Note_on_c, 0, 49, 0
2, 730080, Note_on_c, 0, 49, 96
2, 730193, Note_on_c, 0, 49, 0
2, 730200, Note_on_c, 0, 49, 96
2, 730313, Note_on_c, 0, 49, 0
2, 730320, Note_on_c, 0, 47, 96
2, 730547, Note_on_c, 0, 47, 0
2, 730560, Note_on_c, 0, 44, 96
2, 730673, Note_on_c, 0, 44, 0
2, 730680, Note_on_c, 0, 44, 96
2, 730793, Note_on_c, 0, 44, 0
2, 730800, Note_on_c, 0, 51, 96
2, 730913, Note_on_c, 0, 51, 0
2, 730920, Note_on_c, 0, 44, 96
2, 731033, Note_on_c, 0, 44, 0
2, 731040, Note_on_c, 0, 44, 96
2, 731153, Note_on_c, 0, 44, 0
2, 731160, Note_on_c, 0, 44, 96
2, 731273, Note_on_c, 0, 44, 0
2, 731280, Note_on_c, 0, 51, 96
2, 731393, Note_on_c, 0, 51, 0
2, 731400, Note_on_c, 0, 44, 96
2, 731513, Note_on_c, 0, 44, 0
2, 731520, Note_on_c, 0, 47, 96
2, 731633, Note_on_c, 0, 47, 0
2, 731640, Note_on_c, 0, 44, 96
2, 731753, Note_on_c, 0, 44, 0
2, 731760, Note_on_c, 0, 44, 96
2, 731873, Note_on_c, 0, 44, 0
2, 731880, Note_on_c, 0, 51, 96
2, 731993, Note_on_c, 0, 51, 0
2, 732000, Note_on_c, 0, 44, 96
2, 732113, Note_on_c, 0, 44, 0
2, 732120, Note_on_c, 0, 44, 96
2, 732233, Note_on_c, 0, 44, 0
2, 732240, Note_on_c, 0, 54, 96
2, 732467, Note_on_c, 0, 54, 0
2, 732480, Note_on_c, 0, 45, 80
2, 732593, Note_on_c, 0, 45, 0
2, 732600, Note_on_c, 0, 45, 80
2, 732713, Note_on_c, 0, 45, 0
2, 732720, Note_on_c, 0, 52, 80
2, 732833, Note_on_c, 0, 52, 0
2, 732840, Note_on_c, 0, 45, 80
2, 732953, Note_on_c, 0, 45, 0
2, 732960, Note_on_c, 0, 45, 80
2, 733073, Note_on_c, 0, 45, 0
2, 733080, Note_on_c, 0, 45, 80
2, 733193, Note_on_c, 0, 45, 0
2, 733200, Note_on_c, 0, 52, 80
2, 733313, Note_on_c, 0, 52, 0
2, 733320, Note_on_c, 0, 45, 80
2, 733433, Note_on_c, 0, 45, 0
2, 733440, Note_on_c, 0, 45, 80
2, 733553, Note_on_c, 0, 45, 0
2, 733560, Note_on_c, 0, 45, 80
2, 733673, Note_on_c, 0, 45, 0
2, 733680, Note_on_c, 0, 52, 80
2, 733793, Note_on_c, 0, 52, 0
2, 733800, Note_on_c, 0, 45, 80
2, 733913, Note_on_c, 0, 45, 0
2, 733920, Note_on_c, 0, 44, 80
2, 734033, Note_on_c, 0, 44, 0
2, 734040, Note_on_c, 0, 44, 80
2, 734153, Note_on_c, 0, 44, 0
2, 734160, Note_on_c, 0, 49, 80
2, 734387, Note_on_c, 0, 49, 0
2, 734400, Note_on_c, 0, 47, 80
2, 734513, Note_on_c, 0, 47, 0
2, 734520, Note_on_c, 0, 47, 80
2, 734633, Note_on_c, 0, 47, 0
2, 734640, Note_on_c, 0, 54, 80
2, 734753, Note_on_c, 0, 54, 0
2, 734760, Note_on_c, 0, 47, 80
2, 734873, Note_on_c, 0, 47, 0
2, 734880, Note_on_c, 0, 47, 80
2, 734993, Note_on_c, 0, 47, 0
2, 735000, Note_on_c, 0, 47, 80
2, 735113, Note_on_c, 0, 47, 0
2, 735120, Note_on_c, 0, 54, 80
2, 735233, Note_on_c, 0, 54, 0
2, 735240, Note_on_c, 0, 47, 80
2, 735353, Note_on_c, 0, 47, 0
2, 735360, Note_on_c, 0, 47, 80
2, 735473, Note_on_c, 0, 47, 0
2, 735480, Note_on_c, 0, 47, 80
2, 735593, Note_on_c, 0, 47, 0
2, 735600, Note_on_c, 0, 54, 80
2, 735713, Note_on_c, 0, 54, 0
2, 735720, Note_on_c, 0, 47, 80
2, 735833, Note_on_c, 0, 47, 0
2, 735840, Note_on_c, 0, 47, 80
2, 735953, Note_on_c, 0, 47, 0
2, 735960, Note_on_c, 0, 47, 80
2, 736073, Note_on_c, 0, 47, 0
2, 736080, Note_on_c, 0, 51, 80
2, 736307, Note_on_c, 0, 51, 0
2, 736320, Note_on_c, 0, 49, 80
2, 736433, Note_on_c, 0, 49, 0
2, 736440, Note_on_c, 0, 49, 80
2, 736553, Note_on_c, 0, 49, 0
2, 736560, Note_on_c, 0, 56, 80
2, 736673, Note_on_c, 0, 56, 0
2, 736680, Note_on_c, 0, 49, 80
2, 736793, Note_on_c, 0, 49, 0
2, 736800, Note_on_c, 0, 49, 80
2, 736913, Note_on_c, 0, 49, 0
2, 736920, Note_on_c, 0, 49, 80
2, 737033, Note_on_c, 0, 49, 0
2, 737040, Note_on_c, 0, 56, 80
2, 737153, Note_on_c, 0, 56, 0
2, 737160, Note_on_c, 0, 49, 80
2, 737273, Note_on_c, 0, 49, 0
2, 737280, Note_on_c, 0, 49, 80
2, 737393, Note_on_c, 0, 49, 0
2, 737400, Note_on_c, 0, 49, 80
2, 737513, Note_on_c, 0, 49, 0
2, 737520, Note_on_c, 0, 56, 80
2, 737633, Note_on_c, 0, 56, 0
2, 737640, Note_on_c, 0, 49, 80
2, 737753, Note_on_c, 0, 49, 0
2, 737760, Note_on_c, 0, 49, 80
2, 737873, Note_on_c, 0, 49, 0
2, 737880, Note_on_c, 0, 49, 80
2, 737993, Note_on_c, 0, 49, 0
2, 738000, Note_on_c, 0, 47, 80
2, 738227, Note_on_c, 0, 47, 0
2, 738240, Note_on_c, 0, 44, 80
2, 738581, Note_on_c, 0, 44, 0
2, 738600, Note_on_c, 0, 44, 80
2, 738941, Note_on_c, 0, 44, 0
2, 738960, Note_on_c, 0, 44, 80
2, 739187, Note_on_c, 0, 44, 0
2, 739200, Note_on_c, 0, 37, 96
2, 739200, Note_on_c, 0, 49, 96
2, 739559, Note_on_c, 0, 37, 0
2, 739559, Note_on_c, 0, 49, 0
2, 739560, Note_on_c, 0, 40, 103
2, 739560, Note_on_c, 0, 52, 103
2, 739907, Note_on_c, 0, 40, 0
2, 739907, Note_on_c, 0, 52, 0
2, 739920, Note_on_c, 0, 44, 110
2, 739920, Note_on_c, 0, 56, 110
2, 740159, Note_on_c, 0, 44, 0
2, 740159, Note_on_c, 0, 56, 0
2, 740160, Note_on_c, 0, 42, 96
2, 740273, Note_on_c, 0, 42, 0
2, 740280, Note_on_c, 0, 49, 96
2, 740393, Note_on_c, 0, 49, 0
2, 740400, Note_on_c, 0, 54, 96
2, 740513, Note_on_c, 0, 54, 0
2, 740520, Note_on_c, 0, 49, 96
2, 740633, Note_on_c, 0, 49, 0
2, 740640, Note_on_c, 0, 42, 96
2, 740753, Note_on_c, 0, 42, 0
2, 740760, Note_on_c, 0, 49, 96
2, 740873, Note_on_c, 0, 49, 0
2, 740880, Note_on_c, 0, 54, 96
2, 740993, Note_on_c, 0, 54, 0
2, 741000, Note_on_c, 0, 49, 96
2, 741113, Note_on_c, 0, 49, 0
2, 741120, Note_on_c, 0, 42, 96
2, 741233, Note_on_c, 0, 42, 0
2, 741240, Note_on_c, 0, 49, 96
2, 741353, Note_on_c, 0, 49, 0
2, 741360, Note_on_c, 0, 54, 96
2, 741473, Note_on_c, 0, 54, 0
2, 741480, Note_on_c, 0, 49, 96
2, 741593, Note_on_c, 0, 49, 0
2, 741600, Note_on_c, 0, 44, 96
2, 741713, Note_on_c, 0, 44, 0
2, 741720, Note_on_c, 0, 44, 96
2, 741833, Note_on_c, 0, 44, 0
2, 741840, Note_on_c, 0, 47, 96
2, 742067, Note_on_c, 0, 47, 0
2, 742080, Note_on_c, 0, 44, 96
2, 742193, Note_on_c, 0, 44, 0
2, 742200, Note_on_c, 0, 51, 96
2, 742313, Note_on_c, 0, 51, 0
2, 742320, Note_on_c, 0, 56, 96
2, 742433, Note_on_c, 0, 56, 0
2, 742440, Note_on_c, 0, 51, 96
2, 742553, Note_on_c, 0, 51, 0
2, 742560, Note_on_c, 0, 44, 96
2, 742673, Note_on_c, 0, 44, 0
2, 742680, Note_on_c, 0, 51, 96
2, 742793, Note_on_c, 0, 51, 0
2, 742800, Note_on_c, 0, 56, 96
2, 742913, Note_on_c, 0, 56, 0
2, 742920, Note_on_c, 0, 51, 96
2, 743033, Note_on_c, 0, 51, 0
2, 743040, Note_on_c, 0, 44, 96
2, 743153, Note_on_c, 0, 44, 0
2, 743160, Note_on_c, 0, 51, 96
2, 743273, Note_on_c, 0, 51, 0
2, 743280, Note_on_c, 0, 56, 96
2, 743393, Note_on_c, 0, 56, 0
2, 743400, Note_on_c, 0, 51, 96
2, 743513, Note_on_c, 0, 51, 0
2, 743520, Note_on_c, 0, 47, 96
2, 743633, Note_on_c, 0, 47, 0
2, 743640, Note_on_c, 0, 47, 96
2, 743753, Note_on_c, 0, 47, 0
2, 743760, Note_on_c, 0, 51, 96
2, 743987, Note_on_c, 0, 51, 0
2, 744000, Note_on_c, 0, 45, 96
2, 744113, Note_on_c, 0, 45, 0
2, 744120, Note_on_c, 0, 52, 96
2, 744233, Note_on_c, 0, 52, 0
2, 744240, Note_on_c, 0, 57, 96
2, 744353, Note_on_c, 0, 57, 0
2, 744360, Note_on_c, 0, 52, 96
2, 744473, Note_on_c, 0, 52, 0
2, 744480, Note_on_c, 0, 45, 96
2, 744593, Note_on_c, 0, 45, 0
2, 744600, Note_on_c, 0, 52, 96
2, 744713, Note_on_c, 0, 52, 0
2, 744720, Note_on_c, 0, 57, 96
2, 744833, Note_on_c, 0, 57, 0
2, 744840, Note_on_c, 0, 52, 96
2, 744953, Note_on_c, 0, 52, 0
2, 744960, Note_on_c, 0, 45, 96
2, 745073, Note_on_c, 0, 45, 0
2, 745080, Note_on_c, 0, 52, 96
2, 745193, Note_on_c, 0, 52, 0
2, 745200, Note_on_c, 0, 57, 96
2, 745313, Note_on_c, 0, 57, 0
2, 745320, Note_on_c, 0, 52, 96
2, 745433, Note_on_c, 0, 52, 0
2, 745440, Note_on_c, 0, 45, 96
2, 745553, Note_on_c, 0, 45, 0
2, 745560, Note_on_c, 0, 52, 96
2, 745673, Note_on_c, 0, 52, 0
2, 745680, Note_on_c, 0, 57, 96
2, 745793, Note_on_c, 0, 57, 0
2, 745800, Note_on_c, 0, 52, 96
2, 745913, Note_on_c, 0, 52, 0
2, 745920, Note_on_c, 0, 44, 96
2, 745920, Note_on_c, 0, 56, 96
2, 746831, Note_on_c, 0, 44, 0
2, 746831, Note_on_c, 0, 56, 0
2, 746880, Key_signature, 2, "major"
2, 746880, Note_on_c, 0, 62, 64
2, 747107, Note_on_c, 0, 62, 0
2, 747120, Note_on_c, 0, 66, 64
2, 747347, Note_on_c, 0, 66, 0
2, 747360, Note_on_c, 0, 69, 64
2, 747587, Note_on_c, 0, 69, 0
2, 747600, Note_on_c, 0, 66, 64
2, 747827, Note_on_c, 0, 66, 0
2, 747840, Note_on_c, 0, 69, 64
2, 748067, Note_on_c, 0, 69, 0
2, 748080, Note_on_c, 0, 66, 64
2, 748307, Note_on_c, 0, 66, 0
2, 748320, Note_on_c, 0, 62, 64
2, 748547, Note_on_c, 0, 62, 0
2, 748560, Note_on_c, 0, 66, 64
2, 748787, Note_on_c, 0, 66, 0
2, 748800, Note_on_c, 0, 69, 64
2, 749027, Note_on_c, 0, 69, 0
2, 749040, Note_on_c, 0, 66, 64
2, 749267, Note_on_c, 0, 66, 0
2, 749280, Note_on_c, 0, 69, 64
2, 749507, Note_on_c, 0, 69, 0
2, 749520, Note_on_c, 0, 66, 64
2, 749747, Note_on_c, 0, 66, 0
2, 749760, Note_on_c, 0, 59, 64
2, 749987, Note_on_c, 0, 59, 0
2, 750000, Note_on_c, 0, 63, 64
2, 750227, Note_on_c, 0, 63, 0
2, 750240, Note_on_c, 0, 66, 64
2, 750467, Note_on_c, 0, 66, 0
2, 750480, Note_on_c, 0, 63, 64
2, 750707, Note_on_c, 0, 63, 0
2, 750720, Note_on_c, 0, 66, 64
2, 750947, Note_on_c, 0, 66, 0
2, 750960, Note_on_c, 0, 63, 64
2, 751187, Note_on_c, 0, 63, 0
2, 751200, Note_on_c, 0, 59, 64
2, 751427, Note_on_c, 0, 59, 0
2, 751440, Note_on_c, 0, 63, 64
2, 751667, Note_on_c, 0, 63, 0
2, 751680, Note_on_c, 0, 66, 64
2, 751907, Note_on_c, 0, 66, 0
2, 751920, Note_on_c, 0, 63, 64
2, 752147, Note_on_c, 0, 63, 0
2, 752160, Note_on_c, 0, 66, 64
2, 752387, Note_on_c, 0, 66, 0
2, 752400, Note_on_c, 0, 63, 64
2, 752627, Note_on_c, 0, 63, 0
2, 752640, Note_on_c, 0, 55, 64
2, 752867, Note_on_c, 0, 55, 0
2, 752880, Note_on_c, 0, 59, 64
2, 753107, Note_on_c, 0, 59, 0
2, 753120, Note_on_c, 0, 62, 64
2, 753347, Note_on_c, 0, 62, 0
2, 753360, Note_on_c, 0, 59, 64
2, 753587, Note_on_c, 0, 59, 0
2, 753600, Note_on_c, 0, 62, 64
2, 753827, Note_on_c, 0, 62, 0
2, 753840, Note_on_c, 0, 59, 64
2, 754067, Note_on_c, 0, 59, 0
2, 754080, Note_on_c, 0, 55, 64
2, 754307, Note_on_c, 0, 55, 0
2, 754320, Note_on_c, 0, 58, 64
2, 754547, Note_on_c, 0, 58, 0
2, 754560, Note_on_c, 0, 62, 64
2, 754787, Note_on_c, 0, 62, 0
2, 754800, Note_on_c, 0, 58, 64
2, 755027, Note_on_c, 0, 58, 0
2, 755040, Note_on_c, 0, 62, 64
2, 755267, Note_on_c, 0, 62, 0
2, 755280, Note_on_c, 0, 58, 64
2, 755507, Note_on_c, 0, 58, 0
2, 755520, Note_on_c, 0, 62, 64
2, 755747, Note_on_c, 0, 62, 0
2, 755760, Note_on_c, 0, 66, 64
2, 755987, Note_on_c, 0, 66, 0
2, 756000, Note_on_c, 0, 69, 64
2, 756227, Note_on_c, 0, 69, 0
2, 756240, Note_on_c, 0, 66, 64
2, 756467, Note_on_c, 0, 66, 0
2, 756480, Note_on_c, 0, 69, 64
2, 756707, Note_on_c, 0, 69, 0
2, 756720, Note_on_c, 0, 66, 64
2, 756947, Note_on_c, 0, 66, 0
2, 756960, Note_on_c, 0, 57, 64
2, 757187, Note_on_c, 0, 57, 0
2, 757200, Note_on_c, 0, 64, 64
2, 757427, Note_on_c, 0, 64, 0
2, 757440, Note_on_c, 0, 69, 64
2, 757667, Note_on_c, 0, 69, 0
2, 757680, Note_on_c, 0, 64, 64
2, 757907, Note_on_c, 0, 64, 0
2, 757920, Note_on_c, 0, 69, 64
2, 758147, Note_on_c, 0, 69, 0
2, 758160, Note_on_c, 0, 64, 64
2, 758387, Note_on_c, 0, 64, 0
2, 758400, Note_on_c, 0, 67, 64
2, 758627, Note_on_c, 0, 67, 0
2, 758640, Note_on_c, 0, 62, 64
2, 758867, Note_on_c, 0, 62, 0
2, 758880, Note_on_c, 0, 67, 64
2, 759107, Note_on_c, 0, 67, 0
2, 759120, Note_on_c, 0, 62, 64
2, 759347, Note_on_c, 0, 62, 0
2, 759360, Note_on_c, 0, 67, 64
2, 759587, Note_on_c, 0, 67, 0
2, 759600, Note_on_c, 0, 66, 64
2, 759827, Note_on_c, 0, 66, 0
2, 759840, Note_on_c, 0, 64, 64
2, 760067, Note_on_c, 0, 64, 0
2, 760080, Note_on_c, 0, 61, 64
2, 760307, Note_on_c, 0, 61, 0
2, 760320, Note_on_c, 0, 66, 64
2, 760547, Note_on_c, 0, 66, 0
2, 760560, Note_on_c, 0, 57, 64
2, 760787, Note_on_c, 0, 57, 0
2, 760800, Note_on_c, 0, 59, 64
2, 761027, Note_on_c, 0, 59, 0
2, 761040, Note_on_c, 0, 61, 64
2, 761267, Note_on_c, 0, 61, 0
2, 761280, Note_on_c, 0, 64, 64
2, 761507, Note_on_c, 0, 64, 0
2, 761520, Note_on_c, 0, 66, 64
2, 761747, Note_on_c, 0, 66, 0
2, 761760, Note_on_c, 0, 61, 64
2, 761987, Note_on_c, 0, 61, 0
2, 762000, Note_on_c, 0, 66, 64
2, 762227, Note_on_c, 0, 66, 0
2, 762240, Note_on_c, 0, 61, 64
2, 762467, Note_on_c, 0, 61, 0
2, 762480, Note_on_c, 0, 55, 64
2, 762707, Note_on_c, 0, 55, 0
2, 762720, Note_on_c, 0, 57, 64
2, 762947, Note_on_c, 0, 57, 0
2, 762960, Note_on_c, 0, 61, 64
2, 763187, Note_on_c, 0, 61, 0
2, 763200, Note_on_c, 0, 69, 64
2, 763427, Note_on_c, 0, 69, 0
2, 763440, Note_on_c, 0, 62, 64
2, 763667, Note_on_c, 0, 62, 0
2, 763680, Note_on_c, 0, 67, 64
2, 763907, Note_on_c, 0, 67, 0
2, 763920, Note_on_c, 0, 66, 64
2, 764147, Note_on_c, 0, 66, 0
2, 764160, Note_on_c, 0, 59, 64
2, 764387, Note_on_c, 0, 59, 0
2, 764400, Note_on_c, 0, 62, 64
2, 764627, Note_on_c, 0, 62, 0
2, 764640, Note_on_c, 0, 66, 64
2, 764867, Note_on_c, 0, 66, 0
2, 764880, Note_on_c, 0, 62, 64
2, 765107, Note_on_c, 0, 62, 0
2, 765120, Note_on_c, 0, 66, 64
2, 765347, Note_on_c, 0, 66, 0
2, 765360, Note_on_c, 0, 59, 64
2, 765587, Note_on_c, 0, 59, 0
2, 765600, Note_on_c, 0, 57, 64
2, 765827, Note_on_c, 0, 57, 0
2, 765840, Note_on_c, 0, 61, 64
2, 766067, Note_on_c, 0, 61, 0
2, 766080, Note_on_c, 0, 64, 64
2, 766307, Note_on_c, 0, 64, 0
2, 766320, Note_on_c, 0, 61, 64
2, 766547, Note_on_c, 0, 61, 0
2, 766560, Note_on_c, 0, 66, 64
2, 766787, Note_on_c, 0, 66, 0
2, 766800, Note_on_c, 0, 70, 64
2, 767027, Note_on_c, 0, 70, 0
2, 767040, Note_on_c, 0, 71, 64
2, 767267, Note_on_c, 0, 71, 0
2, 767280, Note_on_c, 0, 66, 64
2, 767507, Note_on_c, 0, 66, 0
2, 767520, Note_on_c, 0, 71, 64
2, 767747, Note_on_c, 0, 71, 0
2, 767760, Note_on_c, 0, 66, 64
2, 767987, Note_on_c, 0, 66, 0
2, 768000, Note_on_c, 0, 71, 64
2, 768227, Note_on_c, 0, 71, 0
2, 768240, Note_on_c, 0, 66, 64
2, 768467, Note_on_c, 0, 66, 0
2, 768480, Note_on_c, 0, 61, 64
2, 768707, Note_on_c, 0, 61, 0
2, 768720, Note_on_c, 0, 64, 64
2, 768947, Note_on_c, 0, 64, 0
2, 768960, Note_on_c, 0, 69, 64
2, 769187, Note_on_c, 0, 69, 0
2, 769200, Note_on_c, 0, 64, 64
2, 769427, Note_on_c, 0, 64, 0
2, 769440, Note_on_c, 0, 69, 64
2, 769667, Note_on_c, 0, 69, 0
2, 769680, Note_on_c, 0, 64, 64
2, 769907, Note_on_c, 0, 64, 0
2, 769920, Note_on_c, 0, 62, 80
2, 770039, Note_on_c, 0, 62, 0
2, 770160, Note_on_c, 0, 66, 80
2, 770160, Note_on_c, 0, 69, 80
2, 770279, Note_on_c, 0, 66, 0
2, 770279, Note_on_c, 0, 69, 0
2, 770400, Note_on_c, 0, 66, 80
2, 770400, Note_on_c, 0, 69, 80
2, 770519, Note_on_c, 0, 66, 0
2, 770519, Note_on_c, 0, 69, 0
2, 770640, Note_on_c, 0, 62, 80
2, 770759, Note_on_c, 0, 62, 0
2, 770880, Note_on_c, 0, 66, 80
2, 770880, Note_on_c, 0, 69, 80
2, 770999, Note_on_c, 0, 66, 0
2, 770999, Note_on_c, 0, 69, 0
2, 771120, Note_on_c, 0, 66, 80
2, 771120, Note_on_c, 0, 69, 80
2, 771239, Note_on_c, 0, 66, 0
2, 771239, Note_on_c, 0, 69, 0
2, 771360, Note_on_c, 0, 61, 80
2, 771479, Note_on_c, 0, 61, 0
2, 771600, Note_on_c, 0, 64, 80
2, 771600, Note_on_c, 0, 69, 80
2, 771719, Note_on_c, 0, 64, 0
2, 771719, Note_on_c, 0, 69, 0
2, 771840, Note_on_c, 0, 64, 80
2, 771840, Note_on_c, 0, 69, 80
2, 771959, Note_on_c, 0, 64, 0
2, 771959, Note_on_c, 0, 69, 0
2, 772080, Note_on_c, 0, 61, 80
2, 772199, Note_on_c, 0, 61, 0
2, 772320, Note_on_c, 0, 64, 80
2, 772320, Note_on_c, 0, 69, 80
2, 772439, Note_on_c, 0, 64, 0
2, 772439, Note_on_c, 0, 69, 0
2, 772560, Note_on_c, 0, 64, 80
2, 772560, Note_on_c, 0, 69, 80
2, 772679, Note_on_c, 0, 64, 0
2, 772679, Note_on_c, 0, 69, 0
2, 772800, Note_on_c, 0, 59, 80
2, 772919, Note_on_c, 0, 59, 0
2, 773040, Note_on_c, 0, 62, 80
2, 773040, Note_on_c, 0, 66, 80
2, 773159, Note_on_c, 0, 62, 0
2, 773159, Note_on_c, 0, 66, 0
2, 773280, Note_on_c, 0, 62, 80
2, 773280, Note_on_c, 0, 66, 80
2, 773399, Note_on_c, 0, 62, 0
2, 773399, Note_on_c, 0, 66, 0
2, 773520, Note_on_c, 0, 59, 80
2, 773639, Note_on_c, 0, 59, 0
2, 773760, Note_on_c, 0, 62, 80
2, 773760, Note_on_c, 0, 66, 80
2, 773879, Note_on_c, 0, 62, 0
2, 773879, Note_on_c, 0, 66, 0
2, 774000, Note_on_c, 0, 62, 80
2, 774000, Note_on_c, 0, 66, 80
2, 774119, Note_on_c, 0, 62, 0
2, 774119, Note_on_c, 0, 66, 0
2, 774240, Note_on_c, 0, 57, 80
2, 774359, Note_on_c, 0, 57, 0
2, 774480, Note_on_c, 0, 61, 80
2, 774480, Note_on_c, 0, 64, 80
2, 774599, Note_on_c, 0, 61, 0
2, 774599, Note_on_c, 0, 64, 0
2, 774720, Note_on_c, 0, 61, 80
2, 774720, Note_on_c, 0, 64, 80
2, 774839, Note_on_c, 0, 61, 0
2, 774839, Note_on_c, 0, 64, 0
2, 774960, Note_on_c, 0, 57, 80
2, 775079, Note_on_c, 0, 57, 0
2, 775200, Note_on_c, 0, 61, 80
2, 775200, Note_on_c, 0, 64, 80
2, 775319, Note_on_c, 0, 61, 0
2, 775319, Note_on_c, 0, 64, 0
2, 775440, Note_on_c, 0, 61, 80
2, 775440, Note_on_c, 0, 64, 80
2, 775559, Note_on_c, 0, 61, 0
2, 775559, Note_on_c, 0, 64, 0
2, 775680, Note_on_c, 0, 55, 80
2, 775799, Note_on_c, 0, 55, 0
2, 775920, Note_on_c, 0, 59, 80
2, 775920, Note_on_c, 0, 62, 80
2, 776039, Note_on_c, 0, 59, 0
2, 776039, Note_on_c, 0, 62, 0
2, 776160, Note_on_c, 0, 59, 80
2, 776160, Note_on_c, 0, 62, 80
2, 776279, Note_on_c, 0, 59, 0
2, 776279, Note_on_c, 0, 62, 0
2, 776400, Note_on_c, 0, 55, 80
2, 776519, Note_on_c, 0, 55, 0
2, 776640, Note_on_c, 0, 59, 80
2, 776640, Note_on_c, 0, 62, 80
2, 776759, Note_on_c, 0, 59, 0
2, 776759, Note_on_c, 0, 62, 0
2, 776880, Note_on_c, 0, 59, 80
2, 776880, Note_on_c, 0, 62, 80
2, 776999, Note_on_c, 0, 59, 0
2, 776999, Note_on_c, 0, 62, 0
2, 777120, Note_on_c, 0, 54, 80
2, 777239, Note_on_c, 0, 54, 0
2, 777360, Note_on_c, 0, 57, 80
2, 777360, Note_on_c, 0, 62, 80
2, 777479, Note_on_c, 0, 57, 0
2, 777479, Note_on_c, 0, 62, 0
2, 777600, Note_on_c, 0, 57, 80
2, 777600, Note_on_c, 0, 62, 80
2, 777719, Note_on_c, 0, 57, 0
2, 777719, Note_on_c, 0, 62, 0
2, 777840, Note_on_c, 0, 54, 80
2, 777959, Note_on_c, 0, 54, 0
2, 778080, Note_on_c, 0, 57, 80
2, 778080, Note_on_c, 0, 62, 80
2, 778199, Note_on_c, 0, 57, 0
2, 778199, Note_on_c, 0, 62, 0
2, 778320, Note_on_c, 0, 57, 80
2, 778320, Note_on_c, 0, 62, 80
2, 778439, Note_on_c, 0, 57, 0
2, 778439, Note_on_c, 0, 62, 0
2, 778560, Note_on_c, 0, 52, 80
2, 778679, Note_on_c, 0, 52, 0
2, 778800, Note_on_c, 0, 55, 80
2, 778800, Note_on_c, 0, 59, 80
2, 778919, Note_on_c, 0, 55, 0
2, 778919, Note_on_c, 0, 59, 0
2, 779040, Note_on_c, 0, 55, 80
2, 779040, Note_on_c, 0, 59, 80
2, 779159, Note_on_c, 0, 55, 0
2, 779159, Note_on_c, 0, 59, 0
2, 779280, Note_on_c, 0, 52, 80
2, 779399, Note_on_c, 0, 52, 0
2, 779520, Note_on_c, 0, 55, 80
2, 779520, Note_on_c, 0, 59, 80
2, 779639, Note_on_c, 0, 55, 0
2, 779639, Note_on_c, 0, 59, 0
2, 779760, Note_on_c, 0, 55, 80
2, 779760, Note_on_c, 0, 59, 80
2, 779879, Note_on_c, 0, 55, 0
2, 779879, Note_on_c, 0, 59, 0
2, 780000, Note_on_c, 0, 57, 80
2, 780119, Note_on_c, 0, 57, 0
2, 780240, Note_on_c, 0, 61, 80
2, 780240, Note_on_c, 0, 64, 80
2, 780359, Note_on_c, 0, 61, 0
2, 780359, Note_on_c, 0, 64, 0
2, 780480, Note_on_c, 0, 61, 80
2, 780480, Note_on_c, 0, 64, 80
2, 780599, Note_on_c, 0, 61, 0
2, 780599, Note_on_c, 0, 64, 0
2, 780720, Note_on_c, 0, 57, 80
2, 780839, Note_on_c, 0, 57, 0
2, 780960, Note_on_c, 0, 61, 80
2, 780960, Note_on_c, 0, 64, 80
2, 781079, Note_on_c, 0, 61, 0
2, 781079, Note_on_c, 0, 64, 0
2, 781200, Note_on_c, 0, 61, 80
2, 781200, Note_on_c, 0, 64, 80
2, 781319, Note_on_c, 0, 61, 0
2, 781319, Note_on_c, 0, 64, 0
2, 781440, Note_on_c, 0, 55, 80
2, 781440, Note_on_c, 0, 43, 80
2, 781559, Note_on_c, 0, 55, 0
2, 781680, Note_on_c, 0, 59, 80
2, 781680, Note_on_c, 0, 62, 80
2, 781799, Note_on_c, 0, 59, 0
2, 781799, Note_on_c, 0, 62, 0
2, 781920, Note_on_c, 0, 59, 80
2, 781920, Note_on_c, 0, 62, 80
2, 782039, Note_on_c, 0, 59, 0
2, 782039, Note_on_c, 0, 62, 0
2, 782160, Note_on_c, 0, 55, 80
2, 782279, Note_on_c, 0, 55, 0
2, 782400, Note_on_c, 0, 59, 80
2, 782400, Note_on_c, 0, 62, 80
2, 782519, Note_on_c, 0, 59, 0
2, 782519, Note_on_c, 0, 62, 0
2, 782640, Note_on_c, 0, 59, 80
2, 782640, Note_on_c, 0, 62, 80
2, 782759, Note_on_c, 0, 59, 0
2, 782759, Note_on_c, 0, 62, 0
2, 782807, Note_on_c, 0, 43, 0
2, 782880, Note_on_c, 0, 55, 80
2, 782999, Note_on_c, 0, 55, 0
2, 783120, Note_on_c, 0, 59, 80
2, 783120, Note_on_c, 0, 62, 80
2, 783239, Note_on_c, 0, 59, 0
2, 783239, Note_on_c, 0, 62, 0
2, 783360, Note_on_c, 0, 59, 80
2, 783360, Note_on_c, 0, 62, 80
2, 783479, Note_on_c, 0, 59, 0
2, 783479, Note_on_c, 0, 62, 0
2, 783600, Note_on_c, 0, 55, 80
2, 783719, Note_on_c, 0, 55, 0
2, 783840, Note_on_c, 0, 59, 80
2, 783840, Note_on_c, 0, 62, 80
2, 783959, Note_on_c, 0, 59, 0
2, 783959, Note_on_c, 0, 62, 0
2, 784080, Note_on_c, 0, 59, 80
2, 784080, Note_on_c, 0, 62, 80
2, 784199, Note_on_c, 0, 59, 0
2, 784199, Note_on_c, 0, 62, 0
2, 784320, Note_on_c, 0, 54, 80
2, 784320, Note_on_c, 0, 42, 80
2, 784439, Note_on_c, 0, 54, 0
2, 784560, Note_on_c, 0, 57, 80
2, 784560, Note_on_c, 0, 61, 80
2, 784679, Note_on_c, 0, 57, 0
2, 784679, Note_on_c, 0, 61, 0
2, 784800, Note_on_c, 0, 57, 80
2, 784800, Note_on_c, 0, 61, 80
2, 784919, Note_on_c, 0, 57, 0
2, 784919, Note_on_c, 0, 61, 0
2, 785040, Note_on_c, 0, 54, 80
2, 785159, Note_on_c, 0, 54, 0
2, 785280, Note_on_c, 0, 57, 80
2, 785280, Note_on_c, 0, 61, 80
2, 785399, Note_on_c, 0, 57, 0
2, 785399, Note_on_c, 0, 61, 0
2, 785520, Note_on_c, 0, 57, 80
2, 785520, Note_on_c, 0, 61, 80
2, 785639, Note_on_c, 0, 57, 0
2, 785639, Note_on_c, 0, 61, 0
2, 785687, Note_on_c, 0, 42, 0
2, 785760, Note_on_c, 0, 54, 80
2, 785879, Note_on_c, 0, 54, 0
2, 786000, Note_on_c, 0, 57, 80
2, 786000, Note_on_c, 0, 61, 80
2, 786119, Note_on_c, 0, 57, 0
2, 786119, Note_on_c, 0, 61, 0
2, 786240, Note_on_c, 0, 57, 80
2, 786240, Note_on_c, 0, 61, 80
2, 786359, Note_on_c, 0, 57, 0
2, 786359, Note_on_c, 0, 61, 0
2, 786480, Note_on_c, 0, 54, 80
2, 786599, Note_on_c, 0, 54, 0
2, 786720, Note_on_c, 0, 57, 80
2, 786720, Note_on_c, 0, 61, 80
2, 786839, Note_on_c, 0, 57, 0
2, 786839, Note_on_c, 0, 61, 0
2, 786960, Note_on_c, 0, 57, 80
2, 786960, Note_on_c, 0, 61, 80
2, 787079, Note_on_c, 0, 57, 0
2, 787079, Note_on_c, 0, 61, 0
2, 787200, Note_on_c, 0, 52, 80
2, 787200, Note_on_c, 0, 40, 80
2, 787319, Note_on_c, 0, 52, 0
2, 787440, Note_on_c, 0, 55, 80
2, 787440, Note_on_c, 0, 59, 80
2, 787559, Note_on_c, 0, 55, 0
2, 787559, Note_on_c, 0, 59, 0
2, 787680, Note_on_c, 0, 55, 80
2, 787680, Note_on_c, 0, 59, 80
2, 787799, Note_on_c, 0, 55, 0
2, 787799, Note_on_c, 0, 59, 0
2, 787920, Note_on_c, 0, 52, 80
2, 788039, Note_on_c, 0, 52, 0
2, 788160, Note_on_c, 0, 55, 80
2, 788160, Note_on_c, 0, 59, 80
2, 788279, Note_on_c, 0, 55, 0
2, 788279, Note_on_c, 0, 59, 0
2, 788400, Note_on_c, 0, 55, 80
2, 788400, Note_on_c, 0, 59, 80
2, 788519, Note_on_c, 0, 55, 0
2, 788519, Note_on_c, 0, 59, 0
2, 788567, Note_on_c, 0, 40, 0
2, 788640, Note_on_c, 0, 57, 80
2, 788640, Note_on_c, 0, 45, 80
2, 788759, Note_on_c, 0, 57, 0
2, 788880, Note_on_c, 0, 61, 80
2, 788880, Note_on_c, 0, 64, 80
2, 788999, Note_on_c, 0, 61, 0
2, 788999, Note_on_c, 0, 64, 0
2, 789120, Note_on_c, 0, 61, 80
2, 789120, Note_on_c, 0, 64, 80
2, 789239, Note_on_c, 0, 61, 0
2, 789239, Note_on_c, 0, 64, 0
2, 789360, Note_on_c, 0, 57, 80
2, 789479, Note_on_c, 0, 57, 0
2, 789600, Note_on_c, 0, 61, 80
2, 789600, Note_on_c, 0, 64, 80
2, 789719, Note_on_c, 0, 61, 0
2, 789719, Note_on_c, 0, 64, 0
2, 789840, Note_on_c, 0, 61, 80
2, 789840, Note_on_c, 0, 64, 80
2, 789959, Note_on_c, 0, 61, 0
2, 789959, Note_on_c, 0, 64, 0
2, 790007, Note_on_c, 0, 45, 0
2, 790080, Note_on_c, 0, 58, 80
2, 790080, Note_on_c, 0, 46, 80
2, 790199, Note_on_c, 0, 58, 0
2, 790320, Note_on_c, 0, 61, 80
2, 790320, Note_on_c, 0, 64, 80
2, 790439, Note_on_c, 0, 61, 0
2, 790439, Note_on_c, 0, 64, 0
2, 790560, Note_on_c, 0, 61, 80
2, 790560, Note_on_c, 0, 64, 80
2, 790679, Note_on_c, 0, 61, 0
2, 790679, Note_on_c, 0, 64, 0
2, 790800, Note_on_c, 0, 58, 80
2, 790919, Note_on_c, 0, 58, 0
2, 791040, Note_on_c, 0, 61, 80
2, 791040, Note_on_c, 0, 64, 80
2, 791159, Note_on_c, 0, 61, 0
2, 791159, Note_on_c, 0, 64, 0
2, 791280, Note_on_c, 0, 61, 80
2, 791280, Note_on_c, 0, 64, 80
2, 791399, Note_on_c, 0, 61, 0
2, 791399, Note_on_c, 0, 64, 0
2, 791447, Note_on_c, 0, 46, 0
2, 791520, Note_on_c, 0, 59, 80
2, 791520, Note_on_c, 0, 47, 80
2, 791639, Note_on_c, 0, 59, 0
2, 791760, Note_on_c, 0, 66, 80
2, 791879, Note_on_c, 0, 66, 0
2, 792000, Note_on_c, 0, 69, 80
2, 792119, Note_on_c, 0, 69, 0
2, 792203, Note_on_c, 0, 47, 0
2, 792240, Note_on_c, 0, 57, 80
2, 792240, Note_on_c, 0, 45, 80
2, 792359, Note_on_c, 0, 57, 0
2, 792480, Note_on_c, 0, 64, 80
2, 792719, Note_on_c, 0, 64, 0
2, 792923, Note_on_c, 0, 45, 0
2, 792960, Key_signature, -2, "major"
2, 792960, Note_on_c, 0, 39, 96
2, 792960, Note_on_c, 0, 46, 96
2, 792960, Note_on_c, 0, 51, 96
2, 793199, Note_on_c, 0, 39, 0
2, 793199, Note_on_c, 0, 46, 0
2, 793199, Note_on_c, 0, 51, 0
2, 793200, Note_on_c, 0, 39, 80
2, 793319, Note_on_c, 0, 39, 0
2, 793440, Note_on_c, 0, 51, 80
2, 793559, Note_on_c, 0, 51, 0
2, 793680, Note_on_c, 0, 39, 80
2, 793680, Note_on_c, 0, 51, 80
2, 793907, Note_on_c, 0, 39, 0
2, 793907, Note_on_c, 0, 51, 0
2, 793920, Note_on_c, 0, 39, 80
2, 794147, Note_on_c, 0, 39, 0
2, 794160, Note_on_c, 0, 39, 80
2, 794160, Note_on_c, 0, 51, 80
2, 794279, Note_on_c, 0, 39, 0
2, 794279, Note_on_c, 0, 51, 0
2, 794400, Note_on_c, 0, 39, 80
2, 794400, Note_on_c, 0, 51, 80
2, 794627, Note_on_c, 0, 39, 0
2, 794627, Note_on_c, 0, 51, 0
2, 794640, Note_on_c, 0, 51, 80
2, 794867, Note_on_c, 0, 51, 0
2, 794880, Note_on_c, 0, 39, 96
2, 794880, Note_on_c, 0, 46, 96
2, 794880, Note_on_c, 0, 51, 96
2, 795119, Note_on_c, 0, 39, 0
2, 795119, Note_on_c, 0, 46, 0
2, 795119, Note_on_c, 0, 51, 0
2, 795120, Note_on_c, 0, 39, 80
2, 795239, Note_on_c, 0, 39, 0
2, 795360, Note_on_c, 0, 51, 80
2, 795479, Note_on_c, 0, 51, 0
2, 795600, Note_on_c, 0, 39, 80
2, 795600, Note_on_c, 0, 51, 80
2, 795827, Note_on_c, 0, 39, 0
2, 795827, Note_on_c, 0, 51, 0
2, 795840, Note_on_c, 0, 39, 80
2, 796067, Note_on_c, 0, 39, 0
2, 796080, Note_on_c, 0, 39, 80
2, 796080, Note_on_c, 0, 51, 80
2, 796199, Note_on_c, 0, 39, 0
2, 796199, Note_on_c, 0, 51, 0
2, 796320, Note_on_c, 0, 51, 80
2, 796547, Note_on_c, 0, 51, 0
2, 796560, Note_on_c, 0, 41, 80
2, 796560, Note_on_c, 0, 53, 80
2, 796787, Note_on_c, 0, 41, 0
2, 796787, Note_on_c, 0, 53, 0
2, 796800, Note_on_c, 0, 39, 96
2, 796800, Note_on_c, 0, 46, 96
2, 796800, Note_on_c, 0, 51, 96
2, 797039, Note_on_c, 0, 39, 0
2, 797039, Note_on_c, 0, 46, 0
2, 797039, Note_on_c, 0, 51, 0
2, 797040, Note_on_c, 0, 39, 80
2, 797159, Note_on_c, 0, 39, 0
2, 797280, Note_on_c, 0, 51, 80
2, 797399, Note_on_c, 0, 51, 0
2, 797520, Note_on_c, 0, 39, 80
2, 797520, Note_on_c, 0, 51, 80
2, 797747, Note_on_c, 0, 39, 0
2, 797747, Note_on_c, 0, 51, 0
2, 797760, Note_on_c, 0, 39, 80
2, 797987, Note_on_c, 0, 39, 0
2, 798000, Note_on_c, 0, 39, 80
2, 798000, Note_on_c, 0, 51, 80
2, 798119, Note_on_c, 0, 39, 0
2, 798119, Note_on_c, 0, 51, 0
2, 798240, Note_on_c, 0, 39, 80
2, 798240, Note_on_c, 0, 51, 80
2, 798467, Note_on_c, 0, 39, 0
2, 798467, Note_on_c, 0, 51, 0
2, 798480, Note_on_c, 0, 51, 80
2, 798707, Note_on_c, 0, 51, 0
2, 798720, Note_on_c, 0, 39, 96
2, 798720, Note_on_c, 0, 46, 96
2, 798720, Note_on_c, 0, 51, 96
2, 798959, Note_on_c, 0, 39, 0
2, 798959, Note_on_c, 0, 46, 0
2, 798959, Note_on_c, 0, 51, 0
2, 798960, Note_on_c, 0, 39, 80
2, 799079, Note_on_c, 0, 39, 0
2, 799200, Note_on_c, 0, 51, 80
2, 799319, Note_on_c, 0, 51, 0
2, 799440, Note_on_c, 0, 39, 80
2, 799440, Note_on_c, 0, 51, 80
2, 799667, Note_on_c, 0, 39, 0
2, 799667, Note_on_c, 0, 51, 0
2, 799680, Note_on_c, 0, 39, 80
2, 799907, Note_on_c, 0, 39, 0
2, 799920, Note_on_c, 0, 39, 80
2, 799920, Note_on_c, 0, 51, 80
2, 800039, Note_on_c, 0, 39, 0
2, 800039, Note_on_c, 0, 51, 0
2, 800160, Note_on_c, 0, 51, 80
2, 800387, Note_on_c, 0, 51, 0
2, 800400, Note_on_c, 0, 41, 80
2, 800400, Note_on_c, 0, 53, 80
2, 800627, Note_on_c, 0, 41, 0
2, 800627, Note_on_c, 0, 53, 0
2, 800640, Note_on_c, 0, 38, 96
2, 800640, Note_on_c, 0, 45, 96
2, 800640, Note_on_c, 0, 50, 96
2, 800879, Note_on_c, 0, 38, 0
2, 800879, Note_on_c, 0, 45, 0
2, 800879, Note_on_c, 0, 50, 0
2, 800880, Note_on_c, 0, 38, 80
2, 800999, Note_on_c, 0, 38, 0
2, 801120, Note_on_c, 0, 50, 80
2, 801239, Note_on_c, 0, 50, 0
2, 801360, Note_on_c, 0, 38, 80
2, 801360, Note_on_c, 0, 50, 80
2, 801587, Note_on_c, 0, 38, 0
2, 801587, Note_on_c, 0, 50, 0
2, 801600, Note_on_c, 0, 38, 80
2, 801827, Note_on_c, 0, 38, 0
2, 801840, Note_on_c, 0, 38, 80
2, 801840, Note_on_c, 0, 50, 80
2, 801959, Note_on_c, 0, 38, 0
2, 801959, Note_on_c, 0, 50, 0
2, 802080, Note_on_c, 0, 38, 80
2, 802080, Note_on_c, 0, 50, 80
2, 802307, Note_on_c, 0, 38, 0
2, 802307, Note_on_c, 0, 50, 0
2, 802320, Note_on_c, 0, 50, 80
2, 802547, Note_on_c, 0, 50, 0
2, 802560, Note_on_c, 0, 38, 96
2, 802560, Note_on_c, 0, 45, 96
2, 802560, Note_on_c, 0, 50, 96
2, 802799, Note_on_c, 0, 38, 0
2, 802799, Note_on_c, 0, 45, 0
2, 802799, Note_on_c, 0, 50, 0
2, 802800, Note_on_c, 0, 38, 80
2, 802919, Note_on_c, 0, 38, 0
2, 803040, Note_on_c, 0, 50, 80
2, 803159, Note_on_c, 0, 50, 0
2, 803280, Note_on_c, 0, 38, 80
2, 803280, Note_on_c, 0, 50, 80
2, 803507, Note_on_c, 0, 38, 0
2, 803507, Note_on_c, 0, 50, 0
2, 803520, Note_on_c, 0, 38, 80
2, 803747, Note_on_c, 0, 38, 0
2, 803760, Note_on_c, 0, 38, 80
2, 803760, Note_on_c, 0, 50, 80
2, 803879, Note_on_c, 0, 38, 0
2, 803879, Note_on_c, 0, 50, 0
2, 804000, Note_on_c, 0, 50, 80
2, 804227, Note_on_c, 0, 50, 0
2, 804240, Note_on_c, 0, 41, 80
2, 804240, Note_on_c, 0, 53, 80
2, 804467, Note_on_c, 0, 41, 0
2, 804467, Note_on_c, 0, 53, 0
2, 804480, Note_on_c, 0, 43, 80
2, 804480, Note_on_c, 0, 55, 80
2, 804707, Note_on_c, 0, 43, 0
2, 804707, Note_on_c, 0, 55, 0
2, 804720, Note_on_c, 0, 43, 80
2, 804720, Note_on_c, 0, 55, 80
2, 804839, Note_on_c, 0, 43, 0
2, 804839, Note_on_c, 0, 55, 0
2, 804960, Note_on_c, 0, 43, 80
2, 804960, Note_on_c, 0, 50, 80
2, 804960, Note_on_c, 0, 55, 80
2, 805439, Note_on_c, 0, 43, 0
2, 805439, Note_on_c, 0, 50, 0
2, 805439, Note_on_c, 0, 55, 0
2, 805440, Note_on_c, 0, 45, 80
2, 805440, Note_on_c, 0, 57, 80
2, 805667, Note_on_c, 0, 45, 0
2, 805667, Note_on_c, 0, 57, 0
2, 805680, Note_on_c, 0, 45, 80
2, 805680, Note_on_c, 0, 57, 80
2, 805799, Note_on_c, 0, 45, 0
2, 805799, Note_on_c, 0, 57, 0
2, 805920, Note_on_c, 0, 45, 80
2, 805920, Note_on_c, 0, 53, 80
2, 805920, Note_on_c, 0, 57, 80
2, 806399, Note_on_c, 0, 45, 0
2, 806399, Note_on_c, 0, 53, 0
2, 806399, Note_on_c, 0, 57, 0
2, 806400, Note_on_c, 0, 46, 80
2, 806400, Note_on_c, 0, 58, 80
2, 806627, Note_on_c, 0, 46, 0
2, 806627, Note_on_c, 0, 58, 0
2, 806640, Note_on_c, 0, 46, 80
2, 806640, Note_on_c, 0, 53, 80
2, 806640, Note_on_c, 0, 58, 80
2, 806867, Note_on_c, 0, 46, 0
2, 806867, Note_on_c, 0, 53, 0
2, 806867, Note_on_c, 0, 58, 0
2, 806880, Note_on_c, 0, 46, 80
2, 806880, Note_on_c, 0, 58, 80
2, 807107, Note_on_c, 0, 46, 0
2, 807107, Note_on_c, 0, 58, 0
2, 807120, Note_on_c, 0, 46, 80
2, 807120, Note_on_c, 0, 53, 80
2, 807120, Note_on_c, 0, 58, 80
2, 807239, Note_on_c, 0, 46, 0
2, 807239, Note_on_c, 0, 53, 0
2, 807239, Note_on_c, 0, 58, 0
2, 807360, Note_on_c, 0, 48, 80
2, 807360, Note_on_c, 0, 53, 80
2, 807360, Note_on_c, 0, 60, 80
2, 807599, Note_on_c, 0, 48, 0
2, 807599, Note_on_c, 0, 53, 0
2, 807599, Note_on_c, 0, 60, 0
2, 807600, Note_on_c, 0, 46, 80
2, 807600, Note_on_c, 0, 53, 80
2, 807600, Note_on_c, 0, 58, 80
2, 807719, Note_on_c, 0, 46, 0
2, 807719, Note_on_c, 0, 53, 0
2, 807719, Note_on_c, 0, 58, 0
2, 807840, Note_on_c, 0, 48, 80
2, 807840, Note_on_c, 0, 53, 80
2, 807840, Note_on_c, 0, 60, 80
2, 808079, Note_on_c, 0, 48, 0
2, 808079, Note_on_c, 0, 53, 0
2, 808079, Note_on_c, 0, 60, 0
2, 808080, Note_on_c, 0, 50, 80
2, 808080, Note_on_c, 0, 53, 80
2, 808080, Note_on_c, 0, 62, 80
2, 808307, Note_on_c, 0, 50, 0
2, 808307, Note_on_c, 0, 53, 0
2, 808307, Note_on_c, 0, 62, 0
2, 808320, Note_on_c, 0, 36, 76
2, 808320, Note_on_c, 0, 48, 76
2, 808799, Note_on_c, 0, 36, 0
2, 808799, Note_on_c, 0, 48, 0
2, 808800, Note_on_c, 0, 36, 64
2, 808800, Note_on_c, 0, 48, 64
2, 809039, Note_on_c, 0, 36, 0
2, 809039, Note_on_c, 0, 48, 0
2, 809520, Note_on_c, 0, 36, 64
2, 809633, Note_on_c, 0, 36, 0
2, 809640, Note_on_c, 0, 36, 64
2, 809753, Note_on_c, 0, 36, 0
2, 809760, Note_on_c, 0, 36, 64
2, 809760, Note_on_c, 0, 48, 64
2, 810215, Note_on_c, 0, 36, 0
2, 810215, Note_on_c, 0, 48, 0
2, 810240, Note_on_c, 0, 36, 76
2, 810240, Note_on_c, 0, 48, 76
2, 810719, Note_on_c, 0, 36, 0
2, 810719, Note_on_c, 0, 48, 0
2, 810720, Note_on_c, 0, 36, 64
2, 810720, Note_on_c, 0, 48, 64
2, 810959, Note_on_c, 0, 36, 0
2, 810959, Note_on_c, 0, 48, 0
2, 811440, Note_on_c, 0, 36, 64
2, 811553, Note_on_c, 0, 36, 0
2, 811560, Note_on_c, 0, 36, 64
2, 811673, Note_on_c, 0, 36, 0
2, 811680, Note_on_c, 0, 36, 64
2, 811680, Note_on_c, 0, 48, 64
2, 812135, Note_on_c, 0, 36, 0
2, 812135, Note_on_c, 0, 48, 0
2, 812160, Note_on_c, 0, 38, 76
2, 812160, Note_on_c, 0, 50, 76
2, 812639, Note_on_c, 0, 38, 0
2, 812639, Note_on_c, 0, 50, 0
2, 812640, Note_on_c, 0, 38, 64
2, 812640, Note_on_c, 0, 50, 64
2, 812879, Note_on_c, 0, 38, 0
2, 812879, Note_on_c, 0, 50, 0
2, 813360, Note_on_c, 0, 38, 64
2, 813360, Note_on_c, 0, 50, 64
2, 814043, Note_on_c, 0, 38, 0
2, 814043, Note_on_c, 0, 50, 0
2, 814080, Note_on_c, 0, 38, 76
2, 814080, Note_on_c, 0, 50, 76
2, 814559, Note_on_c, 0, 38, 0
2, 814559, Note_on_c, 0, 50, 0
2, 814560, Note_on_c, 0, 38, 64
2, 814560, Note_on_c, 0, 50, 64
2, 814799, Note_on_c, 0, 38, 0
2, 814799, Note_on_c, 0, 50, 0
2, 815280, Note_on_c, 0, 38, 64
2, 815280, Note_on_c, 0, 50, 64
2, 815963, Note_on_c, 0, 38, 0
2, 815963, Note_on_c, 0, 50, 0
2, 816000, Note_on_c, 0, 39, 76
2, 816000, Note_on_c, 0, 46, 76
2, 816000, Note_on_c, 0, 51, 76
2, 816239, Note_on_c, 0, 39, 0
2, 816239, Note_on_c, 0, 46, 0
2, 816239, Note_on_c, 0, 51, 0
2, 816240, Note_on_c, 0, 39, 64
2, 816359, Note_on_c, 0, 39, 0
2, 816480, Note_on_c, 0, 51, 64
2, 816599, Note_on_c, 0, 51, 0
2, 816720, Note_on_c, 0, 39, 64
2, 816720, Note_on_c, 0, 51, 64
2, 816947, Note_on_c, 0, 39, 0
2, 816947, Note_on_c, 0, 51, 0
2, 816960, Note_on_c, 0, 39, 64
2, 817187, Note_on_c, 0, 39, 0
2, 817200, Note_on_c, 0, 39, 64
2, 817200, Note_on_c, 0, 51, 64
2, 817319, Note_on_c, 0, 39, 0
2, 817319, Note_on_c, 0, 51, 0
2, 817440, Note_on_c, 0, 39, 64
2, 817440, Note_on_c, 0, 51, 64
2, 817667, Note_on_c, 0, 39, 0
2, 817667, Note_on_c, 0, 51, 0
2, 817680, Note_on_c, 0, 51, 64
2, 817907, Note_on_c, 0, 51, 0
2, 817920, Note_on_c, 0, 39, 76
2, 817920, Note_on_c, 0, 46, 76
2, 817920, Note_on_c, 0, 51, 76
2, 818159, Note_on_c, 0, 39, 0
2, 818159, Note_on_c, 0, 46, 0
2, 818159, Note_on_c, 0, 51, 0
2, 818160, Note_on_c, 0, 39, 64
2, 818279, Note_on_c, 0, 39, 0
2, 818400, Note_on_c, 0, 51, 64
2, 818519, Note_on_c, 0, 51, 0
2, 818640, Note_on_c, 0, 39, 64
2, 818640, Note_on_c, 0, 51, 64
2, 818867, Note_on_c, 0, 39, 0
2, 818867, Note_on_c, 0, 51, 0
2, 818880, Note_on_c, 0, 39, 64
2, 819107, Note_on_c, 0, 39, 0
2, 819120, Note_on_c, 0, 39, 64
2, 819120, Note_on_c, 0, 51, 64
2, 819239, Note_on_c, 0, 39, 0
2, 819239, Note_on_c, 0, 51, 0
2, 819360, Note_on_c, 0, 39, 64
2, 819360, Note_on_c, 0, 51, 64
2, 819587, Note_on_c, 0, 39, 0
2, 819587, Note_on_c, 0, 51, 0
2, 819600, Note_on_c, 0, 51, 64
2, 819827, Note_on_c, 0, 51, 0
2, 819840, Note_on_c, 0, 41, 76
2, 819840, Note_on_c, 0, 48, 76
2, 819840, Note_on_c, 0, 53, 76
2, 820079, Note_on_c, 0, 41, 0
2, 820079, Note_on_c, 0, 48, 0
2, 820079, Note_on_c, 0, 53, 0
2, 820080, Note_on_c, 0, 41, 64
2, 820199, Note_on_c, 0, 41, 0
2, 820320, Note_on_c, 0, 53, 64
2, 820439, Note_on_c, 0, 53, 0
2, 820560, Note_on_c, 0, 41, 64
2, 820560, Note_on_c, 0, 53, 64
2, 820787, Note_on_c, 0, 41, 0
2, 820787, Note_on_c, 0, 53, 0
2, 820800, Note_on_c, 0, 41, 64
2, 821027, Note_on_c, 0, 41, 0
2, 821040, Note_on_c, 0, 41, 64
2, 821040, Note_on_c, 0, 53, 64
2, 821159, Note_on_c, 0, 41, 0
2, 821159, Note_on_c, 0, 53, 0
2, 821280, Note_on_c, 0, 41, 64
2, 821280, Note_on_c, 0, 53, 64
2, 821507, Note_on_c, 0, 41, 0
2, 821507, Note_on_c, 0, 53, 0
2, 821520, Note_on_c, 0, 53, 64
2, 821747, Note_on_c, 0, 53, 0
2, 821760, Note_on_c, 0, 41, 76
2, 821760, Note_on_c, 0, 48, 76
2, 821760, Note_on_c, 0, 53, 76
2, 821999, Note_on_c, 0, 41, 0
2, 821999, Note_on_c, 0, 48, 0
2, 821999, Note_on_c, 0, 53, 0
2, 822000, Note_on_c, 0, 41, 64
2, 822119, Note_on_c, 0, 41, 0
2, 822240, Note_on_c, 0, 53, 64
2, 822359, Note_on_c, 0, 53, 0
2, 822480, Note_on_c, 0, 41, 64
2, 822480, Note_on_c, 0, 53, 64
2, 822707, Note_on_c, 0, 41, 0
2, 822707, Note_on_c, 0, 53, 0
2, 822720, Note_on_c, 0, 41, 64
2, 822947, Note_on_c, 0, 41, 0
2, 822960, Note_on_c, 0, 41, 64
2, 822960, Note_on_c, 0, 53, 64
2, 823079, Note_on_c, 0, 41, 0
2, 823079, Note_on_c, 0, 53, 0
2, 823200, Note_on_c, 0, 41, 64
2, 823200, Note_on_c, 0, 53, 64
2, 823427, Note_on_c, 0, 41, 0
2, 823427, Note_on_c, 0, 53, 0
2, 823440, Note_on_c, 0, 53, 64
2, 823667, Note_on_c, 0, 53, 0
2, 823680, Key_signature, 5, "major"
2, 823680, Note_on_c, 0, 44, 127
2, 823680, Note_on_c, 0, 51, 127
2, 823680, Note_on_c, 0, 56, 127
2, 823919, Note_on_c, 0, 44, 0
2, 823919, Note_on_c, 0, 51, 0
2, 823919, Note_on_c, 0, 56, 0
2, 823920, Note_on_c, 0, 44, 112
2, 824039, Note_on_c, 0, 44, 0
2, 824160, Note_on_c, 0, 56, 112
2, 824279, Note_on_c, 0, 56, 0
2, 824400, Note_on_c, 0, 44, 112
2, 824400, Note_on_c, 0, 56, 112
2, 824627, Note_on_c, 0, 44, 0
2, 824627, Note_on_c, 0, 56, 0
2, 824640, Note_on_c, 0, 44, 112
2, 824759, Note_on_c, 0, 44, 0
2, 824880, Note_on_c, 0, 44, 112
2, 824880, Note_on_c, 0, 56, 112
2, 825107, Note_on_c, 0, 44, 0
2, 825107, Note_on_c, 0, 56, 0
2, 825120, Note_on_c, 0, 44, 112
2, 825120, Note_on_c, 0, 56, 112
2, 825347, Note_on_c, 0, 44, 0
2, 825347, Note_on_c, 0, 56, 0
2, 825360, Note_on_c, 0, 56, 112
2, 825479, Note_on_c, 0, 56, 0
2, 825600, Note_on_c, 0, 43, 127
2, 825600, Note_on_c, 0, 51, 127
2, 825600, Note_on_c, 0, 55, 127
2, 825839, Note_on_c, 0, 43, 0
2, 825839, Note_on_c, 0, 51, 0
2, 825839, Note_on_c, 0, 55, 0
2, 825840, Note_on_c, 0, 43, 112
2, 825959, Note_on_c, 0, 43, 0
2, 826080, Note_on_c, 0, 55, 112
2, 826199, Note_on_c, 0, 55, 0
2, 826320, Note_on_c, 0, 43, 112
2, 826320, Note_on_c, 0, 55, 112
2, 826547, Note_on_c, 0, 43, 0
2, 826547, Note_on_c, 0, 55, 0
2, 826560, Note_on_c, 0, 43, 112
2, 826679, Note_on_c, 0, 43, 0
2, 826800, Note_on_c, 0, 43, 112
2, 826800, Note_on_c, 0, 55, 112
2, 827027, Note_on_c, 0, 43, 0
2, 827027, Note_on_c, 0, 55, 0
2, 827040, Note_on_c, 0, 43, 112
2, 827040, Note_on_c, 0, 55, 112
2, 827267, Note_on_c, 0, 43, 0
2, 827267, Note_on_c, 0, 55, 0
2, 827280, Note_on_c, 0, 55, 112
2, 827399, Note_on_c, 0, 55, 0
2, 827520, Note_on_c, 0, 42, 127
2, 827520, Note_on_c, 0, 49, 127
2, 827520, Note_on_c, 0, 54, 127
2, 827759, Note_on_c, 0, 42, 0
2, 827759, Note_on_c, 0, 49, 0
2, 827759, Note_on_c, 0, 54, 0
2, 827760, Note_on_c, 0, 42, 112
2, 827879, Note_on_c, 0, 42, 0
2, 828000, Note_on_c, 0, 54, 112
2, 828119, Note_on_c, 0, 54, 0
2, 828240, Note_on_c, 0, 42, 112
2, 828240, Note_on_c, 0, 54, 112
2, 828467, Note_on_c, 0, 42, 0
2, 828467, Note_on_c, 0, 54, 0
2, 828480, Note_on_c, 0, 42, 112
2, 828599, Note_on_c, 0, 42, 0
2, 828720, Note_on_c, 0, 42, 112
2, 828720, Note_on_c, 0, 54, 112
2, 828947, Note_on_c, 0, 42, 0
2, 828947, Note_on_c, 0, 54, 0
2, 828960, Note_on_c, 0, 42, 112
2, 828960, Note_on_c, 0, 54, 112
2, 829187, Note_on_c, 0, 42, 0
2, 829187, Note_on_c, 0, 54, 0
2, 829200, Note_on_c, 0, 54, 112
2, 829319, Note_on_c, 0, 54, 0
2, 829440, Note_on_c, 0, 41, 127
2, 829440, Note_on_c, 0, 49, 127
2, 829440, Note_on_c, 0, 53, 127
2, 829679, Note_on_c, 0, 41, 0
2, 829679, Note_on_c, 0, 49, 0
2, 829679, Note_on_c, 0, 53, 0
2, 829680, Note_on_c, 0, 41, 112
2, 829799, Note_on_c, 0, 41, 0
2, 829920, Note_on_c, 0, 53, 112
2, 830039, Note_on_c, 0, 53, 0
2, 830160, Note_on_c, 0, 41, 112
2, 830160, Note_on_c, 0, 53, 112
2, 830387, Note_on_c, 0, 41, 0
2, 830387, Note_on_c, 0, 53, 0
2, 830400, Note_on_c, 0, 41, 112
2, 830519, Note_on_c, 0, 41, 0
2, 830640, Note_on_c, 0, 41, 112
2, 830640, Note_on_c, 0, 53, 112
2, 830867, Note_on_c, 0, 41, 0
2, 830867, Note_on_c, 0, 53, 0
2, 830880, Note_on_c, 0, 41, 112
2, 830880, Note_on_c, 0, 53, 112
2, 831107, Note_on_c, 0, 41, 0
2, 831107, Note_on_c, 0, 53, 0
2, 831120, Note_on_c, 0, 53, 112
2, 831239, Note_on_c, 0, 53, 0
2, 831360, Note_on_c, 0, 40, 127
2, 831360, Note_on_c, 0, 47, 127
2, 831360, Note_on_c, 0, 52, 127
2, 831599, Note_on_c, 0, 40, 0
2, 831599, Note_on_c, 0, 47, 0
2, 831599, Note_on_c, 0, 52, 0
2, 831600, Note_on_c, 0, 40, 112
2, 831719, Note_on_c, 0, 40, 0
2, 831840, Note_on_c, 0, 52, 112
2, 831959, Note_on_c, 0, 52, 0
2, 832080, Note_on_c, 0, 40, 112
2, 832080, Note_on_c, 0, 52, 112
2, 832307, Note_on_c, 0, 40, 0
2, 832307, Note_on_c, 0, 52, 0
2, 832320, Note_on_c, 0, 40, 112
2, 832439, Note_on_c, 0, 40, 0
2, 832560, Note_on_c, 0, 40, 112
2, 832560, Note_on_c, 0, 52, 112
2, 832787, Note_on_c, 0, 40, 0
2, 832787, Note_on_c, 0, 52, 0
2, 832800, Note_on_c, 0, 40, 112
2, 832800, Note_on_c, 0, 52, 112
2, 833027, Note_on_c, 0, 40, 0
2, 833027, Note_on_c, 0, 52, 0
2, 833040, Note_on_c, 0, 52, 112
2, 833159, Note_on_c, 0, 52, 0
2, 833280, Note_on_c, 0, 39, 127
2, 833280, Note_on_c, 0, 46, 127
2, 833280, Note_on_c, 0, 51, 127
2, 833519, Note_on_c, 0, 39, 0
2, 833519, Note_on_c, 0, 46, 0
2, 833519, Note_on_c, 0, 51, 0
2, 833520, Note_on_c, 0, 39, 112
2, 833639, Note_on_c, 0, 39, 0
2, 833760, Note_on_c, 0, 51, 112
2, 833879, Note_on_c, 0, 51, 0
2, 834000, Note_on_c, 0, 39, 112
2, 834000, Note_on_c, 0, 51, 112
2, 834227, Note_on_c, 0, 39, 0
2, 834227, Note_on_c, 0, 51, 0
2, 834240, Note_on_c, 0, 39, 112
2, 834359, Note_on_c, 0, 39, 0
2, 834480, Note_on_c, 0, 39, 112
2, 834480, Note_on_c, 0, 51, 112
2, 834707, Note_on_c, 0, 39, 0
2, 834707, Note_on_c, 0, 51, 0
2, 834720, Note_on_c, 0, 39, 112
2, 834720, Note_on_c, 0, 51, 112
2, 834947, Note_on_c, 0, 39, 0
2, 834947, Note_on_c, 0, 51, 0
2, 834960, Note_on_c, 0, 51, 112
2, 835079, Note_on_c, 0, 51, 0
2, 835200, Note_on_c, 0, 38, 127
2, 835200, Note_on_c, 0, 45, 127
2, 835200, Note_on_c, 0, 50, 127
2, 835439, Note_on_c, 0, 38, 0
2, 835439, Note_on_c, 0, 45, 0
2, 835439, Note_on_c, 0, 50, 0
2, 835440, Note_on_c, 0, 38, 112
2, 835559, Note_on_c, 0, 38, 0
2, 835680, Note_on_c, 0, 50, 112
2, 835799, Note_on_c, 0, 50, 0
2, 835920, Note_on_c, 0, 38, 112
2, 835920, Note_on_c, 0, 50, 112
2, 836147, Note_on_c, 0, 38, 0
2, 836147, Note_on_c, 0, 50, 0
2, 836160, Note_on_c, 0, 38, 112
2, 836279, Note_on_c, 0, 38, 0
2, 836400, Note_on_c, 0, 38, 112
2, 836400, Note_on_c, 0, 50, 112
2, 836627, Note_on_c, 0, 38, 0
2, 836627, Note_on_c, 0, 50, 0
2, 836640, Note_on_c, 0, 38, 112
2, 836640, Note_on_c, 0, 50, 112
2, 836867, Note_on_c, 0, 38, 0
2, 836867, Note_on_c, 0, 50, 0
2, 836880, Note_on_c, 0, 50, 112
2, 836999, Note_on_c, 0, 50, 0
2, 837120, Note_on_c, 0, 37, 112
2, 837120, Note_on_c, 0, 44, 112
2, 837120, Note_on_c, 0, 49, 112
2, 837347, Note_on_c, 0, 37, 0
2, 837347, Note_on_c, 0, 44, 0
2, 837347, Note_on_c, 0, 49, 0
2, 837360, Note_on_c, 0, 37, 112
2, 837479, Note_on_c, 0, 37, 0
2, 837600, Note_on_c, 0, 37, 112
2, 837600, Note_on_c, 0, 49, 112
2, 837719, Note_on_c, 0, 37, 0
2, 837719, Note_on_c, 0, 49, 0
2, 837840, Note_on_c, 0, 37, 112
2, 837959, Note_on_c, 0, 37, 0
2, 838080, Note_on_c, 0, 42, 112
2, 838080, Note_on_c, 0, 49, 112
2, 838080, Note_on_c, 0, 54, 112
2, 838307, Note_on_c, 0, 42, 0
2, 838307, Note_on_c, 0, 49, 0
2, 838307, Note_on_c, 0, 54, 0
2, 838320, Note_on_c, 0, 42, 112
2, 838439, Note_on_c, 0, 42, 0
2, 838560, Note_on_c, 0, 42, 112
2, 838560, Note_on_c, 0, 54, 112
2, 838679, Note_on_c, 0, 42, 0
2, 838679, Note_on_c, 0, 54, 0
2, 838800, Note_on_c, 0, 42, 112
2, 838919, Note_on_c, 0, 42, 0
2, 839040, Note_on_c, 0, 44, 127
2, 839040, Note_on_c, 0, 51, 127
2, 839040, Note_on_c, 0, 56, 127
2, 839279, Note_on_c, 0, 44, 0
2, 839279, Note_on_c, 0, 51, 0
2, 839279, Note_on_c, 0, 56, 0
2, 839280, Note_on_c, 0, 44, 112
2, 839399, Note_on_c, 0, 44, 0
2, 839520, Note_on_c, 0, 56, 112
2, 839639, Note_on_c, 0, 56, 0
2, 839760, Note_on_c, 0, 44, 112
2, 839760, Note_on_c, 0, 56, 112
2, 839987, Note_on_c, 0, 44, 0
2, 839987, Note_on_c, 0, 56, 0
2, 840000, Note_on_c, 0, 44, 112
2, 840119, Note_on_c, 0, 44, 0
2, 840240, Note_on_c, 0, 44, 112
2, 840240, Note_on_c, 0, 56, 112
2, 840467, Note_on_c, 0, 44, 0
2, 840467, Note_on_c, 0, 56, 0
2, 840480, Note_on_c, 0, 44, 112
2, 840480, Note_on_c, 0, 56, 112
2, 840707, Note_on_c, 0, 44, 0
2, 840707, Note_on_c, 0, 56, 0
2, 840720, Note_on_c, 0, 56, 112
2, 840839, Note_on_c, 0, 56, 0
2, 840960, Note_on_c, 0, 43, 127
2, 840960, Note_on_c, 0, 51, 127
2, 840960, Note_on_c, 0, 55, 127
2, 841199, Note_on_c, 0, 43, 0
2, 841199, Note_on_c, 0, 51, 0
2, 841199, Note_on_c, 0, 55, 0
2, 841200, Note_on_c, 0, 43, 112
2, 841319, Note_on_c, 0, 43, 0
2, 841440, Note_on_c, 0, 55, 112
2, 841559, Note_on_c, 0, 55, 0
2, 841680, Note_on_c, 0, 43, 112
2, 841680, Note_on_c, 0, 55, 112
2, 841907, Note_on_c, 0, 43, 0
2, 841907, Note_on_c, 0, 55, 0
2, 841920, Note_on_c, 0, 43, 112
2, 842039, Note_on_c, 0, 43, 0
2, 842160, Note_on_c, 0, 43, 112
2, 842160, Note_on_c, 0, 55, 112
2, 842387, Note_on_c, 0, 43, 0
2, 842387, Note_on_c, 0, 55, 0
2, 842400, Note_on_c, 0, 43, 112
2, 842400, Note_on_c, 0, 55, 112
2, 842627, Note_on_c, 0, 43, 0
2, 842627, Note_on_c, 0, 55, 0
2, 842640, Note_on_c, 0, 55, 112
2, 842759, Note_on_c, 0, 55, 0
2, 842880, Note_on_c, 0, 42, 127
2, 842880, Note_on_c, 0, 49, 127
2, 842880, Note_on_c, 0, 54, 127
2, 843119, Note_on_c, 0, 42, 0
2, 843119, Note_on_c, 0, 49, 0
2, 843119, Note_on_c, 0, 54, 0
2, 843120, Note_on_c, 0, 42, 112
2, 843239, Note_on_c, 0, 42, 0
2, 843360, Note_on_c, 0, 54, 112
2, 843479, Note_on_c, 0, 54, 0
2, 843600, Note_on_c, 0, 42, 112
2, 843600, Note_on_c, 0, 54, 112
2, 843827, Note_on_c, 0, 42, 0
2, 843827, Note_on_c, 0, 54, 0
2, 843840, Note_on_c, 0, 42, 112
2, 843959, Note_on_c, 0, 42, 0
2, 844080, Note_on_c, 0, 42, 112
2, 844080, Note_on_c, 0, 54, 112
2, 844307, Note_on_c, 0, 42, 0
2, 844307, Note_on_c, 0, 54, 0
2, 844320, Note_on_c, 0, 42, 112
2, 844320, Note_on_c, 0, 54, 112
2, 844547, Note_on_c, 0, 42, 0
2, 844547, Note_on_c, 0, 54, 0
2, 844560, Note_on_c, 0, 54, 112
2, 844679, Note_on_c, 0, 54, 0
2, 844800, Note_on_c, 0, 41, 127
2, 844800, Note_on_c, 0, 49, 127
2, 844800, Note_on_c, 0, 53, 127
2, 845039, Note_on_c, 0, 41, 0
2, 845039, Note_on_c, 0, 49, 0
2, 845039, Note_on_c, 0, 53, 0
2, 845040, Note_on_c, 0, 41, 112
2, 845159, Note_on_c, 0, 41, 0
2, 845280, Note_on_c, 0, 53, 112
2, 845399, Note_on_c, 0, 53, 0
2, 845520, Note_on_c, 0, 41, 112
2, 845520, Note_on_c, 0, 53, 112
2, 845747, Note_on_c, 0, 41, 0
2, 845747, Note_on_c, 0, 53, 0
2, 845760, Note_on_c, 0, 41, 112
2, 845879, Note_on_c, 0, 41, 0
2, 846000, Note_on_c, 0, 41, 112
2, 846000, Note_on_c, 0, 53, 112
2, 846227, Note_on_c, 0, 41, 0
2, 846227, Note_on_c, 0, 53, 0
2, 846240, Note_on_c, 0, 41, 112
2, 846240, Note_on_c, 0, 53, 112
2, 846467, Note_on_c, 0, 41, 0
2, 846467, Note_on_c, 0, 53, 0
2, 846480, Note_on_c, 0, 53, 112
2, 846599, Note_on_c, 0, 53, 0
2, 846720, Note_on_c, 0, 40, 127
2, 846720, Note_on_c, 0, 47, 127
2, 846720, Note_on_c, 0, 52, 127
2, 846959, Note_on_c, 0, 40, 0
2, 846959, Note_on_c, 0, 47, 0
2, 846959, Note_on_c, 0, 52, 0
2, 846960, Note_on_c, 0, 40, 112
2, 847079, Note_on_c, 0, 40, 0
2, 847200, Note_on_c, 0, 52, 112
2, 847319, Note_on_c, 0, 52, 0
2, 847440, Note_on_c, 0, 40, 112
2, 847440, Note_on_c, 0, 52, 112
2, 847667, Note_on_c, 0, 40, 0
2, 847667, Note_on_c, 0, 52, 0
2, 847680, Note_on_c, 0, 40, 112
2, 847799, Note_on_c, 0, 40, 0
2, 847920, Note_on_c, 0, 40, 112
2, 847920, Note_on_c, 0, 52, 112
2, 848147, Note_on_c, 0, 40, 0
2, 848147, Note_on_c, 0, 52, 0
2, 848160, Note_on_c, 0, 40, 112
2, 848160, Note_on_c, 0, 52, 112
2, 848387, Note_on_c, 0, 40, 0
2, 848387, Note_on_c, 0, 52, 0
2, 848400, Note_on_c, 0, 52, 112
2, 848519, Note_on_c, 0, 52, 0
2, 848640, Note_on_c, 0, 39, 127
2, 848640, Note_on_c, 0, 46, 127
2, 848640, Note_on_c, 0, 51, 127
2, 848879, Note_on_c, 0, 39, 0
2, 848879, Note_on_c, 0, 46, 0
2, 848879, Note_on_c, 0, 51, 0
2, 848880, Note_on_c, 0, 39, 112
2, 848999, Note_on_c, 0, 39, 0
2, 849120, Note_on_c, 0, 51, 112
2, 849239, Note_on_c, 0, 51, 0
2, 849360, Note_on_c, 0, 39, 112
2, 849360, Note_on_c, 0, 51, 112
2, 849587, Note_on_c, 0, 39, 0
2, 849587, Note_on_c, 0, 51, 0
2, 849600, Note_on_c, 0, 39, 112
2, 849719, Note_on_c, 0, 39, 0
2, 849840, Note_on_c, 0, 39, 112
2, 849840, Note_on_c, 0, 51, 112
2, 850067, Note_on_c, 0, 39, 0
2, 850067, Note_on_c, 0, 51, 0
2, 850080, Note_on_c, 0, 39, 112
2, 850080, Note_on_c, 0, 51, 112
2, 850307, Note_on_c, 0, 39, 0
2, 850307, Note_on_c, 0, 51, 0
2, 850320, Note_on_c, 0, 51, 112
2, 850439, Note_on_c, 0, 51, 0
2, 850560, Note_on_c, 0, 38, 127
2, 850560, Note_on_c, 0, 45, 127
2, 850560, Note_on_c, 0, 50, 127
2, 850799, Note_on_c, 0, 38, 0
2, 850799, Note_on_c, 0, 45, 0
2, 850799, Note_on_c, 0, 50, 0
2, 850800, Note_on_c, 0, 38, 112
2, 850919, Note_on_c, 0, 38, 0
2, 851040, Note_on_c, 0, 50, 112
2, 851159, Note_on_c, 0, 50, 0
2, 851280, Note_on_c, 0, 38, 112
2, 851280, Note_on_c, 0, 50, 112
2, 851507, Note_on_c, 0, 38, 0
2, 851507, Note_on_c, 0, 50, 0
2, 851520, Note_on_c, 0, 38, 112
2, 851639, Note_on_c, 0, 38, 0
2, 851760, Note_on_c, 0, 38, 112
2, 851760, Note_on_c, 0, 50, 112
2, 851987, Note_on_c, 0, 38, 0
2, 851987, Note_on_c, 0, 50, 0
2, 852000, Note_on_c, 0, 38, 112
2, 852000, Note_on_c, 0, 50, 112
2, 852227, Note_on_c, 0, 38, 0
2, 852227, Note_on_c, 0, 50, 0
2, 852240, Note_on_c, 0, 50, 112
2, 852359, Note_on_c, 0, 50, 0
2, 852480, Note_on_c, 0, 37, 112
2, 852480, Note_on_c, 0, 44, 112
2, 852480, Note_on_c, 0, 49, 112
2, 852707, Note_on_c, 0, 37, 0
2, 852707, Note_on_c, 0, 44, 0
2, 852707, Note_on_c, 0, 49, 0
2, 852720, Note_on_c, 0, 37, 112
2, 852839, Note_on_c, 0, 37, 0
2, 852960, Note_on_c, 0, 37, 112
2, 852960, Note_on_c, 0, 49, 112
2, 853079, Note_on_c, 0, 37, 0
2, 853079, Note_on_c, 0, 49, 0
2, 853200, Note_on_c, 0, 37, 112
2, 853319, Note_on_c, 0, 37, 0
2, 853440, Note_on_c, 0, 42, 112
2, 853440, Note_on_c, 0, 49, 112
2, 853440, Note_on_c, 0, 54, 112
2, 853667, Note_on_c, 0, 42, 0
2, 853667, Note_on_c, 0, 49, 0
2, 853667, Note_on_c, 0, 54, 0
2, 853680, Note_on_c, 0, 42, 112
2, 853799, Note_on_c, 0, 42, 0
2, 853920, Note_on_c, 0, 42, 112
2, 853920, Note_on_c, 0, 54, 112
2, 854039, Note_on_c, 0, 42, 0
2, 854039, Note_on_c, 0, 54, 0
2, 854160, Note_on_c, 0, 42, 112
2, 854279, Note_on_c, 0, 42, 0
2, 854400, Note_on_c, 0, 56, 80
2, 854400, Note_on_c, 0, 63, 80
2, 854400, Note_on_c, 0, 66, 80
2, 854400, Note_on_c, 0, 68, 80
2, 856223, Note_on_c, 0, 56, 0
2, 856223, Note_on_c, 0, 63, 0
2, 856223, Note_on_c, 0, 66, 0
2, 856223, Note_on_c, 0, 68, 0
2, 856320, Note_on_c, 0, 54, 80
2, 856320, Note_on_c, 0, 61, 80
2, 856320, Note_on_c, 0, 63, 80
2, 856320, Note_on_c, 0, 66, 80
2, 857231, Note_on_c, 0, 54, 0
2, 857231, Note_on_c, 0, 61, 0
2, 857231, Note_on_c, 0, 63, 0
2, 857231, Note_on_c, 0, 66, 0
2, 857280, Note_on_c, 0, 51, 80
2, 857735, Note_on_c, 0, 51, 0
2, 857760, Note_on_c, 0, 52, 80
2, 858215, Note_on_c, 0, 52, 0
2, 858240, Note_on_c, 0, 54, 80
2, 858240, Note_on_c, 0, 64, 80
2, 858240, Note_on_c, 0, 66, 80
2, 859151, Note_on_c, 0, 54, 0
2, 859151, Note_on_c, 0, 64, 0
2, 859151, Note_on_c, 0, 66, 0
2, 859200, Note_on_c, 0, 59, 80
2, 860111, Note_on_c, 0, 59, 0
2, 860160, Note_on_c, 0, 51, 80
2, 860160, Note_on_c, 0, 58, 80
2, 860160, Note_on_c, 0, 63, 80
2, 861071, Note_on_c, 0, 51, 0
2, 861071, Note_on_c, 0, 58, 0
2, 861071, Note_on_c, 0, 63, 0
2, 861120, Note_on_c, 0, 61, 80
2, 862031, Note_on_c, 0, 61, 0
2, 862080, Note_on_c, 0, 56, 80
2, 862080, Note_on_c, 0, 63, 80
2, 862080, Note_on_c, 0, 66, 80
2, 862080, Note_on_c, 0, 68, 80
2, 863903, Note_on_c, 0, 56, 0
2, 863903, Note_on_c, 0, 63, 0
2, 863903, Note_on_c, 0, 66, 0
2, 863903, Note_on_c, 0, 68, 0
2, 864000, Note_on_c, 0, 54, 80
2, 864000, Note_on_c, 0, 61, 80
2, 864000, Note_on_c, 0, 63, 80
2, 864000, Note_on_c, 0, 66, 80
2, 865367, Note_on_c, 0, 54, 0
2, 865367, Note_on_c, 0, 61, 0
2, 865367, Note_on_c, 0, 63, 0
2, 865367, Note_on_c, 0, 66, 0
2, 865440, Note_on_c, 0, 64, 80
2, 865895, Note_on_c, 0, 64, 0
2, 865920, Note_on_c, 0, 59, 80
2, 865920, Note_on_c, 0, 64, 80
2, 865920, Note_on_c, 0, 66, 80
2, 867743, Note_on_c, 0, 59, 0
2, 867743, Note_on_c, 0, 64, 0
2, 867743, Note_on_c, 0, 66, 0
2, 867840, Note_on_c, 0, 51, 80
2, 867840, Note_on_c, 0, 58, 80
2, 867840, Note_on_c, 0, 63, 80
2, 869663, Note_on_c, 0, 51, 0
2, 869663, Note_on_c, 0, 58, 0
2, 869663, Note_on_c, 0, 63, 0
2, 869760, Note_on_c, 0, 40, 80
2, 869760, Note_on_c, 0, 52, 80
2, 869987, Note_on_c, 0, 40, 0
2, 869987, Note_on_c, 0, 52, 0
2, 870000, Note_on_c, 0, 40, 80
2, 870000, Note_on_c, 0, 52, 80
2, 870455, Note_on_c, 0, 40, 0
2, 870455, Note_on_c, 0, 52, 0
2, 870480, Note_on_c, 0, 40, 80
2, 870480, Note_on_c, 0, 52, 80
2, 870707, Note_on_c, 0, 40, 0
2, 870707, Note_on_c, 0, 52, 0
2, 870720, Note_on_c, 0, 40, 80
2, 870720, Note_on_c, 0, 52, 80
2, 871175, Note_on_c, 0, 40, 0
2, 871175, Note_on_c, 0, 52, 0
2, 871200, Note_on_c, 0, 40, 80
2, 871200, Note_on_c, 0, 52, 80
2, 871427, Note_on_c, 0, 40, 0
2, 871427, Note_on_c, 0, 52, 0
2, 871440, Note_on_c, 0, 40, 80
2, 871440, Note_on_c, 0, 52, 80
2, 871667, Note_on_c, 0, 40, 0
2, 871667, Note_on_c, 0, 52, 0
2, 871920, Note_on_c, 0, 40, 80
2, 871920, Note_on_c, 0, 52, 80
2, 872147, Note_on_c, 0, 40, 0
2, 872147, Note_on_c, 0, 52, 0
2, 872160, Note_on_c, 0, 40, 80
2, 872160, Note_on_c, 0, 52, 80
2, 872615, Note_on_c, 0, 40, 0
2, 872615, Note_on_c, 0, 52, 0
2, 872640, Note_on_c, 0, 40, 80
2, 872640, Note_on_c, 0, 52, 80
2, 873095, Note_on_c, 0, 40, 0
2, 873095, Note_on_c, 0, 52, 0
2, 873120, Note_on_c, 0, 40, 80
2, 873120, Note_on_c, 0, 52, 80
2, 873575, Note_on_c, 0, 40, 0
2, 873575, Note_on_c, 0, 52, 0
2, 873600, Note_on_c, 0, 40, 80
2, 874283, Note_on_c, 0, 40, 0
2, 874320, Note_on_c, 0, 47, 78
2, 875003, Note_on_c, 0, 47, 0
2, 875040, Note_on_c, 0, 42, 75
2, 875040, Note_on_c, 0, 54, 75
2, 875495, Note_on_c, 0, 42, 0
2, 875495, Note_on_c, 0, 54, 0
2, 875760, Note_on_c, 0, 49, 72
2, 876443, Note_on_c, 0, 49, 0
2, 876480, Note_on_c, 0, 47, 69
2, 876935, Note_on_c, 0, 47, 0
2, 876960, Note_on_c, 0, 42, 67
2, 877415, Note_on_c, 0, 42, 0
2, 877440, Note_on_c, 0, 42, 65
2, 878123, Note_on_c, 0, 42, 0
2, 878160, Note_on_c, 0, 47, 62
2, 878843, Note_on_c, 0, 47, 0
2, 878880, Note_on_c, 0, 54, 59
2, 879335, Note_on_c, 0, 54, 0
2, 879600, Note_on_c, 0, 49, 56
2, 880283, Note_on_c, 0, 49, 0
2, 880320, Note_on_c, 0, 47, 53
2, 880775, Note_on_c, 0, 47, 0
2, 880800, Note_on_c, 0, 42, 51
2, 881255, Note_on_c, 0, 42, 0
2, 881280, Note_on_c, 0, 59, 49
2, 882191, Note_on_c, 0, 59, 0
2, 882240, Note_on_c, 0, 58, 49
2, 883151, Note_on_c, 0, 58, 0
2, 883200, Note_on_c, 0, 57, 49
2, 884111, Note_on_c, 0, 57, 0
2, 884160, Note_on_c, 0, 56, 49
2, 885071, Note_on_c, 0, 56, 0
2, 885120, Note_on_c, 0, 55, 49
2, 886031, Note_on_c, 0, 55, 0
2, 886080, Note_on_c, 0, 54, 49
2, 886991, Note_on_c, 0, 54, 0
2, 887040, Note_on_c, 0, 43, 49
2, 887040, Note_on_c, 0, 55, 49
2, 887951, Note_on_c, 0, 43, 0
2, 887951, Note_on_c, 0, 55, 0
2, 888000, Note_on_c, 0, 45, 54
2, 888000, Note_on_c, 0, 57, 54
2, 888911, Note_on_c, 0, 45, 0
2, 888911, Note_on_c, 0, 57, 0
2, 888960, Note_on_c, 0, 46, 59
2, 888960, Note_on_c, 0, 58, 59
2, 889871, Note_on_c, 0, 46, 0
2, 889871, Note_on_c, 0, 58, 0
2, 889920, Note_on_c, 0, 48, 64
2, 889920, Note_on_c, 0, 60, 64
2, 890831, Note_on_c, 0, 48, 0
2, 890831, Note_on_c, 0, 60, 0
2, 890880, Note_on_c, 0, 37, 69
2, 890880, Note_on_c, 0, 49, 69
2, 891791, Note_on_c, 0, 37, 0
2, 891791, Note_on_c, 0, 49, 0
2, 891840, Note_on_c, 0, 39, 74
2, 891840, Note_on_c, 0, 51, 74
2, 892751, Note_on_c, 0, 39, 0
2, 892751, Note_on_c, 0, 51, 0
2, 892800, Key_signature, 3, "major"
2, 892800, Note_on_c, 0, 45, 80
2, 893255, Note_on_c, 0, 45, 0
2, 893280, Note_on_c, 0, 49, 57
2, 893280, Note_on_c, 0, 52, 71
2, 893735, Note_on_c, 0, 49, 0
2, 893735, Note_on_c, 0, 52, 0
2, 893760, Note_on_c, 0, 45, 80
2, 894215, Note_on_c, 0, 45, 0
2, 894240, Note_on_c, 0, 49, 57
2, 894240, Note_on_c, 0, 52, 80
2, 894695, Note_on_c, 0, 49, 0
2, 894695, Note_on_c, 0, 52, 0
2, 894720, Note_on_c, 0, 45, 69
2, 895175, Note_on_c, 0, 45, 0
2, 895200, Note_on_c, 0, 49, 57
2, 895200, Note_on_c, 0, 52, 71
2, 895655, Note_on_c, 0, 49, 0
2, 895655, Note_on_c, 0, 52, 0
2, 895680, Note_on_c, 0, 45, 80
2, 896135, Note_on_c, 0, 45, 0
2, 896160, Note_on_c, 0, 49, 57
2, 896160, Note_on_c, 0, 52, 71
2, 896615, Note_on_c, 0, 49, 0
2, 896615, Note_on_c, 0, 52, 0
2, 896640, Note_on_c, 0, 38, 80
2, 897095, Note_on_c, 0, 38, 0
2, 897120, Note_on_c, 0, 42, 57
2, 897120, Note_on_c, 0, 45, 71
2, 897575, Note_on_c, 0, 42, 0
2, 897575, Note_on_c, 0, 45, 0
2, 897600, Note_on_c, 0, 38, 80
2, 898055, Note_on_c, 0, 38, 0
2, 898080, Note_on_c, 0, 42, 57
2, 898080, Note_on_c, 0, 45, 80
2, 898535, Note_on_c, 0, 42, 0
2, 898535, Note_on_c, 0, 45, 0
2, 898560, Note_on_c, 0, 40, 69
2, 899015, Note_on_c, 0, 40, 0
2, 899040, Note_on_c, 0, 44, 57
2, 899040, Note_on_c, 0, 47, 71
2, 899495, Note_on_c, 0, 44, 0
2, 899495, Note_on_c, 0, 47, 0
2, 899520, Note_on_c, 0, 40, 80
2, 899975, Note_on_c, 0, 40, 0
2, 900000, Note_on_c, 0, 44, 57
2, 900000, Note_on_c, 0, 47, 80
2, 900455, Note_on_c, 0, 44, 0
2, 900455, Note_on_c, 0, 47, 0
2, 900480, Note_on_c, 0, 45, 80
2, 900935, Note_on_c, 0, 45, 0
2, 900960, Note_on_c, 0, 49, 57
2, 900960, Note_on_c, 0, 52, 71
2, 901415, Note_on_c, 0, 49, 0
2, 901415, Note_on_c, 0, 52, 0
2, 901440, Note_on_c, 0, 45, 80
2, 901895, Note_on_c, 0, 45, 0
2, 901920, Note_on_c, 0, 49, 57
2, 901920, Note_on_c, 0, 52, 80
2, 902375, Note_on_c, 0, 49, 0
2, 902375, Note_on_c, 0, 52, 0
2, 902400, Note_on_c, 0, 45, 69
2, 902855, Note_on_c, 0, 45, 0
2, 902880, Note_on_c, 0, 49, 57
2, 902880, Note_on_c, 0, 52, 71
2, 903335, Note_on_c, 0, 49, 0
2, 903335, Note_on_c, 0, 52, 0
2, 903360, Note_on_c, 0, 45, 80
2, 903815, Note_on_c, 0, 45, 0
2, 903840, Note_on_c, 0, 49, 57
2, 903840, Note_on_c, 0, 52, 71
2, 904295, Note_on_c, 0, 49, 0
2, 904295, Note_on_c, 0, 52, 0
2, 904320, Note_on_c, 0, 42, 61
2, 904320, Note_on_c, 0, 45, 61
2, 904320, Note_on_c, 0, 50, 75
2, 904775, Note_on_c, 0, 42, 0
2, 904775, Note_on_c, 0, 45, 0
2, 904775, Note_on_c, 0, 50, 0
2, 905280, Note_on_c, 0, 44, 59
2, 905280, Note_on_c, 0, 47, 59
2, 905280, Note_on_c, 0, 52, 73
2, 905735, Note_on_c, 0, 44, 0
2, 905735, Note_on_c, 0, 47, 0
2, 905735, Note_on_c, 0, 52, 0
2, 906240, Note_on_c, 0, 42, 61
2, 906240, Note_on_c, 0, 45, 61
2, 906240, Note_on_c, 0, 50, 75
2, 906695, Note_on_c, 0, 42, 0
2, 906695, Note_on_c, 0, 45, 0
2, 906695, Note_on_c, 0, 50, 0
2, 906720, Note_on_c, 0, 45, 57
2, 906720, Note_on_c, 0, 49, 57
2, 906720, Note_on_c, 0, 52, 71
2, 907175, Note_on_c, 0, 45, 0
2, 907175, Note_on_c, 0, 49, 0
2, 907175, Note_on_c, 0, 52, 0
2, 907200, Note_on_c, 0, 49, 59
2, 907200, Note_on_c, 0, 52, 59
2, 908111, Note_on_c, 0, 49, 0
2, 908111, Note_on_c, 0, 52, 0
2, 908112, End_track
0, 0, End_of_file
